<?xml version="1.0" encoding="UTF-8" standalone="no"?>
<!-- Created with Inkscape (http://www.inkscape.org/) -->

<svg
   xmlns:dc="http://purl.org/dc/elements/1.1/"
   xmlns:cc="http://creativecommons.org/ns#"
   xmlns:rdf="http://www.w3.org/1999/02/22-rdf-syntax-ns#"
   xmlns:svg="http://www.w3.org/2000/svg"
   xmlns="http://www.w3.org/2000/svg"
   xmlns:sodipodi="http://sodipodi.sourceforge.net/DTD/sodipodi-0.dtd"
   xmlns:inkscape="http://www.inkscape.org/namespaces/inkscape"
   version="1.1"
   width="85.039368"
   height="96.555122"
   id="svg3023"
   xml:space="preserve"
   inkscape:version="0.48.4 r9939"
   sodipodi:docname="MB-CM15113_pcb.svg"><sodipodi:namedview
     pagecolor="#ffffff"
     bordercolor="#666666"
     borderopacity="1"
     objecttolerance="10"
     gridtolerance="10"
     guidetolerance="10"
     inkscape:pageopacity="0"
     inkscape:pageshadow="2"
     inkscape:window-width="640"
     inkscape:window-height="480"
     id="namedview4349"
     showgrid="false"
     inkscape:zoom="5.4165951"
     inkscape:cx="50.273632"
     inkscape:cy="64.708548"
     inkscape:current-layer="svg3023" /><metadata
     id="metadata3029"><rdf:RDF><cc:Work
         rdf:about=""><dc:format>image/svg+xml</dc:format><dc:type
           rdf:resource="http://purl.org/dc/dcmitype/StillImage" /><dc:title /></cc:Work></rdf:RDF></metadata><defs
     id="defs3027"><clipPath
       id="clipPath3037"><path
         d="M 0,842 595,842 595,0 0,0 0,842 z"
         id="path3039" /></clipPath><clipPath
       id="clipPath3055"><path
         d="M 0,842 595,842 595,0 0,0 0,842 z"
         id="path3057" /></clipPath><clipPath
       id="clipPath3073"><path
         d="m 124.2,462.839 265.319,0 0,272.88 -265.319,0 0,-272.88 z"
         id="path3075" /></clipPath><clipPath
       id="clipPath3085"><path
         d="M 0,842 595,842 595,0 0,0 0,842 z"
         id="path3087" /></clipPath></defs><g
     transform="matrix(1.25,0,0,-1.25,7.0866144,89.468507)"
     id="copper1"><rect
       width="11.338583"
       height="3.1181102"
       x="-5.6692915"
       y="-42.661415"
       transform="scale(1,-1)"
       id="connector2pin"
       style="fill:#f5bf00;fill-opacity:1;fill-rule:nonzero;stroke:none" /><rect
       width="11.338583"
       height="3.1181102"
       x="-5.6692915"
       y="-34.157482"
       transform="scale(1,-1)"
       id="connector5pin"
       style="fill:#f5bf00;fill-opacity:1;fill-rule:nonzero;stroke:none" /><rect
       width="11.338583"
       height="3.1181102"
       x="-5.6692915"
       y="-25.653542"
       transform="scale(1,-1)"
       id="connector11pin"
       style="fill:#f5bf00;fill-opacity:1;fill-rule:nonzero;stroke:none" /><rect
       width="11.338583"
       height="3.1181102"
       x="-5.6692915"
       y="-17.149605"
       transform="scale(1,-1)"
       id="connector13pin"
       style="fill:#f5bf00;fill-opacity:1;fill-rule:nonzero;stroke:none" /><rect
       width="11.338583"
       height="3.1181102"
       x="-5.6692915"
       y="-8.645668"
       transform="scale(1,-1)"
       id="connector15pin"
       style="fill:#f5bf00;fill-opacity:1;fill-rule:nonzero;stroke:none" /><rect
       width="11.338583"
       height="3.1181102"
       x="-5.6692915"
       y="-38.409451"
       transform="scale(1,-1)"
       id="connector4pin"
       style="fill:#f5bf00;fill-opacity:1;fill-rule:nonzero;stroke:none" /><rect
       width="11.338583"
       height="3.1181102"
       x="-5.6692915"
       y="-29.90551"
       transform="scale(1,-1)"
       id="connector10pin"
       style="fill:#f5bf00;fill-opacity:1;fill-rule:nonzero;stroke:none" /><rect
       width="11.338583"
       height="3.1181102"
       x="-5.6692915"
       y="-21.401573"
       transform="scale(1,-1)"
       id="connector12pin"
       style="fill:#f5bf00;fill-opacity:1;fill-rule:nonzero;stroke:none" /><rect
       width="11.338583"
       height="3.1181102"
       x="-5.6692915"
       y="-12.897636"
       transform="scale(1,-1)"
       id="connector14pin"
       style="fill:#f5bf00;fill-opacity:1;fill-rule:nonzero;stroke:none" /><rect
       width="11.338583"
       height="3.1181102"
       x="-5.6692915"
       y="-4.3936996"
       transform="scale(1,-1)"
       id="connector16pin"
       style="fill:#f5bf00;fill-opacity:1;fill-rule:nonzero;stroke:none" /><rect
       width="11.338583"
       height="3.1181102"
       x="-5.6692915"
       y="-51.165356"
       transform="scale(1,-1)"
       id="connector0pin"
       style="fill:#f5bf00;fill-opacity:1;fill-rule:nonzero;stroke:none" /><rect
       width="11.338583"
       height="3.1181102"
       x="-5.6692915"
       y="-46.913387"
       transform="scale(1,-1)"
       id="connector1pin"
       style="fill:#f5bf00;fill-opacity:1;fill-rule:nonzero;stroke:none" /><rect
       width="11.338583"
       height="3.1181102"
       x="51.023621"
       y="-42.661415"
       transform="scale(1,-1)"
       id="connector34pin"
       style="fill:#f5bf00;fill-opacity:1;fill-rule:nonzero;stroke:none" /><rect
       width="11.338583"
       height="3.1181102"
       x="51.023621"
       y="-34.157478"
       transform="scale(1,-1)"
       id="connector32pin"
       style="fill:#f5bf00;fill-opacity:1;fill-rule:nonzero;stroke:none" /><rect
       width="11.338583"
       height="3.1181102"
       x="51.023621"
       y="-25.653542"
       transform="scale(1,-1)"
       id="connector30pin"
       style="fill:#f5bf00;fill-opacity:1;fill-rule:nonzero;stroke:none" /><rect
       width="11.338583"
       height="3.1181102"
       x="51.023621"
       y="-17.149605"
       transform="scale(1,-1)"
       id="connector28pin"
       style="fill:#f5bf00;fill-opacity:1;fill-rule:nonzero;stroke:none" /><rect
       width="11.338583"
       height="3.1181102"
       x="51.023621"
       y="-8.645668"
       transform="scale(1,-1)"
       id="connector26pin"
       style="fill:#f5bf00;fill-opacity:1;fill-rule:nonzero;stroke:none" /><rect
       width="11.338583"
       height="3.1181102"
       x="51.023621"
       y="-38.409447"
       transform="scale(1,-1)"
       id="connector33pin"
       style="fill:#f5bf00;fill-opacity:1;fill-rule:nonzero;stroke:none" /><rect
       width="11.338583"
       height="3.1181102"
       x="51.023621"
       y="-29.90551"
       transform="scale(1,-1)"
       id="connector31pin"
       style="fill:#f5bf00;fill-opacity:1;fill-rule:nonzero;stroke:none" /><rect
       width="11.338583"
       height="3.1181102"
       x="51.023621"
       y="-21.401573"
       transform="scale(1,-1)"
       id="connector29pin"
       style="fill:#f5bf00;fill-opacity:1;fill-rule:nonzero;stroke:none" /><rect
       width="11.338583"
       height="3.1181102"
       x="51.023621"
       y="-12.897636"
       transform="scale(1,-1)"
       id="connector27pin"
       style="fill:#f5bf00;fill-opacity:1;fill-rule:nonzero;stroke:none" /><rect
       width="11.338583"
       height="3.1181102"
       x="51.023621"
       y="-4.3936996"
       transform="scale(1,-1)"
       id="connector25pin"
       style="fill:#f5bf00;fill-opacity:1;fill-rule:nonzero;stroke:none" /><rect
       width="11.338583"
       height="3.1181102"
       x="51.023621"
       y="-51.165352"
       transform="scale(1,-1)"
       id="connector36pin"
       style="fill:#f5bf00;fill-opacity:1;fill-rule:nonzero;stroke:none" /><rect
       width="11.338583"
       height="3.1181102"
       x="51.023621"
       y="-46.913383"
       transform="scale(1,-1)"
       id="connector35pin"
       style="fill:#f5bf00;fill-opacity:1;fill-rule:nonzero;stroke:none" /><rect
       width="11.338583"
       height="3.1181102"
       x="-5.6692915"
       y="-44.503937"
       transform="matrix(0,-1,-1,0,0,0)"
       id="connector24pin"
       style="fill:#f5bf00;fill-opacity:1;fill-rule:nonzero;stroke:none" /><rect
       width="11.338583"
       height="3.1181102"
       x="-5.6692915"
       y="-36"
       transform="matrix(0,-1,-1,0,0,0)"
       id="connector22pin"
       style="fill:#f5bf00;fill-opacity:1;fill-rule:nonzero;stroke:none" /><rect
       width="11.338583"
       height="3.1181102"
       x="-5.6692915"
       y="-27.496063"
       transform="matrix(0,-1,-1,0,0,0)"
       id="connector20pin"
       style="fill:#f5bf00;fill-opacity:1;fill-rule:nonzero;stroke:none" /><rect
       width="11.338583"
       height="3.1181102"
       x="-5.6692915"
       y="-19.275591"
       transform="matrix(0,-1,-1,0,0,0)"
       id="connector18pin"
       style="fill:#f5bf00;fill-opacity:1;fill-rule:nonzero;stroke:none" /><rect
       width="11.338583"
       height="3.1181102"
       x="-5.6692915"
       y="-40.251968"
       transform="matrix(0,-1,-1,0,0,0)"
       id="connector23pin"
       style="fill:#f5bf00;fill-opacity:1;fill-rule:nonzero;stroke:none" /><rect
       width="11.338583"
       height="3.1181102"
       x="-5.6692915"
       y="-31.748032"
       transform="matrix(0,-1,-1,0,0,0)"
       id="connector21pin"
       style="fill:#f5bf00;fill-opacity:1;fill-rule:nonzero;stroke:none" /><rect
       width="11.338583"
       height="3.1181102"
       x="-5.6692915"
       y="-23.527559"
       transform="matrix(0,-1,-1,0,0,0)"
       id="connector19pin"
       style="fill:#f5bf00;fill-opacity:1;fill-rule:nonzero;stroke:none" /><rect
       width="11.338583"
       height="3.1181102"
       x="-5.6692915"
       y="-15.023622"
       transform="matrix(0,-1,-1,0,0,0)"
       id="connector17pin"
       style="fill:#f5bf00;fill-opacity:1;fill-rule:nonzero;stroke:none" /></g><g
     id="silkscreen"
     transform="translate(-0.18461782,0.18461782)"><path
       d="m 7.0866144,23.91733 0,-23.0315"
       id="path4136"
       style="fill:none;stroke:#ffffff;stroke-width:1.77165353;stroke-linecap:square;stroke-linejoin:miter;stroke-miterlimit:4;stroke-opacity:1;stroke-dasharray:none"
       inkscape:connector-curvature="0" /><path
       d="m 77.952756,23.91733 0,-23.0315 -70.8661416,0"
       id="path4138"
       style="fill:none;stroke:#ffffff;stroke-width:1.77165353;stroke-linecap:square;stroke-linejoin:miter;stroke-miterlimit:4;stroke-opacity:1;stroke-dasharray:none"
       inkscape:connector-curvature="0" /><path
       d="m 65.551181,89.46851 3.543307,0"
       id="path4144"
       style="fill:none;stroke:#ffffff;stroke-width:1.77165353;stroke-linecap:square;stroke-linejoin:miter;stroke-miterlimit:4;stroke-opacity:1;stroke-dasharray:none"
       inkscape:connector-curvature="0" /><path
       d="m 15.944882,89.46851 3.543307,0"
       id="path4146"
       style="fill:none;stroke:#ffffff;stroke-width:1.77165353;stroke-linecap:square;stroke-linejoin:miter;stroke-miterlimit:4;stroke-opacity:1;stroke-dasharray:none"
       inkscape:connector-curvature="0" /><path
       d="m 15.30976,11.680447 10.100518,0 c 0.104669,0 0.157439,0.05233 0.157439,0.157003 0,0.104668 -0.05277,0.209337 -0.157439,0.209337 l -10.100518,0 c -0.104669,0 -0.157003,-0.104669 -0.157003,-0.209337 0,-0.104669 0.05233,-0.157003 0.157003,-0.157003 m 9.891181,0.157003 0,-6.2277809 c 0,-0.1046686 0.104669,-0.1570028 0.209337,-0.1570028 0.104669,0 0.157439,0.052334 0.157439,0.1570028 l 0,6.2277809 c 0,0.104668 -0.05277,0.209337 -0.157439,0.209337 -0.104668,0 -0.209337,-0.104669 -0.209337,-0.209337 m 0.209337,-6.3847837 8.059481,0 c 0.104669,0 0.209337,0.052334 0.209337,0.1570028 0,0.1046686 -0.104668,0.2093372 -0.209337,0.2093372 l -8.059481,0 c -0.104668,0 -0.209337,-0.1046686 -0.209337,-0.2093372 0,-0.1046686 0.104669,-0.1570028 0.209337,-0.1570028 m 8.268818,0.1570028 0,6.5417869 c 0,0.104668 -0.104668,0.157003 -0.209337,0.157003 -0.0519,0 -0.157003,-0.05233 -0.157003,-0.157003 l 0,-6.5417869 c 0,-0.1046686 0.105105,-0.1570028 0.157003,-0.1570028 0.104669,0 0.209337,0.052334 0.209337,0.1570028 m -0.209337,6.3324489 8.425821,0 c 0.104669,0 0.157003,0.104669 0.157003,0.209338 0,0.104668 -0.05233,0.157003 -0.157003,0.157003 l -8.425821,0 c -0.0519,0 -0.157003,-0.05233 -0.157003,-0.157003 0,-0.104669 0.105105,-0.209338 0.157003,-0.209338 m 8.216484,0.209338 0,-7.1697984 c 0,-0.1046686 0.104669,-0.1570029 0.209337,-0.1570029 0.104669,0 0.157003,0.052334 0.157003,0.1570029 l 0,7.1697984 c 0,0.104668 -0.05233,0.157003 -0.157003,0.157003 -0.104668,0 -0.209337,-0.05233 -0.209337,-0.157003 m 0.209337,-7.3268013 10.571527,0 c 0.104669,0 0.157439,0.052334 0.157439,0.1570029 0,0.1046686 -0.05277,0.2093372 -0.157439,0.2093372 l -10.571527,0 c -0.104668,0 -0.209337,-0.1046686 -0.209337,-0.2093372 0,-0.1046686 0.104669,-0.1570029 0.209337,-0.1570029 m 10.728966,0.1570029 0,13.0835734 c 0,0.104668 -0.05277,0.157002 -0.157439,0.157002 -0.104668,0 -0.209337,-0.05233 -0.209337,-0.157002 l 0,-13.0835734 c 0,-0.1046686 0.104669,-0.1570029 0.209337,-0.1570029 0.104669,0 0.157439,0.052334 0.157439,0.1570029"
       id="path6074"
       style="fill:#ffffff;fill-opacity:1;fill-rule:nonzero;stroke:none"
       inkscape:connector-curvature="0" /></g></svg>