<?xml version='1.0' encoding='UTF-8' standalone='no'?>
<!-- Created with Fritzing (http://www.fritzing.org/) -->
<svg xmlns="http://www.w3.org/2000/svg" width="0.49502in" x="0in" version="1.2" y="0in"  height="0.535654in" viewBox="0 0 35.6414 38.5671" baseProfile="tiny" xmlns:svg="http://www.w3.org/2000/svg">
 <g partID="3372961">
  <g id="silkscreen0">
   <rect width="35.0654" x="0.288" y="0.288" fill="none" height="37.991" stroke="black" stroke-width="0.576"/>
  </g>
 </g>
 <g partID="3372960">
  <g id="board">
   <rect width="35.0654" x="0.288" y="0.288" fill="none" height="37.991" stroke="black" fill-opacity="0.5" id="boardoutline" stroke-width="0.5"/>
  </g>
 </g>
 <g partID="3372961">
  <g id="silkscreen0">
   <rect width="35.0654" x="0.288" y="0.288" fill="none" height="37.991" stroke="black" stroke-width="0.576"/>
  </g>
 </g>
 <g partID="3385831">
  <g transform="translate(16.4038,15.2954)">
   <g transform="matrix(-4.44089e-16,-1,1,-4.44089e-16,0,0)">
    <g flipped="1" id="silkscreen0">
     <g transform="matrix(-1, 0, 0, 1, 14.4567, 0)">
      <g>
       <g>
        <rect width="14.1732" x="0.141732" y="0.141732" stroke-opacity="1" fill="none" height="6.23622" stroke="black" id="silkscreen" stroke-width="0.283465"/>
       </g>
      </g>
     </g>
    </g>
   </g>
  </g>
 </g>
 <g partID="3385841">
  <g transform="translate(22.9234,15.4371)">
   <g transform="matrix(2.22045e-16,1,-1,2.22045e-16,0,0)">
    <g flipped="1" id="silkscreen0">
     <g transform="matrix(-1, 0, 0, 1, 14.4567, 0)">
      <g>
       <g>
        <rect width="14.1732" x="0.141732" y="0.141732" stroke-opacity="1" fill="none" height="6.23622" stroke="black" id="silkscreen" stroke-width="0.283465"/>
       </g>
      </g>
     </g>
    </g>
   </g>
  </g>
 </g>
 <g partID="3385851">
  <g transform="translate(15.5058,30.8456)">
   <g transform="matrix(-1,0,0,-1,0,0)">
    <g flipped="1" id="silkscreen0">
     <g transform="matrix(-1, 0, 0, 1, 13.8228, 0)">
      <g>
       <g>
        <line class="other" stroke="black" stroke-linecap="round" y1="19.9069" x1="13.6068" y2="5.43713" stroke-width="0.431999" x2="13.6068"/>
        <line class="other" stroke="black" stroke-linecap="round" y1="5.43713" x1="0.216" y2="19.9069" stroke-width="0.431999" x2="0.216"/>
        <circle class="other" fill="none" cx="1.79943" cy="17.604" stroke="black" r="0.407055" stroke-width="0.575999"/>
       </g>
      </g>
     </g>
    </g>
   </g>
  </g>
 </g>
 <g partID="3388600">
  <g transform="translate(23.5482,1.5704)">
   <g id="copper0">
    <g id="copper1">
     <circle fill="white" cx="5.328" cy="3.888" stroke="white" id="connector0pin" r="2.124" stroke-width="1.8"/>
     <path fill="white" stroke="white" stroke-width="0.72" d="m0,3.888a2.664,2.664,0,0,0,2.664,2.664l5.328,0a2.664,2.664,0,0,0,2.664,-2.664l0,0a2.664,2.664,0,0,0,-2.664,-2.664l-5.328,0a2.664,2.664,0,0,0,-2.664,2.664l0,0zM5.328,2.304a1.584,1.584,0,1,1,0,3.168,1.584,1.584,0,1,1,0,-3.168z"/>
     <circle fill="white" cx="5.328" cy="11.088" stroke="white" id="connector1pin" r="2.124" stroke-width="1.8"/>
     <path fill="white" stroke="white" stroke-width="0.72" d="m0,11.088a2.664,2.664,0,0,0,2.664,2.664l5.328,0a2.664,2.664,0,0,0,2.664,-2.664l0,0a2.664,2.664,0,0,0,-2.664,-2.664l-5.328,0a2.664,2.664,0,0,0,-2.664,2.664l0,0zM5.328,9.504a1.584,1.584,0,1,1,0,3.168,1.584,1.584,0,1,1,0,-3.168z"/>
     <circle fill="white" cx="5.328" cy="18.288" stroke="white" id="connector2pin" r="2.124" stroke-width="1.8"/>
     <path fill="white" stroke="white" stroke-width="0.72" d="m0,18.288a2.664,2.664,0,0,0,2.664,2.664l5.328,0a2.664,2.664,0,0,0,2.664,-2.664l0,0a2.664,2.664,0,0,0,-2.664,-2.664l-5.328,0a2.664,2.664,0,0,0,-2.664,2.664l0,0zM5.328,16.704a1.584,1.584,0,1,1,0,3.168,1.584,1.584,0,1,1,0,-3.168z"/>
     <circle fill="white" cx="5.328" cy="25.488" stroke="white" id="connector3pin" r="2.124" stroke-width="1.8"/>
     <path fill="white" stroke="white" stroke-width="0.72" d="m0,25.488a2.664,2.664,0,0,0,2.664,2.664l5.328,0a2.664,2.664,0,0,0,2.664,-2.664l0,0a2.664,2.664,0,0,0,-2.664,-2.664l-5.328,0a2.664,2.664,0,0,0,-2.664,2.664l0,0zM5.328,23.904a1.584,1.584,0,1,1,0,3.168,1.584,1.584,0,1,1,0,-3.168z"/>
     <circle fill="white" cx="5.328" cy="32.688" stroke="white" id="connector4pin" r="2.124" stroke-width="1.8"/>
     <path fill="white" stroke="white" stroke-width="0.72" d="m0,32.688a2.664,2.664,0,0,0,2.664,2.664l5.328,0a2.664,2.664,0,0,0,2.664,-2.664l0,0a2.664,2.664,0,0,0,-2.664,-2.664l-5.328,0a2.664,2.664,0,0,0,-2.664,2.664l0,0zM5.328,31.104a1.584,1.584,0,1,1,0,3.168,1.584,1.584,0,1,1,0,-3.168z"/>
    </g>
   </g>
  </g>
 </g>
 <g partID="3385830">
  <g transform="translate(16.4038,15.2954)">
   <g transform="matrix(-4.44089e-16,-1,1,-4.44089e-16,0,0)">
    <g flipped="1" id="copper0">
     <g transform="matrix(-1, 0, 0, 1, 14.4567, 0)">
      <g>
       <g>
        <rect width="4.53543" x="0.566929" y="0.566929" fill="white" height="5.38583" stroke="white" fill-opacity="1" id="connector0pad" stroke-width="0.72"/>
        <rect width="4.53543" x="9.35433" y="0.566929" fill="white" height="5.38583" stroke="white" fill-opacity="1" id="connector1pad" stroke-width="0.72"/>
       </g>
      </g>
     </g>
    </g>
   </g>
  </g>
 </g>
 <g partID="3385840">
  <g transform="translate(22.9234,15.4371)">
   <g transform="matrix(2.22045e-16,1,-1,2.22045e-16,0,0)">
    <g flipped="1" id="copper0">
     <g transform="matrix(-1, 0, 0, 1, 14.4567, 0)">
      <g>
       <g>
        <rect width="4.53543" x="0.566929" y="0.566929" fill="white" height="5.38583" stroke="white" fill-opacity="1" id="connector0pad" stroke-width="0.72"/>
        <rect width="4.53543" x="9.35433" y="0.566929" fill="white" height="5.38583" stroke="white" fill-opacity="1" id="connector1pad" stroke-width="0.72"/>
       </g>
      </g>
     </g>
    </g>
   </g>
  </g>
 </g>
 <g partID="3385850">
  <g transform="translate(15.5058,30.8456)">
   <g transform="matrix(-1,0,0,-1,0,0)">
    <g flipped="1" id="copper0">
     <g transform="matrix(-1, 0, 0, 1, 13.8228, 0)">
      <g>
       <g>
        <rect width="1.728" x="0.647432" y="19.08" fill="white" connectorname="1" height="6.264" stroke="white" id="connector0pad" stroke-linecap="round" stroke-width="0.72"/>
        <rect width="1.728" x="4.24743" y="19.08" fill="white" connectorname="2" height="6.264" stroke="white" id="connector1pad" stroke-linecap="round" stroke-width="0.72"/>
        <rect width="1.728" x="7.84742" y="19.08" fill="white" connectorname="3" height="6.264" stroke="white" id="connector2pad" stroke-linecap="round" stroke-width="0.72"/>
        <rect width="1.728" x="11.4474" y="19.08" fill="white" connectorname="4" height="6.264" stroke="white" id="connector3pad" stroke-linecap="round" stroke-width="0.72"/>
        <rect width="1.728" x="11.4474" y="-2.51767e-15" fill="white" connectorname="5" height="6.264" stroke="white" id="connector4pad" stroke-linecap="round" stroke-width="0.72"/>
        <rect width="1.728" x="7.84742" y="-2.51767e-15" fill="white" connectorname="6" height="6.264" stroke="white" id="connector5pad" stroke-linecap="round" stroke-width="0.72"/>
        <rect width="1.728" x="4.24743" y="-2.51767e-15" fill="white" connectorname="7" height="6.264" stroke="white" id="connector6pad" stroke-linecap="round" stroke-width="0.72"/>
        <rect width="1.728" x="0.647432" y="-2.51767e-15" fill="white" connectorname="8" height="6.264" stroke="white" id="connector7pad" stroke-linecap="round" stroke-width="0.72"/>
        <g id="copper0"/>
       </g>
       <g/>
      </g>
     </g>
    </g>
   </g>
  </g>
 </g>
</svg>
