<?xml version="1.0" standalone="no"?>
 <!DOCTYPE svg PUBLIC "-//W3C//DTD SVG 1.1//EN" 
 "http://www.w3.org/Graphics/SVG/1.1/DTD/svg11.dtd"> 
<svg xmlns="http://www.w3.org/2000/svg" version="1.1" 
    width="4.97332cm" height="5.19938cm" viewBox="0 0 19580 20470 ">
<title>SVG Picture created as F-6188_schematics_symbol.svg date 2018/03/11 18:35:06 </title>
  <desc>Picture generated by Eeschema-SVG </desc>
<g style="fill:#000000; fill-opacity:1;stroke:#000000; stroke-opacity:1;
stroke-linecap:round; stroke-linejoin:round; "
 transform="translate(0 0) scale(1 1)">
</g>
<g style="fill:#000000; fill-opacity:0.0; 
stroke:#000000; stroke-width:-10; stroke-opacity:1; 
stroke-linecap:round; stroke-linejoin:round;">
</g>
<g style="fill:#000000; fill-opacity:0.0; 
stroke:#000000; stroke-width:60; stroke-opacity:1; 
stroke-linecap:round; stroke-linejoin:round;">
<rect x="3790" y="1730" width="12000" height="17000" rx="0" />
<path d="M3790 2730
L1790 2730
" />
<path d="M4600 2480
L4550 2450
L4480 2450
L4410 2480
L4360 2520
L4330 2570
L4310 2670
L4310 2740
L4330 2830
L4360 2880
L4410 2930
L4480 2950
L4520 2950
L4600 2930
L4620 2900
L4620 2740
L4520 2740
" />
<path d="M4830 2950
L4830 2450
L5120 2950
L5120 2450
" />
<path d="M5360 2950
L5360 2450
L5480 2450
L5550 2480
L5600 2520
L5620 2570
L5640 2670
L5640 2740
L5620 2830
L5600 2880
L5550 2930
L5480 2950
L5360 2950
" />
<path d="M2930 2600
L2640 2600
" />
<path d="M2790 2600
L2790 2100
L2740 2170
L2690 2220
L2640 2240
" />
<path d="M3790 11730
L1790 11730
" />
<path d="M4260 11450
L4550 11450
" />
<path d="M4410 11950
L4410 11450
" />
<path d="M4670 11450
L5000 11950
" />
<path d="M5000 11450
L4670 11950
" />
<path d="M5550 11430
L5120 12070
" />
<path d="M5980 11480
L5930 11450
L5860 11450
L5790 11480
L5740 11520
L5720 11570
L5690 11670
L5690 11740
L5720 11830
L5740 11880
L5790 11930
L5860 11950
L5910 11950
L5980 11930
L6000 11900
L6000 11740
L5910 11740
" />
<path d="M6220 11950
L6220 11450
L6410 11450
L6450 11480
L6480 11500
L6500 11550
L6500 11620
L6480 11670
L6450 11690
L6410 11710
L6220 11710
" />
<path d="M6720 11950
L6720 11450
" />
<path d="M7050 11450
L7140 11450
L7190 11480
L7240 11520
L7260 11620
L7260 11780
L7240 11880
L7190 11930
L7140 11950
L7050 11950
L7000 11930
L6950 11880
L6930 11780
L6930 11620
L6950 11520
L7000 11480
L7050 11450
" />
<path d="M7570 11450
L7620 11450
L7670 11480
L7690 11500
L7720 11550
L7740 11640
L7740 11760
L7720 11860
L7690 11900
L7670 11930
L7620 11950
L7570 11950
L7520 11930
L7500 11900
L7480 11860
L7450 11760
L7450 11640
L7480 11550
L7500 11500
L7520 11480
L7570 11450
" />
<path d="M2690 11600
L2400 11600
" />
<path d="M2550 11600
L2550 11100
L2500 11170
L2450 11220
L2400 11240
" />
<path d="M3000 11100
L3050 11100
L3090 11130
L3120 11150
L3140 11200
L3170 11290
L3170 11410
L3140 11510
L3120 11550
L3090 11580
L3050 11600
L3000 11600
L2950 11580
L2930 11550
L2900 11510
L2880 11410
L2880 11290
L2900 11200
L2930 11150
L2950 11130
L3000 11100
" />
<path d="M3790 12730
L1790 12730
" />
<path d="M4620 12950
L4450 12710
" />
<path d="M4330 12950
L4330 12450
L4520 12450
L4570 12480
L4600 12500
L4620 12550
L4620 12620
L4600 12670
L4570 12690
L4520 12710
L4330 12710
" />
<path d="M4790 12450
L5120 12950
" />
<path d="M5120 12450
L4790 12950
" />
<path d="M5670 12430
L5240 13070
" />
<path d="M6100 12480
L6050 12450
L5980 12450
L5910 12480
L5860 12520
L5830 12570
L5810 12670
L5810 12740
L5830 12830
L5860 12880
L5910 12930
L5980 12950
L6020 12950
L6100 12930
L6120 12900
L6120 12740
L6020 12740
" />
<path d="M6330 12950
L6330 12450
L6520 12450
L6570 12480
L6600 12500
L6620 12550
L6620 12620
L6600 12670
L6570 12690
L6520 12710
L6330 12710
" />
<path d="M6830 12950
L6830 12450
" />
<path d="M7170 12450
L7260 12450
L7310 12480
L7360 12520
L7380 12620
L7380 12780
L7360 12880
L7310 12930
L7260 12950
L7170 12950
L7120 12930
L7070 12880
L7050 12780
L7050 12620
L7070 12520
L7120 12480
L7170 12450
" />
<path d="M7860 12950
L7570 12950
" />
<path d="M7720 12950
L7720 12450
L7670 12520
L7620 12570
L7570 12590
" />
<path d="M2690 12600
L2400 12600
" />
<path d="M2550 12600
L2550 12100
L2500 12170
L2450 12220
L2400 12240
" />
<path d="M3170 12600
L2880 12600
" />
<path d="M3020 12600
L3020 12100
L2980 12170
L2930 12220
L2880 12240
" />
<path d="M3790 13730
L1790 13730
" />
<path d="M4330 13950
L4330 13450
L4520 13450
L4570 13480
L4600 13500
L4620 13550
L4620 13620
L4600 13670
L4570 13690
L4520 13710
L4330 13710
" />
<path d="M4830 13950
L4830 13450
L5020 13450
L5070 13480
L5100 13500
L5120 13550
L5120 13620
L5100 13670
L5070 13690
L5020 13710
L4830 13710
" />
<path d="M5690 13430
L5260 14070
" />
<path d="M6120 13480
L6070 13450
L6000 13450
L5930 13480
L5880 13520
L5860 13570
L5830 13670
L5830 13740
L5860 13830
L5880 13880
L5930 13930
L6000 13950
L6050 13950
L6120 13930
L6140 13900
L6140 13740
L6050 13740
" />
<path d="M6360 13950
L6360 13450
L6550 13450
L6600 13480
L6620 13500
L6640 13550
L6640 13620
L6620 13670
L6600 13690
L6550 13710
L6360 13710
" />
<path d="M6860 13950
L6860 13450
" />
<path d="M7190 13450
L7290 13450
L7330 13480
L7380 13520
L7410 13620
L7410 13780
L7380 13880
L7330 13930
L7290 13950
L7190 13950
L7140 13930
L7100 13880
L7070 13780
L7070 13620
L7100 13520
L7140 13480
L7190 13450
" />
<path d="M7600 13500
L7620 13480
L7670 13450
L7790 13450
L7830 13480
L7860 13500
L7880 13550
L7880 13590
L7860 13670
L7570 13950
L7880 13950
" />
<path d="M2690 13600
L2400 13600
" />
<path d="M2550 13600
L2550 13100
L2500 13170
L2450 13220
L2400 13240
" />
<path d="M2880 13150
L2900 13130
L2950 13100
L3070 13100
L3120 13130
L3140 13150
L3170 13200
L3170 13240
L3140 13320
L2860 13600
L3170 13600
" />
<path d="M3790 14730
L1790 14730
" />
<path d="M4570 14950
L4330 14950
L4330 14450
" />
<path d="M4740 14690
L4910 14690
" />
<path d="M4980 14950
L4740 14950
L4740 14450
L4980 14450
" />
<path d="M5190 14950
L5190 14450
L5310 14450
L5380 14480
L5430 14520
L5450 14570
L5480 14670
L5480 14740
L5450 14830
L5430 14880
L5380 14930
L5310 14950
L5190 14950
" />
<path d="M5790 14450
L5830 14450
L5880 14480
L5910 14500
L5930 14550
L5950 14640
L5950 14760
L5930 14860
L5910 14900
L5880 14930
L5830 14950
L5790 14950
L5740 14930
L5720 14900
L5690 14860
L5670 14760
L5670 14640
L5690 14550
L5720 14500
L5740 14480
L5790 14450
" />
<path d="M6520 14430
L6100 15070
" />
<path d="M6950 14480
L6910 14450
L6830 14450
L6760 14480
L6720 14520
L6690 14570
L6670 14670
L6670 14740
L6690 14830
L6720 14880
L6760 14930
L6830 14950
L6880 14950
L6950 14930
L6980 14900
L6980 14740
L6880 14740
" />
<path d="M7190 14950
L7190 14450
L7380 14450
L7430 14480
L7450 14500
L7480 14550
L7480 14620
L7450 14670
L7430 14690
L7380 14710
L7190 14710
" />
<path d="M7690 14950
L7690 14450
" />
<path d="M8020 14450
L8120 14450
L8170 14480
L8220 14520
L8240 14620
L8240 14780
L8220 14880
L8170 14930
L8120 14950
L8020 14950
L7980 14930
L7930 14880
L7910 14780
L7910 14620
L7930 14520
L7980 14480
L8020 14450
" />
<path d="M8410 14450
L8710 14450
L8550 14640
L8620 14640
L8670 14670
L8690 14690
L8710 14740
L8710 14860
L8690 14900
L8670 14930
L8620 14950
L8480 14950
L8430 14930
L8410 14900
" />
<path d="M2690 14600
L2400 14600
" />
<path d="M2550 14600
L2550 14100
L2500 14170
L2450 14220
L2400 14240
" />
<path d="M2860 14100
L3170 14100
L3000 14290
L3070 14290
L3120 14320
L3140 14340
L3170 14390
L3170 14510
L3140 14550
L3120 14580
L3070 14600
L2930 14600
L2880 14580
L2860 14550
" />
<path d="M3790 15730
L1790 15730
" />
<path d="M4570 15950
L4330 15950
L4330 15450
" />
<path d="M4740 15690
L4910 15690
" />
<path d="M4980 15950
L4740 15950
L4740 15450
L4980 15450
" />
<path d="M5190 15950
L5190 15450
L5310 15450
L5380 15480
L5430 15520
L5450 15570
L5480 15670
L5480 15740
L5450 15830
L5430 15880
L5380 15930
L5310 15950
L5190 15950
" />
<path d="M5950 15950
L5670 15950
" />
<path d="M5810 15950
L5810 15450
L5760 15520
L5720 15570
L5670 15590
" />
<path d="M6520 15430
L6100 16070
" />
<path d="M6950 15480
L6910 15450
L6830 15450
L6760 15480
L6720 15520
L6690 15570
L6670 15670
L6670 15740
L6690 15830
L6720 15880
L6760 15930
L6830 15950
L6880 15950
L6950 15930
L6980 15900
L6980 15740
L6880 15740
" />
<path d="M7190 15950
L7190 15450
L7380 15450
L7430 15480
L7450 15500
L7480 15550
L7480 15620
L7450 15670
L7430 15690
L7380 15710
L7190 15710
" />
<path d="M7690 15950
L7690 15450
" />
<path d="M8020 15450
L8120 15450
L8170 15480
L8220 15520
L8240 15620
L8240 15780
L8220 15880
L8170 15930
L8120 15950
L8020 15950
L7980 15930
L7930 15880
L7910 15780
L7910 15620
L7930 15520
L7980 15480
L8020 15450
" />
<path d="M8670 15620
L8670 15950
" />
<path d="M8550 15430
L8430 15780
L8740 15780
" />
<path d="M2690 15600
L2400 15600
" />
<path d="M2550 15600
L2550 15100
L2500 15170
L2450 15220
L2400 15240
" />
<path d="M3120 15270
L3120 15600
" />
<path d="M3000 15080
L2880 15430
L3190 15430
" />
<path d="M3790 16730
L1790 16730
" />
<path d="M4330 16950
L4330 16450
L4500 16810
L4670 16450
L4670 16950
" />
<path d="M4910 16450
L4910 16860
L4930 16900
L4950 16930
L5000 16950
L5100 16950
L5140 16930
L5170 16900
L5190 16860
L5190 16450
" />
<path d="M5360 16450
L5640 16450
" />
<path d="M5500 16950
L5500 16450
" />
<path d="M5810 16690
L5980 16690
" />
<path d="M6050 16950
L5810 16950
L5810 16450
L6050 16450
" />
<path d="M6620 16430
L6190 17070
" />
<path d="M7050 16480
L7000 16450
L6930 16450
L6860 16480
L6810 16520
L6790 16570
L6760 16670
L6760 16740
L6790 16830
L6810 16880
L6860 16930
L6930 16950
L6980 16950
L7050 16930
L7070 16900
L7070 16740
L6980 16740
" />
<path d="M7290 16950
L7290 16450
L7480 16450
L7520 16480
L7550 16500
L7570 16550
L7570 16620
L7550 16670
L7520 16690
L7480 16710
L7290 16710
" />
<path d="M7790 16950
L7790 16450
" />
<path d="M8120 16450
L8220 16450
L8260 16480
L8310 16520
L8330 16620
L8330 16780
L8310 16880
L8260 16930
L8220 16950
L8120 16950
L8070 16930
L8020 16880
L8000 16780
L8000 16620
L8020 16520
L8070 16480
L8120 16450
" />
<path d="M8790 16450
L8550 16450
L8520 16690
L8550 16670
L8600 16640
L8720 16640
L8760 16670
L8790 16690
L8810 16740
L8810 16860
L8790 16900
L8760 16930
L8720 16950
L8600 16950
L8550 16930
L8520 16900
" />
<path d="M2690 16600
L2400 16600
" />
<path d="M2550 16600
L2550 16100
L2500 16170
L2450 16220
L2400 16240
" />
<path d="M3140 16100
L2900 16100
L2880 16340
L2900 16320
L2950 16290
L3070 16290
L3120 16320
L3140 16340
L3170 16390
L3170 16510
L3140 16550
L3120 16580
L3070 16600
L2950 16600
L2900 16580
L2880 16550
" />
<path d="M3790 17730
L1790 17730
" />
<path d="M4600 17480
L4550 17450
L4480 17450
L4410 17480
L4360 17520
L4330 17570
L4310 17670
L4310 17740
L4330 17830
L4360 17880
L4410 17930
L4480 17950
L4520 17950
L4600 17930
L4620 17900
L4620 17740
L4520 17740
" />
<path d="M4830 17950
L4830 17450
L5120 17950
L5120 17450
" />
<path d="M5360 17950
L5360 17450
L5480 17450
L5550 17480
L5600 17520
L5620 17570
L5640 17670
L5640 17740
L5620 17830
L5600 17880
L5550 17930
L5480 17950
L5360 17950
" />
<path d="M2690 17600
L2400 17600
" />
<path d="M2550 17600
L2550 17100
L2500 17170
L2450 17220
L2400 17240
" />
<path d="M3120 17100
L3020 17100
L2980 17130
L2950 17150
L2900 17220
L2880 17320
L2880 17510
L2900 17550
L2930 17580
L2980 17600
L3070 17600
L3120 17580
L3140 17550
L3170 17510
L3170 17390
L3140 17340
L3120 17320
L3070 17290
L2980 17290
L2930 17320
L2900 17340
L2880 17390
" />
<path d="M15790 17730
L17790 17730
" />
<path d="M14210 17480
L14160 17450
L14090 17450
L14020 17480
L13970 17520
L13950 17570
L13930 17670
L13930 17740
L13950 17830
L13970 17880
L14020 17930
L14090 17950
L14140 17950
L14210 17930
L14240 17900
L14240 17740
L14140 17740
" />
<path d="M14450 17950
L14450 17450
L14740 17950
L14740 17450
" />
<path d="M14970 17950
L14970 17450
L15090 17450
L15160 17480
L15210 17520
L15240 17570
L15260 17670
L15260 17740
L15240 17830
L15210 17880
L15160 17930
L15090 17950
L14970 17950
" />
<path d="M16690 17600
L16400 17600
" />
<path d="M16550 17600
L16550 17100
L16500 17170
L16450 17220
L16400 17240
" />
<path d="M16860 17100
L17190 17100
L16980 17600
" />
<path d="M15790 16730
L17790 16730
" />
<path d="M9450 16810
L9690 16810
" />
<path d="M9400 16950
L9570 16450
L9740 16950
" />
<path d="M9900 16450
L9900 16860
L9930 16900
L9950 16930
L10000 16950
L10090 16950
L10140 16930
L10160 16900
L10190 16860
L10190 16450
" />
<path d="M10380 16450
L10710 16950
" />
<path d="M10710 16450
L10380 16950
" />
<path d="M10900 16950
L10900 16450
L11020 16450
L11090 16480
L11140 16520
L11160 16570
L11190 16670
L11190 16740
L11160 16830
L11140 16880
L11090 16930
L11020 16950
L10900 16950
" />
<path d="M11400 16690
L11570 16690
" />
<path d="M11640 16950
L11400 16950
L11400 16450
L11640 16450
" />
<path d="M11780 16450
L12070 16450
" />
<path d="M11930 16950
L11930 16450
" />
<path d="M12590 16430
L12160 17070
" />
<path d="M13020 16480
L12970 16450
L12900 16450
L12830 16480
L12780 16520
L12760 16570
L12740 16670
L12740 16740
L12760 16830
L12780 16880
L12830 16930
L12900 16950
L12950 16950
L13020 16930
L13050 16900
L13050 16740
L12950 16740
" />
<path d="M13260 16950
L13260 16450
L13450 16450
L13500 16480
L13520 16500
L13550 16550
L13550 16620
L13520 16670
L13500 16690
L13450 16710
L13260 16710
" />
<path d="M13760 16950
L13760 16450
" />
<path d="M14090 16450
L14190 16450
L14240 16480
L14280 16520
L14310 16620
L14310 16780
L14280 16880
L14240 16930
L14190 16950
L14090 16950
L14050 16930
L14000 16880
L13970 16780
L13970 16620
L14000 16520
L14050 16480
L14090 16450
" />
<path d="M14780 16950
L14500 16950
" />
<path d="M14640 16950
L14640 16450
L14590 16520
L14550 16570
L14500 16590
" />
<path d="M15260 16950
L14970 16950
" />
<path d="M15120 16950
L15120 16450
L15070 16520
L15020 16570
L14970 16590
" />
<path d="M16690 16600
L16400 16600
" />
<path d="M16550 16600
L16550 16100
L16500 16170
L16450 16220
L16400 16240
" />
<path d="M16980 16320
L16930 16290
L16900 16270
L16880 16220
L16880 16200
L16900 16150
L16930 16130
L16980 16100
L17070 16100
L17120 16130
L17140 16150
L17170 16200
L17170 16220
L17140 16270
L17120 16290
L17070 16320
L16980 16320
L16930 16340
L16900 16360
L16880 16410
L16880 16510
L16900 16550
L16930 16580
L16980 16600
L17070 16600
L17120 16580
L17140 16550
L17170 16510
L17170 16410
L17140 16360
L17120 16340
L17070 16320
" />
<path d="M15790 15730
L17790 15730
" />
<path d="M14210 15950
L14210 15450
" />
<path d="M14450 15950
L14450 15450
L14740 15950
L14740 15450
" />
<path d="M15260 15950
L15090 15710
" />
<path d="M14970 15950
L14970 15450
L15160 15450
L15210 15480
L15240 15500
L15260 15550
L15260 15620
L15240 15670
L15210 15690
L15160 15710
L14970 15710
" />
<path d="M16690 15600
L16400 15600
" />
<path d="M16550 15600
L16550 15100
L16500 15170
L16450 15220
L16400 15240
" />
<path d="M16930 15600
L17020 15600
L17070 15580
L17090 15550
L17140 15480
L17170 15390
L17170 15200
L17140 15150
L17120 15130
L17070 15100
L16980 15100
L16930 15130
L16900 15150
L16880 15200
L16880 15320
L16900 15360
L16930 15390
L16980 15410
L17070 15410
L17120 15390
L17140 15360
L17170 15320
" />
<path d="M3790 3730
L1790 3730
" />
<path d="M4310 3810
L4550 3810
" />
<path d="M4260 3950
L4430 3450
L4600 3950
" />
<path d="M4760 3950
L4760 3450
L5050 3950
L5050 3450
" />
<path d="M5220 3450
L5500 3450
" />
<path d="M5360 3950
L5360 3450
" />
<path d="M2640 3150
L2670 3130
L2710 3100
L2830 3100
L2880 3130
L2900 3150
L2930 3200
L2930 3240
L2900 3320
L2620 3600
L2930 3600
" />
<path d="M15790 14730
L17790 14730
" />
<path d="M14310 14950
L14310 14450
" />
<path d="M14550 14950
L14550 14450
L14830 14950
L14830 14450
" />
<path d="M15310 14950
L15070 14950
L15070 14450
" />
<path d="M16400 14150
L16430 14130
L16480 14100
L16590 14100
L16640 14130
L16670 14150
L16690 14200
L16690 14240
L16670 14320
L16380 14600
L16690 14600
" />
<path d="M17000 14100
L17050 14100
L17090 14130
L17120 14150
L17140 14200
L17170 14290
L17170 14410
L17140 14510
L17120 14550
L17090 14580
L17050 14600
L17000 14600
L16950 14580
L16930 14550
L16900 14510
L16880 14410
L16880 14290
L16900 14200
L16930 14150
L16950 14130
L17000 14100
" />
<path d="M15790 13730
L17790 13730
" />
<path d="M13640 13950
L13640 13450
L13810 13810
L13970 13450
L13970 13950
" />
<path d="M14210 13950
L14210 13450
" />
<path d="M14740 13900
L14710 13930
L14640 13950
L14590 13950
L14520 13930
L14470 13880
L14450 13830
L14430 13740
L14430 13670
L14450 13570
L14470 13520
L14520 13480
L14590 13450
L14640 13450
L14710 13480
L14740 13500
" />
<path d="M14950 13950
L14950 13450
L15240 13950
L15240 13450
" />
<path d="M16400 13150
L16430 13130
L16480 13100
L16590 13100
L16640 13130
L16670 13150
L16690 13200
L16690 13240
L16670 13320
L16380 13600
L16690 13600
" />
<path d="M17170 13600
L16880 13600
" />
<path d="M17020 13600
L17020 13100
L16980 13170
L16930 13220
L16880 13240
" />
<path d="M15790 12730
L17790 12730
" />
<path d="M13660 12950
L13660 12450
L13830 12810
L14000 12450
L14000 12950
" />
<path d="M14240 12950
L14240 12450
" />
<path d="M14760 12900
L14740 12930
L14660 12950
L14620 12950
L14550 12930
L14500 12880
L14470 12830
L14450 12740
L14450 12670
L14470 12570
L14500 12520
L14550 12480
L14620 12450
L14660 12450
L14740 12480
L14760 12500
" />
<path d="M14970 12950
L14970 12450
L15160 12450
L15210 12480
L15240 12500
L15260 12550
L15260 12620
L15240 12670
L15210 12690
L15160 12710
L14970 12710
" />
<path d="M16400 12150
L16430 12130
L16480 12100
L16590 12100
L16640 12130
L16670 12150
L16690 12200
L16690 12240
L16670 12320
L16380 12600
L16690 12600
" />
<path d="M16880 12150
L16900 12130
L16950 12100
L17070 12100
L17120 12130
L17140 12150
L17170 12200
L17170 12240
L17140 12320
L16860 12600
L17170 12600
" />
<path d="M15790 11730
L17790 11730
" />
<path d="M13660 11450
L13830 11950
L14000 11450
" />
<path d="M14160 11950
L14160 11450
L14330 11810
L14500 11450
L14500 11950
" />
<path d="M14740 11950
L14740 11450
" />
<path d="M15260 11900
L15240 11930
L15160 11950
L15120 11950
L15050 11930
L15000 11880
L14970 11830
L14950 11740
L14950 11670
L14970 11570
L15000 11520
L15050 11480
L15120 11450
L15160 11450
L15240 11480
L15260 11500
" />
<path d="M16400 11150
L16430 11130
L16480 11100
L16590 11100
L16640 11130
L16670 11150
L16690 11200
L16690 11240
L16670 11320
L16380 11600
L16690 11600
" />
<path d="M16860 11100
L17170 11100
L17000 11290
L17070 11290
L17120 11320
L17140 11340
L17170 11390
L17170 11510
L17140 11550
L17120 11580
L17070 11600
L16930 11600
L16880 11580
L16860 11550
" />
<path d="M15790 10730
L17790 10730
" />
<path d="M11930 10810
L12160 10810
" />
<path d="M11880 10950
L12050 10450
L12210 10950
" />
<path d="M12380 10450
L12380 10860
L12400 10900
L12430 10930
L12470 10950
L12570 10950
L12620 10930
L12640 10900
L12660 10860
L12660 10450
" />
<path d="M12900 10950
L12900 10450
L13020 10450
L13090 10480
L13140 10520
L13160 10570
L13190 10670
L13190 10740
L13160 10830
L13140 10880
L13090 10930
L13020 10950
L12900 10950
" />
<path d="M13400 10950
L13400 10450
" />
<path d="M13740 10450
L13830 10450
L13880 10480
L13930 10520
L13950 10620
L13950 10780
L13930 10880
L13880 10930
L13830 10950
L13740 10950
L13690 10930
L13640 10880
L13620 10780
L13620 10620
L13640 10520
L13690 10480
L13740 10450
" />
<path d="M14050 11000
L14430 11000
" />
<path d="M14780 10950
L14550 10950
L14550 10450
" />
<path d="M14950 10950
L14950 10450
L15240 10950
L15240 10450
" />
<path d="M16400 10150
L16430 10130
L16480 10100
L16590 10100
L16640 10130
L16670 10150
L16690 10200
L16690 10240
L16670 10320
L16380 10600
L16690 10600
" />
<path d="M17120 10270
L17120 10600
" />
<path d="M17000 10080
L16880 10430
L17190 10430
" />
<path d="M15790 9730
L17790 9730
" />
<path d="M12330 9810
L12570 9810
" />
<path d="M12280 9950
L12450 9450
L12620 9950
" />
<path d="M12780 9450
L12780 9860
L12810 9900
L12830 9930
L12880 9950
L12970 9950
L13020 9930
L13050 9900
L13070 9860
L13070 9450
" />
<path d="M13310 9950
L13310 9450
L13430 9450
L13500 9480
L13550 9520
L13570 9570
L13590 9670
L13590 9740
L13570 9830
L13550 9880
L13500 9930
L13430 9950
L13310 9950
" />
<path d="M13810 9950
L13810 9450
" />
<path d="M14140 9450
L14240 9450
L14280 9480
L14330 9520
L14360 9620
L14360 9780
L14330 9880
L14280 9930
L14240 9950
L14140 9950
L14090 9930
L14050 9880
L14020 9780
L14020 9620
L14050 9520
L14090 9480
L14140 9450
" />
<path d="M14810 9950
L14570 9950
L14570 9450
" />
<path d="M14970 9950
L14970 9450
L15160 9450
L15210 9480
L15240 9500
L15260 9550
L15260 9620
L15240 9670
L15210 9690
L15160 9710
L14970 9710
" />
<path d="M16400 9150
L16430 9130
L16480 9100
L16590 9100
L16640 9130
L16670 9150
L16690 9200
L16690 9240
L16670 9320
L16380 9600
L16690 9600
" />
<path d="M17140 9100
L16900 9100
L16880 9340
L16900 9320
L16950 9290
L17070 9290
L17120 9320
L17140 9340
L17170 9390
L17170 9510
L17140 9550
L17120 9580
L17070 9600
L16950 9600
L16900 9580
L16880 9550
" />
<path d="M15790 8730
L17790 8730
" />
<path d="M11860 8810
L12090 8810
" />
<path d="M11810 8950
L11970 8450
L12140 8950
" />
<path d="M12310 8450
L12310 8860
L12330 8900
L12360 8930
L12400 8950
L12500 8950
L12550 8930
L12570 8900
L12590 8860
L12590 8450
" />
<path d="M12830 8950
L12830 8450
L12950 8450
L13020 8480
L13070 8520
L13090 8570
L13120 8670
L13120 8740
L13090 8830
L13070 8880
L13020 8930
L12950 8950
L12830 8950
" />
<path d="M13330 8950
L13330 8450
" />
<path d="M13660 8450
L13760 8450
L13810 8480
L13850 8520
L13880 8620
L13880 8780
L13850 8880
L13810 8930
L13760 8950
L13660 8950
L13620 8930
L13570 8880
L13550 8780
L13550 8620
L13570 8520
L13620 8480
L13660 8450
" />
<path d="M13970 9000
L14350 9000
" />
<path d="M14760 8950
L14590 8710
" />
<path d="M14470 8950
L14470 8450
L14660 8450
L14710 8480
L14740 8500
L14760 8550
L14760 8620
L14740 8670
L14710 8690
L14660 8710
L14470 8710
" />
<path d="M14970 8950
L14970 8450
L15160 8450
L15210 8480
L15240 8500
L15260 8550
L15260 8620
L15240 8670
L15210 8690
L15160 8710
L14970 8710
" />
<path d="M16400 8150
L16430 8130
L16480 8100
L16590 8100
L16640 8130
L16670 8150
L16690 8200
L16690 8240
L16670 8320
L16380 8600
L16690 8600
" />
<path d="M17120 8100
L17020 8100
L16980 8130
L16950 8150
L16900 8220
L16880 8320
L16880 8510
L16900 8550
L16930 8580
L16980 8600
L17070 8600
L17120 8580
L17140 8550
L17170 8510
L17170 8390
L17140 8340
L17120 8320
L17070 8290
L16980 8290
L16930 8320
L16900 8340
L16880 8390
" />
<path d="M15790 7730
L17790 7730
" />
<path d="M11830 7810
L12070 7810
" />
<path d="M11780 7950
L11950 7450
L12120 7950
" />
<path d="M12280 7450
L12280 7860
L12310 7900
L12330 7930
L12380 7950
L12470 7950
L12520 7930
L12550 7900
L12570 7860
L12570 7450
" />
<path d="M12810 7950
L12810 7450
L12930 7450
L13000 7480
L13050 7520
L13070 7570
L13090 7670
L13090 7740
L13070 7830
L13050 7880
L13000 7930
L12930 7950
L12810 7950
" />
<path d="M13310 7950
L13310 7450
" />
<path d="M13640 7450
L13740 7450
L13780 7480
L13830 7520
L13860 7620
L13860 7780
L13830 7880
L13780 7930
L13740 7950
L13640 7950
L13590 7930
L13550 7880
L13520 7780
L13520 7620
L13550 7520
L13590 7480
L13640 7450
" />
<path d="M13950 8000
L14330 8000
" />
<path d="M14740 7950
L14570 7710
" />
<path d="M14450 7950
L14450 7450
L14640 7450
L14690 7480
L14710 7500
L14740 7550
L14740 7620
L14710 7670
L14690 7690
L14640 7710
L14450 7710
" />
<path d="M14950 7950
L14950 7450
L15240 7950
L15240 7450
" />
<path d="M16400 7150
L16430 7130
L16480 7100
L16590 7100
L16640 7130
L16670 7150
L16690 7200
L16690 7240
L16670 7320
L16380 7600
L16690 7600
" />
<path d="M16860 7100
L17190 7100
L16980 7600
" />
<path d="M15790 6730
L17790 6730
" />
<path d="M13470 6450
L13640 6950
L13810 6450
" />
<path d="M13970 6450
L13970 6860
L14000 6900
L14020 6930
L14070 6950
L14160 6950
L14210 6930
L14240 6900
L14260 6860
L14260 6450
" />
<path d="M14470 6930
L14550 6950
L14660 6950
L14710 6930
L14740 6900
L14760 6860
L14760 6810
L14740 6760
L14710 6740
L14660 6710
L14570 6690
L14520 6670
L14500 6640
L14470 6590
L14470 6550
L14500 6500
L14520 6480
L14570 6450
L14690 6450
L14760 6480
" />
<path d="M15140 6690
L15210 6710
L15240 6740
L15260 6780
L15260 6860
L15240 6900
L15210 6930
L15160 6950
L14970 6950
L14970 6450
L15140 6450
L15190 6480
L15210 6500
L15240 6550
L15240 6590
L15210 6640
L15190 6670
L15140 6690
L14970 6690
" />
<path d="M16400 6150
L16430 6130
L16480 6100
L16590 6100
L16640 6130
L16670 6150
L16690 6200
L16690 6240
L16670 6320
L16380 6600
L16690 6600
" />
<path d="M16980 6320
L16930 6290
L16900 6270
L16880 6220
L16880 6200
L16900 6150
L16930 6130
L16980 6100
L17070 6100
L17120 6130
L17140 6150
L17170 6200
L17170 6220
L17140 6270
L17120 6290
L17070 6320
L16980 6320
L16930 6340
L16900 6360
L16880 6410
L16880 6510
L16900 6550
L16930 6580
L16980 6600
L17070 6600
L17120 6580
L17140 6550
L17170 6510
L17170 6410
L17140 6360
L17120 6340
L17070 6320
" />
<path d="M15790 5730
L17790 5730
" />
<path d="M13660 5450
L13830 5950
L14000 5450
" />
<path d="M14330 5690
L14400 5710
L14430 5740
L14450 5780
L14450 5860
L14430 5900
L14400 5930
L14360 5950
L14160 5950
L14160 5450
L14330 5450
L14380 5480
L14400 5500
L14430 5550
L14430 5590
L14400 5640
L14380 5670
L14330 5690
L14160 5690
" />
<path d="M14640 5810
L14880 5810
" />
<path d="M14590 5950
L14760 5450
L14930 5950
" />
<path d="M15020 5450
L15310 5450
" />
<path d="M15160 5950
L15160 5450
" />
<path d="M16400 5150
L16430 5130
L16480 5100
L16590 5100
L16640 5130
L16670 5150
L16690 5200
L16690 5240
L16670 5320
L16380 5600
L16690 5600
" />
<path d="M16930 5600
L17020 5600
L17070 5580
L17090 5550
L17140 5480
L17170 5390
L17170 5200
L17140 5150
L17120 5130
L17070 5100
L16980 5100
L16930 5130
L16900 5150
L16880 5200
L16880 5320
L16900 5360
L16930 5390
L16980 5410
L17070 5410
L17120 5390
L17140 5360
L17170 5320
" />
<path d="M3790 4730
L1790 4730
" />
<path d="M4600 4480
L4550 4450
L4480 4450
L4410 4480
L4360 4520
L4330 4570
L4310 4670
L4310 4740
L4330 4830
L4360 4880
L4410 4930
L4480 4950
L4520 4950
L4600 4930
L4620 4900
L4620 4740
L4520 4740
" />
<path d="M4830 4950
L4830 4450
L5120 4950
L5120 4450
" />
<path d="M5360 4950
L5360 4450
L5480 4450
L5550 4480
L5600 4520
L5620 4570
L5640 4670
L5640 4740
L5620 4830
L5600 4880
L5550 4930
L5480 4950
L5360 4950
" />
<path d="M2620 4100
L2930 4100
L2760 4290
L2830 4290
L2880 4320
L2900 4340
L2930 4390
L2930 4510
L2900 4550
L2880 4580
L2830 4600
L2690 4600
L2640 4580
L2620 4550
" />
<path d="M15790 4730
L17790 4730
" />
<path d="M12000 4450
L12310 4450
L12140 4640
L12210 4640
L12260 4670
L12280 4690
L12310 4740
L12310 4860
L12280 4900
L12260 4930
L12210 4950
L12070 4950
L12020 4930
L12000 4900
" />
<path d="M12520 4900
L12550 4930
L12520 4950
L12500 4930
L12520 4900
L12520 4950
" />
<path d="M12860 4450
L12900 4450
L12950 4480
L12970 4500
L13000 4550
L13020 4640
L13020 4760
L13000 4860
L12970 4900
L12950 4930
L12900 4950
L12860 4950
L12810 4930
L12780 4900
L12760 4860
L12740 4760
L12740 4640
L12760 4550
L12780 4500
L12810 4480
L12860 4450
" />
<path d="M13160 4450
L13330 4950
L13500 4450
" />
<path d="M13550 5000
L13930 5000
" />
<path d="M14140 4450
L14240 4450
L14280 4480
L14330 4520
L14360 4620
L14360 4780
L14330 4880
L14280 4930
L14240 4950
L14140 4950
L14090 4930
L14050 4880
L14020 4780
L14020 4620
L14050 4520
L14090 4480
L14140 4450
" />
<path d="M14570 4450
L14570 4860
L14590 4900
L14620 4930
L14660 4950
L14760 4950
L14810 4930
L14830 4900
L14860 4860
L14860 4450
" />
<path d="M15020 4450
L15310 4450
" />
<path d="M15160 4950
L15160 4450
" />
<path d="M16380 4100
L16690 4100
L16520 4290
L16590 4290
L16640 4320
L16670 4340
L16690 4390
L16690 4510
L16670 4550
L16640 4580
L16590 4600
L16450 4600
L16400 4580
L16380 4550
" />
<path d="M17000 4100
L17050 4100
L17090 4130
L17120 4150
L17140 4200
L17170 4290
L17170 4410
L17140 4510
L17120 4550
L17090 4580
L17050 4600
L17000 4600
L16950 4580
L16930 4550
L16900 4510
L16880 4410
L16880 4290
L16900 4200
L16930 4150
L16950 4130
L17000 4100
" />
<path d="M15790 3730
L17790 3730
" />
<path d="M13550 3450
L13710 3950
L13880 3450
" />
<path d="M14020 3810
L14260 3810
" />
<path d="M13970 3950
L14140 3450
L14310 3950
" />
<path d="M14470 3950
L14470 3450
L14590 3450
L14660 3480
L14710 3520
L14740 3570
L14760 3670
L14760 3740
L14740 3830
L14710 3880
L14660 3930
L14590 3950
L14470 3950
" />
<path d="M15260 3900
L15240 3930
L15160 3950
L15120 3950
L15050 3930
L15000 3880
L14970 3830
L14950 3740
L14950 3670
L14970 3570
L15000 3520
L15050 3480
L15120 3450
L15160 3450
L15240 3480
L15260 3500
" />
<path d="M16380 3100
L16690 3100
L16520 3290
L16590 3290
L16640 3320
L16670 3340
L16690 3390
L16690 3510
L16670 3550
L16640 3580
L16590 3600
L16450 3600
L16400 3580
L16380 3550
" />
<path d="M17170 3600
L16880 3600
" />
<path d="M17020 3600
L17020 3100
L16980 3170
L16930 3220
L16880 3240
" />
<path d="M15790 2730
L17790 2730
" />
<path d="M14210 2480
L14160 2450
L14090 2450
L14020 2480
L13970 2520
L13950 2570
L13930 2670
L13930 2740
L13950 2830
L13970 2880
L14020 2930
L14090 2950
L14140 2950
L14210 2930
L14240 2900
L14240 2740
L14140 2740
" />
<path d="M14450 2950
L14450 2450
L14740 2950
L14740 2450
" />
<path d="M14970 2950
L14970 2450
L15090 2450
L15160 2480
L15210 2520
L15240 2570
L15260 2670
L15260 2740
L15240 2830
L15210 2880
L15160 2930
L15090 2950
L14970 2950
" />
<path d="M16380 2100
L16690 2100
L16520 2290
L16590 2290
L16640 2320
L16670 2340
L16690 2390
L16690 2510
L16670 2550
L16640 2580
L16590 2600
L16450 2600
L16400 2580
L16380 2550
" />
<path d="M16880 2150
L16900 2130
L16950 2100
L17070 2100
L17120 2130
L17140 2150
L17170 2200
L17170 2240
L17140 2320
L16860 2600
L17170 2600
" />
<path d="M3790 5730
L1790 5730
" />
<path d="M4260 5450
L4550 5450
" />
<path d="M4410 5950
L4410 5450
" />
<path d="M4720 5950
L4720 5450
L4880 5810
L5050 5450
L5050 5950
" />
<path d="M5260 5930
L5330 5950
L5450 5950
L5500 5930
L5520 5900
L5550 5860
L5550 5810
L5520 5760
L5500 5740
L5450 5710
L5360 5690
L5310 5670
L5290 5640
L5260 5590
L5260 5550
L5290 5500
L5310 5480
L5360 5450
L5480 5450
L5550 5480
" />
<path d="M6120 5430
L5690 6070
" />
<path d="M6550 5480
L6500 5450
L6430 5450
L6360 5480
L6310 5520
L6290 5570
L6260 5670
L6260 5740
L6290 5830
L6310 5880
L6360 5930
L6430 5950
L6480 5950
L6550 5930
L6570 5900
L6570 5740
L6480 5740
" />
<path d="M6790 5950
L6790 5450
L6980 5450
L7020 5480
L7050 5500
L7070 5550
L7070 5620
L7050 5670
L7020 5690
L6980 5710
L6790 5710
" />
<path d="M7290 5950
L7290 5450
" />
<path d="M7620 5450
L7720 5450
L7760 5480
L7810 5520
L7830 5620
L7830 5780
L7810 5880
L7760 5930
L7720 5950
L7620 5950
L7570 5930
L7520 5880
L7500 5780
L7500 5620
L7520 5520
L7570 5480
L7620 5450
" />
<path d="M8310 5950
L8020 5950
" />
<path d="M8170 5950
L8170 5450
L8120 5520
L8070 5570
L8020 5590
" />
<path d="M8550 5950
L8640 5950
L8690 5930
L8720 5900
L8760 5830
L8790 5740
L8790 5550
L8760 5500
L8740 5480
L8690 5450
L8600 5450
L8550 5480
L8520 5500
L8500 5550
L8500 5670
L8520 5710
L8550 5740
L8600 5760
L8690 5760
L8740 5740
L8760 5710
L8790 5670
" />
<path d="M2880 5270
L2880 5600
" />
<path d="M2760 5080
L2640 5430
L2950 5430
" />
<path d="M3790 6730
L1790 6730
" />
<path d="M4260 6450
L4550 6450
" />
<path d="M4410 6950
L4410 6450
" />
<path d="M5000 6900
L4980 6930
L4910 6950
L4860 6950
L4790 6930
L4740 6880
L4720 6830
L4690 6740
L4690 6670
L4720 6570
L4740 6520
L4790 6480
L4860 6450
L4910 6450
L4980 6480
L5000 6500
" />
<path d="M5220 6950
L5220 6450
" />
<path d="M5500 6950
L5290 6670
" />
<path d="M5500 6450
L5220 6740
" />
<path d="M6070 6430
L5640 7070
" />
<path d="M6500 6480
L6450 6450
L6380 6450
L6310 6480
L6260 6520
L6240 6570
L6220 6670
L6220 6740
L6240 6830
L6260 6880
L6310 6930
L6380 6950
L6430 6950
L6500 6930
L6520 6900
L6520 6740
L6430 6740
" />
<path d="M6740 6950
L6740 6450
L6930 6450
L6980 6480
L7000 6500
L7020 6550
L7020 6620
L7000 6670
L6980 6690
L6930 6710
L6740 6710
" />
<path d="M7240 6950
L7240 6450
" />
<path d="M7570 6450
L7670 6450
L7720 6480
L7760 6520
L7790 6620
L7790 6780
L7760 6880
L7720 6930
L7670 6950
L7570 6950
L7520 6930
L7480 6880
L7450 6780
L7450 6620
L7480 6520
L7520 6480
L7570 6450
" />
<path d="M8260 6950
L7980 6950
" />
<path d="M8120 6950
L8120 6450
L8070 6520
L8020 6570
L7980 6590
" />
<path d="M8550 6670
L8500 6640
L8480 6620
L8450 6570
L8450 6550
L8480 6500
L8500 6480
L8550 6450
L8640 6450
L8690 6480
L8720 6500
L8740 6550
L8740 6570
L8720 6620
L8690 6640
L8640 6670
L8550 6670
L8500 6690
L8480 6710
L8450 6760
L8450 6860
L8480 6900
L8500 6930
L8550 6950
L8640 6950
L8690 6930
L8720 6900
L8740 6860
L8740 6760
L8720 6710
L8690 6690
L8640 6670
" />
<path d="M2900 6100
L2670 6100
L2640 6340
L2670 6320
L2710 6290
L2830 6290
L2880 6320
L2900 6340
L2930 6390
L2930 6510
L2900 6550
L2880 6580
L2830 6600
L2710 6600
L2670 6580
L2640 6550
" />
<path d="M3790 7730
L1790 7730
" />
<path d="M4260 7450
L4550 7450
" />
<path d="M4410 7950
L4410 7450
" />
<path d="M4720 7950
L4720 7450
L4830 7450
L4910 7480
L4950 7520
L4980 7570
L5000 7670
L5000 7740
L4980 7830
L4950 7880
L4910 7930
L4830 7950
L4720 7950
" />
<path d="M5310 7450
L5410 7450
L5450 7480
L5500 7520
L5520 7620
L5520 7780
L5500 7880
L5450 7930
L5410 7950
L5310 7950
L5260 7930
L5220 7880
L5190 7780
L5190 7620
L5220 7520
L5260 7480
L5310 7450
" />
<path d="M6100 7430
L5670 8070
" />
<path d="M6520 7480
L6480 7450
L6410 7450
L6330 7480
L6290 7520
L6260 7570
L6240 7670
L6240 7740
L6260 7830
L6290 7880
L6330 7930
L6410 7950
L6450 7950
L6520 7930
L6550 7900
L6550 7740
L6450 7740
" />
<path d="M6760 7950
L6760 7450
L6950 7450
L7000 7480
L7020 7500
L7050 7550
L7050 7620
L7020 7670
L7000 7690
L6950 7710
L6760 7710
" />
<path d="M7260 7950
L7260 7450
" />
<path d="M7600 7450
L7690 7450
L7740 7480
L7790 7520
L7810 7620
L7810 7780
L7790 7880
L7740 7930
L7690 7950
L7600 7950
L7550 7930
L7500 7880
L7480 7780
L7480 7620
L7500 7520
L7550 7480
L7600 7450
" />
<path d="M8000 7500
L8020 7480
L8070 7450
L8190 7450
L8240 7480
L8260 7500
L8290 7550
L8290 7590
L8260 7670
L7980 7950
L8290 7950
" />
<path d="M8760 7950
L8480 7950
" />
<path d="M8620 7950
L8620 7450
L8570 7520
L8520 7570
L8480 7590
" />
<path d="M2880 7100
L2790 7100
L2740 7130
L2710 7150
L2670 7220
L2640 7320
L2640 7510
L2670 7550
L2690 7580
L2740 7600
L2830 7600
L2880 7580
L2900 7550
L2930 7510
L2930 7390
L2900 7340
L2880 7320
L2830 7290
L2740 7290
L2690 7320
L2670 7340
L2640 7390
" />
<path d="M3790 8730
L1790 8730
" />
<path d="M4260 8450
L4550 8450
" />
<path d="M4410 8950
L4410 8450
" />
<path d="M4720 8950
L4720 8450
L4830 8450
L4910 8480
L4950 8520
L4980 8570
L5000 8670
L5000 8740
L4980 8830
L4950 8880
L4910 8930
L4830 8950
L4720 8950
" />
<path d="M5220 8950
L5220 8450
" />
<path d="M5810 8430
L5380 9070
" />
<path d="M6240 8480
L6190 8450
L6120 8450
L6050 8480
L6000 8520
L5980 8570
L5950 8670
L5950 8740
L5980 8830
L6000 8880
L6050 8930
L6120 8950
L6170 8950
L6240 8930
L6260 8900
L6260 8740
L6170 8740
" />
<path d="M6480 8950
L6480 8450
L6670 8450
L6720 8480
L6740 8500
L6760 8550
L6760 8620
L6740 8670
L6720 8690
L6670 8710
L6480 8710
" />
<path d="M6980 8950
L6980 8450
" />
<path d="M7310 8450
L7410 8450
L7450 8480
L7500 8520
L7520 8620
L7520 8780
L7500 8880
L7450 8930
L7410 8950
L7310 8950
L7260 8930
L7220 8880
L7190 8780
L7190 8620
L7220 8520
L7260 8480
L7310 8450
" />
<path d="M7720 8500
L7740 8480
L7790 8450
L7910 8450
L7950 8480
L7980 8500
L8000 8550
L8000 8590
L7980 8670
L7690 8950
L8000 8950
" />
<path d="M8310 8450
L8360 8450
L8410 8480
L8430 8500
L8450 8550
L8480 8640
L8480 8760
L8450 8860
L8430 8900
L8410 8930
L8360 8950
L8310 8950
L8260 8930
L8240 8900
L8220 8860
L8190 8760
L8190 8640
L8220 8550
L8240 8500
L8260 8480
L8310 8450
" />
<path d="M2620 8100
L2950 8100
L2740 8600
" />
<path d="M3790 9730
L1790 9730
" />
<path d="M4620 9950
L4450 9710
" />
<path d="M4330 9950
L4330 9450
L4520 9450
L4570 9480
L4600 9500
L4620 9550
L4620 9620
L4600 9670
L4570 9690
L4520 9710
L4330 9710
" />
<path d="M4810 9930
L4880 9950
L5000 9950
L5050 9930
L5070 9900
L5100 9860
L5100 9810
L5070 9760
L5050 9740
L5000 9710
L4910 9690
L4860 9670
L4830 9640
L4810 9590
L4810 9550
L4830 9500
L4860 9480
L4910 9450
L5020 9450
L5100 9480
" />
<path d="M5240 9450
L5520 9450
" />
<path d="M5380 9950
L5380 9450
" />
<path d="M5690 9950
L5690 9450
L5980 9950
L5980 9450
" />
<path d="M2740 9320
L2690 9290
L2670 9270
L2640 9220
L2640 9200
L2670 9150
L2690 9130
L2740 9100
L2830 9100
L2880 9130
L2900 9150
L2930 9200
L2930 9220
L2900 9270
L2880 9290
L2830 9320
L2740 9320
L2690 9340
L2670 9360
L2640 9410
L2640 9510
L2670 9550
L2690 9580
L2740 9600
L2830 9600
L2880 9580
L2900 9550
L2930 9510
L2930 9410
L2900 9360
L2880 9340
L2830 9320
" />
<path d="M3790 10730
L1790 10730
" />
<path d="M4330 10950
L4330 10450
L4500 10810
L4670 10450
L4670 10950
" />
<path d="M5070 10690
L5140 10710
L5170 10740
L5190 10780
L5190 10860
L5170 10900
L5140 10930
L5100 10950
L4910 10950
L4910 10450
L5070 10450
L5120 10480
L5140 10500
L5170 10550
L5170 10590
L5140 10640
L5120 10670
L5070 10690
L4910 10690
" />
<path d="M5410 10950
L5410 10450
" />
<path d="M5620 10930
L5690 10950
L5810 10950
L5860 10930
L5880 10900
L5910 10860
L5910 10810
L5880 10760
L5860 10740
L5810 10710
L5720 10690
L5670 10670
L5640 10640
L5620 10590
L5620 10550
L5640 10500
L5670 10480
L5720 10450
L5830 10450
L5910 10480
" />
<path d="M6050 10450
L6330 10450
" />
<path d="M6190 10950
L6190 10450
" />
<path d="M6500 10690
L6670 10690
" />
<path d="M6740 10950
L6500 10950
L6500 10450
L6740 10450
" />
<path d="M6950 10950
L6950 10450
L7240 10950
L7240 10450
" />
<path d="M2690 10600
L2790 10600
L2830 10580
L2860 10550
L2900 10480
L2930 10390
L2930 10200
L2900 10150
L2880 10130
L2830 10100
L2740 10100
L2690 10130
L2670 10150
L2640 10200
L2640 10320
L2670 10360
L2690 10390
L2740 10410
L2830 10410
L2880 10390
L2900 10360
L2930 10320
" />
<path d="M8360 2700
L8160 2700
" />
<path d="M8160 3020
L8160 2420
L8440 2420
" />
<path d="M8670 2790
L9130 2790
" />
<path d="M9670 2420
L9560 2420
L9500 2450
L9470 2470
L9410 2560
L9390 2670
L9390 2900
L9410 2960
L9440 2990
L9500 3020
L9610 3020
L9670 2990
L9700 2960
L9730 2900
L9730 2760
L9700 2700
L9670 2670
L9610 2650
L9500 2650
L9440 2670
L9410 2700
L9390 2760
" />
<path d="M10300 3020
L9960 3020
" />
<path d="M10130 3020
L10130 2420
L10070 2500
L10010 2560
L9960 2590
" />
<path d="M10640 2670
L10590 2650
L10560 2620
L10530 2560
L10530 2530
L10560 2470
L10590 2450
L10640 2420
L10760 2420
L10810 2450
L10840 2470
L10870 2530
L10870 2560
L10840 2620
L10810 2650
L10760 2670
L10640 2670
L10590 2700
L10560 2730
L10530 2790
L10530 2900
L10560 2960
L10590 2990
L10640 3020
L10760 3020
L10810 2990
L10840 2960
L10870 2900
L10870 2790
L10840 2730
L10810 2700
L10760 2670
" />
<path d="M11210 2670
L11160 2650
L11130 2620
L11100 2560
L11100 2530
L11130 2470
L11160 2450
L11210 2420
L11330 2420
L11390 2450
L11410 2470
L11440 2530
L11440 2560
L11410 2620
L11390 2650
L11330 2670
L11210 2670
L11160 2700
L11130 2730
L11100 2790
L11100 2900
L11130 2960
L11160 2990
L11210 3020
L11330 3020
L11390 2990
L11410 2960
L11440 2900
L11440 2790
L11410 2730
L11390 2700
L11330 2670
" />
<path d="M9360 14920
L9360 15400
L9390 15460
L9410 15490
L9470 15520
L9590 15520
L9640 15490
L9670 15460
L9700 15400
L9700 14920
" />
<path d="M10070 15460
L10100 15490
L10070 15520
L10040 15490
L10070 15460
L10070 15520
" />
<path d="M9960 14950
L10010 14920
L10160 14920
L10210 14950
L10240 15000
L10240 15060
L10210 15120
L10190 15150
L10130 15170
L10100 15200
L10070 15260
L10070 15290
" />
</g> 
</svg>
