<?xml version="1.0" encoding="UTF-8" standalone="no"?>
<!-- Created with Inkscape (http://www.inkscape.org/) -->

<svg
   xmlns:dc="http://purl.org/dc/elements/1.1/"
   xmlns:cc="http://creativecommons.org/ns#"
   xmlns:rdf="http://www.w3.org/1999/02/22-rdf-syntax-ns#"
   xmlns:svg="http://www.w3.org/2000/svg"
   xmlns="http://www.w3.org/2000/svg"
   version="1.1"
   width="95.669289"
   height="95.669289"
   id="svg2">
  <defs
     id="defs4" />
  <metadata
     id="metadata7">
    <rdf:RDF>
      <cc:Work
         rdf:about="">
        <dc:format>image/svg+xml</dc:format>
        <dc:type
           rdf:resource="http://purl.org/dc/dcmitype/StillImage" />
        <dc:title></dc:title>
      </cc:Work>
    </rdf:RDF>
  </metadata>
  <g
     transform="translate(21.877486,-974.80828)"
     id="copper0-7"
     style="stroke-width:1;stroke-miterlimit:4;stroke-dasharray:none">
    <path
       d="m 18.590182,1045.3229 c -1.956914,5e-4 -3.53125,1.6057 -3.53125,3.5624 l 0,7.0817 c 0,1.9572 1.574336,3.532 3.53125,3.5313 l 30.130413,-0.01 c 1.956913,-6e-4 3.543307,-1.5862 3.543307,-3.5433 l 0,-7.0866 c 0,-1.9567 -1.586393,-3.5434 -3.543307,-3.5433 z m 3.543553,5.3008 23.043553,-0.013 c 0.978457,-6e-4 1.78125,0.8028 1.78125,1.7813 0,0.9784 -0.802793,1.75 -1.78125,1.75 l 0,0.031 -23.043553,0.013 c -0.978457,5e-4 -1.75,-0.8029 -1.75,-1.7812 0,-0.9785 0.771543,-1.7813 1.75,-1.7813 z"
       id="connector85pad-3"
       style="opacity:0.98000004;fill:#f7bd13;fill-opacity:0.98039216;fill-rule:nonzero;stroke:none" />
    <path
       d="m -15.071235,1015.1526 c -1.956914,5e-4 -3.53125,1.6057 -3.53125,3.5624 l 0,7.0817 c 0,1.9572 1.574336,3.532 3.53125,3.5313 l 30.130413,-0.01 c 1.956913,-6e-4 3.543307,-1.5862 3.543307,-3.5433 l 0,-7.0866 c 0,-1.9567 -1.586393,-3.5434 -3.543307,-3.5433 z m 3.543553,5.3008 23.043553,-0.013 c 0.978457,-6e-4 1.78125,0.8028 1.78125,1.7813 0,0.9784 -0.802793,1.75 -1.78125,1.75 l 0,0.031 -23.043553,0.013 c -0.978457,5e-4 -1.75,-0.8029 -1.75,-1.7812 0,-0.9785 0.771542,-1.7813 1.75,-1.7813 z"
       id="connector30pad-6"
       style="opacity:0.98000004;fill:#f7bd13;fill-opacity:0.98039216;fill-rule:nonzero;stroke:none" />
    <path
       d="m 42.16254,1007.5272 c -5e-4,-1.9569 -1.6057,-3.5313 -3.5624,-3.5313 l -7.0817,0 c -1.9572,0 -3.532,1.5744 -3.5313,3.5313 l 0.01,30.1304 c 6e-4,1.9569 1.5862,3.5433 3.5433,3.5433 l 7.0866,0 c 1.9567,0 3.5434,-1.5864 3.5433,-3.5433 z m -5.3008,3.5435 0.013,23.0436 c 6e-4,0.9784 -0.8028,1.7812 -1.7813,1.7812 -0.9784,0 -1.75,-0.8028 -1.75,-1.7812 l -0.031,0 -0.013,-23.0436 c -5e-4,-0.9784 0.8029,-1.75 1.7812,-1.75 0.9785,0 1.7813,0.7716 1.7813,1.75 z"
       id="connector87Apad-8"
       style="opacity:0.98000004;fill:#f7bd13;fill-opacity:0.98039216;fill-rule:nonzero;stroke:none" />
    <path
       d="m 70.508997,1007.5272 c -5e-4,-1.9569 -1.6057,-3.5313 -3.5624,-3.5313 l -7.0817,0 c -1.9572,0 -3.532,1.5744 -3.5313,3.5313 l 0.01,30.1304 c 6e-4,1.9569 1.5862,3.5433 3.5433,3.5433 l 7.0866,0 c 1.9567,0 3.5434,-1.5864 3.5433,-3.5433 z m -5.3008,3.5435 0.013,23.0436 c 6e-4,0.9784 -0.8028,1.7812 -1.7813,1.7812 -0.9784,0 -1.75,-0.8028 -1.75,-1.7812 l -0.031,0 -0.013,-23.0436 c -5e-4,-0.9784 0.8029,-1.75 1.7812,-1.75 0.9785,0 1.7813,0.7716 1.7813,1.75 z"
       id="connector87pad-4"
       style="opacity:0.98000004;fill:#f7bd13;fill-opacity:0.98039216;fill-rule:nonzero;stroke:none" />
    <path
       d="m 20.007505,985.79534 c -1.956914,5e-4 -3.53125,1.6057 -3.53125,3.5624 l 0,7.0817 c 0,1.9572 1.574336,3.532 3.53125,3.5313 l 30.130413,-0.01 c 1.956913,-6e-4 3.543307,-1.5862 3.543307,-3.5433 l 0,-7.0866 c 0,-1.9567 -1.586393,-3.5434 -3.543307,-3.5433 z m 3.543553,5.3008 23.043553,-0.013 c 0.978457,-6e-4 1.78125,0.8028 1.78125,1.7813 0,0.9784 -0.802793,1.75 -1.78125,1.75 l 0,0.031 -23.043553,0.013 c -0.978457,5e-4 -1.75,-0.8029 -1.75,-1.7812 0,-0.9785 0.771543,-1.7813 1.75,-1.7813 z"
       id="connector86pad-9"
       style="opacity:0.98000004;fill:#f7bd13;fill-opacity:0.98039216;fill-rule:nonzero;stroke:none" />
  </g>
  <g
     transform="translate(-152.457,-345.61951)"
     id="g4072">
    <rect
       width="77.939072"
       height="77.939072"
       x="161.32211"
       y="354.48462"
       id="rect2987"
       style="opacity:0.98000004;fill:#000000;fill-opacity:1;fill-rule:nonzero;stroke:#000000;stroke-width:17.73021889;stroke-linecap:round;stroke-linejoin:round;stroke-miterlimit:4;stroke-opacity:1;stroke-dasharray:none" />
    <g
       id="g4044">
      <rect
         width="13.25"
         height="26.375"
         x="171.99634"
         y="380.14694"
         id="rect3779"
         style="opacity:0.98000004;fill:none;stroke:#ffffff;stroke-width:1;stroke-linecap:round;stroke-linejoin:miter;stroke-miterlimit:4;stroke-opacity:1;stroke-dasharray:none" />
      <path
         d="m 178.62134,379.14695 0,-16.5"
         id="path3781"
         style="fill:none;stroke:#ffffff;stroke-width:1px;stroke-linecap:square;stroke-linejoin:miter;stroke-opacity:1" />
      <path
         d="m 178.62134,424.02195 0,-16.5"
         id="path3781-3"
         style="fill:none;stroke:#ffffff;stroke-width:1px;stroke-linecap:square;stroke-linejoin:miter;stroke-opacity:1" />
      <path
         d="m 171.99634,379.89695 13.125,26.625"
         id="path3801"
         style="fill:none;stroke:#ffffff;stroke-width:1px;stroke-linecap:butt;stroke-linejoin:miter;stroke-opacity:1" />
      <path
         d="m 201.67535,362.64695 0,15.59057"
         id="path3807"
         style="fill:none;stroke:#ffffff;stroke-width:1.13884366px;stroke-linecap:square;stroke-linejoin:miter;stroke-opacity:1" />
      <path
         d="m 223.59566,378.34437 -5.90081,0"
         id="path3815"
         style="fill:none;stroke:#ffffff;stroke-width:0.92514753px;stroke-linecap:square;stroke-linejoin:miter;stroke-opacity:1" />
      <path
         d="m 212.82682,424.96468 0,-20.79139"
         id="path3843"
         style="fill:none;stroke:#ffffff;stroke-width:0.88255298px;stroke-linecap:square;stroke-linejoin:miter;stroke-opacity:1" />
      <path
         d="m 207.53873,378.34437 -5.90081,0"
         id="path3815-7"
         style="fill:none;stroke:#ffffff;stroke-width:0.92514753px;stroke-linecap:square;stroke-linejoin:miter;stroke-opacity:1" />
      <path
         d="m 212.7681,403.23201 -4.24264,-25.63263"
         id="path3867"
         style="fill:none;stroke:#ffffff;stroke-width:1px;stroke-linecap:square;stroke-linejoin:miter;stroke-opacity:1" />
      <path
         d="m 223.48881,362.64695 0,15.59057"
         id="path3869"
         style="fill:none;stroke:#ffffff;stroke-width:1.13884366px;stroke-linecap:square;stroke-linejoin:miter;stroke-opacity:1" />
      <path
         d="m 185.19093,393.14488 25.8094,0"
         id="path3871"
         style="fill:none;stroke:#ffffff;stroke-width:1;stroke-linecap:square;stroke-linejoin:miter;stroke-miterlimit:4;stroke-opacity:1;stroke-dasharray:6, 6;stroke-dashoffset:0" />
      <path
         d="m 180.14604,359.94018 a 1.5247,1.5247 0 1 1 -3.0494,0 1.5247,1.5247 0 1 1 3.0494,0 z"
         id="path3875-2"
         style="opacity:0.98000004;fill:none;stroke:#ffffff;stroke-width:1.36412823;stroke-linecap:square;stroke-linejoin:miter;stroke-miterlimit:4;stroke-opacity:1;stroke-dasharray:none;stroke-dashoffset:0" />
      <path
         d="m 203.20005,359.87076 a 1.5247,1.5247 0 1 1 -3.0494,0 1.5247,1.5247 0 1 1 3.0494,0 z"
         id="path3875-5"
         style="opacity:0.98000004;fill:none;stroke:#ffffff;stroke-width:1.36412823;stroke-linecap:square;stroke-linejoin:miter;stroke-miterlimit:4;stroke-opacity:1;stroke-dasharray:none;stroke-dashoffset:0" />
      <path
         d="m 225.01351,359.87076 a 1.5247,1.5247 0 1 1 -3.0494,0 1.5247,1.5247 0 1 1 3.0494,0 z"
         id="path3875-0"
         style="opacity:0.98000004;fill:none;stroke:#ffffff;stroke-width:1.36412823;stroke-linecap:square;stroke-linejoin:miter;stroke-miterlimit:4;stroke-opacity:1;stroke-dasharray:none;stroke-dashoffset:0" />
      <path
         d="m 214.35152,427.61272 a 1.5247,1.5247 0 1 1 -3.0494,0 1.5247,1.5247 0 1 1 3.0494,0 z"
         id="path3875-4"
         style="opacity:0.98000004;fill:none;stroke:#ffffff;stroke-width:1.36412823;stroke-linecap:square;stroke-linejoin:miter;stroke-miterlimit:4;stroke-opacity:1;stroke-dasharray:none;stroke-dashoffset:0" />
      <path
         d="m 180.14604,426.72871 a 1.5247,1.5247 0 1 1 -3.0494,0 1.5247,1.5247 0 1 1 3.0494,0 z"
         id="path3875-9"
         style="opacity:0.98000004;fill:none;stroke:#ffffff;stroke-width:1.36412823;stroke-linecap:square;stroke-linejoin:miter;stroke-miterlimit:4;stroke-opacity:1;stroke-dasharray:none;stroke-dashoffset:0" />
      <text
         x="173.13306"
         y="355.79471"
         id="text3923"
         xml:space="preserve"
         style="font-size:10px;font-style:normal;font-variant:normal;font-weight:normal;font-stretch:normal;line-height:125%;letter-spacing:0px;word-spacing:0px;fill:#ffffff;fill-opacity:1;stroke:none;font-family:Droid Sans;-inkscape-font-specification:Droid Sans"><tspan
           x="173.13306"
           y="355.79471"
           id="tspan3925">85</tspan></text>
      <text
         x="172.23218"
         y="438.33038"
         id="text3927"
         xml:space="preserve"
         style="font-size:10px;font-style:normal;font-weight:normal;line-height:125%;letter-spacing:0px;word-spacing:0px;fill:#ffffff;fill-opacity:1;stroke:none;font-family:Sans"><tspan
           x="172.23218"
           y="438.33038"
           id="tspan3929">86</tspan></text>
      <text
         x="191.5899"
         y="355.85818"
         id="text3931"
         xml:space="preserve"
         style="font-size:10px;font-style:normal;font-weight:normal;line-height:125%;letter-spacing:0px;word-spacing:0px;fill:#ffffff;fill-opacity:1;stroke:none;font-family:Sans"><tspan
           x="191.5899"
           y="355.85818"
           id="tspan3933">87A</tspan></text>
      <text
         x="217.21196"
         y="355.85818"
         id="text3935"
         xml:space="preserve"
         style="font-size:10px;font-style:normal;font-weight:normal;line-height:125%;letter-spacing:0px;word-spacing:0px;fill:#ffffff;fill-opacity:1;stroke:none;font-family:Sans"><tspan
           x="217.21196"
           y="355.85818"
           id="tspan3937">87</tspan></text>
      <text
         x="206.41324"
         y="438.33038"
         id="text3939"
         xml:space="preserve"
         style="font-size:10px;font-style:normal;font-weight:normal;line-height:125%;letter-spacing:0px;word-spacing:0px;fill:#ffffff;fill-opacity:1;stroke:none;font-family:Sans"><tspan
           x="206.41324"
           y="438.33038"
           id="tspan3941">30</tspan></text>
    </g>
  </g>
  <g
     transform="translate(21.877486,-974.80828)"
     id="copper0"
     style="fill:none;stroke:none">
    <path
       d="m 18.590182,1045.3229 c -1.956914,5e-4 -3.53125,1.6057 -3.53125,3.5624 l 0,7.0817 c 0,1.9572 1.574336,3.532 3.53125,3.5313 l 30.130413,-0.01 c 1.956913,-6e-4 3.543307,-1.5862 3.543307,-3.5433 l 0,-7.0866 c 0,-1.9567 -1.586393,-3.5434 -3.543307,-3.5433 z m 3.543553,5.3008 23.043553,-0.013 c 0.978457,-6e-4 1.78125,0.8028 1.78125,1.7813 0,0.9784 -0.802793,1.75 -1.78125,1.75 l 0,0.031 -23.043553,0.013 c -0.978457,5e-4 -1.75,-0.8029 -1.75,-1.7812 0,-0.9785 0.771543,-1.7813 1.75,-1.7813 z"
       id="connector85pad"
       style="opacity:0.98000004;fill:none;stroke:none" />
    <path
       d="m -15.071235,1015.1526 c -1.956914,5e-4 -3.53125,1.6057 -3.53125,3.5624 l 0,7.0817 c 0,1.9572 1.574336,3.532 3.53125,3.5313 l 30.130413,-0.01 c 1.956913,-6e-4 3.543307,-1.5862 3.543307,-3.5433 l 0,-7.0866 c 0,-1.9567 -1.586393,-3.5434 -3.543307,-3.5433 z m 3.543553,5.3008 23.043553,-0.013 c 0.978457,-6e-4 1.78125,0.8028 1.78125,1.7813 0,0.9784 -0.802793,1.75 -1.78125,1.75 l 0,0.031 -23.043553,0.013 c -0.978457,5e-4 -1.75,-0.8029 -1.75,-1.7812 0,-0.9785 0.771542,-1.7813 1.75,-1.7813 z"
       id="connector30pad"
       style="opacity:0.98000004;fill:none;stroke:none" />
    <path
       d="m 42.16254,1007.5272 c -5e-4,-1.9569 -1.6057,-3.5313 -3.5624,-3.5313 l -7.0817,0 c -1.9572,0 -3.532,1.5744 -3.5313,3.5313 l 0.01,30.1304 c 6e-4,1.9569 1.5862,3.5433 3.5433,3.5433 l 7.0866,0 c 1.9567,0 3.5434,-1.5864 3.5433,-3.5433 z m -5.3008,3.5435 0.013,23.0436 c 6e-4,0.9784 -0.8028,1.7812 -1.7813,1.7812 -0.9784,0 -1.75,-0.8028 -1.75,-1.7812 l -0.031,0 -0.013,-23.0436 c -5e-4,-0.9784 0.8029,-1.75 1.7812,-1.75 0.9785,0 1.7813,0.7716 1.7813,1.75 z"
       id="connector87Apad"
       style="opacity:0.98000004;fill:none;stroke:none" />
    <path
       d="m 70.508997,1007.5272 c -5e-4,-1.9569 -1.6057,-3.5313 -3.5624,-3.5313 l -7.0817,0 c -1.9572,0 -3.532,1.5744 -3.5313,3.5313 l 0.01,30.1304 c 6e-4,1.9569 1.5862,3.5433 3.5433,3.5433 l 7.0866,0 c 1.9567,0 3.5434,-1.5864 3.5433,-3.5433 z m -5.3008,3.5435 0.013,23.0436 c 6e-4,0.9784 -0.8028,1.7812 -1.7813,1.7812 -0.9784,0 -1.75,-0.8028 -1.75,-1.7812 l -0.031,0 -0.013,-23.0436 c -5e-4,-0.9784 0.8029,-1.75 1.7812,-1.75 0.9785,0 1.7813,0.7716 1.7813,1.75 z"
       id="connector87pad"
       style="opacity:0.98000004;fill:none;stroke:none" />
    <path
       d="m 20.007505,985.79534 c -1.956914,5e-4 -3.53125,1.6057 -3.53125,3.5624 l 0,7.0817 c 0,1.9572 1.574336,3.532 3.53125,3.5313 l 30.130413,-0.01 c 1.956913,-6e-4 3.543307,-1.5862 3.543307,-3.5433 l 0,-7.0866 c 0,-1.9567 -1.586393,-3.5434 -3.543307,-3.5433 z m 3.543553,5.3008 23.043553,-0.013 c 0.978457,-6e-4 1.78125,0.8028 1.78125,1.7813 0,0.9784 -0.802793,1.75 -1.78125,1.75 l 0,0.031 -23.043553,0.013 c -0.978457,5e-4 -1.75,-0.8029 -1.75,-1.7812 0,-0.9785 0.771543,-1.7813 1.75,-1.7813 z"
       id="connector86pad"
       style="opacity:0.98000004;fill:none;stroke:none" />
  </g>
</svg>
