<?xml version="1.0" encoding="UTF-8" standalone="no"?>
<!-- Created with Inkscape (http://www.inkscape.org/) -->

<svg
   xmlns:dc="http://purl.org/dc/elements/1.1/"
   xmlns:cc="http://creativecommons.org/ns#"
   xmlns:rdf="http://www.w3.org/1999/02/22-rdf-syntax-ns#"
   xmlns:svg="http://www.w3.org/2000/svg"
   xmlns="http://www.w3.org/2000/svg"
   version="1.1"
   width="97.03125"
   height="80.71875"
   id="svg8096">
  <defs
     id="defs8098" />
  <metadata
     id="metadata8101">
    <rdf:RDF>
      <cc:Work
         rdf:about="">
        <dc:format>image/svg+xml</dc:format>
        <dc:type
           rdf:resource="http://purl.org/dc/dcmitype/StillImage" />
        <dc:title></dc:title>
      </cc:Work>
    </rdf:RDF>
  </metadata>
  <g
     id="silkscreen"
     style="fill:none;stroke:#ffffff;stroke-opacity:1">
    <g
       id="g5490"
       style="fill:none;stroke:#ffffff;stroke-opacity:1">
      <path
         d="m 96.531467,80.22385 0,-79.72438 -96.023622,0 0,79.72438 c 32.007874,0 64.015748,0 96.023622,0 z"
         id="slikscreen"
         style="fill:none;stroke:#ffffff;stroke-width:1;stroke-linecap:butt;stroke-linejoin:miter;stroke-miterlimit:4;stroke-opacity:1;stroke-dasharray:none" />
    </g>
  </g>
  <g
     id="copper0">
    <path
       d="m 41.152682,63.04165 c -1.956914,5e-4 -3.53125,1.6057 -3.53125,3.5624 l 0,7.0817 c 0,1.9572 1.574336,3.532 3.53125,3.5313 l 30.130413,-0.01 c 1.956913,-6e-4 3.543307,-1.5862 3.543307,-3.5433 l 0,-7.0866 c 0,-1.9567 -1.586393,-3.5434 -3.543307,-3.5433 z m 3.543553,5.3008 23.043553,-0.013 c 0.978457,-6e-4 1.78125,0.8028 1.78125,1.7813 0,0.9784 -0.802793,1.75 -1.78125,1.75 l 0,0.031 -23.043553,0.013 c -0.978457,5e-4 -1.75,-0.8029 -1.75,-1.7812 0,-0.9785 0.771543,-1.7813 1.75,-1.7813 z"
       id="connector4pad"
       style="opacity:0.98000004;fill:#f7bd13;fill-opacity:0.98039216;fill-rule:nonzero;stroke:none" />
    <path
       d="m 7.491265,32.87135 c -1.956914,5e-4 -3.53125,1.6057 -3.53125,3.5624 l 0,7.0817 c 0,1.9572 1.574336,3.532 3.53125,3.5313 l 30.130413,-0.01 c 1.956913,-6e-4 3.543307,-1.5862 3.543307,-3.5433 l 0,-7.0866 c 0,-1.9567 -1.586393,-3.5434 -3.543307,-3.5433 z m 3.543553,5.3008 23.043553,-0.013 c 0.978457,-6e-4 1.78125,0.8028 1.78125,1.7813 0,0.9784 -0.802793,1.75 -1.78125,1.75 l 0,0.031 -23.043553,0.013 c -0.978457,5e-4 -1.75,-0.8029 -1.75,-1.7812 0,-0.9785 0.771542,-1.7813 1.75,-1.7813 z"
       id="connector2pad"
       style="opacity:0.98000004;fill:#f7bd13;fill-opacity:0.98039216;fill-rule:nonzero;stroke:none" />
    <path
       d="m 64.72504,25.24595 c -5e-4,-1.9569 -1.6057,-3.5313 -3.5624,-3.5313 l -7.0817,0 c -1.9572,0 -3.532,1.5744 -3.5313,3.5313 l 0.01,30.1304 c 6e-4,1.9569 1.5862,3.5433 3.5433,3.5433 l 7.0866,0 c 1.9567,0 3.5434,-1.5864 3.5433,-3.5433 z m -5.3008,3.5435 0.013,23.0436 c 6e-4,0.9784 -0.8028,1.7812 -1.7813,1.7812 -0.9784,0 -1.75,-0.8028 -1.75,-1.7812 l -0.031,0 -0.013,-23.0436 c -5e-4,-0.9784 0.8029,-1.75 1.7812,-1.75 0.9785,0 1.7813,0.7716 1.7813,1.75 z"
       id="connector0pad"
       style="opacity:0.98000004;fill:#f7bd13;fill-opacity:0.98039216;fill-rule:nonzero;stroke:none" />
    <path
       d="m 93.071497,25.24595 c -5e-4,-1.9569 -1.6057,-3.5313 -3.5624,-3.5313 l -7.0817,0 c -1.9572,0 -3.532,1.5744 -3.5313,3.5313 l 0.01,30.1304 c 6e-4,1.9569 1.5862,3.5433 3.5433,3.5433 l 7.0866,0 c 1.9567,0 3.5434,-1.5864 3.5433,-3.5433 z m -5.3008,3.5435 0.013,23.0436 c 6e-4,0.9784 -0.8028,1.7812 -1.7813,1.7812 -0.9784,0 -1.75,-0.8028 -1.75,-1.7812 l -0.031,0 -0.013,-23.0436 c -5e-4,-0.9784 0.8029,-1.75 1.7812,-1.75 0.9785,0 1.7813,0.7716 1.7813,1.75 z"
       id="connector5pad"
       style="opacity:0.98000004;fill:#f7bd13;fill-opacity:0.98039216;fill-rule:nonzero;stroke:none" />
    <path
       d="m 42.570005,3.51409 c -1.956914,5e-4 -3.53125,1.6057 -3.53125,3.5624 l 0,7.0817 c 0,1.9572 1.574336,3.532 3.53125,3.5313 l 30.130413,-0.01 c 1.956913,-6e-4 3.543307,-1.5862 3.543307,-3.5433 l 0,-7.0866 c 0,-1.9567 -1.586393,-3.5434 -3.543307,-3.5433 z m 3.543553,5.3008 23.043553,-0.013 c 0.978457,-6e-4 1.78125,0.8028 1.78125,1.7813 0,0.9784 -0.802793,1.75 -1.78125,1.75 l 0,0.031 -23.043553,0.013 c -0.978457,5e-4 -1.75,-0.8029 -1.75,-1.7812 0,-0.9785 0.771543,-1.7813 1.75,-1.7813 z"
       id="connector1pad"
       style="opacity:0.98000004;fill:#f7bd13;fill-opacity:0.98039216;fill-rule:nonzero;stroke:none" />
  </g>
</svg>
