<?xml version="1.0" encoding="UTF-8" standalone="no"?>
<!-- Created with Inkscape (http://www.inkscape.org/) -->

<svg
   xmlns:dc="http://purl.org/dc/elements/1.1/"
   xmlns:cc="http://creativecommons.org/ns#"
   xmlns:rdf="http://www.w3.org/1999/02/22-rdf-syntax-ns#"
   xmlns:svg="http://www.w3.org/2000/svg"
   xmlns="http://www.w3.org/2000/svg"
   version="1.1"
   width="159.4375"
   height="124.03125"
   id="svg4003">
  <defs
     id="defs4005" />
  <metadata
     id="metadata4008">
    <rdf:RDF>
      <cc:Work
         rdf:about="">
        <dc:format>image/svg+xml</dc:format>
        <dc:type
           rdf:resource="http://purl.org/dc/dcmitype/StillImage" />
        <dc:title></dc:title>
      </cc:Work>
    </rdf:RDF>
  </metadata>
  <g
     transform="translate(-53.15625,-432.28125)"
     id="layer1">
    <path
       d="m 88.59375,432.28125 -35.4375,35.4375 0,88.59375 17.71875,0 0,-17.71875 35.4375,0 0,17.71875 17.71875,0 0,-53.15625 70.84375,0 17.71875,-17.71875 0,-35.4375 -17.71875,-17.71875 -106.28125,0 z M 177.15625,450 c 9.78457,0 17.71875,7.93418 17.71875,17.71875 0,9.78457 -7.93418,17.71875 -17.71875,17.71875 -9.78457,0 -17.71875,-7.93418 -17.71875,-17.71875 0,-9.78457 7.93418,-17.71875 17.71875,-17.71875 z"
       transform="translate(0,2.5390623e-6)"
       id="path4013"
       style="fill:#8a8a8a;fill-opacity:1;stroke:none" />
  </g>
</svg>
