<?xml version="1.0" encoding="UTF-8" standalone="no"?>
<!-- Created with Inkscape (http://www.inkscape.org/) -->

<svg
   xmlns:dc="http://purl.org/dc/elements/1.1/"
   xmlns:cc="http://creativecommons.org/ns#"
   xmlns:rdf="http://www.w3.org/1999/02/22-rdf-syntax-ns#"
   xmlns:svg="http://www.w3.org/2000/svg"
   xmlns="http://www.w3.org/2000/svg"
   version="1.1"
   width="60.72884"
   height="17.7813"
   id="svg2">
  <defs
     id="defs4" />
  <metadata
     id="metadata7">
    <rdf:RDF>
      <cc:Work
         rdf:about="">
        <dc:format>image/svg+xml</dc:format>
        <dc:type
           rdf:resource="http://purl.org/dc/dcmitype/StillImage" />
        <dc:title></dc:title>
      </cc:Work>
    </rdf:RDF>
  </metadata>
  <g
     transform="translate(-209.0625,-478.3324)"
     id="layer1">
    <g
       id="copper0">
      <path
         d="m 217.5625,3154.8125 c -4.71125,0 -8.5,3.82 -8.5,8.5313 l 0,0.75 c 0,4.7112 3.78875,8.5 8.5,8.5 l 18.40625,0 c 4.71125,0 8.53125,-3.7888 8.53125,-8.5 l 0,-0.75 c 0,-4.7113 -3.82,-8.5313 -8.53125,-8.5313 l -18.40625,0 z m 0.71875,4.9375 c 1.95691,0 3.53125,1.6091 3.53125,3.5938 0,1.9846 -1.57434,3.5937 -3.53125,3.5937 -1.95691,0 -3.5625,-1.6091 -3.5625,-3.5937 0,-1.9847 1.60559,-3.5938 3.5625,-3.5938 z m 17.6875,0 c 1.95691,0 3.5625,1.6091 3.5625,3.5938 0,1.9846 -1.60559,3.5937 -3.5625,3.5937 -1.95691,0 -3.53125,-1.6091 -3.53125,-3.5937 0,-1.9847 1.57434,-3.5938 3.53125,-3.5938 z"
         transform="translate(0,-2676.4801)"
         id="connector0pad"
         style="opacity:0.98000004;fill:#f7bd13;fill-opacity:1;fill-rule:nonzero;stroke:none" />
    </g>
    <g
       id="silkscreen">
      <path
         d="m 212.59843,485.4331 0,2.8346 56.69291,0 0,-2.8346 z"
         id="qw"
         style="fill:none;stroke:#ffffff;stroke-width:1px;stroke-linecap:butt;stroke-linejoin:miter;stroke-opacity:1" />
      <path
         d="m 265.74803,485.4331 0,2.8346"
         id="path2991"
         style="fill:none;stroke:#ffffff;stroke-width:1px;stroke-linecap:butt;stroke-linejoin:miter;stroke-opacity:1" />
      <path
         d="m 241.65354,485.4331 0,2.8346"
         id="path2993"
         style="fill:none;stroke:#ffffff;stroke-width:1px;stroke-linecap:butt;stroke-linejoin:miter;stroke-opacity:1" />
    </g>
  </g>
</svg>
