G04 MADE WITH FRITZING*
G04 WWW.FRITZING.ORG*
G04 DOUBLE SIDED*
G04 HOLES PLATED*
G04 CONTOUR ON CENTER OF CONTOUR VECTOR*
%ASAXBY*%
%FSLAX23Y23*%
%MOIN*%
%OFA0B0*%
%SFA1.0B1.0*%
%ADD10C,0.074000*%
%ADD11C,0.039370*%
%ADD12R,0.031496X0.035433*%
%ADD13R,0.047244X0.078740*%
%ADD14R,0.087000X0.024000*%
%ADD15R,0.062992X0.074803*%
%ADD16R,0.074803X0.062992*%
%ADD17R,0.062992X0.137795*%
%ADD18C,0.024000*%
%ADD19C,0.008000*%
%ADD20C,0.016000*%
%ADD21C,0.012000*%
%ADD22R,0.001000X0.001000*%
%LNCOPPER0*%
G90*
G70*
G54D10*
X128Y991D03*
X128Y891D03*
X128Y791D03*
X334Y194D03*
X234Y194D03*
X134Y194D03*
X507Y194D03*
X607Y194D03*
X707Y194D03*
X807Y194D03*
X907Y194D03*
X1702Y976D03*
X1702Y876D03*
X1702Y776D03*
X1702Y676D03*
X1702Y576D03*
X1702Y476D03*
X1702Y376D03*
X1702Y276D03*
X1702Y176D03*
G54D11*
X521Y430D03*
X78Y696D03*
G54D12*
X1561Y420D03*
X1486Y420D03*
X1523Y499D03*
G54D13*
X1575Y576D03*
X1575Y686D03*
G54D14*
X708Y428D03*
G54D15*
X817Y794D03*
X939Y794D03*
X994Y893D03*
X872Y893D03*
G54D16*
X1092Y824D03*
X1092Y946D03*
G54D15*
X1063Y696D03*
X941Y696D03*
X728Y666D03*
X606Y666D03*
G54D17*
X1476Y318D03*
X1476Y105D03*
G54D15*
X1299Y686D03*
X1177Y686D03*
G54D14*
X1368Y610D03*
G54D18*
X836Y518D02*
X787Y480D01*
D02*
X787Y480D02*
X746Y479D01*
D02*
X836Y597D02*
X836Y518D01*
D02*
X876Y637D02*
X836Y597D01*
D02*
X876Y794D02*
X876Y637D01*
D02*
X843Y794D02*
X876Y794D01*
D02*
X708Y293D02*
X707Y227D01*
D02*
X876Y428D02*
X807Y430D01*
D02*
X807Y430D02*
X708Y293D01*
D02*
X916Y584D02*
X934Y664D01*
G54D19*
D02*
X1023Y588D02*
X994Y608D01*
D02*
X994Y608D02*
X994Y861D01*
G54D18*
D02*
X1044Y883D02*
X1020Y888D01*
D02*
X1583Y922D02*
X1180Y922D01*
D02*
X1180Y922D02*
X1152Y883D01*
D02*
X1152Y883D02*
X1044Y883D01*
D02*
X1672Y888D02*
X1583Y922D01*
G54D20*
D02*
X1063Y766D02*
X1191Y766D01*
D02*
X1219Y794D02*
X1299Y794D01*
D02*
X1299Y794D02*
X1299Y883D01*
D02*
X1565Y774D02*
X1675Y776D01*
D02*
X1063Y728D02*
X1063Y766D01*
D02*
X1191Y766D02*
X1219Y794D01*
D02*
X1299Y883D02*
X1564Y883D01*
D02*
X1564Y883D02*
X1565Y774D01*
G54D18*
D02*
X325Y656D02*
X325Y962D01*
D02*
X621Y863D02*
X777Y864D01*
D02*
X137Y656D02*
X325Y656D01*
D02*
X532Y962D02*
X532Y863D01*
D02*
X325Y962D02*
X532Y962D01*
D02*
X532Y863D02*
X621Y863D01*
D02*
X135Y227D02*
X137Y656D01*
D02*
X934Y963D02*
X1053Y963D01*
D02*
X777Y864D02*
X777Y963D01*
D02*
X777Y963D02*
X934Y963D01*
D02*
X1053Y963D02*
X1060Y959D01*
D02*
X1654Y558D02*
X1672Y564D01*
D02*
X1575Y460D02*
X1654Y558D01*
D02*
X1447Y510D02*
X1456Y460D01*
D02*
X1406Y510D02*
X1447Y510D01*
D02*
X1456Y460D02*
X1575Y460D01*
D02*
X1613Y419D02*
X1675Y458D01*
D02*
X1571Y420D02*
X1613Y419D01*
D02*
X1476Y636D02*
X1476Y664D01*
D02*
X1368Y636D02*
X1476Y636D01*
D02*
X1368Y616D02*
X1368Y636D01*
D02*
X1508Y689D02*
X1556Y687D01*
D02*
X1593Y685D02*
X1669Y679D01*
D02*
X1800Y686D02*
X1800Y105D01*
D02*
X1800Y105D02*
X1502Y105D01*
D02*
X1735Y679D02*
X1800Y686D01*
D02*
X1163Y616D02*
X1171Y654D01*
D02*
X1508Y571D02*
X1556Y574D01*
D02*
X1494Y542D02*
X1515Y511D01*
D02*
X1444Y566D02*
X1406Y563D01*
D02*
X1162Y603D02*
X1162Y566D01*
D02*
X1162Y466D02*
X1162Y503D01*
G54D21*
D02*
X1013Y341D02*
X1083Y410D01*
D02*
X916Y341D02*
X1013Y341D01*
D02*
X1083Y528D02*
X1083Y637D01*
D02*
X1013Y637D02*
X1013Y824D01*
D02*
X1083Y410D02*
X1083Y528D01*
D02*
X908Y221D02*
X916Y341D01*
D02*
X1083Y637D02*
X1013Y637D01*
G54D18*
D02*
X1124Y824D02*
X1191Y824D01*
D02*
X1191Y824D02*
X1212Y843D01*
G54D21*
D02*
X1013Y824D02*
X1060Y824D01*
G54D18*
D02*
X846Y380D02*
X963Y380D01*
D02*
X807Y302D02*
X846Y380D01*
D02*
X963Y380D02*
X1005Y440D01*
D02*
X807Y227D02*
X807Y302D01*
D02*
X985Y480D02*
X992Y477D01*
D02*
X952Y479D02*
X985Y480D01*
D02*
X952Y528D02*
X1083Y528D01*
D02*
X728Y666D02*
X747Y687D01*
D02*
X747Y804D02*
X740Y803D01*
D02*
X747Y687D02*
X747Y804D01*
D02*
X787Y548D02*
X787Y657D01*
D02*
X787Y657D02*
X754Y662D01*
D02*
X757Y528D02*
X787Y548D01*
D02*
X746Y528D02*
X757Y528D01*
D02*
X501Y292D02*
X600Y440D01*
D02*
X600Y440D02*
X605Y635D01*
D02*
X331Y227D02*
X325Y292D01*
D02*
X325Y292D02*
X501Y292D01*
D02*
X818Y892D02*
X846Y892D01*
D02*
X817Y826D02*
X818Y892D01*
D02*
X934Y834D02*
X935Y826D01*
D02*
X934Y963D02*
X934Y834D01*
D02*
X1187Y358D02*
X1427Y360D01*
D02*
X1427Y360D02*
X1450Y341D01*
D02*
X1162Y421D02*
X1162Y453D01*
D02*
X1347Y252D02*
X1450Y135D01*
D02*
X985Y252D02*
X1347Y252D01*
D02*
X987Y79D02*
X985Y252D01*
D02*
X610Y282D02*
X608Y227D01*
D02*
X708Y380D02*
X610Y282D01*
D02*
X708Y421D02*
X708Y380D01*
D02*
X536Y261D02*
X520Y224D01*
D02*
X640Y391D02*
X536Y261D01*
D02*
X670Y577D02*
X640Y577D01*
D02*
X640Y577D02*
X640Y391D01*
D02*
X233Y352D02*
X265Y389D01*
D02*
X234Y227D02*
X233Y352D01*
D02*
X521Y449D02*
X523Y748D01*
D02*
X523Y748D02*
X467Y753D01*
D02*
X246Y696D02*
X246Y707D01*
D02*
X97Y696D02*
X246Y696D01*
D02*
X246Y803D02*
X247Y1002D01*
D02*
X600Y1001D02*
X600Y952D01*
D02*
X247Y1002D02*
X600Y1001D01*
D02*
X522Y804D02*
X568Y804D01*
D02*
X373Y558D02*
X373Y853D01*
D02*
X373Y853D02*
X482Y853D01*
D02*
X387Y595D02*
X373Y558D01*
D02*
X482Y853D02*
X522Y804D01*
D02*
X703Y74D02*
X706Y161D01*
D02*
X987Y79D02*
X703Y74D01*
D02*
X703Y74D02*
X231Y79D01*
D02*
X231Y79D02*
X233Y161D01*
D02*
X1044Y37D02*
X1135Y121D01*
D02*
X78Y677D02*
X68Y37D01*
D02*
X68Y37D02*
X1044Y37D01*
D02*
X1299Y460D02*
X1330Y460D01*
D02*
X1299Y654D02*
X1299Y460D01*
D02*
X1416Y410D02*
X1456Y460D01*
D02*
X1241Y410D02*
X1416Y410D01*
D02*
X1239Y755D02*
X1241Y410D01*
D02*
X1359Y755D02*
X1239Y755D01*
D02*
X1358Y772D02*
X1359Y755D01*
D02*
X1325Y687D02*
X1413Y689D01*
D02*
X1417Y804D02*
X1454Y804D01*
D02*
X1413Y689D02*
X1417Y804D01*
D02*
X1605Y991D02*
X1670Y981D01*
D02*
X1272Y991D02*
X1605Y991D01*
D02*
X708Y1011D02*
X708Y948D01*
D02*
X1208Y1000D02*
X1171Y1011D01*
D02*
X1171Y1011D02*
X708Y1011D01*
G36*
X752Y466D02*
X665Y466D01*
X665Y490D01*
X752Y490D01*
X752Y466D01*
G37*
D02*
G36*
X958Y416D02*
X871Y416D01*
X871Y440D01*
X958Y440D01*
X958Y416D01*
G37*
D02*
G36*
X958Y516D02*
X871Y516D01*
X871Y540D01*
X958Y540D01*
X958Y516D01*
G37*
D02*
G36*
X752Y516D02*
X665Y516D01*
X665Y540D01*
X752Y540D01*
X752Y516D01*
G37*
D02*
G36*
X958Y466D02*
X871Y466D01*
X871Y490D01*
X958Y490D01*
X958Y466D01*
G37*
D02*
G36*
X752Y566D02*
X665Y566D01*
X665Y590D01*
X752Y590D01*
X752Y566D01*
G37*
D02*
G36*
X958Y566D02*
X871Y566D01*
X871Y590D01*
X958Y590D01*
X958Y566D01*
G37*
D02*
G36*
X986Y619D02*
X1061Y619D01*
X1061Y556D01*
X986Y556D01*
X986Y619D01*
G37*
D02*
G36*
X986Y497D02*
X1061Y497D01*
X1061Y434D01*
X986Y434D01*
X986Y497D01*
G37*
D02*
G36*
X1202Y1023D02*
X1277Y1023D01*
X1277Y960D01*
X1202Y960D01*
X1202Y1023D01*
G37*
D02*
G36*
X1202Y901D02*
X1277Y901D01*
X1277Y838D01*
X1202Y838D01*
X1202Y901D01*
G37*
D02*
G36*
X671Y954D02*
X746Y954D01*
X746Y891D01*
X671Y891D01*
X671Y954D01*
G37*
D02*
G36*
X671Y832D02*
X746Y832D01*
X746Y769D01*
X671Y769D01*
X671Y832D01*
G37*
D02*
G36*
X638Y773D02*
X563Y773D01*
X563Y836D01*
X638Y836D01*
X638Y773D01*
G37*
D02*
G36*
X638Y895D02*
X563Y895D01*
X563Y958D01*
X638Y958D01*
X638Y895D01*
G37*
D02*
G36*
X206Y344D02*
X206Y619D01*
X482Y619D01*
X482Y344D01*
X206Y344D01*
G37*
D02*
G36*
X413Y702D02*
X413Y808D01*
X472Y808D01*
X472Y702D01*
X413Y702D01*
G37*
D02*
G36*
X216Y702D02*
X216Y808D01*
X275Y808D01*
X275Y702D01*
X216Y702D01*
G37*
D02*
G36*
X1193Y76D02*
X1130Y76D01*
X1130Y214D01*
X1193Y214D01*
X1193Y76D01*
G37*
D02*
G36*
X1193Y288D02*
X1130Y288D01*
X1130Y426D01*
X1193Y426D01*
X1193Y288D01*
G37*
D02*
G36*
X1327Y767D02*
X1327Y842D01*
X1390Y842D01*
X1390Y767D01*
X1327Y767D01*
G37*
D02*
G36*
X1449Y767D02*
X1449Y842D01*
X1512Y842D01*
X1512Y767D01*
X1449Y767D01*
G37*
D02*
G36*
X1324Y572D02*
X1411Y572D01*
X1411Y548D01*
X1324Y548D01*
X1324Y572D01*
G37*
D02*
G36*
X1118Y622D02*
X1205Y622D01*
X1205Y598D01*
X1118Y598D01*
X1118Y622D01*
G37*
D02*
G36*
X1118Y522D02*
X1205Y522D01*
X1205Y498D01*
X1118Y498D01*
X1118Y522D01*
G37*
D02*
G36*
X1324Y522D02*
X1411Y522D01*
X1411Y498D01*
X1324Y498D01*
X1324Y522D01*
G37*
D02*
G36*
X1118Y572D02*
X1205Y572D01*
X1205Y548D01*
X1118Y548D01*
X1118Y572D01*
G37*
D02*
G36*
X1324Y472D02*
X1411Y472D01*
X1411Y448D01*
X1324Y448D01*
X1324Y472D01*
G37*
D02*
G36*
X1118Y472D02*
X1205Y472D01*
X1205Y448D01*
X1118Y448D01*
X1118Y472D01*
G37*
D02*
G36*
X1514Y536D02*
X1439Y536D01*
X1439Y599D01*
X1514Y599D01*
X1514Y536D01*
G37*
D02*
G36*
X1514Y659D02*
X1439Y659D01*
X1439Y722D01*
X1514Y722D01*
X1514Y659D01*
G37*
D02*
G54D22*
X90Y1029D02*
X164Y1029D01*
X82Y1028D02*
X172Y1028D01*
X79Y1027D02*
X176Y1027D01*
X76Y1026D02*
X178Y1026D01*
X74Y1025D02*
X180Y1025D01*
X72Y1024D02*
X182Y1024D01*
X70Y1023D02*
X184Y1023D01*
X69Y1022D02*
X185Y1022D01*
X68Y1021D02*
X187Y1021D01*
X66Y1020D02*
X188Y1020D01*
X65Y1019D02*
X189Y1019D01*
X64Y1018D02*
X190Y1018D01*
X63Y1017D02*
X191Y1017D01*
X62Y1016D02*
X192Y1016D01*
X62Y1015D02*
X193Y1015D01*
X61Y1014D02*
X126Y1014D01*
X128Y1014D02*
X193Y1014D01*
X1663Y1014D02*
X1740Y1014D01*
X60Y1013D02*
X120Y1013D01*
X134Y1013D02*
X194Y1013D01*
X1656Y1013D02*
X1747Y1013D01*
X60Y1012D02*
X117Y1012D01*
X137Y1012D02*
X195Y1012D01*
X1653Y1012D02*
X1750Y1012D01*
X59Y1011D02*
X116Y1011D01*
X139Y1011D02*
X195Y1011D01*
X1650Y1011D02*
X1752Y1011D01*
X58Y1010D02*
X114Y1010D01*
X140Y1010D02*
X196Y1010D01*
X1648Y1010D02*
X1755Y1010D01*
X58Y1009D02*
X113Y1009D01*
X142Y1009D02*
X196Y1009D01*
X1646Y1009D02*
X1756Y1009D01*
X57Y1008D02*
X112Y1008D01*
X143Y1008D02*
X197Y1008D01*
X1644Y1008D02*
X1758Y1008D01*
X57Y1007D02*
X111Y1007D01*
X144Y1007D02*
X197Y1007D01*
X1643Y1007D02*
X1759Y1007D01*
X56Y1006D02*
X110Y1006D01*
X145Y1006D02*
X198Y1006D01*
X1642Y1006D02*
X1761Y1006D01*
X56Y1005D02*
X109Y1005D01*
X145Y1005D02*
X198Y1005D01*
X1641Y1005D02*
X1762Y1005D01*
X56Y1004D02*
X108Y1004D01*
X146Y1004D02*
X199Y1004D01*
X1639Y1004D02*
X1763Y1004D01*
X55Y1003D02*
X108Y1003D01*
X147Y1003D02*
X199Y1003D01*
X1638Y1003D02*
X1764Y1003D01*
X55Y1002D02*
X107Y1002D01*
X147Y1002D02*
X199Y1002D01*
X1637Y1002D02*
X1765Y1002D01*
X55Y1001D02*
X107Y1001D01*
X148Y1001D02*
X199Y1001D01*
X1637Y1001D02*
X1766Y1001D01*
X55Y1000D02*
X106Y1000D01*
X148Y1000D02*
X200Y1000D01*
X1636Y1000D02*
X1767Y1000D01*
X54Y999D02*
X106Y999D01*
X148Y999D02*
X200Y999D01*
X1635Y999D02*
X1699Y999D01*
X1704Y999D02*
X1768Y999D01*
X54Y998D02*
X105Y998D01*
X149Y998D02*
X200Y998D01*
X1634Y998D02*
X1694Y998D01*
X1709Y998D02*
X1768Y998D01*
X54Y997D02*
X105Y997D01*
X149Y997D02*
X200Y997D01*
X1634Y997D02*
X1691Y997D01*
X1711Y997D02*
X1769Y997D01*
X54Y996D02*
X105Y996D01*
X149Y996D02*
X200Y996D01*
X1633Y996D02*
X1690Y996D01*
X1713Y996D02*
X1770Y996D01*
X54Y995D02*
X105Y995D01*
X149Y995D02*
X200Y995D01*
X1632Y995D02*
X1688Y995D01*
X1715Y995D02*
X1770Y995D01*
X54Y994D02*
X105Y994D01*
X150Y994D02*
X200Y994D01*
X1632Y994D02*
X1687Y994D01*
X1716Y994D02*
X1771Y994D01*
X54Y993D02*
X105Y993D01*
X150Y993D02*
X201Y993D01*
X1631Y993D02*
X1686Y993D01*
X1717Y993D02*
X1771Y993D01*
X54Y992D02*
X105Y992D01*
X150Y992D02*
X201Y992D01*
X1631Y992D02*
X1685Y992D01*
X1718Y992D02*
X1772Y992D01*
X54Y991D02*
X105Y991D01*
X150Y991D02*
X201Y991D01*
X1631Y991D02*
X1684Y991D01*
X1719Y991D02*
X1772Y991D01*
X54Y990D02*
X105Y990D01*
X149Y990D02*
X200Y990D01*
X1630Y990D02*
X1683Y990D01*
X1720Y990D02*
X1772Y990D01*
X54Y989D02*
X105Y989D01*
X149Y989D02*
X200Y989D01*
X1630Y989D02*
X1682Y989D01*
X1720Y989D02*
X1773Y989D01*
X54Y988D02*
X105Y988D01*
X149Y988D02*
X200Y988D01*
X1629Y988D02*
X1682Y988D01*
X1721Y988D02*
X1773Y988D01*
X54Y987D02*
X105Y987D01*
X149Y987D02*
X200Y987D01*
X1629Y987D02*
X1681Y987D01*
X1721Y987D02*
X1773Y987D01*
X54Y986D02*
X105Y986D01*
X149Y986D02*
X200Y986D01*
X1629Y986D02*
X1681Y986D01*
X1722Y986D02*
X1774Y986D01*
X54Y985D02*
X106Y985D01*
X148Y985D02*
X200Y985D01*
X1629Y985D02*
X1680Y985D01*
X1722Y985D02*
X1774Y985D01*
X55Y984D02*
X106Y984D01*
X148Y984D02*
X200Y984D01*
X1628Y984D02*
X1680Y984D01*
X1723Y984D02*
X1774Y984D01*
X55Y983D02*
X107Y983D01*
X148Y983D02*
X199Y983D01*
X1628Y983D02*
X1680Y983D01*
X1723Y983D02*
X1774Y983D01*
X55Y982D02*
X107Y982D01*
X147Y982D02*
X199Y982D01*
X1628Y982D02*
X1679Y982D01*
X1723Y982D02*
X1774Y982D01*
X55Y981D02*
X108Y981D01*
X147Y981D02*
X199Y981D01*
X1628Y981D02*
X1679Y981D01*
X1723Y981D02*
X1775Y981D01*
X56Y980D02*
X108Y980D01*
X146Y980D02*
X199Y980D01*
X1628Y980D02*
X1679Y980D01*
X1724Y980D02*
X1775Y980D01*
X56Y979D02*
X109Y979D01*
X145Y979D02*
X198Y979D01*
X1628Y979D02*
X1679Y979D01*
X1724Y979D02*
X1775Y979D01*
X56Y978D02*
X110Y978D01*
X145Y978D02*
X198Y978D01*
X1628Y978D02*
X1679Y978D01*
X1724Y978D02*
X1775Y978D01*
X57Y977D02*
X111Y977D01*
X144Y977D02*
X197Y977D01*
X1628Y977D02*
X1679Y977D01*
X1724Y977D02*
X1775Y977D01*
X57Y976D02*
X112Y976D01*
X143Y976D02*
X197Y976D01*
X1628Y976D02*
X1679Y976D01*
X1724Y976D02*
X1775Y976D01*
X58Y975D02*
X113Y975D01*
X141Y975D02*
X196Y975D01*
X1628Y975D02*
X1679Y975D01*
X1724Y975D02*
X1775Y975D01*
X58Y974D02*
X114Y974D01*
X140Y974D02*
X196Y974D01*
X1628Y974D02*
X1679Y974D01*
X1724Y974D02*
X1775Y974D01*
X59Y973D02*
X116Y973D01*
X139Y973D02*
X195Y973D01*
X1628Y973D02*
X1679Y973D01*
X1723Y973D02*
X1774Y973D01*
X60Y972D02*
X118Y972D01*
X137Y972D02*
X195Y972D01*
X1628Y972D02*
X1679Y972D01*
X1723Y972D02*
X1774Y972D01*
X60Y971D02*
X120Y971D01*
X134Y971D02*
X194Y971D01*
X1628Y971D02*
X1680Y971D01*
X1723Y971D02*
X1774Y971D01*
X61Y970D02*
X193Y970D01*
X1628Y970D02*
X1680Y970D01*
X1723Y970D02*
X1774Y970D01*
X62Y969D02*
X192Y969D01*
X1629Y969D02*
X1680Y969D01*
X1722Y969D02*
X1774Y969D01*
X63Y968D02*
X192Y968D01*
X1629Y968D02*
X1681Y968D01*
X1722Y968D02*
X1774Y968D01*
X63Y967D02*
X191Y967D01*
X1629Y967D02*
X1681Y967D01*
X1721Y967D02*
X1773Y967D01*
X64Y966D02*
X190Y966D01*
X1629Y966D02*
X1682Y966D01*
X1721Y966D02*
X1773Y966D01*
X65Y965D02*
X189Y965D01*
X1630Y965D02*
X1682Y965D01*
X1720Y965D02*
X1773Y965D01*
X67Y964D02*
X188Y964D01*
X1630Y964D02*
X1683Y964D01*
X1719Y964D02*
X1772Y964D01*
X68Y963D02*
X186Y963D01*
X1631Y963D02*
X1684Y963D01*
X1719Y963D02*
X1772Y963D01*
X69Y962D02*
X185Y962D01*
X1631Y962D02*
X1685Y962D01*
X1718Y962D02*
X1771Y962D01*
X71Y961D02*
X184Y961D01*
X1631Y961D02*
X1686Y961D01*
X1717Y961D02*
X1771Y961D01*
X72Y960D02*
X182Y960D01*
X1632Y960D02*
X1687Y960D01*
X1716Y960D02*
X1771Y960D01*
X74Y959D02*
X180Y959D01*
X1633Y959D02*
X1688Y959D01*
X1714Y959D02*
X1770Y959D01*
X76Y958D02*
X178Y958D01*
X1633Y958D02*
X1690Y958D01*
X1713Y958D02*
X1769Y958D01*
X79Y957D02*
X175Y957D01*
X1634Y957D02*
X1692Y957D01*
X1711Y957D02*
X1769Y957D01*
X82Y956D02*
X172Y956D01*
X1634Y956D02*
X1695Y956D01*
X1708Y956D02*
X1768Y956D01*
X1635Y955D02*
X1767Y955D01*
X1636Y954D02*
X1767Y954D01*
X1637Y953D02*
X1766Y953D01*
X1638Y952D02*
X1765Y952D01*
X1639Y951D02*
X1764Y951D01*
X1640Y950D02*
X1763Y950D01*
X1641Y949D02*
X1762Y949D01*
X1642Y948D02*
X1761Y948D01*
X1643Y947D02*
X1759Y947D01*
X1645Y946D02*
X1758Y946D01*
X1646Y945D02*
X1756Y945D01*
X1648Y944D02*
X1754Y944D01*
X1650Y943D02*
X1752Y943D01*
X1653Y942D02*
X1749Y942D01*
X1657Y941D02*
X1746Y941D01*
X89Y929D02*
X165Y929D01*
X82Y928D02*
X172Y928D01*
X78Y927D02*
X176Y927D01*
X76Y926D02*
X178Y926D01*
X74Y925D02*
X180Y925D01*
X72Y924D02*
X182Y924D01*
X70Y923D02*
X184Y923D01*
X69Y922D02*
X185Y922D01*
X68Y921D02*
X187Y921D01*
X66Y920D02*
X188Y920D01*
X65Y919D02*
X189Y919D01*
X64Y918D02*
X190Y918D01*
X63Y917D02*
X191Y917D01*
X62Y916D02*
X192Y916D01*
X62Y915D02*
X193Y915D01*
X61Y914D02*
X125Y914D01*
X130Y914D02*
X193Y914D01*
X1662Y914D02*
X1741Y914D01*
X60Y913D02*
X120Y913D01*
X134Y913D02*
X194Y913D01*
X1656Y913D02*
X1747Y913D01*
X59Y912D02*
X117Y912D01*
X137Y912D02*
X195Y912D01*
X1652Y912D02*
X1750Y912D01*
X59Y911D02*
X115Y911D01*
X139Y911D02*
X195Y911D01*
X1650Y911D02*
X1753Y911D01*
X58Y910D02*
X114Y910D01*
X140Y910D02*
X196Y910D01*
X1648Y910D02*
X1755Y910D01*
X58Y909D02*
X113Y909D01*
X142Y909D02*
X196Y909D01*
X1646Y909D02*
X1757Y909D01*
X57Y908D02*
X111Y908D01*
X143Y908D02*
X197Y908D01*
X1644Y908D02*
X1758Y908D01*
X57Y907D02*
X110Y907D01*
X144Y907D02*
X197Y907D01*
X1643Y907D02*
X1760Y907D01*
X56Y906D02*
X110Y906D01*
X145Y906D02*
X198Y906D01*
X1642Y906D02*
X1761Y906D01*
X56Y905D02*
X109Y905D01*
X145Y905D02*
X198Y905D01*
X1640Y905D02*
X1762Y905D01*
X56Y904D02*
X108Y904D01*
X146Y904D02*
X199Y904D01*
X1639Y904D02*
X1763Y904D01*
X55Y903D02*
X108Y903D01*
X147Y903D02*
X199Y903D01*
X1638Y903D02*
X1764Y903D01*
X55Y902D02*
X107Y902D01*
X147Y902D02*
X199Y902D01*
X1637Y902D02*
X1765Y902D01*
X55Y901D02*
X107Y901D01*
X148Y901D02*
X199Y901D01*
X1637Y901D02*
X1766Y901D01*
X55Y900D02*
X106Y900D01*
X148Y900D02*
X200Y900D01*
X1636Y900D02*
X1767Y900D01*
X54Y899D02*
X106Y899D01*
X148Y899D02*
X200Y899D01*
X1635Y899D02*
X1698Y899D01*
X1704Y899D02*
X1768Y899D01*
X54Y898D02*
X105Y898D01*
X149Y898D02*
X200Y898D01*
X1634Y898D02*
X1694Y898D01*
X1709Y898D02*
X1768Y898D01*
X54Y897D02*
X105Y897D01*
X149Y897D02*
X200Y897D01*
X1634Y897D02*
X1691Y897D01*
X1711Y897D02*
X1769Y897D01*
X54Y896D02*
X105Y896D01*
X149Y896D02*
X200Y896D01*
X1633Y896D02*
X1689Y896D01*
X1713Y896D02*
X1770Y896D01*
X54Y895D02*
X105Y895D01*
X149Y895D02*
X200Y895D01*
X1632Y895D02*
X1688Y895D01*
X1715Y895D02*
X1770Y895D01*
X54Y894D02*
X105Y894D01*
X150Y894D02*
X200Y894D01*
X1632Y894D02*
X1687Y894D01*
X1716Y894D02*
X1771Y894D01*
X54Y893D02*
X105Y893D01*
X150Y893D02*
X201Y893D01*
X1631Y893D02*
X1686Y893D01*
X1717Y893D02*
X1771Y893D01*
X54Y892D02*
X105Y892D01*
X150Y892D02*
X201Y892D01*
X1631Y892D02*
X1685Y892D01*
X1718Y892D02*
X1772Y892D01*
X54Y891D02*
X105Y891D01*
X150Y891D02*
X201Y891D01*
X1630Y891D02*
X1684Y891D01*
X1719Y891D02*
X1772Y891D01*
X54Y890D02*
X105Y890D01*
X149Y890D02*
X200Y890D01*
X1630Y890D02*
X1683Y890D01*
X1720Y890D02*
X1772Y890D01*
X54Y889D02*
X105Y889D01*
X149Y889D02*
X200Y889D01*
X1630Y889D02*
X1682Y889D01*
X1720Y889D02*
X1773Y889D01*
X54Y888D02*
X105Y888D01*
X149Y888D02*
X200Y888D01*
X1629Y888D02*
X1682Y888D01*
X1721Y888D02*
X1773Y888D01*
X54Y887D02*
X105Y887D01*
X149Y887D02*
X200Y887D01*
X1629Y887D02*
X1681Y887D01*
X1721Y887D02*
X1773Y887D01*
X54Y886D02*
X106Y886D01*
X149Y886D02*
X200Y886D01*
X1629Y886D02*
X1681Y886D01*
X1722Y886D02*
X1774Y886D01*
X54Y885D02*
X106Y885D01*
X148Y885D02*
X200Y885D01*
X1629Y885D02*
X1680Y885D01*
X1722Y885D02*
X1774Y885D01*
X55Y884D02*
X106Y884D01*
X148Y884D02*
X200Y884D01*
X1628Y884D02*
X1680Y884D01*
X1723Y884D02*
X1774Y884D01*
X55Y883D02*
X107Y883D01*
X148Y883D02*
X199Y883D01*
X1628Y883D02*
X1680Y883D01*
X1723Y883D02*
X1774Y883D01*
X55Y882D02*
X107Y882D01*
X147Y882D02*
X199Y882D01*
X1628Y882D02*
X1679Y882D01*
X1723Y882D02*
X1774Y882D01*
X55Y881D02*
X108Y881D01*
X147Y881D02*
X199Y881D01*
X1628Y881D02*
X1679Y881D01*
X1723Y881D02*
X1775Y881D01*
X56Y880D02*
X108Y880D01*
X146Y880D02*
X199Y880D01*
X1628Y880D02*
X1679Y880D01*
X1724Y880D02*
X1775Y880D01*
X56Y879D02*
X109Y879D01*
X145Y879D02*
X198Y879D01*
X1628Y879D02*
X1679Y879D01*
X1724Y879D02*
X1775Y879D01*
X56Y878D02*
X110Y878D01*
X144Y878D02*
X198Y878D01*
X1628Y878D02*
X1679Y878D01*
X1724Y878D02*
X1775Y878D01*
X57Y877D02*
X111Y877D01*
X144Y877D02*
X197Y877D01*
X1628Y877D02*
X1679Y877D01*
X1724Y877D02*
X1775Y877D01*
X57Y876D02*
X112Y876D01*
X143Y876D02*
X197Y876D01*
X1628Y876D02*
X1679Y876D01*
X1724Y876D02*
X1775Y876D01*
X58Y875D02*
X113Y875D01*
X141Y875D02*
X196Y875D01*
X1628Y875D02*
X1679Y875D01*
X1724Y875D02*
X1775Y875D01*
X58Y874D02*
X114Y874D01*
X140Y874D02*
X196Y874D01*
X1628Y874D02*
X1679Y874D01*
X1724Y874D02*
X1775Y874D01*
X59Y873D02*
X116Y873D01*
X138Y873D02*
X195Y873D01*
X1628Y873D02*
X1679Y873D01*
X1723Y873D02*
X1774Y873D01*
X60Y872D02*
X118Y872D01*
X136Y872D02*
X195Y872D01*
X1628Y872D02*
X1679Y872D01*
X1723Y872D02*
X1774Y872D01*
X60Y871D02*
X121Y871D01*
X134Y871D02*
X194Y871D01*
X1628Y871D02*
X1680Y871D01*
X1723Y871D02*
X1774Y871D01*
X61Y870D02*
X193Y870D01*
X1628Y870D02*
X1680Y870D01*
X1723Y870D02*
X1774Y870D01*
X62Y869D02*
X192Y869D01*
X1629Y869D02*
X1680Y869D01*
X1722Y869D02*
X1774Y869D01*
X63Y868D02*
X192Y868D01*
X1629Y868D02*
X1681Y868D01*
X1722Y868D02*
X1774Y868D01*
X64Y867D02*
X191Y867D01*
X1629Y867D02*
X1681Y867D01*
X1721Y867D02*
X1773Y867D01*
X64Y866D02*
X190Y866D01*
X1630Y866D02*
X1682Y866D01*
X1721Y866D02*
X1773Y866D01*
X66Y865D02*
X189Y865D01*
X1630Y865D02*
X1682Y865D01*
X1720Y865D02*
X1773Y865D01*
X67Y864D02*
X188Y864D01*
X1630Y864D02*
X1683Y864D01*
X1719Y864D02*
X1772Y864D01*
X68Y863D02*
X186Y863D01*
X1631Y863D02*
X1684Y863D01*
X1719Y863D02*
X1772Y863D01*
X69Y862D02*
X185Y862D01*
X1631Y862D02*
X1685Y862D01*
X1718Y862D02*
X1771Y862D01*
X71Y861D02*
X184Y861D01*
X1632Y861D02*
X1686Y861D01*
X1717Y861D02*
X1771Y861D01*
X72Y860D02*
X182Y860D01*
X1632Y860D02*
X1687Y860D01*
X1715Y860D02*
X1770Y860D01*
X74Y859D02*
X180Y859D01*
X1633Y859D02*
X1688Y859D01*
X1714Y859D02*
X1770Y859D01*
X76Y858D02*
X178Y858D01*
X1633Y858D02*
X1690Y858D01*
X1713Y858D02*
X1769Y858D01*
X79Y857D02*
X175Y857D01*
X1634Y857D02*
X1692Y857D01*
X1711Y857D02*
X1769Y857D01*
X83Y856D02*
X172Y856D01*
X1634Y856D02*
X1695Y856D01*
X1708Y856D02*
X1768Y856D01*
X1635Y855D02*
X1767Y855D01*
X1636Y854D02*
X1767Y854D01*
X1637Y853D02*
X1766Y853D01*
X1638Y852D02*
X1765Y852D01*
X1639Y851D02*
X1764Y851D01*
X1640Y850D02*
X1763Y850D01*
X1641Y849D02*
X1762Y849D01*
X1642Y848D02*
X1760Y848D01*
X1643Y847D02*
X1759Y847D01*
X1645Y846D02*
X1758Y846D01*
X1647Y845D02*
X1756Y845D01*
X1648Y844D02*
X1754Y844D01*
X1651Y843D02*
X1752Y843D01*
X1653Y842D02*
X1749Y842D01*
X1657Y841D02*
X1745Y841D01*
X87Y829D02*
X167Y829D01*
X81Y828D02*
X173Y828D01*
X78Y827D02*
X176Y827D01*
X76Y826D02*
X179Y826D01*
X74Y825D02*
X181Y825D01*
X72Y824D02*
X182Y824D01*
X70Y823D02*
X184Y823D01*
X69Y822D02*
X185Y822D01*
X67Y821D02*
X187Y821D01*
X66Y820D02*
X188Y820D01*
X65Y819D02*
X189Y819D01*
X64Y818D02*
X190Y818D01*
X63Y817D02*
X191Y817D01*
X62Y816D02*
X192Y816D01*
X62Y815D02*
X193Y815D01*
X61Y814D02*
X124Y814D01*
X130Y814D02*
X193Y814D01*
X1661Y814D02*
X1742Y814D01*
X60Y813D02*
X120Y813D01*
X135Y813D02*
X194Y813D01*
X1655Y813D02*
X1747Y813D01*
X59Y812D02*
X117Y812D01*
X137Y812D02*
X195Y812D01*
X1652Y812D02*
X1750Y812D01*
X59Y811D02*
X115Y811D01*
X139Y811D02*
X195Y811D01*
X1650Y811D02*
X1753Y811D01*
X58Y810D02*
X114Y810D01*
X140Y810D02*
X196Y810D01*
X1648Y810D02*
X1755Y810D01*
X58Y809D02*
X112Y809D01*
X142Y809D02*
X197Y809D01*
X1646Y809D02*
X1757Y809D01*
X57Y808D02*
X111Y808D01*
X143Y808D02*
X197Y808D01*
X1644Y808D02*
X1758Y808D01*
X57Y807D02*
X110Y807D01*
X144Y807D02*
X197Y807D01*
X1643Y807D02*
X1760Y807D01*
X56Y806D02*
X110Y806D01*
X145Y806D02*
X198Y806D01*
X1642Y806D02*
X1761Y806D01*
X56Y805D02*
X109Y805D01*
X145Y805D02*
X198Y805D01*
X1640Y805D02*
X1762Y805D01*
X56Y804D02*
X108Y804D01*
X146Y804D02*
X199Y804D01*
X1639Y804D02*
X1763Y804D01*
X55Y803D02*
X107Y803D01*
X147Y803D02*
X199Y803D01*
X1638Y803D02*
X1764Y803D01*
X55Y802D02*
X107Y802D01*
X147Y802D02*
X199Y802D01*
X1637Y802D02*
X1765Y802D01*
X55Y801D02*
X106Y801D01*
X148Y801D02*
X200Y801D01*
X1636Y801D02*
X1766Y801D01*
X54Y800D02*
X106Y800D01*
X148Y800D02*
X200Y800D01*
X1636Y800D02*
X1767Y800D01*
X54Y799D02*
X106Y799D01*
X149Y799D02*
X200Y799D01*
X1635Y799D02*
X1698Y799D01*
X1705Y799D02*
X1768Y799D01*
X54Y798D02*
X105Y798D01*
X149Y798D02*
X200Y798D01*
X1634Y798D02*
X1694Y798D01*
X1709Y798D02*
X1768Y798D01*
X54Y797D02*
X105Y797D01*
X149Y797D02*
X200Y797D01*
X1634Y797D02*
X1691Y797D01*
X1711Y797D02*
X1769Y797D01*
X54Y796D02*
X105Y796D01*
X149Y796D02*
X200Y796D01*
X1633Y796D02*
X1689Y796D01*
X1713Y796D02*
X1770Y796D01*
X54Y795D02*
X105Y795D01*
X149Y795D02*
X200Y795D01*
X1632Y795D02*
X1688Y795D01*
X1715Y795D02*
X1770Y795D01*
X54Y794D02*
X105Y794D01*
X150Y794D02*
X201Y794D01*
X1632Y794D02*
X1687Y794D01*
X1716Y794D02*
X1771Y794D01*
X54Y793D02*
X105Y793D01*
X150Y793D02*
X201Y793D01*
X1631Y793D02*
X1685Y793D01*
X1717Y793D02*
X1771Y793D01*
X54Y792D02*
X105Y792D01*
X150Y792D02*
X201Y792D01*
X1631Y792D02*
X1684Y792D01*
X1718Y792D02*
X1772Y792D01*
X54Y791D02*
X105Y791D01*
X150Y791D02*
X201Y791D01*
X1630Y791D02*
X1684Y791D01*
X1719Y791D02*
X1772Y791D01*
X54Y790D02*
X105Y790D01*
X149Y790D02*
X201Y790D01*
X1630Y790D02*
X1683Y790D01*
X1720Y790D02*
X1772Y790D01*
X54Y789D02*
X105Y789D01*
X149Y789D02*
X200Y789D01*
X1630Y789D02*
X1682Y789D01*
X1720Y789D02*
X1773Y789D01*
X54Y788D02*
X105Y788D01*
X149Y788D02*
X200Y788D01*
X1629Y788D02*
X1682Y788D01*
X1721Y788D02*
X1773Y788D01*
X54Y787D02*
X105Y787D01*
X149Y787D02*
X200Y787D01*
X1629Y787D02*
X1681Y787D01*
X1721Y787D02*
X1773Y787D01*
X54Y786D02*
X106Y786D01*
X149Y786D02*
X200Y786D01*
X1629Y786D02*
X1681Y786D01*
X1722Y786D02*
X1774Y786D01*
X54Y785D02*
X106Y785D01*
X148Y785D02*
X200Y785D01*
X1629Y785D02*
X1680Y785D01*
X1722Y785D02*
X1774Y785D01*
X55Y784D02*
X106Y784D01*
X148Y784D02*
X200Y784D01*
X1628Y784D02*
X1680Y784D01*
X1723Y784D02*
X1774Y784D01*
X55Y783D02*
X107Y783D01*
X148Y783D02*
X199Y783D01*
X1628Y783D02*
X1680Y783D01*
X1723Y783D02*
X1774Y783D01*
X55Y782D02*
X107Y782D01*
X147Y782D02*
X199Y782D01*
X1628Y782D02*
X1679Y782D01*
X1723Y782D02*
X1774Y782D01*
X55Y781D02*
X108Y781D01*
X147Y781D02*
X199Y781D01*
X1628Y781D02*
X1679Y781D01*
X1723Y781D02*
X1775Y781D01*
X56Y780D02*
X108Y780D01*
X146Y780D02*
X199Y780D01*
X1628Y780D02*
X1679Y780D01*
X1724Y780D02*
X1775Y780D01*
X56Y779D02*
X109Y779D01*
X145Y779D02*
X198Y779D01*
X1628Y779D02*
X1679Y779D01*
X1724Y779D02*
X1775Y779D01*
X56Y778D02*
X110Y778D01*
X144Y778D02*
X198Y778D01*
X1628Y778D02*
X1679Y778D01*
X1724Y778D02*
X1775Y778D01*
X57Y777D02*
X111Y777D01*
X144Y777D02*
X197Y777D01*
X1628Y777D02*
X1679Y777D01*
X1724Y777D02*
X1775Y777D01*
X57Y776D02*
X112Y776D01*
X142Y776D02*
X197Y776D01*
X1628Y776D02*
X1679Y776D01*
X1724Y776D02*
X1775Y776D01*
X58Y775D02*
X113Y775D01*
X141Y775D02*
X196Y775D01*
X1628Y775D02*
X1679Y775D01*
X1724Y775D02*
X1775Y775D01*
X58Y774D02*
X114Y774D01*
X140Y774D02*
X196Y774D01*
X1628Y774D02*
X1679Y774D01*
X1724Y774D02*
X1775Y774D01*
X59Y773D02*
X116Y773D01*
X138Y773D02*
X195Y773D01*
X1628Y773D02*
X1679Y773D01*
X1723Y773D02*
X1774Y773D01*
X60Y772D02*
X118Y772D01*
X136Y772D02*
X195Y772D01*
X1628Y772D02*
X1679Y772D01*
X1723Y772D02*
X1774Y772D01*
X60Y771D02*
X121Y771D01*
X134Y771D02*
X194Y771D01*
X1628Y771D02*
X1680Y771D01*
X1723Y771D02*
X1774Y771D01*
X61Y770D02*
X193Y770D01*
X1629Y770D02*
X1680Y770D01*
X1723Y770D02*
X1774Y770D01*
X62Y769D02*
X192Y769D01*
X1629Y769D02*
X1680Y769D01*
X1722Y769D02*
X1774Y769D01*
X63Y768D02*
X192Y768D01*
X1629Y768D02*
X1681Y768D01*
X1722Y768D02*
X1774Y768D01*
X64Y767D02*
X191Y767D01*
X1629Y767D02*
X1681Y767D01*
X1721Y767D02*
X1773Y767D01*
X65Y766D02*
X190Y766D01*
X1630Y766D02*
X1682Y766D01*
X1721Y766D02*
X1773Y766D01*
X66Y765D02*
X189Y765D01*
X1630Y765D02*
X1682Y765D01*
X1720Y765D02*
X1773Y765D01*
X67Y764D02*
X188Y764D01*
X1630Y764D02*
X1683Y764D01*
X1719Y764D02*
X1772Y764D01*
X68Y763D02*
X186Y763D01*
X1631Y763D02*
X1684Y763D01*
X1719Y763D02*
X1772Y763D01*
X69Y762D02*
X185Y762D01*
X1631Y762D02*
X1685Y762D01*
X1718Y762D02*
X1771Y762D01*
X71Y761D02*
X183Y761D01*
X1632Y761D02*
X1686Y761D01*
X1717Y761D02*
X1771Y761D01*
X72Y760D02*
X182Y760D01*
X1632Y760D02*
X1687Y760D01*
X1715Y760D02*
X1770Y760D01*
X74Y759D02*
X180Y759D01*
X1633Y759D02*
X1688Y759D01*
X1714Y759D02*
X1770Y759D01*
X77Y758D02*
X178Y758D01*
X1633Y758D02*
X1690Y758D01*
X1712Y758D02*
X1769Y758D01*
X79Y757D02*
X175Y757D01*
X1634Y757D02*
X1692Y757D01*
X1710Y757D02*
X1769Y757D01*
X83Y756D02*
X171Y756D01*
X1634Y756D02*
X1695Y756D01*
X1707Y756D02*
X1768Y756D01*
X1635Y755D02*
X1767Y755D01*
X1636Y754D02*
X1767Y754D01*
X1637Y753D02*
X1766Y753D01*
X1638Y752D02*
X1765Y752D01*
X1639Y751D02*
X1764Y751D01*
X1640Y750D02*
X1763Y750D01*
X1641Y749D02*
X1762Y749D01*
X1642Y748D02*
X1760Y748D01*
X1643Y747D02*
X1759Y747D01*
X1645Y746D02*
X1758Y746D01*
X1647Y745D02*
X1756Y745D01*
X1649Y744D02*
X1754Y744D01*
X1651Y743D02*
X1752Y743D01*
X1654Y742D02*
X1749Y742D01*
X1657Y741D02*
X1745Y741D01*
X1660Y714D02*
X1742Y714D01*
X1655Y713D02*
X1747Y713D01*
X1652Y712D02*
X1751Y712D01*
X1650Y711D02*
X1753Y711D01*
X1648Y710D02*
X1755Y710D01*
X1646Y709D02*
X1757Y709D01*
X1644Y708D02*
X1758Y708D01*
X1643Y707D02*
X1760Y707D01*
X1641Y706D02*
X1761Y706D01*
X1640Y705D02*
X1762Y705D01*
X1639Y704D02*
X1763Y704D01*
X1638Y703D02*
X1764Y703D01*
X1637Y702D02*
X1765Y702D01*
X1636Y701D02*
X1766Y701D01*
X1636Y700D02*
X1767Y700D01*
X1635Y699D02*
X1697Y699D01*
X1705Y699D02*
X1768Y699D01*
X1634Y698D02*
X1693Y698D01*
X1709Y698D02*
X1768Y698D01*
X1633Y697D02*
X1691Y697D01*
X1712Y697D02*
X1769Y697D01*
X1633Y696D02*
X1689Y696D01*
X1713Y696D02*
X1770Y696D01*
X1632Y695D02*
X1688Y695D01*
X1715Y695D02*
X1770Y695D01*
X1632Y694D02*
X1686Y694D01*
X1716Y694D02*
X1771Y694D01*
X1631Y693D02*
X1685Y693D01*
X1717Y693D02*
X1771Y693D01*
X1631Y692D02*
X1684Y692D01*
X1718Y692D02*
X1772Y692D01*
X1630Y691D02*
X1684Y691D01*
X1719Y691D02*
X1772Y691D01*
X1630Y690D02*
X1683Y690D01*
X1720Y690D02*
X1772Y690D01*
X1630Y689D02*
X1682Y689D01*
X1720Y689D02*
X1773Y689D01*
X1629Y688D02*
X1682Y688D01*
X1721Y688D02*
X1773Y688D01*
X1629Y687D02*
X1681Y687D01*
X1721Y687D02*
X1773Y687D01*
X1629Y686D02*
X1681Y686D01*
X1722Y686D02*
X1774Y686D01*
X1629Y685D02*
X1680Y685D01*
X1722Y685D02*
X1774Y685D01*
X1628Y684D02*
X1680Y684D01*
X1723Y684D02*
X1774Y684D01*
X1628Y683D02*
X1680Y683D01*
X1723Y683D02*
X1774Y683D01*
X1628Y682D02*
X1679Y682D01*
X1723Y682D02*
X1774Y682D01*
X1628Y681D02*
X1679Y681D01*
X1723Y681D02*
X1775Y681D01*
X1628Y680D02*
X1679Y680D01*
X1724Y680D02*
X1775Y680D01*
X1628Y679D02*
X1679Y679D01*
X1724Y679D02*
X1775Y679D01*
X1628Y678D02*
X1679Y678D01*
X1724Y678D02*
X1775Y678D01*
X1628Y677D02*
X1679Y677D01*
X1724Y677D02*
X1775Y677D01*
X1628Y676D02*
X1679Y676D01*
X1724Y676D02*
X1775Y676D01*
X1628Y675D02*
X1679Y675D01*
X1724Y675D02*
X1775Y675D01*
X1628Y674D02*
X1679Y674D01*
X1723Y674D02*
X1775Y674D01*
X1628Y673D02*
X1679Y673D01*
X1723Y673D02*
X1774Y673D01*
X1628Y672D02*
X1679Y672D01*
X1723Y672D02*
X1774Y672D01*
X1628Y671D02*
X1680Y671D01*
X1723Y671D02*
X1774Y671D01*
X1629Y670D02*
X1680Y670D01*
X1722Y670D02*
X1774Y670D01*
X1629Y669D02*
X1680Y669D01*
X1722Y669D02*
X1774Y669D01*
X1629Y668D02*
X1681Y668D01*
X1722Y668D02*
X1774Y668D01*
X1629Y667D02*
X1681Y667D01*
X1721Y667D02*
X1773Y667D01*
X1630Y666D02*
X1682Y666D01*
X1721Y666D02*
X1773Y666D01*
X1630Y665D02*
X1683Y665D01*
X1720Y665D02*
X1773Y665D01*
X1630Y664D02*
X1683Y664D01*
X1719Y664D02*
X1772Y664D01*
X1631Y663D02*
X1684Y663D01*
X1718Y663D02*
X1772Y663D01*
X1631Y662D02*
X1685Y662D01*
X1718Y662D02*
X1771Y662D01*
X1632Y661D02*
X1686Y661D01*
X1717Y661D02*
X1771Y661D01*
X1632Y660D02*
X1687Y660D01*
X1715Y660D02*
X1770Y660D01*
X1633Y659D02*
X1689Y659D01*
X1714Y659D02*
X1770Y659D01*
X1633Y658D02*
X1690Y658D01*
X1712Y658D02*
X1769Y658D01*
X1634Y657D02*
X1692Y657D01*
X1710Y657D02*
X1769Y657D01*
X1635Y656D02*
X1695Y656D01*
X1707Y656D02*
X1768Y656D01*
X1635Y655D02*
X1767Y655D01*
X1636Y654D02*
X1766Y654D01*
X1637Y653D02*
X1766Y653D01*
X1638Y652D02*
X1765Y652D01*
X1639Y651D02*
X1764Y651D01*
X1640Y650D02*
X1763Y650D01*
X1641Y649D02*
X1762Y649D01*
X1642Y648D02*
X1760Y648D01*
X1644Y647D02*
X1759Y647D01*
X1645Y646D02*
X1757Y646D01*
X1647Y645D02*
X1756Y645D01*
X1649Y644D02*
X1754Y644D01*
X1651Y643D02*
X1752Y643D01*
X1654Y642D02*
X1749Y642D01*
X1658Y641D02*
X1745Y641D01*
X1660Y614D02*
X1743Y614D01*
X1655Y613D02*
X1748Y613D01*
X1652Y612D02*
X1751Y612D01*
X1649Y611D02*
X1753Y611D01*
X1647Y610D02*
X1755Y610D01*
X1646Y609D02*
X1757Y609D01*
X1644Y608D02*
X1758Y608D01*
X1643Y607D02*
X1760Y607D01*
X1641Y606D02*
X1761Y606D01*
X1640Y605D02*
X1762Y605D01*
X1639Y604D02*
X1763Y604D01*
X1638Y603D02*
X1764Y603D01*
X1637Y602D02*
X1765Y602D01*
X1636Y601D02*
X1766Y601D01*
X1636Y600D02*
X1767Y600D01*
X1635Y599D02*
X1697Y599D01*
X1706Y599D02*
X1768Y599D01*
X1634Y598D02*
X1693Y598D01*
X1709Y598D02*
X1768Y598D01*
X1633Y597D02*
X1691Y597D01*
X1712Y597D02*
X1769Y597D01*
X1633Y596D02*
X1689Y596D01*
X1713Y596D02*
X1770Y596D01*
X1632Y595D02*
X1688Y595D01*
X1715Y595D02*
X1770Y595D01*
X1632Y594D02*
X1686Y594D01*
X1716Y594D02*
X1771Y594D01*
X1631Y593D02*
X1685Y593D01*
X1717Y593D02*
X1771Y593D01*
X1631Y592D02*
X1684Y592D01*
X1718Y592D02*
X1772Y592D01*
X1630Y591D02*
X1684Y591D01*
X1719Y591D02*
X1772Y591D01*
X1630Y590D02*
X1683Y590D01*
X1720Y590D02*
X1772Y590D01*
X1630Y589D02*
X1682Y589D01*
X1720Y589D02*
X1773Y589D01*
X1629Y588D02*
X1682Y588D01*
X1721Y588D02*
X1773Y588D01*
X1629Y587D02*
X1681Y587D01*
X1722Y587D02*
X1773Y587D01*
X1629Y586D02*
X1681Y586D01*
X1722Y586D02*
X1774Y586D01*
X1629Y585D02*
X1680Y585D01*
X1722Y585D02*
X1774Y585D01*
X1628Y584D02*
X1680Y584D01*
X1723Y584D02*
X1774Y584D01*
X1628Y583D02*
X1679Y583D01*
X1723Y583D02*
X1774Y583D01*
X1628Y582D02*
X1679Y582D01*
X1723Y582D02*
X1774Y582D01*
X1628Y581D02*
X1679Y581D01*
X1723Y581D02*
X1775Y581D01*
X1628Y580D02*
X1679Y580D01*
X1724Y580D02*
X1775Y580D01*
X1628Y579D02*
X1679Y579D01*
X1724Y579D02*
X1775Y579D01*
X1628Y578D02*
X1679Y578D01*
X1724Y578D02*
X1775Y578D01*
X1628Y577D02*
X1679Y577D01*
X1724Y577D02*
X1775Y577D01*
X1628Y576D02*
X1679Y576D01*
X1724Y576D02*
X1775Y576D01*
X1628Y575D02*
X1679Y575D01*
X1724Y575D02*
X1775Y575D01*
X1628Y574D02*
X1679Y574D01*
X1723Y574D02*
X1775Y574D01*
X1628Y573D02*
X1679Y573D01*
X1723Y573D02*
X1774Y573D01*
X1628Y572D02*
X1679Y572D01*
X1723Y572D02*
X1774Y572D01*
X1628Y571D02*
X1680Y571D01*
X1723Y571D02*
X1774Y571D01*
X1629Y570D02*
X1680Y570D01*
X1722Y570D02*
X1774Y570D01*
X1629Y569D02*
X1680Y569D01*
X1722Y569D02*
X1774Y569D01*
X1629Y568D02*
X1681Y568D01*
X1722Y568D02*
X1774Y568D01*
X1629Y567D02*
X1681Y567D01*
X1721Y567D02*
X1773Y567D01*
X1630Y566D02*
X1682Y566D01*
X1721Y566D02*
X1773Y566D01*
X1630Y565D02*
X1683Y565D01*
X1720Y565D02*
X1773Y565D01*
X1630Y564D02*
X1683Y564D01*
X1719Y564D02*
X1772Y564D01*
X1631Y563D02*
X1684Y563D01*
X1718Y563D02*
X1772Y563D01*
X1631Y562D02*
X1685Y562D01*
X1717Y562D02*
X1771Y562D01*
X1632Y561D02*
X1686Y561D01*
X1716Y561D02*
X1771Y561D01*
X1632Y560D02*
X1687Y560D01*
X1715Y560D02*
X1770Y560D01*
X1633Y559D02*
X1689Y559D01*
X1714Y559D02*
X1770Y559D01*
X1633Y558D02*
X1690Y558D01*
X1712Y558D02*
X1769Y558D01*
X1634Y557D02*
X1692Y557D01*
X1710Y557D02*
X1769Y557D01*
X1635Y556D02*
X1696Y556D01*
X1707Y556D02*
X1768Y556D01*
X1635Y555D02*
X1767Y555D01*
X1636Y554D02*
X1766Y554D01*
X1637Y553D02*
X1766Y553D01*
X1638Y552D02*
X1765Y552D01*
X1639Y551D02*
X1764Y551D01*
X1640Y550D02*
X1763Y550D01*
X1641Y549D02*
X1761Y549D01*
X1642Y548D02*
X1760Y548D01*
X1644Y547D02*
X1759Y547D01*
X1645Y546D02*
X1757Y546D01*
X1647Y545D02*
X1756Y545D01*
X1649Y544D02*
X1754Y544D01*
X1651Y543D02*
X1751Y543D01*
X1654Y542D02*
X1749Y542D01*
X1658Y541D02*
X1744Y541D01*
X1659Y514D02*
X1743Y514D01*
X1655Y513D02*
X1748Y513D01*
X1652Y512D02*
X1751Y512D01*
X1649Y511D02*
X1753Y511D01*
X1647Y510D02*
X1755Y510D01*
X1646Y509D02*
X1757Y509D01*
X1644Y508D02*
X1759Y508D01*
X1643Y507D02*
X1760Y507D01*
X1641Y506D02*
X1761Y506D01*
X1640Y505D02*
X1762Y505D01*
X1639Y504D02*
X1763Y504D01*
X1638Y503D02*
X1764Y503D01*
X1637Y502D02*
X1765Y502D01*
X1636Y501D02*
X1766Y501D01*
X1635Y500D02*
X1767Y500D01*
X1635Y499D02*
X1697Y499D01*
X1706Y499D02*
X1768Y499D01*
X1634Y498D02*
X1693Y498D01*
X1710Y498D02*
X1768Y498D01*
X1633Y497D02*
X1691Y497D01*
X1712Y497D02*
X1769Y497D01*
X1633Y496D02*
X1689Y496D01*
X1714Y496D02*
X1770Y496D01*
X1632Y495D02*
X1688Y495D01*
X1715Y495D02*
X1770Y495D01*
X1632Y494D02*
X1686Y494D01*
X1716Y494D02*
X1771Y494D01*
X1631Y493D02*
X1685Y493D01*
X1717Y493D02*
X1771Y493D01*
X1631Y492D02*
X1684Y492D01*
X1718Y492D02*
X1772Y492D01*
X1630Y491D02*
X1683Y491D01*
X1719Y491D02*
X1772Y491D01*
X1630Y490D02*
X1683Y490D01*
X1720Y490D02*
X1773Y490D01*
X1630Y489D02*
X1682Y489D01*
X1720Y489D02*
X1773Y489D01*
X1629Y488D02*
X1681Y488D01*
X1721Y488D02*
X1773Y488D01*
X1629Y487D02*
X1681Y487D01*
X1722Y487D02*
X1773Y487D01*
X1629Y486D02*
X1681Y486D01*
X1722Y486D02*
X1774Y486D01*
X1629Y485D02*
X1680Y485D01*
X1722Y485D02*
X1774Y485D01*
X1628Y484D02*
X1680Y484D01*
X1723Y484D02*
X1774Y484D01*
X1628Y483D02*
X1679Y483D01*
X1723Y483D02*
X1774Y483D01*
X1628Y482D02*
X1679Y482D01*
X1723Y482D02*
X1774Y482D01*
X1628Y481D02*
X1679Y481D01*
X1723Y481D02*
X1775Y481D01*
X1628Y480D02*
X1679Y480D01*
X1724Y480D02*
X1775Y480D01*
X1628Y479D02*
X1679Y479D01*
X1724Y479D02*
X1775Y479D01*
X1628Y478D02*
X1679Y478D01*
X1724Y478D02*
X1775Y478D01*
X1628Y477D02*
X1679Y477D01*
X1724Y477D02*
X1775Y477D01*
X1628Y476D02*
X1679Y476D01*
X1724Y476D02*
X1775Y476D01*
X1628Y475D02*
X1679Y475D01*
X1724Y475D02*
X1775Y475D01*
X1628Y474D02*
X1679Y474D01*
X1723Y474D02*
X1775Y474D01*
X1628Y473D02*
X1679Y473D01*
X1723Y473D02*
X1774Y473D01*
X1628Y472D02*
X1679Y472D01*
X1723Y472D02*
X1774Y472D01*
X1628Y471D02*
X1680Y471D01*
X1723Y471D02*
X1774Y471D01*
X1629Y470D02*
X1680Y470D01*
X1722Y470D02*
X1774Y470D01*
X1629Y469D02*
X1680Y469D01*
X1722Y469D02*
X1774Y469D01*
X1629Y468D02*
X1681Y468D01*
X1722Y468D02*
X1773Y468D01*
X1629Y467D02*
X1681Y467D01*
X1721Y467D02*
X1773Y467D01*
X1630Y466D02*
X1682Y466D01*
X1721Y466D02*
X1773Y466D01*
X1630Y465D02*
X1683Y465D01*
X1720Y465D02*
X1773Y465D01*
X1630Y464D02*
X1683Y464D01*
X1719Y464D02*
X1772Y464D01*
X1631Y463D02*
X1684Y463D01*
X1718Y463D02*
X1772Y463D01*
X1631Y462D02*
X1685Y462D01*
X1717Y462D02*
X1771Y462D01*
X1632Y461D02*
X1686Y461D01*
X1716Y461D02*
X1771Y461D01*
X1632Y460D02*
X1687Y460D01*
X1715Y460D02*
X1770Y460D01*
X1633Y459D02*
X1689Y459D01*
X1714Y459D02*
X1770Y459D01*
X1633Y458D02*
X1690Y458D01*
X1712Y458D02*
X1769Y458D01*
X1634Y457D02*
X1693Y457D01*
X1710Y457D02*
X1769Y457D01*
X1635Y456D02*
X1696Y456D01*
X1707Y456D02*
X1768Y456D01*
X1635Y455D02*
X1767Y455D01*
X1636Y454D02*
X1766Y454D01*
X1637Y453D02*
X1765Y453D01*
X1638Y452D02*
X1765Y452D01*
X1639Y451D02*
X1764Y451D01*
X1640Y450D02*
X1763Y450D01*
X1641Y449D02*
X1761Y449D01*
X1642Y448D02*
X1760Y448D01*
X1644Y447D02*
X1759Y447D01*
X1645Y446D02*
X1757Y446D01*
X1647Y445D02*
X1755Y445D01*
X1649Y444D02*
X1754Y444D01*
X1651Y443D02*
X1751Y443D01*
X1654Y442D02*
X1748Y442D01*
X1658Y441D02*
X1744Y441D01*
X1659Y414D02*
X1744Y414D01*
X1654Y413D02*
X1748Y413D01*
X1651Y412D02*
X1751Y412D01*
X1649Y411D02*
X1753Y411D01*
X1647Y410D02*
X1755Y410D01*
X1645Y409D02*
X1757Y409D01*
X1644Y408D02*
X1759Y408D01*
X1642Y407D02*
X1760Y407D01*
X1641Y406D02*
X1761Y406D01*
X1640Y405D02*
X1762Y405D01*
X1639Y404D02*
X1764Y404D01*
X1638Y403D02*
X1764Y403D01*
X1637Y402D02*
X1765Y402D01*
X1636Y401D02*
X1766Y401D01*
X1635Y400D02*
X1767Y400D01*
X1635Y399D02*
X1696Y399D01*
X1706Y399D02*
X1768Y399D01*
X1634Y398D02*
X1693Y398D01*
X1710Y398D02*
X1769Y398D01*
X1633Y397D02*
X1691Y397D01*
X1712Y397D02*
X1769Y397D01*
X1633Y396D02*
X1689Y396D01*
X1714Y396D02*
X1770Y396D01*
X1632Y395D02*
X1687Y395D01*
X1715Y395D02*
X1770Y395D01*
X1632Y394D02*
X1686Y394D01*
X1716Y394D02*
X1771Y394D01*
X1631Y393D02*
X1685Y393D01*
X1717Y393D02*
X1771Y393D01*
X1631Y392D02*
X1684Y392D01*
X1718Y392D02*
X1772Y392D01*
X1630Y391D02*
X1683Y391D01*
X1719Y391D02*
X1772Y391D01*
X1630Y390D02*
X1683Y390D01*
X1720Y390D02*
X1773Y390D01*
X1630Y389D02*
X1682Y389D01*
X1720Y389D02*
X1773Y389D01*
X1629Y388D02*
X1681Y388D01*
X1721Y388D02*
X1773Y388D01*
X1629Y387D02*
X1681Y387D01*
X1722Y387D02*
X1773Y387D01*
X1629Y386D02*
X1680Y386D01*
X1722Y386D02*
X1774Y386D01*
X1629Y385D02*
X1680Y385D01*
X1722Y385D02*
X1774Y385D01*
X1628Y384D02*
X1680Y384D01*
X1723Y384D02*
X1774Y384D01*
X1628Y383D02*
X1679Y383D01*
X1723Y383D02*
X1774Y383D01*
X1628Y382D02*
X1679Y382D01*
X1723Y382D02*
X1774Y382D01*
X1628Y381D02*
X1679Y381D01*
X1723Y381D02*
X1775Y381D01*
X1628Y380D02*
X1679Y380D01*
X1724Y380D02*
X1775Y380D01*
X1628Y379D02*
X1679Y379D01*
X1724Y379D02*
X1775Y379D01*
X1628Y378D02*
X1679Y378D01*
X1724Y378D02*
X1775Y378D01*
X1628Y377D02*
X1679Y377D01*
X1724Y377D02*
X1775Y377D01*
X1628Y376D02*
X1679Y376D01*
X1724Y376D02*
X1775Y376D01*
X1628Y375D02*
X1679Y375D01*
X1724Y375D02*
X1775Y375D01*
X1628Y374D02*
X1679Y374D01*
X1723Y374D02*
X1775Y374D01*
X1628Y373D02*
X1679Y373D01*
X1723Y373D02*
X1774Y373D01*
X1628Y372D02*
X1679Y372D01*
X1723Y372D02*
X1774Y372D01*
X1628Y371D02*
X1680Y371D01*
X1723Y371D02*
X1774Y371D01*
X1629Y370D02*
X1680Y370D01*
X1722Y370D02*
X1774Y370D01*
X1629Y369D02*
X1680Y369D01*
X1722Y369D02*
X1774Y369D01*
X1629Y368D02*
X1681Y368D01*
X1722Y368D02*
X1773Y368D01*
X1629Y367D02*
X1681Y367D01*
X1721Y367D02*
X1773Y367D01*
X1630Y366D02*
X1682Y366D01*
X1720Y366D02*
X1773Y366D01*
X1630Y365D02*
X1683Y365D01*
X1720Y365D02*
X1773Y365D01*
X1630Y364D02*
X1683Y364D01*
X1719Y364D02*
X1772Y364D01*
X1631Y363D02*
X1684Y363D01*
X1718Y363D02*
X1772Y363D01*
X1631Y362D02*
X1685Y362D01*
X1717Y362D02*
X1771Y362D01*
X1632Y361D02*
X1686Y361D01*
X1716Y361D02*
X1771Y361D01*
X1632Y360D02*
X1687Y360D01*
X1715Y360D02*
X1770Y360D01*
X1633Y359D02*
X1689Y359D01*
X1714Y359D02*
X1770Y359D01*
X1633Y358D02*
X1691Y358D01*
X1712Y358D02*
X1769Y358D01*
X1634Y357D02*
X1693Y357D01*
X1710Y357D02*
X1769Y357D01*
X1635Y356D02*
X1696Y356D01*
X1706Y356D02*
X1768Y356D01*
X1635Y355D02*
X1767Y355D01*
X1636Y354D02*
X1766Y354D01*
X1637Y353D02*
X1765Y353D01*
X1638Y352D02*
X1765Y352D01*
X1639Y351D02*
X1764Y351D01*
X1640Y350D02*
X1762Y350D01*
X1641Y349D02*
X1761Y349D01*
X1642Y348D02*
X1760Y348D01*
X1644Y347D02*
X1759Y347D01*
X1645Y346D02*
X1757Y346D01*
X1647Y345D02*
X1755Y345D01*
X1649Y344D02*
X1753Y344D01*
X1651Y343D02*
X1751Y343D01*
X1654Y342D02*
X1748Y342D01*
X1659Y341D02*
X1744Y341D01*
X1658Y314D02*
X1744Y314D01*
X1654Y313D02*
X1748Y313D01*
X1651Y312D02*
X1751Y312D01*
X1649Y311D02*
X1754Y311D01*
X1647Y310D02*
X1756Y310D01*
X1645Y309D02*
X1757Y309D01*
X1644Y308D02*
X1759Y308D01*
X1642Y307D02*
X1760Y307D01*
X1641Y306D02*
X1761Y306D01*
X1640Y305D02*
X1763Y305D01*
X1639Y304D02*
X1764Y304D01*
X1638Y303D02*
X1765Y303D01*
X1637Y302D02*
X1765Y302D01*
X1636Y301D02*
X1766Y301D01*
X1635Y300D02*
X1767Y300D01*
X1635Y299D02*
X1696Y299D01*
X1707Y299D02*
X1768Y299D01*
X1634Y298D02*
X1693Y298D01*
X1710Y298D02*
X1769Y298D01*
X1633Y297D02*
X1690Y297D01*
X1712Y297D02*
X1769Y297D01*
X1633Y296D02*
X1689Y296D01*
X1714Y296D02*
X1770Y296D01*
X1632Y295D02*
X1687Y295D01*
X1715Y295D02*
X1770Y295D01*
X1632Y294D02*
X1686Y294D01*
X1716Y294D02*
X1771Y294D01*
X1631Y293D02*
X1685Y293D01*
X1717Y293D02*
X1771Y293D01*
X1631Y292D02*
X1684Y292D01*
X1718Y292D02*
X1772Y292D01*
X1630Y291D02*
X1683Y291D01*
X1719Y291D02*
X1772Y291D01*
X1630Y290D02*
X1683Y290D01*
X1720Y290D02*
X1773Y290D01*
X1630Y289D02*
X1682Y289D01*
X1721Y289D02*
X1773Y289D01*
X1629Y288D02*
X1681Y288D01*
X1721Y288D02*
X1773Y288D01*
X1629Y287D02*
X1681Y287D01*
X1722Y287D02*
X1773Y287D01*
X1629Y286D02*
X1680Y286D01*
X1722Y286D02*
X1774Y286D01*
X1629Y285D02*
X1680Y285D01*
X1722Y285D02*
X1774Y285D01*
X1628Y284D02*
X1680Y284D01*
X1723Y284D02*
X1774Y284D01*
X1628Y283D02*
X1679Y283D01*
X1723Y283D02*
X1774Y283D01*
X1628Y282D02*
X1679Y282D01*
X1723Y282D02*
X1774Y282D01*
X1628Y281D02*
X1679Y281D01*
X1723Y281D02*
X1775Y281D01*
X1628Y280D02*
X1679Y280D01*
X1724Y280D02*
X1775Y280D01*
X1628Y279D02*
X1679Y279D01*
X1724Y279D02*
X1775Y279D01*
X1628Y278D02*
X1679Y278D01*
X1724Y278D02*
X1775Y278D01*
X1628Y277D02*
X1679Y277D01*
X1724Y277D02*
X1775Y277D01*
X1628Y276D02*
X1679Y276D01*
X1724Y276D02*
X1775Y276D01*
X1628Y275D02*
X1679Y275D01*
X1724Y275D02*
X1775Y275D01*
X1628Y274D02*
X1679Y274D01*
X1723Y274D02*
X1775Y274D01*
X1628Y273D02*
X1679Y273D01*
X1723Y273D02*
X1774Y273D01*
X1628Y272D02*
X1679Y272D01*
X1723Y272D02*
X1774Y272D01*
X1628Y271D02*
X1680Y271D01*
X1723Y271D02*
X1774Y271D01*
X1629Y270D02*
X1680Y270D01*
X1722Y270D02*
X1774Y270D01*
X130Y269D02*
X138Y269D01*
X230Y269D02*
X238Y269D01*
X330Y269D02*
X338Y269D01*
X502Y269D02*
X510Y269D01*
X602Y269D02*
X610Y269D01*
X702Y269D02*
X710Y269D01*
X802Y269D02*
X810Y269D01*
X902Y269D02*
X910Y269D01*
X1629Y269D02*
X1681Y269D01*
X1722Y269D02*
X1774Y269D01*
X125Y268D02*
X143Y268D01*
X225Y268D02*
X243Y268D01*
X325Y268D02*
X343Y268D01*
X497Y268D02*
X515Y268D01*
X597Y268D02*
X615Y268D01*
X697Y268D02*
X715Y268D01*
X797Y268D02*
X815Y268D01*
X897Y268D02*
X915Y268D01*
X1629Y268D02*
X1681Y268D01*
X1722Y268D02*
X1773Y268D01*
X121Y267D02*
X146Y267D01*
X221Y267D02*
X246Y267D01*
X321Y267D02*
X346Y267D01*
X494Y267D02*
X518Y267D01*
X594Y267D02*
X618Y267D01*
X694Y267D02*
X718Y267D01*
X794Y267D02*
X818Y267D01*
X894Y267D02*
X918Y267D01*
X1629Y267D02*
X1681Y267D01*
X1721Y267D02*
X1773Y267D01*
X119Y266D02*
X149Y266D01*
X219Y266D02*
X249Y266D01*
X319Y266D02*
X348Y266D01*
X491Y266D02*
X521Y266D01*
X591Y266D02*
X621Y266D01*
X691Y266D02*
X721Y266D01*
X791Y266D02*
X821Y266D01*
X891Y266D02*
X921Y266D01*
X1630Y266D02*
X1682Y266D01*
X1720Y266D02*
X1773Y266D01*
X117Y265D02*
X151Y265D01*
X217Y265D02*
X251Y265D01*
X317Y265D02*
X351Y265D01*
X489Y265D02*
X523Y265D01*
X589Y265D02*
X623Y265D01*
X689Y265D02*
X723Y265D01*
X789Y265D02*
X823Y265D01*
X889Y265D02*
X923Y265D01*
X1630Y265D02*
X1683Y265D01*
X1720Y265D02*
X1773Y265D01*
X115Y264D02*
X152Y264D01*
X215Y264D02*
X252Y264D01*
X315Y264D02*
X352Y264D01*
X488Y264D02*
X525Y264D01*
X587Y264D02*
X625Y264D01*
X687Y264D02*
X725Y264D01*
X787Y264D02*
X825Y264D01*
X887Y264D02*
X924Y264D01*
X1630Y264D02*
X1683Y264D01*
X1719Y264D02*
X1772Y264D01*
X114Y263D02*
X154Y263D01*
X214Y263D02*
X254Y263D01*
X314Y263D02*
X354Y263D01*
X486Y263D02*
X526Y263D01*
X586Y263D02*
X626Y263D01*
X686Y263D02*
X726Y263D01*
X786Y263D02*
X826Y263D01*
X886Y263D02*
X926Y263D01*
X1631Y263D02*
X1684Y263D01*
X1718Y263D02*
X1772Y263D01*
X112Y262D02*
X155Y262D01*
X212Y262D02*
X255Y262D01*
X312Y262D02*
X355Y262D01*
X485Y262D02*
X528Y262D01*
X585Y262D02*
X628Y262D01*
X684Y262D02*
X728Y262D01*
X784Y262D02*
X828Y262D01*
X884Y262D02*
X927Y262D01*
X1631Y262D02*
X1685Y262D01*
X1717Y262D02*
X1771Y262D01*
X111Y261D02*
X157Y261D01*
X211Y261D02*
X257Y261D01*
X311Y261D02*
X357Y261D01*
X483Y261D02*
X529Y261D01*
X583Y261D02*
X629Y261D01*
X683Y261D02*
X729Y261D01*
X783Y261D02*
X829Y261D01*
X883Y261D02*
X929Y261D01*
X1632Y261D02*
X1686Y261D01*
X1716Y261D02*
X1771Y261D01*
X110Y260D02*
X158Y260D01*
X210Y260D02*
X258Y260D01*
X310Y260D02*
X358Y260D01*
X482Y260D02*
X530Y260D01*
X582Y260D02*
X630Y260D01*
X682Y260D02*
X730Y260D01*
X782Y260D02*
X830Y260D01*
X882Y260D02*
X930Y260D01*
X1632Y260D02*
X1688Y260D01*
X1715Y260D02*
X1770Y260D01*
X109Y259D02*
X159Y259D01*
X209Y259D02*
X259Y259D01*
X309Y259D02*
X359Y259D01*
X481Y259D02*
X531Y259D01*
X581Y259D02*
X631Y259D01*
X681Y259D02*
X731Y259D01*
X781Y259D02*
X831Y259D01*
X881Y259D02*
X931Y259D01*
X1633Y259D02*
X1689Y259D01*
X1714Y259D02*
X1770Y259D01*
X108Y258D02*
X160Y258D01*
X208Y258D02*
X260Y258D01*
X308Y258D02*
X360Y258D01*
X480Y258D02*
X532Y258D01*
X580Y258D02*
X632Y258D01*
X680Y258D02*
X732Y258D01*
X780Y258D02*
X832Y258D01*
X880Y258D02*
X932Y258D01*
X1633Y258D02*
X1691Y258D01*
X1712Y258D02*
X1769Y258D01*
X107Y257D02*
X161Y257D01*
X207Y257D02*
X261Y257D01*
X307Y257D02*
X361Y257D01*
X479Y257D02*
X533Y257D01*
X579Y257D02*
X633Y257D01*
X679Y257D02*
X733Y257D01*
X779Y257D02*
X833Y257D01*
X879Y257D02*
X933Y257D01*
X1634Y257D02*
X1693Y257D01*
X1710Y257D02*
X1768Y257D01*
X106Y256D02*
X162Y256D01*
X206Y256D02*
X262Y256D01*
X306Y256D02*
X362Y256D01*
X478Y256D02*
X534Y256D01*
X578Y256D02*
X634Y256D01*
X678Y256D02*
X734Y256D01*
X778Y256D02*
X834Y256D01*
X878Y256D02*
X934Y256D01*
X1635Y256D02*
X1697Y256D01*
X1706Y256D02*
X1768Y256D01*
X105Y255D02*
X163Y255D01*
X205Y255D02*
X262Y255D01*
X305Y255D02*
X362Y255D01*
X477Y255D02*
X535Y255D01*
X577Y255D02*
X635Y255D01*
X677Y255D02*
X735Y255D01*
X777Y255D02*
X835Y255D01*
X877Y255D02*
X935Y255D01*
X1635Y255D02*
X1767Y255D01*
X104Y254D02*
X163Y254D01*
X204Y254D02*
X263Y254D01*
X304Y254D02*
X363Y254D01*
X477Y254D02*
X536Y254D01*
X577Y254D02*
X636Y254D01*
X677Y254D02*
X735Y254D01*
X777Y254D02*
X835Y254D01*
X876Y254D02*
X935Y254D01*
X1636Y254D02*
X1766Y254D01*
X104Y253D02*
X164Y253D01*
X204Y253D02*
X264Y253D01*
X304Y253D02*
X364Y253D01*
X476Y253D02*
X536Y253D01*
X576Y253D02*
X636Y253D01*
X676Y253D02*
X736Y253D01*
X776Y253D02*
X836Y253D01*
X876Y253D02*
X936Y253D01*
X1637Y253D02*
X1765Y253D01*
X103Y252D02*
X165Y252D01*
X203Y252D02*
X265Y252D01*
X303Y252D02*
X365Y252D01*
X475Y252D02*
X537Y252D01*
X575Y252D02*
X637Y252D01*
X675Y252D02*
X737Y252D01*
X775Y252D02*
X837Y252D01*
X875Y252D02*
X937Y252D01*
X1638Y252D02*
X1764Y252D01*
X102Y251D02*
X165Y251D01*
X202Y251D02*
X265Y251D01*
X302Y251D02*
X365Y251D01*
X475Y251D02*
X537Y251D01*
X575Y251D02*
X637Y251D01*
X675Y251D02*
X737Y251D01*
X775Y251D02*
X837Y251D01*
X875Y251D02*
X937Y251D01*
X1639Y251D02*
X1763Y251D01*
X102Y250D02*
X166Y250D01*
X202Y250D02*
X266Y250D01*
X302Y250D02*
X366Y250D01*
X474Y250D02*
X538Y250D01*
X574Y250D02*
X638Y250D01*
X674Y250D02*
X738Y250D01*
X774Y250D02*
X838Y250D01*
X874Y250D02*
X938Y250D01*
X1640Y250D02*
X1762Y250D01*
X101Y249D02*
X166Y249D01*
X201Y249D02*
X266Y249D01*
X301Y249D02*
X366Y249D01*
X474Y249D02*
X539Y249D01*
X574Y249D02*
X639Y249D01*
X674Y249D02*
X739Y249D01*
X773Y249D02*
X838Y249D01*
X873Y249D02*
X938Y249D01*
X1641Y249D02*
X1761Y249D01*
X101Y248D02*
X167Y248D01*
X201Y248D02*
X267Y248D01*
X301Y248D02*
X367Y248D01*
X473Y248D02*
X539Y248D01*
X573Y248D02*
X639Y248D01*
X673Y248D02*
X739Y248D01*
X773Y248D02*
X839Y248D01*
X873Y248D02*
X939Y248D01*
X1643Y248D02*
X1760Y248D01*
X100Y247D02*
X167Y247D01*
X200Y247D02*
X267Y247D01*
X300Y247D02*
X367Y247D01*
X473Y247D02*
X540Y247D01*
X573Y247D02*
X640Y247D01*
X673Y247D02*
X739Y247D01*
X773Y247D02*
X839Y247D01*
X872Y247D02*
X939Y247D01*
X1644Y247D02*
X1759Y247D01*
X100Y246D02*
X168Y246D01*
X200Y246D02*
X268Y246D01*
X300Y246D02*
X368Y246D01*
X472Y246D02*
X540Y246D01*
X572Y246D02*
X640Y246D01*
X672Y246D02*
X740Y246D01*
X772Y246D02*
X840Y246D01*
X872Y246D02*
X940Y246D01*
X1646Y246D02*
X1757Y246D01*
X100Y245D02*
X168Y245D01*
X200Y245D02*
X268Y245D01*
X299Y245D02*
X368Y245D01*
X472Y245D02*
X540Y245D01*
X572Y245D02*
X640Y245D01*
X672Y245D02*
X740Y245D01*
X772Y245D02*
X840Y245D01*
X872Y245D02*
X940Y245D01*
X1647Y245D02*
X1755Y245D01*
X99Y244D02*
X168Y244D01*
X199Y244D02*
X268Y244D01*
X299Y244D02*
X368Y244D01*
X471Y244D02*
X541Y244D01*
X571Y244D02*
X641Y244D01*
X671Y244D02*
X741Y244D01*
X771Y244D02*
X841Y244D01*
X871Y244D02*
X941Y244D01*
X1649Y244D02*
X1753Y244D01*
X99Y243D02*
X169Y243D01*
X199Y243D02*
X269Y243D01*
X299Y243D02*
X369Y243D01*
X471Y243D02*
X541Y243D01*
X571Y243D02*
X641Y243D01*
X671Y243D02*
X741Y243D01*
X771Y243D02*
X841Y243D01*
X871Y243D02*
X941Y243D01*
X1652Y243D02*
X1751Y243D01*
X99Y242D02*
X169Y242D01*
X199Y242D02*
X269Y242D01*
X299Y242D02*
X369Y242D01*
X471Y242D02*
X541Y242D01*
X571Y242D02*
X641Y242D01*
X671Y242D02*
X741Y242D01*
X771Y242D02*
X841Y242D01*
X871Y242D02*
X941Y242D01*
X1655Y242D02*
X1748Y242D01*
X98Y241D02*
X169Y241D01*
X198Y241D02*
X269Y241D01*
X298Y241D02*
X369Y241D01*
X471Y241D02*
X542Y241D01*
X571Y241D02*
X642Y241D01*
X671Y241D02*
X741Y241D01*
X771Y241D02*
X841Y241D01*
X870Y241D02*
X941Y241D01*
X1659Y241D02*
X1743Y241D01*
X98Y240D02*
X169Y240D01*
X198Y240D02*
X269Y240D01*
X298Y240D02*
X369Y240D01*
X470Y240D02*
X542Y240D01*
X570Y240D02*
X642Y240D01*
X670Y240D02*
X742Y240D01*
X770Y240D02*
X842Y240D01*
X870Y240D02*
X942Y240D01*
X98Y239D02*
X170Y239D01*
X198Y239D02*
X270Y239D01*
X298Y239D02*
X370Y239D01*
X470Y239D02*
X542Y239D01*
X570Y239D02*
X642Y239D01*
X670Y239D02*
X742Y239D01*
X770Y239D02*
X842Y239D01*
X870Y239D02*
X942Y239D01*
X98Y238D02*
X170Y238D01*
X198Y238D02*
X270Y238D01*
X298Y238D02*
X370Y238D01*
X470Y238D02*
X542Y238D01*
X570Y238D02*
X642Y238D01*
X670Y238D02*
X742Y238D01*
X770Y238D02*
X842Y238D01*
X870Y238D02*
X942Y238D01*
X98Y237D02*
X170Y237D01*
X198Y237D02*
X270Y237D01*
X298Y237D02*
X370Y237D01*
X470Y237D02*
X542Y237D01*
X570Y237D02*
X642Y237D01*
X670Y237D02*
X742Y237D01*
X770Y237D02*
X842Y237D01*
X870Y237D02*
X942Y237D01*
X98Y236D02*
X170Y236D01*
X197Y236D02*
X270Y236D01*
X297Y236D02*
X370Y236D01*
X470Y236D02*
X542Y236D01*
X570Y236D02*
X642Y236D01*
X670Y236D02*
X742Y236D01*
X770Y236D02*
X842Y236D01*
X870Y236D02*
X942Y236D01*
X97Y235D02*
X170Y235D01*
X197Y235D02*
X270Y235D01*
X297Y235D02*
X370Y235D01*
X470Y235D02*
X542Y235D01*
X570Y235D02*
X642Y235D01*
X670Y235D02*
X742Y235D01*
X770Y235D02*
X842Y235D01*
X870Y235D02*
X942Y235D01*
X97Y234D02*
X170Y234D01*
X197Y234D02*
X270Y234D01*
X297Y234D02*
X370Y234D01*
X470Y234D02*
X543Y234D01*
X570Y234D02*
X642Y234D01*
X670Y234D02*
X742Y234D01*
X770Y234D02*
X842Y234D01*
X869Y234D02*
X942Y234D01*
X97Y233D02*
X170Y233D01*
X197Y233D02*
X270Y233D01*
X297Y233D02*
X370Y233D01*
X470Y233D02*
X543Y233D01*
X570Y233D02*
X643Y233D01*
X670Y233D02*
X742Y233D01*
X769Y233D02*
X842Y233D01*
X869Y233D02*
X942Y233D01*
X97Y232D02*
X170Y232D01*
X197Y232D02*
X270Y232D01*
X297Y232D02*
X370Y232D01*
X470Y232D02*
X543Y232D01*
X570Y232D02*
X643Y232D01*
X670Y232D02*
X742Y232D01*
X769Y232D02*
X842Y232D01*
X869Y232D02*
X942Y232D01*
X97Y231D02*
X170Y231D01*
X197Y231D02*
X270Y231D01*
X297Y231D02*
X370Y231D01*
X470Y231D02*
X543Y231D01*
X570Y231D02*
X643Y231D01*
X670Y231D02*
X743Y231D01*
X769Y231D02*
X842Y231D01*
X869Y231D02*
X942Y231D01*
X97Y230D02*
X170Y230D01*
X197Y230D02*
X270Y230D01*
X297Y230D02*
X370Y230D01*
X470Y230D02*
X543Y230D01*
X570Y230D02*
X643Y230D01*
X670Y230D02*
X743Y230D01*
X769Y230D02*
X842Y230D01*
X869Y230D02*
X942Y230D01*
X97Y229D02*
X170Y229D01*
X197Y229D02*
X270Y229D01*
X297Y229D02*
X370Y229D01*
X470Y229D02*
X543Y229D01*
X570Y229D02*
X643Y229D01*
X670Y229D02*
X743Y229D01*
X769Y229D02*
X842Y229D01*
X869Y229D02*
X942Y229D01*
X97Y228D02*
X170Y228D01*
X197Y228D02*
X270Y228D01*
X297Y228D02*
X370Y228D01*
X470Y228D02*
X543Y228D01*
X570Y228D02*
X643Y228D01*
X670Y228D02*
X743Y228D01*
X769Y228D02*
X842Y228D01*
X869Y228D02*
X942Y228D01*
X97Y227D02*
X170Y227D01*
X197Y227D02*
X270Y227D01*
X297Y227D02*
X370Y227D01*
X470Y227D02*
X543Y227D01*
X570Y227D02*
X643Y227D01*
X670Y227D02*
X743Y227D01*
X769Y227D02*
X842Y227D01*
X869Y227D02*
X942Y227D01*
X97Y226D02*
X170Y226D01*
X197Y226D02*
X270Y226D01*
X297Y226D02*
X370Y226D01*
X470Y226D02*
X543Y226D01*
X570Y226D02*
X643Y226D01*
X670Y226D02*
X743Y226D01*
X769Y226D02*
X842Y226D01*
X869Y226D02*
X942Y226D01*
X97Y225D02*
X170Y225D01*
X197Y225D02*
X270Y225D01*
X297Y225D02*
X370Y225D01*
X470Y225D02*
X543Y225D01*
X570Y225D02*
X643Y225D01*
X670Y225D02*
X743Y225D01*
X769Y225D02*
X842Y225D01*
X869Y225D02*
X942Y225D01*
X97Y224D02*
X170Y224D01*
X197Y224D02*
X270Y224D01*
X297Y224D02*
X370Y224D01*
X470Y224D02*
X543Y224D01*
X570Y224D02*
X643Y224D01*
X670Y224D02*
X743Y224D01*
X769Y224D02*
X842Y224D01*
X869Y224D02*
X942Y224D01*
X97Y223D02*
X170Y223D01*
X197Y223D02*
X270Y223D01*
X297Y223D02*
X370Y223D01*
X470Y223D02*
X543Y223D01*
X570Y223D02*
X643Y223D01*
X670Y223D02*
X743Y223D01*
X769Y223D02*
X842Y223D01*
X869Y223D02*
X942Y223D01*
X97Y222D02*
X170Y222D01*
X197Y222D02*
X270Y222D01*
X297Y222D02*
X370Y222D01*
X470Y222D02*
X543Y222D01*
X570Y222D02*
X643Y222D01*
X670Y222D02*
X743Y222D01*
X769Y222D02*
X842Y222D01*
X869Y222D02*
X942Y222D01*
X97Y221D02*
X170Y221D01*
X197Y221D02*
X270Y221D01*
X297Y221D02*
X370Y221D01*
X470Y221D02*
X543Y221D01*
X570Y221D02*
X643Y221D01*
X670Y221D02*
X743Y221D01*
X769Y221D02*
X842Y221D01*
X869Y221D02*
X942Y221D01*
X97Y220D02*
X170Y220D01*
X197Y220D02*
X270Y220D01*
X297Y220D02*
X370Y220D01*
X470Y220D02*
X543Y220D01*
X570Y220D02*
X643Y220D01*
X670Y220D02*
X743Y220D01*
X769Y220D02*
X842Y220D01*
X869Y220D02*
X942Y220D01*
X97Y219D02*
X170Y219D01*
X197Y219D02*
X270Y219D01*
X297Y219D02*
X370Y219D01*
X470Y219D02*
X543Y219D01*
X570Y219D02*
X643Y219D01*
X670Y219D02*
X743Y219D01*
X769Y219D02*
X842Y219D01*
X869Y219D02*
X942Y219D01*
X97Y218D02*
X170Y218D01*
X197Y218D02*
X270Y218D01*
X297Y218D02*
X370Y218D01*
X470Y218D02*
X543Y218D01*
X570Y218D02*
X643Y218D01*
X670Y218D02*
X743Y218D01*
X769Y218D02*
X842Y218D01*
X869Y218D02*
X942Y218D01*
X97Y217D02*
X130Y217D01*
X138Y217D02*
X170Y217D01*
X197Y217D02*
X230Y217D01*
X238Y217D02*
X270Y217D01*
X297Y217D02*
X330Y217D01*
X338Y217D02*
X370Y217D01*
X470Y217D02*
X502Y217D01*
X510Y217D02*
X543Y217D01*
X570Y217D02*
X602Y217D01*
X610Y217D02*
X643Y217D01*
X670Y217D02*
X702Y217D01*
X710Y217D02*
X743Y217D01*
X769Y217D02*
X802Y217D01*
X810Y217D02*
X842Y217D01*
X869Y217D02*
X902Y217D01*
X910Y217D02*
X942Y217D01*
X97Y216D02*
X126Y216D01*
X142Y216D02*
X170Y216D01*
X197Y216D02*
X226Y216D01*
X242Y216D02*
X270Y216D01*
X297Y216D02*
X326Y216D01*
X342Y216D02*
X370Y216D01*
X470Y216D02*
X498Y216D01*
X514Y216D02*
X543Y216D01*
X570Y216D02*
X598Y216D01*
X614Y216D02*
X643Y216D01*
X670Y216D02*
X698Y216D01*
X714Y216D02*
X743Y216D01*
X769Y216D02*
X798Y216D01*
X814Y216D02*
X842Y216D01*
X869Y216D02*
X898Y216D01*
X914Y216D02*
X942Y216D01*
X97Y215D02*
X123Y215D01*
X144Y215D02*
X170Y215D01*
X197Y215D02*
X223Y215D01*
X244Y215D02*
X270Y215D01*
X297Y215D02*
X323Y215D01*
X344Y215D02*
X370Y215D01*
X470Y215D02*
X496Y215D01*
X516Y215D02*
X543Y215D01*
X570Y215D02*
X596Y215D01*
X616Y215D02*
X643Y215D01*
X670Y215D02*
X696Y215D01*
X716Y215D02*
X743Y215D01*
X769Y215D02*
X796Y215D01*
X816Y215D02*
X842Y215D01*
X869Y215D02*
X896Y215D01*
X916Y215D02*
X942Y215D01*
X97Y214D02*
X122Y214D01*
X146Y214D02*
X170Y214D01*
X197Y214D02*
X222Y214D01*
X246Y214D02*
X270Y214D01*
X297Y214D02*
X322Y214D01*
X346Y214D02*
X370Y214D01*
X470Y214D02*
X494Y214D01*
X518Y214D02*
X543Y214D01*
X570Y214D02*
X594Y214D01*
X618Y214D02*
X643Y214D01*
X670Y214D02*
X694Y214D01*
X718Y214D02*
X743Y214D01*
X769Y214D02*
X794Y214D01*
X818Y214D02*
X842Y214D01*
X869Y214D02*
X894Y214D01*
X918Y214D02*
X942Y214D01*
X1658Y214D02*
X1744Y214D01*
X97Y213D02*
X120Y213D01*
X147Y213D02*
X170Y213D01*
X197Y213D02*
X220Y213D01*
X247Y213D02*
X270Y213D01*
X297Y213D02*
X320Y213D01*
X347Y213D02*
X370Y213D01*
X470Y213D02*
X493Y213D01*
X520Y213D02*
X543Y213D01*
X570Y213D02*
X592Y213D01*
X620Y213D02*
X643Y213D01*
X670Y213D02*
X692Y213D01*
X720Y213D02*
X743Y213D01*
X769Y213D02*
X792Y213D01*
X820Y213D02*
X842Y213D01*
X869Y213D02*
X892Y213D01*
X920Y213D02*
X942Y213D01*
X1654Y213D02*
X1749Y213D01*
X97Y212D02*
X119Y212D01*
X149Y212D02*
X170Y212D01*
X197Y212D02*
X219Y212D01*
X249Y212D02*
X270Y212D01*
X297Y212D02*
X319Y212D01*
X349Y212D02*
X370Y212D01*
X470Y212D02*
X491Y212D01*
X521Y212D02*
X543Y212D01*
X570Y212D02*
X591Y212D01*
X621Y212D02*
X643Y212D01*
X670Y212D02*
X691Y212D01*
X721Y212D02*
X743Y212D01*
X769Y212D02*
X791Y212D01*
X821Y212D02*
X842Y212D01*
X869Y212D02*
X891Y212D01*
X921Y212D02*
X942Y212D01*
X1651Y212D02*
X1751Y212D01*
X97Y211D02*
X118Y211D01*
X150Y211D02*
X170Y211D01*
X197Y211D02*
X218Y211D01*
X250Y211D02*
X270Y211D01*
X297Y211D02*
X318Y211D01*
X350Y211D02*
X370Y211D01*
X470Y211D02*
X490Y211D01*
X522Y211D02*
X543Y211D01*
X570Y211D02*
X590Y211D01*
X622Y211D02*
X643Y211D01*
X670Y211D02*
X690Y211D01*
X722Y211D02*
X743Y211D01*
X769Y211D02*
X790Y211D01*
X822Y211D02*
X842Y211D01*
X869Y211D02*
X890Y211D01*
X922Y211D02*
X942Y211D01*
X1649Y211D02*
X1754Y211D01*
X97Y210D02*
X117Y210D01*
X151Y210D02*
X170Y210D01*
X197Y210D02*
X217Y210D01*
X251Y210D02*
X270Y210D01*
X297Y210D02*
X317Y210D01*
X351Y210D02*
X370Y210D01*
X470Y210D02*
X489Y210D01*
X523Y210D02*
X543Y210D01*
X570Y210D02*
X589Y210D01*
X623Y210D02*
X643Y210D01*
X670Y210D02*
X689Y210D01*
X723Y210D02*
X743Y210D01*
X769Y210D02*
X789Y210D01*
X823Y210D02*
X842Y210D01*
X869Y210D02*
X889Y210D01*
X923Y210D02*
X942Y210D01*
X1647Y210D02*
X1756Y210D01*
X97Y209D02*
X116Y209D01*
X152Y209D02*
X170Y209D01*
X197Y209D02*
X216Y209D01*
X251Y209D02*
X270Y209D01*
X297Y209D02*
X316Y209D01*
X351Y209D02*
X370Y209D01*
X470Y209D02*
X488Y209D01*
X524Y209D02*
X543Y209D01*
X570Y209D02*
X588Y209D01*
X624Y209D02*
X643Y209D01*
X670Y209D02*
X688Y209D01*
X724Y209D02*
X743Y209D01*
X769Y209D02*
X788Y209D01*
X824Y209D02*
X842Y209D01*
X869Y209D02*
X888Y209D01*
X924Y209D02*
X942Y209D01*
X1645Y209D02*
X1757Y209D01*
X97Y208D02*
X115Y208D01*
X152Y208D02*
X170Y208D01*
X197Y208D02*
X215Y208D01*
X252Y208D02*
X270Y208D01*
X297Y208D02*
X315Y208D01*
X352Y208D02*
X370Y208D01*
X470Y208D02*
X488Y208D01*
X525Y208D02*
X543Y208D01*
X570Y208D02*
X588Y208D01*
X625Y208D02*
X643Y208D01*
X670Y208D02*
X688Y208D01*
X724Y208D02*
X743Y208D01*
X769Y208D02*
X787Y208D01*
X824Y208D02*
X842Y208D01*
X869Y208D02*
X887Y208D01*
X924Y208D02*
X942Y208D01*
X1644Y208D02*
X1759Y208D01*
X97Y207D02*
X115Y207D01*
X153Y207D02*
X170Y207D01*
X197Y207D02*
X215Y207D01*
X253Y207D02*
X270Y207D01*
X297Y207D02*
X315Y207D01*
X353Y207D02*
X370Y207D01*
X470Y207D02*
X487Y207D01*
X525Y207D02*
X543Y207D01*
X570Y207D02*
X587Y207D01*
X625Y207D02*
X643Y207D01*
X670Y207D02*
X687Y207D01*
X725Y207D02*
X743Y207D01*
X769Y207D02*
X787Y207D01*
X825Y207D02*
X842Y207D01*
X869Y207D02*
X887Y207D01*
X925Y207D02*
X942Y207D01*
X1642Y207D02*
X1760Y207D01*
X97Y206D02*
X114Y206D01*
X154Y206D02*
X170Y206D01*
X197Y206D02*
X214Y206D01*
X253Y206D02*
X270Y206D01*
X297Y206D02*
X314Y206D01*
X353Y206D02*
X370Y206D01*
X470Y206D02*
X486Y206D01*
X526Y206D02*
X543Y206D01*
X570Y206D02*
X586Y206D01*
X626Y206D02*
X643Y206D01*
X670Y206D02*
X686Y206D01*
X726Y206D02*
X743Y206D01*
X769Y206D02*
X786Y206D01*
X826Y206D02*
X842Y206D01*
X869Y206D02*
X886Y206D01*
X926Y206D02*
X942Y206D01*
X1641Y206D02*
X1761Y206D01*
X97Y205D02*
X114Y205D01*
X154Y205D02*
X170Y205D01*
X197Y205D02*
X214Y205D01*
X254Y205D02*
X270Y205D01*
X297Y205D02*
X313Y205D01*
X354Y205D02*
X370Y205D01*
X470Y205D02*
X486Y205D01*
X526Y205D02*
X543Y205D01*
X570Y205D02*
X586Y205D01*
X626Y205D02*
X643Y205D01*
X670Y205D02*
X686Y205D01*
X726Y205D02*
X743Y205D01*
X769Y205D02*
X786Y205D01*
X826Y205D02*
X842Y205D01*
X869Y205D02*
X886Y205D01*
X926Y205D02*
X942Y205D01*
X1640Y205D02*
X1763Y205D01*
X97Y204D02*
X113Y204D01*
X155Y204D02*
X170Y204D01*
X197Y204D02*
X213Y204D01*
X254Y204D02*
X270Y204D01*
X297Y204D02*
X313Y204D01*
X354Y204D02*
X370Y204D01*
X470Y204D02*
X485Y204D01*
X527Y204D02*
X543Y204D01*
X570Y204D02*
X585Y204D01*
X627Y204D02*
X643Y204D01*
X670Y204D02*
X685Y204D01*
X727Y204D02*
X743Y204D01*
X769Y204D02*
X785Y204D01*
X827Y204D02*
X842Y204D01*
X869Y204D02*
X885Y204D01*
X927Y204D02*
X942Y204D01*
X1639Y204D02*
X1764Y204D01*
X97Y203D02*
X113Y203D01*
X155Y203D02*
X170Y203D01*
X197Y203D02*
X213Y203D01*
X255Y203D02*
X270Y203D01*
X297Y203D02*
X313Y203D01*
X355Y203D02*
X370Y203D01*
X470Y203D02*
X485Y203D01*
X527Y203D02*
X543Y203D01*
X570Y203D02*
X585Y203D01*
X627Y203D02*
X643Y203D01*
X670Y203D02*
X685Y203D01*
X727Y203D02*
X743Y203D01*
X769Y203D02*
X785Y203D01*
X827Y203D02*
X842Y203D01*
X869Y203D02*
X885Y203D01*
X927Y203D02*
X942Y203D01*
X1638Y203D02*
X1765Y203D01*
X97Y202D02*
X112Y202D01*
X155Y202D02*
X170Y202D01*
X197Y202D02*
X212Y202D01*
X255Y202D02*
X270Y202D01*
X297Y202D02*
X312Y202D01*
X355Y202D02*
X370Y202D01*
X470Y202D02*
X485Y202D01*
X528Y202D02*
X543Y202D01*
X570Y202D02*
X585Y202D01*
X628Y202D02*
X643Y202D01*
X670Y202D02*
X685Y202D01*
X727Y202D02*
X743Y202D01*
X769Y202D02*
X785Y202D01*
X827Y202D02*
X842Y202D01*
X869Y202D02*
X884Y202D01*
X927Y202D02*
X942Y202D01*
X1637Y202D02*
X1766Y202D01*
X97Y201D02*
X112Y201D01*
X156Y201D02*
X170Y201D01*
X197Y201D02*
X212Y201D01*
X256Y201D02*
X270Y201D01*
X297Y201D02*
X312Y201D01*
X355Y201D02*
X370Y201D01*
X470Y201D02*
X484Y201D01*
X528Y201D02*
X543Y201D01*
X570Y201D02*
X584Y201D01*
X628Y201D02*
X643Y201D01*
X670Y201D02*
X684Y201D01*
X728Y201D02*
X743Y201D01*
X769Y201D02*
X784Y201D01*
X828Y201D02*
X842Y201D01*
X869Y201D02*
X884Y201D01*
X928Y201D02*
X942Y201D01*
X1636Y201D02*
X1766Y201D01*
X97Y200D02*
X112Y200D01*
X156Y200D02*
X170Y200D01*
X197Y200D02*
X212Y200D01*
X256Y200D02*
X270Y200D01*
X297Y200D02*
X312Y200D01*
X356Y200D02*
X370Y200D01*
X470Y200D02*
X484Y200D01*
X528Y200D02*
X543Y200D01*
X570Y200D02*
X584Y200D01*
X628Y200D02*
X643Y200D01*
X670Y200D02*
X684Y200D01*
X728Y200D02*
X743Y200D01*
X769Y200D02*
X784Y200D01*
X828Y200D02*
X842Y200D01*
X869Y200D02*
X884Y200D01*
X928Y200D02*
X942Y200D01*
X1635Y200D02*
X1767Y200D01*
X97Y199D02*
X112Y199D01*
X156Y199D02*
X170Y199D01*
X197Y199D02*
X212Y199D01*
X256Y199D02*
X270Y199D01*
X297Y199D02*
X312Y199D01*
X356Y199D02*
X370Y199D01*
X470Y199D02*
X484Y199D01*
X528Y199D02*
X543Y199D01*
X570Y199D02*
X584Y199D01*
X628Y199D02*
X643Y199D01*
X670Y199D02*
X684Y199D01*
X728Y199D02*
X743Y199D01*
X769Y199D02*
X784Y199D01*
X828Y199D02*
X842Y199D01*
X869Y199D02*
X884Y199D01*
X928Y199D02*
X942Y199D01*
X1635Y199D02*
X1696Y199D01*
X1707Y199D02*
X1768Y199D01*
X97Y198D02*
X111Y198D01*
X156Y198D02*
X170Y198D01*
X197Y198D02*
X211Y198D01*
X256Y198D02*
X270Y198D01*
X297Y198D02*
X311Y198D01*
X356Y198D02*
X370Y198D01*
X470Y198D02*
X484Y198D01*
X528Y198D02*
X543Y198D01*
X570Y198D02*
X584Y198D01*
X628Y198D02*
X643Y198D01*
X670Y198D02*
X684Y198D01*
X728Y198D02*
X743Y198D01*
X769Y198D02*
X784Y198D01*
X828Y198D02*
X842Y198D01*
X869Y198D02*
X884Y198D01*
X928Y198D02*
X942Y198D01*
X1634Y198D02*
X1692Y198D01*
X1710Y198D02*
X1769Y198D01*
X97Y197D02*
X111Y197D01*
X156Y197D02*
X170Y197D01*
X197Y197D02*
X211Y197D01*
X256Y197D02*
X270Y197D01*
X297Y197D02*
X311Y197D01*
X356Y197D02*
X370Y197D01*
X470Y197D02*
X484Y197D01*
X529Y197D02*
X543Y197D01*
X570Y197D02*
X584Y197D01*
X628Y197D02*
X643Y197D01*
X670Y197D02*
X684Y197D01*
X728Y197D02*
X743Y197D01*
X769Y197D02*
X784Y197D01*
X828Y197D02*
X842Y197D01*
X869Y197D02*
X884Y197D01*
X928Y197D02*
X942Y197D01*
X1633Y197D02*
X1690Y197D01*
X1712Y197D02*
X1769Y197D01*
X97Y196D02*
X111Y196D01*
X156Y196D02*
X170Y196D01*
X197Y196D02*
X211Y196D01*
X256Y196D02*
X270Y196D01*
X297Y196D02*
X311Y196D01*
X356Y196D02*
X370Y196D01*
X470Y196D02*
X484Y196D01*
X529Y196D02*
X543Y196D01*
X570Y196D02*
X584Y196D01*
X629Y196D02*
X643Y196D01*
X670Y196D02*
X684Y196D01*
X728Y196D02*
X743Y196D01*
X769Y196D02*
X783Y196D01*
X828Y196D02*
X842Y196D01*
X869Y196D02*
X883Y196D01*
X928Y196D02*
X942Y196D01*
X1633Y196D02*
X1689Y196D01*
X1714Y196D02*
X1770Y196D01*
X97Y195D02*
X111Y195D01*
X156Y195D02*
X170Y195D01*
X197Y195D02*
X211Y195D01*
X256Y195D02*
X270Y195D01*
X297Y195D02*
X311Y195D01*
X356Y195D02*
X370Y195D01*
X470Y195D02*
X484Y195D01*
X529Y195D02*
X543Y195D01*
X570Y195D02*
X584Y195D01*
X629Y195D02*
X643Y195D01*
X670Y195D02*
X684Y195D01*
X728Y195D02*
X743Y195D01*
X769Y195D02*
X783Y195D01*
X828Y195D02*
X842Y195D01*
X869Y195D02*
X883Y195D01*
X928Y195D02*
X942Y195D01*
X1632Y195D02*
X1687Y195D01*
X1715Y195D02*
X1770Y195D01*
X97Y194D02*
X111Y194D01*
X156Y194D02*
X170Y194D01*
X197Y194D02*
X211Y194D01*
X256Y194D02*
X270Y194D01*
X297Y194D02*
X311Y194D01*
X356Y194D02*
X370Y194D01*
X470Y194D02*
X484Y194D01*
X529Y194D02*
X543Y194D01*
X570Y194D02*
X584Y194D01*
X628Y194D02*
X643Y194D01*
X670Y194D02*
X684Y194D01*
X728Y194D02*
X743Y194D01*
X769Y194D02*
X784Y194D01*
X828Y194D02*
X842Y194D01*
X869Y194D02*
X883Y194D01*
X928Y194D02*
X942Y194D01*
X1632Y194D02*
X1686Y194D01*
X1716Y194D02*
X1771Y194D01*
X97Y193D02*
X111Y193D01*
X156Y193D02*
X170Y193D01*
X197Y193D02*
X211Y193D01*
X256Y193D02*
X270Y193D01*
X297Y193D02*
X311Y193D01*
X356Y193D02*
X370Y193D01*
X470Y193D02*
X484Y193D01*
X528Y193D02*
X543Y193D01*
X570Y193D02*
X584Y193D01*
X628Y193D02*
X643Y193D01*
X670Y193D02*
X684Y193D01*
X728Y193D02*
X743Y193D01*
X769Y193D02*
X784Y193D01*
X828Y193D02*
X842Y193D01*
X869Y193D02*
X884Y193D01*
X928Y193D02*
X942Y193D01*
X1631Y193D02*
X1685Y193D01*
X1717Y193D02*
X1771Y193D01*
X97Y192D02*
X112Y192D01*
X156Y192D02*
X170Y192D01*
X197Y192D02*
X212Y192D01*
X256Y192D02*
X270Y192D01*
X297Y192D02*
X311Y192D01*
X356Y192D02*
X370Y192D01*
X470Y192D02*
X484Y192D01*
X528Y192D02*
X543Y192D01*
X570Y192D02*
X584Y192D01*
X628Y192D02*
X643Y192D01*
X670Y192D02*
X684Y192D01*
X728Y192D02*
X743Y192D01*
X769Y192D02*
X784Y192D01*
X828Y192D02*
X842Y192D01*
X869Y192D02*
X884Y192D01*
X928Y192D02*
X942Y192D01*
X1631Y192D02*
X1684Y192D01*
X1718Y192D02*
X1772Y192D01*
X97Y191D02*
X112Y191D01*
X156Y191D02*
X170Y191D01*
X197Y191D02*
X212Y191D01*
X256Y191D02*
X270Y191D01*
X297Y191D02*
X312Y191D01*
X356Y191D02*
X370Y191D01*
X470Y191D02*
X484Y191D01*
X528Y191D02*
X543Y191D01*
X570Y191D02*
X584Y191D01*
X628Y191D02*
X643Y191D01*
X670Y191D02*
X684Y191D01*
X728Y191D02*
X743Y191D01*
X769Y191D02*
X784Y191D01*
X828Y191D02*
X842Y191D01*
X869Y191D02*
X884Y191D01*
X928Y191D02*
X942Y191D01*
X1630Y191D02*
X1683Y191D01*
X1719Y191D02*
X1772Y191D01*
X97Y190D02*
X112Y190D01*
X156Y190D02*
X170Y190D01*
X197Y190D02*
X212Y190D01*
X256Y190D02*
X270Y190D01*
X297Y190D02*
X312Y190D01*
X356Y190D02*
X370Y190D01*
X470Y190D02*
X484Y190D01*
X528Y190D02*
X543Y190D01*
X570Y190D02*
X584Y190D01*
X628Y190D02*
X643Y190D01*
X670Y190D02*
X684Y190D01*
X728Y190D02*
X743Y190D01*
X769Y190D02*
X784Y190D01*
X828Y190D02*
X842Y190D01*
X869Y190D02*
X884Y190D01*
X928Y190D02*
X942Y190D01*
X1630Y190D02*
X1683Y190D01*
X1720Y190D02*
X1773Y190D01*
X97Y189D02*
X112Y189D01*
X155Y189D02*
X170Y189D01*
X197Y189D02*
X212Y189D01*
X255Y189D02*
X270Y189D01*
X297Y189D02*
X312Y189D01*
X355Y189D02*
X370Y189D01*
X470Y189D02*
X485Y189D01*
X528Y189D02*
X543Y189D01*
X570Y189D02*
X584Y189D01*
X628Y189D02*
X643Y189D01*
X670Y189D02*
X684Y189D01*
X728Y189D02*
X743Y189D01*
X769Y189D02*
X784Y189D01*
X828Y189D02*
X842Y189D01*
X869Y189D02*
X884Y189D01*
X927Y189D02*
X942Y189D01*
X1630Y189D02*
X1682Y189D01*
X1721Y189D02*
X1773Y189D01*
X97Y188D02*
X113Y188D01*
X155Y188D02*
X170Y188D01*
X197Y188D02*
X213Y188D01*
X255Y188D02*
X270Y188D01*
X297Y188D02*
X312Y188D01*
X355Y188D02*
X370Y188D01*
X470Y188D02*
X485Y188D01*
X527Y188D02*
X543Y188D01*
X570Y188D02*
X585Y188D01*
X627Y188D02*
X643Y188D01*
X670Y188D02*
X685Y188D01*
X727Y188D02*
X743Y188D01*
X769Y188D02*
X785Y188D01*
X827Y188D02*
X842Y188D01*
X869Y188D02*
X885Y188D01*
X927Y188D02*
X942Y188D01*
X1629Y188D02*
X1681Y188D01*
X1721Y188D02*
X1773Y188D01*
X97Y187D02*
X113Y187D01*
X155Y187D02*
X170Y187D01*
X197Y187D02*
X213Y187D01*
X255Y187D02*
X270Y187D01*
X297Y187D02*
X313Y187D01*
X355Y187D02*
X370Y187D01*
X470Y187D02*
X485Y187D01*
X527Y187D02*
X543Y187D01*
X570Y187D02*
X585Y187D01*
X627Y187D02*
X643Y187D01*
X670Y187D02*
X685Y187D01*
X727Y187D02*
X743Y187D01*
X769Y187D02*
X785Y187D01*
X827Y187D02*
X842Y187D01*
X869Y187D02*
X885Y187D01*
X927Y187D02*
X942Y187D01*
X1629Y187D02*
X1681Y187D01*
X1722Y187D02*
X1774Y187D01*
X97Y186D02*
X113Y186D01*
X154Y186D02*
X170Y186D01*
X197Y186D02*
X213Y186D01*
X254Y186D02*
X270Y186D01*
X297Y186D02*
X313Y186D01*
X354Y186D02*
X370Y186D01*
X470Y186D02*
X486Y186D01*
X527Y186D02*
X543Y186D01*
X570Y186D02*
X586Y186D01*
X626Y186D02*
X643Y186D01*
X670Y186D02*
X686Y186D01*
X726Y186D02*
X743Y186D01*
X769Y186D02*
X786Y186D01*
X826Y186D02*
X842Y186D01*
X869Y186D02*
X886Y186D01*
X926Y186D02*
X942Y186D01*
X1629Y186D02*
X1680Y186D01*
X1722Y186D02*
X1774Y186D01*
X97Y185D02*
X114Y185D01*
X154Y185D02*
X170Y185D01*
X197Y185D02*
X214Y185D01*
X254Y185D02*
X270Y185D01*
X297Y185D02*
X314Y185D01*
X354Y185D02*
X370Y185D01*
X470Y185D02*
X486Y185D01*
X526Y185D02*
X543Y185D01*
X570Y185D02*
X586Y185D01*
X626Y185D02*
X643Y185D01*
X670Y185D02*
X686Y185D01*
X726Y185D02*
X743Y185D01*
X769Y185D02*
X786Y185D01*
X826Y185D02*
X842Y185D01*
X869Y185D02*
X886Y185D01*
X926Y185D02*
X942Y185D01*
X1629Y185D02*
X1680Y185D01*
X1722Y185D02*
X1774Y185D01*
X97Y184D02*
X114Y184D01*
X153Y184D02*
X170Y184D01*
X197Y184D02*
X214Y184D01*
X253Y184D02*
X270Y184D01*
X297Y184D02*
X314Y184D01*
X353Y184D02*
X370Y184D01*
X470Y184D02*
X487Y184D01*
X525Y184D02*
X543Y184D01*
X570Y184D02*
X587Y184D01*
X625Y184D02*
X643Y184D01*
X670Y184D02*
X687Y184D01*
X725Y184D02*
X743Y184D01*
X769Y184D02*
X787Y184D01*
X825Y184D02*
X842Y184D01*
X869Y184D02*
X887Y184D01*
X925Y184D02*
X942Y184D01*
X1628Y184D02*
X1680Y184D01*
X1723Y184D02*
X1774Y184D01*
X97Y183D02*
X115Y183D01*
X153Y183D02*
X170Y183D01*
X197Y183D02*
X215Y183D01*
X252Y183D02*
X270Y183D01*
X297Y183D02*
X315Y183D01*
X352Y183D02*
X370Y183D01*
X470Y183D02*
X487Y183D01*
X525Y183D02*
X543Y183D01*
X570Y183D02*
X587Y183D01*
X625Y183D02*
X643Y183D01*
X670Y183D02*
X687Y183D01*
X725Y183D02*
X743Y183D01*
X769Y183D02*
X787Y183D01*
X825Y183D02*
X842Y183D01*
X869Y183D02*
X887Y183D01*
X925Y183D02*
X942Y183D01*
X1628Y183D02*
X1679Y183D01*
X1723Y183D02*
X1774Y183D01*
X97Y182D02*
X116Y182D01*
X152Y182D02*
X170Y182D01*
X197Y182D02*
X216Y182D01*
X252Y182D02*
X270Y182D01*
X297Y182D02*
X316Y182D01*
X352Y182D02*
X370Y182D01*
X470Y182D02*
X488Y182D01*
X524Y182D02*
X543Y182D01*
X570Y182D02*
X588Y182D01*
X624Y182D02*
X643Y182D01*
X670Y182D02*
X688Y182D01*
X724Y182D02*
X743Y182D01*
X769Y182D02*
X788Y182D01*
X824Y182D02*
X842Y182D01*
X869Y182D02*
X888Y182D01*
X924Y182D02*
X942Y182D01*
X1628Y182D02*
X1679Y182D01*
X1723Y182D02*
X1774Y182D01*
X97Y181D02*
X117Y181D01*
X151Y181D02*
X170Y181D01*
X197Y181D02*
X217Y181D01*
X251Y181D02*
X270Y181D01*
X297Y181D02*
X317Y181D01*
X351Y181D02*
X370Y181D01*
X470Y181D02*
X489Y181D01*
X523Y181D02*
X543Y181D01*
X570Y181D02*
X589Y181D01*
X623Y181D02*
X643Y181D01*
X670Y181D02*
X689Y181D01*
X723Y181D02*
X743Y181D01*
X769Y181D02*
X789Y181D01*
X823Y181D02*
X842Y181D01*
X869Y181D02*
X889Y181D01*
X923Y181D02*
X942Y181D01*
X1628Y181D02*
X1679Y181D01*
X1723Y181D02*
X1775Y181D01*
X97Y180D02*
X118Y180D01*
X150Y180D02*
X170Y180D01*
X197Y180D02*
X218Y180D01*
X250Y180D02*
X270Y180D01*
X297Y180D02*
X317Y180D01*
X350Y180D02*
X370Y180D01*
X470Y180D02*
X490Y180D01*
X522Y180D02*
X543Y180D01*
X570Y180D02*
X590Y180D01*
X622Y180D02*
X643Y180D01*
X670Y180D02*
X690Y180D01*
X722Y180D02*
X743Y180D01*
X769Y180D02*
X790Y180D01*
X822Y180D02*
X842Y180D01*
X869Y180D02*
X890Y180D01*
X922Y180D02*
X942Y180D01*
X1628Y180D02*
X1679Y180D01*
X1724Y180D02*
X1775Y180D01*
X97Y179D02*
X119Y179D01*
X149Y179D02*
X170Y179D01*
X197Y179D02*
X219Y179D01*
X249Y179D02*
X270Y179D01*
X297Y179D02*
X319Y179D01*
X349Y179D02*
X370Y179D01*
X470Y179D02*
X491Y179D01*
X521Y179D02*
X543Y179D01*
X570Y179D02*
X591Y179D01*
X621Y179D02*
X643Y179D01*
X670Y179D02*
X691Y179D01*
X721Y179D02*
X743Y179D01*
X769Y179D02*
X791Y179D01*
X821Y179D02*
X842Y179D01*
X869Y179D02*
X891Y179D01*
X921Y179D02*
X942Y179D01*
X1628Y179D02*
X1679Y179D01*
X1724Y179D02*
X1775Y179D01*
X97Y178D02*
X120Y178D01*
X148Y178D02*
X170Y178D01*
X197Y178D02*
X220Y178D01*
X248Y178D02*
X270Y178D01*
X297Y178D02*
X320Y178D01*
X348Y178D02*
X370Y178D01*
X470Y178D02*
X492Y178D01*
X520Y178D02*
X543Y178D01*
X570Y178D02*
X592Y178D01*
X620Y178D02*
X643Y178D01*
X670Y178D02*
X692Y178D01*
X720Y178D02*
X743Y178D01*
X769Y178D02*
X792Y178D01*
X820Y178D02*
X842Y178D01*
X869Y178D02*
X892Y178D01*
X920Y178D02*
X942Y178D01*
X1628Y178D02*
X1679Y178D01*
X1724Y178D02*
X1775Y178D01*
X97Y177D02*
X121Y177D01*
X146Y177D02*
X170Y177D01*
X197Y177D02*
X221Y177D01*
X246Y177D02*
X270Y177D01*
X297Y177D02*
X321Y177D01*
X346Y177D02*
X370Y177D01*
X470Y177D02*
X493Y177D01*
X519Y177D02*
X543Y177D01*
X570Y177D02*
X593Y177D01*
X619Y177D02*
X643Y177D01*
X670Y177D02*
X693Y177D01*
X719Y177D02*
X743Y177D01*
X769Y177D02*
X793Y177D01*
X819Y177D02*
X842Y177D01*
X869Y177D02*
X893Y177D01*
X919Y177D02*
X942Y177D01*
X1628Y177D02*
X1679Y177D01*
X1724Y177D02*
X1775Y177D01*
X97Y176D02*
X123Y176D01*
X145Y176D02*
X170Y176D01*
X197Y176D02*
X223Y176D01*
X245Y176D02*
X270Y176D01*
X297Y176D02*
X323Y176D01*
X345Y176D02*
X370Y176D01*
X470Y176D02*
X495Y176D01*
X517Y176D02*
X543Y176D01*
X570Y176D02*
X595Y176D01*
X617Y176D02*
X643Y176D01*
X670Y176D02*
X695Y176D01*
X717Y176D02*
X743Y176D01*
X769Y176D02*
X795Y176D01*
X817Y176D02*
X842Y176D01*
X869Y176D02*
X895Y176D01*
X917Y176D02*
X942Y176D01*
X1628Y176D02*
X1679Y176D01*
X1724Y176D02*
X1775Y176D01*
X97Y175D02*
X125Y175D01*
X143Y175D02*
X170Y175D01*
X197Y175D02*
X225Y175D01*
X243Y175D02*
X270Y175D01*
X297Y175D02*
X325Y175D01*
X343Y175D02*
X370Y175D01*
X470Y175D02*
X497Y175D01*
X515Y175D02*
X543Y175D01*
X570Y175D02*
X597Y175D01*
X615Y175D02*
X643Y175D01*
X670Y175D02*
X697Y175D01*
X715Y175D02*
X743Y175D01*
X769Y175D02*
X797Y175D01*
X815Y175D02*
X842Y175D01*
X869Y175D02*
X897Y175D01*
X915Y175D02*
X942Y175D01*
X1628Y175D02*
X1679Y175D01*
X1724Y175D02*
X1775Y175D01*
X97Y174D02*
X128Y174D01*
X140Y174D02*
X170Y174D01*
X197Y174D02*
X228Y174D01*
X240Y174D02*
X270Y174D01*
X297Y174D02*
X328Y174D01*
X340Y174D02*
X370Y174D01*
X470Y174D02*
X500Y174D01*
X512Y174D02*
X543Y174D01*
X570Y174D02*
X600Y174D01*
X612Y174D02*
X643Y174D01*
X670Y174D02*
X700Y174D01*
X712Y174D02*
X743Y174D01*
X769Y174D02*
X800Y174D01*
X812Y174D02*
X842Y174D01*
X869Y174D02*
X900Y174D01*
X912Y174D02*
X942Y174D01*
X1628Y174D02*
X1679Y174D01*
X1723Y174D02*
X1775Y174D01*
X97Y173D02*
X170Y173D01*
X197Y173D02*
X270Y173D01*
X297Y173D02*
X370Y173D01*
X470Y173D02*
X543Y173D01*
X570Y173D02*
X643Y173D01*
X670Y173D02*
X743Y173D01*
X769Y173D02*
X842Y173D01*
X869Y173D02*
X942Y173D01*
X1628Y173D02*
X1679Y173D01*
X1723Y173D02*
X1774Y173D01*
X97Y172D02*
X170Y172D01*
X197Y172D02*
X270Y172D01*
X297Y172D02*
X370Y172D01*
X470Y172D02*
X543Y172D01*
X570Y172D02*
X643Y172D01*
X670Y172D02*
X743Y172D01*
X769Y172D02*
X842Y172D01*
X869Y172D02*
X942Y172D01*
X1628Y172D02*
X1679Y172D01*
X1723Y172D02*
X1774Y172D01*
X97Y171D02*
X170Y171D01*
X197Y171D02*
X270Y171D01*
X297Y171D02*
X370Y171D01*
X470Y171D02*
X543Y171D01*
X570Y171D02*
X643Y171D01*
X670Y171D02*
X743Y171D01*
X769Y171D02*
X842Y171D01*
X869Y171D02*
X942Y171D01*
X1628Y171D02*
X1680Y171D01*
X1723Y171D02*
X1774Y171D01*
X97Y170D02*
X170Y170D01*
X197Y170D02*
X270Y170D01*
X297Y170D02*
X370Y170D01*
X470Y170D02*
X543Y170D01*
X570Y170D02*
X643Y170D01*
X670Y170D02*
X743Y170D01*
X769Y170D02*
X842Y170D01*
X869Y170D02*
X942Y170D01*
X1629Y170D02*
X1680Y170D01*
X1722Y170D02*
X1774Y170D01*
X97Y169D02*
X170Y169D01*
X197Y169D02*
X270Y169D01*
X297Y169D02*
X370Y169D01*
X470Y169D02*
X543Y169D01*
X570Y169D02*
X643Y169D01*
X670Y169D02*
X743Y169D01*
X769Y169D02*
X842Y169D01*
X869Y169D02*
X942Y169D01*
X1629Y169D02*
X1681Y169D01*
X1722Y169D02*
X1774Y169D01*
X97Y168D02*
X170Y168D01*
X197Y168D02*
X270Y168D01*
X297Y168D02*
X370Y168D01*
X470Y168D02*
X543Y168D01*
X570Y168D02*
X643Y168D01*
X670Y168D02*
X743Y168D01*
X769Y168D02*
X842Y168D01*
X869Y168D02*
X942Y168D01*
X1629Y168D02*
X1681Y168D01*
X1722Y168D02*
X1773Y168D01*
X97Y167D02*
X170Y167D01*
X197Y167D02*
X270Y167D01*
X297Y167D02*
X370Y167D01*
X470Y167D02*
X543Y167D01*
X570Y167D02*
X643Y167D01*
X670Y167D02*
X743Y167D01*
X769Y167D02*
X842Y167D01*
X869Y167D02*
X942Y167D01*
X1629Y167D02*
X1682Y167D01*
X1721Y167D02*
X1773Y167D01*
X97Y166D02*
X170Y166D01*
X197Y166D02*
X270Y166D01*
X297Y166D02*
X370Y166D01*
X470Y166D02*
X543Y166D01*
X570Y166D02*
X643Y166D01*
X670Y166D02*
X743Y166D01*
X769Y166D02*
X842Y166D01*
X869Y166D02*
X942Y166D01*
X1630Y166D02*
X1682Y166D01*
X1720Y166D02*
X1773Y166D01*
X97Y165D02*
X170Y165D01*
X197Y165D02*
X270Y165D01*
X297Y165D02*
X370Y165D01*
X470Y165D02*
X543Y165D01*
X570Y165D02*
X643Y165D01*
X670Y165D02*
X743Y165D01*
X769Y165D02*
X842Y165D01*
X869Y165D02*
X942Y165D01*
X1630Y165D02*
X1683Y165D01*
X1720Y165D02*
X1772Y165D01*
X97Y164D02*
X170Y164D01*
X197Y164D02*
X270Y164D01*
X297Y164D02*
X370Y164D01*
X470Y164D02*
X543Y164D01*
X570Y164D02*
X643Y164D01*
X670Y164D02*
X743Y164D01*
X769Y164D02*
X842Y164D01*
X869Y164D02*
X942Y164D01*
X1630Y164D02*
X1684Y164D01*
X1719Y164D02*
X1772Y164D01*
X97Y163D02*
X170Y163D01*
X197Y163D02*
X270Y163D01*
X297Y163D02*
X370Y163D01*
X470Y163D02*
X543Y163D01*
X570Y163D02*
X643Y163D01*
X670Y163D02*
X743Y163D01*
X769Y163D02*
X842Y163D01*
X869Y163D02*
X942Y163D01*
X1631Y163D02*
X1684Y163D01*
X1718Y163D02*
X1772Y163D01*
X97Y162D02*
X170Y162D01*
X197Y162D02*
X270Y162D01*
X297Y162D02*
X370Y162D01*
X470Y162D02*
X543Y162D01*
X570Y162D02*
X643Y162D01*
X670Y162D02*
X743Y162D01*
X769Y162D02*
X842Y162D01*
X869Y162D02*
X942Y162D01*
X1631Y162D02*
X1685Y162D01*
X1717Y162D02*
X1771Y162D01*
X97Y161D02*
X170Y161D01*
X197Y161D02*
X270Y161D01*
X297Y161D02*
X370Y161D01*
X470Y161D02*
X543Y161D01*
X570Y161D02*
X643Y161D01*
X670Y161D02*
X743Y161D01*
X769Y161D02*
X842Y161D01*
X869Y161D02*
X942Y161D01*
X1632Y161D02*
X1686Y161D01*
X1716Y161D02*
X1771Y161D01*
X97Y160D02*
X170Y160D01*
X197Y160D02*
X270Y160D01*
X297Y160D02*
X370Y160D01*
X470Y160D02*
X543Y160D01*
X570Y160D02*
X643Y160D01*
X670Y160D02*
X743Y160D01*
X769Y160D02*
X842Y160D01*
X869Y160D02*
X942Y160D01*
X1632Y160D02*
X1688Y160D01*
X1715Y160D02*
X1770Y160D01*
X97Y159D02*
X170Y159D01*
X197Y159D02*
X270Y159D01*
X297Y159D02*
X370Y159D01*
X470Y159D02*
X543Y159D01*
X570Y159D02*
X643Y159D01*
X670Y159D02*
X743Y159D01*
X769Y159D02*
X842Y159D01*
X869Y159D02*
X942Y159D01*
X1633Y159D02*
X1689Y159D01*
X1713Y159D02*
X1770Y159D01*
X97Y158D02*
X170Y158D01*
X197Y158D02*
X270Y158D01*
X297Y158D02*
X370Y158D01*
X470Y158D02*
X543Y158D01*
X570Y158D02*
X643Y158D01*
X670Y158D02*
X742Y158D01*
X769Y158D02*
X842Y158D01*
X869Y158D02*
X942Y158D01*
X1633Y158D02*
X1691Y158D01*
X1712Y158D02*
X1769Y158D01*
X97Y157D02*
X170Y157D01*
X197Y157D02*
X270Y157D01*
X297Y157D02*
X370Y157D01*
X470Y157D02*
X543Y157D01*
X570Y157D02*
X643Y157D01*
X670Y157D02*
X742Y157D01*
X770Y157D02*
X842Y157D01*
X869Y157D02*
X942Y157D01*
X1634Y157D02*
X1693Y157D01*
X1709Y157D02*
X1768Y157D01*
X97Y156D02*
X170Y156D01*
X197Y156D02*
X270Y156D01*
X297Y156D02*
X370Y156D01*
X470Y156D02*
X542Y156D01*
X570Y156D02*
X642Y156D01*
X670Y156D02*
X742Y156D01*
X770Y156D02*
X842Y156D01*
X870Y156D02*
X942Y156D01*
X1635Y156D02*
X1697Y156D01*
X1706Y156D02*
X1768Y156D01*
X97Y155D02*
X170Y155D01*
X197Y155D02*
X270Y155D01*
X297Y155D02*
X370Y155D01*
X470Y155D02*
X542Y155D01*
X570Y155D02*
X642Y155D01*
X670Y155D02*
X742Y155D01*
X770Y155D02*
X842Y155D01*
X870Y155D02*
X942Y155D01*
X1636Y155D02*
X1767Y155D01*
X98Y154D02*
X170Y154D01*
X198Y154D02*
X270Y154D01*
X298Y154D02*
X370Y154D01*
X470Y154D02*
X542Y154D01*
X570Y154D02*
X642Y154D01*
X670Y154D02*
X742Y154D01*
X770Y154D02*
X842Y154D01*
X870Y154D02*
X942Y154D01*
X1636Y154D02*
X1766Y154D01*
X98Y153D02*
X170Y153D01*
X198Y153D02*
X270Y153D01*
X298Y153D02*
X370Y153D01*
X470Y153D02*
X542Y153D01*
X570Y153D02*
X642Y153D01*
X670Y153D02*
X742Y153D01*
X770Y153D02*
X842Y153D01*
X870Y153D02*
X942Y153D01*
X1637Y153D02*
X1765Y153D01*
X98Y152D02*
X170Y152D01*
X198Y152D02*
X270Y152D01*
X298Y152D02*
X370Y152D01*
X470Y152D02*
X542Y152D01*
X570Y152D02*
X642Y152D01*
X670Y152D02*
X742Y152D01*
X770Y152D02*
X842Y152D01*
X870Y152D02*
X942Y152D01*
X1638Y152D02*
X1764Y152D01*
X98Y151D02*
X170Y151D01*
X198Y151D02*
X270Y151D01*
X298Y151D02*
X369Y151D01*
X470Y151D02*
X542Y151D01*
X570Y151D02*
X642Y151D01*
X670Y151D02*
X742Y151D01*
X770Y151D02*
X842Y151D01*
X870Y151D02*
X942Y151D01*
X1639Y151D02*
X1763Y151D01*
X98Y150D02*
X169Y150D01*
X198Y150D02*
X269Y150D01*
X298Y150D02*
X369Y150D01*
X471Y150D02*
X542Y150D01*
X571Y150D02*
X642Y150D01*
X670Y150D02*
X742Y150D01*
X770Y150D02*
X841Y150D01*
X870Y150D02*
X941Y150D01*
X1640Y150D02*
X1762Y150D01*
X99Y149D02*
X169Y149D01*
X198Y149D02*
X269Y149D01*
X298Y149D02*
X369Y149D01*
X471Y149D02*
X541Y149D01*
X571Y149D02*
X641Y149D01*
X671Y149D02*
X741Y149D01*
X771Y149D02*
X841Y149D01*
X871Y149D02*
X941Y149D01*
X1641Y149D02*
X1761Y149D01*
X99Y148D02*
X169Y148D01*
X199Y148D02*
X269Y148D01*
X299Y148D02*
X369Y148D01*
X471Y148D02*
X541Y148D01*
X571Y148D02*
X641Y148D01*
X671Y148D02*
X741Y148D01*
X771Y148D02*
X841Y148D01*
X871Y148D02*
X941Y148D01*
X1643Y148D02*
X1760Y148D01*
X99Y147D02*
X169Y147D01*
X199Y147D02*
X268Y147D01*
X299Y147D02*
X368Y147D01*
X471Y147D02*
X541Y147D01*
X571Y147D02*
X641Y147D01*
X671Y147D02*
X741Y147D01*
X771Y147D02*
X841Y147D01*
X871Y147D02*
X941Y147D01*
X1644Y147D02*
X1758Y147D01*
X99Y146D02*
X168Y146D01*
X199Y146D02*
X268Y146D01*
X299Y146D02*
X368Y146D01*
X472Y146D02*
X540Y146D01*
X572Y146D02*
X640Y146D01*
X672Y146D02*
X740Y146D01*
X772Y146D02*
X840Y146D01*
X872Y146D02*
X940Y146D01*
X1646Y146D02*
X1757Y146D01*
X100Y145D02*
X168Y145D01*
X200Y145D02*
X268Y145D01*
X300Y145D02*
X368Y145D01*
X472Y145D02*
X540Y145D01*
X572Y145D02*
X640Y145D01*
X672Y145D02*
X740Y145D01*
X772Y145D02*
X840Y145D01*
X872Y145D02*
X940Y145D01*
X1647Y145D02*
X1755Y145D01*
X100Y144D02*
X167Y144D01*
X200Y144D02*
X267Y144D01*
X300Y144D02*
X367Y144D01*
X473Y144D02*
X540Y144D01*
X572Y144D02*
X640Y144D01*
X672Y144D02*
X740Y144D01*
X772Y144D02*
X840Y144D01*
X872Y144D02*
X940Y144D01*
X1649Y144D02*
X1753Y144D01*
X101Y143D02*
X167Y143D01*
X201Y143D02*
X267Y143D01*
X301Y143D02*
X367Y143D01*
X473Y143D02*
X539Y143D01*
X573Y143D02*
X639Y143D01*
X673Y143D02*
X739Y143D01*
X773Y143D02*
X839Y143D01*
X873Y143D02*
X939Y143D01*
X1652Y143D02*
X1751Y143D01*
X101Y142D02*
X166Y142D01*
X201Y142D02*
X266Y142D01*
X301Y142D02*
X366Y142D01*
X473Y142D02*
X539Y142D01*
X573Y142D02*
X639Y142D01*
X673Y142D02*
X739Y142D01*
X773Y142D02*
X839Y142D01*
X873Y142D02*
X939Y142D01*
X1655Y142D02*
X1748Y142D01*
X102Y141D02*
X166Y141D01*
X202Y141D02*
X266Y141D01*
X302Y141D02*
X366Y141D01*
X474Y141D02*
X538Y141D01*
X574Y141D02*
X638Y141D01*
X674Y141D02*
X738Y141D01*
X774Y141D02*
X838Y141D01*
X874Y141D02*
X938Y141D01*
X1660Y141D02*
X1743Y141D01*
X102Y140D02*
X165Y140D01*
X202Y140D02*
X265Y140D01*
X302Y140D02*
X365Y140D01*
X474Y140D02*
X538Y140D01*
X574Y140D02*
X638Y140D01*
X674Y140D02*
X738Y140D01*
X774Y140D02*
X838Y140D01*
X874Y140D02*
X938Y140D01*
X103Y139D02*
X165Y139D01*
X203Y139D02*
X265Y139D01*
X303Y139D02*
X365Y139D01*
X475Y139D02*
X537Y139D01*
X575Y139D02*
X637Y139D01*
X675Y139D02*
X737Y139D01*
X775Y139D02*
X837Y139D01*
X875Y139D02*
X937Y139D01*
X103Y138D02*
X164Y138D01*
X203Y138D02*
X264Y138D01*
X303Y138D02*
X364Y138D01*
X476Y138D02*
X536Y138D01*
X576Y138D02*
X636Y138D01*
X676Y138D02*
X736Y138D01*
X776Y138D02*
X836Y138D01*
X876Y138D02*
X936Y138D01*
X104Y137D02*
X163Y137D01*
X204Y137D02*
X263Y137D01*
X304Y137D02*
X363Y137D01*
X476Y137D02*
X536Y137D01*
X576Y137D02*
X636Y137D01*
X676Y137D02*
X736Y137D01*
X776Y137D02*
X836Y137D01*
X876Y137D02*
X936Y137D01*
X105Y136D02*
X163Y136D01*
X205Y136D02*
X263Y136D01*
X305Y136D02*
X363Y136D01*
X477Y136D02*
X535Y136D01*
X577Y136D02*
X635Y136D01*
X677Y136D02*
X735Y136D01*
X777Y136D02*
X835Y136D01*
X877Y136D02*
X935Y136D01*
X106Y135D02*
X162Y135D01*
X206Y135D02*
X262Y135D01*
X306Y135D02*
X362Y135D01*
X478Y135D02*
X534Y135D01*
X578Y135D02*
X634Y135D01*
X678Y135D02*
X734Y135D01*
X778Y135D02*
X834Y135D01*
X878Y135D02*
X934Y135D01*
X106Y134D02*
X161Y134D01*
X206Y134D02*
X261Y134D01*
X306Y134D02*
X361Y134D01*
X479Y134D02*
X533Y134D01*
X579Y134D02*
X633Y134D01*
X679Y134D02*
X733Y134D01*
X779Y134D02*
X833Y134D01*
X879Y134D02*
X933Y134D01*
X107Y133D02*
X160Y133D01*
X207Y133D02*
X260Y133D01*
X307Y133D02*
X360Y133D01*
X480Y133D02*
X532Y133D01*
X580Y133D02*
X632Y133D01*
X680Y133D02*
X732Y133D01*
X780Y133D02*
X832Y133D01*
X880Y133D02*
X932Y133D01*
X108Y132D02*
X159Y132D01*
X208Y132D02*
X259Y132D01*
X308Y132D02*
X359Y132D01*
X481Y132D02*
X532Y132D01*
X581Y132D02*
X631Y132D01*
X681Y132D02*
X731Y132D01*
X781Y132D02*
X831Y132D01*
X880Y132D02*
X931Y132D01*
X109Y131D02*
X158Y131D01*
X209Y131D02*
X258Y131D01*
X309Y131D02*
X358Y131D01*
X482Y131D02*
X530Y131D01*
X582Y131D02*
X630Y131D01*
X682Y131D02*
X730Y131D01*
X782Y131D02*
X830Y131D01*
X882Y131D02*
X930Y131D01*
X111Y130D02*
X157Y130D01*
X211Y130D02*
X257Y130D01*
X311Y130D02*
X357Y130D01*
X483Y130D02*
X529Y130D01*
X583Y130D02*
X629Y130D01*
X683Y130D02*
X729Y130D01*
X783Y130D02*
X829Y130D01*
X883Y130D02*
X929Y130D01*
X112Y129D02*
X156Y129D01*
X212Y129D02*
X256Y129D01*
X312Y129D02*
X356Y129D01*
X484Y129D02*
X528Y129D01*
X584Y129D02*
X628Y129D01*
X684Y129D02*
X728Y129D01*
X784Y129D02*
X828Y129D01*
X884Y129D02*
X928Y129D01*
X113Y128D02*
X154Y128D01*
X213Y128D02*
X254Y128D01*
X313Y128D02*
X354Y128D01*
X485Y128D02*
X527Y128D01*
X585Y128D02*
X627Y128D01*
X685Y128D02*
X727Y128D01*
X785Y128D02*
X827Y128D01*
X885Y128D02*
X927Y128D01*
X115Y127D02*
X153Y127D01*
X215Y127D02*
X253Y127D01*
X315Y127D02*
X353Y127D01*
X487Y127D02*
X525Y127D01*
X587Y127D02*
X625Y127D01*
X687Y127D02*
X725Y127D01*
X787Y127D02*
X825Y127D01*
X887Y127D02*
X925Y127D01*
X116Y126D02*
X151Y126D01*
X216Y126D02*
X251Y126D01*
X316Y126D02*
X351Y126D01*
X489Y126D02*
X523Y126D01*
X589Y126D02*
X623Y126D01*
X689Y126D02*
X723Y126D01*
X789Y126D02*
X823Y126D01*
X889Y126D02*
X923Y126D01*
X118Y125D02*
X149Y125D01*
X218Y125D02*
X249Y125D01*
X318Y125D02*
X349Y125D01*
X491Y125D02*
X522Y125D01*
X591Y125D02*
X622Y125D01*
X691Y125D02*
X721Y125D01*
X791Y125D02*
X821Y125D01*
X890Y125D02*
X921Y125D01*
X121Y124D02*
X147Y124D01*
X221Y124D02*
X247Y124D01*
X321Y124D02*
X347Y124D01*
X493Y124D02*
X519Y124D01*
X593Y124D02*
X619Y124D01*
X693Y124D02*
X719Y124D01*
X793Y124D02*
X819Y124D01*
X893Y124D02*
X919Y124D01*
X123Y123D02*
X144Y123D01*
X223Y123D02*
X244Y123D01*
X323Y123D02*
X344Y123D01*
X496Y123D02*
X516Y123D01*
X596Y123D02*
X616Y123D01*
X696Y123D02*
X716Y123D01*
X796Y123D02*
X816Y123D01*
X896Y123D02*
X916Y123D01*
X128Y122D02*
X140Y122D01*
X228Y122D02*
X240Y122D01*
X328Y122D02*
X340Y122D01*
X500Y122D02*
X512Y122D01*
X600Y122D02*
X612Y122D01*
X700Y122D02*
X712Y122D01*
X800Y122D02*
X812Y122D01*
X900Y122D02*
X912Y122D01*
D02*
G04 End of Copper0*
M02*