M48
INCH
T10C0.044000
T11C0.015748
%
T10
X001276Y007911
X001276Y008911
X001276Y009911
X009068Y001939
X008068Y001939
X007068Y001939
X006068Y001939
X005068Y001939
X017024Y001762
X017024Y002762
X017024Y003762
X017024Y004762
X017024Y005762
X017024Y006762
X017024Y007762
X017024Y008762
X017024Y009762
X001343Y001939
X002343Y001939
X003343Y001939
T11
X000784Y006959
X005213Y004301
T00
M30
