G04 MADE WITH FRITZING*
G04 WWW.FRITZING.ORG*
G04 DOUBLE SIDED*
G04 HOLES PLATED*
G04 CONTOUR ON CENTER OF CONTOUR VECTOR*
%ASAXBY*%
%FSLAX23Y23*%
%MOIN*%
%OFA0B0*%
%SFA1.0B1.0*%
%ADD10C,0.084000*%
%ADD11C,0.049370*%
%ADD12R,0.041496X0.045433*%
%ADD13R,0.057244X0.088740*%
%ADD14R,0.097000X0.034000*%
%ADD15R,0.072992X0.084803*%
%ADD16R,0.084803X0.072992*%
%ADD17R,0.072992X0.147795*%
%ADD18C,0.010000*%
%ADD19R,0.001000X0.001000*%
%LNMASK0*%
G90*
G70*
G54D10*
X128Y991D03*
X128Y891D03*
X128Y791D03*
X334Y194D03*
X234Y194D03*
X134Y194D03*
X507Y194D03*
X607Y194D03*
X707Y194D03*
X807Y194D03*
X907Y194D03*
X1702Y976D03*
X1702Y876D03*
X1702Y776D03*
X1702Y676D03*
X1702Y576D03*
X1702Y476D03*
X1702Y376D03*
X1702Y276D03*
X1702Y176D03*
G54D11*
X521Y430D03*
X78Y696D03*
G54D12*
X1561Y420D03*
X1486Y420D03*
X1523Y499D03*
G54D13*
X1575Y576D03*
X1575Y686D03*
G54D14*
X708Y428D03*
G54D15*
X817Y794D03*
X939Y794D03*
X994Y893D03*
X872Y893D03*
G54D16*
X1092Y824D03*
X1092Y946D03*
G54D15*
X1063Y696D03*
X941Y696D03*
X728Y666D03*
X606Y666D03*
G54D17*
X1476Y318D03*
X1476Y105D03*
G54D15*
X1299Y686D03*
X1177Y686D03*
G54D14*
X1368Y610D03*
G54D18*
G36*
X752Y466D02*
X665Y466D01*
X665Y490D01*
X752Y490D01*
X752Y466D01*
G37*
D02*
G36*
X958Y416D02*
X871Y416D01*
X871Y440D01*
X958Y440D01*
X958Y416D01*
G37*
D02*
G36*
X958Y516D02*
X871Y516D01*
X871Y540D01*
X958Y540D01*
X958Y516D01*
G37*
D02*
G36*
X752Y516D02*
X665Y516D01*
X665Y540D01*
X752Y540D01*
X752Y516D01*
G37*
D02*
G36*
X958Y466D02*
X871Y466D01*
X871Y490D01*
X958Y490D01*
X958Y466D01*
G37*
D02*
G36*
X752Y566D02*
X665Y566D01*
X665Y590D01*
X752Y590D01*
X752Y566D01*
G37*
D02*
G36*
X958Y566D02*
X871Y566D01*
X871Y590D01*
X958Y590D01*
X958Y566D01*
G37*
D02*
G36*
X986Y619D02*
X1061Y619D01*
X1061Y556D01*
X986Y556D01*
X986Y619D01*
G37*
D02*
G36*
X986Y497D02*
X1061Y497D01*
X1061Y434D01*
X986Y434D01*
X986Y497D01*
G37*
D02*
G36*
X1202Y1023D02*
X1277Y1023D01*
X1277Y960D01*
X1202Y960D01*
X1202Y1023D01*
G37*
D02*
G36*
X1202Y901D02*
X1277Y901D01*
X1277Y838D01*
X1202Y838D01*
X1202Y901D01*
G37*
D02*
G36*
X671Y954D02*
X746Y954D01*
X746Y891D01*
X671Y891D01*
X671Y954D01*
G37*
D02*
G36*
X671Y832D02*
X746Y832D01*
X746Y769D01*
X671Y769D01*
X671Y832D01*
G37*
D02*
G36*
X638Y773D02*
X563Y773D01*
X563Y836D01*
X638Y836D01*
X638Y773D01*
G37*
D02*
G36*
X638Y895D02*
X563Y895D01*
X563Y958D01*
X638Y958D01*
X638Y895D01*
G37*
D02*
G36*
X206Y344D02*
X206Y619D01*
X482Y619D01*
X482Y344D01*
X206Y344D01*
G37*
D02*
G36*
X413Y702D02*
X413Y808D01*
X472Y808D01*
X472Y702D01*
X413Y702D01*
G37*
D02*
G36*
X216Y702D02*
X216Y808D01*
X275Y808D01*
X275Y702D01*
X216Y702D01*
G37*
D02*
G36*
X1193Y76D02*
X1130Y76D01*
X1130Y214D01*
X1193Y214D01*
X1193Y76D01*
G37*
D02*
G36*
X1193Y288D02*
X1130Y288D01*
X1130Y426D01*
X1193Y426D01*
X1193Y288D01*
G37*
D02*
G36*
X1327Y767D02*
X1327Y842D01*
X1390Y842D01*
X1390Y767D01*
X1327Y767D01*
G37*
D02*
G36*
X1449Y767D02*
X1449Y842D01*
X1512Y842D01*
X1512Y767D01*
X1449Y767D01*
G37*
D02*
G36*
X1324Y572D02*
X1411Y572D01*
X1411Y548D01*
X1324Y548D01*
X1324Y572D01*
G37*
D02*
G36*
X1118Y622D02*
X1205Y622D01*
X1205Y598D01*
X1118Y598D01*
X1118Y622D01*
G37*
D02*
G36*
X1118Y522D02*
X1205Y522D01*
X1205Y498D01*
X1118Y498D01*
X1118Y522D01*
G37*
D02*
G36*
X1324Y522D02*
X1411Y522D01*
X1411Y498D01*
X1324Y498D01*
X1324Y522D01*
G37*
D02*
G36*
X1118Y572D02*
X1205Y572D01*
X1205Y548D01*
X1118Y548D01*
X1118Y572D01*
G37*
D02*
G36*
X1324Y472D02*
X1411Y472D01*
X1411Y448D01*
X1324Y448D01*
X1324Y472D01*
G37*
D02*
G36*
X1118Y472D02*
X1205Y472D01*
X1205Y448D01*
X1118Y448D01*
X1118Y472D01*
G37*
D02*
G36*
X1514Y536D02*
X1439Y536D01*
X1439Y599D01*
X1514Y599D01*
X1514Y536D01*
G37*
D02*
G36*
X1514Y659D02*
X1439Y659D01*
X1439Y722D01*
X1514Y722D01*
X1514Y659D01*
G37*
D02*
G54D19*
X90Y1034D02*
X164Y1034D01*
X82Y1033D02*
X172Y1033D01*
X78Y1032D02*
X176Y1032D01*
X76Y1031D02*
X179Y1031D01*
X73Y1030D02*
X181Y1030D01*
X71Y1029D02*
X183Y1029D01*
X70Y1028D02*
X185Y1028D01*
X68Y1027D02*
X186Y1027D01*
X67Y1026D02*
X188Y1026D01*
X65Y1025D02*
X189Y1025D01*
X64Y1024D02*
X190Y1024D01*
X63Y1023D02*
X191Y1023D01*
X62Y1022D02*
X192Y1022D01*
X61Y1021D02*
X193Y1021D01*
X60Y1020D02*
X194Y1020D01*
X59Y1019D02*
X195Y1019D01*
X1663Y1019D02*
X1740Y1019D01*
X58Y1018D02*
X196Y1018D01*
X1656Y1018D02*
X1747Y1018D01*
X57Y1017D02*
X197Y1017D01*
X1652Y1017D02*
X1750Y1017D01*
X57Y1016D02*
X198Y1016D01*
X1650Y1016D02*
X1753Y1016D01*
X56Y1015D02*
X198Y1015D01*
X1647Y1015D02*
X1755Y1015D01*
X55Y1014D02*
X199Y1014D01*
X1645Y1014D02*
X1757Y1014D01*
X55Y1013D02*
X200Y1013D01*
X1644Y1013D02*
X1759Y1013D01*
X54Y1012D02*
X200Y1012D01*
X1642Y1012D02*
X1760Y1012D01*
X53Y1011D02*
X201Y1011D01*
X1641Y1011D02*
X1762Y1011D01*
X53Y1010D02*
X201Y1010D01*
X1639Y1010D02*
X1763Y1010D01*
X52Y1009D02*
X126Y1009D01*
X128Y1009D02*
X202Y1009D01*
X1638Y1009D02*
X1764Y1009D01*
X52Y1008D02*
X120Y1008D01*
X134Y1008D02*
X202Y1008D01*
X1637Y1008D02*
X1766Y1008D01*
X52Y1007D02*
X118Y1007D01*
X136Y1007D02*
X203Y1007D01*
X1636Y1007D02*
X1767Y1007D01*
X51Y1006D02*
X116Y1006D01*
X138Y1006D02*
X203Y1006D01*
X1635Y1006D02*
X1768Y1006D01*
X51Y1005D02*
X115Y1005D01*
X139Y1005D02*
X203Y1005D01*
X1634Y1005D02*
X1769Y1005D01*
X51Y1004D02*
X114Y1004D01*
X140Y1004D02*
X204Y1004D01*
X1633Y1004D02*
X1769Y1004D01*
X50Y1003D02*
X113Y1003D01*
X141Y1003D02*
X204Y1003D01*
X1632Y1003D02*
X1770Y1003D01*
X50Y1002D02*
X112Y1002D01*
X142Y1002D02*
X204Y1002D01*
X1631Y1002D02*
X1771Y1002D01*
X50Y1001D02*
X112Y1001D01*
X142Y1001D02*
X205Y1001D01*
X1631Y1001D02*
X1772Y1001D01*
X49Y1000D02*
X111Y1000D01*
X143Y1000D02*
X205Y1000D01*
X1630Y1000D02*
X1773Y1000D01*
X49Y999D02*
X111Y999D01*
X143Y999D02*
X205Y999D01*
X1629Y999D02*
X1773Y999D01*
X49Y998D02*
X111Y998D01*
X144Y998D02*
X205Y998D01*
X1629Y998D02*
X1774Y998D01*
X49Y997D02*
X110Y997D01*
X144Y997D02*
X205Y997D01*
X1628Y997D02*
X1774Y997D01*
X49Y996D02*
X110Y996D01*
X144Y996D02*
X205Y996D01*
X1628Y996D02*
X1775Y996D01*
X49Y995D02*
X110Y995D01*
X144Y995D02*
X205Y995D01*
X1627Y995D02*
X1775Y995D01*
X49Y994D02*
X110Y994D01*
X145Y994D02*
X205Y994D01*
X1627Y994D02*
X1699Y994D01*
X1704Y994D02*
X1776Y994D01*
X49Y993D02*
X110Y993D01*
X145Y993D02*
X206Y993D01*
X1626Y993D02*
X1694Y993D01*
X1708Y993D02*
X1776Y993D01*
X49Y992D02*
X110Y992D01*
X145Y992D02*
X206Y992D01*
X1626Y992D02*
X1692Y992D01*
X1710Y992D02*
X1777Y992D01*
X49Y991D02*
X110Y991D01*
X145Y991D02*
X206Y991D01*
X1625Y991D02*
X1690Y991D01*
X1712Y991D02*
X1777Y991D01*
X49Y990D02*
X110Y990D01*
X145Y990D02*
X205Y990D01*
X1625Y990D02*
X1689Y990D01*
X1713Y990D02*
X1778Y990D01*
X49Y989D02*
X110Y989D01*
X144Y989D02*
X205Y989D01*
X1625Y989D02*
X1688Y989D01*
X1714Y989D02*
X1778Y989D01*
X49Y988D02*
X110Y988D01*
X144Y988D02*
X205Y988D01*
X1624Y988D02*
X1687Y988D01*
X1715Y988D02*
X1778Y988D01*
X49Y987D02*
X110Y987D01*
X144Y987D02*
X205Y987D01*
X1624Y987D02*
X1687Y987D01*
X1716Y987D02*
X1778Y987D01*
X49Y986D02*
X111Y986D01*
X144Y986D02*
X205Y986D01*
X1624Y986D02*
X1686Y986D01*
X1717Y986D02*
X1779Y986D01*
X49Y985D02*
X111Y985D01*
X143Y985D02*
X205Y985D01*
X1624Y985D02*
X1685Y985D01*
X1717Y985D02*
X1779Y985D01*
X49Y984D02*
X111Y984D01*
X143Y984D02*
X205Y984D01*
X1623Y984D02*
X1685Y984D01*
X1717Y984D02*
X1779Y984D01*
X50Y983D02*
X112Y983D01*
X142Y983D02*
X205Y983D01*
X1623Y983D02*
X1685Y983D01*
X1718Y983D02*
X1779Y983D01*
X50Y982D02*
X113Y982D01*
X142Y982D02*
X204Y982D01*
X1623Y982D02*
X1684Y982D01*
X1718Y982D02*
X1779Y982D01*
X50Y981D02*
X113Y981D01*
X141Y981D02*
X204Y981D01*
X1623Y981D02*
X1684Y981D01*
X1718Y981D02*
X1780Y981D01*
X51Y980D02*
X114Y980D01*
X140Y980D02*
X204Y980D01*
X1623Y980D02*
X1684Y980D01*
X1719Y980D02*
X1780Y980D01*
X51Y979D02*
X115Y979D01*
X139Y979D02*
X203Y979D01*
X1623Y979D02*
X1684Y979D01*
X1719Y979D02*
X1780Y979D01*
X51Y978D02*
X117Y978D01*
X138Y978D02*
X203Y978D01*
X1623Y978D02*
X1684Y978D01*
X1719Y978D02*
X1780Y978D01*
X52Y977D02*
X118Y977D01*
X136Y977D02*
X203Y977D01*
X1623Y977D02*
X1684Y977D01*
X1719Y977D02*
X1780Y977D01*
X52Y976D02*
X121Y976D01*
X134Y976D02*
X202Y976D01*
X1623Y976D02*
X1684Y976D01*
X1719Y976D02*
X1780Y976D01*
X53Y975D02*
X202Y975D01*
X1623Y975D02*
X1684Y975D01*
X1719Y975D02*
X1780Y975D01*
X53Y974D02*
X201Y974D01*
X1623Y974D02*
X1684Y974D01*
X1719Y974D02*
X1780Y974D01*
X54Y973D02*
X201Y973D01*
X1623Y973D02*
X1684Y973D01*
X1718Y973D02*
X1779Y973D01*
X54Y972D02*
X200Y972D01*
X1623Y972D02*
X1684Y972D01*
X1718Y972D02*
X1779Y972D01*
X55Y971D02*
X200Y971D01*
X1623Y971D02*
X1685Y971D01*
X1718Y971D02*
X1779Y971D01*
X55Y970D02*
X199Y970D01*
X1623Y970D02*
X1685Y970D01*
X1717Y970D02*
X1779Y970D01*
X56Y969D02*
X198Y969D01*
X1624Y969D02*
X1686Y969D01*
X1717Y969D02*
X1779Y969D01*
X57Y968D02*
X198Y968D01*
X1624Y968D02*
X1686Y968D01*
X1716Y968D02*
X1779Y968D01*
X57Y967D02*
X197Y967D01*
X1624Y967D02*
X1687Y967D01*
X1716Y967D02*
X1778Y967D01*
X58Y966D02*
X196Y966D01*
X1624Y966D02*
X1687Y966D01*
X1715Y966D02*
X1778Y966D01*
X59Y965D02*
X195Y965D01*
X1625Y965D02*
X1688Y965D01*
X1714Y965D02*
X1778Y965D01*
X60Y964D02*
X194Y964D01*
X1625Y964D02*
X1689Y964D01*
X1713Y964D02*
X1777Y964D01*
X61Y963D02*
X193Y963D01*
X1625Y963D02*
X1691Y963D01*
X1712Y963D02*
X1777Y963D01*
X62Y962D02*
X192Y962D01*
X1626Y962D02*
X1692Y962D01*
X1710Y962D02*
X1777Y962D01*
X63Y961D02*
X191Y961D01*
X1626Y961D02*
X1695Y961D01*
X1708Y961D02*
X1776Y961D01*
X64Y960D02*
X190Y960D01*
X1627Y960D02*
X1776Y960D01*
X65Y959D02*
X189Y959D01*
X1627Y959D02*
X1775Y959D01*
X67Y958D02*
X188Y958D01*
X1628Y958D02*
X1775Y958D01*
X68Y957D02*
X186Y957D01*
X1628Y957D02*
X1774Y957D01*
X70Y956D02*
X184Y956D01*
X1629Y956D02*
X1774Y956D01*
X71Y955D02*
X183Y955D01*
X1629Y955D02*
X1773Y955D01*
X73Y954D02*
X181Y954D01*
X1630Y954D02*
X1772Y954D01*
X76Y953D02*
X178Y953D01*
X1631Y953D02*
X1772Y953D01*
X78Y952D02*
X176Y952D01*
X1632Y952D02*
X1771Y952D01*
X82Y951D02*
X172Y951D01*
X1632Y951D02*
X1770Y951D01*
X1633Y950D02*
X1769Y950D01*
X1634Y949D02*
X1768Y949D01*
X1635Y948D02*
X1767Y948D01*
X1636Y947D02*
X1766Y947D01*
X1637Y946D02*
X1765Y946D01*
X1638Y945D02*
X1764Y945D01*
X1640Y944D02*
X1763Y944D01*
X1641Y943D02*
X1762Y943D01*
X1642Y942D02*
X1760Y942D01*
X1644Y941D02*
X1759Y941D01*
X1646Y940D02*
X1757Y940D01*
X1648Y939D02*
X1755Y939D01*
X1650Y938D02*
X1753Y938D01*
X1653Y937D02*
X1750Y937D01*
X1656Y936D02*
X1746Y936D01*
X89Y934D02*
X165Y934D01*
X82Y933D02*
X173Y933D01*
X78Y932D02*
X176Y932D01*
X75Y931D02*
X179Y931D01*
X73Y930D02*
X181Y930D01*
X71Y929D02*
X183Y929D01*
X69Y928D02*
X185Y928D01*
X68Y927D02*
X186Y927D01*
X66Y926D02*
X188Y926D01*
X65Y925D02*
X189Y925D01*
X64Y924D02*
X190Y924D01*
X63Y923D02*
X191Y923D01*
X62Y922D02*
X193Y922D01*
X61Y921D02*
X194Y921D01*
X60Y920D02*
X194Y920D01*
X59Y919D02*
X195Y919D01*
X1662Y919D02*
X1741Y919D01*
X58Y918D02*
X196Y918D01*
X1655Y918D02*
X1747Y918D01*
X57Y917D02*
X197Y917D01*
X1652Y917D02*
X1751Y917D01*
X57Y916D02*
X198Y916D01*
X1649Y916D02*
X1753Y916D01*
X56Y915D02*
X198Y915D01*
X1647Y915D02*
X1755Y915D01*
X55Y914D02*
X199Y914D01*
X1645Y914D02*
X1757Y914D01*
X55Y913D02*
X200Y913D01*
X1643Y913D02*
X1759Y913D01*
X54Y912D02*
X200Y912D01*
X1642Y912D02*
X1761Y912D01*
X53Y911D02*
X201Y911D01*
X1641Y911D02*
X1762Y911D01*
X53Y910D02*
X201Y910D01*
X1639Y910D02*
X1763Y910D01*
X52Y909D02*
X125Y909D01*
X129Y909D02*
X202Y909D01*
X1638Y909D02*
X1765Y909D01*
X52Y908D02*
X120Y908D01*
X134Y908D02*
X202Y908D01*
X1637Y908D02*
X1766Y908D01*
X52Y907D02*
X118Y907D01*
X136Y907D02*
X203Y907D01*
X1636Y907D02*
X1767Y907D01*
X51Y906D02*
X116Y906D01*
X138Y906D02*
X203Y906D01*
X1635Y906D02*
X1768Y906D01*
X51Y905D02*
X115Y905D01*
X139Y905D02*
X203Y905D01*
X1634Y905D02*
X1769Y905D01*
X50Y904D02*
X114Y904D01*
X140Y904D02*
X204Y904D01*
X1633Y904D02*
X1770Y904D01*
X50Y903D02*
X113Y903D01*
X141Y903D02*
X204Y903D01*
X1632Y903D02*
X1770Y903D01*
X50Y902D02*
X112Y902D01*
X142Y902D02*
X204Y902D01*
X1631Y902D02*
X1771Y902D01*
X50Y901D02*
X112Y901D01*
X142Y901D02*
X205Y901D01*
X1631Y901D02*
X1772Y901D01*
X49Y900D02*
X111Y900D01*
X143Y900D02*
X205Y900D01*
X1630Y900D02*
X1773Y900D01*
X49Y899D02*
X111Y899D01*
X143Y899D02*
X205Y899D01*
X1629Y899D02*
X1773Y899D01*
X49Y898D02*
X111Y898D01*
X144Y898D02*
X205Y898D01*
X1629Y898D02*
X1774Y898D01*
X49Y897D02*
X110Y897D01*
X144Y897D02*
X205Y897D01*
X1628Y897D02*
X1774Y897D01*
X49Y896D02*
X110Y896D01*
X144Y896D02*
X205Y896D01*
X1628Y896D02*
X1775Y896D01*
X49Y895D02*
X110Y895D01*
X144Y895D02*
X205Y895D01*
X1627Y895D02*
X1775Y895D01*
X49Y894D02*
X110Y894D01*
X145Y894D02*
X205Y894D01*
X1627Y894D02*
X1698Y894D01*
X1704Y894D02*
X1776Y894D01*
X49Y893D02*
X110Y893D01*
X145Y893D02*
X206Y893D01*
X1626Y893D02*
X1694Y893D01*
X1708Y893D02*
X1776Y893D01*
X49Y892D02*
X110Y892D01*
X145Y892D02*
X206Y892D01*
X1626Y892D02*
X1692Y892D01*
X1711Y892D02*
X1777Y892D01*
X49Y891D02*
X110Y891D01*
X145Y891D02*
X206Y891D01*
X1625Y891D02*
X1690Y891D01*
X1712Y891D02*
X1777Y891D01*
X49Y890D02*
X110Y890D01*
X144Y890D02*
X205Y890D01*
X1625Y890D02*
X1689Y890D01*
X1713Y890D02*
X1778Y890D01*
X49Y889D02*
X110Y889D01*
X144Y889D02*
X205Y889D01*
X1625Y889D02*
X1688Y889D01*
X1714Y889D02*
X1778Y889D01*
X49Y888D02*
X110Y888D01*
X144Y888D02*
X205Y888D01*
X1624Y888D02*
X1687Y888D01*
X1715Y888D02*
X1778Y888D01*
X49Y887D02*
X110Y887D01*
X144Y887D02*
X205Y887D01*
X1624Y887D02*
X1687Y887D01*
X1716Y887D02*
X1778Y887D01*
X49Y886D02*
X111Y886D01*
X144Y886D02*
X205Y886D01*
X1624Y886D02*
X1686Y886D01*
X1717Y886D02*
X1779Y886D01*
X49Y885D02*
X111Y885D01*
X143Y885D02*
X205Y885D01*
X1624Y885D02*
X1685Y885D01*
X1717Y885D02*
X1779Y885D01*
X50Y884D02*
X111Y884D01*
X143Y884D02*
X205Y884D01*
X1623Y884D02*
X1685Y884D01*
X1718Y884D02*
X1779Y884D01*
X50Y883D02*
X112Y883D01*
X142Y883D02*
X204Y883D01*
X1623Y883D02*
X1685Y883D01*
X1718Y883D02*
X1779Y883D01*
X50Y882D02*
X113Y882D01*
X142Y882D02*
X204Y882D01*
X1623Y882D02*
X1684Y882D01*
X1718Y882D02*
X1779Y882D01*
X50Y881D02*
X113Y881D01*
X141Y881D02*
X204Y881D01*
X1623Y881D02*
X1684Y881D01*
X1718Y881D02*
X1780Y881D01*
X51Y880D02*
X114Y880D01*
X140Y880D02*
X204Y880D01*
X1623Y880D02*
X1684Y880D01*
X1719Y880D02*
X1780Y880D01*
X51Y879D02*
X115Y879D01*
X139Y879D02*
X203Y879D01*
X1623Y879D02*
X1684Y879D01*
X1719Y879D02*
X1780Y879D01*
X51Y878D02*
X117Y878D01*
X138Y878D02*
X203Y878D01*
X1623Y878D02*
X1684Y878D01*
X1719Y878D02*
X1780Y878D01*
X52Y877D02*
X118Y877D01*
X136Y877D02*
X203Y877D01*
X1623Y877D02*
X1684Y877D01*
X1719Y877D02*
X1780Y877D01*
X52Y876D02*
X121Y876D01*
X133Y876D02*
X202Y876D01*
X1623Y876D02*
X1684Y876D01*
X1719Y876D02*
X1780Y876D01*
X53Y875D02*
X202Y875D01*
X1623Y875D02*
X1684Y875D01*
X1719Y875D02*
X1780Y875D01*
X53Y874D02*
X201Y874D01*
X1623Y874D02*
X1684Y874D01*
X1718Y874D02*
X1780Y874D01*
X54Y873D02*
X201Y873D01*
X1623Y873D02*
X1684Y873D01*
X1718Y873D02*
X1779Y873D01*
X54Y872D02*
X200Y872D01*
X1623Y872D02*
X1684Y872D01*
X1718Y872D02*
X1779Y872D01*
X55Y871D02*
X200Y871D01*
X1623Y871D02*
X1685Y871D01*
X1718Y871D02*
X1779Y871D01*
X55Y870D02*
X199Y870D01*
X1623Y870D02*
X1685Y870D01*
X1717Y870D02*
X1779Y870D01*
X56Y869D02*
X198Y869D01*
X1624Y869D02*
X1686Y869D01*
X1717Y869D02*
X1779Y869D01*
X57Y868D02*
X198Y868D01*
X1624Y868D02*
X1686Y868D01*
X1716Y868D02*
X1779Y868D01*
X57Y867D02*
X197Y867D01*
X1624Y867D02*
X1687Y867D01*
X1716Y867D02*
X1778Y867D01*
X58Y866D02*
X196Y866D01*
X1624Y866D02*
X1687Y866D01*
X1715Y866D02*
X1778Y866D01*
X59Y865D02*
X195Y865D01*
X1625Y865D02*
X1688Y865D01*
X1714Y865D02*
X1778Y865D01*
X60Y864D02*
X194Y864D01*
X1625Y864D02*
X1689Y864D01*
X1713Y864D02*
X1777Y864D01*
X61Y863D02*
X193Y863D01*
X1625Y863D02*
X1691Y863D01*
X1712Y863D02*
X1777Y863D01*
X62Y862D02*
X192Y862D01*
X1626Y862D02*
X1693Y862D01*
X1710Y862D02*
X1777Y862D01*
X63Y861D02*
X191Y861D01*
X1626Y861D02*
X1695Y861D01*
X1707Y861D02*
X1776Y861D01*
X64Y860D02*
X190Y860D01*
X1627Y860D02*
X1776Y860D01*
X65Y859D02*
X189Y859D01*
X1627Y859D02*
X1775Y859D01*
X67Y858D02*
X187Y858D01*
X1628Y858D02*
X1775Y858D01*
X68Y857D02*
X186Y857D01*
X1628Y857D02*
X1774Y857D01*
X70Y856D02*
X184Y856D01*
X1629Y856D02*
X1774Y856D01*
X72Y855D02*
X183Y855D01*
X1629Y855D02*
X1773Y855D01*
X74Y854D02*
X181Y854D01*
X1630Y854D02*
X1772Y854D01*
X76Y853D02*
X178Y853D01*
X1631Y853D02*
X1772Y853D01*
X79Y852D02*
X176Y852D01*
X1632Y852D02*
X1771Y852D01*
X83Y851D02*
X172Y851D01*
X1632Y851D02*
X1770Y851D01*
X1633Y850D02*
X1769Y850D01*
X1634Y849D02*
X1768Y849D01*
X1635Y848D02*
X1767Y848D01*
X1636Y847D02*
X1766Y847D01*
X1637Y846D02*
X1765Y846D01*
X1638Y845D02*
X1764Y845D01*
X1640Y844D02*
X1763Y844D01*
X1641Y843D02*
X1762Y843D01*
X1642Y842D02*
X1760Y842D01*
X1644Y841D02*
X1758Y841D01*
X1646Y840D02*
X1757Y840D01*
X1648Y839D02*
X1755Y839D01*
X1650Y838D02*
X1752Y838D01*
X1653Y837D02*
X1750Y837D01*
X1657Y836D02*
X1746Y836D01*
X88Y834D02*
X166Y834D01*
X81Y833D02*
X173Y833D01*
X78Y832D02*
X176Y832D01*
X75Y831D02*
X179Y831D01*
X73Y830D02*
X181Y830D01*
X71Y829D02*
X183Y829D01*
X69Y828D02*
X185Y828D01*
X68Y827D02*
X186Y827D01*
X66Y826D02*
X188Y826D01*
X65Y825D02*
X189Y825D01*
X64Y824D02*
X190Y824D01*
X63Y823D02*
X191Y823D01*
X62Y822D02*
X193Y822D01*
X61Y821D02*
X194Y821D01*
X60Y820D02*
X194Y820D01*
X59Y819D02*
X195Y819D01*
X1661Y819D02*
X1742Y819D01*
X58Y818D02*
X196Y818D01*
X1655Y818D02*
X1747Y818D01*
X57Y817D02*
X197Y817D01*
X1652Y817D02*
X1751Y817D01*
X56Y816D02*
X198Y816D01*
X1649Y816D02*
X1753Y816D01*
X56Y815D02*
X198Y815D01*
X1647Y815D02*
X1756Y815D01*
X55Y814D02*
X199Y814D01*
X1645Y814D02*
X1757Y814D01*
X55Y813D02*
X200Y813D01*
X1643Y813D02*
X1759Y813D01*
X54Y812D02*
X200Y812D01*
X1642Y812D02*
X1761Y812D01*
X53Y811D02*
X201Y811D01*
X1640Y811D02*
X1762Y811D01*
X53Y810D02*
X201Y810D01*
X1639Y810D02*
X1763Y810D01*
X52Y809D02*
X124Y809D01*
X130Y809D02*
X202Y809D01*
X1638Y809D02*
X1765Y809D01*
X52Y808D02*
X120Y808D01*
X134Y808D02*
X202Y808D01*
X1637Y808D02*
X1766Y808D01*
X52Y807D02*
X118Y807D01*
X136Y807D02*
X203Y807D01*
X1636Y807D02*
X1767Y807D01*
X51Y806D02*
X116Y806D01*
X138Y806D02*
X203Y806D01*
X1635Y806D02*
X1768Y806D01*
X51Y805D02*
X115Y805D01*
X139Y805D02*
X203Y805D01*
X1634Y805D02*
X1769Y805D01*
X50Y804D02*
X114Y804D01*
X140Y804D02*
X204Y804D01*
X1633Y804D02*
X1770Y804D01*
X50Y803D02*
X113Y803D01*
X141Y803D02*
X204Y803D01*
X1632Y803D02*
X1770Y803D01*
X50Y802D02*
X112Y802D01*
X142Y802D02*
X204Y802D01*
X1631Y802D02*
X1771Y802D01*
X50Y801D02*
X112Y801D01*
X142Y801D02*
X205Y801D01*
X1631Y801D02*
X1772Y801D01*
X49Y800D02*
X111Y800D01*
X143Y800D02*
X205Y800D01*
X1630Y800D02*
X1773Y800D01*
X49Y799D02*
X111Y799D01*
X143Y799D02*
X205Y799D01*
X1629Y799D02*
X1773Y799D01*
X49Y798D02*
X110Y798D01*
X144Y798D02*
X205Y798D01*
X1629Y798D02*
X1774Y798D01*
X49Y797D02*
X110Y797D01*
X144Y797D02*
X205Y797D01*
X1628Y797D02*
X1774Y797D01*
X49Y796D02*
X110Y796D01*
X144Y796D02*
X205Y796D01*
X1628Y796D02*
X1775Y796D01*
X49Y795D02*
X110Y795D01*
X144Y795D02*
X205Y795D01*
X1627Y795D02*
X1776Y795D01*
X49Y794D02*
X110Y794D01*
X145Y794D02*
X205Y794D01*
X1627Y794D02*
X1698Y794D01*
X1705Y794D02*
X1776Y794D01*
X49Y793D02*
X110Y793D01*
X145Y793D02*
X206Y793D01*
X1626Y793D02*
X1694Y793D01*
X1709Y793D02*
X1776Y793D01*
X49Y792D02*
X110Y792D01*
X145Y792D02*
X206Y792D01*
X1626Y792D02*
X1692Y792D01*
X1711Y792D02*
X1777Y792D01*
X49Y791D02*
X110Y791D01*
X145Y791D02*
X206Y791D01*
X1625Y791D02*
X1690Y791D01*
X1712Y791D02*
X1777Y791D01*
X49Y790D02*
X110Y790D01*
X145Y790D02*
X206Y790D01*
X1625Y790D02*
X1689Y790D01*
X1713Y790D02*
X1778Y790D01*
X49Y789D02*
X110Y789D01*
X144Y789D02*
X205Y789D01*
X1625Y789D02*
X1688Y789D01*
X1714Y789D02*
X1778Y789D01*
X49Y788D02*
X110Y788D01*
X144Y788D02*
X205Y788D01*
X1624Y788D02*
X1687Y788D01*
X1715Y788D02*
X1778Y788D01*
X49Y787D02*
X110Y787D01*
X144Y787D02*
X205Y787D01*
X1624Y787D02*
X1686Y787D01*
X1716Y787D02*
X1778Y787D01*
X49Y786D02*
X111Y786D01*
X144Y786D02*
X205Y786D01*
X1624Y786D02*
X1686Y786D01*
X1717Y786D02*
X1779Y786D01*
X49Y785D02*
X111Y785D01*
X143Y785D02*
X205Y785D01*
X1624Y785D02*
X1685Y785D01*
X1717Y785D02*
X1779Y785D01*
X50Y784D02*
X111Y784D01*
X143Y784D02*
X205Y784D01*
X1623Y784D02*
X1685Y784D01*
X1718Y784D02*
X1779Y784D01*
X50Y783D02*
X112Y783D01*
X142Y783D02*
X204Y783D01*
X1623Y783D02*
X1685Y783D01*
X1718Y783D02*
X1779Y783D01*
X50Y782D02*
X113Y782D01*
X142Y782D02*
X204Y782D01*
X1623Y782D02*
X1684Y782D01*
X1718Y782D02*
X1779Y782D01*
X50Y781D02*
X113Y781D01*
X141Y781D02*
X204Y781D01*
X1623Y781D02*
X1684Y781D01*
X1718Y781D02*
X1780Y781D01*
X51Y780D02*
X114Y780D01*
X140Y780D02*
X204Y780D01*
X1623Y780D02*
X1684Y780D01*
X1719Y780D02*
X1780Y780D01*
X51Y779D02*
X115Y779D01*
X139Y779D02*
X203Y779D01*
X1623Y779D02*
X1684Y779D01*
X1719Y779D02*
X1780Y779D01*
X51Y778D02*
X117Y778D01*
X138Y778D02*
X203Y778D01*
X1623Y778D02*
X1684Y778D01*
X1719Y778D02*
X1780Y778D01*
X52Y777D02*
X118Y777D01*
X136Y777D02*
X203Y777D01*
X1623Y777D02*
X1684Y777D01*
X1719Y777D02*
X1780Y777D01*
X52Y776D02*
X121Y776D01*
X133Y776D02*
X202Y776D01*
X1623Y776D02*
X1684Y776D01*
X1719Y776D02*
X1780Y776D01*
X53Y775D02*
X202Y775D01*
X1623Y775D02*
X1684Y775D01*
X1719Y775D02*
X1780Y775D01*
X53Y774D02*
X201Y774D01*
X1623Y774D02*
X1684Y774D01*
X1718Y774D02*
X1780Y774D01*
X54Y773D02*
X201Y773D01*
X1623Y773D02*
X1684Y773D01*
X1718Y773D02*
X1779Y773D01*
X54Y772D02*
X200Y772D01*
X1623Y772D02*
X1684Y772D01*
X1718Y772D02*
X1779Y772D01*
X55Y771D02*
X200Y771D01*
X1623Y771D02*
X1685Y771D01*
X1718Y771D02*
X1779Y771D01*
X55Y770D02*
X199Y770D01*
X1623Y770D02*
X1685Y770D01*
X1717Y770D02*
X1779Y770D01*
X56Y769D02*
X198Y769D01*
X1624Y769D02*
X1686Y769D01*
X1717Y769D02*
X1779Y769D01*
X57Y768D02*
X197Y768D01*
X1624Y768D02*
X1686Y768D01*
X1716Y768D02*
X1779Y768D01*
X57Y767D02*
X197Y767D01*
X1624Y767D02*
X1687Y767D01*
X1716Y767D02*
X1778Y767D01*
X58Y766D02*
X196Y766D01*
X1624Y766D02*
X1688Y766D01*
X1715Y766D02*
X1778Y766D01*
X59Y765D02*
X195Y765D01*
X1625Y765D02*
X1688Y765D01*
X1714Y765D02*
X1778Y765D01*
X60Y764D02*
X194Y764D01*
X1625Y764D02*
X1690Y764D01*
X1713Y764D02*
X1777Y764D01*
X61Y763D02*
X193Y763D01*
X1625Y763D02*
X1691Y763D01*
X1712Y763D02*
X1777Y763D01*
X62Y762D02*
X192Y762D01*
X1626Y762D02*
X1693Y762D01*
X1710Y762D02*
X1777Y762D01*
X63Y761D02*
X191Y761D01*
X1626Y761D02*
X1695Y761D01*
X1707Y761D02*
X1776Y761D01*
X64Y760D02*
X190Y760D01*
X1627Y760D02*
X1776Y760D01*
X65Y759D02*
X189Y759D01*
X1627Y759D02*
X1775Y759D01*
X67Y758D02*
X187Y758D01*
X1628Y758D02*
X1775Y758D01*
X68Y757D02*
X186Y757D01*
X1628Y757D02*
X1774Y757D01*
X70Y756D02*
X184Y756D01*
X1629Y756D02*
X1774Y756D01*
X72Y755D02*
X183Y755D01*
X1630Y755D02*
X1773Y755D01*
X74Y754D02*
X181Y754D01*
X1630Y754D02*
X1772Y754D01*
X76Y753D02*
X178Y753D01*
X1631Y753D02*
X1772Y753D01*
X79Y752D02*
X175Y752D01*
X1632Y752D02*
X1771Y752D01*
X83Y751D02*
X171Y751D01*
X1632Y751D02*
X1770Y751D01*
X1633Y750D02*
X1769Y750D01*
X1634Y749D02*
X1768Y749D01*
X1635Y748D02*
X1767Y748D01*
X1636Y747D02*
X1766Y747D01*
X1637Y746D02*
X1765Y746D01*
X1638Y745D02*
X1764Y745D01*
X1640Y744D02*
X1763Y744D01*
X1641Y743D02*
X1761Y743D01*
X1643Y742D02*
X1760Y742D01*
X1644Y741D02*
X1758Y741D01*
X1646Y740D02*
X1757Y740D01*
X1648Y739D02*
X1755Y739D01*
X1650Y738D02*
X1752Y738D01*
X1653Y737D02*
X1749Y737D01*
X1657Y736D02*
X1745Y736D01*
X1660Y719D02*
X1742Y719D01*
X1655Y718D02*
X1748Y718D01*
X1652Y717D02*
X1751Y717D01*
X1649Y716D02*
X1753Y716D01*
X1647Y715D02*
X1756Y715D01*
X1645Y714D02*
X1758Y714D01*
X1643Y713D02*
X1759Y713D01*
X1642Y712D02*
X1761Y712D01*
X1640Y711D02*
X1762Y711D01*
X1639Y710D02*
X1763Y710D01*
X1638Y709D02*
X1765Y709D01*
X1637Y708D02*
X1766Y708D01*
X1636Y707D02*
X1767Y707D01*
X1635Y706D02*
X1768Y706D01*
X1634Y705D02*
X1769Y705D01*
X1633Y704D02*
X1770Y704D01*
X1632Y703D02*
X1770Y703D01*
X1631Y702D02*
X1771Y702D01*
X1631Y701D02*
X1772Y701D01*
X1630Y700D02*
X1773Y700D01*
X1629Y699D02*
X1773Y699D01*
X1629Y698D02*
X1774Y698D01*
X1628Y697D02*
X1774Y697D01*
X1627Y696D02*
X1775Y696D01*
X1627Y695D02*
X1776Y695D01*
X1626Y694D02*
X1697Y694D01*
X1705Y694D02*
X1776Y694D01*
X1626Y693D02*
X1694Y693D01*
X1709Y693D02*
X1776Y693D01*
X1626Y692D02*
X1692Y692D01*
X1711Y692D02*
X1777Y692D01*
X1625Y691D02*
X1690Y691D01*
X1712Y691D02*
X1777Y691D01*
X1625Y690D02*
X1689Y690D01*
X1714Y690D02*
X1778Y690D01*
X1625Y689D02*
X1688Y689D01*
X1715Y689D02*
X1778Y689D01*
X1624Y688D02*
X1687Y688D01*
X1715Y688D02*
X1778Y688D01*
X1624Y687D02*
X1686Y687D01*
X1716Y687D02*
X1778Y687D01*
X1624Y686D02*
X1686Y686D01*
X1717Y686D02*
X1779Y686D01*
X1624Y685D02*
X1685Y685D01*
X1717Y685D02*
X1779Y685D01*
X1623Y684D02*
X1685Y684D01*
X1718Y684D02*
X1779Y684D01*
X1623Y683D02*
X1685Y683D01*
X1718Y683D02*
X1779Y683D01*
X1623Y682D02*
X1684Y682D01*
X1718Y682D02*
X1779Y682D01*
X1623Y681D02*
X1684Y681D01*
X1718Y681D02*
X1780Y681D01*
X1623Y680D02*
X1684Y680D01*
X1719Y680D02*
X1780Y680D01*
X1623Y679D02*
X1684Y679D01*
X1719Y679D02*
X1780Y679D01*
X1623Y678D02*
X1684Y678D01*
X1719Y678D02*
X1780Y678D01*
X1623Y677D02*
X1684Y677D01*
X1719Y677D02*
X1780Y677D01*
X1623Y676D02*
X1684Y676D01*
X1719Y676D02*
X1780Y676D01*
X1623Y675D02*
X1684Y675D01*
X1719Y675D02*
X1780Y675D01*
X1623Y674D02*
X1684Y674D01*
X1718Y674D02*
X1780Y674D01*
X1623Y673D02*
X1684Y673D01*
X1718Y673D02*
X1779Y673D01*
X1623Y672D02*
X1684Y672D01*
X1718Y672D02*
X1779Y672D01*
X1623Y671D02*
X1685Y671D01*
X1718Y671D02*
X1779Y671D01*
X1623Y670D02*
X1685Y670D01*
X1717Y670D02*
X1779Y670D01*
X1624Y669D02*
X1686Y669D01*
X1717Y669D02*
X1779Y669D01*
X1624Y668D02*
X1686Y668D01*
X1716Y668D02*
X1779Y668D01*
X1624Y667D02*
X1687Y667D01*
X1716Y667D02*
X1778Y667D01*
X1624Y666D02*
X1688Y666D01*
X1715Y666D02*
X1778Y666D01*
X1625Y665D02*
X1689Y665D01*
X1714Y665D02*
X1778Y665D01*
X1625Y664D02*
X1690Y664D01*
X1713Y664D02*
X1777Y664D01*
X1625Y663D02*
X1691Y663D01*
X1711Y663D02*
X1777Y663D01*
X1626Y662D02*
X1693Y662D01*
X1710Y662D02*
X1777Y662D01*
X1626Y661D02*
X1696Y661D01*
X1707Y661D02*
X1776Y661D01*
X1627Y660D02*
X1776Y660D01*
X1627Y659D02*
X1775Y659D01*
X1628Y658D02*
X1775Y658D01*
X1628Y657D02*
X1774Y657D01*
X1629Y656D02*
X1774Y656D01*
X1630Y655D02*
X1773Y655D01*
X1630Y654D02*
X1772Y654D01*
X1631Y653D02*
X1772Y653D01*
X1632Y652D02*
X1771Y652D01*
X1633Y651D02*
X1770Y651D01*
X1633Y650D02*
X1769Y650D01*
X1634Y649D02*
X1768Y649D01*
X1635Y648D02*
X1767Y648D01*
X1636Y647D02*
X1766Y647D01*
X1637Y646D02*
X1765Y646D01*
X1639Y645D02*
X1764Y645D01*
X1640Y644D02*
X1763Y644D01*
X1641Y643D02*
X1761Y643D01*
X1643Y642D02*
X1760Y642D01*
X1644Y641D02*
X1758Y641D01*
X1646Y640D02*
X1756Y640D01*
X1648Y639D02*
X1754Y639D01*
X1650Y638D02*
X1752Y638D01*
X1653Y637D02*
X1749Y637D01*
X1658Y636D02*
X1745Y636D01*
X1660Y619D02*
X1743Y619D01*
X1655Y618D02*
X1748Y618D01*
X1651Y617D02*
X1751Y617D01*
X1649Y616D02*
X1754Y616D01*
X1647Y615D02*
X1756Y615D01*
X1645Y614D02*
X1758Y614D01*
X1643Y613D02*
X1759Y613D01*
X1642Y612D02*
X1761Y612D01*
X1640Y611D02*
X1762Y611D01*
X1639Y610D02*
X1764Y610D01*
X1638Y609D02*
X1765Y609D01*
X1637Y608D02*
X1766Y608D01*
X1636Y607D02*
X1767Y607D01*
X1635Y606D02*
X1768Y606D01*
X1634Y605D02*
X1769Y605D01*
X1633Y604D02*
X1770Y604D01*
X1632Y603D02*
X1771Y603D01*
X1631Y602D02*
X1771Y602D01*
X1630Y601D02*
X1772Y601D01*
X1630Y600D02*
X1773Y600D01*
X1629Y599D02*
X1773Y599D01*
X1629Y598D02*
X1774Y598D01*
X1628Y597D02*
X1775Y597D01*
X1627Y596D02*
X1775Y596D01*
X1627Y595D02*
X1776Y595D01*
X1626Y594D02*
X1697Y594D01*
X1706Y594D02*
X1776Y594D01*
X1626Y593D02*
X1694Y593D01*
X1709Y593D02*
X1776Y593D01*
X1626Y592D02*
X1692Y592D01*
X1711Y592D02*
X1777Y592D01*
X1625Y591D02*
X1690Y591D01*
X1712Y591D02*
X1777Y591D01*
X1625Y590D02*
X1689Y590D01*
X1714Y590D02*
X1778Y590D01*
X1625Y589D02*
X1688Y589D01*
X1715Y589D02*
X1778Y589D01*
X1624Y588D02*
X1687Y588D01*
X1715Y588D02*
X1778Y588D01*
X1624Y587D02*
X1686Y587D01*
X1716Y587D02*
X1779Y587D01*
X1624Y586D02*
X1686Y586D01*
X1717Y586D02*
X1779Y586D01*
X1624Y585D02*
X1685Y585D01*
X1717Y585D02*
X1779Y585D01*
X1623Y584D02*
X1685Y584D01*
X1718Y584D02*
X1779Y584D01*
X1623Y583D02*
X1685Y583D01*
X1718Y583D02*
X1779Y583D01*
X1623Y582D02*
X1684Y582D01*
X1718Y582D02*
X1779Y582D01*
X1623Y581D02*
X1684Y581D01*
X1718Y581D02*
X1780Y581D01*
X1623Y580D02*
X1684Y580D01*
X1719Y580D02*
X1780Y580D01*
X1623Y579D02*
X1684Y579D01*
X1719Y579D02*
X1780Y579D01*
X1623Y578D02*
X1684Y578D01*
X1719Y578D02*
X1780Y578D01*
X1623Y577D02*
X1684Y577D01*
X1719Y577D02*
X1780Y577D01*
X1623Y576D02*
X1684Y576D01*
X1719Y576D02*
X1780Y576D01*
X1623Y575D02*
X1684Y575D01*
X1719Y575D02*
X1780Y575D01*
X1623Y574D02*
X1684Y574D01*
X1718Y574D02*
X1780Y574D01*
X1623Y573D02*
X1684Y573D01*
X1718Y573D02*
X1779Y573D01*
X1623Y572D02*
X1684Y572D01*
X1718Y572D02*
X1779Y572D01*
X1623Y571D02*
X1685Y571D01*
X1718Y571D02*
X1779Y571D01*
X1623Y570D02*
X1685Y570D01*
X1717Y570D02*
X1779Y570D01*
X1624Y569D02*
X1686Y569D01*
X1717Y569D02*
X1779Y569D01*
X1624Y568D02*
X1686Y568D01*
X1716Y568D02*
X1779Y568D01*
X1624Y567D02*
X1687Y567D01*
X1716Y567D02*
X1778Y567D01*
X1624Y566D02*
X1688Y566D01*
X1715Y566D02*
X1778Y566D01*
X1625Y565D02*
X1689Y565D01*
X1714Y565D02*
X1778Y565D01*
X1625Y564D02*
X1690Y564D01*
X1713Y564D02*
X1777Y564D01*
X1625Y563D02*
X1691Y563D01*
X1711Y563D02*
X1777Y563D01*
X1626Y562D02*
X1693Y562D01*
X1710Y562D02*
X1777Y562D01*
X1626Y561D02*
X1696Y561D01*
X1707Y561D02*
X1776Y561D01*
X1627Y560D02*
X1776Y560D01*
X1627Y559D02*
X1775Y559D01*
X1628Y558D02*
X1775Y558D01*
X1628Y557D02*
X1774Y557D01*
X1629Y556D02*
X1774Y556D01*
X1630Y555D02*
X1773Y555D01*
X1630Y554D02*
X1772Y554D01*
X1631Y553D02*
X1771Y553D01*
X1632Y552D02*
X1771Y552D01*
X1633Y551D02*
X1770Y551D01*
X1633Y550D02*
X1769Y550D01*
X1634Y549D02*
X1768Y549D01*
X1635Y548D02*
X1767Y548D01*
X1636Y547D02*
X1766Y547D01*
X1637Y546D02*
X1765Y546D01*
X1639Y545D02*
X1764Y545D01*
X1640Y544D02*
X1763Y544D01*
X1641Y543D02*
X1761Y543D01*
X1643Y542D02*
X1760Y542D01*
X1644Y541D02*
X1758Y541D01*
X1646Y540D02*
X1756Y540D01*
X1648Y539D02*
X1754Y539D01*
X1651Y538D02*
X1752Y538D01*
X1654Y537D02*
X1749Y537D01*
X1658Y536D02*
X1745Y536D01*
X1659Y519D02*
X1743Y519D01*
X1654Y518D02*
X1748Y518D01*
X1651Y517D02*
X1751Y517D01*
X1649Y516D02*
X1754Y516D01*
X1647Y515D02*
X1756Y515D01*
X1645Y514D02*
X1758Y514D01*
X1643Y513D02*
X1759Y513D01*
X1642Y512D02*
X1761Y512D01*
X1640Y511D02*
X1762Y511D01*
X1639Y510D02*
X1764Y510D01*
X1638Y509D02*
X1765Y509D01*
X1637Y508D02*
X1766Y508D01*
X1636Y507D02*
X1767Y507D01*
X1635Y506D02*
X1768Y506D01*
X1634Y505D02*
X1769Y505D01*
X1633Y504D02*
X1770Y504D01*
X1632Y503D02*
X1771Y503D01*
X1631Y502D02*
X1771Y502D01*
X1630Y501D02*
X1772Y501D01*
X1630Y500D02*
X1773Y500D01*
X1629Y499D02*
X1773Y499D01*
X1629Y498D02*
X1774Y498D01*
X1628Y497D02*
X1775Y497D01*
X1627Y496D02*
X1775Y496D01*
X1627Y495D02*
X1776Y495D01*
X1626Y494D02*
X1697Y494D01*
X1706Y494D02*
X1776Y494D01*
X1626Y493D02*
X1693Y493D01*
X1709Y493D02*
X1777Y493D01*
X1626Y492D02*
X1691Y492D01*
X1711Y492D02*
X1777Y492D01*
X1625Y491D02*
X1690Y491D01*
X1713Y491D02*
X1777Y491D01*
X1625Y490D02*
X1689Y490D01*
X1714Y490D02*
X1778Y490D01*
X1625Y489D02*
X1688Y489D01*
X1715Y489D02*
X1778Y489D01*
X1624Y488D02*
X1687Y488D01*
X1715Y488D02*
X1778Y488D01*
X1624Y487D02*
X1686Y487D01*
X1716Y487D02*
X1779Y487D01*
X1624Y486D02*
X1686Y486D01*
X1717Y486D02*
X1779Y486D01*
X1624Y485D02*
X1685Y485D01*
X1717Y485D02*
X1779Y485D01*
X1623Y484D02*
X1685Y484D01*
X1718Y484D02*
X1779Y484D01*
X1623Y483D02*
X1685Y483D01*
X1718Y483D02*
X1779Y483D01*
X1623Y482D02*
X1684Y482D01*
X1718Y482D02*
X1779Y482D01*
X1623Y481D02*
X1684Y481D01*
X1718Y481D02*
X1780Y481D01*
X1623Y480D02*
X1684Y480D01*
X1719Y480D02*
X1780Y480D01*
X1623Y479D02*
X1684Y479D01*
X1719Y479D02*
X1780Y479D01*
X1623Y478D02*
X1684Y478D01*
X1719Y478D02*
X1780Y478D01*
X1623Y477D02*
X1684Y477D01*
X1719Y477D02*
X1780Y477D01*
X1623Y476D02*
X1684Y476D01*
X1719Y476D02*
X1780Y476D01*
X1623Y475D02*
X1684Y475D01*
X1719Y475D02*
X1780Y475D01*
X1623Y474D02*
X1684Y474D01*
X1718Y474D02*
X1780Y474D01*
X1623Y473D02*
X1684Y473D01*
X1718Y473D02*
X1779Y473D01*
X1623Y472D02*
X1685Y472D01*
X1718Y472D02*
X1779Y472D01*
X1623Y471D02*
X1685Y471D01*
X1718Y471D02*
X1779Y471D01*
X1624Y470D02*
X1685Y470D01*
X1717Y470D02*
X1779Y470D01*
X1624Y469D02*
X1686Y469D01*
X1717Y469D02*
X1779Y469D01*
X1624Y468D02*
X1686Y468D01*
X1716Y468D02*
X1779Y468D01*
X1624Y467D02*
X1687Y467D01*
X1716Y467D02*
X1778Y467D01*
X1624Y466D02*
X1688Y466D01*
X1715Y466D02*
X1778Y466D01*
X1625Y465D02*
X1689Y465D01*
X1714Y465D02*
X1778Y465D01*
X1625Y464D02*
X1690Y464D01*
X1713Y464D02*
X1777Y464D01*
X1626Y463D02*
X1691Y463D01*
X1711Y463D02*
X1777Y463D01*
X1626Y462D02*
X1693Y462D01*
X1709Y462D02*
X1777Y462D01*
X1626Y461D02*
X1696Y461D01*
X1706Y461D02*
X1776Y461D01*
X1627Y460D02*
X1776Y460D01*
X1627Y459D02*
X1775Y459D01*
X1628Y458D02*
X1775Y458D01*
X1628Y457D02*
X1774Y457D01*
X1629Y456D02*
X1773Y456D01*
X1630Y455D02*
X1773Y455D01*
X1630Y454D02*
X1772Y454D01*
X1631Y453D02*
X1771Y453D01*
X1632Y452D02*
X1771Y452D01*
X1633Y451D02*
X1770Y451D01*
X1633Y450D02*
X1769Y450D01*
X1634Y449D02*
X1768Y449D01*
X1635Y448D02*
X1767Y448D01*
X1636Y447D02*
X1766Y447D01*
X1638Y446D02*
X1765Y446D01*
X1639Y445D02*
X1764Y445D01*
X1640Y444D02*
X1763Y444D01*
X1641Y443D02*
X1761Y443D01*
X1643Y442D02*
X1760Y442D01*
X1644Y441D02*
X1758Y441D01*
X1646Y440D02*
X1756Y440D01*
X1648Y439D02*
X1754Y439D01*
X1651Y438D02*
X1752Y438D01*
X1654Y437D02*
X1749Y437D01*
X1658Y436D02*
X1744Y436D01*
X1659Y419D02*
X1744Y419D01*
X1654Y418D02*
X1748Y418D01*
X1651Y417D02*
X1751Y417D01*
X1649Y416D02*
X1754Y416D01*
X1646Y415D02*
X1756Y415D01*
X1645Y414D02*
X1758Y414D01*
X1643Y413D02*
X1760Y413D01*
X1641Y412D02*
X1761Y412D01*
X1640Y411D02*
X1762Y411D01*
X1639Y410D02*
X1764Y410D01*
X1638Y409D02*
X1765Y409D01*
X1636Y408D02*
X1766Y408D01*
X1635Y407D02*
X1767Y407D01*
X1634Y406D02*
X1768Y406D01*
X1634Y405D02*
X1769Y405D01*
X1633Y404D02*
X1770Y404D01*
X1632Y403D02*
X1771Y403D01*
X1631Y402D02*
X1771Y402D01*
X1630Y401D02*
X1772Y401D01*
X1630Y400D02*
X1773Y400D01*
X1629Y399D02*
X1773Y399D01*
X1628Y398D02*
X1774Y398D01*
X1628Y397D02*
X1775Y397D01*
X1627Y396D02*
X1775Y396D01*
X1627Y395D02*
X1776Y395D01*
X1626Y394D02*
X1696Y394D01*
X1706Y394D02*
X1776Y394D01*
X1626Y393D02*
X1693Y393D01*
X1709Y393D02*
X1777Y393D01*
X1626Y392D02*
X1691Y392D01*
X1711Y392D02*
X1777Y392D01*
X1625Y391D02*
X1690Y391D01*
X1713Y391D02*
X1777Y391D01*
X1625Y390D02*
X1689Y390D01*
X1714Y390D02*
X1778Y390D01*
X1625Y389D02*
X1688Y389D01*
X1715Y389D02*
X1778Y389D01*
X1624Y388D02*
X1687Y388D01*
X1716Y388D02*
X1778Y388D01*
X1624Y387D02*
X1686Y387D01*
X1716Y387D02*
X1779Y387D01*
X1624Y386D02*
X1686Y386D01*
X1717Y386D02*
X1779Y386D01*
X1624Y385D02*
X1685Y385D01*
X1717Y385D02*
X1779Y385D01*
X1623Y384D02*
X1685Y384D01*
X1718Y384D02*
X1779Y384D01*
X1623Y383D02*
X1685Y383D01*
X1718Y383D02*
X1779Y383D01*
X1623Y382D02*
X1684Y382D01*
X1718Y382D02*
X1779Y382D01*
X1623Y381D02*
X1684Y381D01*
X1718Y381D02*
X1780Y381D01*
X1623Y380D02*
X1684Y380D01*
X1719Y380D02*
X1780Y380D01*
X1623Y379D02*
X1684Y379D01*
X1719Y379D02*
X1780Y379D01*
X1623Y378D02*
X1684Y378D01*
X1719Y378D02*
X1780Y378D01*
X1623Y377D02*
X1684Y377D01*
X1719Y377D02*
X1780Y377D01*
X1623Y376D02*
X1684Y376D01*
X1719Y376D02*
X1780Y376D01*
X1623Y375D02*
X1684Y375D01*
X1719Y375D02*
X1780Y375D01*
X1623Y374D02*
X1684Y374D01*
X1718Y374D02*
X1780Y374D01*
X1623Y373D02*
X1684Y373D01*
X1718Y373D02*
X1779Y373D01*
X1623Y372D02*
X1685Y372D01*
X1718Y372D02*
X1779Y372D01*
X1623Y371D02*
X1685Y371D01*
X1718Y371D02*
X1779Y371D01*
X1624Y370D02*
X1685Y370D01*
X1717Y370D02*
X1779Y370D01*
X1624Y369D02*
X1686Y369D01*
X1717Y369D02*
X1779Y369D01*
X1624Y368D02*
X1686Y368D01*
X1716Y368D02*
X1779Y368D01*
X1624Y367D02*
X1687Y367D01*
X1716Y367D02*
X1778Y367D01*
X1625Y366D02*
X1688Y366D01*
X1715Y366D02*
X1778Y366D01*
X1625Y365D02*
X1689Y365D01*
X1714Y365D02*
X1778Y365D01*
X1625Y364D02*
X1690Y364D01*
X1713Y364D02*
X1777Y364D01*
X1626Y363D02*
X1691Y363D01*
X1711Y363D02*
X1777Y363D01*
X1626Y362D02*
X1693Y362D01*
X1709Y362D02*
X1777Y362D01*
X1626Y361D02*
X1696Y361D01*
X1706Y361D02*
X1776Y361D01*
X1627Y360D02*
X1776Y360D01*
X1627Y359D02*
X1775Y359D01*
X1628Y358D02*
X1775Y358D01*
X1628Y357D02*
X1774Y357D01*
X1629Y356D02*
X1773Y356D01*
X1630Y355D02*
X1773Y355D01*
X1630Y354D02*
X1772Y354D01*
X1631Y353D02*
X1771Y353D01*
X1632Y352D02*
X1771Y352D01*
X1633Y351D02*
X1770Y351D01*
X1634Y350D02*
X1769Y350D01*
X1634Y349D02*
X1768Y349D01*
X1635Y348D02*
X1767Y348D01*
X1636Y347D02*
X1766Y347D01*
X1638Y346D02*
X1765Y346D01*
X1639Y345D02*
X1764Y345D01*
X1640Y344D02*
X1762Y344D01*
X1641Y343D02*
X1761Y343D01*
X1643Y342D02*
X1760Y342D01*
X1645Y341D02*
X1758Y341D01*
X1646Y340D02*
X1756Y340D01*
X1649Y339D02*
X1754Y339D01*
X1651Y338D02*
X1751Y338D01*
X1654Y337D02*
X1748Y337D01*
X1659Y336D02*
X1744Y336D01*
X1658Y319D02*
X1744Y319D01*
X1654Y318D02*
X1749Y318D01*
X1651Y317D02*
X1752Y317D01*
X1648Y316D02*
X1754Y316D01*
X1646Y315D02*
X1756Y315D01*
X1644Y314D02*
X1758Y314D01*
X1643Y313D02*
X1760Y313D01*
X1641Y312D02*
X1761Y312D01*
X1640Y311D02*
X1763Y311D01*
X1639Y310D02*
X1764Y310D01*
X1638Y309D02*
X1765Y309D01*
X1636Y308D02*
X1766Y308D01*
X1635Y307D02*
X1767Y307D01*
X1634Y306D02*
X1768Y306D01*
X1633Y305D02*
X1769Y305D01*
X1633Y304D02*
X1770Y304D01*
X1632Y303D02*
X1771Y303D01*
X1631Y302D02*
X1771Y302D01*
X1630Y301D02*
X1772Y301D01*
X1630Y300D02*
X1773Y300D01*
X1629Y299D02*
X1773Y299D01*
X1628Y298D02*
X1774Y298D01*
X1628Y297D02*
X1775Y297D01*
X1627Y296D02*
X1775Y296D01*
X1627Y295D02*
X1776Y295D01*
X1626Y294D02*
X1696Y294D01*
X1706Y294D02*
X1776Y294D01*
X1626Y293D02*
X1693Y293D01*
X1709Y293D02*
X1777Y293D01*
X1626Y292D02*
X1691Y292D01*
X1711Y292D02*
X1777Y292D01*
X1625Y291D02*
X1690Y291D01*
X1713Y291D02*
X1777Y291D01*
X1625Y290D02*
X1689Y290D01*
X1714Y290D02*
X1778Y290D01*
X1624Y289D02*
X1688Y289D01*
X1715Y289D02*
X1778Y289D01*
X1624Y288D02*
X1687Y288D01*
X1716Y288D02*
X1778Y288D01*
X1624Y287D02*
X1686Y287D01*
X1716Y287D02*
X1779Y287D01*
X1624Y286D02*
X1686Y286D01*
X1717Y286D02*
X1779Y286D01*
X1624Y285D02*
X1685Y285D01*
X1717Y285D02*
X1779Y285D01*
X1623Y284D02*
X1685Y284D01*
X1718Y284D02*
X1779Y284D01*
X1623Y283D02*
X1685Y283D01*
X1718Y283D02*
X1779Y283D01*
X1623Y282D02*
X1684Y282D01*
X1718Y282D02*
X1779Y282D01*
X1623Y281D02*
X1684Y281D01*
X1718Y281D02*
X1780Y281D01*
X1623Y280D02*
X1684Y280D01*
X1719Y280D02*
X1780Y280D01*
X1623Y279D02*
X1684Y279D01*
X1719Y279D02*
X1780Y279D01*
X1623Y278D02*
X1684Y278D01*
X1719Y278D02*
X1780Y278D01*
X1623Y277D02*
X1684Y277D01*
X1719Y277D02*
X1780Y277D01*
X1623Y276D02*
X1684Y276D01*
X1719Y276D02*
X1780Y276D01*
X1623Y275D02*
X1684Y275D01*
X1719Y275D02*
X1780Y275D01*
X130Y274D02*
X138Y274D01*
X230Y274D02*
X238Y274D01*
X330Y274D02*
X338Y274D01*
X502Y274D02*
X510Y274D01*
X602Y274D02*
X610Y274D01*
X702Y274D02*
X710Y274D01*
X802Y274D02*
X810Y274D01*
X902Y274D02*
X910Y274D01*
X1623Y274D02*
X1684Y274D01*
X1718Y274D02*
X1780Y274D01*
X124Y273D02*
X143Y273D01*
X224Y273D02*
X243Y273D01*
X324Y273D02*
X343Y273D01*
X497Y273D02*
X516Y273D01*
X597Y273D02*
X616Y273D01*
X697Y273D02*
X715Y273D01*
X796Y273D02*
X815Y273D01*
X896Y273D02*
X915Y273D01*
X1623Y273D02*
X1684Y273D01*
X1718Y273D02*
X1779Y273D01*
X121Y272D02*
X147Y272D01*
X221Y272D02*
X246Y272D01*
X321Y272D02*
X346Y272D01*
X493Y272D02*
X519Y272D01*
X593Y272D02*
X619Y272D01*
X693Y272D02*
X719Y272D01*
X793Y272D02*
X819Y272D01*
X893Y272D02*
X919Y272D01*
X1623Y272D02*
X1685Y272D01*
X1718Y272D02*
X1779Y272D01*
X119Y271D02*
X149Y271D01*
X218Y271D02*
X249Y271D01*
X318Y271D02*
X349Y271D01*
X491Y271D02*
X521Y271D01*
X591Y271D02*
X621Y271D01*
X691Y271D02*
X721Y271D01*
X791Y271D02*
X821Y271D01*
X891Y271D02*
X921Y271D01*
X1623Y271D02*
X1685Y271D01*
X1718Y271D02*
X1779Y271D01*
X116Y270D02*
X151Y270D01*
X216Y270D02*
X251Y270D01*
X316Y270D02*
X351Y270D01*
X489Y270D02*
X524Y270D01*
X589Y270D02*
X624Y270D01*
X689Y270D02*
X723Y270D01*
X789Y270D02*
X823Y270D01*
X888Y270D02*
X923Y270D01*
X1624Y270D02*
X1685Y270D01*
X1717Y270D02*
X1779Y270D01*
X114Y269D02*
X153Y269D01*
X214Y269D02*
X253Y269D01*
X314Y269D02*
X353Y269D01*
X487Y269D02*
X525Y269D01*
X587Y269D02*
X625Y269D01*
X687Y269D02*
X725Y269D01*
X787Y269D02*
X825Y269D01*
X887Y269D02*
X925Y269D01*
X1624Y269D02*
X1686Y269D01*
X1717Y269D02*
X1779Y269D01*
X113Y268D02*
X155Y268D01*
X213Y268D02*
X255Y268D01*
X313Y268D02*
X355Y268D01*
X485Y268D02*
X527Y268D01*
X585Y268D02*
X627Y268D01*
X685Y268D02*
X727Y268D01*
X785Y268D02*
X827Y268D01*
X885Y268D02*
X927Y268D01*
X1624Y268D02*
X1686Y268D01*
X1716Y268D02*
X1779Y268D01*
X111Y267D02*
X156Y267D01*
X211Y267D02*
X256Y267D01*
X311Y267D02*
X356Y267D01*
X484Y267D02*
X529Y267D01*
X583Y267D02*
X629Y267D01*
X683Y267D02*
X729Y267D01*
X783Y267D02*
X829Y267D01*
X883Y267D02*
X928Y267D01*
X1624Y267D02*
X1687Y267D01*
X1715Y267D02*
X1778Y267D01*
X110Y266D02*
X158Y266D01*
X210Y266D02*
X258Y266D01*
X310Y266D02*
X358Y266D01*
X482Y266D02*
X530Y266D01*
X582Y266D02*
X630Y266D01*
X682Y266D02*
X730Y266D01*
X782Y266D02*
X830Y266D01*
X882Y266D02*
X930Y266D01*
X1625Y266D02*
X1688Y266D01*
X1715Y266D02*
X1778Y266D01*
X109Y265D02*
X159Y265D01*
X208Y265D02*
X259Y265D01*
X308Y265D02*
X359Y265D01*
X481Y265D02*
X531Y265D01*
X581Y265D02*
X631Y265D01*
X681Y265D02*
X731Y265D01*
X781Y265D02*
X831Y265D01*
X881Y265D02*
X931Y265D01*
X1625Y265D02*
X1689Y265D01*
X1714Y265D02*
X1778Y265D01*
X107Y264D02*
X160Y264D01*
X207Y264D02*
X260Y264D01*
X307Y264D02*
X360Y264D01*
X480Y264D02*
X533Y264D01*
X580Y264D02*
X633Y264D01*
X680Y264D02*
X732Y264D01*
X779Y264D02*
X832Y264D01*
X879Y264D02*
X932Y264D01*
X1625Y264D02*
X1690Y264D01*
X1713Y264D02*
X1777Y264D01*
X106Y263D02*
X161Y263D01*
X206Y263D02*
X261Y263D01*
X306Y263D02*
X361Y263D01*
X478Y263D02*
X534Y263D01*
X578Y263D02*
X634Y263D01*
X678Y263D02*
X734Y263D01*
X778Y263D02*
X834Y263D01*
X878Y263D02*
X934Y263D01*
X1626Y263D02*
X1691Y263D01*
X1711Y263D02*
X1777Y263D01*
X105Y262D02*
X162Y262D01*
X205Y262D02*
X262Y262D01*
X305Y262D02*
X362Y262D01*
X477Y262D02*
X535Y262D01*
X577Y262D02*
X635Y262D01*
X677Y262D02*
X735Y262D01*
X777Y262D02*
X835Y262D01*
X877Y262D02*
X935Y262D01*
X1626Y262D02*
X1693Y262D01*
X1709Y262D02*
X1777Y262D01*
X104Y261D02*
X163Y261D01*
X204Y261D02*
X263Y261D01*
X304Y261D02*
X363Y261D01*
X476Y261D02*
X536Y261D01*
X576Y261D02*
X636Y261D01*
X676Y261D02*
X736Y261D01*
X776Y261D02*
X836Y261D01*
X876Y261D02*
X936Y261D01*
X1626Y261D02*
X1697Y261D01*
X1706Y261D02*
X1776Y261D01*
X103Y260D02*
X164Y260D01*
X203Y260D02*
X264Y260D01*
X303Y260D02*
X364Y260D01*
X476Y260D02*
X537Y260D01*
X575Y260D02*
X637Y260D01*
X675Y260D02*
X737Y260D01*
X775Y260D02*
X837Y260D01*
X875Y260D02*
X936Y260D01*
X1627Y260D02*
X1776Y260D01*
X102Y259D02*
X165Y259D01*
X202Y259D02*
X265Y259D01*
X302Y259D02*
X365Y259D01*
X475Y259D02*
X538Y259D01*
X575Y259D02*
X637Y259D01*
X675Y259D02*
X737Y259D01*
X775Y259D02*
X837Y259D01*
X874Y259D02*
X937Y259D01*
X1627Y259D02*
X1775Y259D01*
X102Y258D02*
X166Y258D01*
X202Y258D02*
X266Y258D01*
X301Y258D02*
X366Y258D01*
X474Y258D02*
X538Y258D01*
X574Y258D02*
X638Y258D01*
X674Y258D02*
X738Y258D01*
X774Y258D02*
X838Y258D01*
X874Y258D02*
X938Y258D01*
X1628Y258D02*
X1775Y258D01*
X101Y257D02*
X167Y257D01*
X201Y257D02*
X267Y257D01*
X301Y257D02*
X367Y257D01*
X473Y257D02*
X539Y257D01*
X573Y257D02*
X639Y257D01*
X673Y257D02*
X739Y257D01*
X773Y257D02*
X839Y257D01*
X873Y257D02*
X939Y257D01*
X1628Y257D02*
X1774Y257D01*
X100Y256D02*
X168Y256D01*
X200Y256D02*
X268Y256D01*
X300Y256D02*
X367Y256D01*
X472Y256D02*
X540Y256D01*
X572Y256D02*
X640Y256D01*
X672Y256D02*
X740Y256D01*
X772Y256D02*
X840Y256D01*
X872Y256D02*
X940Y256D01*
X1629Y256D02*
X1773Y256D01*
X99Y255D02*
X168Y255D01*
X199Y255D02*
X268Y255D01*
X299Y255D02*
X368Y255D01*
X472Y255D02*
X541Y255D01*
X572Y255D02*
X640Y255D01*
X672Y255D02*
X740Y255D01*
X772Y255D02*
X840Y255D01*
X871Y255D02*
X940Y255D01*
X1630Y255D02*
X1773Y255D01*
X99Y254D02*
X169Y254D01*
X199Y254D02*
X269Y254D01*
X299Y254D02*
X369Y254D01*
X471Y254D02*
X541Y254D01*
X571Y254D02*
X641Y254D01*
X671Y254D02*
X741Y254D01*
X771Y254D02*
X841Y254D01*
X871Y254D02*
X941Y254D01*
X1630Y254D02*
X1772Y254D01*
X98Y253D02*
X170Y253D01*
X198Y253D02*
X269Y253D01*
X298Y253D02*
X369Y253D01*
X470Y253D02*
X542Y253D01*
X570Y253D02*
X642Y253D01*
X670Y253D02*
X742Y253D01*
X770Y253D02*
X842Y253D01*
X870Y253D02*
X942Y253D01*
X1631Y253D02*
X1771Y253D01*
X98Y252D02*
X170Y252D01*
X197Y252D02*
X270Y252D01*
X297Y252D02*
X370Y252D01*
X470Y252D02*
X542Y252D01*
X570Y252D02*
X642Y252D01*
X670Y252D02*
X742Y252D01*
X770Y252D02*
X842Y252D01*
X870Y252D02*
X942Y252D01*
X1632Y252D02*
X1771Y252D01*
X97Y251D02*
X171Y251D01*
X197Y251D02*
X271Y251D01*
X297Y251D02*
X371Y251D01*
X469Y251D02*
X543Y251D01*
X569Y251D02*
X643Y251D01*
X669Y251D02*
X743Y251D01*
X769Y251D02*
X843Y251D01*
X869Y251D02*
X943Y251D01*
X1633Y251D02*
X1770Y251D01*
X96Y250D02*
X171Y250D01*
X196Y250D02*
X271Y250D01*
X296Y250D02*
X371Y250D01*
X469Y250D02*
X543Y250D01*
X569Y250D02*
X643Y250D01*
X669Y250D02*
X743Y250D01*
X769Y250D02*
X843Y250D01*
X869Y250D02*
X943Y250D01*
X1634Y250D02*
X1769Y250D01*
X96Y249D02*
X172Y249D01*
X196Y249D02*
X272Y249D01*
X296Y249D02*
X372Y249D01*
X468Y249D02*
X544Y249D01*
X568Y249D02*
X644Y249D01*
X668Y249D02*
X744Y249D01*
X768Y249D02*
X844Y249D01*
X868Y249D02*
X944Y249D01*
X1635Y249D02*
X1768Y249D01*
X96Y248D02*
X172Y248D01*
X196Y248D02*
X272Y248D01*
X295Y248D02*
X372Y248D01*
X468Y248D02*
X544Y248D01*
X568Y248D02*
X644Y248D01*
X668Y248D02*
X744Y248D01*
X768Y248D02*
X844Y248D01*
X868Y248D02*
X944Y248D01*
X1635Y248D02*
X1767Y248D01*
X95Y247D02*
X172Y247D01*
X195Y247D02*
X272Y247D01*
X295Y247D02*
X372Y247D01*
X467Y247D02*
X545Y247D01*
X567Y247D02*
X645Y247D01*
X667Y247D02*
X745Y247D01*
X767Y247D02*
X845Y247D01*
X867Y247D02*
X945Y247D01*
X1637Y247D02*
X1766Y247D01*
X95Y246D02*
X173Y246D01*
X195Y246D02*
X273Y246D01*
X295Y246D02*
X373Y246D01*
X467Y246D02*
X545Y246D01*
X567Y246D02*
X645Y246D01*
X667Y246D02*
X745Y246D01*
X767Y246D02*
X845Y246D01*
X867Y246D02*
X945Y246D01*
X1638Y246D02*
X1765Y246D01*
X94Y245D02*
X173Y245D01*
X194Y245D02*
X273Y245D01*
X294Y245D02*
X373Y245D01*
X467Y245D02*
X545Y245D01*
X567Y245D02*
X645Y245D01*
X667Y245D02*
X745Y245D01*
X767Y245D02*
X845Y245D01*
X867Y245D02*
X945Y245D01*
X1639Y245D02*
X1764Y245D01*
X94Y244D02*
X174Y244D01*
X194Y244D02*
X273Y244D01*
X294Y244D02*
X373Y244D01*
X466Y244D02*
X546Y244D01*
X566Y244D02*
X646Y244D01*
X666Y244D02*
X746Y244D01*
X766Y244D02*
X846Y244D01*
X866Y244D02*
X946Y244D01*
X1640Y244D02*
X1762Y244D01*
X94Y243D02*
X174Y243D01*
X194Y243D02*
X274Y243D01*
X294Y243D02*
X374Y243D01*
X466Y243D02*
X546Y243D01*
X566Y243D02*
X646Y243D01*
X666Y243D02*
X746Y243D01*
X766Y243D02*
X846Y243D01*
X866Y243D02*
X946Y243D01*
X1642Y243D02*
X1761Y243D01*
X94Y242D02*
X174Y242D01*
X194Y242D02*
X274Y242D01*
X293Y242D02*
X374Y242D01*
X466Y242D02*
X546Y242D01*
X566Y242D02*
X646Y242D01*
X666Y242D02*
X746Y242D01*
X766Y242D02*
X846Y242D01*
X866Y242D02*
X946Y242D01*
X1643Y242D02*
X1759Y242D01*
X93Y241D02*
X174Y241D01*
X193Y241D02*
X274Y241D01*
X293Y241D02*
X374Y241D01*
X466Y241D02*
X547Y241D01*
X566Y241D02*
X647Y241D01*
X666Y241D02*
X747Y241D01*
X765Y241D02*
X846Y241D01*
X865Y241D02*
X946Y241D01*
X1645Y241D02*
X1758Y241D01*
X93Y240D02*
X175Y240D01*
X193Y240D02*
X274Y240D01*
X293Y240D02*
X374Y240D01*
X465Y240D02*
X547Y240D01*
X565Y240D02*
X647Y240D01*
X665Y240D02*
X747Y240D01*
X765Y240D02*
X847Y240D01*
X865Y240D02*
X947Y240D01*
X1647Y240D02*
X1756Y240D01*
X93Y239D02*
X175Y239D01*
X193Y239D02*
X275Y239D01*
X293Y239D02*
X375Y239D01*
X465Y239D02*
X547Y239D01*
X565Y239D02*
X647Y239D01*
X665Y239D02*
X747Y239D01*
X765Y239D02*
X847Y239D01*
X865Y239D02*
X947Y239D01*
X1649Y239D02*
X1754Y239D01*
X93Y238D02*
X175Y238D01*
X193Y238D02*
X275Y238D01*
X293Y238D02*
X375Y238D01*
X465Y238D02*
X547Y238D01*
X565Y238D02*
X647Y238D01*
X665Y238D02*
X747Y238D01*
X765Y238D02*
X847Y238D01*
X865Y238D02*
X947Y238D01*
X1651Y238D02*
X1751Y238D01*
X93Y237D02*
X175Y237D01*
X193Y237D02*
X275Y237D01*
X293Y237D02*
X375Y237D01*
X465Y237D02*
X547Y237D01*
X565Y237D02*
X647Y237D01*
X665Y237D02*
X747Y237D01*
X765Y237D02*
X847Y237D01*
X865Y237D02*
X947Y237D01*
X1654Y237D02*
X1748Y237D01*
X93Y236D02*
X175Y236D01*
X192Y236D02*
X275Y236D01*
X292Y236D02*
X375Y236D01*
X465Y236D02*
X547Y236D01*
X565Y236D02*
X647Y236D01*
X665Y236D02*
X747Y236D01*
X765Y236D02*
X847Y236D01*
X865Y236D02*
X947Y236D01*
X1659Y236D02*
X1743Y236D01*
X92Y235D02*
X175Y235D01*
X192Y235D02*
X275Y235D01*
X292Y235D02*
X375Y235D01*
X465Y235D02*
X547Y235D01*
X565Y235D02*
X647Y235D01*
X665Y235D02*
X747Y235D01*
X765Y235D02*
X847Y235D01*
X865Y235D02*
X947Y235D01*
X92Y234D02*
X175Y234D01*
X192Y234D02*
X275Y234D01*
X292Y234D02*
X375Y234D01*
X465Y234D02*
X548Y234D01*
X565Y234D02*
X647Y234D01*
X665Y234D02*
X747Y234D01*
X765Y234D02*
X847Y234D01*
X864Y234D02*
X947Y234D01*
X92Y233D02*
X175Y233D01*
X192Y233D02*
X275Y233D01*
X292Y233D02*
X375Y233D01*
X465Y233D02*
X548Y233D01*
X565Y233D02*
X648Y233D01*
X665Y233D02*
X747Y233D01*
X764Y233D02*
X847Y233D01*
X864Y233D02*
X947Y233D01*
X92Y232D02*
X175Y232D01*
X192Y232D02*
X275Y232D01*
X292Y232D02*
X375Y232D01*
X465Y232D02*
X548Y232D01*
X565Y232D02*
X648Y232D01*
X665Y232D02*
X748Y232D01*
X764Y232D02*
X847Y232D01*
X864Y232D02*
X947Y232D01*
X92Y231D02*
X175Y231D01*
X192Y231D02*
X275Y231D01*
X292Y231D02*
X375Y231D01*
X465Y231D02*
X548Y231D01*
X565Y231D02*
X648Y231D01*
X665Y231D02*
X748Y231D01*
X764Y231D02*
X847Y231D01*
X864Y231D02*
X947Y231D01*
X92Y230D02*
X175Y230D01*
X192Y230D02*
X275Y230D01*
X292Y230D02*
X375Y230D01*
X465Y230D02*
X548Y230D01*
X565Y230D02*
X648Y230D01*
X665Y230D02*
X748Y230D01*
X764Y230D02*
X847Y230D01*
X864Y230D02*
X947Y230D01*
X92Y229D02*
X175Y229D01*
X192Y229D02*
X275Y229D01*
X292Y229D02*
X375Y229D01*
X465Y229D02*
X548Y229D01*
X565Y229D02*
X648Y229D01*
X665Y229D02*
X748Y229D01*
X764Y229D02*
X847Y229D01*
X864Y229D02*
X947Y229D01*
X92Y228D02*
X175Y228D01*
X192Y228D02*
X275Y228D01*
X292Y228D02*
X375Y228D01*
X465Y228D02*
X548Y228D01*
X565Y228D02*
X648Y228D01*
X665Y228D02*
X748Y228D01*
X764Y228D02*
X847Y228D01*
X864Y228D02*
X947Y228D01*
X92Y227D02*
X175Y227D01*
X192Y227D02*
X275Y227D01*
X292Y227D02*
X375Y227D01*
X465Y227D02*
X548Y227D01*
X565Y227D02*
X648Y227D01*
X665Y227D02*
X748Y227D01*
X764Y227D02*
X847Y227D01*
X864Y227D02*
X947Y227D01*
X92Y226D02*
X175Y226D01*
X192Y226D02*
X275Y226D01*
X292Y226D02*
X375Y226D01*
X465Y226D02*
X548Y226D01*
X565Y226D02*
X648Y226D01*
X665Y226D02*
X748Y226D01*
X764Y226D02*
X847Y226D01*
X864Y226D02*
X947Y226D01*
X92Y225D02*
X175Y225D01*
X192Y225D02*
X275Y225D01*
X292Y225D02*
X375Y225D01*
X465Y225D02*
X548Y225D01*
X565Y225D02*
X648Y225D01*
X665Y225D02*
X748Y225D01*
X764Y225D02*
X847Y225D01*
X864Y225D02*
X947Y225D01*
X92Y224D02*
X175Y224D01*
X192Y224D02*
X275Y224D01*
X292Y224D02*
X375Y224D01*
X465Y224D02*
X548Y224D01*
X565Y224D02*
X648Y224D01*
X665Y224D02*
X748Y224D01*
X764Y224D02*
X847Y224D01*
X864Y224D02*
X947Y224D01*
X92Y223D02*
X175Y223D01*
X192Y223D02*
X275Y223D01*
X292Y223D02*
X375Y223D01*
X465Y223D02*
X548Y223D01*
X565Y223D02*
X648Y223D01*
X665Y223D02*
X748Y223D01*
X764Y223D02*
X847Y223D01*
X864Y223D02*
X947Y223D01*
X92Y222D02*
X175Y222D01*
X192Y222D02*
X275Y222D01*
X292Y222D02*
X375Y222D01*
X465Y222D02*
X548Y222D01*
X565Y222D02*
X648Y222D01*
X665Y222D02*
X748Y222D01*
X764Y222D02*
X847Y222D01*
X864Y222D02*
X947Y222D01*
X92Y221D02*
X175Y221D01*
X192Y221D02*
X275Y221D01*
X292Y221D02*
X375Y221D01*
X465Y221D02*
X548Y221D01*
X565Y221D02*
X648Y221D01*
X665Y221D02*
X748Y221D01*
X764Y221D02*
X847Y221D01*
X864Y221D02*
X947Y221D01*
X92Y220D02*
X175Y220D01*
X192Y220D02*
X275Y220D01*
X292Y220D02*
X375Y220D01*
X465Y220D02*
X548Y220D01*
X565Y220D02*
X648Y220D01*
X665Y220D02*
X748Y220D01*
X764Y220D02*
X847Y220D01*
X864Y220D02*
X947Y220D01*
X92Y219D02*
X175Y219D01*
X192Y219D02*
X275Y219D01*
X292Y219D02*
X375Y219D01*
X465Y219D02*
X548Y219D01*
X565Y219D02*
X648Y219D01*
X665Y219D02*
X748Y219D01*
X764Y219D02*
X847Y219D01*
X864Y219D02*
X947Y219D01*
X1658Y219D02*
X1745Y219D01*
X92Y218D02*
X175Y218D01*
X192Y218D02*
X275Y218D01*
X292Y218D02*
X375Y218D01*
X465Y218D02*
X548Y218D01*
X565Y218D02*
X648Y218D01*
X665Y218D02*
X748Y218D01*
X764Y218D02*
X847Y218D01*
X864Y218D02*
X947Y218D01*
X1654Y218D02*
X1749Y218D01*
X92Y217D02*
X175Y217D01*
X192Y217D02*
X275Y217D01*
X292Y217D02*
X375Y217D01*
X465Y217D02*
X548Y217D01*
X565Y217D02*
X648Y217D01*
X665Y217D02*
X748Y217D01*
X764Y217D02*
X847Y217D01*
X864Y217D02*
X947Y217D01*
X1651Y217D02*
X1752Y217D01*
X92Y216D02*
X175Y216D01*
X192Y216D02*
X275Y216D01*
X292Y216D02*
X375Y216D01*
X465Y216D02*
X548Y216D01*
X565Y216D02*
X648Y216D01*
X665Y216D02*
X748Y216D01*
X764Y216D02*
X847Y216D01*
X864Y216D02*
X947Y216D01*
X1648Y216D02*
X1754Y216D01*
X92Y215D02*
X175Y215D01*
X192Y215D02*
X275Y215D01*
X292Y215D02*
X375Y215D01*
X465Y215D02*
X548Y215D01*
X565Y215D02*
X648Y215D01*
X665Y215D02*
X748Y215D01*
X764Y215D02*
X847Y215D01*
X864Y215D02*
X947Y215D01*
X1646Y215D02*
X1756Y215D01*
X92Y214D02*
X175Y214D01*
X192Y214D02*
X275Y214D01*
X292Y214D02*
X375Y214D01*
X465Y214D02*
X548Y214D01*
X565Y214D02*
X648Y214D01*
X665Y214D02*
X748Y214D01*
X764Y214D02*
X847Y214D01*
X864Y214D02*
X947Y214D01*
X1644Y214D02*
X1758Y214D01*
X92Y213D02*
X175Y213D01*
X192Y213D02*
X275Y213D01*
X292Y213D02*
X375Y213D01*
X465Y213D02*
X548Y213D01*
X565Y213D02*
X648Y213D01*
X665Y213D02*
X748Y213D01*
X764Y213D02*
X847Y213D01*
X864Y213D02*
X947Y213D01*
X1643Y213D02*
X1760Y213D01*
X92Y212D02*
X130Y212D01*
X138Y212D02*
X175Y212D01*
X192Y212D02*
X230Y212D01*
X238Y212D02*
X275Y212D01*
X292Y212D02*
X330Y212D01*
X338Y212D02*
X375Y212D01*
X465Y212D02*
X502Y212D01*
X510Y212D02*
X548Y212D01*
X565Y212D02*
X602Y212D01*
X610Y212D02*
X648Y212D01*
X665Y212D02*
X702Y212D01*
X710Y212D02*
X748Y212D01*
X764Y212D02*
X802Y212D01*
X810Y212D02*
X847Y212D01*
X864Y212D02*
X902Y212D01*
X910Y212D02*
X947Y212D01*
X1641Y212D02*
X1761Y212D01*
X92Y211D02*
X126Y211D01*
X141Y211D02*
X175Y211D01*
X192Y211D02*
X226Y211D01*
X241Y211D02*
X275Y211D01*
X292Y211D02*
X326Y211D01*
X341Y211D02*
X375Y211D01*
X465Y211D02*
X498Y211D01*
X514Y211D02*
X548Y211D01*
X565Y211D02*
X598Y211D01*
X614Y211D02*
X648Y211D01*
X665Y211D02*
X698Y211D01*
X714Y211D02*
X748Y211D01*
X764Y211D02*
X798Y211D01*
X814Y211D02*
X847Y211D01*
X864Y211D02*
X898Y211D01*
X914Y211D02*
X947Y211D01*
X1640Y211D02*
X1763Y211D01*
X92Y210D02*
X124Y210D01*
X143Y210D02*
X175Y210D01*
X192Y210D02*
X224Y210D01*
X243Y210D02*
X275Y210D01*
X292Y210D02*
X324Y210D01*
X343Y210D02*
X375Y210D01*
X465Y210D02*
X496Y210D01*
X516Y210D02*
X548Y210D01*
X565Y210D02*
X596Y210D01*
X616Y210D02*
X648Y210D01*
X665Y210D02*
X696Y210D01*
X716Y210D02*
X748Y210D01*
X764Y210D02*
X796Y210D01*
X816Y210D02*
X847Y210D01*
X864Y210D02*
X896Y210D01*
X916Y210D02*
X947Y210D01*
X1639Y210D02*
X1764Y210D01*
X92Y209D02*
X123Y209D01*
X145Y209D02*
X175Y209D01*
X192Y209D02*
X223Y209D01*
X245Y209D02*
X275Y209D01*
X292Y209D02*
X323Y209D01*
X345Y209D02*
X375Y209D01*
X465Y209D02*
X495Y209D01*
X517Y209D02*
X548Y209D01*
X565Y209D02*
X595Y209D01*
X617Y209D02*
X648Y209D01*
X665Y209D02*
X695Y209D01*
X717Y209D02*
X748Y209D01*
X764Y209D02*
X795Y209D01*
X817Y209D02*
X847Y209D01*
X864Y209D02*
X895Y209D01*
X917Y209D02*
X947Y209D01*
X1637Y209D02*
X1765Y209D01*
X92Y208D02*
X121Y208D01*
X146Y208D02*
X175Y208D01*
X192Y208D02*
X221Y208D01*
X246Y208D02*
X275Y208D01*
X292Y208D02*
X321Y208D01*
X346Y208D02*
X375Y208D01*
X465Y208D02*
X494Y208D01*
X518Y208D02*
X548Y208D01*
X565Y208D02*
X594Y208D01*
X618Y208D02*
X648Y208D01*
X665Y208D02*
X694Y208D01*
X718Y208D02*
X748Y208D01*
X764Y208D02*
X794Y208D01*
X818Y208D02*
X847Y208D01*
X864Y208D02*
X894Y208D01*
X918Y208D02*
X947Y208D01*
X1636Y208D02*
X1766Y208D01*
X92Y207D02*
X120Y207D01*
X147Y207D02*
X175Y207D01*
X192Y207D02*
X220Y207D01*
X247Y207D02*
X275Y207D01*
X292Y207D02*
X320Y207D01*
X347Y207D02*
X375Y207D01*
X465Y207D02*
X493Y207D01*
X519Y207D02*
X548Y207D01*
X565Y207D02*
X593Y207D01*
X619Y207D02*
X648Y207D01*
X665Y207D02*
X693Y207D01*
X719Y207D02*
X748Y207D01*
X764Y207D02*
X793Y207D01*
X819Y207D02*
X847Y207D01*
X864Y207D02*
X893Y207D01*
X919Y207D02*
X947Y207D01*
X1635Y207D02*
X1767Y207D01*
X92Y206D02*
X120Y206D01*
X148Y206D02*
X175Y206D01*
X192Y206D02*
X220Y206D01*
X248Y206D02*
X275Y206D01*
X292Y206D02*
X320Y206D01*
X348Y206D02*
X375Y206D01*
X465Y206D02*
X492Y206D01*
X520Y206D02*
X548Y206D01*
X565Y206D02*
X592Y206D01*
X620Y206D02*
X648Y206D01*
X665Y206D02*
X692Y206D01*
X720Y206D02*
X748Y206D01*
X764Y206D02*
X792Y206D01*
X820Y206D02*
X847Y206D01*
X864Y206D02*
X892Y206D01*
X920Y206D02*
X947Y206D01*
X1634Y206D02*
X1768Y206D01*
X92Y205D02*
X119Y205D01*
X149Y205D02*
X175Y205D01*
X192Y205D02*
X219Y205D01*
X249Y205D02*
X275Y205D01*
X292Y205D02*
X319Y205D01*
X349Y205D02*
X375Y205D01*
X465Y205D02*
X491Y205D01*
X521Y205D02*
X548Y205D01*
X565Y205D02*
X591Y205D01*
X621Y205D02*
X648Y205D01*
X665Y205D02*
X691Y205D01*
X721Y205D02*
X748Y205D01*
X764Y205D02*
X791Y205D01*
X821Y205D02*
X847Y205D01*
X864Y205D02*
X891Y205D01*
X921Y205D02*
X947Y205D01*
X1633Y205D02*
X1769Y205D01*
X92Y204D02*
X118Y204D01*
X149Y204D02*
X175Y204D01*
X192Y204D02*
X218Y204D01*
X249Y204D02*
X275Y204D01*
X292Y204D02*
X318Y204D01*
X349Y204D02*
X375Y204D01*
X465Y204D02*
X491Y204D01*
X522Y204D02*
X548Y204D01*
X565Y204D02*
X591Y204D01*
X621Y204D02*
X648Y204D01*
X665Y204D02*
X691Y204D01*
X721Y204D02*
X748Y204D01*
X764Y204D02*
X791Y204D01*
X821Y204D02*
X847Y204D01*
X864Y204D02*
X890Y204D01*
X921Y204D02*
X947Y204D01*
X1633Y204D02*
X1770Y204D01*
X92Y203D02*
X118Y203D01*
X150Y203D02*
X175Y203D01*
X192Y203D02*
X218Y203D01*
X250Y203D02*
X275Y203D01*
X292Y203D02*
X318Y203D01*
X350Y203D02*
X375Y203D01*
X465Y203D02*
X490Y203D01*
X522Y203D02*
X548Y203D01*
X565Y203D02*
X590Y203D01*
X622Y203D02*
X648Y203D01*
X665Y203D02*
X690Y203D01*
X722Y203D02*
X748Y203D01*
X764Y203D02*
X790Y203D01*
X822Y203D02*
X847Y203D01*
X864Y203D02*
X890Y203D01*
X922Y203D02*
X947Y203D01*
X1632Y203D02*
X1771Y203D01*
X92Y202D02*
X117Y202D01*
X150Y202D02*
X175Y202D01*
X192Y202D02*
X217Y202D01*
X250Y202D02*
X275Y202D01*
X292Y202D02*
X317Y202D01*
X350Y202D02*
X375Y202D01*
X465Y202D02*
X490Y202D01*
X522Y202D02*
X548Y202D01*
X565Y202D02*
X590Y202D01*
X622Y202D02*
X648Y202D01*
X665Y202D02*
X690Y202D01*
X722Y202D02*
X748Y202D01*
X764Y202D02*
X790Y202D01*
X822Y202D02*
X847Y202D01*
X864Y202D02*
X890Y202D01*
X922Y202D02*
X947Y202D01*
X1631Y202D02*
X1771Y202D01*
X92Y201D02*
X117Y201D01*
X150Y201D02*
X175Y201D01*
X192Y201D02*
X217Y201D01*
X250Y201D02*
X275Y201D01*
X292Y201D02*
X317Y201D01*
X350Y201D02*
X375Y201D01*
X465Y201D02*
X489Y201D01*
X523Y201D02*
X548Y201D01*
X565Y201D02*
X589Y201D01*
X623Y201D02*
X648Y201D01*
X665Y201D02*
X689Y201D01*
X723Y201D02*
X748Y201D01*
X764Y201D02*
X789Y201D01*
X823Y201D02*
X847Y201D01*
X864Y201D02*
X889Y201D01*
X923Y201D02*
X947Y201D01*
X1630Y201D02*
X1772Y201D01*
X92Y200D02*
X117Y200D01*
X151Y200D02*
X175Y200D01*
X192Y200D02*
X217Y200D01*
X251Y200D02*
X275Y200D01*
X292Y200D02*
X317Y200D01*
X351Y200D02*
X375Y200D01*
X465Y200D02*
X489Y200D01*
X523Y200D02*
X548Y200D01*
X565Y200D02*
X589Y200D01*
X623Y200D02*
X648Y200D01*
X665Y200D02*
X689Y200D01*
X723Y200D02*
X748Y200D01*
X764Y200D02*
X789Y200D01*
X823Y200D02*
X847Y200D01*
X864Y200D02*
X889Y200D01*
X923Y200D02*
X947Y200D01*
X1630Y200D02*
X1773Y200D01*
X92Y199D02*
X117Y199D01*
X151Y199D02*
X175Y199D01*
X192Y199D02*
X217Y199D01*
X251Y199D02*
X275Y199D01*
X292Y199D02*
X317Y199D01*
X351Y199D02*
X375Y199D01*
X465Y199D02*
X489Y199D01*
X523Y199D02*
X548Y199D01*
X565Y199D02*
X589Y199D01*
X623Y199D02*
X648Y199D01*
X665Y199D02*
X689Y199D01*
X723Y199D02*
X748Y199D01*
X764Y199D02*
X789Y199D01*
X823Y199D02*
X847Y199D01*
X864Y199D02*
X889Y199D01*
X923Y199D02*
X947Y199D01*
X1629Y199D02*
X1774Y199D01*
X92Y198D02*
X116Y198D01*
X151Y198D02*
X175Y198D01*
X192Y198D02*
X216Y198D01*
X251Y198D02*
X275Y198D01*
X292Y198D02*
X316Y198D01*
X351Y198D02*
X375Y198D01*
X465Y198D02*
X489Y198D01*
X523Y198D02*
X548Y198D01*
X565Y198D02*
X589Y198D01*
X623Y198D02*
X648Y198D01*
X665Y198D02*
X689Y198D01*
X723Y198D02*
X748Y198D01*
X764Y198D02*
X789Y198D01*
X823Y198D02*
X847Y198D01*
X864Y198D02*
X889Y198D01*
X923Y198D02*
X947Y198D01*
X1628Y198D02*
X1774Y198D01*
X92Y197D02*
X116Y197D01*
X151Y197D02*
X175Y197D01*
X192Y197D02*
X216Y197D01*
X251Y197D02*
X275Y197D01*
X292Y197D02*
X316Y197D01*
X351Y197D02*
X375Y197D01*
X465Y197D02*
X489Y197D01*
X524Y197D02*
X548Y197D01*
X565Y197D02*
X589Y197D01*
X623Y197D02*
X648Y197D01*
X665Y197D02*
X689Y197D01*
X723Y197D02*
X748Y197D01*
X764Y197D02*
X789Y197D01*
X823Y197D02*
X847Y197D01*
X864Y197D02*
X889Y197D01*
X923Y197D02*
X947Y197D01*
X1628Y197D02*
X1775Y197D01*
X92Y196D02*
X116Y196D01*
X151Y196D02*
X175Y196D01*
X192Y196D02*
X216Y196D01*
X251Y196D02*
X275Y196D01*
X292Y196D02*
X316Y196D01*
X351Y196D02*
X375Y196D01*
X465Y196D02*
X489Y196D01*
X524Y196D02*
X548Y196D01*
X565Y196D02*
X589Y196D01*
X624Y196D02*
X648Y196D01*
X665Y196D02*
X689Y196D01*
X723Y196D02*
X748Y196D01*
X764Y196D02*
X788Y196D01*
X823Y196D02*
X847Y196D01*
X864Y196D02*
X888Y196D01*
X923Y196D02*
X947Y196D01*
X1627Y196D02*
X1775Y196D01*
X92Y195D02*
X116Y195D01*
X151Y195D02*
X175Y195D01*
X192Y195D02*
X216Y195D01*
X251Y195D02*
X275Y195D01*
X292Y195D02*
X316Y195D01*
X351Y195D02*
X375Y195D01*
X465Y195D02*
X489Y195D01*
X524Y195D02*
X548Y195D01*
X565Y195D02*
X589Y195D01*
X624Y195D02*
X648Y195D01*
X665Y195D02*
X689Y195D01*
X723Y195D02*
X748Y195D01*
X764Y195D02*
X788Y195D01*
X823Y195D02*
X847Y195D01*
X864Y195D02*
X888Y195D01*
X923Y195D02*
X947Y195D01*
X1627Y195D02*
X1776Y195D01*
X92Y194D02*
X116Y194D01*
X151Y194D02*
X175Y194D01*
X192Y194D02*
X216Y194D01*
X251Y194D02*
X275Y194D01*
X292Y194D02*
X316Y194D01*
X351Y194D02*
X375Y194D01*
X465Y194D02*
X489Y194D01*
X524Y194D02*
X548Y194D01*
X565Y194D02*
X589Y194D01*
X623Y194D02*
X648Y194D01*
X665Y194D02*
X689Y194D01*
X723Y194D02*
X748Y194D01*
X764Y194D02*
X789Y194D01*
X823Y194D02*
X847Y194D01*
X864Y194D02*
X888Y194D01*
X923Y194D02*
X947Y194D01*
X1626Y194D02*
X1696Y194D01*
X1707Y194D02*
X1776Y194D01*
X92Y193D02*
X116Y193D01*
X151Y193D02*
X175Y193D01*
X192Y193D02*
X216Y193D01*
X251Y193D02*
X275Y193D01*
X292Y193D02*
X316Y193D01*
X351Y193D02*
X375Y193D01*
X465Y193D02*
X489Y193D01*
X523Y193D02*
X548Y193D01*
X565Y193D02*
X589Y193D01*
X623Y193D02*
X648Y193D01*
X665Y193D02*
X689Y193D01*
X723Y193D02*
X748Y193D01*
X764Y193D02*
X789Y193D01*
X823Y193D02*
X847Y193D01*
X864Y193D02*
X889Y193D01*
X923Y193D02*
X947Y193D01*
X1626Y193D02*
X1693Y193D01*
X1710Y193D02*
X1777Y193D01*
X92Y192D02*
X117Y192D01*
X151Y192D02*
X175Y192D01*
X192Y192D02*
X217Y192D01*
X251Y192D02*
X275Y192D01*
X292Y192D02*
X317Y192D01*
X351Y192D02*
X375Y192D01*
X465Y192D02*
X489Y192D01*
X523Y192D02*
X548Y192D01*
X565Y192D02*
X589Y192D01*
X623Y192D02*
X648Y192D01*
X665Y192D02*
X689Y192D01*
X723Y192D02*
X748Y192D01*
X764Y192D02*
X789Y192D01*
X823Y192D02*
X847Y192D01*
X864Y192D02*
X889Y192D01*
X923Y192D02*
X947Y192D01*
X1625Y192D02*
X1691Y192D01*
X1711Y192D02*
X1777Y192D01*
X92Y191D02*
X117Y191D01*
X151Y191D02*
X175Y191D01*
X192Y191D02*
X217Y191D01*
X251Y191D02*
X275Y191D01*
X292Y191D02*
X317Y191D01*
X351Y191D02*
X375Y191D01*
X465Y191D02*
X489Y191D01*
X523Y191D02*
X548Y191D01*
X565Y191D02*
X589Y191D01*
X623Y191D02*
X648Y191D01*
X665Y191D02*
X689Y191D01*
X723Y191D02*
X748Y191D01*
X764Y191D02*
X789Y191D01*
X823Y191D02*
X847Y191D01*
X864Y191D02*
X889Y191D01*
X923Y191D02*
X947Y191D01*
X1625Y191D02*
X1690Y191D01*
X1713Y191D02*
X1777Y191D01*
X92Y190D02*
X117Y190D01*
X151Y190D02*
X175Y190D01*
X192Y190D02*
X217Y190D01*
X251Y190D02*
X275Y190D01*
X292Y190D02*
X317Y190D01*
X350Y190D02*
X375Y190D01*
X465Y190D02*
X489Y190D01*
X523Y190D02*
X548Y190D01*
X565Y190D02*
X589Y190D01*
X623Y190D02*
X648Y190D01*
X665Y190D02*
X689Y190D01*
X723Y190D02*
X748Y190D01*
X764Y190D02*
X789Y190D01*
X823Y190D02*
X847Y190D01*
X864Y190D02*
X889Y190D01*
X923Y190D02*
X947Y190D01*
X1625Y190D02*
X1689Y190D01*
X1714Y190D02*
X1778Y190D01*
X92Y189D02*
X117Y189D01*
X150Y189D02*
X175Y189D01*
X192Y189D02*
X217Y189D01*
X250Y189D02*
X275Y189D01*
X292Y189D02*
X317Y189D01*
X350Y189D02*
X375Y189D01*
X465Y189D02*
X490Y189D01*
X523Y189D02*
X548Y189D01*
X565Y189D02*
X590Y189D01*
X623Y189D02*
X648Y189D01*
X665Y189D02*
X690Y189D01*
X722Y189D02*
X748Y189D01*
X764Y189D02*
X790Y189D01*
X822Y189D02*
X847Y189D01*
X864Y189D02*
X889Y189D01*
X922Y189D02*
X947Y189D01*
X1624Y189D02*
X1688Y189D01*
X1715Y189D02*
X1778Y189D01*
X92Y188D02*
X118Y188D01*
X150Y188D02*
X175Y188D01*
X192Y188D02*
X218Y188D01*
X250Y188D02*
X275Y188D01*
X292Y188D02*
X318Y188D01*
X350Y188D02*
X375Y188D01*
X465Y188D02*
X490Y188D01*
X522Y188D02*
X548Y188D01*
X565Y188D02*
X590Y188D01*
X622Y188D02*
X648Y188D01*
X665Y188D02*
X690Y188D01*
X722Y188D02*
X748Y188D01*
X764Y188D02*
X790Y188D01*
X822Y188D02*
X847Y188D01*
X864Y188D02*
X890Y188D01*
X922Y188D02*
X947Y188D01*
X1624Y188D02*
X1687Y188D01*
X1716Y188D02*
X1778Y188D01*
X92Y187D02*
X118Y187D01*
X149Y187D02*
X175Y187D01*
X192Y187D02*
X218Y187D01*
X249Y187D02*
X275Y187D01*
X292Y187D02*
X318Y187D01*
X349Y187D02*
X375Y187D01*
X465Y187D02*
X490Y187D01*
X522Y187D02*
X548Y187D01*
X565Y187D02*
X590Y187D01*
X622Y187D02*
X648Y187D01*
X665Y187D02*
X690Y187D01*
X722Y187D02*
X748Y187D01*
X764Y187D02*
X790Y187D01*
X822Y187D02*
X847Y187D01*
X864Y187D02*
X890Y187D01*
X922Y187D02*
X947Y187D01*
X1624Y187D02*
X1686Y187D01*
X1716Y187D02*
X1779Y187D01*
X92Y186D02*
X119Y186D01*
X149Y186D02*
X175Y186D01*
X192Y186D02*
X219Y186D01*
X249Y186D02*
X275Y186D01*
X292Y186D02*
X319Y186D01*
X349Y186D02*
X375Y186D01*
X465Y186D02*
X491Y186D01*
X521Y186D02*
X548Y186D01*
X565Y186D02*
X591Y186D01*
X621Y186D02*
X648Y186D01*
X665Y186D02*
X691Y186D01*
X721Y186D02*
X748Y186D01*
X764Y186D02*
X791Y186D01*
X821Y186D02*
X847Y186D01*
X864Y186D02*
X891Y186D01*
X921Y186D02*
X947Y186D01*
X1624Y186D02*
X1686Y186D01*
X1717Y186D02*
X1779Y186D01*
X92Y185D02*
X119Y185D01*
X148Y185D02*
X175Y185D01*
X192Y185D02*
X219Y185D01*
X248Y185D02*
X275Y185D01*
X292Y185D02*
X319Y185D01*
X348Y185D02*
X375Y185D01*
X465Y185D02*
X492Y185D01*
X520Y185D02*
X548Y185D01*
X565Y185D02*
X592Y185D01*
X620Y185D02*
X648Y185D01*
X665Y185D02*
X692Y185D01*
X720Y185D02*
X748Y185D01*
X764Y185D02*
X792Y185D01*
X820Y185D02*
X847Y185D01*
X864Y185D02*
X892Y185D01*
X920Y185D02*
X947Y185D01*
X1623Y185D02*
X1685Y185D01*
X1717Y185D02*
X1779Y185D01*
X92Y184D02*
X120Y184D01*
X147Y184D02*
X175Y184D01*
X192Y184D02*
X220Y184D01*
X247Y184D02*
X275Y184D01*
X292Y184D02*
X320Y184D01*
X347Y184D02*
X375Y184D01*
X465Y184D02*
X492Y184D01*
X520Y184D02*
X548Y184D01*
X565Y184D02*
X592Y184D01*
X620Y184D02*
X648Y184D01*
X665Y184D02*
X692Y184D01*
X720Y184D02*
X748Y184D01*
X764Y184D02*
X792Y184D01*
X820Y184D02*
X847Y184D01*
X864Y184D02*
X892Y184D01*
X920Y184D02*
X947Y184D01*
X1623Y184D02*
X1685Y184D01*
X1718Y184D02*
X1779Y184D01*
X92Y183D02*
X121Y183D01*
X147Y183D02*
X175Y183D01*
X192Y183D02*
X221Y183D01*
X246Y183D02*
X275Y183D01*
X292Y183D02*
X321Y183D01*
X346Y183D02*
X375Y183D01*
X465Y183D02*
X493Y183D01*
X519Y183D02*
X548Y183D01*
X565Y183D02*
X593Y183D01*
X619Y183D02*
X648Y183D01*
X665Y183D02*
X693Y183D01*
X719Y183D02*
X748Y183D01*
X764Y183D02*
X793Y183D01*
X819Y183D02*
X847Y183D01*
X864Y183D02*
X893Y183D01*
X919Y183D02*
X947Y183D01*
X1623Y183D02*
X1684Y183D01*
X1718Y183D02*
X1779Y183D01*
X92Y182D02*
X122Y182D01*
X145Y182D02*
X175Y182D01*
X192Y182D02*
X222Y182D01*
X245Y182D02*
X275Y182D01*
X292Y182D02*
X322Y182D01*
X345Y182D02*
X375Y182D01*
X465Y182D02*
X495Y182D01*
X518Y182D02*
X548Y182D01*
X565Y182D02*
X594Y182D01*
X618Y182D02*
X648Y182D01*
X665Y182D02*
X694Y182D01*
X718Y182D02*
X748Y182D01*
X764Y182D02*
X794Y182D01*
X818Y182D02*
X847Y182D01*
X864Y182D02*
X894Y182D01*
X917Y182D02*
X947Y182D01*
X1623Y182D02*
X1684Y182D01*
X1718Y182D02*
X1779Y182D01*
X92Y181D02*
X124Y181D01*
X144Y181D02*
X175Y181D01*
X192Y181D02*
X224Y181D01*
X244Y181D02*
X275Y181D01*
X292Y181D02*
X324Y181D01*
X344Y181D02*
X375Y181D01*
X465Y181D02*
X496Y181D01*
X516Y181D02*
X548Y181D01*
X565Y181D02*
X596Y181D01*
X616Y181D02*
X648Y181D01*
X665Y181D02*
X696Y181D01*
X716Y181D02*
X748Y181D01*
X764Y181D02*
X796Y181D01*
X816Y181D02*
X847Y181D01*
X864Y181D02*
X896Y181D01*
X916Y181D02*
X947Y181D01*
X1623Y181D02*
X1684Y181D01*
X1718Y181D02*
X1780Y181D01*
X92Y180D02*
X125Y180D01*
X142Y180D02*
X175Y180D01*
X192Y180D02*
X225Y180D01*
X242Y180D02*
X275Y180D01*
X292Y180D02*
X325Y180D01*
X342Y180D02*
X375Y180D01*
X465Y180D02*
X498Y180D01*
X514Y180D02*
X548Y180D01*
X565Y180D02*
X598Y180D01*
X614Y180D02*
X648Y180D01*
X665Y180D02*
X698Y180D01*
X714Y180D02*
X748Y180D01*
X764Y180D02*
X798Y180D01*
X814Y180D02*
X847Y180D01*
X864Y180D02*
X898Y180D01*
X914Y180D02*
X947Y180D01*
X1623Y180D02*
X1684Y180D01*
X1719Y180D02*
X1780Y180D01*
X92Y179D02*
X128Y179D01*
X139Y179D02*
X175Y179D01*
X192Y179D02*
X228Y179D01*
X239Y179D02*
X275Y179D01*
X292Y179D02*
X328Y179D01*
X339Y179D02*
X375Y179D01*
X465Y179D02*
X501Y179D01*
X512Y179D02*
X548Y179D01*
X565Y179D02*
X600Y179D01*
X612Y179D02*
X648Y179D01*
X665Y179D02*
X700Y179D01*
X712Y179D02*
X748Y179D01*
X764Y179D02*
X800Y179D01*
X812Y179D02*
X847Y179D01*
X864Y179D02*
X900Y179D01*
X911Y179D02*
X947Y179D01*
X1623Y179D02*
X1684Y179D01*
X1719Y179D02*
X1780Y179D01*
X92Y178D02*
X175Y178D01*
X192Y178D02*
X275Y178D01*
X292Y178D02*
X375Y178D01*
X465Y178D02*
X548Y178D01*
X565Y178D02*
X648Y178D01*
X665Y178D02*
X748Y178D01*
X764Y178D02*
X847Y178D01*
X864Y178D02*
X947Y178D01*
X1623Y178D02*
X1684Y178D01*
X1719Y178D02*
X1780Y178D01*
X92Y177D02*
X175Y177D01*
X192Y177D02*
X275Y177D01*
X292Y177D02*
X375Y177D01*
X465Y177D02*
X548Y177D01*
X565Y177D02*
X648Y177D01*
X665Y177D02*
X748Y177D01*
X764Y177D02*
X847Y177D01*
X864Y177D02*
X947Y177D01*
X1623Y177D02*
X1684Y177D01*
X1719Y177D02*
X1780Y177D01*
X92Y176D02*
X175Y176D01*
X192Y176D02*
X275Y176D01*
X292Y176D02*
X375Y176D01*
X465Y176D02*
X548Y176D01*
X565Y176D02*
X648Y176D01*
X665Y176D02*
X748Y176D01*
X764Y176D02*
X847Y176D01*
X864Y176D02*
X947Y176D01*
X1623Y176D02*
X1684Y176D01*
X1719Y176D02*
X1780Y176D01*
X92Y175D02*
X175Y175D01*
X192Y175D02*
X275Y175D01*
X292Y175D02*
X375Y175D01*
X465Y175D02*
X548Y175D01*
X565Y175D02*
X648Y175D01*
X665Y175D02*
X748Y175D01*
X764Y175D02*
X847Y175D01*
X864Y175D02*
X947Y175D01*
X1623Y175D02*
X1684Y175D01*
X1719Y175D02*
X1780Y175D01*
X92Y174D02*
X175Y174D01*
X192Y174D02*
X275Y174D01*
X292Y174D02*
X375Y174D01*
X465Y174D02*
X548Y174D01*
X565Y174D02*
X648Y174D01*
X665Y174D02*
X748Y174D01*
X764Y174D02*
X847Y174D01*
X864Y174D02*
X947Y174D01*
X1623Y174D02*
X1684Y174D01*
X1718Y174D02*
X1780Y174D01*
X92Y173D02*
X175Y173D01*
X192Y173D02*
X275Y173D01*
X292Y173D02*
X375Y173D01*
X465Y173D02*
X548Y173D01*
X565Y173D02*
X648Y173D01*
X665Y173D02*
X748Y173D01*
X764Y173D02*
X847Y173D01*
X864Y173D02*
X947Y173D01*
X1623Y173D02*
X1684Y173D01*
X1718Y173D02*
X1779Y173D01*
X92Y172D02*
X175Y172D01*
X192Y172D02*
X275Y172D01*
X292Y172D02*
X375Y172D01*
X465Y172D02*
X548Y172D01*
X565Y172D02*
X648Y172D01*
X665Y172D02*
X748Y172D01*
X764Y172D02*
X847Y172D01*
X864Y172D02*
X947Y172D01*
X1623Y172D02*
X1685Y172D01*
X1718Y172D02*
X1779Y172D01*
X92Y171D02*
X175Y171D01*
X192Y171D02*
X275Y171D01*
X292Y171D02*
X375Y171D01*
X465Y171D02*
X548Y171D01*
X565Y171D02*
X648Y171D01*
X665Y171D02*
X748Y171D01*
X764Y171D02*
X847Y171D01*
X864Y171D02*
X947Y171D01*
X1623Y171D02*
X1685Y171D01*
X1718Y171D02*
X1779Y171D01*
X92Y170D02*
X175Y170D01*
X192Y170D02*
X275Y170D01*
X292Y170D02*
X375Y170D01*
X465Y170D02*
X548Y170D01*
X565Y170D02*
X648Y170D01*
X665Y170D02*
X748Y170D01*
X764Y170D02*
X847Y170D01*
X864Y170D02*
X947Y170D01*
X1624Y170D02*
X1685Y170D01*
X1717Y170D02*
X1779Y170D01*
X92Y169D02*
X175Y169D01*
X192Y169D02*
X275Y169D01*
X292Y169D02*
X375Y169D01*
X465Y169D02*
X548Y169D01*
X565Y169D02*
X648Y169D01*
X665Y169D02*
X748Y169D01*
X764Y169D02*
X847Y169D01*
X864Y169D02*
X947Y169D01*
X1624Y169D02*
X1686Y169D01*
X1717Y169D02*
X1779Y169D01*
X92Y168D02*
X175Y168D01*
X192Y168D02*
X275Y168D01*
X292Y168D02*
X375Y168D01*
X465Y168D02*
X548Y168D01*
X565Y168D02*
X648Y168D01*
X665Y168D02*
X748Y168D01*
X764Y168D02*
X847Y168D01*
X864Y168D02*
X947Y168D01*
X1624Y168D02*
X1686Y168D01*
X1716Y168D02*
X1779Y168D01*
X92Y167D02*
X175Y167D01*
X192Y167D02*
X275Y167D01*
X292Y167D02*
X375Y167D01*
X465Y167D02*
X548Y167D01*
X565Y167D02*
X648Y167D01*
X665Y167D02*
X748Y167D01*
X764Y167D02*
X847Y167D01*
X864Y167D02*
X947Y167D01*
X1624Y167D02*
X1687Y167D01*
X1715Y167D02*
X1778Y167D01*
X92Y166D02*
X175Y166D01*
X192Y166D02*
X275Y166D01*
X292Y166D02*
X375Y166D01*
X465Y166D02*
X548Y166D01*
X565Y166D02*
X648Y166D01*
X665Y166D02*
X748Y166D01*
X764Y166D02*
X847Y166D01*
X864Y166D02*
X947Y166D01*
X1625Y166D02*
X1688Y166D01*
X1715Y166D02*
X1778Y166D01*
X92Y165D02*
X175Y165D01*
X192Y165D02*
X275Y165D01*
X292Y165D02*
X375Y165D01*
X465Y165D02*
X548Y165D01*
X565Y165D02*
X648Y165D01*
X665Y165D02*
X748Y165D01*
X764Y165D02*
X847Y165D01*
X864Y165D02*
X947Y165D01*
X1625Y165D02*
X1689Y165D01*
X1714Y165D02*
X1778Y165D01*
X92Y164D02*
X175Y164D01*
X192Y164D02*
X275Y164D01*
X292Y164D02*
X375Y164D01*
X465Y164D02*
X548Y164D01*
X565Y164D02*
X648Y164D01*
X665Y164D02*
X748Y164D01*
X764Y164D02*
X847Y164D01*
X864Y164D02*
X947Y164D01*
X1625Y164D02*
X1690Y164D01*
X1712Y164D02*
X1777Y164D01*
X92Y163D02*
X175Y163D01*
X192Y163D02*
X275Y163D01*
X292Y163D02*
X375Y163D01*
X465Y163D02*
X548Y163D01*
X565Y163D02*
X648Y163D01*
X665Y163D02*
X748Y163D01*
X764Y163D02*
X847Y163D01*
X864Y163D02*
X947Y163D01*
X1626Y163D02*
X1692Y163D01*
X1711Y163D02*
X1777Y163D01*
X92Y162D02*
X175Y162D01*
X192Y162D02*
X275Y162D01*
X292Y162D02*
X375Y162D01*
X465Y162D02*
X548Y162D01*
X565Y162D02*
X648Y162D01*
X665Y162D02*
X748Y162D01*
X764Y162D02*
X847Y162D01*
X864Y162D02*
X947Y162D01*
X1626Y162D02*
X1694Y162D01*
X1709Y162D02*
X1776Y162D01*
X92Y161D02*
X175Y161D01*
X192Y161D02*
X275Y161D01*
X292Y161D02*
X375Y161D01*
X465Y161D02*
X548Y161D01*
X565Y161D02*
X648Y161D01*
X665Y161D02*
X748Y161D01*
X764Y161D02*
X847Y161D01*
X864Y161D02*
X947Y161D01*
X1626Y161D02*
X1697Y161D01*
X1706Y161D02*
X1776Y161D01*
X92Y160D02*
X175Y160D01*
X192Y160D02*
X275Y160D01*
X292Y160D02*
X375Y160D01*
X465Y160D02*
X548Y160D01*
X565Y160D02*
X648Y160D01*
X665Y160D02*
X748Y160D01*
X764Y160D02*
X847Y160D01*
X864Y160D02*
X947Y160D01*
X1627Y160D02*
X1776Y160D01*
X92Y159D02*
X175Y159D01*
X192Y159D02*
X275Y159D01*
X292Y159D02*
X375Y159D01*
X465Y159D02*
X548Y159D01*
X565Y159D02*
X648Y159D01*
X665Y159D02*
X748Y159D01*
X764Y159D02*
X847Y159D01*
X864Y159D02*
X947Y159D01*
X1627Y159D02*
X1775Y159D01*
X92Y158D02*
X175Y158D01*
X192Y158D02*
X275Y158D01*
X292Y158D02*
X375Y158D01*
X465Y158D02*
X548Y158D01*
X565Y158D02*
X648Y158D01*
X665Y158D02*
X747Y158D01*
X764Y158D02*
X847Y158D01*
X864Y158D02*
X947Y158D01*
X1628Y158D02*
X1775Y158D01*
X92Y157D02*
X175Y157D01*
X192Y157D02*
X275Y157D01*
X292Y157D02*
X375Y157D01*
X465Y157D02*
X548Y157D01*
X565Y157D02*
X647Y157D01*
X665Y157D02*
X747Y157D01*
X765Y157D02*
X847Y157D01*
X864Y157D02*
X947Y157D01*
X1629Y157D02*
X1774Y157D01*
X92Y156D02*
X175Y156D01*
X192Y156D02*
X275Y156D01*
X292Y156D02*
X375Y156D01*
X465Y156D02*
X548Y156D01*
X565Y156D02*
X647Y156D01*
X665Y156D02*
X747Y156D01*
X765Y156D02*
X847Y156D01*
X865Y156D02*
X947Y156D01*
X1629Y156D02*
X1773Y156D01*
X92Y155D02*
X175Y155D01*
X192Y155D02*
X275Y155D01*
X292Y155D02*
X375Y155D01*
X465Y155D02*
X547Y155D01*
X565Y155D02*
X647Y155D01*
X665Y155D02*
X747Y155D01*
X765Y155D02*
X847Y155D01*
X865Y155D02*
X947Y155D01*
X1630Y155D02*
X1773Y155D01*
X93Y154D02*
X175Y154D01*
X193Y154D02*
X275Y154D01*
X292Y154D02*
X375Y154D01*
X465Y154D02*
X547Y154D01*
X565Y154D02*
X647Y154D01*
X665Y154D02*
X747Y154D01*
X765Y154D02*
X847Y154D01*
X865Y154D02*
X947Y154D01*
X1630Y154D02*
X1772Y154D01*
X93Y153D02*
X175Y153D01*
X193Y153D02*
X275Y153D01*
X293Y153D02*
X375Y153D01*
X465Y153D02*
X547Y153D01*
X565Y153D02*
X647Y153D01*
X665Y153D02*
X747Y153D01*
X765Y153D02*
X847Y153D01*
X865Y153D02*
X947Y153D01*
X1631Y153D02*
X1771Y153D01*
X93Y152D02*
X175Y152D01*
X193Y152D02*
X275Y152D01*
X293Y152D02*
X375Y152D01*
X465Y152D02*
X547Y152D01*
X565Y152D02*
X647Y152D01*
X665Y152D02*
X747Y152D01*
X765Y152D02*
X847Y152D01*
X865Y152D02*
X947Y152D01*
X1632Y152D02*
X1771Y152D01*
X93Y151D02*
X175Y151D01*
X193Y151D02*
X275Y151D01*
X293Y151D02*
X375Y151D01*
X465Y151D02*
X547Y151D01*
X565Y151D02*
X647Y151D01*
X665Y151D02*
X747Y151D01*
X765Y151D02*
X847Y151D01*
X865Y151D02*
X947Y151D01*
X1633Y151D02*
X1770Y151D01*
X93Y150D02*
X174Y150D01*
X193Y150D02*
X274Y150D01*
X293Y150D02*
X374Y150D01*
X466Y150D02*
X547Y150D01*
X565Y150D02*
X647Y150D01*
X665Y150D02*
X747Y150D01*
X765Y150D02*
X847Y150D01*
X865Y150D02*
X946Y150D01*
X1634Y150D02*
X1769Y150D01*
X93Y149D02*
X174Y149D01*
X193Y149D02*
X274Y149D01*
X293Y149D02*
X374Y149D01*
X466Y149D02*
X546Y149D01*
X566Y149D02*
X646Y149D01*
X666Y149D02*
X746Y149D01*
X766Y149D02*
X846Y149D01*
X866Y149D02*
X946Y149D01*
X1635Y149D02*
X1768Y149D01*
X94Y148D02*
X174Y148D01*
X194Y148D02*
X274Y148D01*
X294Y148D02*
X374Y148D01*
X466Y148D02*
X546Y148D01*
X566Y148D02*
X646Y148D01*
X666Y148D02*
X746Y148D01*
X766Y148D02*
X846Y148D01*
X866Y148D02*
X946Y148D01*
X1636Y148D02*
X1767Y148D01*
X94Y147D02*
X174Y147D01*
X194Y147D02*
X274Y147D01*
X294Y147D02*
X374Y147D01*
X466Y147D02*
X546Y147D01*
X566Y147D02*
X646Y147D01*
X666Y147D02*
X746Y147D01*
X766Y147D02*
X846Y147D01*
X866Y147D02*
X946Y147D01*
X1637Y147D02*
X1766Y147D01*
X94Y146D02*
X173Y146D01*
X194Y146D02*
X273Y146D01*
X294Y146D02*
X373Y146D01*
X467Y146D02*
X546Y146D01*
X567Y146D02*
X646Y146D01*
X667Y146D02*
X745Y146D01*
X766Y146D02*
X845Y146D01*
X866Y146D02*
X945Y146D01*
X1638Y146D02*
X1765Y146D01*
X95Y145D02*
X173Y145D01*
X195Y145D02*
X273Y145D01*
X295Y145D02*
X373Y145D01*
X467Y145D02*
X545Y145D01*
X567Y145D02*
X645Y145D01*
X667Y145D02*
X745Y145D01*
X767Y145D02*
X845Y145D01*
X867Y145D02*
X945Y145D01*
X1639Y145D02*
X1764Y145D01*
X95Y144D02*
X173Y144D01*
X195Y144D02*
X273Y144D01*
X295Y144D02*
X373Y144D01*
X467Y144D02*
X545Y144D01*
X567Y144D02*
X645Y144D01*
X667Y144D02*
X745Y144D01*
X767Y144D02*
X845Y144D01*
X867Y144D02*
X945Y144D01*
X1640Y144D02*
X1762Y144D01*
X95Y143D02*
X172Y143D01*
X195Y143D02*
X272Y143D01*
X295Y143D02*
X372Y143D01*
X468Y143D02*
X544Y143D01*
X568Y143D02*
X644Y143D01*
X668Y143D02*
X744Y143D01*
X768Y143D02*
X844Y143D01*
X868Y143D02*
X944Y143D01*
X1642Y143D02*
X1761Y143D01*
X96Y142D02*
X172Y142D01*
X196Y142D02*
X272Y142D01*
X296Y142D02*
X372Y142D01*
X468Y142D02*
X544Y142D01*
X568Y142D02*
X644Y142D01*
X668Y142D02*
X744Y142D01*
X768Y142D02*
X844Y142D01*
X868Y142D02*
X944Y142D01*
X1643Y142D02*
X1759Y142D01*
X96Y141D02*
X171Y141D01*
X196Y141D02*
X271Y141D01*
X296Y141D02*
X371Y141D01*
X469Y141D02*
X544Y141D01*
X569Y141D02*
X644Y141D01*
X669Y141D02*
X743Y141D01*
X768Y141D02*
X843Y141D01*
X868Y141D02*
X943Y141D01*
X1645Y141D02*
X1758Y141D01*
X97Y140D02*
X171Y140D01*
X197Y140D02*
X271Y140D01*
X297Y140D02*
X371Y140D01*
X469Y140D02*
X543Y140D01*
X569Y140D02*
X643Y140D01*
X669Y140D02*
X743Y140D01*
X769Y140D02*
X843Y140D01*
X869Y140D02*
X943Y140D01*
X1647Y140D02*
X1756Y140D01*
X97Y139D02*
X170Y139D01*
X197Y139D02*
X270Y139D01*
X297Y139D02*
X370Y139D01*
X470Y139D02*
X543Y139D01*
X570Y139D02*
X642Y139D01*
X670Y139D02*
X742Y139D01*
X770Y139D02*
X842Y139D01*
X869Y139D02*
X942Y139D01*
X1649Y139D02*
X1754Y139D01*
X98Y138D02*
X170Y138D01*
X198Y138D02*
X270Y138D01*
X298Y138D02*
X370Y138D01*
X470Y138D02*
X542Y138D01*
X570Y138D02*
X642Y138D01*
X670Y138D02*
X742Y138D01*
X770Y138D02*
X842Y138D01*
X870Y138D02*
X942Y138D01*
X1651Y138D02*
X1751Y138D01*
X99Y137D02*
X169Y137D01*
X198Y137D02*
X269Y137D01*
X298Y137D02*
X369Y137D01*
X471Y137D02*
X541Y137D01*
X571Y137D02*
X641Y137D01*
X671Y137D02*
X741Y137D01*
X771Y137D02*
X841Y137D01*
X871Y137D02*
X941Y137D01*
X1655Y137D02*
X1748Y137D01*
X99Y136D02*
X168Y136D01*
X199Y136D02*
X268Y136D01*
X299Y136D02*
X368Y136D01*
X471Y136D02*
X541Y136D01*
X571Y136D02*
X641Y136D01*
X671Y136D02*
X741Y136D01*
X771Y136D02*
X841Y136D01*
X871Y136D02*
X941Y136D01*
X1660Y136D02*
X1743Y136D01*
X100Y135D02*
X168Y135D01*
X200Y135D02*
X268Y135D01*
X300Y135D02*
X368Y135D01*
X472Y135D02*
X540Y135D01*
X572Y135D02*
X640Y135D01*
X672Y135D02*
X740Y135D01*
X772Y135D02*
X840Y135D01*
X872Y135D02*
X940Y135D01*
X101Y134D02*
X167Y134D01*
X200Y134D02*
X267Y134D01*
X300Y134D02*
X367Y134D01*
X473Y134D02*
X539Y134D01*
X573Y134D02*
X639Y134D01*
X673Y134D02*
X739Y134D01*
X773Y134D02*
X839Y134D01*
X873Y134D02*
X939Y134D01*
X101Y133D02*
X166Y133D01*
X201Y133D02*
X266Y133D01*
X301Y133D02*
X366Y133D01*
X474Y133D02*
X539Y133D01*
X574Y133D02*
X639Y133D01*
X673Y133D02*
X739Y133D01*
X773Y133D02*
X838Y133D01*
X873Y133D02*
X938Y133D01*
X102Y132D02*
X166Y132D01*
X202Y132D02*
X265Y132D01*
X302Y132D02*
X365Y132D01*
X474Y132D02*
X538Y132D01*
X574Y132D02*
X638Y132D01*
X674Y132D02*
X738Y132D01*
X774Y132D02*
X838Y132D01*
X874Y132D02*
X938Y132D01*
X103Y131D02*
X165Y131D01*
X203Y131D02*
X265Y131D01*
X303Y131D02*
X365Y131D01*
X475Y131D02*
X537Y131D01*
X575Y131D02*
X637Y131D01*
X675Y131D02*
X737Y131D01*
X775Y131D02*
X837Y131D01*
X875Y131D02*
X937Y131D01*
X104Y130D02*
X164Y130D01*
X204Y130D02*
X264Y130D01*
X304Y130D02*
X364Y130D01*
X476Y130D02*
X536Y130D01*
X576Y130D02*
X636Y130D01*
X676Y130D02*
X736Y130D01*
X776Y130D02*
X836Y130D01*
X876Y130D02*
X936Y130D01*
X105Y129D02*
X163Y129D01*
X205Y129D02*
X263Y129D01*
X305Y129D02*
X363Y129D01*
X477Y129D02*
X535Y129D01*
X577Y129D02*
X635Y129D01*
X677Y129D02*
X735Y129D01*
X777Y129D02*
X835Y129D01*
X877Y129D02*
X935Y129D01*
X106Y128D02*
X162Y128D01*
X206Y128D02*
X262Y128D01*
X306Y128D02*
X362Y128D01*
X478Y128D02*
X534Y128D01*
X578Y128D02*
X634Y128D01*
X678Y128D02*
X734Y128D01*
X778Y128D02*
X834Y128D01*
X878Y128D02*
X934Y128D01*
X107Y127D02*
X161Y127D01*
X207Y127D02*
X261Y127D01*
X307Y127D02*
X361Y127D01*
X479Y127D02*
X533Y127D01*
X579Y127D02*
X633Y127D01*
X679Y127D02*
X733Y127D01*
X779Y127D02*
X833Y127D01*
X879Y127D02*
X933Y127D01*
X108Y126D02*
X159Y126D01*
X208Y126D02*
X259Y126D01*
X308Y126D02*
X359Y126D01*
X480Y126D02*
X532Y126D01*
X580Y126D02*
X632Y126D01*
X680Y126D02*
X732Y126D01*
X780Y126D02*
X832Y126D01*
X880Y126D02*
X932Y126D01*
X109Y125D02*
X158Y125D01*
X209Y125D02*
X258Y125D01*
X309Y125D02*
X358Y125D01*
X482Y125D02*
X530Y125D01*
X582Y125D02*
X630Y125D01*
X682Y125D02*
X730Y125D01*
X782Y125D02*
X830Y125D01*
X882Y125D02*
X930Y125D01*
X111Y124D02*
X157Y124D01*
X211Y124D02*
X257Y124D01*
X311Y124D02*
X357Y124D01*
X483Y124D02*
X529Y124D01*
X583Y124D02*
X629Y124D01*
X683Y124D02*
X729Y124D01*
X783Y124D02*
X829Y124D01*
X883Y124D02*
X929Y124D01*
X112Y123D02*
X155Y123D01*
X212Y123D02*
X255Y123D01*
X312Y123D02*
X355Y123D01*
X485Y123D02*
X528Y123D01*
X585Y123D02*
X628Y123D01*
X684Y123D02*
X728Y123D01*
X784Y123D02*
X827Y123D01*
X884Y123D02*
X927Y123D01*
X114Y122D02*
X154Y122D01*
X214Y122D02*
X254Y122D01*
X314Y122D02*
X354Y122D01*
X486Y122D02*
X526Y122D01*
X586Y122D02*
X626Y122D01*
X686Y122D02*
X726Y122D01*
X786Y122D02*
X826Y122D01*
X886Y122D02*
X926Y122D01*
X116Y121D02*
X152Y121D01*
X216Y121D02*
X252Y121D01*
X316Y121D02*
X352Y121D01*
X488Y121D02*
X524Y121D01*
X588Y121D02*
X624Y121D01*
X688Y121D02*
X724Y121D01*
X788Y121D02*
X824Y121D01*
X888Y121D02*
X924Y121D01*
X118Y120D02*
X150Y120D01*
X218Y120D02*
X250Y120D01*
X318Y120D02*
X350Y120D01*
X490Y120D02*
X522Y120D01*
X590Y120D02*
X622Y120D01*
X690Y120D02*
X722Y120D01*
X790Y120D02*
X822Y120D01*
X890Y120D02*
X922Y120D01*
X120Y119D02*
X147Y119D01*
X220Y119D02*
X247Y119D01*
X320Y119D02*
X347Y119D01*
X492Y119D02*
X520Y119D01*
X592Y119D02*
X620Y119D01*
X692Y119D02*
X720Y119D01*
X792Y119D02*
X820Y119D01*
X892Y119D02*
X920Y119D01*
X123Y118D02*
X144Y118D01*
X223Y118D02*
X244Y118D01*
X323Y118D02*
X344Y118D01*
X496Y118D02*
X517Y118D01*
X595Y118D02*
X617Y118D01*
X695Y118D02*
X717Y118D01*
X795Y118D02*
X817Y118D01*
X895Y118D02*
X916Y118D01*
X128Y117D02*
X140Y117D01*
X227Y117D02*
X240Y117D01*
X327Y117D02*
X340Y117D01*
X500Y117D02*
X512Y117D01*
X600Y117D02*
X612Y117D01*
X700Y117D02*
X712Y117D01*
X800Y117D02*
X812Y117D01*
X900Y117D02*
X912Y117D01*
D02*
G04 End of Mask0*
M02*