G04 MADE WITH FRITZING*
G04 WWW.FRITZING.ORG*
G04 DOUBLE SIDED*
G04 HOLES PLATED*
G04 CONTOUR ON CENTER OF CONTOUR VECTOR*
%ASAXBY*%
%FSLAX23Y23*%
%MOIN*%
%OFA0B0*%
%SFA1.0B1.0*%
%ADD10R,0.074803X0.062992*%
%ADD11R,0.062992X0.074803*%
%ADD12R,0.137795X0.062992*%
%ADD13R,0.078740X0.047244*%
%LNPASTEMASK1*%
G90*
G70*
G54D10*
X1053Y853D03*
X1053Y731D03*
G54D11*
X1053Y548D03*
X1175Y548D03*
G54D12*
X675Y883D03*
X462Y883D03*
G54D13*
X1199Y853D03*
X1309Y853D03*
G54D10*
X403Y312D03*
X403Y434D03*
G36*
X598Y619D02*
X598Y694D01*
X661Y694D01*
X661Y619D01*
X598Y619D01*
G37*
D02*
G36*
X476Y619D02*
X476Y694D01*
X539Y694D01*
X539Y619D01*
X476Y619D01*
G37*
D02*
G36*
X982Y822D02*
X907Y822D01*
X907Y885D01*
X982Y885D01*
X982Y822D01*
G37*
D02*
G36*
X982Y700D02*
X907Y700D01*
X907Y763D01*
X982Y763D01*
X982Y700D01*
G37*
D02*
G36*
X1380Y885D02*
X1454Y885D01*
X1454Y822D01*
X1380Y822D01*
X1380Y885D01*
G37*
D02*
G36*
X1380Y1007D02*
X1454Y1007D01*
X1454Y944D01*
X1380Y944D01*
X1380Y1007D01*
G37*
D02*
G36*
X789Y767D02*
X864Y767D01*
X864Y704D01*
X789Y704D01*
X789Y767D01*
G37*
D02*
G36*
X789Y889D02*
X864Y889D01*
X864Y826D01*
X789Y826D01*
X789Y889D01*
G37*
D02*
G36*
X1602Y940D02*
X1527Y940D01*
X1527Y1003D01*
X1602Y1003D01*
X1602Y940D01*
G37*
D02*
G36*
X1602Y818D02*
X1527Y818D01*
X1527Y881D01*
X1602Y881D01*
X1602Y818D01*
G37*
D02*
G36*
X332Y659D02*
X332Y733D01*
X395Y733D01*
X395Y659D01*
X332Y659D01*
G37*
D02*
G36*
X210Y659D02*
X210Y733D01*
X273Y733D01*
X273Y659D01*
X210Y659D01*
G37*
D02*
G36*
X228Y895D02*
X303Y895D01*
X303Y832D01*
X228Y832D01*
X228Y895D01*
G37*
D02*
G36*
X228Y1017D02*
X303Y1017D01*
X303Y954D01*
X228Y954D01*
X228Y1017D01*
G37*
D02*
G36*
X1508Y629D02*
X1582Y629D01*
X1582Y566D01*
X1508Y566D01*
X1508Y629D01*
G37*
D02*
G36*
X1508Y751D02*
X1582Y751D01*
X1582Y688D01*
X1508Y688D01*
X1508Y751D01*
G37*
D02*
G36*
X1324Y697D02*
X1411Y697D01*
X1411Y673D01*
X1324Y673D01*
X1324Y697D01*
G37*
D02*
G36*
X1118Y647D02*
X1205Y647D01*
X1205Y623D01*
X1118Y623D01*
X1118Y647D01*
G37*
D02*
G36*
X1118Y747D02*
X1205Y747D01*
X1205Y723D01*
X1118Y723D01*
X1118Y747D01*
G37*
D02*
G36*
X1324Y747D02*
X1411Y747D01*
X1411Y723D01*
X1324Y723D01*
X1324Y747D01*
G37*
D02*
G36*
X1118Y697D02*
X1205Y697D01*
X1205Y673D01*
X1118Y673D01*
X1118Y697D01*
G37*
D02*
G36*
X1324Y797D02*
X1411Y797D01*
X1411Y773D01*
X1324Y773D01*
X1324Y797D01*
G37*
D02*
G36*
X1118Y797D02*
X1205Y797D01*
X1205Y773D01*
X1118Y773D01*
X1118Y797D01*
G37*
D02*
G36*
X1324Y647D02*
X1411Y647D01*
X1411Y623D01*
X1324Y623D01*
X1324Y647D01*
G37*
D02*
G36*
X1080Y218D02*
X1143Y218D01*
X1143Y80D01*
X1080Y80D01*
X1080Y218D01*
G37*
D02*
G36*
X1080Y430D02*
X1143Y430D01*
X1143Y292D01*
X1080Y292D01*
X1080Y430D01*
G37*
D02*
G36*
X862Y517D02*
X862Y580D01*
X1000Y580D01*
X1000Y517D01*
X862Y517D01*
G37*
D02*
G36*
X649Y517D02*
X649Y580D01*
X787Y580D01*
X787Y517D01*
X649Y517D01*
G37*
D02*
G36*
X1482Y310D02*
X1482Y373D01*
X1620Y373D01*
X1620Y310D01*
X1482Y310D01*
G37*
D02*
G36*
X1269Y310D02*
X1269Y373D01*
X1407Y373D01*
X1407Y310D01*
X1269Y310D01*
G37*
D02*
G36*
X1395Y521D02*
X1395Y596D01*
X1458Y596D01*
X1458Y521D01*
X1395Y521D01*
G37*
D02*
G36*
X1273Y521D02*
X1273Y596D01*
X1336Y596D01*
X1336Y521D01*
X1273Y521D01*
G37*
D02*
G36*
X208Y505D02*
X145Y505D01*
X145Y643D01*
X208Y643D01*
X208Y505D01*
G37*
D02*
G36*
X208Y292D02*
X145Y292D01*
X145Y430D01*
X208Y430D01*
X208Y292D01*
G37*
D02*
G36*
X825Y304D02*
X825Y379D01*
X888Y379D01*
X888Y304D01*
X825Y304D01*
G37*
D02*
G36*
X702Y304D02*
X702Y379D01*
X765Y379D01*
X765Y304D01*
X702Y304D01*
G37*
D02*
G36*
X598Y304D02*
X598Y379D01*
X661Y379D01*
X661Y304D01*
X598Y304D01*
G37*
D02*
G36*
X476Y304D02*
X476Y379D01*
X539Y379D01*
X539Y304D01*
X476Y304D01*
G37*
D02*
G04 End of PasteMask1*
M02*