<?xml version="1.0" encoding="UTF-8" standalone="no"?>
<!-- Created with Inkscape (http://www.inkscape.org/) -->

<svg
   xmlns:dc="http://purl.org/dc/elements/1.1/"
   xmlns:cc="http://creativecommons.org/ns#"
   xmlns:rdf="http://www.w3.org/1999/02/22-rdf-syntax-ns#"
   xmlns:svg="http://www.w3.org/2000/svg"
   xmlns="http://www.w3.org/2000/svg"
   version="1.2"
   width="27.000002"
   height="29.700003"
   viewBox="0 0 21.6 23.759993"
   id="svg2">
  <metadata
     id="metadata96">
    <rdf:RDF>
      <cc:Work
         rdf:about="">
        <dc:format>image/svg+xml</dc:format>
        <dc:type
           rdf:resource="http://purl.org/dc/dcmitype/StillImage" />
        <dc:title></dc:title>
      </cc:Work>
    </rdf:RDF>
  </metadata>
  <defs
     id="defs94" />
  <g
     transform="translate(0,-6.1492209e-6)"
     id="g53">
    <rect
       width="21.6"
       height="19.440001"
       x="0"
       y="2.1600001"
       id="middle"
       style="fill:#303030" />
    <rect
       width="21.6"
       height="1.7711999"
       x="0"
       y="2.1600001"
       id="top"
       style="fill:#3d3d3d" />
    <rect
       width="21.6"
       height="1.7711999"
       x="0"
       y="19.8288"
       id="bottom"
       style="fill:#000000" />
    <polygon
       points="21.06,19.8288 21.6,21.6 21.6,2.16 21.06,3.9312 "
       id="right"
       style="fill:#141414" />
    <polygon
       points="0.54,19.8288 0,21.6 0,2.16 0.54,3.9312 "
       id="left"
       style="fill:#1f1f1f" />
    <polygon
       points="0.54,8.2512 0.4032,9.7776 0.4032,11.88 3.6,11.88 3.6,8.28 "
       id="left-upper-rect"
       style="fill:#1c1c1c" />
    <polygon
       points="3.6,15.516 3.6,11.88 0.4032,11.88 0.4032,13.9824 0.54,15.516 "
       id="left-lower-rect"
       style="fill:#383838" />
    <path
       d="m 0.4032,9.7776 0,4.1976 C 1.4616,13.8528 2.2896,12.9672 2.2896,11.8728 2.2896,10.7784 1.4688,9.9 0.4032,9.7776 z"
       id="slot"
       style="fill:#262626" />
    <path
       d="m 0.54,3.9312 0,4.3128 c 1.7136,0.324 3.0168,1.8216 3.0168,3.6288 0,1.8072 -1.296,3.312 -3.0168,3.636 l 0,0.0072 3.6,0 0,-11.5848 -3.6,0 z"
       id="cover"
       style="fill:#303030" />
    <circle
       cx="4.6799998"
       cy="16.898399"
       r="1.4832"
       id="circle65"
       style="fill:#212121" />
    <rect
       width="2.1600001"
       height="3.1248"
       x="2.52"
       y="20.635201"
       id="connector0pin"
       style="fill:#8c8c8c" />
    <rect
       width="2.1600001"
       height="2.1600001"
       x="2.52"
       y="21.6"
       id="connector0terminal"
       style="fill:#8c8c8c" />
    <polygon
       points="2.52,22.0752 4.68,22.0752 6.12,21.4128 6.12,20.6352 2.52,20.6352 "
       id="polygon70"
       style="fill:#8c8c8c" />
    <rect
       width="2.1600001"
       height="3.1248"
       x="2.52"
       y="0"
       id="connector5pin"
       style="fill:#8c8c8c" />
    <rect
       width="2.1600001"
       height="2.1600001"
       x="2.52"
       y="0"
       id="connector5terminal"
       style="fill:#8c8c8c" />
    <polygon
       points="6.12,2.3472 4.68,1.6848 2.52,1.6848 2.52,3.1248 6.12,3.1248 "
       id="polygon74"
       style="fill:#8c8c8c" />
    <rect
       width="2.1600001"
       height="3.1248"
       x="16.92"
       y="20.635201"
       id="connector2pin"
       style="fill:#8c8c8c" />
    <rect
       width="2.1600001"
       height="2.1600001"
       x="16.92"
       y="21.6"
       id="connector2terminal"
       style="fill:#8c8c8c" />
    <polygon
       points="15.48,21.4128 16.92,22.0752 19.08,22.0752 19.08,20.6352 15.48,20.6352 "
       id="polygon78"
       style="fill:#8c8c8c" />
    <rect
       width="2.1600001"
       height="3.1248"
       x="16.92"
       y="0"
       id="connector3pin"
       style="fill:#8c8c8c" />
    <rect
       width="2.1600001"
       height="2.1600001"
       x="16.92"
       y="0"
       id="connector3terminal"
       style="fill:#8c8c8c" />
    <polygon
       points="19.08,1.6848 16.92,1.6848 15.48,2.3472 15.48,3.1248 19.08,3.1248 "
       id="polygon82"
       style="fill:#8c8c8c" />
    <rect
       width="2.1600001"
       height="3.1248"
       x="9.7200003"
       y="20.635201"
       id="connector1pin"
       style="fill:#8c8c8c" />
    <rect
       width="2.1600001"
       height="2.1600001"
       x="9.7200003"
       y="21.6"
       id="connector1terminal"
       style="fill:#8c8c8c" />
    <polygon
       points="8.28,20.6352 8.28,21.4128 9.72,22.0752 11.88,22.0752 13.32,21.4128 13.32,20.6352 "
       id="polygon86"
       style="fill:#8c8c8c" />
    <rect
       width="2.1600001"
       height="3.1248"
       x="9.7200003"
       y="0"
       id="connector4pin"
       style="fill:#8c8c8c" />
    <rect
       width="2.1600001"
       height="2.1600001"
       x="9.7200003"
       y="0"
       id="connector4terminal"
       style="fill:#8c8c8c" />
    <polygon
       points="13.32,3.1248 13.32,2.3472 11.88,1.6848 9.72,1.6848 8.28,2.3472 8.28,3.1248 "
       id="polygon90"
       style="fill:#8c8c8c" />
    <text
       x="11.082374"
       y="10.214743"
       id="text3130"
       xml:space="preserve"
       style="font-size:7.99999952px;font-style:normal;font-weight:normal;text-align:center;line-height:99.00000095%;letter-spacing:0px;word-spacing:0px;text-anchor:middle;fill:#dddddd;fill-opacity:1;stroke:none;font-family:Sans"><tspan
         x="11.082374"
         y="10.214743"
         id="tspan3132"
         style="line-height:99.00000095%;font-family:OCRA;-inkscape-font-specification:OCRA">ULN</tspan><tspan
         x="11.082374"
         y="18.134743"
         id="tspan3134"
         style="line-height:99.00000095%;font-family:OCRA;-inkscape-font-specification:OCRA">2453</tspan></text>
  </g>
</svg>
