<?xml version='1.0' encoding='UTF-8' standalone='no'?>
<!-- Created with Fritzing (http://www.fritzing.org/) -->
<svg xmlns="http://www.w3.org/2000/svg" width="2.6902in" x="0in" version="1.2" y="0in"  height="1.056in" viewBox="0 0 193.695 76.032" baseProfile="tiny" xmlns:svg="http://www.w3.org/2000/svg">
 <g partID="1970900">
  <g id="board">
   <rect width="193.119" x="0.288" y="0.288" fill="none" height="75.4559" stroke="black" fill-opacity="0.5" id="boardoutline" stroke-width="0.5"/>
  </g>
 </g>
 <g partID="3066200">
  <g transform="translate(104.046,2.08611)">
   <g transform="matrix(2.22045e-16,1,-1,2.22045e-16,0,0)">
    <g flipped="1" id="copper0">
     <g transform="matrix(-1, 0, 0, 1, 19.152, 0)">
      <g>
       <g>
        <rect width="3.456" x="1.296" y="17.5187" fill="black" connectorname="1" height="6.336" stroke="none" id="0" stroke-linecap="round" stroke-width="0"/>
        <rect width="3.456" x="7.848" y="17.5187" fill="black" connectorname="2" height="6.336" stroke="none" id="1" stroke-linecap="round" stroke-width="0"/>
        <rect width="3.456" x="14.4" y="17.5187" fill="black" connectorname="3" height="6.336" stroke="none" id="2" stroke-linecap="round" stroke-width="0"/>
        <rect width="10.2047" x="4.47364" y="0" fill="black" connectorname="4" height="6.23622" stroke="none" id="3" stroke-linecap="round" stroke-width="0"/>
        <g id="4"/>
       </g>
       <g id="5"/>
      </g>
     </g>
    </g>
   </g>
  </g>
 </g>
 <g partID="3185820">
  <g transform="translate(39.2398,35.7484)">
   <g  id="copper0">
    <g fill="none" cx="3.01733"  cy="3.01733" stroke="black" r="0.992124" id="6" stroke-width="0.850392"/>
   </g>
  </g>
 </g>
 <g partID="3186080">
  <g transform="translate(3.09802,14.4884)">
   <g  id="copper0">
    <g fill="none" cx="3.01733"  cy="3.01733" stroke="black" r="0.992124" id="7" stroke-width="0.850392"/>
   </g>
  </g>
 </g>
 <g partID="3186110">
  <g transform="translate(56.2476,4.56677)">
   <g  id="copper0">
    <g fill="none" cx="3.01733"  cy="3.01733" stroke="black" r="0.992124" id="8" stroke-width="0.850392"/>
   </g>
  </g>
 </g>
 <g partID="3186840">
  <g transform="translate(8.05866,41.4172)">
   <g  id="copper0">
    <g fill="none" cx="3.01733"  cy="3.01733" stroke="black" r="0.992124" id="9" stroke-width="0.850392"/>
   </g>
  </g>
 </g>
 <g partID="3187720">
  <g transform="translate(56.2476,13.0708)">
   <g  id="copper0">
    <g fill="none" cx="3.01733"  cy="3.01733" stroke="black" r="0.992124" id="10" stroke-width="0.850392"/>
   </g>
  </g>
 </g>
 <g partID="3208430">
  <g transform="translate(89.5544,21.5748)">
   <g  id="copper0">
    <g fill="none" cx="3.01733"  cy="3.01733" stroke="black" r="0.992124" id="11" stroke-width="0.850392"/>
   </g>
  </g>
 </g>
 <g partID="3209010">
  <g transform="translate(82.468,28.6612)">
   <g  id="copper0">
    <g fill="none" cx="3.01733"  cy="3.01733" stroke="black" r="0.992124" id="12" stroke-width="0.850392"/>
   </g>
  </g>
 </g>
 <g partID="3216130">
  <g transform="translate(11.602,14.4884)">
   <g  id="copper0">
    <g fill="none" cx="3.01733"  cy="3.01733" stroke="black" r="0.992124" id="13" stroke-width="0.850392"/>
   </g>
  </g>
 </g>
 <g partID="3216860">
  <g transform="translate(68.2949,8.81877)">
   <g  id="copper0">
    <g fill="none" cx="3.01733"  cy="3.01733" stroke="black" r="0.992124" id="14" stroke-width="0.850392"/>
   </g>
  </g>
 </g>
 <g partID="3218600">
  <g transform="translate(56.2476,8.81877)">
   <g  id="copper0">
    <g fill="none" cx="3.01733"  cy="3.01733" stroke="black" r="0.992124" id="15" stroke-width="0.850392"/>
   </g>
  </g>
 </g>
 <g partID="3227680">
  <g transform="translate(38.3818,20.3812)">
   <g transform="matrix(2.22045e-16,1,-1,2.22045e-16,0,0)">
    <g flipped="1" id="copper0">
     <g transform="matrix(-1, 0, 0, 1, 26.784, 0)">
      <g>
       <g stroke-width="0">
        <rect width="1.872" x="1.656" y="18.828" fill="black" height="5.76" stroke="none" id="16" stroke-width="0"/>
        <rect width="1.872" x="5.256" y="18.828" fill="black" height="5.76" stroke="none" id="17" stroke-width="0"/>
        <rect width="1.872" x="8.856" y="18.828" fill="black" height="5.76" stroke="none" id="18" stroke-width="0"/>
        <rect width="1.872" x="12.456" y="18.828" fill="black" height="5.76" stroke="none" id="19" stroke-width="0"/>
        <rect width="1.872" x="16.056" y="18.828" fill="black" height="5.76" stroke="none" id="20" stroke-width="0"/>
        <rect width="1.872" x="19.656" y="18.828" fill="black" height="5.76" stroke="none" id="21" stroke-width="0"/>
        <rect width="1.872" x="23.256" y="18.828" fill="black" height="5.76" stroke="none" id="22" stroke-width="0"/>
        <rect width="1.872" x="23.256" y="0.036" fill="black" height="5.76" stroke="none" id="23" stroke-width="0"/>
        <rect width="1.872" x="19.656" y="0.036" fill="black" height="5.76" stroke="none" id="24" stroke-width="0"/>
        <rect width="1.872" x="16.056" y="0.036" fill="black" height="5.76" stroke="none" id="25" stroke-width="0"/>
        <rect width="1.872" x="12.456" y="0.036" fill="black" height="5.76" stroke="none" id="26" stroke-width="0"/>
        <rect width="1.872" x="8.856" y="0.036" fill="black" height="5.76" stroke="none" id="27" stroke-width="0"/>
        <rect width="1.872" x="5.256" y="0.036" fill="black" height="5.76" stroke="none" id="28" stroke-width="0"/>
        <rect width="1.872" x="1.656" y="0.036" fill="black" height="5.76" stroke="none" id="29" stroke-width="0"/>
       </g>
      </g>
     </g>
    </g>
   </g>
  </g>
 </g>
 <g partID="3232020">
  <g transform="translate(11.5372,72.1668)">
   <g transform="matrix(-4.44089e-16,-1,1,-4.44089e-16,0,0)">
    <g flipped="1" id="copper0">
     <g transform="matrix(-1, 0, 0, 1, 13.824, 0)">
      <g>
       <g stroke-width="0">
        <rect width="1.728" x="4.248" y="14.832" fill="black" height="6.264" stroke="none" id="30" stroke-width="0"/>
        <rect width="1.728" x="0.648" y="0" fill="black" height="6.264" stroke="none" id="31" stroke-width="0"/>
        <rect width="1.728" x="7.848" y="0" fill="black" height="6.264" stroke="none" id="32" stroke-width="0"/>
        <rect width="1.728" x="7.848" y="14.832" fill="black" height="6.264" stroke="none" id="33" stroke-width="0"/>
        <rect width="1.728" x="4.248" y="0" fill="black" height="6.264" stroke="none" id="34" stroke-width="0"/>
        <rect width="1.728" x="11.448" y="14.832" fill="black" height="6.264" stroke="none" id="35" stroke-width="0"/>
        <rect width="1.728" x="11.448" y="0" fill="black" height="6.264" stroke="none" id="36" stroke-width="0"/>
        <rect width="1.728" x="0.648" y="14.832" fill="black" height="6.264" stroke="none" id="37" stroke-width="0"/>
       </g>
      </g>
     </g>
    </g>
   </g>
  </g>
 </g>
 <g partID="3233640">
  <g transform="translate(49.0603,26.2932)">
   <g flipped="1" id="copper0">
    <g transform="matrix(-1, 0, 0, 1, 14.4567, 0)">
     <g>
      <g>
       <rect width="4.53543" x="0.566929" y="0.566929" fill="black" height="5.38583" stroke="none" fill-opacity="1" id="38" stroke-width="0"/>
       <rect width="4.53543" x="9.35433" y="0.566929" fill="black" height="5.38583" stroke="none" fill-opacity="1" id="39" stroke-width="0"/>
      </g>
     </g>
    </g>
   </g>
  </g>
 </g>
 <g partID="3233940">
  <g transform="translate(44.0996,46.2775)">
   <g transform="matrix(2.22045e-16,1,-1,2.22045e-16,0,0)">
    <g flipped="1" id="copper0">
     <g transform="matrix(-1, 0, 0, 1, 14.4567, 0)">
      <g>
       <g>
        <rect width="4.53543" x="0.566929" y="0.566929" fill="black" height="5.38583" stroke="none" fill-opacity="1" id="40" stroke-width="0"/>
        <rect width="4.53543" x="9.35433" y="0.566929" fill="black" height="5.38583" stroke="none" fill-opacity="1" id="41" stroke-width="0"/>
       </g>
      </g>
     </g>
    </g>
   </g>
  </g>
 </g>
 <g partID="3235340">
  <g transform="translate(63.0918,25.7257)">
   <g transform="matrix(-1,6.66134e-16,-6.66134e-16,-1,0,0)">
    <g flipped="1" id="copper0">
     <g transform="matrix(-1, 0, 0, 1, 14.4567, 0)">
      <g>
       <g>
        <rect width="4.53543" x="0.566929" y="0.566929" fill="black" height="5.38583" stroke="none" fill-opacity="1" id="42" stroke-width="0"/>
        <rect width="4.53543" x="9.35433" y="0.566929" fill="black" height="5.38583" stroke="none" fill-opacity="1" id="43" stroke-width="0"/>
       </g>
      </g>
     </g>
    </g>
   </g>
  </g>
 </g>
 <g partID="3241160">
  <g transform="translate(43.4918,26.5356)">
   <g  id="copper0">
    <g fill="none" cx="3.01733"  cy="3.01733" stroke="black" r="0.992124" id="44" stroke-width="0.850392"/>
   </g>
  </g>
 </g>
 <g partID="3241860">
  <g transform="translate(3.09805,20.1575)">
   <g  id="copper0">
    <g fill="none" cx="3.01733"  cy="3.01733" stroke="black" r="0.992124" id="45" stroke-width="0.850392"/>
   </g>
  </g>
 </g>
 <g partID="3256380">
  <g transform="translate(133.492,64.8028)">
   <g  id="copper0">
    <g fill="none" cx="3.01733"  cy="3.01733" stroke="black" r="0.992124" id="46" stroke-width="0.850392"/>
   </g>
  </g>
 </g>
 <g partID="3275400">
  <g transform="translate(65.4603,26.5356)">
   <g  id="copper0">
    <g fill="none" cx="3.01733"  cy="3.01733" stroke="black" r="0.992124" id="47" stroke-width="0.850392"/>
   </g>
  </g>
 </g>
 <g partID="3295740">
  <g transform="translate(29.3185,50.63)">
   <g  id="copper0">
    <g fill="none" cx="3.01733"  cy="3.01733" stroke="black" r="0.992124" id="48" stroke-width="0.850392"/>
   </g>
  </g>
 </g>
 <g partID="3300400">
  <g transform="translate(8.05868,35.748)">
   <g  id="copper0">
    <g fill="none" cx="3.01733"  cy="3.01733" stroke="black" r="0.992124" id="49" stroke-width="0.850392"/>
   </g>
  </g>
 </g>
 <g partID="3301480">
  <g transform="translate(9.47602,50.63)">
   <g  id="copper0">
    <g fill="none" cx="3.01733"  cy="3.01733" stroke="black" r="0.992124" id="50" stroke-width="0.850392"/>
   </g>
  </g>
 </g>
 <g partID="3311030">
  <g transform="translate(29.3185,45.6693)">
   <g  id="copper0">
    <g fill="none" cx="3.01733"  cy="3.01733" stroke="black" r="0.992124" id="51" stroke-width="0.850392"/>
   </g>
  </g>
 </g>
 <g partID="3311660">
  <g transform="translate(15.8539,45.6692)">
   <g  id="copper0">
    <g fill="none" cx="3.01733"  cy="3.01733" stroke="black" r="0.992124" id="52" stroke-width="0.850392"/>
   </g>
  </g>
 </g>
 <g partID="3315580">
  <g transform="translate(51.0445,50.3877)">
   <g transform="matrix(-4.44089e-16,-1,1,-4.44089e-16,0,0)">
    <g flipped="1" id="copper0">
     <g transform="matrix(-1, 0, 0, 1, 14.4567, 0)">
      <g>
       <g>
        <rect width="4.53543" x="0.566929" y="0.566929" fill="black" height="5.38583" stroke="none" fill-opacity="1" id="53" stroke-width="0"/>
        <rect width="4.53543" x="9.35433" y="0.566929" fill="black" height="5.38583" stroke="none" fill-opacity="1" id="54" stroke-width="0"/>
       </g>
      </g>
     </g>
    </g>
   </g>
  </g>
 </g>
 <g partID="3317190">
  <g transform="translate(47.0351,54.1732)">
   <g  id="copper0">
    <g fill="none" cx="3.01733"  cy="3.01733" stroke="black" r="0.992124" id="55" stroke-width="0.850392"/>
   </g>
  </g>
 </g>
 <g partID="2883800">
  <g transform="translate(97.3616,57.3263)">
   <g transform="matrix(-1,6.66134e-16,-6.66134e-16,-1,0,0)">
    <g flipped="1" id="copper0">
     <g transform="matrix(-1, 0, 0, 1, 19.152, 0)">
      <g>
       <g>
        <rect width="3.456" x="1.296" y="17.5187" fill="black" connectorname="1" height="6.336" stroke="none" id="56" stroke-linecap="round" stroke-width="0"/>
        <rect width="3.456" x="7.848" y="17.5187" fill="black" connectorname="2" height="6.336" stroke="none" id="57" stroke-linecap="round" stroke-width="0"/>
        <rect width="3.456" x="14.4" y="17.5187" fill="black" connectorname="3" height="6.336" stroke="none" id="58" stroke-linecap="round" stroke-width="0"/>
        <rect width="10.2047" x="4.47364" y="0" fill="black" connectorname="4" height="6.23622" stroke="none" id="59" stroke-linecap="round" stroke-width="0"/>
        <g id="60"/>
       </g>
       <g id="61"/>
      </g>
     </g>
    </g>
   </g>
  </g>
 </g>
 <g partID="2466990">
  <g transform="translate(169.249,45.9938)">
   <g transform="matrix(-4.44089e-16,-1,1,-4.44089e-16,0,0)">
    <g flipped="1" id="copper0">
     <g transform="matrix(-1, 0, 0, 1, 8.50394, 0)">
      <g>
       <g>
        <!-- unten links -->
        <rect width="2.26772" x="0.425197" y="5.66929" fill="black" height="2.55118" stroke="none" fill-opacity="1" id="62"/>
        <g width="0" x="1.55906" y="6.94488" fill="none" height="0" id="63" stroke-width="0"/>
        <!-- unten rechts -->
        <rect width="2.26772" x="5.81102" y="5.66929" fill="black" height="2.55118" stroke="none" fill-opacity="1" id="64"/>
        <g width="0" x="6.94488" y="6.94488" fill="none" height="0" id="65" stroke-width="0"/>
        <!-- oben mitte -->
        <rect width="2.26772" x="3.11811" y="0" fill="black" height="2.55118" stroke="none" fill-opacity="1" id="66"/>
        <g width="0" x="4.25197" y="1.27559" fill="none" height="0" id="67" stroke-width="0"/>
       </g>
      </g>
     </g>
    </g>
   </g>
  </g>
 </g>
 <g partID="2467450">
  <g transform="translate(177.895,21.1908)">
   <g transform="matrix(0,1,-1,0,0,0)">
    <g flipped="1" id="copper0">
     <g transform="matrix(-1, 0, 0, 1, 14.7402, 0)">
      <g>
       <g>
        <rect width="5.66929" x="0.566929" y="1.41732" fill="black" height="3.40157" stroke="none" fill-opacity="1" id="68" stroke-width="0"/>
        <rect width="5.66929" x="8.50393" y="1.41732" fill="black" height="3.40157" stroke="none" fill-opacity="1" id="69" stroke-width="0"/>
       </g>
      </g>
     </g>
    </g>
   </g>
  </g>
 </g>
 <g partID="2057800">
  <g transform="translate(89.3736,58.9492)">
   <g transform="matrix(2.22045e-16,1,-1,2.22045e-16,0,0)">
    <g  id="copper0">
     <g  id="copper1">
      <g fill="none" cx="5.328"  cy="3.888" stroke="black" id="70" r="2.124" stroke-width="1.08"/>
      <g fill="black"  stroke="none" id="71" stroke-width="0" d="m0,3.888a2.664,2.664,0,0,0,2.664,2.664l5.328,0a2.664,2.664,0,0,0,2.664,-2.664l0,0a2.664,2.664,0,0,0,-2.664,-2.664l-5.328,0a2.664,2.664,0,0,0,-2.664,2.664l0,0zM5.328,2.304a1.584,1.584,0,1,1,0,3.168,1.584,1.584,0,1,1,0,-3.168z"/>
      <g fill="none" cx="5.328"  cy="11.088" stroke="black" id="72" r="2.124" stroke-width="1.08"/>
      <g fill="black"  stroke="none" id="73" stroke-width="0" d="m0,11.088a2.664,2.664,0,0,0,2.664,2.664l5.328,0a2.664,2.664,0,0,0,2.664,-2.664l0,0a2.664,2.664,0,0,0,-2.664,-2.664l-5.328,0a2.664,2.664,0,0,0,-2.664,2.664l0,0zM5.328,9.504a1.584,1.584,0,1,1,0,3.168,1.584,1.584,0,1,1,0,-3.168z"/>
      <g fill="none" cx="5.328"  cy="18.288" stroke="black" id="74" r="2.124" stroke-width="1.08"/>
      <g fill="black"  stroke="none" id="75" stroke-width="0" d="m0,18.288a2.664,2.664,0,0,0,2.664,2.664l5.328,0a2.664,2.664,0,0,0,2.664,-2.664l0,0a2.664,2.664,0,0,0,-2.664,-2.664l-5.328,0a2.664,2.664,0,0,0,-2.664,2.664l0,0zM5.328,16.704a1.584,1.584,0,1,1,0,3.168,1.584,1.584,0,1,1,0,-3.168z"/>
     </g>
    </g>
   </g>
  </g>
 </g>
 <g partID="2106210">
  <g transform="translate(94.7216,69.6052)">
   <g transform="matrix(-4.44089e-16,-1,1,-4.44089e-16,0,0)">
    <g  id="copper0">
     <g  id="copper1">
      <g fill="none" cx="5.328"  cy="3.888" stroke="black" id="76" r="2.124" stroke-width="1.08"/>
      <g fill="black"  stroke="none" id="77" stroke-width="0" d="m0,3.888a2.664,2.664,0,0,0,2.664,2.664l5.328,0a2.664,2.664,0,0,0,2.664,-2.664l0,0a2.664,2.664,0,0,0,-2.664,-2.664l-5.328,0a2.664,2.664,0,0,0,-2.664,2.664l0,0zM5.328,2.304a1.584,1.584,0,1,1,0,3.168,1.584,1.584,0,1,1,0,-3.168z"/>
      <g fill="none" cx="5.328"  cy="11.088" stroke="black" id="78" r="2.124" stroke-width="1.08"/>
      <g fill="black"  stroke="none" id="79" stroke-width="0" d="m0,11.088a2.664,2.664,0,0,0,2.664,2.664l5.328,0a2.664,2.664,0,0,0,2.664,-2.664l0,0a2.664,2.664,0,0,0,-2.664,-2.664l-5.328,0a2.664,2.664,0,0,0,-2.664,2.664l0,0zM5.328,9.504a1.584,1.584,0,1,1,0,3.168,1.584,1.584,0,1,1,0,-3.168z"/>
      <g fill="none" cx="5.328"  cy="18.288" stroke="black" id="80" r="2.124" stroke-width="1.08"/>
      <g fill="black"  stroke="none" id="81" stroke-width="0" d="m0,18.288a2.664,2.664,0,0,0,2.664,2.664l5.328,0a2.664,2.664,0,0,0,2.664,-2.664l0,0a2.664,2.664,0,0,0,-2.664,-2.664l-5.328,0a2.664,2.664,0,0,0,-2.664,2.664l0,0zM5.328,16.704a1.584,1.584,0,1,1,0,3.168,1.584,1.584,0,1,1,0,-3.168z"/>
      <g fill="none" cx="5.328"  cy="25.488" stroke="black" id="82" r="2.124" stroke-width="1.08"/>
      <g fill="black"  stroke="none" id="83" stroke-width="0" d="m0,25.488a2.664,2.664,0,0,0,2.664,2.664l5.328,0a2.664,2.664,0,0,0,2.664,-2.664l0,0a2.664,2.664,0,0,0,-2.664,-2.664l-5.328,0a2.664,2.664,0,0,0,-2.664,2.664l0,0zM5.328,23.904a1.584,1.584,0,1,1,0,3.168,1.584,1.584,0,1,1,0,-3.168z"/>
      <g fill="none" cx="5.328"  cy="32.688" stroke="black" id="84" r="2.124" stroke-width="1.08"/>
      <g fill="black"  stroke="none" id="85" stroke-width="0" d="m0,32.688a2.664,2.664,0,0,0,2.664,2.664l5.328,0a2.664,2.664,0,0,0,2.664,-2.664l0,0a2.664,2.664,0,0,0,-2.664,-2.664l-5.328,0a2.664,2.664,0,0,0,-2.664,2.664l0,0zM5.328,31.104a1.584,1.584,0,1,1,0,3.168,1.584,1.584,0,1,1,0,-3.168z"/>
     </g>
    </g>
   </g>
  </g>
 </g>
 <g partID="2095720">
  <g transform="translate(179.37,4.06437)">
   <g  id="copper0">
    <g  id="copper1">
     <g fill="none" cx="5.328"  cy="3.888" stroke="black" id="86" r="2.124" stroke-width="1.08"/>
     <g fill="black"  stroke="none" id="87" stroke-width="0" d="m0,3.888a2.664,2.664,0,0,0,2.664,2.664l5.328,0a2.664,2.664,0,0,0,2.664,-2.664l0,0a2.664,2.664,0,0,0,-2.664,-2.664l-5.328,0a2.664,2.664,0,0,0,-2.664,2.664l0,0zM5.328,2.304a1.584,1.584,0,1,1,0,3.168,1.584,1.584,0,1,1,0,-3.168z"/>
     <g fill="none" cx="5.328"  cy="11.088" stroke="black" id="88" r="2.124" stroke-width="1.08"/>
     <g fill="black"  stroke="none" id="89" stroke-width="0" d="m0,11.088a2.664,2.664,0,0,0,2.664,2.664l5.328,0a2.664,2.664,0,0,0,2.664,-2.664l0,0a2.664,2.664,0,0,0,-2.664,-2.664l-5.328,0a2.664,2.664,0,0,0,-2.664,2.664l0,0zM5.328,9.504a1.584,1.584,0,1,1,0,3.168,1.584,1.584,0,1,1,0,-3.168z"/>
     <g fill="none" cx="5.328"  cy="18.288" stroke="black" id="90" r="2.124" stroke-width="1.08"/>
     <g fill="black"  stroke="none" id="91" stroke-width="0" d="m0,18.288a2.664,2.664,0,0,0,2.664,2.664l5.328,0a2.664,2.664,0,0,0,2.664,-2.664l0,0a2.664,2.664,0,0,0,-2.664,-2.664l-5.328,0a2.664,2.664,0,0,0,-2.664,2.664l0,0zM5.328,16.704a1.584,1.584,0,1,1,0,3.168,1.584,1.584,0,1,1,0,-3.168z"/>
     <g fill="none" cx="5.328"  cy="25.488" stroke="black" id="92" r="2.124" stroke-width="1.08"/>
     <g fill="black"  stroke="none" id="93" stroke-width="0" d="m0,25.488a2.664,2.664,0,0,0,2.664,2.664l5.328,0a2.664,2.664,0,0,0,2.664,-2.664l0,0a2.664,2.664,0,0,0,-2.664,-2.664l-5.328,0a2.664,2.664,0,0,0,-2.664,2.664l0,0zM5.328,23.904a1.584,1.584,0,1,1,0,3.168,1.584,1.584,0,1,1,0,-3.168z"/>
     <g fill="none" cx="5.328"  cy="32.688" stroke="black" id="94" r="2.124" stroke-width="1.08"/>
     <g fill="black"  stroke="none" id="95" stroke-width="0" d="m0,32.688a2.664,2.664,0,0,0,2.664,2.664l5.328,0a2.664,2.664,0,0,0,2.664,-2.664l0,0a2.664,2.664,0,0,0,-2.664,-2.664l-5.328,0a2.664,2.664,0,0,0,-2.664,2.664l0,0zM5.328,31.104a1.584,1.584,0,1,1,0,3.168,1.584,1.584,0,1,1,0,-3.168z"/>
     <g fill="none" cx="5.328"  cy="39.888" stroke="black" id="96" r="2.124" stroke-width="1.08"/>
     <g fill="black"  stroke="none" id="97" stroke-width="0" d="m0,39.888a2.664,2.664,0,0,0,2.664,2.664l5.328,0a2.664,2.664,0,0,0,2.664,-2.664l0,0a2.664,2.664,0,0,0,-2.664,-2.664l-5.328,0a2.664,2.664,0,0,0,-2.664,2.664l0,0zM5.328,38.304a1.584,1.584,0,1,1,0,3.168,1.584,1.584,0,1,1,0,-3.168z"/>
     <g fill="none" cx="5.328"  cy="47.088" stroke="black" id="98" r="2.124" stroke-width="1.08"/>
     <g fill="black"  stroke="none" id="99" stroke-width="0" d="m0,47.088a2.664,2.664,0,0,0,2.664,2.664l5.328,0a2.664,2.664,0,0,0,2.664,-2.664l0,0a2.664,2.664,0,0,0,-2.664,-2.664l-5.328,0a2.664,2.664,0,0,0,-2.664,2.664l0,0zM5.328,45.504a1.584,1.584,0,1,1,0,3.168,1.584,1.584,0,1,1,0,-3.168z"/>
     <g fill="none" cx="5.328"  cy="54.288" stroke="black" id="100" r="2.124" stroke-width="1.08"/>
     <g fill="black"  stroke="none" id="101" stroke-width="0" d="m0,54.288a2.664,2.664,0,0,0,2.664,2.664l5.328,0a2.664,2.664,0,0,0,2.664,-2.664l0,0a2.664,2.664,0,0,0,-2.664,-2.664l-5.328,0a2.664,2.664,0,0,0,-2.664,2.664l0,0zM5.328,52.704a1.584,1.584,0,1,1,0,3.168,1.584,1.584,0,1,1,0,-3.168z"/>
     <g fill="none" cx="5.328"  cy="61.488" stroke="black" id="102" r="2.124" stroke-width="1.08"/>
     <g fill="black"  stroke="none" id="103" stroke-width="0" d="m0,61.488a2.664,2.664,0,0,0,2.664,2.664l5.328,0a2.664,2.664,0,0,0,2.664,-2.664l0,0a2.664,2.664,0,0,0,-2.664,-2.664l-5.328,0a2.664,2.664,0,0,0,-2.664,2.664l0,0zM5.328,59.904a1.584,1.584,0,1,1,0,3.168,1.584,1.584,0,1,1,0,-3.168z"/>
    </g>
   </g>
  </g>
 </g>
 <g partID="2174650">
  <g transform="translate(131.087,35.1276)">
   <g transform="matrix(2.22045e-16,1,-1,2.22045e-16,0,0)">
    <g flipped="1" id="copper0">
     <g transform="matrix(-1, 0, 0, 1, 13.824, 0)">
      <g>
       <g stroke-width="0">
        <rect width="1.728" x="4.248" y="14.832" fill="black" height="6.264" stroke="none" id="104" stroke-width="0"/>
        <rect width="1.728" x="0.648" y="0" fill="black" height="6.264" stroke="none" id="105" stroke-width="0"/>
        <rect width="1.728" x="7.848" y="0" fill="black" height="6.264" stroke="none" id="106" stroke-width="0"/>
        <rect width="1.728" x="7.848" y="14.832" fill="black" height="6.264" stroke="none" id="107" stroke-width="0"/>
        <rect width="1.728" x="4.248" y="0" fill="black" height="6.264" stroke="none" id="108" stroke-width="0"/>
        <rect width="1.728" x="11.448" y="14.832" fill="black" height="6.264" stroke="none" id="109" stroke-width="0"/>
        <rect width="1.728" x="11.448" y="0" fill="black" height="6.264" stroke="none" id="110" stroke-width="0"/>
        <rect width="1.728" x="0.648" y="14.832" fill="black" height="6.264" stroke="none" id="111" stroke-width="0"/>
       </g>
      </g>
     </g>
    </g>
   </g>
  </g>
 </g>
 <g partID="2176030">
  <g transform="translate(132.541,28.5609)">
   <g transform="matrix(-1,0,0,-1,0,0)">
    <g flipped="1" id="copper0">
     <g transform="matrix(-1, 0, 0, 1, 14.4567, 0)">
      <g>
       <g>
        <rect width="4.53543" x="0.566929" y="0.566929" fill="black" height="5.38583" stroke="none" fill-opacity="1" id="112" stroke-width="0"/>
        <rect width="4.53543" x="9.35433" y="0.566929" fill="black" height="5.38583" stroke="none" fill-opacity="1" id="113" stroke-width="0"/>
       </g>
      </g>
     </g>
    </g>
   </g>
  </g>
 </g>
 <g partID="2176620">
  <g transform="translate(114.824,21.3325)">
   <g transform="matrix(0,-1,1,0,0,0)">
    <g flipped="1" id="copper0">
     <g transform="matrix(-1, 0, 0, 1, 14.4567, 0)">
      <g>
       <g>
        <rect width="4.53543" x="0.566929" y="0.566929" fill="black" height="5.38583" stroke="none" fill-opacity="1" id="114" stroke-width="0"/>
        <rect width="4.53543" x="9.35433" y="0.566929" fill="black" height="5.38583" stroke="none" fill-opacity="1" id="115" stroke-width="0"/>
       </g>
      </g>
     </g>
    </g>
   </g>
  </g>
 </g>
 <g partID="2178920">
  <g transform="translate(130.556,10.702)">
   <g flipped="1" id="copper0">
    <g transform="matrix(-1, 0, 0, 1, 14.4567, 0)">
     <g>
      <g>
       <rect width="4.53543" x="0.566929" y="0.566929" fill="black" height="5.38583" stroke="none" fill-opacity="1" id="116" stroke-width="0"/>
       <rect width="4.53543" x="9.35433" y="0.566929" fill="black" height="5.38583" stroke="none" fill-opacity="1" id="117" stroke-width="0"/>
      </g>
     </g>
    </g>
   </g>
  </g>
 </g>
 <g partID="2179880">
  <g transform="translate(127.013,28.4188)">
   <g flipped="1" id="copper0">
    <g transform="matrix(-1, 0, 0, 1, 14.4567, 0)">
     <g>
      <g>
       <rect width="4.53543" x="0.566929" y="0.566929" fill="black" height="5.38583" stroke="none" fill-opacity="1" id="118" stroke-width="0"/>
       <rect width="4.53543" x="9.35433" y="0.566929" fill="black" height="5.38583" stroke="none" fill-opacity="1" id="119" stroke-width="0"/>
      </g>
     </g>
    </g>
   </g>
  </g>
 </g>
 <g partID="2179980">
  <g transform="translate(147.422,16.3717)">
   <g transform="matrix(-4.44089e-16,-1,1,-4.44089e-16,0,0)">
    <g flipped="1" id="copper0">
     <g transform="matrix(-1, 0, 0, 1, 14.4567, 0)">
      <g>
       <g>
        <rect width="4.53543" x="0.566929" y="0.566929" fill="black" height="5.38583" stroke="none" fill-opacity="1" id="120" stroke-width="0"/>
        <rect width="4.53543" x="9.35433" y="0.566929" fill="black" height="5.38583" stroke="none" fill-opacity="1" id="121" stroke-width="0"/>
       </g>
      </g>
     </g>
    </g>
   </g>
  </g>
 </g>
 <g partID="2180620">
  <g transform="translate(107.737,21.3325)">
   <g transform="matrix(-4.44089e-16,-1,1,-4.44089e-16,0,0)">
    <g flipped="1" id="copper0">
     <g transform="matrix(-1, 0, 0, 1, 14.4567, 0)">
      <g>
       <g>
        <rect width="4.53543" x="0.566929" y="0.566929" fill="black" height="5.38583" stroke="none" fill-opacity="1" id="122" stroke-width="0"/>
        <rect width="4.53543" x="9.35433" y="0.566929" fill="black" height="5.38583" stroke="none" fill-opacity="1" id="123" stroke-width="0"/>
       </g>
      </g>
     </g>
    </g>
   </g>
  </g>
 </g>
 <g partID="2909040">
  <g transform="translate(82.2256,57.6161)">
   <g transform="matrix(-1,2.22045e-15,-2.22045e-15,-1,0,0)">
    <g flipped="1" id="copper0">
     <g transform="matrix(-1, 0, 0, 1, 14.4567, 0)">
      <g>
       <g>
        <rect width="4.53543" x="0.566929" y="0.566929" fill="black" height="5.38583" stroke="none" fill-opacity="1" id="124" stroke-width="0"/>
        <rect width="4.53543" x="9.35433" y="0.566929" fill="black" height="5.38583" stroke="none" fill-opacity="1" id="125" stroke-width="0"/>
       </g>
      </g>
     </g>
    </g>
   </g>
  </g>
 </g>
 <g partID="2460450">
  <g transform="translate(74.572,32.8127)">
   <g transform="matrix(4.44089e-16,1,-1,4.44089e-16,0,0)">
    <g flipped="1" id="copper0">
     <g transform="matrix(-1, 0, 0, 1, 14.4567, 0)">
      <g>
       <g>
        <rect width="4.53543" x="0.566929" y="0.566929" fill="black" height="5.38583" stroke="none" fill-opacity="1" id="126" stroke-width="0"/>
        <rect width="4.53543" x="9.35433" y="0.566929" fill="black" height="5.38583" stroke="none" fill-opacity="1" id="127" stroke-width="0"/>
       </g>
      </g>
     </g>
    </g>
   </g>
  </g>
 </g>
 <g partID="2463210">
  <g transform="translate(156.493,47.5531)">
   <g transform="matrix(2.22045e-16,1,-1,2.22045e-16,0,0)">
    <g transform="matrix(1, 0, 0, 1, 3.62017e-07, 1.93989e-05)">
     <g id="copper0">
      <g flipped="1">
       <g transform="matrix(-1, 0, 0, 1, 25.2284, 0)">
        <g>
         <g gorn="0.4.0.0.0">
          <rect width="9.92125" x="-3.62017e-07" y="8.50396" fill="black" gorn="0.4.0.0.0.0" height="4.53544" stroke="none" fill-opacity="1" id="128"/>
          <rect width="9.92125" x="15.3071" y="8.50396" fill="black" gorn="0.4.0.0.0.1" height="4.53544" stroke="none" fill-opacity="1" id="129"/>
         </g>
        </g>
       </g>
      </g>
     </g>
    </g>
   </g>
  </g>
 </g>
 <g partID="2463530">
  <g transform="translate(157.627,75.6158)">
   <g transform="matrix(0,-1,1,0,0,0)">
    <g flipped="1" id="copper0">
     <g transform="matrix(-1, 0, 0, 1, 25.2283, 0)">
      <g>
       <g>
        <rect width="9.92127" x="-3.62017e-07" y="8.50396" fill="black" height="4.53544" stroke="none" fill-opacity="1" id="130" stroke-width="0"/>
        <rect width="9.92127" x="15.3071" y="8.50396" fill="black" height="4.53544" stroke="none" fill-opacity="1" id="131" stroke-width="0"/>
       </g>
      </g>
     </g>
    </g>
   </g>
  </g>
 </g>
 <g partID="2464230">
  <g transform="translate(144.73,25.5844)">
   <g flipped="1" id="copper0">
    <g transform="matrix(-1, 0, 0, 1, 14.4567, 0)">
     <g>
      <g>
       <rect width="4.53543" x="0.566929" y="0.566929" fill="black" height="5.38583" stroke="none" fill-opacity="1" id="132" stroke-width="0"/>
       <rect width="4.53543" x="9.35433" y="0.566929" fill="black" height="5.38583" stroke="none" fill-opacity="1" id="133" stroke-width="0"/>
      </g>
     </g>
    </g>
   </g>
  </g>
 </g>
 <g partID="2464470">
  <g transform="translate(171.517,20.0569)">
   <g transform="matrix(-1,2.77556e-16,-2.77556e-16,-1,0,0)">
    <g flipped="1" id="copper0">
     <g transform="matrix(-1, 0, 0, 1, 14.4567, 0)">
      <g>
       <g>
        <rect width="4.53543" x="0.566929" y="0.566929" fill="black" height="5.38583" stroke="none" fill-opacity="1" id="134" stroke-width="0"/>
        <rect width="4.53543" x="9.35433" y="0.566929" fill="black" height="5.38583" stroke="none" fill-opacity="1" id="135" stroke-width="0"/>
       </g>
      </g>
     </g>
    </g>
   </g>
  </g>
 </g>
 <g partID="2465070">
  <g transform="translate(142.639,46.6556)">
   <g transform="matrix(-2.22045e-16,-1,1,-2.22045e-16,0,0)">
    <g flipped="1" id="copper0">
     <g transform="matrix(-1, 0, 0, 1, 13.824, 0)">
      <g>
       <g stroke-width="0">
        <rect width="1.728" x="4.248" y="14.832" fill="black" height="6.264" stroke="none" id="136" stroke-width="0"/>
        <rect width="1.728" x="0.648" y="0" fill="black" height="6.264" stroke="none" id="137" stroke-width="0"/>
        <rect width="1.728" x="7.848" y="0" fill="black" height="6.264" stroke="none" id="138" stroke-width="0"/>
        <rect width="1.728" x="7.848" y="14.832" fill="black" height="6.264" stroke="none" id="139" stroke-width="0"/>
        <rect width="1.728" x="4.248" y="0" fill="black" height="6.264" stroke="none" id="140" stroke-width="0"/>
        <rect width="1.728" x="11.448" y="14.832" fill="black" height="6.264" stroke="none" id="141" stroke-width="0"/>
        <rect width="1.728" x="11.448" y="0" fill="black" height="6.264" stroke="none" id="142" stroke-width="0"/>
        <rect width="1.728" x="0.648" y="14.832" fill="black" height="6.264" stroke="none" id="143" stroke-width="0"/>
       </g>
      </g>
     </g>
    </g>
   </g>
  </g>
 </g>
 <g partID="2466310">
  <g transform="translate(171.659,21.4743)">
   <g transform="matrix(2.22045e-16,1,-1,2.22045e-16,0,0)">
    <g flipped="1" id="copper0">
     <g transform="matrix(-1, 0, 0, 1, 14.4567, 0)">
      <g>
       <g>
        <rect width="4.53543" x="0.566929" y="0.566929" fill="black" height="5.38583" stroke="none" fill-opacity="1" id="144" stroke-width="0"/>
        <rect width="4.53543" x="9.35433" y="0.566929" fill="black" height="5.38583" stroke="none" fill-opacity="1" id="145" stroke-width="0"/>
       </g>
      </g>
     </g>
    </g>
   </g>
  </g>
 </g>
 <g partID="2588520">
  <g transform="translate(95.9328,44.2516)">
   <g  id="copper0">
    <g fill="none" cx="3.01733"  cy="3.01733" stroke="black" r="0.992124" id="146" stroke-width="0.850392"/>
   </g>
  </g>
 </g>
 <g partID="2596380">
  <g transform="translate(69.7122,21.5748)">
   <g  id="copper0">
    <g fill="none" cx="3.01733"  cy="3.01733" stroke="black" r="0.992124" id="147" stroke-width="0.850392"/>
   </g>
  </g>
 </g>
 <g partID="2180180">
  <g transform="translate(102.918,27.002)">
   <g flipped="1" id="copper0">
    <g transform="matrix(-1, 0, 0, 1, 14.4567, 0)">
     <g>
      <g>
       <rect width="4.53543" x="0.566929" y="0.566929" fill="black" height="5.38583" stroke="none" fill-opacity="1" id="148" stroke-width="0"/>
       <rect width="4.53543" x="9.35433" y="0.566929" fill="black" height="5.38583" stroke="none" fill-opacity="1" id="149" stroke-width="0"/>
      </g>
     </g>
    </g>
   </g>
  </g>
 </g>
 <g partID="2178700">
  <g transform="translate(121.911,21.3325)">
   <g transform="matrix(-4.44089e-16,-1,1,-4.44089e-16,0,0)">
    <g flipped="1" id="copper0">
     <g transform="matrix(-1, 0, 0, 1, 14.4567, 0)">
      <g>
       <g>
        <rect width="4.53543" x="0.566929" y="0.566929" fill="black" height="5.38583" stroke="none" fill-opacity="1" id="150" stroke-width="0"/>
        <rect width="4.53543" x="9.35433" y="0.566929" fill="black" height="5.38583" stroke="none" fill-opacity="1" id="151" stroke-width="0"/>
       </g>
      </g>
     </g>
    </g>
   </g>
  </g>
 </g>
</svg>
