<?xml version='1.0' encoding='UTF-8' standalone='no'?>
<!-- Created with Fritzing (http://www.fritzing.org/) -->
<svg xmlns="http://www.w3.org/2000/svg" width="2.16783in" x="0in" version="1.2" y="0in"  height="1.39398in" viewBox="0 0 156.084 100.367" baseProfile="tiny" xmlns:svg="http://www.w3.org/2000/svg">
 <g transform="matrix(-1, 0, 0, 1, 156.084, 0)">
  <g partID="127820">
   <g id="board">
    <rect width="155.508" x="0.576" y="0.576" fill="none" height="99.7905" stroke="black" fill-opacity="0.5" id="boardoutline" stroke-width="0.5"/>
   </g>
  </g>
  <g partID="129270">
   <g transform="translate(116.64,75.744)">
    <g  id="groundplane">
     <g  id="connector0pad">
      <polygon fill="black" points="0,0,0,1.44,9.648,1.44,9.648,0"  stroke="none" stroke-width="0"/>
     </g>
    </g>
   </g>
  </g>
  <g partID="129300">
   <g transform="translate(44.928,3.168)">
    <g  id="groundplane">
     <polygon fill="black" points="11.952,0,11.952,1.44,91.296,1.44,91.296,1.584,92.016,1.584,92.016,1.728,92.304,1.728,92.304,1.872,92.592,1.872,92.592,2.016,92.88,2.016,92.88,2.16,93.024,2.16,93.024,2.304,93.168,2.304,93.168,2.448,93.312,2.448,93.312,2.592,93.456,2.592,93.456,2.736,93.6,2.736,93.6,2.88,93.744,2.88,93.744,3.024,93.888,3.024,93.888,3.312,94.032,3.312,94.032,3.6,94.176,3.6,94.176,3.888,94.32,3.888,94.32,4.608,94.464,4.608,94.464,6.768,95.472,6.768,95.472,17.136,108.144,17.136,108.144,0"  stroke="none" stroke-width="0"/>
     <polygon fill="black" points="11.952,1.44,11.952,1.584,71.712,1.584,71.712,1.44"  stroke="none" stroke-width="0"/>
     <polygon fill="black" points="73.152,9.504,73.152,9.648,12.096,9.648,12.096,9.792,11.952,9.792,11.952,9.936,11.808,9.936,11.808,10.08,11.664,10.08,11.664,10.224,11.52,10.224,11.52,10.368,11.376,10.368,11.376,10.512,11.232,10.512,11.232,10.656,11.088,10.656,11.088,12.096,66.384,12.096,66.384,12.24,67.104,12.24,67.104,12.384,67.536,12.384,67.536,12.528,67.824,12.528,67.824,12.672,67.968,12.672,67.968,12.816,68.256,12.816,68.256,12.96,68.4,12.96,68.4,13.104,68.544,13.104,68.544,13.248,68.688,13.248,68.688,13.392,68.832,13.392,68.832,13.536,68.976,13.536,68.976,13.824,69.12,13.824,69.12,13.968,69.264,13.968,69.264,14.256,69.408,14.256,69.408,14.688,69.552,14.688,69.552,15.984,69.696,15.984,69.696,17.136,85.104,17.136,85.104,9.504"  stroke="none" stroke-width="0"/>
     <polygon fill="black" points="69.696,17.136,69.696,17.28,108.144,17.28,108.144,17.136"  stroke="none" stroke-width="0"/>
     <polygon fill="black" points="69.696,17.136,69.696,17.28,108.144,17.28,108.144,17.136"  stroke="none" stroke-width="0"/>
     <polygon fill="black" points="69.696,17.28,69.696,20.016,69.84,20.016,69.84,21.024,91.584,21.024,91.584,21.168,92.016,21.168,92.016,21.312,92.448,21.312,92.448,21.456,92.736,21.456,92.736,21.6,92.88,21.6,92.88,21.744,93.168,21.744,93.168,21.888,93.312,21.888,93.312,22.032,93.6,22.032,93.6,22.176,93.744,22.176,93.744,22.32,93.888,22.32,93.888,22.464,94.032,22.464,94.032,22.608,94.176,22.608,94.176,22.752,94.32,22.752,94.32,22.896,94.464,22.896,94.464,23.184,94.608,23.184,94.608,23.328,94.752,23.328,94.752,23.616,94.896,23.616,94.896,23.76,95.04,23.76,95.04,24.048,95.184,24.048,95.184,24.48,95.328,24.48,95.328,24.912,95.472,24.912,95.472,27.504,95.328,27.504,95.328,27.936,95.184,27.936,95.184,28.224,95.04,28.224,95.04,28.512,94.896,28.512,94.896,28.8,94.752,28.8,94.752,29.088,94.608,29.088,94.608,29.232,94.464,29.232,94.464,29.376,94.32,29.376,94.32,29.664,94.176,29.664,94.176,29.808,94.032,29.808,94.032,29.952,93.888,29.952,93.888,30.096,93.744,30.096,93.744,30.24,93.456,30.24,93.456,30.384,93.312,30.384,93.312,30.528,93.168,30.528,93.168,30.672,92.88,30.672,92.88,30.816,92.592,30.816,92.592,30.96,92.304,30.96,92.304,31.104,92.016,31.104,92.016,31.248,91.44,31.248,91.44,31.392,108.144,31.392,108.144,17.28"  stroke="none" stroke-width="0"/>
     <polygon fill="black" points="69.84,21.024,69.84,22.32,72.72,22.32,72.72,22.176,87.12,22.176,87.12,22.032,87.264,22.032,87.264,21.888,87.408,21.888,87.408,21.744,87.696,21.744,87.696,21.6,87.984,21.6,87.984,21.456,88.272,21.456,88.272,21.312,88.56,21.312,88.56,21.168,88.992,21.168,88.992,21.024"  stroke="none" stroke-width="0"/>
     <polygon fill="black" points="36,26.64,36,28.08,36.144,28.08,36.144,28.368,36.432,28.368,36.432,28.512,36.576,28.512,36.576,28.656,36.72,28.656,36.72,28.8,36.864,28.8,36.864,28.944,37.008,28.944,37.008,29.088,37.152,29.088,37.152,29.232,37.296,29.232,37.296,29.376,37.44,29.376,37.44,29.52,37.584,29.52,37.584,29.664,37.728,29.664,37.728,29.808,37.872,29.808,37.872,30.096,38.016,30.096,38.016,30.24,38.16,30.24,38.16,30.528,38.304,30.528,38.304,30.672,38.448,30.672,38.448,30.96,38.592,30.96,38.592,31.248,38.736,31.248,38.736,31.68,38.88,31.68,38.88,31.968,39.024,31.968,39.024,32.688,39.168,32.688,39.168,35.28,39.024,35.28,39.024,36,38.88,36,38.88,36.288,38.736,36.288,38.736,36.72,38.592,36.72,38.592,37.008,38.448,37.008,38.448,37.296,38.304,37.296,38.304,37.44,38.16,37.44,38.16,37.728,38.016,37.728,38.016,37.872,37.872,37.872,37.872,38.16,37.728,38.16,37.728,38.304,37.584,38.304,37.584,38.448,37.44,38.448,37.44,38.592,37.296,38.592,37.296,38.736,37.152,38.736,37.152,38.88,37.008,38.88,37.008,39.024,36.864,39.024,36.864,39.168,36.72,39.168,36.72,39.312,36.576,39.312,36.576,39.456,36.432,39.456,36.432,39.6,36.288,39.6,36.288,39.744,36,39.744,36,39.888,35.856,39.888,35.856,40.032,35.568,40.032,35.568,40.176,35.28,40.176,35.28,40.32,34.992,40.32,34.992,40.464,34.704,40.464,34.704,40.608,34.416,40.608,34.416,40.752,33.84,40.752,33.84,40.896,32.832,40.896,32.832,41.04,45.216,41.04,45.216,33.84,45.072,33.84,45.072,33.696,44.928,33.696,44.928,33.552,44.64,33.552,44.64,33.408,44.496,33.408,44.496,33.264,44.352,33.264,44.352,33.12,44.208,33.12,44.208,32.976,44.064,32.976,44.064,32.832,43.92,32.832,43.92,32.688,43.776,32.688,43.776,32.4,43.632,32.4,43.632,32.256,43.488,32.256,43.488,32.112,43.344,32.112,43.344,31.824,43.2,31.824,43.2,31.68,43.056,31.68,43.056,31.392,42.912,31.392,42.912,31.104,42.768,31.104,42.768,30.816,42.624,30.816,42.624,30.384,42.48,30.384,42.48,29.952,42.336,29.952,42.336,29.232,42.192,29.232,42.192,26.64"  stroke="none" stroke-width="0"/>
     <polygon fill="black" points="74.016,30.24,74.016,30.384,72.864,30.384,72.864,31.392,89.136,31.392,89.136,31.248,88.704,31.248,88.704,31.104,88.272,31.104,88.272,30.96,87.984,30.96,87.984,30.816,87.696,30.816,87.696,30.672,87.552,30.672,87.552,30.528,87.264,30.528,87.264,30.384,87.12,30.384,87.12,30.24"  stroke="none" stroke-width="0"/>
     <polygon fill="black" points="72.864,31.392,72.864,31.536,108.144,31.536,108.144,31.392"  stroke="none" stroke-width="0"/>
     <polygon fill="black" points="72.864,31.392,72.864,31.536,108.144,31.536,108.144,31.392"  stroke="none" stroke-width="0"/>
     <polygon fill="black" points="72.864,31.536,72.864,31.968,73.008,31.968,73.008,32.544,73.152,32.544,73.152,35.136,91.152,35.136,91.152,35.28,91.872,35.28,91.872,35.424,92.304,35.424,92.304,35.568,92.592,35.568,92.592,35.712,92.88,35.712,92.88,35.856,93.024,35.856,93.024,36,93.312,36,93.312,36.144,93.456,36.144,93.456,36.288,93.6,36.288,93.6,36.432,93.744,36.432,93.744,36.576,93.888,36.576,93.888,36.72,94.032,36.72,94.032,36.864,94.176,36.864,94.176,37.008,94.32,37.008,94.32,37.152,94.464,37.152,94.464,37.296,94.608,37.296,94.608,37.584,94.752,37.584,94.752,37.728,94.896,37.728,94.896,38.016,95.04,38.016,95.04,38.304,95.184,38.304,95.184,38.592,95.328,38.592,95.328,39.168,95.472,39.168,95.472,41.616,95.328,41.616,95.328,42.048,95.184,42.048,95.184,42.48,95.04,42.48,95.04,42.768,94.896,42.768,94.896,43.056,94.752,43.056,94.752,43.2,94.608,43.2,94.608,43.488,94.464,43.488,94.464,44.784,94.32,44.784,94.32,45.504,94.176,45.504,94.176,45.792,94.032,45.792,94.032,46.08,93.888,46.08,93.888,46.368,93.744,46.368,93.744,46.512,93.6,46.512,93.6,46.8,93.456,46.8,93.456,46.944,93.312,46.944,93.312,47.088,93.168,47.088,93.168,47.232,92.88,47.232,92.88,47.376,92.736,47.376,92.736,47.52,92.448,47.52,92.448,47.664,92.16,47.664,92.16,47.808,91.584,47.808,91.584,47.952,108.144,47.952,108.144,31.536"  stroke="none" stroke-width="0"/>
     <polygon fill="black" points="20.016,33.84,20.016,33.984,11.808,33.984,11.808,35.424,11.952,35.424,11.952,35.568,12.096,35.568,12.096,35.712,12.24,35.712,12.24,36,12.384,36,12.384,36.144,12.528,36.144,12.528,36.432,12.672,36.432,12.672,36.72,12.816,36.72,12.816,37.008,12.96,37.008,12.96,37.296,13.104,37.296,13.104,37.728,13.248,37.728,13.248,38.448,13.392,38.448,13.392,40.896,13.248,40.896,13.248,41.04,31.536,41.04,31.536,40.896,30.528,40.896,30.528,40.752,30.096,40.752,30.096,40.608,29.664,40.608,29.664,40.464,29.376,40.464,29.376,40.32,29.088,40.32,29.088,40.176,28.8,40.176,28.8,40.032,28.512,40.032,28.512,39.888,28.368,39.888,28.368,39.744,28.224,39.744,28.224,39.6,27.936,39.6,27.936,39.456,27.792,39.456,27.792,39.312,27.648,39.312,27.648,39.168,27.504,39.168,27.504,39.024,27.36,39.024,27.36,38.88,27.216,38.88,27.216,38.736,27.072,38.736,27.072,38.592,26.928,38.592,26.928,38.448,26.784,38.448,26.784,38.304,26.64,38.304,26.64,38.16,26.496,38.16,26.496,37.872,26.352,37.872,26.352,37.728,26.208,37.728,26.208,37.44,26.064,37.44,26.064,37.152,25.92,37.152,25.92,37.008,25.776,37.008,25.776,36.576,25.632,36.576,25.632,36.288,25.488,36.288,25.488,35.856,25.344,35.856,25.344,35.136,25.2,35.136,25.2,33.84"  stroke="none" stroke-width="0"/>
     <polygon fill="black" points="73.152,35.136,73.152,35.424,73.008,35.424,73.008,36,72.864,36,72.864,36.432,72.72,36.432,72.72,36.72,72.576,36.72,72.576,37.008,72.432,37.008,72.432,37.296,72.288,37.296,72.288,37.584,72.144,37.584,72.144,37.728,72,37.728,72,38.016,71.856,38.016,71.856,38.16,71.712,38.16,71.712,38.304,71.568,38.304,71.568,38.448,71.424,38.448,71.424,39.888,85.104,39.888,85.104,39.312,85.248,39.312,85.248,38.736,85.392,38.736,85.392,38.304,85.536,38.304,85.536,38.016,85.68,38.016,85.68,37.728,85.824,37.728,85.824,37.584,85.968,37.584,85.968,37.296,86.112,37.296,86.112,37.152,86.256,37.152,86.256,37.008,86.4,37.008,86.4,36.864,86.544,36.864,86.544,36.72,86.688,36.72,86.688,36.576,86.832,36.576,86.832,36.432,86.976,36.432,86.976,36.288,87.12,36.288,87.12,36.144,87.408,36.144,87.408,36,87.552,36,87.552,35.856,87.84,35.856,87.84,35.712,87.984,35.712,87.984,35.568,88.416,35.568,88.416,35.424,88.704,35.424,88.704,35.28,89.424,35.28,89.424,35.136"  stroke="none" stroke-width="0"/>
     <polygon fill="black" points="13.248,41.04,13.248,41.184,45.216,41.184,45.216,41.04"  stroke="none" stroke-width="0"/>
     <polygon fill="black" points="13.248,41.04,13.248,41.184,45.216,41.184,45.216,41.04"  stroke="none" stroke-width="0"/>
     <polygon fill="black" points="13.248,41.184,13.248,41.472,13.104,41.472,13.104,41.904,12.96,41.904,12.96,42.336,12.816,42.336,12.816,42.624,12.672,42.624,12.672,42.912,12.528,42.912,12.528,43.2,12.384,43.2,12.384,43.344,12.24,43.344,12.24,43.632,12.096,43.632,12.096,43.776,11.952,43.776,11.952,43.92,11.808,43.92,11.808,44.064,11.664,44.064,11.664,44.352,11.52,44.352,11.52,44.496,11.376,44.496,11.376,44.64,11.232,44.64,11.232,44.784,11.088,44.784,11.088,44.928,10.8,44.928,10.8,45.072,10.656,45.072,10.656,45.216,10.512,45.216,10.512,45.36,10.368,45.36,10.368,45.504,10.08,45.504,10.08,45.648,9.936,45.648,9.936,45.792,9.648,45.792,9.648,45.936,9.36,45.936,9.36,46.08,9.072,46.08,9.072,46.224,8.64,46.224,8.64,46.368,8.208,46.368,8.208,46.512,7.632,46.512,7.632,46.656,46.08,46.656,46.08,46.512,45.936,46.512,45.936,46.368,45.792,46.368,45.792,46.08,45.648,46.08,45.648,45.792,45.504,45.792,45.504,45.504,45.36,45.504,45.36,44.64,45.216,44.64,45.216,41.184"  stroke="none" stroke-width="0"/>
     <polygon fill="black" points="0.144,44.64,0.144,46.656,5.184,46.656,5.184,46.512,4.608,46.512,4.608,46.368,4.032,46.368,4.032,46.224,3.744,46.224,3.744,46.08,3.456,46.08,3.456,45.936,3.168,45.936,3.168,45.792,2.88,45.792,2.88,45.648,2.736,45.648,2.736,45.504,2.448,45.504,2.448,45.36,2.304,45.36,2.304,45.216,2.16,45.216,2.16,45.072,1.872,45.072,1.872,44.928,1.728,44.928,1.728,44.784,1.584,44.784,1.584,44.64"  stroke="none" stroke-width="0"/>
     <polygon fill="black" points="0.144,46.656,0.144,46.8,46.08,46.8,46.08,46.656"  stroke="none" stroke-width="0"/>
     <polygon fill="black" points="0.144,46.656,0.144,46.8,46.08,46.8,46.08,46.656"  stroke="none" stroke-width="0"/>
     <polygon fill="black" points="0.144,46.8,0.144,47.952,48.096,47.952,48.096,47.808,47.664,47.808,47.664,47.664,47.232,47.664,47.232,47.52,46.944,47.52,46.944,47.376,46.8,47.376,46.8,47.232,46.512,47.232,46.512,47.088,46.368,47.088,46.368,46.944,46.224,46.944,46.224,46.8"  stroke="none" stroke-width="0"/>
     <polygon fill="black" points="0.144,47.952,0.144,48.096,108.144,48.096,108.144,47.952"  stroke="none" stroke-width="0"/>
     <polygon fill="black" points="0.144,47.952,0.144,48.096,108.144,48.096,108.144,47.952"  stroke="none" stroke-width="0"/>
     <polygon fill="black" points="0.144,48.096,0.144,48.24,7.488,48.24,7.488,48.384,8.208,48.384,8.208,48.528,8.64,48.528,8.64,48.672,9.072,48.672,9.072,48.816,9.36,48.816,9.36,48.96,9.648,48.96,9.648,49.104,9.792,49.104,9.792,49.248,10.08,49.248,10.08,49.392,91.584,49.392,91.584,49.536,92.16,49.536,92.16,49.68,92.448,49.68,92.448,49.824,92.736,49.824,92.736,49.968,93.024,49.968,93.024,50.112,93.168,50.112,93.168,50.256,93.312,50.256,93.312,50.4,93.6,50.4,93.6,50.544,93.744,50.544,93.744,50.688,93.888,50.688,93.888,50.832,94.032,50.832,94.032,50.976,94.176,50.976,94.176,51.12,94.32,51.12,94.32,51.264,94.464,51.264,94.464,51.552,94.608,51.552,94.608,51.696,94.752,51.696,94.752,51.984,94.896,51.984,94.896,52.128,95.04,52.128,95.04,52.416,95.184,52.416,95.184,52.848,95.328,52.848,95.328,53.28,95.472,53.28,95.472,55.872,95.328,55.872,95.328,56.304,95.184,56.304,95.184,56.592,95.04,56.592,95.04,56.88,94.896,56.88,94.896,57.168,94.752,57.168,94.752,57.456,94.608,57.456,94.608,57.6,94.464,57.6,94.464,57.744,94.32,57.744,94.32,57.888,94.176,57.888,94.176,58.176,94.032,58.176,94.032,58.32,93.744,58.32,93.744,58.464,93.6,58.464,93.6,58.608,93.456,58.608,93.456,58.752,93.312,58.752,93.312,58.896,93.024,58.896,93.024,59.04,92.88,59.04,92.88,59.184,92.592,59.184,92.592,59.328,92.304,59.328,92.304,59.472,91.872,59.472,91.872,59.616,91.296,59.616,91.296,59.76,108.144,59.76,108.144,48.096"  stroke="none" stroke-width="0"/>
     <polygon fill="black" points="0.144,48.24,0.144,50.256,1.584,50.256,1.584,50.112,1.728,50.112,1.728,49.968,2.016,49.968,2.016,49.824,2.16,49.824,2.16,49.68,2.304,49.68,2.304,49.536,2.448,49.536,2.448,49.392,2.736,49.392,2.736,49.248,2.88,49.248,2.88,49.104,3.168,49.104,3.168,48.96,3.456,48.96,3.456,48.816,3.744,48.816,3.744,48.672,4.176,48.672,4.176,48.528,4.608,48.528,4.608,48.384,5.328,48.384,5.328,48.24"  stroke="none" stroke-width="0"/>
     <polygon fill="black" points="10.224,49.392,10.224,49.536,10.512,49.536,10.512,49.68,10.656,49.68,10.656,49.824,10.8,49.824,10.8,49.968,10.944,49.968,10.944,50.112,11.232,50.112,11.232,50.256,11.376,50.256,11.376,50.4,11.52,50.4,11.52,50.688,11.664,50.688,11.664,50.832,11.808,50.832,11.808,50.976,11.952,50.976,11.952,51.12,26.064,51.12,26.064,50.976,43.056,50.976,43.056,50.832,60.048,50.832,60.048,50.688,77.04,50.688,77.04,50.544,87.12,50.544,87.12,50.4,87.264,50.4,87.264,50.256,87.408,50.256,87.408,50.112,87.696,50.112,87.696,49.968,87.84,49.968,87.84,49.824,88.128,49.824,88.128,49.68,88.56,49.68,88.56,49.536,88.992,49.536,88.992,49.392"  stroke="none" stroke-width="0"/>
     <polygon fill="black" points="78.192,58.608,78.192,58.752,61.2,58.752,61.2,58.896,44.208,58.896,44.208,59.04,27.072,59.04,27.072,59.184,12.096,59.184,12.096,59.328,11.952,59.328,11.952,59.472,11.808,59.472,11.808,59.76,89.28,59.76,89.28,59.616,88.704,59.616,88.704,59.472,88.272,59.472,88.272,59.328,87.984,59.328,87.984,59.184,87.696,59.184,87.696,59.04,87.552,59.04,87.552,58.896,87.264,58.896,87.264,58.752,87.12,58.752,87.12,58.608"  stroke="none" stroke-width="0"/>
     <polygon fill="black" points="11.664,59.76,11.664,59.904,108.144,59.904,108.144,59.76"  stroke="none" stroke-width="0"/>
     <polygon fill="black" points="11.664,59.76,11.664,59.904,108.144,59.904,108.144,59.76"  stroke="none" stroke-width="0"/>
     <polygon fill="black" points="11.52,59.904,11.52,60.048,11.376,60.048,11.376,60.192,11.232,60.192,11.232,60.336,11.088,60.336,11.088,60.48,10.944,60.48,10.944,60.624,10.8,60.624,10.8,60.768,10.512,60.768,10.512,60.912,10.368,60.912,10.368,61.056,10.224,61.056,10.224,61.2,9.936,61.2,9.936,61.344,9.648,61.344,9.648,61.488,67.68,61.488,67.68,61.632,68.256,61.632,68.256,61.776,68.688,61.776,68.688,61.92,68.976,61.92,68.976,62.064,69.264,62.064,69.264,62.208,69.552,62.208,69.552,62.352,69.696,62.352,69.696,62.496,69.984,62.496,69.984,62.64,70.128,62.64,70.128,62.784,70.416,62.784,70.416,62.928,70.56,62.928,70.56,63.072,70.704,63.072,70.704,63.216,70.848,63.216,70.848,63.36,70.992,63.36,70.992,63.504,91.296,63.504,91.296,63.648,91.872,63.648,91.872,63.792,92.304,63.792,92.304,63.936,92.592,63.936,92.592,64.08,92.88,64.08,92.88,64.224,93.024,64.224,93.024,64.368,93.312,64.368,93.312,64.512,93.456,64.512,93.456,64.656,93.6,64.656,93.6,64.8,93.888,64.8,93.888,64.944,94.032,64.944,94.032,65.088,94.176,65.088,94.176,65.376,94.32,65.376,94.32,65.52,94.464,65.52,94.464,65.664,94.608,65.664,94.608,65.808,94.752,65.808,94.752,66.096,94.896,66.096,94.896,66.384,95.04,66.384,95.04,66.672,95.184,66.672,95.184,66.96,95.328,66.96,95.328,67.392,95.472,67.392,95.472,69.984,95.328,69.984,95.328,70.416,95.184,70.416,95.184,70.848,95.04,70.848,95.04,71.136,94.896,71.136,94.896,71.28,94.752,71.28,94.752,71.568,94.608,71.568,94.608,71.712,94.464,71.712,94.464,72,94.32,72,94.32,72.144,94.176,72.144,94.176,72.288,94.032,72.288,94.032,72.432,93.888,72.432,93.888,72.576,93.744,72.576,93.744,72.72,93.6,72.72,93.6,72.864,93.312,72.864,93.312,73.008,93.168,73.008,93.168,73.152,92.88,73.152,92.88,73.296,92.736,73.296,92.736,73.44,92.448,73.44,92.448,75.024,92.592,75.024,92.592,75.168,92.736,75.168,92.736,75.312,92.88,75.312,92.88,75.456,93.024,75.456,93.024,75.744,93.168,75.744,93.168,76.032,93.312,76.032,93.312,76.32,93.456,76.32,93.456,76.752,93.6,76.752,93.6,77.76,93.744,77.76,93.744,78.624,93.888,78.624,93.888,79.2,94.032,79.2,94.032,79.344,94.176,79.344,94.176,79.488,94.32,79.488,94.32,79.632,94.464,79.632,94.464,79.776,94.608,79.776,94.608,80.064,94.752,80.064,94.752,80.208,94.896,80.208,94.896,80.496,95.04,80.496,95.04,80.784,95.184,80.784,95.184,81.072,95.328,81.072,95.328,81.648,95.472,81.648,95.472,84.096,95.328,84.096,95.328,84.672,95.184,84.672,95.184,84.96,95.04,84.96,95.04,85.248,94.896,85.248,94.896,85.536,94.752,85.536,94.752,85.68,94.608,85.68,94.608,85.968,94.464,85.968,94.464,86.112,94.32,86.112,94.32,86.256,94.176,86.256,94.176,86.4,94.032,86.4,94.032,86.544,93.888,86.544,93.888,86.688,93.744,86.688,93.744,86.832,93.6,86.832,93.6,86.976,93.456,86.976,93.456,87.12,93.312,87.12,93.312,87.264,93.024,87.264,93.024,87.408,92.88,87.408,92.88,87.552,92.592,87.552,92.592,87.696,92.16,87.696,92.16,87.84,91.872,87.84,91.872,87.984,91.152,87.984,91.152,88.128,108.144,88.128,108.144,59.904"  stroke="none" stroke-width="0"/>
     <polygon fill="black" points="0.144,60.192,0.144,62.208,5.04,62.208,5.04,62.064,4.464,62.064,4.464,61.92,4.032,61.92,4.032,61.776,3.6,61.776,3.6,61.632,3.312,61.632,3.312,61.488,3.168,61.488,3.168,61.344,2.88,61.344,2.88,61.2,2.592,61.2,2.592,61.056,2.448,61.056,2.448,60.912,2.304,60.912,2.304,60.768,2.016,60.768,2.016,60.624,1.872,60.624,1.872,60.48,1.728,60.48,1.728,60.336,1.584,60.336,1.584,60.192"  stroke="none" stroke-width="0"/>
     <polygon fill="black" points="9.36,61.488,9.36,61.632,9.072,61.632,9.072,61.776,8.784,61.776,8.784,61.92,8.352,61.92,8.352,62.064,7.776,62.064,7.776,62.208,29.088,62.208,29.088,62.064,29.376,62.064,29.376,61.92,29.808,61.92,29.808,61.776,30.096,61.776,30.096,61.632,30.672,61.632,30.672,61.488"  stroke="none" stroke-width="0"/>
     <polygon fill="black" points="33.696,61.488,33.696,61.632,34.272,61.632,34.272,61.776,34.704,61.776,34.704,61.92,34.992,61.92,34.992,62.064,35.28,62.064,35.28,62.208,35.568,62.208,35.568,62.352,35.712,62.352,35.712,62.496,36,62.496,36,62.64,36.144,62.64,36.144,62.784,36.432,62.784,36.432,62.928,36.576,62.928,36.576,63.072,36.72,63.072,36.72,63.216,36.864,63.216,36.864,63.36,37.008,63.36,37.008,63.504,37.152,63.504,37.152,63.648,37.296,63.648,37.296,63.792,37.44,63.792,37.44,63.936,37.584,63.936,37.584,64.08,37.728,64.08,37.728,64.224,37.872,64.224,37.872,64.512,38.016,64.512,38.016,64.656,38.16,64.656,38.16,64.944,38.304,64.944,38.304,65.232,38.448,65.232,38.448,65.376,38.592,65.376,38.592,65.664,38.736,65.664,38.736,66.096,38.88,66.096,38.88,66.528,39.024,66.528,39.024,67.104,39.168,67.104,39.168,69.84,39.024,69.84,39.024,70.416,38.88,70.416,38.88,70.848,38.736,70.848,38.736,71.136,38.592,71.136,38.592,71.424,38.448,71.424,38.448,71.712,38.304,71.712,38.304,72,38.16,72,38.16,72.144,38.016,72.144,38.016,72.432,37.872,72.432,37.872,72.576,37.728,72.576,37.728,74.016,60.624,74.016,60.624,72.432,60.48,72.432,60.48,72.288,60.336,72.288,60.336,72.144,60.192,72.144,60.192,71.856,60.048,71.856,60.048,71.568,59.904,71.568,59.904,71.28,59.76,71.28,59.76,70.992,59.616,70.992,59.616,70.704,59.472,70.704,59.472,70.128,59.328,70.128,59.328,69.408,59.184,69.408,59.184,67.392,59.328,67.392,59.328,66.672,59.472,66.672,59.472,66.24,59.616,66.24,59.616,65.808,59.76,65.808,59.76,65.52,59.904,65.52,59.904,65.232,60.048,65.232,60.048,64.944,60.192,64.944,60.192,64.8,60.336,64.8,60.336,64.512,60.48,64.512,60.48,64.368,60.624,64.368,60.624,64.224,60.768,64.224,60.768,63.936,60.912,63.936,60.912,63.792,61.056,63.792,61.056,63.648,61.2,63.648,61.2,63.504,61.344,63.504,61.344,63.36,61.488,63.36,61.488,63.216,61.632,63.216,61.632,63.072,61.92,63.072,61.92,62.928,62.064,62.928,62.064,62.784,62.208,62.784,62.208,62.64,62.496,62.64,62.496,62.496,62.64,62.496,62.64,62.352,62.928,62.352,62.928,62.208,63.216,62.208,63.216,62.064,63.504,62.064,63.504,61.92,63.792,61.92,63.792,61.776,64.224,61.776,64.224,61.632,64.656,61.632,64.656,61.488"  stroke="none" stroke-width="0"/>
     <polygon fill="black" points="0.144,62.208,0.144,62.352,28.944,62.352,28.944,62.208"  stroke="none" stroke-width="0"/>
     <polygon fill="black" points="0.144,62.208,0.144,62.352,28.944,62.352,28.944,62.208"  stroke="none" stroke-width="0"/>
     <polygon fill="black" points="0.144,62.352,0.144,67.248,0,67.248,0,74.016,26.64,74.016,26.64,72.576,26.496,72.576,26.496,72.288,26.352,72.288,26.352,72.144,26.208,72.144,26.208,71.856,26.064,71.856,26.064,71.712,25.92,71.712,25.92,71.424,25.776,71.424,25.776,71.136,25.632,71.136,25.632,70.704,25.488,70.704,25.488,70.272,25.344,70.272,25.344,69.696,25.2,69.696,25.2,67.248,25.344,67.248,25.344,66.528,25.488,66.528,25.488,66.096,25.632,66.096,25.632,65.808,25.776,65.808,25.776,65.52,25.92,65.52,25.92,65.232,26.064,65.232,26.064,64.944,26.208,64.944,26.208,64.8,26.352,64.8,26.352,64.512,26.496,64.512,26.496,64.368,26.64,64.368,26.64,64.08,26.784,64.08,26.784,63.936,26.928,63.936,26.928,63.792,27.072,63.792,27.072,63.648,27.216,63.648,27.216,63.504,27.36,63.504,27.36,63.36,27.504,63.36,27.504,63.216,27.648,63.216,27.648,63.072,27.792,63.072,27.792,62.928,28.08,62.928,28.08,62.784,28.224,62.784,28.224,62.64,28.368,62.64,28.368,62.496,28.656,62.496,28.656,62.352"  stroke="none" stroke-width="0"/>
     <polygon fill="black" points="71.136,63.504,71.136,63.648,71.28,63.648,71.28,63.792,71.424,63.792,71.424,63.936,71.568,63.936,71.568,64.08,71.712,64.08,71.712,64.224,71.856,64.224,71.856,64.512,82.512,64.512,82.512,64.656,87.12,64.656,87.12,64.512,87.264,64.512,87.264,64.368,87.552,64.368,87.552,64.224,87.696,64.224,87.696,64.08,87.984,64.08,87.984,63.936,88.272,63.936,88.272,63.792,88.704,63.792,88.704,63.648,89.28,63.648,89.28,63.504"  stroke="none" stroke-width="0"/>
     <polygon fill="black" points="10.224,82.08,10.224,83.52,10.512,83.52,10.512,83.664,10.656,83.664,10.656,83.808,10.8,83.808,10.8,83.952,10.944,83.952,10.944,84.096,11.088,84.096,11.088,84.24,11.232,84.24,11.232,84.384,11.376,84.384,11.376,84.528,11.52,84.528,11.52,84.672,11.664,84.672,11.664,84.816,11.808,84.816,11.808,84.96,11.952,84.96,11.952,85.104,12.096,85.104,12.096,85.392,12.24,85.392,12.24,85.536,12.384,85.536,12.384,85.824,12.528,85.824,12.528,85.968,12.672,85.968,12.672,86.256,12.816,86.256,12.816,86.544,12.96,86.544,12.96,86.976,13.104,86.976,13.104,87.408,13.248,87.408,13.248,87.984,13.392,87.984,13.392,88.128,89.568,88.128,89.568,87.984,88.848,87.984,88.848,87.84,88.416,87.84,88.416,87.696,88.128,87.696,88.128,87.552,87.84,87.552,87.84,87.408,87.552,87.408,87.552,87.264,87.408,87.264,87.408,87.12,87.12,87.12,87.12,86.976,86.976,86.976,86.976,86.832,86.832,86.832,86.832,86.688,86.688,86.688,86.688,86.544,86.544,86.544,86.544,86.4,86.4,86.4,86.4,86.256,86.256,86.256,86.256,86.112,86.112,86.112,86.112,85.824,85.968,85.824,85.968,85.68,85.824,85.68,85.824,85.392,85.68,85.392,85.68,85.248,85.536,85.248,85.536,84.96,85.392,84.96,85.392,84.528,85.248,84.528,85.248,83.952,85.104,83.952,85.104,82.08"  stroke="none" stroke-width="0"/>
     <polygon fill="black" points="13.392,88.128,13.392,88.272,108.144,88.272,108.144,88.128"  stroke="none" stroke-width="0"/>
     <polygon fill="black" points="13.392,88.128,13.392,88.272,108.144,88.272,108.144,88.128"  stroke="none" stroke-width="0"/>
     <polygon fill="black" points="13.392,88.272,13.392,90.432,13.248,90.432,13.248,91.152,13.104,91.152,13.104,91.584,12.96,91.584,12.96,91.872,12.816,91.872,12.816,92.16,12.672,92.16,12.672,92.448,12.528,92.448,12.528,92.736,12.384,92.736,12.384,94.176,108.144,94.176,108.144,88.272"  stroke="none" stroke-width="0"/>
     <g  id="connector0pad">
      <circle fill="black" cx="99.8683"  cy="5.118" stroke="none" r="2.7" stroke-width="0"/>
     </g>
    </g>
   </g>
  </g>
  <g partID="129390">
   <g transform="translate(6.912,79.2)">
    <g  id="groundplane">
     <g  id="connector0pad">
      <polygon fill="black" points="28.512,0,28.512,0.144,17.856,0.144,17.856,0.288,9.792,0.288,9.792,0.432,9.648,0.432,9.648,0.576,9.504,0.576,9.504,0.72,9.36,0.72,9.36,0.864,9.216,0.864,9.216,1.008,9.072,1.008,9.072,1.152,8.928,1.152,8.928,1.296,8.784,1.296,8.784,1.44,8.64,1.44,8.64,1.584,8.496,1.584,8.496,1.728,8.352,1.728,8.352,1.872,8.208,1.872,8.208,2.016,7.92,2.016,7.92,2.16,7.776,2.16,7.776,2.304,7.488,2.304,7.488,2.448,7.2,2.448,7.2,2.592,6.912,2.592,6.912,2.736,6.624,2.736,6.624,2.88,6.192,2.88,6.192,3.024,5.616,3.024,5.616,3.168,29.952,3.168,29.952,0"  stroke="none" stroke-width="0"/>
      <polygon fill="black" points="0.144,2.736,0.144,3.168,2.736,3.168,2.736,3.024,2.16,3.024,2.16,2.88,1.728,2.88,1.728,2.736"  stroke="none" stroke-width="0"/>
      <polygon fill="black" points="0.144,3.168,0.144,3.312,29.952,3.312,29.952,3.168"  stroke="none" stroke-width="0"/>
      <polygon fill="black" points="0.144,3.168,0.144,3.312,29.952,3.312,29.952,3.168"  stroke="none" stroke-width="0"/>
      <polygon fill="black" points="0.144,3.312,0.144,5.04,0,5.04,0,6.192,10.8,6.192,10.8,6.336,11.664,6.336,11.664,6.48,12.096,6.48,12.096,6.624,12.528,6.624,12.528,6.768,12.816,6.768,12.816,6.912,13.104,6.912,13.104,7.056,13.392,7.056,13.392,7.2,13.68,7.2,13.68,7.344,13.824,7.344,13.824,7.488,13.968,7.488,13.968,7.632,14.256,7.632,14.256,7.776,14.4,7.776,14.4,7.92,14.544,7.92,14.544,8.064,14.688,8.064,14.688,8.208,14.832,8.208,14.832,8.352,14.976,8.352,14.976,8.496,15.12,8.496,15.12,8.64,15.264,8.64,15.264,8.784,15.408,8.784,15.408,8.928,15.552,8.928,15.552,9.216,29.952,9.216,29.952,3.312"  stroke="none" stroke-width="0"/>
      <polygon fill="black" points="0,6.192,0,9.216,4.32,9.216,4.32,9.072,4.464,9.072,4.464,8.928,4.608,8.928,4.608,8.784,4.752,8.784,4.752,8.496,4.896,8.496,4.896,8.352,5.04,8.352,5.04,8.208,5.184,8.208,5.184,8.064,5.472,8.064,5.472,7.92,5.616,7.92,5.616,7.776,5.76,7.776,5.76,7.632,5.904,7.632,5.904,7.488,6.192,7.488,6.192,7.344,6.336,7.344,6.336,7.2,6.624,7.2,6.624,7.056,6.768,7.056,6.768,6.912,7.056,6.912,7.056,6.768,7.488,6.768,7.488,6.624,7.776,6.624,7.776,6.48,8.208,6.48,8.208,6.336,9.216,6.336,9.216,6.192"  stroke="none" stroke-width="0"/>
     </g>
    </g>
   </g>
  </g>
  <g partID="129420">
   <g transform="translate(7.344,29.808)">
    <g  id="groundplane">
     <g  id="connector0pad">
      <polygon fill="black" points="9.36,0,9.36,0.144,9.216,0.144,9.216,0.432,9.072,0.432,9.072,0.576,8.928,0.576,8.928,0.72,8.784,0.72,8.784,0.864,8.64,0.864,8.64,1.008,8.496,1.008,8.496,1.152,8.352,1.152,8.352,1.296,8.208,1.296,8.208,1.44,8.064,1.44,8.064,1.584,7.776,1.584,7.776,1.728,7.632,1.728,7.632,1.872,7.344,1.872,7.344,2.016,7.2,2.016,7.2,2.16,6.912,2.16,6.912,2.304,6.624,2.304,6.624,2.448,6.336,2.448,6.336,2.592,6.048,2.592,6.048,2.736,5.472,2.736,5.472,2.88,4.752,2.88,4.752,3.024,23.04,3.024,23.04,0"  stroke="none" stroke-width="0"/>
      <polygon fill="black" points="0,2.592,0,3.024,2.592,3.024,2.592,2.88,1.872,2.88,1.872,2.736,1.44,2.736,1.44,2.592"  stroke="none" stroke-width="0"/>
      <polygon fill="black" points="0,3.024,0,3.168,23.04,3.168,23.04,3.024"  stroke="none" stroke-width="0"/>
      <polygon fill="black" points="0,3.024,0,3.168,23.04,3.168,23.04,3.024"  stroke="none" stroke-width="0"/>
      <polygon fill="black" points="0,3.168,0,6.048,10.944,6.048,10.944,6.192,11.52,6.192,11.52,6.336,11.952,6.336,11.952,6.48,12.24,6.48,12.24,6.624,12.528,6.624,12.528,6.768,12.816,6.768,12.816,6.912,13.104,6.912,13.104,7.056,13.248,7.056,13.248,7.2,13.536,7.2,13.536,7.344,13.68,7.344,13.68,7.488,13.824,7.488,13.824,7.632,13.968,7.632,13.968,7.776,14.256,7.776,14.256,7.92,14.4,7.92,14.4,8.064,14.544,8.064,14.544,8.208,14.688,8.208,14.688,8.352,14.832,8.352,14.832,8.64,14.976,8.64,14.976,8.784,15.12,8.784,15.12,8.928,21.168,8.928,21.168,9.072,23.04,9.072,23.04,3.168"  stroke="none" stroke-width="0"/>
      <polygon fill="black" points="0,6.048,0,20.016,8.352,20.016,8.352,19.872,7.632,19.872,7.632,19.728,7.2,19.728,7.2,19.584,6.912,19.584,6.912,19.44,6.624,19.44,6.624,19.296,6.336,19.296,6.336,19.152,6.048,19.152,6.048,19.008,5.904,19.008,5.904,18.864,5.616,18.864,5.616,18.72,5.472,18.72,5.472,18.576,5.328,18.576,5.328,18.432,5.04,18.432,5.04,18.288,4.896,18.288,4.896,18.144,4.752,18.144,4.752,18,4.608,18,4.608,17.856,4.464,17.856,4.464,17.712,4.32,17.712,4.32,17.568,4.176,17.568,4.176,17.424,4.032,17.424,4.032,17.136,3.888,17.136,3.888,16.992,3.744,16.992,3.744,16.848,3.6,16.848,3.6,16.56,3.456,16.56,3.456,16.272,3.312,16.272,3.312,16.128,3.168,16.128,3.168,15.84,3.024,15.84,3.024,15.408,2.88,15.408,2.88,14.976,2.736,14.976,2.736,14.544,2.592,14.544,2.592,11.52,2.736,11.52,2.736,10.944,2.88,10.944,2.88,10.656,3.024,10.656,3.024,10.224,3.168,10.224,3.168,9.936,3.312,9.936,3.312,9.648,3.456,9.648,3.456,9.504,3.6,9.504,3.6,9.216,3.744,9.216,3.744,9.072,3.888,9.072,3.888,8.784,4.032,8.784,4.032,8.64,4.176,8.64,4.176,8.496,4.32,8.496,4.32,8.352,4.464,8.352,4.464,8.208,4.608,8.208,4.608,8.064,4.752,8.064,4.752,7.92,4.896,7.92,4.896,7.776,5.04,7.776,5.04,7.632,5.184,7.632,5.184,7.488,5.472,7.488,5.472,7.344,5.616,7.344,5.616,7.2,5.76,7.2,5.76,7.056,6.048,7.056,6.048,6.912,6.336,6.912,6.336,6.768,6.48,6.768,6.48,6.624,6.768,6.624,6.768,6.48,7.2,6.48,7.2,6.336,7.632,6.336,7.632,6.192,8.208,6.192,8.208,6.048"  stroke="none" stroke-width="0"/>
      <polygon fill="black" points="14.688,17.568,14.688,17.712,14.544,17.712,14.544,17.856,14.4,17.856,14.4,18,14.256,18,14.256,18.144,14.112,18.144,14.112,18.288,13.968,18.288,13.968,18.432,13.824,18.432,13.824,18.576,13.68,18.576,13.68,18.72,13.392,18.72,13.392,18.864,13.248,18.864,13.248,19.008,12.96,19.008,12.96,19.152,12.816,19.152,12.816,19.296,12.528,19.296,12.528,19.44,12.24,19.44,12.24,19.584,11.808,19.584,11.808,19.728,11.376,19.728,11.376,19.872,10.8,19.872,10.8,20.016,16.128,20.016,16.128,17.568"  stroke="none" stroke-width="0"/>
      <polygon fill="black" points="0,20.016,0,20.16,16.128,20.16,16.128,20.016"  stroke="none" stroke-width="0"/>
      <polygon fill="black" points="0,20.016,0,20.16,16.128,20.16,16.128,20.016"  stroke="none" stroke-width="0"/>
      <polygon fill="black" points="0,20.16,0,21.6,10.656,21.6,10.656,21.744,11.376,21.744,11.376,21.888,11.808,21.888,11.808,22.032,12.096,22.032,12.096,22.176,12.528,22.176,12.528,22.32,12.816,22.32,12.816,22.464,12.96,22.464,12.96,22.608,13.248,22.608,13.248,22.752,13.392,22.752,13.392,22.896,13.68,22.896,13.68,23.04,13.824,23.04,13.824,23.184,13.968,23.184,13.968,23.328,14.112,23.328,14.112,23.472,14.256,23.472,14.256,23.616,14.4,23.616,14.4,23.76,14.544,23.76,14.544,23.904,14.688,23.904,14.688,24.048,16.128,24.048,16.128,20.16"  stroke="none" stroke-width="0"/>
      <polygon fill="black" points="0,21.6,0,24.912,3.6,24.912,3.6,24.768,3.744,24.768,3.744,24.624,3.888,24.624,3.888,24.48,4.032,24.48,4.032,24.336,4.176,24.336,4.176,24.048,4.32,24.048,4.32,23.904,4.464,23.904,4.464,23.76,4.608,23.76,4.608,23.616,4.752,23.616,4.752,23.472,4.896,23.472,4.896,23.328,5.04,23.328,5.04,23.184,5.328,23.184,5.328,23.04,5.472,23.04,5.472,22.896,5.616,22.896,5.616,22.752,5.904,22.752,5.904,22.608,6.048,22.608,6.048,22.464,6.336,22.464,6.336,22.32,6.624,22.32,6.624,22.176,6.912,22.176,6.912,22.032,7.344,22.032,7.344,21.888,7.776,21.888,7.776,21.744,8.496,21.744,8.496,21.6"  stroke="none" stroke-width="0"/>
     </g>
    </g>
   </g>
  </g>
  <g partID="129450">
   <g transform="translate(7.344,12.384)">
    <g  id="groundplane">
     <g  id="connector0pad">
      <polygon fill="black" points="23.04,0,23.04,0.144,18.288,0.144,18.288,0.288,15.264,0.288,15.264,0.432,15.12,0.432,15.12,0.72,14.976,0.72,14.976,0.864,14.832,0.864,14.832,1.008,14.688,1.008,14.688,1.152,14.544,1.152,14.544,1.296,14.4,1.296,14.4,1.44,14.256,1.44,14.256,1.584,14.112,1.584,14.112,1.728,13.968,1.728,13.968,1.872,13.824,1.872,13.824,2.016,13.536,2.016,13.536,2.16,13.392,2.16,13.392,2.304,13.248,2.304,13.248,2.448,12.96,2.448,12.96,2.592,12.672,2.592,12.672,2.736,12.384,2.736,12.384,2.88,12.096,2.88,12.096,3.024,11.808,3.024,11.808,3.168,11.232,3.168,11.232,3.312,10.512,3.312,10.512,3.456,27.36,3.456,27.36,0"  stroke="none" stroke-width="0"/>
      <polygon fill="black" points="0,0.432,0,3.456,8.64,3.456,8.64,3.312,7.776,3.312,7.776,3.168,7.344,3.168,7.344,3.024,6.912,3.024,6.912,2.88,6.624,2.88,6.624,2.736,6.336,2.736,6.336,2.592,6.192,2.592,6.192,2.448,5.904,2.448,5.904,2.304,5.616,2.304,5.616,2.16,5.472,2.16,5.472,2.016,5.328,2.016,5.328,1.872,5.184,1.872,5.184,1.728,4.896,1.728,4.896,1.584,4.752,1.584,4.752,1.44,4.608,1.44,4.608,1.296,4.464,1.296,4.464,1.152,4.32,1.152,4.32,1.008,4.176,1.008,4.176,0.72,4.032,0.72,4.032,0.576,3.888,0.576,3.888,0.432"  stroke="none" stroke-width="0"/>
      <polygon fill="black" points="0,3.456,0,3.6,27.36,3.6,27.36,3.456"  stroke="none" stroke-width="0"/>
      <polygon fill="black" points="0,3.456,0,3.6,27.36,3.6,27.36,3.456"  stroke="none" stroke-width="0"/>
      <polygon fill="black" points="0,3.6,0,6.48,5.184,6.48,5.184,6.624,5.76,6.624,5.76,6.768,6.192,6.768,6.192,6.912,6.48,6.912,6.48,7.056,6.768,7.056,6.768,7.2,7.056,7.2,7.056,7.344,7.2,7.344,7.2,7.488,7.488,7.488,7.488,7.632,7.632,7.632,7.632,7.776,7.92,7.776,7.92,7.92,8.064,7.92,8.064,8.064,8.208,8.064,8.208,8.208,8.352,8.208,8.352,8.352,8.496,8.352,8.496,8.496,8.64,8.496,8.64,8.64,8.784,8.64,8.784,8.784,8.928,8.784,8.928,8.928,9.072,8.928,9.072,9.072,9.216,9.072,9.216,9.216,9.36,9.216,9.36,9.36,27.504,9.36,27.504,7.92,27.36,7.92,27.36,3.6"  stroke="none" stroke-width="0"/>
      <polygon fill="black" points="0,6.48,0,6.768,1.728,6.768,1.728,6.624,2.304,6.624,2.304,6.48"  stroke="none" stroke-width="0"/>
     </g>
    </g>
   </g>
  </g>
  <g partID="129480">
   <g transform="translate(40.896,3.168)">
    <g  id="groundplane">
     <g  id="connector0pad">
      <polygon fill="black" points="0,0,0,1.44,0.288,1.44,0.288,1.584,0.432,1.584,0.432,1.728,0.72,1.728,0.72,1.872,0.864,1.872,0.864,2.016,1.008,2.016,1.008,2.16,1.152,2.16,1.152,2.448,1.296,2.448,1.296,2.592,1.44,2.592,1.44,2.88,1.584,2.88,1.584,3.168,1.728,3.168,1.728,3.6,1.872,3.6,1.872,12.096,5.76,12.096,5.76,10.656,5.472,10.656,5.472,10.512,5.328,10.512,5.328,10.224,5.184,10.224,5.184,10.08,5.04,10.08,5.04,9.936,4.896,9.936,4.896,9.792,4.752,9.792,4.752,9.648,4.608,9.648,4.608,9.36,4.464,9.36,4.464,9.216,4.32,9.216,4.32,8.928,4.176,8.928,4.176,8.64,4.032,8.64,4.032,8.352,3.888,8.352,3.888,8.064,3.744,8.064,3.744,7.632,3.6,7.632,3.6,6.912,3.456,6.912,3.456,4.32,3.6,4.32,3.6,3.744,3.744,3.744,3.744,3.312,3.888,3.312,3.888,2.88,4.032,2.88,4.032,2.592,4.176,2.592,4.176,2.448,4.32,2.448,4.32,2.16,4.464,2.16,4.464,1.872,4.608,1.872,4.608,1.728,4.752,1.728,4.752,1.584,4.896,1.584,4.896,0"  stroke="none" stroke-width="0"/>
     </g>
    </g>
   </g>
  </g>
  <g partID="60240">
   <g transform="translate(120.835,6.30441)">
    <g id="copper0">
     <rect width="4.32" x="12.24" y="6.72661" fill="none" height="4.32" stroke="black" id="square" stroke-width="1.44"/>
     <circle fill="none" cx="14.4" cy="8.8866" stroke="black" id="connector0pin" r="2.16" stroke-width="1.44"/>
     <circle fill="none" cx="14.4" cy="23.0599" stroke="black" id="connector1pin" r="2.16" stroke-width="1.44"/>
     <circle fill="none" cx="14.4" cy="37.2331" stroke="black" id="connector2pin" r="2.16" stroke-width="1.44"/>
     <circle fill="none" cx="14.4" cy="51.4063" stroke="black" id="connector3pin" r="2.16" stroke-width="1.44"/>
     <circle fill="none" cx="14.4" cy="65.5795" stroke="black" id="connector4pin" r="2.16" stroke-width="1.44"/>
     <circle fill="none" cx="14.4" cy="79.753" stroke="black" id="connector5pin" r="2.16" stroke-width="1.44"/>
    </g>
   </g>
  </g>
  <g partID="60530">
   <g transform="translate(3.84945,2.43513)">
    <g  id="copper0" transform="matrix(1, 0, 0, 1, 0, -795.118)">
     <g >
      <g  id="0.3.1.0" transform="matrix(1, 0, 0, 1, 0, 795.118)">
       <path stroke-opacity="1" fill="none"  stroke="black" style="opacity:0.98000004;stroke-miterlimit:4;stroke-dasharray:none" id="connector2pin" stroke-width="2.83465" d="m10.4882,23.3858a3.25984,3.25984,0,1,1,-6.51969,0,3.25984,3.25984,0,1,1,6.51969,0z"/>
      </g>
      <g  id="0.3.1.1" transform="matrix(1, 0, 0, 1, 5.81102, 812.126)">
       <path stroke-opacity="1" fill="none"  stroke="black" style="opacity:0.98000004;stroke-miterlimit:4;stroke-dasharray:none" id="path3782-7" stroke-width="2.83465" d="m10.4882,23.3858a3.25984,3.25984,0,1,1,-6.51969,0,3.25984,3.25984,0,1,1,6.51969,0z"/>
      </g>
      <g  id="0.3.1.2" transform="matrix(1, 0, 0, 1, 40.252, 812.126)">
       <path stroke-opacity="1" fill="none"  stroke="black" style="opacity:0.98000004;stroke-miterlimit:4;stroke-dasharray:none" id="path3782-7-5" stroke-width="2.83465" d="m10.4882,23.3858a3.25984,3.25984,0,1,1,-6.51969,0,3.25984,3.25984,0,1,1,6.51969,0z"/>
      </g>
      <g  id="0.3.1.3" transform="matrix(1, 0, 0, 1, 5.81102, 812.126)">
       <path stroke-opacity="1" fill="none"  stroke="black" style="opacity:0.98000004;stroke-miterlimit:4;stroke-dasharray:none" id="connector1pin" stroke-width="2.83465" d="m10.4882,23.3858a3.25984,3.25984,0,1,1,-6.51969,0,3.25984,3.25984,0,1,1,6.51969,0z"/>
      </g>
      <g  id="0.3.1.4" transform="matrix(1, 0, 0, 1, 40.252, 812.126)">
       <path stroke-opacity="1" fill="none"  stroke="black" style="opacity:0.98000004;stroke-miterlimit:4;stroke-dasharray:none" id="connector0pin" stroke-width="2.83465" d="m10.4882,23.3858a3.25984,3.25984,0,1,1,-6.51969,0,3.25984,3.25984,0,1,1,6.51969,0z"/>
      </g>
      <g  id="0.3.1.5" transform="matrix(1, 0, 0, -1, 5.81102, 824.882)">
       <path stroke-opacity="1" fill="none"  stroke="black" style="opacity:0.98000004;stroke-miterlimit:4;stroke-dasharray:none" id="connector4pin" stroke-width="2.83465" d="m10.4882,23.3858a3.25984,3.25984,0,1,1,-6.51969,0,3.25984,3.25984,0,1,1,6.51969,0z"/>
      </g>
      <g  id="0.3.1.6" transform="matrix(1, 0, 0, -1, 40.252, 824.882)">
       <path stroke-opacity="1" fill="none"  stroke="black" style="opacity:0.98000004;stroke-miterlimit:4;stroke-dasharray:none" id="connector5pin" stroke-width="2.83465" d="m10.4882,23.3858a3.25984,3.25984,0,1,1,-6.51969,0,3.25984,3.25984,0,1,1,6.51969,0z"/>
      </g>
     </g>
    </g>
   </g>
  </g>
  <g partID="60560">
   <g transform="translate(117.519,24.1201)">
    <g transform="matrix(2.22045e-16,1,-1,2.22045e-16,0,0)">
     <g  id="copper0" transform="matrix(1, 0, 0, 1, 0, -795.118)">
      <g >
       <g  id="0.3.1.0" transform="matrix(1, 0, 0, 1, 0, 795.118)">
        <path stroke-opacity="1" fill="none"  stroke="black" style="opacity:0.98000004;stroke-miterlimit:4;stroke-dasharray:none" id="connector2pin" stroke-width="2.83465" d="m10.4882,23.3858a3.25984,3.25984,0,1,1,-6.51969,0,3.25984,3.25984,0,1,1,6.51969,0z"/>
       </g>
       <g  id="0.3.1.1" transform="matrix(1, 0, 0, 1, 5.81102, 812.126)">
        <path stroke-opacity="1" fill="none"  stroke="black" style="opacity:0.98000004;stroke-miterlimit:4;stroke-dasharray:none" id="path3782-7" stroke-width="2.83465" d="m10.4882,23.3858a3.25984,3.25984,0,1,1,-6.51969,0,3.25984,3.25984,0,1,1,6.51969,0z"/>
       </g>
       <g  id="0.3.1.2" transform="matrix(1, 0, 0, 1, 40.252, 812.126)">
        <path stroke-opacity="1" fill="none"  stroke="black" style="opacity:0.98000004;stroke-miterlimit:4;stroke-dasharray:none" id="path3782-7-5" stroke-width="2.83465" d="m10.4882,23.3858a3.25984,3.25984,0,1,1,-6.51969,0,3.25984,3.25984,0,1,1,6.51969,0z"/>
       </g>
       <g  id="0.3.1.3" transform="matrix(1, 0, 0, 1, 5.81102, 812.126)">
        <path stroke-opacity="1" fill="none"  stroke="black" style="opacity:0.98000004;stroke-miterlimit:4;stroke-dasharray:none" id="connector1pin" stroke-width="2.83465" d="m10.4882,23.3858a3.25984,3.25984,0,1,1,-6.51969,0,3.25984,3.25984,0,1,1,6.51969,0z"/>
       </g>
       <g  id="0.3.1.4" transform="matrix(1, 0, 0, 1, 40.252, 812.126)">
        <path stroke-opacity="1" fill="none"  stroke="black" style="opacity:0.98000004;stroke-miterlimit:4;stroke-dasharray:none" id="connector0pin" stroke-width="2.83465" d="m10.4882,23.3858a3.25984,3.25984,0,1,1,-6.51969,0,3.25984,3.25984,0,1,1,6.51969,0z"/>
       </g>
       <g  id="0.3.1.5" transform="matrix(1, 0, 0, -1, 5.81102, 824.882)">
        <path stroke-opacity="1" fill="none"  stroke="black" style="opacity:0.98000004;stroke-miterlimit:4;stroke-dasharray:none" id="connector4pin" stroke-width="2.83465" d="m10.4882,23.3858a3.25984,3.25984,0,1,1,-6.51969,0,3.25984,3.25984,0,1,1,6.51969,0z"/>
       </g>
       <g  id="0.3.1.6" transform="matrix(1, 0, 0, -1, 40.252, 824.882)">
        <path stroke-opacity="1" fill="none"  stroke="black" style="opacity:0.98000004;stroke-miterlimit:4;stroke-dasharray:none" id="connector5pin" stroke-width="2.83465" d="m10.4882,23.3858a3.25984,3.25984,0,1,1,-6.51969,0,3.25984,3.25984,0,1,1,6.51969,0z"/>
       </g>
      </g>
     </g>
    </g>
   </g>
  </g>
  <g partID="60590">
   <g transform="translate(3.84945,52.0414)">
    <g  id="copper0" transform="matrix(1, 0, 0, 1, 0, -795.118)">
     <g >
      <g  id="0.3.1.0" transform="matrix(1, 0, 0, 1, 0, 795.118)">
       <path stroke-opacity="1" fill="none"  stroke="black" style="opacity:0.98000004;stroke-miterlimit:4;stroke-dasharray:none" id="connector2pin" stroke-width="2.83465" d="m10.4882,23.3858a3.25984,3.25984,0,1,1,-6.51969,0,3.25984,3.25984,0,1,1,6.51969,0z"/>
      </g>
      <g  id="0.3.1.1" transform="matrix(1, 0, 0, 1, 5.81102, 812.126)">
       <path stroke-opacity="1" fill="none"  stroke="black" style="opacity:0.98000004;stroke-miterlimit:4;stroke-dasharray:none" id="path3782-7" stroke-width="2.83465" d="m10.4882,23.3858a3.25984,3.25984,0,1,1,-6.51969,0,3.25984,3.25984,0,1,1,6.51969,0z"/>
      </g>
      <g  id="0.3.1.2" transform="matrix(1, 0, 0, 1, 40.252, 812.126)">
       <path stroke-opacity="1" fill="none"  stroke="black" style="opacity:0.98000004;stroke-miterlimit:4;stroke-dasharray:none" id="path3782-7-5" stroke-width="2.83465" d="m10.4882,23.3858a3.25984,3.25984,0,1,1,-6.51969,0,3.25984,3.25984,0,1,1,6.51969,0z"/>
      </g>
      <g  id="0.3.1.3" transform="matrix(1, 0, 0, 1, 5.81102, 812.126)">
       <path stroke-opacity="1" fill="none"  stroke="black" style="opacity:0.98000004;stroke-miterlimit:4;stroke-dasharray:none" id="connector1pin" stroke-width="2.83465" d="m10.4882,23.3858a3.25984,3.25984,0,1,1,-6.51969,0,3.25984,3.25984,0,1,1,6.51969,0z"/>
      </g>
      <g  id="0.3.1.4" transform="matrix(1, 0, 0, 1, 40.252, 812.126)">
       <path stroke-opacity="1" fill="none"  stroke="black" style="opacity:0.98000004;stroke-miterlimit:4;stroke-dasharray:none" id="connector0pin" stroke-width="2.83465" d="m10.4882,23.3858a3.25984,3.25984,0,1,1,-6.51969,0,3.25984,3.25984,0,1,1,6.51969,0z"/>
      </g>
      <g  id="0.3.1.5" transform="matrix(1, 0, 0, -1, 5.81102, 824.882)">
       <path stroke-opacity="1" fill="none"  stroke="black" style="opacity:0.98000004;stroke-miterlimit:4;stroke-dasharray:none" id="connector4pin" stroke-width="2.83465" d="m10.4882,23.3858a3.25984,3.25984,0,1,1,-6.51969,0,3.25984,3.25984,0,1,1,6.51969,0z"/>
      </g>
      <g  id="0.3.1.6" transform="matrix(1, 0, 0, -1, 40.252, 824.882)">
       <path stroke-opacity="1" fill="none"  stroke="black" style="opacity:0.98000004;stroke-miterlimit:4;stroke-dasharray:none" id="connector5pin" stroke-width="2.83465" d="m10.4882,23.3858a3.25984,3.25984,0,1,1,-6.51969,0,3.25984,3.25984,0,1,1,6.51969,0z"/>
      </g>
     </g>
    </g>
   </g>
  </g>
  <g partID="128610">
   <line stroke="black" stroke-linecap="round" y1="81.2204" x1="134.507" y2="81.2204" stroke-width="3.456" x2="40.9067"/>
  </g>
  <g partID="128500">
   <line stroke="black" stroke-linecap="round" y1="92.4204" x1="40.9067" y2="92.433" stroke-width="3.456" x2="20.3313"/>
  </g>
  <g partID="116220">
   <line stroke="black" stroke-linecap="round" y1="83.0513" x1="134.782" y2="81.2204" stroke-width="3.456" x2="134.507"/>
  </g>
  <g partID="118630">
   <line stroke="black" stroke-linecap="round" y1="81.2204" x1="40.9067" y2="92.4204" stroke-width="3.456" x2="40.9067"/>
  </g>
  <g partID="116660">
   <line stroke="black" stroke-linecap="round" y1="34.5172" x1="111.106" y2="29.4871" stroke-width="3.456" x2="111.04"/>
  </g>
  <g partID="128210">
   <path fill="none" stroke="black" stroke-linecap="round" stroke-width="3.456" d="M111.04,29.4871C111.04,29.4871, 135.235,29.3643 135.235,29.3643"/>
  </g>
  <g partID="128320">
   <line stroke="black" stroke-linecap="round" y1="8.68706" x1="135.307" y2="8.80908" stroke-width="3.456" x2="53.9723"/>
  </g>
  <g partID="125730">
   <line stroke="black" stroke-linecap="round" y1="12.9511" x1="135.26" y2="8.68706" stroke-width="3.456" x2="135.307"/>
  </g>
  <g partID="125890">
   <line stroke="black" stroke-linecap="round" y1="75.3537" x1="33.9733" y2="75.4162" stroke-width="3.456" x2="14.5203"/>
  </g>
  <g partID="125990">
   <line stroke="black" stroke-linecap="round" y1="25.7537" x1="34.5067" y2="75.3537" stroke-width="3.456" x2="33.9733"/>
  </g>
  <g partID="125900">
   <line stroke="black" stroke-linecap="round" y1="25.8111" x1="14.5203" y2="25.7537" stroke-width="3.456" x2="34.5067"/>
  </g>
  <g partID="126100">
   <line stroke="black" stroke-linecap="round" y1="25.7537" x1="34.5067" y2="25.7537" stroke-width="3.456" x2="93.44"/>
  </g>
  <g partID="128720">
   <line stroke="black" stroke-linecap="round" y1="25.7537" x1="93.44" y2="27.9321" stroke-width="3.456" x2="93.7098"/>
  </g>
  <g partID="126510">
   <line stroke="black" stroke-linecap="round" y1="19.3537" x1="38.7733" y2="8.15373" stroke-width="3.456" x2="38.7733"/>
  </g>
  <g partID="128940">
   <line stroke="black" stroke-linecap="round" y1="8.15373" x1="38.7733" y2="8.70938" stroke-width="3.456" x2="20.3298"/>
  </g>
  <g partID="126380">
   <line stroke="black" stroke-linecap="round" y1="19.3537" x1="110.507" y2="19.3537" stroke-width="3.456" x2="38.7733"/>
  </g>
  <g partID="126250">
   <line stroke="black" stroke-linecap="round" y1="34.5187" x1="111.047" y2="19.3537" stroke-width="3.456" x2="110.507"/>
  </g>
  <g partID="126660">
   <line stroke="black" stroke-linecap="round" y1="8.68706" x1="3.30667" y2="8.78111" stroke-width="3.456" x2="13.4464"/>
  </g>
  <g partID="128390">
   <line stroke="black" stroke-linecap="round" y1="59.0871" x1="3.30667" y2="8.68706" stroke-width="3.456" x2="3.30667"/>
  </g>
  <g partID="126670">
   <line stroke="black" stroke-linecap="round" y1="58.5884" x1="13.4505" y2="59.0871" stroke-width="3.456" x2="3.30667"/>
  </g>
  <g partID="129160">
   <line stroke="black" stroke-linecap="round" y1="92.4204" x1="2.77333" y2="92.4316" stroke-width="3.456" x2="13.4463"/>
  </g>
  <g partID="129050">
   <line stroke="black" stroke-linecap="round" y1="66.2871" x1="3.30667" y2="92.4204" stroke-width="3.456" x2="2.77333"/>
  </g>
  <g partID="127020">
   <line stroke="black" stroke-linecap="round" y1="66.2871" x1="27.5733" y2="66.2871" stroke-width="3.456" x2="3.30667"/>
  </g>
  <g partID="126880">
   <line stroke="black" stroke-linecap="round" y1="42.8204" x1="27.5733" y2="66.2871" stroke-width="3.456" x2="27.5733"/>
  </g>
  <g partID="126890">
   <line stroke="black" stroke-linecap="round" y1="42.8261" x1="20.3313" y2="42.8204" stroke-width="3.456" x2="27.5733"/>
  </g>
  <g partID="127170">
   <line stroke="black" stroke-linecap="round" y1="81.2204" x1="40.9067" y2="33.2204" stroke-width="3.456" x2="41.1733"/>
  </g>
  <g partID="128830">
   <line stroke="black" stroke-linecap="round" y1="32.9537" x1="77.1733" y2="33.7172" stroke-width="3.456" x2="77.1646"/>
  </g>
  <g partID="127280">
   <line stroke="black" stroke-linecap="round" y1="33.2204" x1="41.1733" y2="32.9537" stroke-width="3.456" x2="77.1733"/>
  </g>
  <g partID="127390">
   <line stroke="black" stroke-linecap="round" y1="71.8576" x1="132.995" y2="71.6315" stroke-width="3.456" x2="113.783"/>
  </g>
  <g partID="127460">
   <line stroke="black" stroke-linecap="round" y1="57.7364" x1="132.195" y2="58.3903" stroke-width="3.456" x2="54.7722"/>
  </g>
  <g partID="127640">
   <line stroke="black" stroke-linecap="round" y1="47.0871" x1="94.24" y2="47.0871" stroke-width="3.456" x2="135.307"/>
  </g>
  <g partID="127530">
   <line stroke="black" stroke-linecap="round" y1="34.7909" x1="94.1563" y2="47.0871" stroke-width="3.456" x2="94.24"/>
  </g>
  <g partID="128100">
   <line stroke="black" stroke-linecap="round" y1="47.0871" x1="135.307" y2="46.5769" stroke-width="3.456" x2="135.296"/>
  </g>
 </g>
</svg>
