<?xml version='1.0' encoding='UTF-8' standalone='no'?>
<!-- Created with Fritzing (http://www.fritzing.org/) -->
<svg xmlns="http://www.w3.org/2000/svg" width="1.61957in" x="0in" version="1.2" y="0in"  height="1.49474in" viewBox="0 0 116.609 107.621" baseProfile="tiny" xmlns:svg="http://www.w3.org/2000/svg">
 <g transform="matrix(-1, 0, 0, 1, 116.609, 0)">
  <g partID="77301">
   <g id="silkscreen">
    <rect width="116.033" x="0.576" y="0.576" fill="none" height="107.045" stroke="black" stroke-width="0.576"/>
   </g>
  </g>
  <g partID="77300">
   <g id="board">
    <rect width="116.033" x="0.576" y="0.576" fill="none" height="107.045" stroke="black" fill-opacity="0.5" id="boardoutline" stroke-width="0.5"/>
   </g>
  </g>
  <g partID="77301">
   <g id="silkscreen">
    <rect width="116.033" x="0.576" y="0.576" fill="none" height="107.045" stroke="black" stroke-width="0.576"/>
   </g>
  </g>
  <g partID="77732">
   <g transform="translate(83.3795,14.94)">
    <g id="silkscreen">
     <line stroke="black" id="vertical-left" y1="1.44" stroke-width="0.72" x1="1.44" y2="87.1992" x2="1.44"/>
     <line stroke="black" id="bottom" y1="87.1992" stroke-width="0.72" x1="1.44" y2="87.1992" x2="33.12"/>
     <line stroke="black" id="vertical-right" y1="87.1992" stroke-width="0.72" x1="33.12" y2="1.44" x2="33.12"/>
     <line stroke="black" id="top" y1="1.44" stroke-width="0.72" x1="33.12" y2="1.44" x2="1.44"/>
     <line stroke="black" id="mid-vertical" y1="87.1992" stroke-width="0.36" x1="27.36" y2="1.44" x2="27.36"/>
    </g>
   </g>
  </g>
  <g partID="78691">
   <g transform="translate(28.9858,69.9404)">
    <g transform="matrix(2.22045e-16,1,-1,2.22045e-16,0,0)">
     <g stroke-opacity="1" fill="none" stroke="black" id="silkscreen" stroke-width="0.8" transform="matrix(1, 0, 0, 1, -2.83465, -816.558)">
      <g id="0.4.0" transform="matrix(0.965924, 0, 0, 0.965924, 3.22102, 814.207)">
       <path stroke-opacity="1" fill="none" stroke="black" style="opacity:0.98000004;stroke-linecap:square;stroke-linejoin:miter;stroke-miterlimit:4;stroke-dasharray:none;stroke-dashoffset:0" id="path3112" stroke-width="0.8" d="m22.6772,14.1732a11.3386,11.3386,0,1,1,-22.6772,0,11.3386,11.3386,0,1,1,22.6772,0z"/>
      </g>
      <path stroke-opacity="1" fill="none" stroke="black" style="stroke-linecap:round;stroke-linejoin:miter;stroke-miterlimit:4;stroke-dasharray:none" id="path3882" stroke-width="1.1928" d="m18.7087,827.716,11.3386,0"/>
      <g id="0.4.2" transform="matrix(1, 0, 0, 1, 0, 813.543)">
       <path stroke-opacity="1" fill="none" stroke="black" style="stroke-linecap:round;stroke-linejoin:round;" id="path3989" stroke-width="0.8" d="m20.4094,11.3386,0,2.83465,3.40158,-2.83465,0,5.66929,-3.40158,-2.83465,0,2.83465"/>
      </g>
     </g>
    </g>
   </g>
  </g>
  <g partID="78741">
   <g transform="translate(82.1354,69.9404)">
    <g transform="matrix(2.22045e-16,1,-1,2.22045e-16,0,0)">
     <g stroke-opacity="1" fill="none" stroke="black" id="silkscreen" stroke-width="0.8" transform="matrix(1, 0, 0, 1, -2.83465, -816.558)">
      <g id="0.4.0" transform="matrix(0.965924, 0, 0, 0.965924, 3.22102, 814.207)">
       <path stroke-opacity="1" fill="none" stroke="black" style="opacity:0.98000004;stroke-linecap:square;stroke-linejoin:miter;stroke-miterlimit:4;stroke-dasharray:none;stroke-dashoffset:0" id="path3112" stroke-width="0.8" d="m22.6772,14.1732a11.3386,11.3386,0,1,1,-22.6772,0,11.3386,11.3386,0,1,1,22.6772,0z"/>
      </g>
      <path stroke-opacity="1" fill="none" stroke="black" style="stroke-linecap:round;stroke-linejoin:miter;stroke-miterlimit:4;stroke-dasharray:none" id="path3882" stroke-width="1.1928" d="m18.7087,827.716,11.3386,0"/>
      <g id="0.4.2" transform="matrix(1, 0, 0, 1, 0, 813.543)">
       <path stroke-opacity="1" fill="none" stroke="black" style="stroke-linecap:round;stroke-linejoin:round;" id="path3989" stroke-width="0.8" d="m20.4094,11.3386,0,2.83465,3.40158,-2.83465,0,5.66929,-3.40158,-2.83465,0,2.83465"/>
      </g>
     </g>
    </g>
   </g>
  </g>
  <g partID="78721">
   <g transform="translate(55.9149,69.9404)">
    <g transform="matrix(2.22045e-16,1,-1,2.22045e-16,0,0)">
     <g stroke-opacity="1" fill="none" stroke="black" id="silkscreen" stroke-width="0.8" transform="matrix(1, 0, 0, 1, -2.83465, -816.558)">
      <g id="0.4.0" transform="matrix(0.965924, 0, 0, 0.965924, 3.22102, 814.207)">
       <path stroke-opacity="1" fill="none" stroke="black" style="opacity:0.98000004;stroke-linecap:square;stroke-linejoin:miter;stroke-miterlimit:4;stroke-dasharray:none;stroke-dashoffset:0" id="path3112" stroke-width="0.8" d="m22.6772,14.1732a11.3386,11.3386,0,1,1,-22.6772,0,11.3386,11.3386,0,1,1,22.6772,0z"/>
      </g>
      <path stroke-opacity="1" fill="none" stroke="black" style="stroke-linecap:round;stroke-linejoin:miter;stroke-miterlimit:4;stroke-dasharray:none" id="path3882" stroke-width="1.1928" d="m18.7087,827.716,11.3386,0"/>
      <g id="0.4.2" transform="matrix(1, 0, 0, 1, 0, 813.543)">
       <path stroke-opacity="1" fill="none" stroke="black" style="stroke-linecap:round;stroke-linejoin:round;" id="path3989" stroke-width="0.8" d="m20.4094,11.3386,0,2.83465,3.40158,-2.83465,0,5.66929,-3.40158,-2.83465,0,2.83465"/>
      </g>
     </g>
    </g>
   </g>
  </g>
  <g partID="80921">
   <g transform="translate(4.61144,2.4512)">
    <g stroke-opacity="1" fill="none" stroke="black" id="silkscreen" stroke-width="0.8">
     <g stroke-opacity="1" fill="none" stroke="black" id="g5490" stroke-width="0.8">
      <path stroke-opacity="1" fill="none" stroke="black" style="stroke-linecap:butt;stroke-linejoin:miter;stroke-miterlimit:4;stroke-dasharray:none" id="slikscreen" stroke-width="0.8" d="m77.2252,64.1791,0,-63.7795,-76.8189,0,0,63.7795c25.6063,0,51.2126,0,76.8189,0z"/>
     </g>
    </g>
   </g>
  </g>
  <g id="partLabel" partID="77730">
   <g transform="translate(107.54,9.34)">
    <g fill="#000000" font-family="'OCRA'" stroke="none" font-style="normal" fill-opacity="1" font-weight="normal" id="silkscreenLabel" font-size="5">
     <text x="0" y="3.75">J1</text>
    </g>
   </g>
  </g>
  <g id="partLabel" partID="78690">
   <g transform="translate(21.064,63.6185)">
    <g fill="#000000" font-family="'OCRA'" stroke="none" font-style="normal" fill-opacity="1" font-weight="normal" id="silkscreenLabel" font-size="5">
     <text x="0" y="3.75">D1</text>
    </g>
   </g>
  </g>
  <g id="partLabel" partID="78740">
   <g transform="translate(68.2136,63.2185)">
    <g fill="#000000" font-family="'OCRA'" stroke="none" font-style="normal" fill-opacity="1" font-weight="normal" id="silkscreenLabel" font-size="5">
     <text x="0" y="3.75">D3</text>
    </g>
   </g>
  </g>
  <g id="partLabel" partID="78720">
   <g transform="translate(41.1931,62.8185)">
    <g fill="#000000" font-family="'OCRA'" stroke="none" font-style="normal" fill-opacity="1" font-weight="normal" id="silkscreenLabel" font-size="5">
     <text x="0" y="3.75">D2</text>
    </g>
   </g>
  </g>
  <g id="partLabel" partID="80920">
   <g transform="translate(9.0364,8.4512)">
    <g fill="#000000" font-family="'OCRA'" stroke="none" font-style="normal" fill-opacity="1" font-weight="normal" id="silkscreenLabel" font-size="5">
     <text x="0" y="3.75">RELAY1</text>
    </g>
   </g>
  </g>
  <g partID="77731">
   <g transform="translate(83.3795,14.94)">
    <g id="copper1">
     <g id="copper0">
      <rect width="5.69197" x="11.554" y="6.04063" fill="white" height="5.69197" stroke="white" id="square" stroke-width="2.16"/>
      <circle fill="white" cx="14.4" cy="8.8866" stroke="white" id="connector0pin" r="2.84598" stroke-width="2.16"/>
      <circle fill="white" cx="14.4" cy="23.0599" stroke="white" id="connector1pin" r="2.84598" stroke-width="2.16"/>
      <circle fill="white" cx="14.4" cy="37.2331" stroke="white" id="connector2pin" r="2.84598" stroke-width="2.16"/>
      <circle fill="white" cx="14.4" cy="51.4063" stroke="white" id="connector3pin" r="2.84598" stroke-width="2.16"/>
      <circle fill="white" cx="14.4" cy="65.5795" stroke="white" id="connector4pin" r="2.84598" stroke-width="2.16"/>
      <circle fill="white" cx="14.4" cy="79.753" stroke="white" id="connector5pin" r="2.84598" stroke-width="2.16"/>
     </g>
    </g>
   </g>
  </g>
 </g>
</svg>
