<?xml version='1.0' encoding='UTF-8' standalone='no'?>
<!-- Created with Fritzing (http://www.fritzing.org/) -->
<svg xmlns="http://www.w3.org/2000/svg" width="1.967in" x="0in" version="1.2" y="0in"  height="2.9257in" viewBox="0 0 141.624 210.65" baseProfile="tiny" xmlns:svg="http://www.w3.org/2000/svg">
 <g partID="77300">
  <g id="board">
   <rect width="141.048" x="0.288" y="0.288" fill="none" height="210.074" stroke="black" fill-opacity="0.5" id="boardoutline" stroke-width="0.5"/>
  </g>
 </g>
 <g partID="1922670">
  <g transform="translate(28.1888,22.3216)">
   <g transform="matrix(4.44089e-16,1,-1,4.44089e-16,0,0)">
    <g  id="copper0">
     <g  id="copper1">
      <rect width="4.464" x="0.72" y="3.24" fill="none"  height="4.608" stroke="black" stroke-width="1.44"/>
      <circle fill="none" cx="2.952"  cy="5.472" stroke="black" r="2.232" id="connector0pin" stroke-width="1.44"/>
      <circle fill="none" cx="60.552"  cy="5.472" stroke="black" r="2.232" id="connector1pin" stroke-width="1.44"/>
     </g>
    </g>
   </g>
  </g>
 </g>
 <g partID="1922640">
  <g transform="translate(27.4801,132.873)">
   <g transform="matrix(2.22045e-16,1,-1,2.22045e-16,0,0)">
    <g  id="copper0">
     <g  id="copper1">
      <rect width="4.464" x="0.72" y="3.24" fill="none"  height="4.608" stroke="black" stroke-width="1.44"/>
      <circle fill="none" cx="2.952"  cy="5.472" stroke="black" r="2.232" id="connector0pin" stroke-width="1.44"/>
      <circle fill="none" cx="60.552"  cy="5.472" stroke="black" r="2.232" id="connector1pin" stroke-width="1.44"/>
     </g>
    </g>
   </g>
  </g>
 </g>
 <g partID="282970">
  <g transform="translate(114.102,171.339)">
   <g transform="matrix(7.21645e-16,1,-1,7.21645e-16,0,0)">
    <g transform="matrix(1, 0, 0, 1, 1.83711, -0.0533789)">
     <g id="copper0">
      <rect width="4.464" x="-1.11711" y="8.41972" fill="none" height="4.464" stroke="black" id="rect3280" stroke-width="1.44"/>
      <g transform="matrix(1, 0, 0, 1, -1.90911, 7.05172)">
       <g id="0.3.1">
        <circle fill="none" cx="3.024" cy="3.6" stroke="black" r="2.232" id="connector0pin" stroke-width="1.44"/>
       </g>
      </g>
      <g transform="matrix(1, 0, 0, 1, 8.08387, 7.05172)">
       <g id="0.3.2">
        <circle fill="none" cx="24.48" cy="3.6" stroke="black" r="2.232" id="connector1pin" stroke-width="1.44"/>
       </g>
      </g>
     </g>
    </g>
   </g>
  </g>
 </g>
 <g partID="283070">
  <g transform="translate(90.7167,171.339)">
   <g transform="matrix(7.21645e-16,1,-1,7.21645e-16,0,0)">
    <g transform="matrix(1, 0, 0, 1, 1.83711, -0.0533789)">
     <g id="copper0">
      <rect width="4.464" x="-1.11711" y="8.41972" fill="none" height="4.464" stroke="black" id="rect3280" stroke-width="1.44"/>
      <g transform="matrix(1, 0, 0, 1, -1.90911, 7.05172)">
       <g id="0.3.1">
        <circle fill="none" cx="3.024" cy="3.6" stroke="black" r="2.232" id="connector0pin" stroke-width="1.44"/>
       </g>
      </g>
      <g transform="matrix(1, 0, 0, 1, 8.08387, 7.05172)">
       <g id="0.3.2">
        <circle fill="none" cx="24.48" cy="3.6" stroke="black" r="2.232" id="connector1pin" stroke-width="1.44"/>
       </g>
      </g>
     </g>
    </g>
   </g>
  </g>
 </g>
 <g partID="283170">
  <g transform="translate(67.3309,171.339)">
   <g transform="matrix(7.21645e-16,1,-1,7.21645e-16,0,0)">
    <g transform="matrix(1, 0, 0, 1, 1.83711, -0.0533789)">
     <g id="copper0">
      <rect width="4.464" x="-1.11711" y="8.41972" fill="none" height="4.464" stroke="black" id="rect3280" stroke-width="1.44"/>
      <g transform="matrix(1, 0, 0, 1, -1.90911, 7.05172)">
       <g id="0.3.1">
        <circle fill="none" cx="3.024" cy="3.6" stroke="black" r="2.232" id="connector0pin" stroke-width="1.44"/>
       </g>
      </g>
      <g transform="matrix(1, 0, 0, 1, 8.08387, 7.05172)">
       <g id="0.3.2">
        <circle fill="none" cx="24.48" cy="3.6" stroke="black" r="2.232" id="connector1pin" stroke-width="1.44"/>
       </g>
      </g>
     </g>
    </g>
   </g>
  </g>
 </g>
 <g partID="1911650">
  <g transform="translate(45.9865,88.168)">
   <g transform="matrix(-4.44089e-16,-1,1,-4.44089e-16,0,0)">
    <g  id="copper0">
     <path fill="black"  stroke="none" style="opacity:0.98000004;fill-rule:nonzero;" fill-opacity="0.98039216" id="connector4pin" d="m32.9221,50.4333c-1.56553,0.0004,-2.825,1.28456,-2.825,2.84992l0,5.66536c0,1.56576,1.25947,2.8256,2.825,2.82504l24.1043,-0.008c1.56553,-0.00048,2.83465,-1.26896,2.83465,-2.83464l0,-5.66928c0,-1.56536,-1.26911,-2.83472,-2.83465,-2.83464zm2.83484,4.24064,18.4348,-0.0104c0.782766,-0.00048,1.425,0.64224,1.425,1.42504,0,0.78272,-0.642234,1.4,-1.425,1.4l0,0.0248,-18.4348,0.0104c-0.782766,0.0004,-1.4,-0.64232,-1.4,-1.42496,0,-0.7828,0.617234,-1.42504,1.4,-1.42504z"/>
     <path fill="black"  stroke="none" style="opacity:0.98000004;fill-rule:nonzero;" fill-opacity="0.98039216" id="connector2pin" d="m5.99301,26.2971c-1.56553,0.0004,-2.825,1.28456,-2.825,2.84992l0,5.66536c0,1.56576,1.25947,2.8256,2.825,2.82504l24.1043,-0.008c1.56553,-0.00048,2.83465,-1.26896,2.83465,-2.83464l0,-5.66928c0,-1.56536,-1.26911,-2.83472,-2.83465,-2.83464zm2.83484,4.24064,18.4348,-0.0104c0.782766,-0.00048,1.425,0.64224,1.425,1.42504,0,0.78272,-0.642234,1.4,-1.425,1.4l0,0.0248,-18.4348,0.0104c-0.782766,0.0004,-1.4,-0.64232,-1.4,-1.42496,0,-0.7828,0.617234,-1.42504,1.4,-1.42504z"/>
     <path fill="black"  stroke="none" style="opacity:0.98000004;fill-rule:nonzero;" fill-opacity="0.98039216" id="connector0pin" d="m51.78,20.1968c-0.0004,-1.56552,-1.28456,-2.82504,-2.84992,-2.82504l-5.66536,0c-1.56576,0,-2.8256,1.25952,-2.82504,2.82504l0.008,24.1043c0.00048,1.56552,1.26896,2.83464,2.83464,2.83464l5.66928,0c1.56536,0,2.83472,-1.26912,2.83464,-2.83464zm-4.24064,2.8348,0.0104,18.4349c0.00048,0.78272,-0.64224,1.42496,-1.42504,1.42496,-0.78272,0,-1.4,-0.64224,-1.4,-1.42496l-0.0248,0,-0.0104,-18.4349c-0.0004,-0.78272,0.64232,-1.4,1.42496,-1.4,0.7828,0,1.42504,0.61728,1.42504,1.4z"/>
     <path fill="black"  stroke="none" style="opacity:0.98000004;fill-rule:nonzero;" fill-opacity="0.98039216" id="connector5pin" d="m74.4572,20.1968c-0.0004,-1.56552,-1.28456,-2.82504,-2.84992,-2.82504l-5.66536,0c-1.56576,0,-2.8256,1.25952,-2.82504,2.82504l0.008,24.1043c0.00048,1.56552,1.26896,2.83464,2.83464,2.83464l5.66928,0c1.56536,0,2.83472,-1.26912,2.83464,-2.83464zm-4.24064,2.8348,0.0104,18.4349c0.00048,0.78272,-0.64224,1.42496,-1.42504,1.42496,-0.78272,0,-1.4,-0.64224,-1.4,-1.42496l-0.0248,0,-0.0104,-18.4349c-0.0004,-0.78272,0.64232,-1.4,1.42496,-1.4,0.7828,0,1.42504,0.61728,1.42504,1.4z"/>
     <path fill="black"  stroke="none" style="opacity:0.98000004;fill-rule:nonzero;" fill-opacity="0.98039216" id="connector1pin" d="m34.056,2.81127c-1.56553,0.0004,-2.825,1.28456,-2.825,2.84992l0,5.66536c0,1.56576,1.25947,2.8256,2.825,2.82504l24.1043,-0.008c1.56553,-0.00048,2.83465,-1.26896,2.83465,-2.83464l0,-5.66928c0,-1.56536,-1.26911,-2.83472,-2.83465,-2.83464zm2.83484,4.24064,18.4348,-0.0104c0.782766,-0.00048,1.425,0.64224,1.425,1.42504,0,0.78272,-0.642234,1.4,-1.425,1.4l0,0.0248,-18.4348,0.0104c-0.782766,0.0004,-1.4,-0.64232,-1.4,-1.42496,0,-0.7828,0.617234,-1.42504,1.4,-1.42504z"/>
    </g>
   </g>
  </g>
 </g>
 <g partID="317060">
  <g transform="translate(45.9865,171.082)">
   <g transform="matrix(-4.44089e-16,-1,1,-4.44089e-16,0,0)">
    <g  id="copper0">
     <path fill="black"  stroke="none" style="opacity:0.98000004;fill-rule:nonzero;" fill-opacity="0.98039216" id="connector4pin" d="m32.9221,50.4333c-1.56553,0.0004,-2.825,1.28456,-2.825,2.84992l0,5.66536c0,1.56576,1.25947,2.8256,2.825,2.82504l24.1043,-0.008c1.56553,-0.00048,2.83465,-1.26896,2.83465,-2.83464l0,-5.66928c0,-1.56536,-1.26911,-2.83472,-2.83465,-2.83464zm2.83484,4.24064,18.4348,-0.0104c0.782766,-0.00048,1.425,0.64224,1.425,1.42504,0,0.78272,-0.642234,1.4,-1.425,1.4l0,0.0248,-18.4348,0.0104c-0.782766,0.0004,-1.4,-0.64232,-1.4,-1.42496,0,-0.7828,0.617234,-1.42504,1.4,-1.42504z"/>
     <path fill="black"  stroke="none" style="opacity:0.98000004;fill-rule:nonzero;" fill-opacity="0.98039216" id="connector2pin" d="m5.99301,26.2971c-1.56553,0.0004,-2.825,1.28456,-2.825,2.84992l0,5.66536c0,1.56576,1.25947,2.8256,2.825,2.82504l24.1043,-0.008c1.56553,-0.00048,2.83465,-1.26896,2.83465,-2.83464l0,-5.66928c0,-1.56536,-1.26911,-2.83472,-2.83465,-2.83464zm2.83484,4.24064,18.4348,-0.0104c0.782766,-0.00048,1.425,0.64224,1.425,1.42504,0,0.78272,-0.642234,1.4,-1.425,1.4l0,0.0248,-18.4348,0.0104c-0.782766,0.0004,-1.4,-0.64232,-1.4,-1.42496,0,-0.7828,0.617234,-1.42504,1.4,-1.42504z"/>
     <path fill="black"  stroke="none" style="opacity:0.98000004;fill-rule:nonzero;" fill-opacity="0.98039216" id="connector0pin" d="m51.78,20.1968c-0.0004,-1.56552,-1.28456,-2.82504,-2.84992,-2.82504l-5.66536,0c-1.56576,0,-2.8256,1.25952,-2.82504,2.82504l0.008,24.1043c0.00048,1.56552,1.26896,2.83464,2.83464,2.83464l5.66928,0c1.56536,0,2.83472,-1.26912,2.83464,-2.83464zm-4.24064,2.8348,0.0104,18.4349c0.00048,0.78272,-0.64224,1.42496,-1.42504,1.42496,-0.78272,0,-1.4,-0.64224,-1.4,-1.42496l-0.0248,0,-0.0104,-18.4349c-0.0004,-0.78272,0.64232,-1.4,1.42496,-1.4,0.7828,0,1.42504,0.61728,1.42504,1.4z"/>
     <path fill="black"  stroke="none" style="opacity:0.98000004;fill-rule:nonzero;" fill-opacity="0.98039216" id="connector5pin" d="m74.4572,20.1968c-0.0004,-1.56552,-1.28456,-2.82504,-2.84992,-2.82504l-5.66536,0c-1.56576,0,-2.8256,1.25952,-2.82504,2.82504l0.008,24.1043c0.00048,1.56552,1.26896,2.83464,2.83464,2.83464l5.66928,0c1.56536,0,2.83472,-1.26912,2.83464,-2.83464zm-4.24064,2.8348,0.0104,18.4349c0.00048,0.78272,-0.64224,1.42496,-1.42504,1.42496,-0.78272,0,-1.4,-0.64224,-1.4,-1.42496l-0.0248,0,-0.0104,-18.4349c-0.0004,-0.78272,0.64232,-1.4,1.42496,-1.4,0.7828,0,1.42504,0.61728,1.42504,1.4z"/>
     <path fill="black"  stroke="none" style="opacity:0.98000004;fill-rule:nonzero;" fill-opacity="0.98039216" id="connector1pin" d="m34.056,2.81127c-1.56553,0.0004,-2.825,1.28456,-2.825,2.84992l0,5.66536c0,1.56576,1.25947,2.8256,2.825,2.82504l24.1043,-0.008c1.56553,-0.00048,2.83465,-1.26896,2.83465,-2.83464l0,-5.66928c0,-1.56536,-1.26911,-2.83472,-2.83465,-2.83464zm2.83484,4.24064,18.4348,-0.0104c0.782766,-0.00048,1.425,0.64224,1.425,1.42504,0,0.78272,-0.642234,1.4,-1.425,1.4l0,0.0248,-18.4348,0.0104c-0.782766,0.0004,-1.4,-0.64232,-1.4,-1.42496,0,-0.7828,0.617234,-1.42504,1.4,-1.42504z"/>
    </g>
   </g>
  </g>
 </g>
 <g partID="1912310">
  <g transform="translate(112.715,54.5016)">
   <g transform="matrix(1, 0, 0, 1, -167.25, -382.666)">
    <g id="copper0">
     <g>
      <g transform="matrix(1, 0, 0, 1, 0, -2141.18)">
       <g id="0.3.0.0">
        <path fill="black" stroke="none" style="opacity:0.98000004;fill-rule:nonzero;" fill-opacity="1" id="connector0pin" d="m174.05,2523.85c-3.769,0,-6.8,3.056,-6.8,6.82504l0,0.6c0,3.76896,3.031,6.8,6.8,6.8l14.725,0c3.769,0,6.825,-3.03104,6.825,-6.8l0,-0.6c0,-3.76904,-3.056,-6.82504,-6.825,-6.82504l-14.725,0zm0.575,3.95c1.56553,0,2.825,1.28728,2.825,2.87504,0,1.58768,-1.25947,2.87496,-2.825,2.87496,-1.56553,0,-2.85,-1.28728,-2.85,-2.87496,0,-1.58776,1.28447,-2.87504,2.85,-2.87504zm14.15,0c1.56553,0,2.85,1.28728,2.85,2.87504,0,1.58768,-1.28447,2.87496,-2.85,2.87496,-1.56553,0,-2.825,-1.28728,-2.825,-2.87496,0,-1.58776,1.25947,-2.87504,2.825,-2.87504z"/>
       </g>
      </g>
     </g>
    </g>
   </g>
  </g>
 </g>
 <g partID="1912010">
  <g transform="translate(112.715,11.2728)">
   <g transform="matrix(1, 0, 0, 1, -167.25, -382.666)">
    <g id="copper0">
     <g>
      <g transform="matrix(1, 0, 0, 1, 0, -2141.18)">
       <g id="0.3.0.0">
        <path fill="black" stroke="none" style="opacity:0.98000004;fill-rule:nonzero;" fill-opacity="1" id="connector0pin" d="m174.05,2523.85c-3.769,0,-6.8,3.056,-6.8,6.82504l0,0.6c0,3.76896,3.031,6.8,6.8,6.8l14.725,0c3.769,0,6.825,-3.03104,6.825,-6.8l0,-0.6c0,-3.76904,-3.056,-6.82504,-6.825,-6.82504l-14.725,0zm0.575,3.95c1.56553,0,2.825,1.28728,2.825,2.87504,0,1.58768,-1.25947,2.87496,-2.825,2.87496,-1.56553,0,-2.85,-1.28728,-2.85,-2.87496,0,-1.58776,1.28447,-2.87504,2.85,-2.87504zm14.15,0c1.56553,0,2.85,1.28728,2.85,2.87504,0,1.58768,-1.28447,2.87496,-2.85,2.87496,-1.56553,0,-2.825,-1.28728,-2.825,-2.87496,0,-1.58776,1.25947,-2.87504,2.825,-2.87504z"/>
       </g>
      </g>
     </g>
    </g>
   </g>
  </g>
 </g>
 <g partID="1911760">
  <g transform="translate(112.006,31.1152)">
   <g transform="matrix(1, 0, 0, 1, -167.25, -382.666)">
    <g id="copper0">
     <g>
      <g transform="matrix(1, 0, 0, 1, 0, -2141.18)">
       <g id="0.3.0.0">
        <path fill="black" stroke="none" style="opacity:0.98000004;fill-rule:nonzero;" fill-opacity="1" id="connector0pin" d="m174.05,2523.85c-3.769,0,-6.8,3.056,-6.8,6.82504l0,0.6c0,3.76896,3.031,6.8,6.8,6.8l14.725,0c3.769,0,6.825,-3.03104,6.825,-6.8l0,-0.6c0,-3.76904,-3.056,-6.82504,-6.825,-6.82504l-14.725,0zm0.575,3.95c1.56553,0,2.825,1.28728,2.825,2.87504,0,1.58768,-1.25947,2.87496,-2.825,2.87496,-1.56553,0,-2.85,-1.28728,-2.85,-2.87496,0,-1.58776,1.28447,-2.87504,2.85,-2.87504zm14.15,0c1.56553,0,2.85,1.28728,2.85,2.87504,0,1.58768,-1.28447,2.87496,-2.85,2.87496,-1.56553,0,-2.825,-1.28728,-2.825,-2.87496,0,-1.58776,1.25947,-2.87504,2.825,-2.87504z"/>
       </g>
      </g>
     </g>
    </g>
   </g>
  </g>
 </g>
 <g partID="316410">
  <g transform="translate(112.006,121.824)">
   <g transform="matrix(1, 0, 0, 1, -167.25, -382.666)">
    <g id="copper0">
     <g>
      <g transform="matrix(1, 0, 0, 1, 0, -2141.18)">
       <g id="0.3.0.0">
        <path fill="black" stroke="none" style="opacity:0.98000004;fill-rule:nonzero;" fill-opacity="1" id="connector0pin" d="m174.05,2523.85c-3.769,0,-6.8,3.056,-6.8,6.82504l0,0.6c0,3.76896,3.031,6.8,6.8,6.8l14.725,0c3.769,0,6.825,-3.03104,6.825,-6.8l0,-0.6c0,-3.76904,-3.056,-6.82504,-6.825,-6.82504l-14.725,0zm0.575,3.95c1.56553,0,2.825,1.28728,2.825,2.87504,0,1.58768,-1.25947,2.87496,-2.825,2.87496,-1.56553,0,-2.85,-1.28728,-2.85,-2.87496,0,-1.58776,1.28447,-2.87504,2.85,-2.87504zm14.15,0c1.56553,0,2.85,1.28728,2.85,2.87504,0,1.58768,-1.28447,2.87496,-2.85,2.87496,-1.56553,0,-2.825,-1.28728,-2.825,-2.87496,0,-1.58776,1.25947,-2.87504,2.825,-2.87504z"/>
       </g>
      </g>
     </g>
    </g>
   </g>
  </g>
 </g>
 <g partID="316440">
  <g transform="translate(112.006,99.1472)">
   <g transform="matrix(1, 0, 0, 1, -167.25, -382.666)">
    <g id="copper0">
     <g>
      <g transform="matrix(1, 0, 0, 1, 0, -2141.18)">
       <g id="0.3.0.0">
        <path fill="black" stroke="none" style="opacity:0.98000004;fill-rule:nonzero;" fill-opacity="1" id="connector0pin" d="m174.05,2523.85c-3.769,0,-6.8,3.056,-6.8,6.82504l0,0.6c0,3.76896,3.031,6.8,6.8,6.8l14.725,0c3.769,0,6.825,-3.03104,6.825,-6.8l0,-0.6c0,-3.76904,-3.056,-6.82504,-6.825,-6.82504l-14.725,0zm0.575,3.95c1.56553,0,2.825,1.28728,2.825,2.87504,0,1.58768,-1.25947,2.87496,-2.825,2.87496,-1.56553,0,-2.85,-1.28728,-2.85,-2.87496,0,-1.58776,1.28447,-2.87504,2.85,-2.87504zm14.15,0c1.56553,0,2.85,1.28728,2.85,2.87504,0,1.58768,-1.28447,2.87496,-2.85,2.87496,-1.56553,0,-2.825,-1.28728,-2.825,-2.87496,0,-1.58776,1.25947,-2.87504,2.825,-2.87504z"/>
       </g>
      </g>
     </g>
    </g>
   </g>
  </g>
 </g>
 <g partID="316470">
  <g transform="translate(112.006,190.565)">
   <g transform="matrix(1, 0, 0, 1, -167.25, -382.666)">
    <g id="copper0">
     <g>
      <g transform="matrix(1, 0, 0, 1, 0, -2141.18)">
       <g id="0.3.0.0">
        <path fill="black" stroke="none" style="opacity:0.98000004;fill-rule:nonzero;" fill-opacity="1" id="connector0pin" d="m174.05,2523.85c-3.769,0,-6.8,3.056,-6.8,6.82504l0,0.6c0,3.76896,3.031,6.8,6.8,6.8l14.725,0c3.769,0,6.825,-3.03104,6.825,-6.8l0,-0.6c0,-3.76904,-3.056,-6.82504,-6.825,-6.82504l-14.725,0zm0.575,3.95c1.56553,0,2.825,1.28728,2.825,2.87504,0,1.58768,-1.25947,2.87496,-2.825,2.87496,-1.56553,0,-2.85,-1.28728,-2.85,-2.87496,0,-1.58776,1.28447,-2.87504,2.85,-2.87504zm14.15,0c1.56553,0,2.85,1.28728,2.85,2.87504,0,1.58768,-1.28447,2.87496,-2.85,2.87496,-1.56553,0,-2.825,-1.28728,-2.825,-2.87496,0,-1.58776,1.25947,-2.87504,2.825,-2.87504z"/>
       </g>
      </g>
     </g>
    </g>
   </g>
  </g>
 </g>
 <g partID="316500">
  <g transform="translate(112.006,167.887)">
   <g transform="matrix(1, 0, 0, 1, -167.25, -382.666)">
    <g id="copper0">
     <g>
      <g transform="matrix(1, 0, 0, 1, 0, -2141.18)">
       <g id="0.3.0.0">
        <path fill="black" stroke="none" style="opacity:0.98000004;fill-rule:nonzero;" fill-opacity="1" id="connector0pin" d="m174.05,2523.85c-3.769,0,-6.8,3.056,-6.8,6.82504l0,0.6c0,3.76896,3.031,6.8,6.8,6.8l14.725,0c3.769,0,6.825,-3.03104,6.825,-6.8l0,-0.6c0,-3.76904,-3.056,-6.82504,-6.825,-6.82504l-14.725,0zm0.575,3.95c1.56553,0,2.825,1.28728,2.825,2.87504,0,1.58768,-1.25947,2.87496,-2.825,2.87496,-1.56553,0,-2.85,-1.28728,-2.85,-2.87496,0,-1.58776,1.28447,-2.87504,2.85,-2.87504zm14.15,0c1.56553,0,2.85,1.28728,2.85,2.87504,0,1.58768,-1.28447,2.87496,-2.85,2.87496,-1.56553,0,-2.825,-1.28728,-2.825,-2.87496,0,-1.58776,1.25947,-2.87504,2.825,-2.87504z"/>
       </g>
      </g>
     </g>
    </g>
   </g>
  </g>
 </g>
 <g partID="316530">
  <g transform="translate(112.006,144.502)">
   <g transform="matrix(1, 0, 0, 1, -167.25, -382.666)">
    <g id="copper0">
     <g>
      <g transform="matrix(1, 0, 0, 1, 0, -2141.18)">
       <g id="0.3.0.0">
        <path fill="black" stroke="none" style="opacity:0.98000004;fill-rule:nonzero;" fill-opacity="1" id="connector0pin" d="m174.05,2523.85c-3.769,0,-6.8,3.056,-6.8,6.82504l0,0.6c0,3.76896,3.031,6.8,6.8,6.8l14.725,0c3.769,0,6.825,-3.03104,6.825,-6.8l0,-0.6c0,-3.76904,-3.056,-6.82504,-6.825,-6.82504l-14.725,0zm0.575,3.95c1.56553,0,2.825,1.28728,2.825,2.87504,0,1.58768,-1.25947,2.87496,-2.825,2.87496,-1.56553,0,-2.85,-1.28728,-2.85,-2.87496,0,-1.58776,1.28447,-2.87504,2.85,-2.87504zm14.15,0c1.56553,0,2.85,1.28728,2.85,2.87504,0,1.58768,-1.28447,2.87496,-2.85,2.87496,-1.56553,0,-2.825,-1.28728,-2.825,-2.87496,0,-1.58776,1.25947,-2.87504,2.825,-2.87504z"/>
       </g>
      </g>
     </g>
    </g>
   </g>
  </g>
 </g>
 <g partID="316560">
  <g transform="translate(112.006,77.1784)">
   <g transform="matrix(1, 0, 0, 1, -167.25, -382.666)">
    <g id="copper0">
     <g>
      <g transform="matrix(1, 0, 0, 1, 0, -2141.18)">
       <g id="0.3.0.0">
        <path fill="black" stroke="none" style="opacity:0.98000004;fill-rule:nonzero;" fill-opacity="1" id="connector0pin" d="m174.05,2523.85c-3.769,0,-6.8,3.056,-6.8,6.82504l0,0.6c0,3.76896,3.031,6.8,6.8,6.8l14.725,0c3.769,0,6.825,-3.03104,6.825,-6.8l0,-0.6c0,-3.76904,-3.056,-6.82504,-6.825,-6.82504l-14.725,0zm0.575,3.95c1.56553,0,2.825,1.28728,2.825,2.87504,0,1.58768,-1.25947,2.87496,-2.825,2.87496,-1.56553,0,-2.85,-1.28728,-2.85,-2.87496,0,-1.58776,1.28447,-2.87504,2.85,-2.87504zm14.15,0c1.56553,0,2.85,1.28728,2.85,2.87504,0,1.58768,-1.28447,2.87496,-2.85,2.87496,-1.56553,0,-2.825,-1.28728,-2.825,-2.87496,0,-1.58776,1.25947,-2.87504,2.825,-2.87504z"/>
       </g>
      </g>
     </g>
    </g>
   </g>
  </g>
 </g>
 <g partID="1923760">
  <line stroke="black" stroke-linecap="round" y1="125.491" x1="126.198" y2="125.968" stroke-width="3.456" x2="107.36"/>
 </g>
 <g partID="1916060">
  <line stroke="black" stroke-linecap="round" y1="128.937" x1="126.181" y2="125.492" stroke-width="3.456" x2="126.198"/>
 </g>
 <g partID="1919610">
  <line stroke="black" stroke-linecap="round" y1="91.2568" x1="54.5281" y2="56.537" stroke-width="3.456" x2="54.4834"/>
 </g>
 <g partID="1916100">
  <line stroke="black" stroke-linecap="round" y1="110.487" x1="54.492" y2="91.2564" stroke-width="3.456" x2="54.5281"/>
 </g>
 <g partID="1919000">
  <line stroke="black" stroke-linecap="round" y1="206.101" x1="48.9408" y2="152.463" stroke-width="3.456" x2="48.3313"/>
 </g>
 <g partID="1918830">
  <line stroke="black" stroke-linecap="round" y1="152.463" x1="48.3313" y2="152.93" stroke-width="3.456" x2="72.6774"/>
 </g>
 <g partID="1918700">
  <line stroke="black" stroke-linecap="round" y1="205.884" x1="53.6238" y2="206.101" stroke-width="3.456" x2="48.9408"/>
 </g>
 <g partID="1919210">
  <line stroke="black" stroke-linecap="round" y1="205.74" x1="59.8445" y2="205.74" stroke-width="3.456" x2="77.0064"/>
 </g>
 <g partID="1919330">
  <line stroke="black" stroke-linecap="round" y1="205.74" x1="83.2303" y2="205.74" stroke-width="3.456" x2="100.392"/>
 </g>
 <g partID="1920100">
  <line stroke="black" stroke-linecap="round" y1="91.2568" x1="126.35" y2="91.0034" stroke-width="3.456" x2="126.344"/>
 </g>
 <g partID="1919690">
  <line stroke="black" stroke-linecap="round" y1="91.2568" x1="54.5281" y2="91.2568" stroke-width="3.456" x2="126.35"/>
 </g>
 <g partID="1920620">
  <line stroke="black" stroke-linecap="round" y1="102.634" x1="126.35" y2="106.26" stroke-width="3.456" x2="126.181"/>
 </g>
 <g partID="1920370">
  <line stroke="black" stroke-linecap="round" y1="102.395" x1="92.7222" y2="102.635" stroke-width="3.456" x2="126.35"/>
 </g>
 <g partID="1920430">
  <line stroke="black" stroke-linecap="round" y1="70.2792" x1="126.35" y2="68.3266" stroke-width="3.456" x2="126.472"/>
 </g>
 <g partID="1920440">
  <line stroke="black" stroke-linecap="round" y1="70.1351" x1="83.2239" y2="70.2786" stroke-width="3.456" x2="126.35"/>
 </g>
 <g partID="1920530">
  <line stroke="black" stroke-linecap="round" y1="43.2568" x1="125.639" y2="43.2041" stroke-width="3.456" x2="107.36"/>
 </g>
 <g partID="1920490">
  <line stroke="black" stroke-linecap="round" y1="38.2277" x1="126.181" y2="43.2565" stroke-width="3.456" x2="125.639"/>
 </g>
 <g partID="1923380">
  <line stroke="black" stroke-linecap="round" y1="85.9853" x1="22.6752" y2="132.713" stroke-width="3.456" x2="22.0498"/>
 </g>
 <g partID="1923570">
  <line stroke="black" stroke-linecap="round" y1="4.828" x1="23.0709" y2="4.8055" stroke-width="3.456" x2="126.198"/>
 </g>
 <g partID="1923520">
  <line stroke="black" stroke-linecap="round" y1="4.8056" x1="126.198" y2="11.6728" stroke-width="3.456" x2="126.548"/>
 </g>
 <g partID="1923480">
  <line stroke="black" stroke-linecap="round" y1="22.1621" x1="22.7707" y2="4.82816" stroke-width="3.456" x2="23.0709"/>
 </g>
 <g partID="1923710">
  <line stroke="black" stroke-linecap="round" y1="193.606" x1="35.6837" y2="18.9768" stroke-width="3.456" x2="37.0551"/>
 </g>
 <g partID="1923660">
  <line stroke="black" stroke-linecap="round" y1="18.9776" x1="37.0551" y2="19.2372" stroke-width="3.456" x2="63.7582"/>
 </g>
 <g partID="1923620">
  <line stroke="black" stroke-linecap="round" y1="193.466" x1="25.1198" y2="193.606" stroke-width="3.456" x2="35.6837"/>
 </g>
 <g partID="90810">
  <line stroke="black" stroke-linecap="round" y1="171.181" x1="103.411" y2="153.682" stroke-width="3.456" x2="102.884"/>
 </g>
 <g partID="1919940">
  <line stroke="black" stroke-linecap="round" y1="153.073" x1="125.436" y2="151.614" stroke-width="3.456" x2="126.181"/>
 </g>
 <g partID="1917390">
  <line stroke="black" stroke-linecap="round" y1="153.682" x1="102.884" y2="153.073" stroke-width="3.456" x2="125.436"/>
 </g>
 <g partID="1920730">
  <line stroke="black" stroke-linecap="round" y1="192.634" x1="126.084" y2="192.692" stroke-width="3.456" x2="56.8646"/>
 </g>
 <g partID="90750">
  <line stroke="black" stroke-linecap="round" y1="197.677" x1="126.181" y2="192.634" stroke-width="3.456" x2="126.084"/>
 </g>
 <g partID="1916610">
  <line stroke="black" stroke-linecap="round" y1="192.691" x1="56.8646" y2="177.403" stroke-width="3.456" x2="56.7549"/>
 </g>
 <g partID="1918380">
  <line stroke="black" stroke-linecap="round" y1="185.073" x1="79.417" y2="185.073" stroke-width="3.456" x2="106.236"/>
 </g>
 <g partID="1918330">
  <line stroke="black" stroke-linecap="round" y1="185.073" x1="106.236" y2="172.882" stroke-width="3.456" x2="126.046"/>
 </g>
 <g partID="90890">
  <line stroke="black" stroke-linecap="round" y1="177.397" x1="79.9163" y2="185.073" stroke-width="3.456" x2="79.417"/>
 </g>
 <g partID="1917340">
  <line stroke="black" stroke-linecap="round" y1="172.882" x1="126.046" y2="175" stroke-width="3.456" x2="126.181"/>
 </g>
</svg>
