<?xml version='1.0' encoding='UTF-8' standalone='no'?>
<!-- Created with Fritzing (http://www.fritzing.org/) -->
<svg xmlns="http://www.w3.org/2000/svg" width="1.967in" x="0in" version="1.2" y="0in"  height="2.9257in" viewBox="0 0 141.624 210.65" baseProfile="tiny" xmlns:svg="http://www.w3.org/2000/svg">
 <g transform="matrix(-1, 0, 0, 1, 141.624, 0)">
  <g partID="77302">
   <g id="silkscreen">
    <rect width="141.048" x="0.288" y="0.288" fill="none" height="210.074" stroke="black" stroke-width="0.576"/>
   </g>
  </g>
  <g partID="77300">
   <g id="board">
    <rect width="141.048" x="0.288" y="0.288" fill="none" height="210.074" stroke="black" fill-opacity="0.5" id="boardoutline" stroke-width="0.5"/>
   </g>
  </g>
  <g partID="1922672">
   <g transform="translate(28.1888,22.3216)">
    <g transform="matrix(4.44089e-16,1,-1,4.44089e-16,0,0)">
     <g id="silkscreen">
      <line stroke="black" y1="5.472" x1="5.904" y2="5.472" stroke-width="0.72" x2="17.208"/>
      <line stroke="black" y1="5.472" x1="46.008" y2="5.472" stroke-width="0.72" x2="57.6"/>
      <line stroke="black" y1="0.72" x1="17.208" y2="0.72" stroke-width="0.72" x2="46.008"/>
      <line stroke="black" y1="0.72" x1="46.008" y2="10.224" stroke-width="0.72" x2="46.008"/>
      <line stroke="black" y1="10.224" x1="46.008" y2="10.224" stroke-width="0.72" x2="17.208"/>
      <line stroke="black" y1="10.224" x1="17.208" y2="0.72" stroke-width="0.72" x2="17.208"/>
     </g>
    </g>
   </g>
  </g>
  <g partID="1922642">
   <g transform="translate(27.4801,132.873)">
    <g transform="matrix(2.22045e-16,1,-1,2.22045e-16,0,0)">
     <g id="silkscreen">
      <line stroke="black" y1="5.472" x1="5.904" y2="5.472" stroke-width="0.72" x2="17.208"/>
      <line stroke="black" y1="5.472" x1="46.008" y2="5.472" stroke-width="0.72" x2="57.6"/>
      <line stroke="black" y1="0.72" x1="17.208" y2="0.72" stroke-width="0.72" x2="46.008"/>
      <line stroke="black" y1="0.72" x1="46.008" y2="10.224" stroke-width="0.72" x2="46.008"/>
      <line stroke="black" y1="10.224" x1="46.008" y2="10.224" stroke-width="0.72" x2="17.208"/>
      <line stroke="black" y1="10.224" x1="17.208" y2="0.72" stroke-width="0.72" x2="17.208"/>
     </g>
    </g>
   </g>
  </g>
  <g partID="77302">
   <g id="silkscreen">
    <rect width="141.048" x="0.288" y="0.288" fill="none" height="210.074" stroke="black" stroke-width="0.576"/>
   </g>
  </g>
  <g partID="282971">
   <g transform="translate(114.102,171.339)">
    <g transform="matrix(7.21645e-16,1,-1,7.21645e-16,0,0)">
     <g transform="matrix(1, 0, 0, 1, 1.39866, -0.0533789)">
      <g id="silkscreen">
       <line stroke-opacity="1" stroke="black" style="stroke-linecap:square;" id="line3298" y1="10.6517" y2="10.6517" x1="6.26076" stroke-width="1.40807" x2="7.43527"/>
       <line stroke-opacity="1" stroke="black" id="line3302" stroke-linecap="flat" y1="0.798293" y2="0.798293" x1="7.39438" stroke-width="1.48984" x2="27.1613"/>
       <line stroke-opacity="1" stroke="black" style="stroke-linecap:square;" id="line3304" y1="0.798293" y2="20.5052" x1="27.1613" stroke-width="1.48984" x2="27.1613"/>
       <line stroke-opacity="1" stroke="black" style="stroke-linecap:square;" id="line3306" y1="20.5052" y2="20.5052" x1="27.1613" stroke-width="1.48984" x2="7.39438"/>
       <line stroke-opacity="1" stroke="black" style="stroke-linecap:square;" id="line3308" y1="20.5052" y2="0.798293" x1="7.39438" stroke-width="1.48984" x2="7.39438"/>
       <line stroke-opacity="1" stroke="black" style="stroke-linecap:square;" id="line3310" y1="19.7106" y2="1.53648" x1="11.6342" stroke-width="1.92228" x2="11.6342"/>
       <line stroke-opacity="1" stroke="black" style="stroke-linecap:square;stroke-miterlimit:4;stroke-dasharray:none" id="line3298-4" y1="10.509" y2="10.509" x1="27.1204" stroke-width="1.408" x2="28.2949"/>
      </g>
     </g>
    </g>
   </g>
  </g>
  <g partID="283071">
   <g transform="translate(90.7167,171.339)">
    <g transform="matrix(7.21645e-16,1,-1,7.21645e-16,0,0)">
     <g transform="matrix(1, 0, 0, 1, 1.39866, -0.0533789)">
      <g id="silkscreen">
       <line stroke-opacity="1" stroke="black" style="stroke-linecap:square;" id="line3298" y1="10.6517" y2="10.6517" x1="6.26076" stroke-width="1.40807" x2="7.43527"/>
       <line stroke-opacity="1" stroke="black" id="line3302" stroke-linecap="flat" y1="0.798293" y2="0.798293" x1="7.39438" stroke-width="1.48984" x2="27.1613"/>
       <line stroke-opacity="1" stroke="black" style="stroke-linecap:square;" id="line3304" y1="0.798293" y2="20.5052" x1="27.1613" stroke-width="1.48984" x2="27.1613"/>
       <line stroke-opacity="1" stroke="black" style="stroke-linecap:square;" id="line3306" y1="20.5052" y2="20.5052" x1="27.1613" stroke-width="1.48984" x2="7.39438"/>
       <line stroke-opacity="1" stroke="black" style="stroke-linecap:square;" id="line3308" y1="20.5052" y2="0.798293" x1="7.39438" stroke-width="1.48984" x2="7.39438"/>
       <line stroke-opacity="1" stroke="black" style="stroke-linecap:square;" id="line3310" y1="19.7106" y2="1.53648" x1="11.6342" stroke-width="1.92228" x2="11.6342"/>
       <line stroke-opacity="1" stroke="black" style="stroke-linecap:square;stroke-miterlimit:4;stroke-dasharray:none" id="line3298-4" y1="10.509" y2="10.509" x1="27.1204" stroke-width="1.408" x2="28.2949"/>
      </g>
     </g>
    </g>
   </g>
  </g>
  <g partID="283171">
   <g transform="translate(67.3309,171.339)">
    <g transform="matrix(7.21645e-16,1,-1,7.21645e-16,0,0)">
     <g transform="matrix(1, 0, 0, 1, 1.39866, -0.0533789)">
      <g id="silkscreen">
       <line stroke-opacity="1" stroke="black" style="stroke-linecap:square;" id="line3298" y1="10.6517" y2="10.6517" x1="6.26076" stroke-width="1.40807" x2="7.43527"/>
       <line stroke-opacity="1" stroke="black" id="line3302" stroke-linecap="flat" y1="0.798293" y2="0.798293" x1="7.39438" stroke-width="1.48984" x2="27.1613"/>
       <line stroke-opacity="1" stroke="black" style="stroke-linecap:square;" id="line3304" y1="0.798293" y2="20.5052" x1="27.1613" stroke-width="1.48984" x2="27.1613"/>
       <line stroke-opacity="1" stroke="black" style="stroke-linecap:square;" id="line3306" y1="20.5052" y2="20.5052" x1="27.1613" stroke-width="1.48984" x2="7.39438"/>
       <line stroke-opacity="1" stroke="black" style="stroke-linecap:square;" id="line3308" y1="20.5052" y2="0.798293" x1="7.39438" stroke-width="1.48984" x2="7.39438"/>
       <line stroke-opacity="1" stroke="black" style="stroke-linecap:square;" id="line3310" y1="19.7106" y2="1.53648" x1="11.6342" stroke-width="1.92228" x2="11.6342"/>
       <line stroke-opacity="1" stroke="black" style="stroke-linecap:square;stroke-miterlimit:4;stroke-dasharray:none" id="line3298-4" y1="10.509" y2="10.509" x1="27.1204" stroke-width="1.408" x2="28.2949"/>
      </g>
     </g>
    </g>
   </g>
  </g>
  <g partID="1911651">
   <g transform="translate(45.9865,88.168)">
    <g transform="matrix(-4.44089e-16,-1,1,-4.44089e-16,0,0)">
     <g stroke-opacity="1" fill="none" stroke="black" id="silkscreen" stroke-width="0.8">
      <g stroke-opacity="1" fill="none" stroke="black" id="g5490" stroke-width="0.8">
       <path stroke-opacity="1" fill="none" stroke="black" style="stroke-linecap:butt;stroke-linejoin:miter;stroke-miterlimit:4;stroke-dasharray:none" id="slikscreen" stroke-width="0.8" d="m77.2252,64.1791,0,-63.7795,-76.8189,0,0,63.7795c25.6063,0,51.2126,0,76.8189,0z"/>
      </g>
     </g>
    </g>
   </g>
  </g>
  <g partID="317061">
   <g transform="translate(45.9865,171.082)">
    <g transform="matrix(-4.44089e-16,-1,1,-4.44089e-16,0,0)">
     <g stroke-opacity="1" fill="none" stroke="black" id="silkscreen" stroke-width="0.8">
      <g stroke-opacity="1" fill="none" stroke="black" id="g5490" stroke-width="0.8">
       <path stroke-opacity="1" fill="none" stroke="black" style="stroke-linecap:butt;stroke-linejoin:miter;stroke-miterlimit:4;stroke-dasharray:none" id="slikscreen" stroke-width="0.8" d="m77.2252,64.1791,0,-63.7795,-76.8189,0,0,63.7795c25.6063,0,51.2126,0,76.8189,0z"/>
      </g>
     </g>
    </g>
   </g>
  </g>
  <g partID="1912311">
   <g transform="translate(112.715,54.5016)">
    <g transform="matrix(1, 0, 0, 1, -167.25, -382.666)">
     <g id="silkscreen">
      <g>
       <path stroke-opacity="1" fill="none" stroke="black" style="stroke-linecap:butt;stroke-linejoin:miter;" id="qw" stroke-width="0.8" d="m170.079,388.346,0,2.26768,45.3543,0,0,-2.26768z"/>
       <path stroke-opacity="1" fill="none" stroke="black" style="stroke-linecap:butt;stroke-linejoin:miter;" id="path2991" stroke-width="0.8" d="m212.598,388.346,0,2.26768"/>
       <path stroke-opacity="1" fill="none" stroke="black" style="stroke-linecap:butt;stroke-linejoin:miter;" id="path2993" stroke-width="0.8" d="m193.323,388.346,0,2.26768"/>
      </g>
     </g>
    </g>
   </g>
  </g>
  <g partID="1912011">
   <g transform="translate(112.715,11.2728)">
    <g transform="matrix(1, 0, 0, 1, -167.25, -382.666)">
     <g id="silkscreen">
      <g>
       <path stroke-opacity="1" fill="none" stroke="black" style="stroke-linecap:butt;stroke-linejoin:miter;" id="qw" stroke-width="0.8" d="m170.079,388.346,0,2.26768,45.3543,0,0,-2.26768z"/>
       <path stroke-opacity="1" fill="none" stroke="black" style="stroke-linecap:butt;stroke-linejoin:miter;" id="path2991" stroke-width="0.8" d="m212.598,388.346,0,2.26768"/>
       <path stroke-opacity="1" fill="none" stroke="black" style="stroke-linecap:butt;stroke-linejoin:miter;" id="path2993" stroke-width="0.8" d="m193.323,388.346,0,2.26768"/>
      </g>
     </g>
    </g>
   </g>
  </g>
  <g partID="1911761">
   <g transform="translate(112.006,31.1152)">
    <g transform="matrix(1, 0, 0, 1, -167.25, -382.666)">
     <g id="silkscreen">
      <g>
       <path stroke-opacity="1" fill="none" stroke="black" style="stroke-linecap:butt;stroke-linejoin:miter;" id="qw" stroke-width="0.8" d="m170.079,388.346,0,2.26768,45.3543,0,0,-2.26768z"/>
       <path stroke-opacity="1" fill="none" stroke="black" style="stroke-linecap:butt;stroke-linejoin:miter;" id="path2991" stroke-width="0.8" d="m212.598,388.346,0,2.26768"/>
       <path stroke-opacity="1" fill="none" stroke="black" style="stroke-linecap:butt;stroke-linejoin:miter;" id="path2993" stroke-width="0.8" d="m193.323,388.346,0,2.26768"/>
      </g>
     </g>
    </g>
   </g>
  </g>
  <g partID="316411">
   <g transform="translate(112.006,121.824)">
    <g transform="matrix(1, 0, 0, 1, -167.25, -382.666)">
     <g id="silkscreen">
      <g>
       <path stroke-opacity="1" fill="none" stroke="black" style="stroke-linecap:butt;stroke-linejoin:miter;" id="qw" stroke-width="0.8" d="m170.079,388.346,0,2.26768,45.3543,0,0,-2.26768z"/>
       <path stroke-opacity="1" fill="none" stroke="black" style="stroke-linecap:butt;stroke-linejoin:miter;" id="path2991" stroke-width="0.8" d="m212.598,388.346,0,2.26768"/>
       <path stroke-opacity="1" fill="none" stroke="black" style="stroke-linecap:butt;stroke-linejoin:miter;" id="path2993" stroke-width="0.8" d="m193.323,388.346,0,2.26768"/>
      </g>
     </g>
    </g>
   </g>
  </g>
  <g partID="316441">
   <g transform="translate(112.006,99.1472)">
    <g transform="matrix(1, 0, 0, 1, -167.25, -382.666)">
     <g id="silkscreen">
      <g>
       <path stroke-opacity="1" fill="none" stroke="black" style="stroke-linecap:butt;stroke-linejoin:miter;" id="qw" stroke-width="0.8" d="m170.079,388.346,0,2.26768,45.3543,0,0,-2.26768z"/>
       <path stroke-opacity="1" fill="none" stroke="black" style="stroke-linecap:butt;stroke-linejoin:miter;" id="path2991" stroke-width="0.8" d="m212.598,388.346,0,2.26768"/>
       <path stroke-opacity="1" fill="none" stroke="black" style="stroke-linecap:butt;stroke-linejoin:miter;" id="path2993" stroke-width="0.8" d="m193.323,388.346,0,2.26768"/>
      </g>
     </g>
    </g>
   </g>
  </g>
  <g partID="316471">
   <g transform="translate(112.006,190.565)">
    <g transform="matrix(1, 0, 0, 1, -167.25, -382.666)">
     <g id="silkscreen">
      <g>
       <path stroke-opacity="1" fill="none" stroke="black" style="stroke-linecap:butt;stroke-linejoin:miter;" id="qw" stroke-width="0.8" d="m170.079,388.346,0,2.26768,45.3543,0,0,-2.26768z"/>
       <path stroke-opacity="1" fill="none" stroke="black" style="stroke-linecap:butt;stroke-linejoin:miter;" id="path2991" stroke-width="0.8" d="m212.598,388.346,0,2.26768"/>
       <path stroke-opacity="1" fill="none" stroke="black" style="stroke-linecap:butt;stroke-linejoin:miter;" id="path2993" stroke-width="0.8" d="m193.323,388.346,0,2.26768"/>
      </g>
     </g>
    </g>
   </g>
  </g>
  <g partID="316501">
   <g transform="translate(112.006,167.887)">
    <g transform="matrix(1, 0, 0, 1, -167.25, -382.666)">
     <g id="silkscreen">
      <g>
       <path stroke-opacity="1" fill="none" stroke="black" style="stroke-linecap:butt;stroke-linejoin:miter;" id="qw" stroke-width="0.8" d="m170.079,388.346,0,2.26768,45.3543,0,0,-2.26768z"/>
       <path stroke-opacity="1" fill="none" stroke="black" style="stroke-linecap:butt;stroke-linejoin:miter;" id="path2991" stroke-width="0.8" d="m212.598,388.346,0,2.26768"/>
       <path stroke-opacity="1" fill="none" stroke="black" style="stroke-linecap:butt;stroke-linejoin:miter;" id="path2993" stroke-width="0.8" d="m193.323,388.346,0,2.26768"/>
      </g>
     </g>
    </g>
   </g>
  </g>
  <g partID="316531">
   <g transform="translate(112.006,144.502)">
    <g transform="matrix(1, 0, 0, 1, -167.25, -382.666)">
     <g id="silkscreen">
      <g>
       <path stroke-opacity="1" fill="none" stroke="black" style="stroke-linecap:butt;stroke-linejoin:miter;" id="qw" stroke-width="0.8" d="m170.079,388.346,0,2.26768,45.3543,0,0,-2.26768z"/>
       <path stroke-opacity="1" fill="none" stroke="black" style="stroke-linecap:butt;stroke-linejoin:miter;" id="path2991" stroke-width="0.8" d="m212.598,388.346,0,2.26768"/>
       <path stroke-opacity="1" fill="none" stroke="black" style="stroke-linecap:butt;stroke-linejoin:miter;" id="path2993" stroke-width="0.8" d="m193.323,388.346,0,2.26768"/>
      </g>
     </g>
    </g>
   </g>
  </g>
  <g partID="316561">
   <g transform="translate(112.006,77.1784)">
    <g transform="matrix(1, 0, 0, 1, -167.25, -382.666)">
     <g id="silkscreen">
      <g>
       <path stroke-opacity="1" fill="none" stroke="black" style="stroke-linecap:butt;stroke-linejoin:miter;" id="qw" stroke-width="0.8" d="m170.079,388.346,0,2.26768,45.3543,0,0,-2.26768z"/>
       <path stroke-opacity="1" fill="none" stroke="black" style="stroke-linecap:butt;stroke-linejoin:miter;" id="path2991" stroke-width="0.8" d="m212.598,388.346,0,2.26768"/>
       <path stroke-opacity="1" fill="none" stroke="black" style="stroke-linecap:butt;stroke-linejoin:miter;" id="path2993" stroke-width="0.8" d="m193.323,388.346,0,2.26768"/>
      </g>
     </g>
    </g>
   </g>
  </g>
  <g id="partLabel" partID="283170">
   <g transform="translate(75.409,173.818)">
    <g fill="#000000" font-family="'OCRA'" stroke="none" font-style="normal" fill-opacity="1" font-weight="normal" id="silkscreenLabel" font-size="5">
     <text x="0" y="3.75">D2</text>
    </g>
   </g>
  </g>
  <g id="partLabel" partID="316410">
   <g transform="translate(160.589,116.224)">
    <g fill="#000000" font-family="'OCRA'" stroke="none" font-style="normal" fill-opacity="1" font-weight="normal" id="silkscreenLabel" font-size="5">
     <text x="0" y="3.75">J1</text>
    </g>
   </g>
  </g>
  <g id="partLabel" partID="1912010">
   <g transform="translate(128.841,4.7584)">
    <g fill="#000000" font-family="'OCRA'" stroke="none" font-style="normal" fill-opacity="1" font-weight="normal" id="silkscreenLabel" font-size="5">
     <text x="0" y="3.75">low beams</text>
    </g>
   </g>
  </g>
  <g id="partLabel" partID="1911760">
   <g transform="translate(160.589,25.5152)">
    <g fill="#000000" font-family="'OCRA'" stroke="none" font-style="normal" fill-opacity="1" font-weight="normal" id="silkscreenLabel" font-size="5">
     <text x="0" y="3.75">J7</text>
    </g>
   </g>
  </g>
  <g id="partLabel" partID="316440">
   <g transform="translate(160.589,93.5472)">
    <g fill="#000000" font-family="'OCRA'" stroke="none" font-style="normal" fill-opacity="1" font-weight="normal" id="silkscreenLabel" font-size="5">
     <text x="0" y="3.75">J2</text>
    </g>
   </g>
  </g>
  <g id="partLabel" partID="316470">
   <g transform="translate(160.589,184.965)">
    <g fill="#000000" font-family="'OCRA'" stroke="none" font-style="normal" fill-opacity="1" font-weight="normal" id="silkscreenLabel" font-size="5">
     <text x="0" y="3.75">J3</text>
    </g>
   </g>
  </g>
  <g id="partLabel" partID="1912310">
   <g transform="translate(161.298,48.9016)">
    <g fill="#000000" font-family="'OCRA'" stroke="none" font-style="normal" fill-opacity="1" font-weight="normal" id="silkscreenLabel" font-size="5">
     <text x="0" y="3.75">J9</text>
    </g>
   </g>
  </g>
  <g id="partLabel" partID="316500">
   <g transform="translate(160.589,162.287)">
    <g fill="#000000" font-family="'OCRA'" stroke="none" font-style="normal" fill-opacity="1" font-weight="normal" id="silkscreenLabel" font-size="5">
     <text x="0" y="3.75">J4</text>
    </g>
   </g>
  </g>
  <g id="partLabel" partID="282970">
   <g transform="translate(122.181,173.818)">
    <g fill="#000000" font-family="'OCRA'" stroke="none" font-style="normal" fill-opacity="1" font-weight="normal" id="silkscreenLabel" font-size="5">
     <text x="0" y="3.75">D1</text>
    </g>
   </g>
  </g>
  <g id="partLabel" partID="316560">
   <g transform="translate(160.589,71.5784)">
    <g fill="#000000" font-family="'OCRA'" stroke="none" font-style="normal" fill-opacity="1" font-weight="normal" id="silkscreenLabel" font-size="5">
     <text x="0" y="3.75">J6</text>
    </g>
   </g>
  </g>
  <g id="partLabel" partID="316530">
   <g transform="translate(160.589,138.902)">
    <g fill="#000000" font-family="'OCRA'" stroke="none" font-style="normal" fill-opacity="1" font-weight="normal" id="silkscreenLabel" font-size="5">
     <text x="0" y="3.75">J5</text>
    </g>
   </g>
  </g>
  <g id="partLabel" partID="317060">
   <g transform="translate(73.4865,111.182)">
    <g fill="#000000" font-family="'OCRA'" stroke="none" font-style="normal" fill-opacity="1" font-weight="normal" id="silkscreenLabel" font-size="5">
     <text x="0" y="3.75">J90</text>
    </g>
   </g>
  </g>
  <g id="partLabel" partID="283070">
   <g transform="translate(98.7949,173.818)">
    <g fill="#000000" font-family="'OCRA'" stroke="none" font-style="normal" fill-opacity="1" font-weight="normal" id="silkscreenLabel" font-size="5">
     <text x="0" y="3.75">D3</text>
    </g>
   </g>
  </g>
  <g id="partLabel" partID="1922640">
   <g transform="translate(24.4561,153.553)">
    <g fill="#000000" font-family="'OCRA'" stroke="none" font-style="normal" fill-opacity="1" font-weight="normal" id="silkscreenLabel" font-size="5">
     <text x="0" y="3.75">R1</text>
    </g>
   </g>
  </g>
  <g id="partLabel" partID="1911650">
   <g transform="translate(71.4865,27.868)">
    <g fill="#000000" font-family="'OCRA'" stroke="none" font-style="normal" fill-opacity="1" font-weight="normal" id="silkscreenLabel" font-size="5">
     <text x="0" y="3.75">J336</text>
    </g>
   </g>
  </g>
  <g id="partLabel" partID="1922670">
   <g transform="translate(25.1648,43.0016)">
    <g fill="#000000" font-family="'OCRA'" stroke="none" font-style="normal" fill-opacity="1" font-weight="normal" id="silkscreenLabel" font-size="5">
     <text x="0" y="3.75">R2</text>
    </g>
   </g>
  </g>
  <g partID="1922671">
   <g transform="translate(28.1888,22.3216)">
    <g transform="matrix(4.44089e-16,1,-1,4.44089e-16,0,0)">
     <g id="copper1">
      <rect width="4.464" x="0.72" y="3.24" fill="white" height="4.608" stroke="white" stroke-width="2.16"/>
      <circle fill="white" cx="2.952" cy="5.472" stroke="white" r="2.232" id="connector0pin" stroke-width="2.16"/>
      <circle fill="white" cx="60.552" cy="5.472" stroke="white" r="2.232" id="connector1pin" stroke-width="2.16"/>
     </g>
    </g>
   </g>
  </g>
  <g partID="1922641">
   <g transform="translate(27.4801,132.873)">
    <g transform="matrix(2.22045e-16,1,-1,2.22045e-16,0,0)">
     <g id="copper1">
      <rect width="4.464" x="0.72" y="3.24" fill="white" height="4.608" stroke="white" stroke-width="2.16"/>
      <circle fill="white" cx="2.952" cy="5.472" stroke="white" r="2.232" id="connector0pin" stroke-width="2.16"/>
      <circle fill="white" cx="60.552" cy="5.472" stroke="white" r="2.232" id="connector1pin" stroke-width="2.16"/>
     </g>
    </g>
   </g>
  </g>
 </g>
</svg>
