<?xml version='1.0' encoding='UTF-8' standalone='no'?>
<!-- Created with Fritzing (http://www.fritzing.org/) -->
<svg xmlns="http://www.w3.org/2000/svg" width="1.35827in" x="0in" version="1.2" y="0in"  height="2.3622in" viewBox="0 0 97.7953 170.079" baseProfile="tiny" xmlns:svg="http://www.w3.org/2000/svg">
 <g transform="matrix(-1, 0, 0, 1, 97.7953, 0)">
  <g partID="12040">
   <g id="board">
    <rect width="97.2193" x="0.288" y="0.288" fill="none" height="169.503" stroke="black" fill-opacity="0.5" id="boardoutline" stroke-width="0.5"/>
   </g>
  </g>
  <g partID="1910460">
   <g transform="translate(2.88,2.88)">
    <g  id="groundplane">
     <polygon fill="black" points="0,0,0,6.048,48.816,6.048,48.816,6.192,49.68,6.192,49.68,6.336,50.112,6.336,50.112,6.48,50.4,6.48,50.4,6.624,50.688,6.624,50.688,6.768,50.976,6.768,50.976,6.912,51.264,6.912,51.264,7.056,51.408,7.056,51.408,7.2,51.696,7.2,51.696,7.344,51.84,7.344,51.84,7.488,51.984,7.488,51.984,7.632,52.128,7.632,52.128,7.776,52.272,7.776,52.272,7.92,52.416,7.92,52.416,8.064,52.56,8.064,52.56,8.208,52.704,8.208,52.704,8.352,52.848,8.352,52.848,8.64,52.992,8.64,52.992,8.784,53.136,8.784,53.136,9.072,80.208,9.072,80.208,9.216,80.784,9.216,80.784,9.36,81.216,9.36,81.216,9.504,81.36,9.504,81.36,9.648,81.504,9.648,81.504,9.792,81.648,9.792,81.648,9.936,81.792,9.936,81.792,10.08,81.936,10.08,81.936,10.224,82.08,10.224,82.08,10.512,82.224,10.512,82.224,10.8,82.368,10.8,82.368,11.52,88.704,11.52,88.704,11.664,89.28,11.664,89.28,11.808,89.712,11.808,89.712,11.952,90.144,11.952,90.144,12.096,90.432,12.096,90.432,12.24,92.016,12.24,92.016,0"  stroke="none" stroke-width="0"/>
     <polygon fill="black" points="0,6.048,0,16.848,13.104,16.848,13.104,16.704,12.672,16.704,12.672,16.56,12.24,16.56,12.24,16.416,11.952,16.416,11.952,16.272,11.664,16.272,11.664,16.128,11.376,16.128,11.376,15.984,11.232,15.984,11.232,15.84,11.088,15.84,11.088,15.696,10.8,15.696,10.8,15.552,10.656,15.552,10.656,15.408,10.512,15.408,10.512,15.264,10.368,15.264,10.368,15.12,10.224,15.12,10.224,14.976,10.08,14.976,10.08,14.832,9.936,14.832,9.936,14.544,9.792,14.544,9.792,14.4,9.648,14.4,9.648,14.256,9.504,14.256,9.504,13.968,9.36,13.968,9.36,13.68,9.216,13.68,9.216,13.392,9.072,13.392,9.072,13.104,8.928,13.104,8.928,12.672,8.784,12.672,8.784,11.808,8.64,11.808,8.64,11.232,8.784,11.232,8.784,10.368,8.928,10.368,8.928,9.936,9.072,9.936,9.072,9.648,9.216,9.648,9.216,9.36,9.36,9.36,9.36,9.072,9.504,9.072,9.504,8.784,9.648,8.784,9.648,8.64,9.792,8.64,9.792,8.352,9.936,8.352,9.936,8.208,10.08,8.208,10.08,8.064,10.224,8.064,10.224,7.92,10.368,7.92,10.368,7.776,10.512,7.776,10.512,7.632,10.656,7.632,10.656,7.488,10.8,7.488,10.8,7.344,10.944,7.344,10.944,7.2,11.232,7.2,11.232,7.056,11.376,7.056,11.376,6.912,11.664,6.912,11.664,6.768,11.952,6.768,11.952,6.624,12.24,6.624,12.24,6.48,12.528,6.48,12.528,6.336,12.96,6.336,12.96,6.192,13.824,6.192,13.824,6.048"  stroke="none" stroke-width="0"/>
     <polygon fill="black" points="14.4,6.048,14.4,6.192,15.264,6.192,15.264,6.336,15.696,6.336,15.696,6.48,15.984,6.48,15.984,6.624,16.272,6.624,16.272,6.768,16.56,6.768,16.56,6.912,16.848,6.912,16.848,7.056,16.992,7.056,16.992,7.2,17.136,7.2,17.136,7.344,17.424,7.344,17.424,7.488,17.568,7.488,17.568,7.632,17.712,7.632,17.712,7.776,17.856,7.776,17.856,7.92,18,7.92,18,8.064,18.144,8.064,18.144,8.208,18.288,8.208,18.288,8.496,18.432,8.496,18.432,8.64,18.576,8.64,18.576,8.784,18.72,8.784,18.72,9.072,25.776,9.072,25.776,9.216,26.352,9.216,26.352,9.36,26.64,9.36,26.64,9.504,26.784,9.504,26.784,9.648,27.072,9.648,27.072,9.792,27.216,9.792,27.216,10.08,27.36,10.08,27.36,10.224,27.504,10.224,27.504,10.512,27.648,10.512,27.648,10.8,27.792,10.8,27.792,16.848,47.52,16.848,47.52,16.704,47.088,16.704,47.088,16.56,46.656,16.56,46.656,16.416,46.368,16.416,46.368,16.272,46.08,16.272,46.08,16.128,45.936,16.128,45.936,15.984,45.648,15.984,45.648,15.84,45.504,15.84,45.504,15.696,45.36,15.696,45.36,15.552,45.072,15.552,45.072,15.408,44.928,15.408,44.928,15.264,44.784,15.264,44.784,15.12,44.64,15.12,44.64,14.976,44.496,14.976,44.496,14.688,44.352,14.688,44.352,14.544,44.208,14.544,44.208,14.4,44.064,14.4,44.064,14.112,43.92,14.112,43.92,13.968,43.776,13.968,43.776,13.68,43.632,13.68,43.632,13.392,43.488,13.392,43.488,12.96,43.344,12.96,43.344,12.528,43.2,12.528,43.2,10.512,43.344,10.512,43.344,9.936,43.488,9.936,43.488,9.648,43.632,9.648,43.632,9.36,43.776,9.36,43.776,9.072,43.92,9.072,43.92,8.784,44.064,8.784,44.064,8.64,44.208,8.64,44.208,8.496,44.352,8.496,44.352,8.208,44.496,8.208,44.496,8.064,44.64,8.064,44.64,7.92,44.784,7.92,44.784,7.776,44.928,7.776,44.928,7.632,45.072,7.632,45.072,7.488,45.216,7.488,45.216,7.344,45.504,7.344,45.504,7.2,45.648,7.2,45.648,7.056,45.792,7.056,45.792,6.912,46.08,6.912,46.08,6.768,46.368,6.768,46.368,6.624,46.656,6.624,46.656,6.48,46.944,6.48,46.944,6.336,47.376,6.336,47.376,6.192,48.24,6.192,48.24,6.048"  stroke="none" stroke-width="0"/>
     <polygon fill="black" points="18.72,13.968,18.72,14.112,18.576,14.112,18.576,14.4,18.432,14.4,18.432,14.544,18.288,14.544,18.288,14.688,18.144,14.688,18.144,14.976,18,14.976,18,15.12,17.856,15.12,17.856,15.264,17.712,15.264,17.712,15.408,17.568,15.408,17.568,15.552,17.28,15.552,17.28,15.696,17.136,15.696,17.136,15.84,16.992,15.84,16.992,15.984,16.704,15.984,16.704,16.128,16.56,16.128,16.56,16.272,16.272,16.272,16.272,16.416,15.984,16.416,15.984,16.56,15.552,16.56,15.552,16.704,15.12,16.704,15.12,16.848,22.896,16.848,22.896,13.968"  stroke="none" stroke-width="0"/>
     <polygon fill="black" points="53.136,13.968,53.136,14.256,52.992,14.256,52.992,14.4,52.848,14.4,52.848,14.544,52.704,14.544,52.704,14.832,52.56,14.832,52.56,14.976,52.416,14.976,52.416,15.12,52.272,15.12,52.272,15.264,52.128,15.264,52.128,15.408,51.984,15.408,51.984,15.552,51.84,15.552,51.84,15.696,51.552,15.696,51.552,15.84,51.408,15.84,51.408,15.984,51.264,15.984,51.264,16.128,50.976,16.128,50.976,16.272,50.688,16.272,50.688,16.416,50.4,16.416,50.4,16.56,49.968,16.56,49.968,16.704,49.536,16.704,49.536,16.848,65.52,16.848,65.52,16.416,65.664,16.416,65.664,16.128,65.808,16.128,65.808,15.696,65.952,15.696,65.952,15.552,66.096,15.552,66.096,13.968"  stroke="none" stroke-width="0"/>
     <polygon fill="black" points="0,16.848,0,16.992,22.896,16.992,22.896,16.848"  stroke="none" stroke-width="0"/>
     <polygon fill="black" points="0,16.848,0,16.992,22.896,16.992,22.896,16.848"  stroke="none" stroke-width="0"/>
     <polygon fill="black" points="27.792,16.848,27.792,16.992,65.376,16.992,65.376,16.848"  stroke="none" stroke-width="0"/>
     <polygon fill="black" points="27.792,16.848,27.792,16.992,65.376,16.992,65.376,16.848"  stroke="none" stroke-width="0"/>
     <polygon fill="black" points="0,16.992,0,23.184,9.36,23.184,9.36,23.328,9.792,23.328,9.792,23.472,10.224,23.472,10.224,23.616,10.512,23.616,10.512,23.76,10.8,23.76,10.8,23.904,10.944,23.904,10.944,24.048,11.232,24.048,11.232,24.192,11.376,24.192,11.376,24.336,11.52,24.336,11.52,24.48,11.664,24.48,11.664,24.624,11.808,24.624,11.808,24.768,12.096,24.768,12.096,25.056,12.24,25.056,12.24,25.2,12.384,25.2,12.384,25.344,12.528,25.344,12.528,25.488,12.672,25.488,12.672,25.776,12.816,25.776,12.816,25.92,12.96,25.92,12.96,26.208,13.104,26.208,13.104,26.496,13.248,26.496,13.248,26.784,13.392,26.784,13.392,27.216,13.536,27.216,13.536,27.792,13.68,27.792,13.68,29.232,13.536,29.232,13.536,29.808,13.392,29.808,13.392,30.24,13.248,30.24,13.248,30.528,13.104,30.528,13.104,30.816,12.96,30.816,12.96,31.104,12.816,31.104,12.816,31.248,12.672,31.248,12.672,31.536,12.528,31.536,12.528,31.68,12.384,31.68,12.384,31.824,12.24,31.824,12.24,31.968,12.096,31.968,12.096,32.256,11.952,32.256,11.952,32.4,11.664,32.4,11.664,32.544,11.52,32.544,11.52,32.688,11.376,32.688,11.376,32.832,11.232,32.832,11.232,32.976,10.944,32.976,10.944,33.12,10.8,33.12,10.8,33.264,10.512,33.264,10.512,33.408,10.224,33.408,10.224,33.552,9.792,33.552,9.792,33.696,9.36,33.696,9.36,33.84,22.896,33.84,22.896,16.992"  stroke="none" stroke-width="0"/>
     <polygon fill="black" points="27.792,16.992,27.792,27.072,71.28,27.072,71.28,26.928,70.704,26.928,70.704,26.784,70.272,26.784,70.272,26.64,69.84,26.64,69.84,26.496,69.552,26.496,69.552,26.352,69.264,26.352,69.264,26.208,68.976,26.208,68.976,26.064,68.688,26.064,68.688,25.92,68.544,25.92,68.544,25.776,68.256,25.776,68.256,25.632,68.112,25.632,68.112,25.488,67.968,25.488,67.968,25.344,67.68,25.344,67.68,25.2,67.536,25.2,67.536,25.056,67.392,25.056,67.392,24.912,67.248,24.912,67.248,24.768,67.104,24.768,67.104,24.624,66.96,24.624,66.96,24.336,66.816,24.336,66.816,24.192,66.672,24.192,66.672,24.048,66.528,24.048,66.528,23.904,66.384,23.904,66.384,23.616,66.24,23.616,66.24,23.328,66.096,23.328,66.096,23.184,65.952,23.184,65.952,22.896,65.808,22.896,65.808,22.608,65.664,22.608,65.664,22.176,65.52,22.176,65.52,21.744,65.376,21.744,65.376,21.312,65.232,21.312,65.232,20.448,65.088,20.448,65.088,18.144,65.232,18.144,65.232,17.424,65.376,17.424,65.376,16.992"  stroke="none" stroke-width="0"/>
     <polygon fill="black" points="0,23.184,0,26.208,3.6,26.208,3.6,25.92,3.744,25.92,3.744,25.776,3.888,25.776,3.888,25.488,4.032,25.488,4.032,25.344,4.176,25.344,4.176,25.2,4.32,25.2,4.32,25.056,4.464,25.056,4.464,24.912,4.608,24.912,4.608,24.768,4.752,24.768,4.752,24.624,4.896,24.624,4.896,24.48,5.04,24.48,5.04,24.336,5.184,24.336,5.184,24.192,5.328,24.192,5.328,24.048,5.616,24.048,5.616,23.904,5.904,23.904,5.904,23.76,6.048,23.76,6.048,23.616,6.336,23.616,6.336,23.472,6.768,23.472,6.768,23.328,7.2,23.328,7.2,23.184"  stroke="none" stroke-width="0"/>
     <polygon fill="black" points="90.432,26.352,90.432,26.496,90.144,26.496,90.144,26.64,89.712,26.64,89.712,26.784,89.28,26.784,89.28,26.928,88.704,26.928,88.704,27.072,92.016,27.072,92.016,26.352"  stroke="none" stroke-width="0"/>
     <polygon fill="black" points="27.792,27.072,27.792,27.216,92.016,27.216,92.016,27.072"  stroke="none" stroke-width="0"/>
     <polygon fill="black" points="27.792,27.072,27.792,27.216,92.016,27.216,92.016,27.072"  stroke="none" stroke-width="0"/>
     <polygon fill="black" points="27.792,27.216,27.792,31.104,80.064,31.104,80.064,31.248,80.496,31.248,80.496,31.392,80.64,31.392,80.64,31.536,80.928,31.536,80.928,31.68,81.072,31.68,81.072,31.824,81.216,31.824,81.216,31.968,81.36,31.968,81.36,32.256,81.504,32.256,81.504,32.544,81.648,32.544,81.648,32.976,81.792,32.976,81.792,34.56,81.936,34.56,81.936,37.008,88.56,37.008,88.56,37.152,89.136,37.152,89.136,37.296,89.712,37.296,89.712,37.44,90,37.44,90,37.584,90.432,37.584,90.432,37.728,92.016,37.728,92.016,27.216"  stroke="none" stroke-width="0"/>
     <polygon fill="black" points="3.168,32.112,3.168,33.84,7.2,33.84,7.2,33.696,6.768,33.696,6.768,33.552,6.336,33.552,6.336,33.408,6.048,33.408,6.048,33.264,5.904,33.264,5.904,33.12,5.616,33.12,5.616,32.976,5.328,32.976,5.328,32.832,5.184,32.832,5.184,32.688,5.04,32.688,5.04,32.544,4.896,32.544,4.896,32.4,4.752,32.4,4.752,32.256,4.608,32.256,4.608,32.112"  stroke="none" stroke-width="0"/>
     <polygon fill="black" points="3.168,33.84,3.168,33.984,22.896,33.984,22.896,33.84"  stroke="none" stroke-width="0"/>
     <polygon fill="black" points="3.168,33.84,3.168,33.984,22.896,33.984,22.896,33.84"  stroke="none" stroke-width="0"/>
     <polygon fill="black" points="3.168,33.984,3.168,36.144,4.752,36.144,4.752,36,6.048,36,6.048,35.856,10.224,35.856,10.224,35.712,14.4,35.712,14.4,35.568,18.576,35.568,18.576,35.424,22.608,35.424,22.608,34.992,22.752,34.992,22.752,34.128,22.896,34.128,22.896,33.984"  stroke="none" stroke-width="0"/>
     <g  id="connector0pad">
      <circle fill="black" cx="56.0838"  cy="4.4874" stroke="none" r="2.7" stroke-width="0"/>
     </g>
    </g>
   </g>
  </g>
  <g partID="1910490">
   <g transform="translate(6.336,70.704)">
    <g  id="groundplane">
     <polygon fill="black" points="0,0,0,0.144,1.584,0.144,1.584,0"  stroke="none" stroke-width="0"/>
     <polygon fill="black" points="0,0.144,0,2.88,9.648,2.88,9.648,2.736,9.072,2.736,9.072,2.592,8.784,2.592,8.784,2.448,8.496,2.448,8.496,2.304,8.208,2.304,8.208,2.16,7.92,2.16,7.92,2.016,7.776,2.016,7.776,1.872,7.632,1.872,7.632,1.728,7.344,1.728,7.344,1.584,7.2,1.584,7.2,1.44,7.056,1.44,7.056,1.296,6.912,1.296,6.912,1.152,6.768,1.152,6.768,1.008,6.624,1.008,6.624,0.864,6.48,0.864,6.48,0.576,6.336,0.576,6.336,0.432,6.192,0.432,6.192,0.288,6.048,0.288,6.048,0.144"  stroke="none" stroke-width="0"/>
     <polygon fill="black" points="15.12,0.144,15.12,0.432,14.976,0.432,14.976,0.576,14.832,0.576,14.832,0.72,14.688,0.72,14.688,1.008,14.544,1.008,14.544,1.152,14.4,1.152,14.4,1.296,14.256,1.296,14.256,1.44,14.112,1.44,14.112,1.584,13.824,1.584,13.824,1.728,13.68,1.728,13.68,1.872,13.536,1.872,13.536,2.016,13.248,2.016,13.248,2.16,13.104,2.16,13.104,2.304,12.816,2.304,12.816,2.448,12.528,2.448,12.528,2.592,12.096,2.592,12.096,2.736,11.664,2.736,11.664,2.88,18.864,2.88,18.864,0.144"  stroke="none" stroke-width="0"/>
     <polygon fill="black" points="0,2.88,0,3.024,18.864,3.024,18.864,2.88"  stroke="none" stroke-width="0"/>
     <polygon fill="black" points="0,2.88,0,3.024,18.864,3.024,18.864,2.88"  stroke="none" stroke-width="0"/>
     <polygon fill="black" points="0,3.024,0,9.216,5.904,9.216,5.904,9.36,6.336,9.36,6.336,9.504,6.768,9.504,6.768,9.648,7.056,9.648,7.056,9.792,7.344,9.792,7.344,9.936,7.488,9.936,7.488,10.08,7.776,10.08,7.776,10.224,7.92,10.224,7.92,10.368,8.064,10.368,8.064,10.512,8.208,10.512,8.208,10.656,8.352,10.656,8.352,10.8,8.496,10.8,8.496,10.944,8.64,10.944,8.64,11.088,8.784,11.088,8.784,11.232,8.928,11.232,8.928,11.376,9.072,11.376,9.072,11.52,9.216,11.52,9.216,11.808,9.36,11.808,9.36,11.952,9.504,11.952,9.504,12.24,9.648,12.24,9.648,12.528,9.792,12.528,9.792,12.816,9.936,12.816,9.936,13.248,10.08,13.248,10.08,13.824,10.224,13.824,10.224,15.264,10.08,15.264,10.08,15.84,9.936,15.84,9.936,16.272,9.792,16.272,9.792,16.56,9.648,16.56,9.648,16.848,9.504,16.848,9.504,17.136,9.36,17.136,9.36,17.28,9.216,17.28,9.216,17.568,9.072,17.568,9.072,17.712,8.928,17.712,8.928,17.856,8.784,17.856,8.784,18,8.64,18,8.64,18.288,8.496,18.288,8.496,18.432,8.208,18.432,8.208,18.576,8.064,18.576,8.064,18.72,7.92,18.72,7.92,18.864,7.776,18.864,7.776,19.008,7.488,19.008,7.488,19.152,7.344,19.152,7.344,19.296,7.056,19.296,7.056,19.44,6.768,19.44,6.768,19.584,6.336,19.584,6.336,19.728,5.904,19.728,5.904,19.872,18.864,19.872,18.864,3.024"  stroke="none" stroke-width="0"/>
     <polygon fill="black" points="0,9.216,0,10.656,1.44,10.656,1.44,10.512,1.584,10.512,1.584,10.368,1.728,10.368,1.728,10.224,2.016,10.224,2.016,10.08,2.16,10.08,2.16,9.936,2.448,9.936,2.448,9.792,2.592,9.792,2.592,9.648,2.88,9.648,2.88,9.504,3.312,9.504,3.312,9.36,3.744,9.36,3.744,9.216"  stroke="none" stroke-width="0"/>
     <polygon fill="black" points="0,18.432,0,19.872,3.744,19.872,3.744,19.728,3.312,19.728,3.312,19.584,2.88,19.584,2.88,19.44,2.592,19.44,2.592,19.296,2.448,19.296,2.448,19.152,2.16,19.152,2.16,19.008,1.872,19.008,1.872,18.864,1.728,18.864,1.728,18.72,1.584,18.72,1.584,18.576,1.44,18.576,1.44,18.432"  stroke="none" stroke-width="0"/>
     <polygon fill="black" points="0,19.872,0,20.016,18.864,20.016,18.864,19.872"  stroke="none" stroke-width="0"/>
     <polygon fill="black" points="0,19.872,0,20.016,18.864,20.016,18.864,19.872"  stroke="none" stroke-width="0"/>
     <polygon fill="black" points="0,20.016,0,21.888,1.44,21.888,1.44,21.744,1.728,21.744,1.728,21.6,2.16,21.6,2.16,21.456,18.864,21.456,18.864,20.016"  stroke="none" stroke-width="0"/>
     <g  id="connector0pad">
      <circle fill="black" cx="12.0793"  cy="8.09402" stroke="none" r="2.7" stroke-width="0"/>
     </g>
    </g>
   </g>
  </g>
  <g partID="1910520">
   <g transform="translate(6.336,104.688)">
    <g  id="groundplane">
     <polygon fill="black" points="15.264,0,15.264,0.288,15.12,0.288,15.12,0.432,14.976,0.432,14.976,0.576,14.832,0.576,14.832,0.864,14.688,0.864,14.688,1.008,14.544,1.008,14.544,1.152,14.4,1.152,14.4,1.296,14.256,1.296,14.256,1.44,14.112,1.44,14.112,1.584,13.968,1.584,13.968,1.728,13.824,1.728,13.824,1.872,13.536,1.872,13.536,2.016,13.392,2.016,13.392,2.16,13.104,2.16,13.104,2.304,12.816,2.304,12.816,2.448,12.528,2.448,12.528,2.592,12.24,2.592,12.24,2.736,11.808,2.736,11.808,2.88,10.944,2.88,10.944,3.024,29.952,3.024,29.952,0.576,29.808,0.576,29.808,0"  stroke="none" stroke-width="0"/>
     <polygon fill="black" points="5.184,0.864,5.184,3.024,10.368,3.024,10.368,2.88,9.504,2.88,9.504,2.736,9.072,2.736,9.072,2.592,8.784,2.592,8.784,2.448,8.352,2.448,8.352,2.304,8.208,2.304,8.208,2.16,7.92,2.16,7.92,2.016,7.776,2.016,7.776,1.872,7.488,1.872,7.488,1.728,7.344,1.728,7.344,1.584,7.2,1.584,7.2,1.44,7.056,1.44,7.056,1.296,6.912,1.296,6.912,1.152,6.768,1.152,6.768,1.008,6.624,1.008,6.624,0.864"  stroke="none" stroke-width="0"/>
     <polygon fill="black" points="5.184,3.024,5.184,3.168,29.952,3.168,29.952,3.024"  stroke="none" stroke-width="0"/>
     <polygon fill="black" points="5.184,3.024,5.184,3.168,29.952,3.168,29.952,3.024"  stroke="none" stroke-width="0"/>
     <polygon fill="black" points="5.184,3.168,5.184,14.112,11.232,14.112,11.232,14.256,11.808,14.256,11.808,14.4,12.24,14.4,12.24,14.544,12.672,14.544,12.672,14.688,12.96,14.688,12.96,14.832,13.104,14.832,13.104,14.976,13.392,14.976,13.392,15.12,13.536,15.12,13.536,15.264,13.824,15.264,13.824,15.408,13.968,15.408,13.968,15.552,14.112,15.552,14.112,15.696,14.256,15.696,14.256,15.84,14.4,15.84,14.4,15.984,14.544,15.984,14.544,16.128,14.688,16.128,14.688,16.272,14.832,16.272,14.832,16.416,14.976,16.416,14.976,16.704,15.12,16.704,15.12,16.848,15.264,16.848,15.264,17.136,15.408,17.136,15.408,17.424,15.552,17.424,15.552,17.712,15.696,17.712,15.696,18,15.84,18,15.84,18.576,15.984,18.576,15.984,20.592,15.84,20.592,15.84,21.024,15.696,21.024,15.696,21.456,15.552,21.456,15.552,21.744,15.408,21.744,15.408,22.032,15.264,22.032,15.264,22.176,15.12,22.176,15.12,22.464,14.976,22.464,14.976,22.608,14.832,22.608,14.832,22.752,14.688,22.752,14.688,22.896,14.544,22.896,14.544,23.184,14.4,23.184,14.4,23.328,14.256,23.328,14.256,23.472,13.968,23.472,13.968,23.616,13.824,23.616,13.824,23.76,13.68,23.76,13.68,23.904,13.536,23.904,13.536,24.048,13.248,24.048,13.248,24.192,12.96,24.192,12.96,24.336,12.816,24.336,12.816,24.48,12.384,24.48,12.384,24.624,12.096,24.624,12.096,24.768,11.52,24.768,11.52,24.912,29.952,24.912,29.952,3.168"  stroke="none" stroke-width="0"/>
     <polygon fill="black" points="5.184,14.112,5.184,16.272,6.624,16.272,6.624,16.128,6.768,16.128,6.768,15.984,6.912,15.984,6.912,15.84,7.056,15.84,7.056,15.696,7.2,15.696,7.2,15.552,7.344,15.552,7.344,15.408,7.488,15.408,7.488,15.264,7.632,15.264,7.632,15.12,7.92,15.12,7.92,14.976,8.064,14.976,8.064,14.832,8.352,14.832,8.352,14.688,8.64,14.688,8.64,14.544,8.928,14.544,8.928,14.4,9.36,14.4,9.36,14.256,10.08,14.256,10.08,14.112"  stroke="none" stroke-width="0"/>
     <polygon fill="black" points="0,21.456,0,24.912,9.792,24.912,9.792,24.768,9.216,24.768,9.216,24.624,8.784,24.624,8.784,24.48,8.496,24.48,8.496,24.336,8.208,24.336,8.208,24.192,8.064,24.192,8.064,24.048,7.776,24.048,7.776,23.904,7.632,23.904,7.632,23.76,7.488,23.76,7.488,23.616,7.2,23.616,7.2,23.472,7.056,23.472,7.056,23.328,6.912,23.328,6.912,23.184,6.768,23.184,6.768,23.04,6.624,23.04,6.624,22.752,6.48,22.752,6.48,22.608,6.336,22.608,6.336,22.464,6.192,22.464,6.192,22.176,6.048,22.176,6.048,22.032,5.904,22.032,5.904,21.888,2.016,21.888,2.016,21.744,1.728,21.744,1.728,21.6,1.44,21.6,1.44,21.456"  stroke="none" stroke-width="0"/>
     <polygon fill="black" points="0,24.912,0,25.056,29.952,25.056,29.952,24.912"  stroke="none" stroke-width="0"/>
     <polygon fill="black" points="0,24.912,0,25.056,29.952,25.056,29.952,24.912"  stroke="none" stroke-width="0"/>
     <polygon fill="black" points="0,25.056,0,31.104,5.328,31.104,5.328,31.248,6.048,31.248,6.048,31.392,6.48,31.392,6.48,31.536,6.768,31.536,6.768,31.68,7.056,31.68,7.056,31.824,7.344,31.824,7.344,31.968,7.488,31.968,7.488,32.112,7.776,32.112,7.776,32.256,7.92,32.256,7.92,32.4,8.064,32.4,8.064,32.544,8.352,32.544,8.352,32.688,8.496,32.688,8.496,32.832,8.64,32.832,8.64,32.976,8.784,32.976,8.784,33.12,8.928,33.12,8.928,33.408,9.072,33.408,9.072,33.552,9.216,33.552,9.216,33.696,9.36,33.696,9.36,33.984,9.504,33.984,9.504,34.272,9.648,34.272,9.648,34.416,9.792,34.416,9.792,34.848,9.936,34.848,9.936,35.136,10.08,35.136,10.08,35.712,10.224,35.712,10.224,37.296,10.08,37.296,10.08,37.872,9.936,37.872,9.936,38.304,9.792,38.304,9.792,38.592,9.648,38.592,9.648,38.88,9.504,38.88,9.504,39.168,9.36,39.168,9.36,39.312,9.216,39.312,9.216,39.6,9.072,39.6,9.072,39.744,8.928,39.744,8.928,39.888,8.784,39.888,8.784,40.032,8.64,40.032,8.64,40.176,8.496,40.176,8.496,40.32,8.352,40.32,8.352,40.464,8.208,40.464,8.208,40.608,8.064,40.608,8.064,40.752,7.92,40.752,7.92,40.896,7.632,40.896,7.632,41.04,7.488,41.04,7.488,41.184,7.2,41.184,7.2,41.328,6.912,41.328,6.912,41.472,6.624,41.472,6.624,41.616,6.336,41.616,6.336,41.76,5.76,41.76,5.76,41.904,30.096,41.904,30.096,27.504,29.952,27.504,29.952,25.056"  stroke="none" stroke-width="0"/>
     <polygon fill="black" points="0,31.104,0,32.688,1.44,32.688,1.44,32.544,1.584,32.544,1.584,32.4,1.728,32.4,1.728,32.256,1.872,32.256,1.872,32.112,2.16,32.112,2.16,31.968,2.304,31.968,2.304,31.824,2.592,31.824,2.592,31.68,2.88,31.68,2.88,31.536,3.168,31.536,3.168,31.392,3.6,31.392,3.6,31.248,4.464,31.248,4.464,31.104"  stroke="none" stroke-width="0"/>
     <polygon fill="black" points="0,40.464,0,40.608,0.144,40.608,0.144,41.904,3.888,41.904,3.888,41.76,3.312,41.76,3.312,41.616,3.024,41.616,3.024,41.472,2.736,41.472,2.736,41.328,2.448,41.328,2.448,41.184,2.16,41.184,2.16,41.04,2.016,41.04,2.016,40.896,1.728,40.896,1.728,40.752,1.584,40.752,1.584,40.608,1.44,40.608,1.44,40.464"  stroke="none" stroke-width="0"/>
     <polygon fill="black" points="0.144,41.904,0.144,42.048,30.096,42.048,30.096,41.904"  stroke="none" stroke-width="0"/>
     <polygon fill="black" points="0.144,41.904,0.144,42.048,30.096,42.048,30.096,41.904"  stroke="none" stroke-width="0"/>
     <polygon fill="black" points="0.144,42.048,0.144,48.096,10.944,48.096,10.944,48.24,11.808,48.24,11.808,48.384,12.24,48.384,12.24,48.528,12.528,48.528,12.528,48.672,12.816,48.672,12.816,48.816,13.104,48.816,13.104,48.96,13.392,48.96,13.392,49.104,13.536,49.104,13.536,49.248,13.68,49.248,13.68,49.392,13.968,49.392,13.968,49.536,14.112,49.536,14.112,49.68,14.256,49.68,14.256,49.824,14.4,49.824,14.4,49.968,14.544,49.968,14.544,50.112,14.688,50.112,14.688,50.256,14.832,50.256,14.832,50.544,14.976,50.544,14.976,50.688,15.12,50.688,15.12,50.832,15.264,50.832,15.264,51.12,15.408,51.12,15.408,51.264,18.144,51.264,18.144,51.408,22.896,51.408,22.896,51.552,27.648,51.552,27.648,51.696,30.096,51.696,30.096,42.048"  stroke="none" stroke-width="0"/>
     <polygon fill="black" points="0.144,48.096,0.144,52.992,0.288,52.992,0.288,59.76,8.496,59.76,8.496,58.32,8.208,58.32,8.208,58.176,7.92,58.176,7.92,58.032,7.776,58.032,7.776,57.888,7.632,57.888,7.632,57.744,7.344,57.744,7.344,57.6,7.2,57.6,7.2,57.456,7.056,57.456,7.056,57.312,6.912,57.312,6.912,57.168,6.768,57.168,6.768,57.024,6.624,57.024,6.624,56.88,6.48,56.88,6.48,56.592,6.336,56.592,6.336,56.448,6.192,56.448,6.192,56.304,6.048,56.304,6.048,56.016,5.904,56.016,5.904,55.728,5.76,55.728,5.76,55.44,5.616,55.44,5.616,55.152,5.472,55.152,5.472,54.72,5.328,54.72,5.328,53.856,5.184,53.856,5.184,53.28,5.328,53.28,5.328,52.416,5.472,52.416,5.472,51.984,5.616,51.984,5.616,51.696,5.76,51.696,5.76,51.408,5.904,51.408,5.904,51.12,6.048,51.12,6.048,50.832,6.192,50.832,6.192,50.688,6.336,50.688,6.336,50.4,6.48,50.4,6.48,50.256,6.624,50.256,6.624,50.112,6.768,50.112,6.768,49.968,6.912,49.968,6.912,49.824,7.056,49.824,7.056,49.68,7.2,49.68,7.2,49.536,7.344,49.536,7.344,49.392,7.488,49.392,7.488,49.248,7.776,49.248,7.776,49.104,7.92,49.104,7.92,48.96,8.208,48.96,8.208,48.816,8.496,48.816,8.496,48.672,8.784,48.672,8.784,48.528,9.072,48.528,9.072,48.384,9.504,48.384,9.504,48.24,10.368,48.24,10.368,48.096"  stroke="none" stroke-width="0"/>
     <g  id="connector0pad">
      <circle fill="black" cx="10.569"  cy="8.42623" stroke="none" r="2.7" stroke-width="0"/>
     </g>
    </g>
   </g>
  </g>
  <g partID="1910550">
   <g transform="translate(10.944,50.688)">
    <g  id="groundplane">
     <polygon fill="black" points="22.176,0,22.176,0.144,10.656,0.144,10.656,0.432,10.512,0.432,10.512,0.576,10.368,0.576,10.368,0.72,10.224,0.72,10.224,1.008,10.08,1.008,10.08,1.152,9.936,1.152,9.936,1.296,9.792,1.296,9.792,1.44,9.648,1.44,9.648,1.584,9.504,1.584,9.504,1.728,9.36,1.728,9.36,1.872,9.072,1.872,9.072,2.016,8.928,2.016,8.928,2.16,8.784,2.16,8.784,2.304,8.496,2.304,8.496,2.448,8.208,2.448,8.208,2.592,7.92,2.592,7.92,2.736,7.632,2.736,7.632,2.88,7.2,2.88,7.2,3.024,6.336,3.024,6.336,3.168,24.912,3.168,24.912,0"  stroke="none" stroke-width="0"/>
     <polygon fill="black" points="0,0.144,0,3.168,5.76,3.168,5.76,3.024,4.896,3.024,4.896,2.88,4.464,2.88,4.464,2.736,4.176,2.736,4.176,2.592,3.888,2.592,3.888,2.448,3.6,2.448,3.6,2.304,3.312,2.304,3.312,2.16,3.168,2.16,3.168,2.016,2.88,2.016,2.88,1.872,2.736,1.872,2.736,1.728,2.592,1.728,2.592,1.584,2.448,1.584,2.448,1.44,2.304,1.44,2.304,1.296,2.16,1.296,2.16,1.152,2.016,1.152,2.016,1.008,1.872,1.008,1.872,0.864,1.728,0.864,1.728,0.576,1.584,0.576,1.584,0.432,1.44,0.432,1.44,0.144"  stroke="none" stroke-width="0"/>
     <polygon fill="black" points="0,3.168,0,3.312,24.912,3.312,24.912,3.168"  stroke="none" stroke-width="0"/>
     <polygon fill="black" points="0,3.168,0,3.312,24.912,3.312,24.912,3.168"  stroke="none" stroke-width="0"/>
     <polygon fill="black" points="0,3.312,0,12.096,6.192,12.096,6.192,12.24,7.2,12.24,7.2,12.384,7.632,12.384,7.632,12.528,7.92,12.528,7.92,12.672,8.208,12.672,8.208,12.816,8.496,12.816,8.496,12.96,8.784,12.96,8.784,13.104,8.928,13.104,8.928,13.248,9.072,13.248,9.072,13.392,9.36,13.392,9.36,13.536,9.504,13.536,9.504,13.68,9.648,13.68,9.648,13.824,9.792,13.824,9.792,13.968,9.936,13.968,9.936,14.112,10.08,14.112,10.08,14.256,10.224,14.256,10.224,14.544,10.368,14.544,10.368,14.688,10.512,14.688,10.512,14.832,10.656,14.832,10.656,15.12,11.952,15.12,11.952,15.264,17.28,15.264,17.28,15.408,17.712,15.408,17.712,15.552,18,15.552,18,15.696,18.288,15.696,18.288,15.84,18.432,15.84,18.432,15.984,18.576,15.984,18.576,16.128,18.72,16.128,18.72,16.416,18.864,16.416,18.864,16.704,19.008,16.704,19.008,16.992,19.152,16.992,19.152,44.64,19.008,44.64,19.008,44.928,18.864,44.928,18.864,45.216,18.72,45.216,18.72,45.504,18.576,45.504,18.576,45.648,18.432,45.648,18.432,45.792,18.144,45.792,18.144,45.936,18,45.936,18,46.08,17.712,46.08,17.712,46.224,17.28,46.224,17.28,46.368,9.648,46.368,9.648,47.808,9.792,47.808,9.792,47.952,9.936,47.952,9.936,48.096,10.08,48.096,10.08,48.384,10.224,48.384,10.224,48.528,10.368,48.528,10.368,48.672,10.512,48.672,10.512,48.96,10.656,48.96,10.656,49.104,25.2,49.104,25.2,33.552,25.056,33.552,25.056,13.104,24.912,13.104,24.912,3.312"  stroke="none" stroke-width="0"/>
     <polygon fill="black" points="0,12.096,0,15.12,1.44,15.12,1.44,14.832,1.584,14.832,1.584,14.688,1.728,14.688,1.728,14.4,1.872,14.4,1.872,14.256,2.016,14.256,2.016,14.112,2.16,14.112,2.16,13.968,2.304,13.968,2.304,13.824,2.448,13.824,2.448,13.68,2.592,13.68,2.592,13.536,2.736,13.536,2.736,13.392,2.88,13.392,2.88,13.248,3.168,13.248,3.168,13.104,3.312,13.104,3.312,12.96,3.6,12.96,3.6,12.816,3.888,12.816,3.888,12.672,4.176,12.672,4.176,12.528,4.464,12.528,4.464,12.384,4.896,12.384,4.896,12.24,5.904,12.24,5.904,12.096"  stroke="none" stroke-width="0"/>
     <g  id="connector0pad">
      <circle fill="black" cx="9.549"  cy="8.98783" stroke="none" r="2.7" stroke-width="0"/>
     </g>
    </g>
   </g>
  </g>
  <g partID="1910580">
   <g transform="translate(20.736,38.88)">
    <g  id="groundplane">
     <polygon fill="black" points="9.648,0,9.648,0.288,9.504,0.288,9.504,1.296,9.36,1.296,9.36,2.16,9.216,2.16,9.216,2.736,9.072,2.736,9.072,3.024,8.928,3.024,8.928,3.168,8.784,3.168,8.784,3.312,8.64,3.312,8.64,3.456,8.496,3.456,8.496,3.6,8.352,3.6,8.352,3.744,8.208,3.744,8.208,3.888,7.92,3.888,7.92,4.032,7.488,4.032,7.488,4.176,31.68,4.176,31.68,4.32,32.112,4.32,32.112,4.464,32.544,4.464,32.544,4.608,32.832,4.608,32.832,4.752,33.12,4.752,33.12,4.896,33.408,4.896,33.408,5.04,33.552,5.04,33.552,5.184,33.696,5.184,33.696,5.328,33.984,5.328,33.984,5.472,34.128,5.472,34.128,5.616,34.272,5.616,34.272,5.76,34.416,5.76,34.416,5.904,34.56,5.904,34.56,6.048,34.704,6.048,34.704,6.192,34.848,6.192,34.848,6.48,34.992,6.48,34.992,6.624,35.136,6.624,35.136,6.768,35.28,6.768,35.28,7.056,35.424,7.056,35.424,7.344,35.568,7.344,35.568,7.632,35.712,7.632,35.712,7.92,35.856,7.92,35.856,8.352,36,8.352,36,9.216,36.144,9.216,36.144,9.792,36,9.792,36,10.656,35.856,10.656,35.856,11.088,35.712,11.088,35.712,11.376,35.568,11.376,35.568,11.664,35.424,11.664,35.424,11.952,35.28,11.952,35.28,12.24,35.136,12.24,35.136,12.384,34.992,12.384,34.992,12.672,34.848,12.672,34.848,12.816,34.704,12.816,34.704,12.96,34.56,12.96,34.56,13.104,34.416,13.104,34.416,13.248,34.272,13.248,34.272,13.392,34.128,13.392,34.128,13.536,33.984,13.536,33.984,13.68,33.84,13.68,33.84,13.824,33.552,13.824,33.552,13.968,33.408,13.968,33.408,14.112,33.12,14.112,33.12,14.256,32.832,14.256,32.832,14.4,32.544,14.4,32.544,14.544,32.256,14.544,32.256,14.688,31.824,14.688,31.824,14.832,30.96,14.832,30.96,14.976,49.968,14.976,49.968,14.832,49.824,14.832,49.824,14.688,49.68,14.688,49.68,14.544,49.536,14.544,49.536,14.4,49.392,14.4,49.392,14.256,49.248,14.256,49.248,14.112,49.104,14.112,49.104,13.968,48.96,13.968,48.96,13.68,48.816,13.68,48.816,13.536,48.672,13.536,48.672,13.392,48.528,13.392,48.528,13.104,48.384,13.104,48.384,12.96,48.24,12.96,48.24,12.672,48.096,12.672,48.096,12.384,47.952,12.384,47.952,12.096,47.808,12.096,47.808,11.664,47.664,11.664,47.664,11.232,47.52,11.232,47.52,10.8,47.376,10.8,47.376,9.936,47.232,9.936,47.232,7.632,47.376,7.632,47.376,6.912,47.52,6.912,47.52,6.336,47.664,6.336,47.664,5.904,47.808,5.904,47.808,5.616,47.952,5.616,47.952,5.328,48.096,5.328,48.096,5.04,48.24,5.04,48.24,4.752,48.384,4.752,48.384,4.464,48.528,4.464,48.528,4.32,48.672,4.32,48.672,4.032,48.816,4.032,48.816,3.888,48.96,3.888,48.96,3.744,49.104,3.744,49.104,3.6,49.248,3.6,49.248,3.456,49.392,3.456,49.392,3.312,49.536,3.312,49.536,3.168,49.68,3.168,49.68,3.024,49.824,3.024,49.824,2.88,49.968,2.88,49.968,2.736,50.112,2.736,50.112,2.592,50.256,2.592,50.256,2.448,50.544,2.448,50.544,2.304,50.688,2.304,50.688,2.16,50.976,2.16,50.976,2.016,51.12,2.016,51.12,1.872,51.408,1.872,51.408,1.728,51.696,1.728,51.696,1.584,52.128,1.584,52.128,1.44,52.416,1.44,52.416,0"  stroke="none" stroke-width="0"/>
     <polygon fill="black" points="5.184,4.176,5.184,4.32,0.864,4.32,0.864,4.464,0,4.464,0,5.904,0.144,5.904,0.144,6.048,0.288,6.048,0.288,6.336,0.432,6.336,0.432,6.48,0.576,6.48,0.576,6.624,0.72,6.624,0.72,6.912,18,6.912,18,7.056,18.576,7.056,18.576,7.2,18.864,7.2,18.864,7.344,19.008,7.344,19.008,7.488,19.152,7.488,19.152,7.632,19.44,7.632,19.44,7.92,19.584,7.92,19.584,8.064,19.728,8.064,19.728,8.352,19.872,8.352,19.872,8.64,20.016,8.64,20.016,14.976,30.384,14.976,30.384,14.832,29.52,14.832,29.52,14.688,29.088,14.688,29.088,14.544,28.8,14.544,28.8,14.4,28.512,14.4,28.512,14.256,28.224,14.256,28.224,14.112,27.936,14.112,27.936,13.968,27.792,13.968,27.792,13.824,27.648,13.824,27.648,13.68,27.36,13.68,27.36,13.536,27.216,13.536,27.216,13.392,27.072,13.392,27.072,13.248,26.928,13.248,26.928,13.104,26.784,13.104,26.784,12.96,26.64,12.96,26.64,12.816,26.496,12.816,26.496,12.528,26.352,12.528,26.352,12.384,26.208,12.384,26.208,12.24,26.064,12.24,26.064,11.952,25.92,11.952,25.92,11.664,25.776,11.664,25.776,11.376,25.632,11.376,25.632,11.088,25.488,11.088,25.488,10.512,25.344,10.512,25.344,8.496,25.488,8.496,25.488,8.064,25.632,8.064,25.632,7.632,25.776,7.632,25.776,7.344,25.92,7.344,25.92,7.056,26.064,7.056,26.064,6.912,26.208,6.912,26.208,6.624,26.352,6.624,26.352,6.48,26.496,6.48,26.496,6.336,26.64,6.336,26.64,6.048,26.784,6.048,26.784,5.904,26.928,5.904,26.928,5.76,27.072,5.76,27.072,5.616,27.216,5.616,27.216,5.472,27.504,5.472,27.504,5.328,27.648,5.328,27.648,5.184,27.792,5.184,27.792,5.04,28.08,5.04,28.08,4.896,28.224,4.896,28.224,4.752,28.512,4.752,28.512,4.608,28.8,4.608,28.8,4.464,29.232,4.464,29.232,4.32,29.664,4.32,29.664,4.176"  stroke="none" stroke-width="0"/>
     <polygon fill="black" points="0.864,6.912,0.864,7.056,12.24,7.056,12.24,6.912"  stroke="none" stroke-width="0"/>
     <polygon fill="black" points="20.016,14.976,20.016,15.12,50.256,15.12,50.256,14.976"  stroke="none" stroke-width="0"/>
     <polygon fill="black" points="20.016,14.976,20.016,15.12,50.256,15.12,50.256,14.976"  stroke="none" stroke-width="0"/>
     <polygon fill="black" points="20.016,15.12,20.016,17.568,52.272,17.568,52.272,16.128,51.984,16.128,51.984,15.984,51.552,15.984,51.552,15.84,51.264,15.84,51.264,15.696,51.12,15.696,51.12,15.552,50.832,15.552,50.832,15.408,50.544,15.408,50.544,15.264,50.4,15.264,50.4,15.12"  stroke="none" stroke-width="0"/>
     <g  id="connector0pad">
      <circle fill="black" cx="40.113"  cy="4.758" stroke="none" r="2.7" stroke-width="0"/>
     </g>
    </g>
   </g>
  </g>
  <g partID="1910610">
   <g transform="translate(19.152,61.344)">
    <g  id="groundplane">
     <polygon fill="black" points="21.6,0,21.6,1.44,32.4,1.44,32.4,1.584,33.408,1.584,33.408,1.728,33.84,1.728,33.84,1.872,34.128,1.872,34.128,2.016,34.416,2.016,34.416,2.16,34.704,2.16,34.704,2.304,34.992,2.304,34.992,2.448,35.136,2.448,35.136,2.592,35.424,2.592,35.424,2.736,35.568,2.736,35.568,2.88,35.712,2.88,35.712,3.024,35.856,3.024,35.856,3.168,36,3.168,36,3.312,36.144,3.312,36.144,3.456,36.288,3.456,36.288,3.6,36.432,3.6,36.432,3.744,36.576,3.744,36.576,4.032,36.72,4.032,36.72,4.176,36.864,4.176,36.864,4.464,37.008,4.464,37.008,4.752,37.152,4.752,37.152,5.04,37.296,5.04,37.296,5.328,37.44,5.328,37.44,5.76,37.584,5.76,37.584,6.624,37.728,6.624,37.728,7.2,37.584,7.2,37.584,8.064,37.44,8.064,37.44,8.496,37.296,8.496,37.296,8.784,37.152,8.784,37.152,9.072,37.008,9.072,37.008,9.36,36.864,9.36,36.864,9.648,36.72,9.648,36.72,9.792,36.576,9.792,36.576,9.936,36.432,9.936,36.432,10.224,36.288,10.224,36.288,10.368,36.144,10.368,36.144,10.512,36,10.512,36,10.656,35.856,10.656,35.856,10.8,35.712,10.8,35.712,10.944,35.568,10.944,35.568,11.088,35.28,11.088,35.28,11.232,35.136,11.232,35.136,11.376,34.992,11.376,34.992,11.52,34.704,11.52,34.704,12.816,34.56,12.816,34.56,19.728,55.584,19.728,55.584,19.584,54.72,19.584,54.72,19.44,54.288,19.44,54.288,19.296,53.856,19.296,53.856,19.152,53.424,19.152,53.424,19.008,53.136,19.008,53.136,18.864,52.848,18.864,52.848,18.72,52.56,18.72,52.56,18.576,52.416,18.576,52.416,18.432,52.128,18.432,52.128,18.288,51.984,18.288,51.984,18.144,51.696,18.144,51.696,18,51.552,18,51.552,17.856,51.408,17.856,51.408,17.712,51.264,17.712,51.264,17.568,51.12,17.568,51.12,17.424,50.976,17.424,50.976,17.28,50.832,17.28,50.832,17.136,50.688,17.136,50.688,16.992,50.544,16.992,50.544,16.848,50.4,16.848,50.4,16.56,50.256,16.56,50.256,16.416,50.112,16.416,50.112,16.128,49.968,16.128,49.968,15.984,49.824,15.984,49.824,15.696,49.68,15.696,49.68,15.408,49.536,15.408,49.536,15.12,49.392,15.12,49.392,14.832,49.248,14.832,49.248,14.4,49.104,14.4,49.104,13.824,48.96,13.824,48.96,12.96,48.816,12.96,48.816,10.8,48.96,10.8,48.96,9.936,49.104,9.936,49.104,9.36,49.248,9.36,49.248,8.928,49.392,8.928,49.392,8.64,49.536,8.64,49.536,8.352,49.68,8.352,49.68,8.064,49.824,8.064,49.824,7.776,49.968,7.776,49.968,7.632,50.112,7.632,50.112,7.344,50.256,7.344,50.256,7.2,50.4,7.2,50.4,6.912,50.544,6.912,50.544,6.768,50.688,6.768,50.688,6.624,50.832,6.624,50.832,6.48,50.976,6.48,50.976,6.336,51.12,6.336,51.12,6.192,51.264,6.192,51.264,6.048,51.408,6.048,51.408,5.904,51.552,5.904,51.552,5.76,51.696,5.76,51.696,5.616,51.984,5.616,51.984,5.472,52.128,5.472,52.128,5.328,52.272,5.328,52.272,5.184,52.56,5.184,52.56,5.04,52.848,5.04,52.848,4.896,53.136,4.896,53.136,4.752,53.424,4.752,53.424,4.608,53.712,4.608,53.712,4.464,54.144,4.464,54.144,4.32,54.576,4.32,54.576,4.176,55.296,4.176,55.296,4.032,61.056,4.032,61.056,0"  stroke="none" stroke-width="0"/>
     <polygon fill="black" points="21.6,1.44,21.6,2.304,21.744,2.304,21.744,22.752,21.888,22.752,21.888,28.368,31.248,28.368,31.248,28.224,30.96,28.224,30.96,28.08,30.672,28.08,30.672,27.936,30.528,27.936,30.528,27.792,30.24,27.792,30.24,27.648,30.096,27.648,30.096,27.36,29.952,27.36,29.952,27.216,29.808,27.216,29.808,26.928,29.664,26.928,29.664,26.496,29.52,26.496,29.52,22.464,29.664,22.464,29.664,11.376,29.376,11.376,29.376,11.232,29.232,11.232,29.232,11.088,29.088,11.088,29.088,10.944,28.8,10.944,28.8,10.8,28.656,10.8,28.656,10.656,28.512,10.656,28.512,10.512,28.368,10.512,28.368,10.368,28.224,10.368,28.224,10.08,28.08,10.08,28.08,9.936,27.936,9.936,27.936,9.792,27.792,9.792,27.792,9.504,27.648,9.504,27.648,9.36,27.504,9.36,27.504,9.072,27.36,9.072,27.36,8.784,27.216,8.784,27.216,8.352,27.072,8.352,27.072,7.92,26.928,7.92,26.928,5.904,27.072,5.904,27.072,5.328,27.216,5.328,27.216,5.04,27.36,5.04,27.36,4.752,27.504,4.752,27.504,4.464,27.648,4.464,27.648,4.176,27.792,4.176,27.792,4.032,27.936,4.032,27.936,3.888,28.08,3.888,28.08,3.6,28.224,3.6,28.224,3.456,28.368,3.456,28.368,3.312,28.512,3.312,28.512,3.168,28.656,3.168,28.656,3.024,28.8,3.024,28.8,2.88,28.944,2.88,28.944,2.736,29.232,2.736,29.232,2.592,29.376,2.592,29.376,2.448,29.52,2.448,29.52,2.304,29.808,2.304,29.808,2.16,30.096,2.16,30.096,2.016,30.384,2.016,30.384,1.872,30.672,1.872,30.672,1.728,31.104,1.728,31.104,1.584,32.112,1.584,32.112,1.44"  stroke="none" stroke-width="0"/>
     <polygon fill="black" points="74.304,18.864,74.304,19.008,74.016,19.008,74.016,19.152,73.584,19.152,73.584,19.296,73.152,19.296,73.152,19.44,72.72,19.44,72.72,19.584,71.856,19.584,71.856,19.728,75.744,19.728,75.744,18.864"  stroke="none" stroke-width="0"/>
     <polygon fill="black" points="34.56,19.728,34.56,19.872,75.744,19.872,75.744,19.728"  stroke="none" stroke-width="0"/>
     <polygon fill="black" points="34.56,19.728,34.56,19.872,75.744,19.872,75.744,19.728"  stroke="none" stroke-width="0"/>
     <polygon fill="black" points="34.56,19.872,34.56,22.896,64.368,22.896,64.368,23.04,64.656,23.04,64.656,23.184,64.944,23.184,64.944,23.328,65.232,23.328,65.232,23.472,65.376,23.472,65.376,23.616,65.52,23.616,65.52,23.76,65.664,23.76,65.664,24.048,65.808,24.048,65.808,24.192,65.952,24.192,65.952,24.624,66.096,24.624,66.096,29.52,71.856,29.52,71.856,29.664,72.72,29.664,72.72,29.808,73.296,29.808,73.296,29.952,73.728,29.952,73.728,30.096,74.016,30.096,74.016,30.24,74.304,30.24,74.304,30.384,75.744,30.384,75.744,19.872"  stroke="none" stroke-width="0"/>
     <polygon fill="black" points="34.56,22.896,34.56,23.472,37.152,23.472,37.152,23.328,44.64,23.328,44.64,23.184,52.128,23.184,52.128,23.04,59.616,23.04,59.616,22.896"  stroke="none" stroke-width="0"/>
     <polygon fill="black" points="59.616,27.792,59.616,27.936,52.128,27.936,52.128,28.08,44.64,28.08,44.64,28.224,37.152,28.224,37.152,28.368,61.2,28.368,61.2,27.792"  stroke="none" stroke-width="0"/>
     <polygon fill="black" points="21.888,28.368,21.888,28.512,61.2,28.512,61.2,28.368"  stroke="none" stroke-width="0"/>
     <polygon fill="black" points="21.888,28.368,21.888,28.512,61.2,28.512,61.2,28.368"  stroke="none" stroke-width="0"/>
     <polygon fill="black" points="21.888,28.512,21.888,35.568,33.264,35.568,33.264,35.712,33.696,35.712,33.696,35.856,34.128,35.856,34.128,36,34.416,36,34.416,36.144,34.704,36.144,34.704,36.288,34.992,36.288,34.992,36.432,35.136,36.432,35.136,36.576,35.28,36.576,35.28,36.72,35.568,36.72,35.568,36.864,35.712,36.864,35.712,37.008,35.856,37.008,35.856,37.152,36,37.152,36,37.296,36.144,37.296,36.144,37.44,36.288,37.44,36.288,37.584,36.432,37.584,36.432,37.872,36.576,37.872,36.576,38.016,36.72,38.016,36.72,38.16,36.864,38.16,36.864,38.448,37.008,38.448,37.008,38.736,37.152,38.736,37.152,39.024,37.296,39.024,37.296,39.312,37.44,39.312,37.44,39.744,37.584,39.744,37.584,40.608,37.728,40.608,37.728,41.184,37.584,41.184,37.584,42.048,37.44,42.048,37.44,42.48,37.296,42.48,37.296,42.768,37.152,42.768,37.152,43.056,37.008,43.056,37.008,43.344,36.864,43.344,36.864,43.632,36.72,43.632,36.72,43.776,36.576,43.776,36.576,44.064,36.432,44.064,36.432,44.208,36.288,44.208,36.288,44.352,36.144,44.352,36.144,44.496,36,44.496,36,44.64,35.856,44.64,35.856,44.784,35.712,44.784,35.712,44.928,35.568,44.928,35.568,45.072,35.424,45.072,35.424,45.216,55.44,45.216,55.44,45.072,54.72,45.072,54.72,44.928,54.144,44.928,54.144,44.784,53.712,44.784,53.712,44.64,53.424,44.64,53.424,44.496,53.136,44.496,53.136,44.352,52.848,44.352,52.848,44.208,52.56,44.208,52.56,44.064,52.272,44.064,52.272,43.92,52.128,43.92,52.128,43.776,51.984,43.776,51.984,43.632,51.696,43.632,51.696,43.488,51.552,43.488,51.552,43.344,51.408,43.344,51.408,43.2,51.264,43.2,51.264,43.056,51.12,43.056,51.12,42.912,50.976,42.912,50.976,42.768,50.832,42.768,50.832,42.624,50.688,42.624,50.688,42.48,50.544,42.48,50.544,42.336,50.4,42.336,50.4,42.048,50.256,42.048,50.256,41.904,50.112,41.904,50.112,41.76,49.968,41.76,49.968,41.472,49.824,41.472,49.824,41.184,49.68,41.184,49.68,40.896,49.536,40.896,49.536,40.608,49.392,40.608,49.392,40.32,49.248,40.32,49.248,39.888,49.104,39.888,49.104,39.312,48.96,39.312,48.96,38.448,48.816,38.448,48.816,36.288,48.96,36.288,48.96,35.424,49.104,35.424,49.104,34.848,49.248,34.848,49.248,34.56,49.392,34.56,49.392,34.128,49.536,34.128,49.536,33.84,49.68,33.84,49.68,33.552,49.824,33.552,49.824,33.264,49.968,33.264,49.968,33.12,50.112,33.12,50.112,32.832,50.256,32.832,50.256,32.688,50.4,32.688,50.4,32.4,50.544,32.4,50.544,32.256,50.688,32.256,50.688,32.112,50.832,32.112,50.832,31.968,50.976,31.968,50.976,31.824,51.12,31.824,51.12,31.68,51.264,31.68,51.264,31.536,51.408,31.536,51.408,31.392,51.552,31.392,51.552,31.248,51.696,31.248,51.696,31.104,51.984,31.104,51.984,30.96,52.128,30.96,52.128,30.816,52.416,30.816,52.416,30.672,52.56,30.672,52.56,30.528,52.848,30.528,52.848,30.384,53.136,30.384,53.136,30.24,53.424,30.24,53.424,30.096,53.712,30.096,53.712,29.952,54.144,29.952,54.144,29.808,54.72,29.808,54.72,29.664,55.584,29.664,55.584,29.52,61.2,29.52,61.2,28.512"  stroke="none" stroke-width="0"/>
     <polygon fill="black" points="21.888,35.568,21.888,43.776,22.032,43.776,22.032,46.368,31.968,46.368,31.968,46.224,31.104,46.224,31.104,46.08,30.672,46.08,30.672,45.936,30.384,45.936,30.384,45.792,30.096,45.792,30.096,45.648,29.808,45.648,29.808,45.504,29.52,45.504,29.52,45.36,29.376,45.36,29.376,45.216,29.088,45.216,29.088,45.072,28.944,45.072,28.944,44.928,28.8,44.928,28.8,44.784,28.656,44.784,28.656,44.64,28.512,44.64,28.512,44.496,28.368,44.496,28.368,44.352,28.224,44.352,28.224,44.208,28.08,44.208,28.08,43.92,27.936,43.92,27.936,43.776,27.792,43.776,27.792,43.632,27.648,43.632,27.648,43.344,27.504,43.344,27.504,43.056,27.36,43.056,27.36,42.768,27.216,42.768,27.216,42.48,27.072,42.48,27.072,41.904,26.928,41.904,26.928,39.888,27.072,39.888,27.072,39.456,27.216,39.456,27.216,39.024,27.36,39.024,27.36,38.736,27.504,38.736,27.504,38.448,27.648,38.448,27.648,38.304,27.792,38.304,27.792,38.016,27.936,38.016,27.936,37.872,28.08,37.872,28.08,37.728,28.224,37.728,28.224,37.44,28.368,37.44,28.368,37.296,28.512,37.296,28.512,37.152,28.656,37.152,28.656,37.008,28.8,37.008,28.8,36.864,29.088,36.864,29.088,36.72,29.232,36.72,29.232,36.576,29.376,36.576,29.376,36.432,29.664,36.432,29.664,36.288,29.808,36.288,29.808,36.144,30.096,36.144,30.096,36,30.384,36,30.384,35.856,30.816,35.856,30.816,35.712,31.248,35.712,31.248,35.568"  stroke="none" stroke-width="0"/>
     <polygon fill="black" points="74.304,44.352,74.304,44.496,74.016,44.496,74.016,44.64,73.728,44.64,73.728,44.784,73.296,44.784,73.296,44.928,72.72,44.928,72.72,45.072,72,45.072,72,45.216,75.744,45.216,75.744,44.352"  stroke="none" stroke-width="0"/>
     <polygon fill="black" points="35.136,45.216,35.136,45.36,75.744,45.36,75.744,45.216"  stroke="none" stroke-width="0"/>
     <polygon fill="black" points="35.136,45.216,35.136,45.36,75.744,45.36,75.744,45.216"  stroke="none" stroke-width="0"/>
     <polygon fill="black" points="34.992,45.36,34.992,45.504,34.704,45.504,34.704,45.648,34.56,45.648,34.56,45.792,34.128,45.792,34.128,45.936,33.84,45.936,33.84,46.08,33.408,46.08,33.408,46.224,32.544,46.224,32.544,46.368,75.744,46.368,75.744,45.36"  stroke="none" stroke-width="0"/>
     <polygon fill="black" points="22.032,46.368,22.032,46.512,75.744,46.512,75.744,46.368"  stroke="none" stroke-width="0"/>
     <polygon fill="black" points="22.032,46.368,22.032,46.512,75.744,46.512,75.744,46.368"  stroke="none" stroke-width="0"/>
     <polygon fill="black" points="22.032,46.512,22.032,55.008,71.712,55.008,71.712,55.152,72.576,55.152,72.576,55.296,73.152,55.296,73.152,55.44,73.584,55.44,73.584,55.584,74.016,55.584,74.016,55.728,74.304,55.728,74.304,55.872,75.744,55.872,75.744,46.512"  stroke="none" stroke-width="0"/>
     <polygon fill="black" points="22.032,55.008,22.032,57.456,32.832,57.456,32.832,57.6,33.552,57.6,33.552,57.744,33.984,57.744,33.984,57.888,34.272,57.888,34.272,58.032,34.56,58.032,34.56,58.176,34.848,58.176,34.848,58.32,34.992,58.32,34.992,58.464,35.28,58.464,35.28,58.608,35.424,58.608,35.424,58.752,35.568,58.752,35.568,58.896,35.712,58.896,35.712,59.04,35.856,59.04,35.856,59.184,36,59.184,36,59.328,36.144,59.328,36.144,59.472,36.288,59.472,36.288,59.616,36.432,59.616,36.432,59.76,36.576,59.76,36.576,59.904,36.72,59.904,36.72,60.192,36.864,60.192,36.864,60.48,49.248,60.48,49.248,60.048,49.392,60.048,49.392,59.616,49.536,59.616,49.536,59.328,49.68,59.328,49.68,59.04,49.824,59.04,49.824,58.752,49.968,58.752,49.968,58.608,50.112,58.608,50.112,58.32,50.256,58.32,50.256,58.176,50.4,58.176,50.4,58.032,50.544,58.032,50.544,57.744,50.688,57.744,50.688,57.6,50.832,57.6,50.832,57.456,50.976,57.456,50.976,57.312,51.12,57.312,51.12,57.168,51.264,57.168,51.264,57.024,51.408,57.024,51.408,56.88,51.552,56.88,51.552,56.736,51.84,56.736,51.84,56.592,51.984,56.592,51.984,56.448,52.128,56.448,52.128,56.304,52.416,56.304,52.416,56.16,52.704,56.16,52.704,56.016,52.848,56.016,52.848,55.872,53.136,55.872,53.136,55.728,53.424,55.728,53.424,55.584,53.856,55.584,53.856,55.44,54.288,55.44,54.288,55.296,54.864,55.296,54.864,55.152,55.728,55.152,55.728,55.008"  stroke="none" stroke-width="0"/>
     <polygon fill="black" points="22.032,57.456,22.032,68.256,31.392,68.256,31.392,68.112,30.816,68.112,30.816,67.968,30.528,67.968,30.528,67.824,30.096,67.824,30.096,67.68,29.952,67.68,29.952,67.536,29.664,67.536,29.664,67.392,29.376,67.392,29.376,67.248,29.232,67.248,29.232,67.104,29.088,67.104,29.088,66.96,28.944,66.96,28.944,66.816,28.656,66.816,28.656,66.672,28.512,66.672,28.512,66.528,28.368,66.528,28.368,66.24,28.224,66.24,28.224,66.096,28.08,66.096,28.08,65.952,27.936,65.952,27.936,65.808,27.792,65.808,27.792,65.52,27.648,65.52,27.648,65.376,27.504,65.376,27.504,65.088,27.36,65.088,27.36,64.8,27.216,64.8,27.216,64.368,27.072,64.368,27.072,63.936,26.928,63.936,26.928,61.92,27.072,61.92,27.072,61.344,27.216,61.344,27.216,61.056,27.36,61.056,27.36,60.768,27.504,60.768,27.504,60.48,27.648,60.48,27.648,60.192,27.792,60.192,27.792,60.048,27.936,60.048,27.936,59.76,28.08,59.76,28.08,59.616,28.224,59.616,28.224,59.472,28.368,59.472,28.368,59.328,28.512,59.328,28.512,59.184,28.656,59.184,28.656,59.04,28.8,59.04,28.8,58.896,28.944,58.896,28.944,58.752,29.088,58.752,29.088,58.608,29.376,58.608,29.376,58.464,29.52,58.464,29.52,58.32,29.808,58.32,29.808,58.176,29.952,58.176,29.952,58.032,30.24,58.032,30.24,57.888,30.672,57.888,30.672,57.744,31.104,57.744,31.104,57.6,31.68,57.6,31.68,57.456"  stroke="none" stroke-width="0"/>
     <polygon fill="black" points="36.864,65.376,36.864,65.52,36.72,65.52,36.72,65.808,36.576,65.808,36.576,65.952,36.432,65.952,36.432,66.096,36.288,66.096,36.288,66.384,36.144,66.384,36.144,66.528,36,66.528,36,66.672,35.856,66.672,35.856,66.816,35.712,66.816,35.712,66.96,35.424,66.96,35.424,67.104,35.28,67.104,35.28,67.248,35.136,67.248,35.136,67.392,34.848,67.392,34.848,67.536,34.704,67.536,34.704,67.68,34.416,67.68,34.416,67.824,34.128,67.824,34.128,67.968,33.696,67.968,33.696,68.112,33.12,68.112,33.12,68.256,50.832,68.256,50.832,68.112,50.688,68.112,50.688,67.968,50.544,67.968,50.544,67.824,50.4,67.824,50.4,67.68,50.256,67.68,50.256,67.392,50.112,67.392,50.112,67.248,49.968,67.248,49.968,66.96,49.824,66.96,49.824,66.672,49.68,66.672,49.68,66.384,49.536,66.384,49.536,66.096,49.392,66.096,49.392,65.808,49.248,65.808,49.248,65.376"  stroke="none" stroke-width="0"/>
     <polygon fill="black" points="22.032,68.256,22.032,68.4,50.976,68.4,50.976,68.256"  stroke="none" stroke-width="0"/>
     <polygon fill="black" points="22.032,68.256,22.032,68.4,50.976,68.4,50.976,68.256"  stroke="none" stroke-width="0"/>
     <polygon fill="black" points="22.032,68.4,22.032,70.704,55.296,70.704,55.296,70.56,54.576,70.56,54.576,70.416,54.144,70.416,54.144,70.272,53.712,70.272,53.712,70.128,53.28,70.128,53.28,69.984,52.992,69.984,52.992,69.84,52.704,69.84,52.704,69.696,52.56,69.696,52.56,69.552,52.272,69.552,52.272,69.408,52.128,69.408,52.128,69.264,51.84,69.264,51.84,69.12,51.696,69.12,51.696,68.976,51.552,68.976,51.552,68.832,51.408,68.832,51.408,68.688,51.264,68.688,51.264,68.544,51.12,68.544,51.12,68.4"  stroke="none" stroke-width="0"/>
     <polygon fill="black" points="74.16,69.984,74.16,70.128,73.728,70.128,73.728,70.272,73.296,70.272,73.296,70.416,72.864,70.416,72.864,70.56,72.144,70.56,72.144,70.704,75.744,70.704,75.744,69.984"  stroke="none" stroke-width="0"/>
     <polygon fill="black" points="22.176,70.704,22.176,70.848,75.744,70.848,75.744,70.704"  stroke="none" stroke-width="0"/>
     <polygon fill="black" points="22.176,70.704,22.176,70.848,75.744,70.848,75.744,70.704"  stroke="none" stroke-width="0"/>
     <polygon fill="black" points="22.176,70.848,22.176,79.92,73.152,79.92,73.152,80.064,73.728,80.064,73.728,80.208,74.16,80.208,74.16,80.352,75.744,80.352,75.744,70.848"  stroke="none" stroke-width="0"/>
     <polygon fill="black" points="22.176,79.92,22.176,91.44,32.544,91.44,32.544,91.584,33.408,91.584,33.408,91.728,33.84,91.728,33.84,91.872,34.128,91.872,34.128,92.016,34.416,92.016,34.416,92.16,34.704,92.16,34.704,92.304,34.992,92.304,34.992,92.448,35.136,92.448,35.136,92.592,35.424,92.592,35.424,92.736,35.568,92.736,35.568,92.88,35.712,92.88,35.712,93.024,35.856,93.024,35.856,93.168,36,93.168,36,93.312,36.144,93.312,36.144,93.456,36.288,93.456,36.288,93.6,36.432,93.6,36.432,93.744,36.576,93.744,36.576,94.032,36.72,94.032,36.72,94.176,36.864,94.176,36.864,94.464,37.008,94.464,37.008,94.752,37.152,94.752,37.152,95.04,37.296,95.04,37.296,95.328,37.44,95.328,37.44,95.76,37.584,95.76,37.584,96.624,37.728,96.624,37.728,97.2,37.584,97.2,37.584,98.064,37.44,98.064,37.44,98.496,37.296,98.496,37.296,98.784,37.152,98.784,37.152,99.072,37.008,99.072,37.008,99.36,36.864,99.36,36.864,99.648,36.72,99.648,36.72,99.792,36.576,99.792,36.576,99.936,36.432,99.936,36.432,100.224,36.288,100.224,36.288,100.368,36.144,100.368,36.144,100.512,36,100.512,36,100.656,35.856,100.656,35.856,100.8,35.712,100.8,35.712,100.944,35.568,100.944,35.568,101.088,35.28,101.088,35.28,101.232,35.136,101.232,35.136,101.376,34.992,101.376,34.992,101.52,34.704,101.52,34.704,101.664,34.416,101.664,34.416,103.104,61.344,103.104,61.344,101.232,61.488,101.232,61.488,97.776,61.632,97.776,61.632,95.472,55.728,95.472,55.728,95.328,55.152,95.328,55.152,95.184,54.72,95.184,54.72,95.04,54.288,95.04,54.288,94.896,54,94.896,54,94.752,53.712,94.752,53.712,94.608,53.424,94.608,53.424,94.464,53.136,94.464,53.136,94.32,52.992,94.32,52.992,94.176,52.704,94.176,52.704,94.032,52.56,94.032,52.56,93.888,52.416,93.888,52.416,93.744,52.272,93.744,52.272,93.6,51.984,93.6,51.984,93.456,51.84,93.456,51.84,93.312,51.696,93.312,51.696,93.168,51.552,93.168,51.552,93.024,51.408,93.024,51.408,92.736,51.264,92.736,51.264,92.592,51.12,92.592,51.12,92.448,50.976,92.448,50.976,92.304,50.832,92.304,50.832,92.016,50.688,92.016,50.688,91.728,50.544,91.728,50.544,91.584,50.4,91.584,50.4,91.296,50.256,91.296,50.256,91.008,50.112,91.008,50.112,90.576,49.968,90.576,49.968,90.144,49.824,90.144,49.824,89.712,49.68,89.712,49.68,88.848,49.536,88.848,49.536,86.544,49.68,86.544,49.68,85.68,49.824,85.68,49.824,85.248,49.968,85.248,49.968,84.816,50.112,84.816,50.112,84.384,50.256,84.384,50.256,84.096,50.4,84.096,50.4,83.808,50.544,83.808,50.544,83.664,50.688,83.664,50.688,83.376,50.832,83.376,50.832,83.088,50.976,83.088,50.976,82.944,51.12,82.944,51.12,82.8,51.264,82.8,51.264,82.656,51.408,82.656,51.408,82.368,51.552,82.368,51.552,82.224,51.696,82.224,51.696,82.08,51.84,82.08,51.84,81.936,51.984,81.936,51.984,81.792,52.128,81.792,52.128,81.648,52.416,81.648,52.416,81.504,52.56,81.504,52.56,81.36,52.704,81.36,52.704,81.216,52.992,81.216,52.992,81.072,53.136,81.072,53.136,80.928,53.424,80.928,53.424,80.784,53.712,80.784,53.712,80.64,54,80.64,54,80.496,54.288,80.496,54.288,80.352,54.576,80.352,54.576,80.208,55.152,80.208,55.152,80.064,55.728,80.064,55.728,79.92"  stroke="none" stroke-width="0"/>
     <polygon fill="black" points="22.176,91.44,22.176,97.488,22.32,97.488,22.32,97.632,22.176,97.632,22.176,98.352,22.032,98.352,22.032,98.784,21.888,98.784,21.888,98.928,21.744,98.928,21.744,99.072,21.6,99.072,21.6,99.36,21.312,99.36,21.312,99.504,21.168,99.504,21.168,99.648,21.024,99.648,21.024,99.792,20.592,99.792,20.592,99.936,20.016,99.936,20.016,100.08,28.08,100.08,28.08,99.936,27.936,99.936,27.936,99.792,27.792,99.792,27.792,99.504,27.648,99.504,27.648,99.36,27.504,99.36,27.504,99.072,27.36,99.072,27.36,98.784,27.216,98.784,27.216,98.352,27.072,98.352,27.072,97.92,26.928,97.92,26.928,95.904,27.072,95.904,27.072,95.328,27.216,95.328,27.216,95.04,27.36,95.04,27.36,94.752,27.504,94.752,27.504,94.464,27.648,94.464,27.648,94.176,27.792,94.176,27.792,94.032,27.936,94.032,27.936,93.888,28.08,93.888,28.08,93.6,28.224,93.6,28.224,93.456,28.368,93.456,28.368,93.312,28.512,93.312,28.512,93.168,28.656,93.168,28.656,93.024,28.8,93.024,28.8,92.88,28.944,92.88,28.944,92.736,29.232,92.736,29.232,92.592,29.376,92.592,29.376,92.448,29.52,92.448,29.52,92.304,29.808,92.304,29.808,92.16,30.096,92.16,30.096,92.016,30.384,92.016,30.384,91.872,30.672,91.872,30.672,91.728,31.104,91.728,31.104,91.584,31.968,91.584,31.968,91.44"  stroke="none" stroke-width="0"/>
     <polygon fill="black" points="2.304,99.504,2.304,99.792,2.16,99.792,2.16,99.936,2.016,99.936,2.016,100.08,19.44,100.08,19.44,99.936,14.688,99.936,14.688,99.792,10.08,99.792,10.08,99.648,5.328,99.648,5.328,99.504"  stroke="none" stroke-width="0"/>
     <polygon fill="black" points="1.872,100.08,1.872,100.224,28.224,100.224,28.224,100.08"  stroke="none" stroke-width="0"/>
     <polygon fill="black" points="1.872,100.08,1.872,100.224,28.224,100.224,28.224,100.08"  stroke="none" stroke-width="0"/>
     <polygon fill="black" points="1.872,100.224,1.872,100.368,1.728,100.368,1.728,100.512,1.584,100.512,1.584,100.656,1.44,100.656,1.44,100.8,1.296,100.8,1.296,100.944,1.008,100.944,1.008,101.088,0.864,101.088,0.864,101.232,0.72,101.232,0.72,101.376,0.432,101.376,0.432,101.52,0.288,101.52,0.288,101.664,0,101.664,0,103.104,30.096,103.104,30.096,101.664,29.808,101.664,29.808,101.52,29.664,101.52,29.664,101.376,29.376,101.376,29.376,101.232,29.232,101.232,29.232,101.088,29.088,101.088,29.088,100.944,28.8,100.944,28.8,100.8,28.656,100.8,28.656,100.656,28.512,100.656,28.512,100.512,28.368,100.512,28.368,100.368,28.224,100.368,28.224,100.224"  stroke="none" stroke-width="0"/>
     <g  id="connector0pad">
      <circle fill="black" cx="42.4566"  cy="5.23929" stroke="none" r="2.7" stroke-width="0"/>
     </g>
    </g>
   </g>
  </g>
  <g partID="1910640">
   <g transform="translate(83.952,54.72)">
    <g  id="groundplane">
     <polygon fill="black" points="9.504,0,9.504,0.144,9.072,0.144,9.072,0.288,8.784,0.288,8.784,0.432,8.352,0.432,8.352,0.576,7.776,0.576,7.776,0.72,6.624,0.72,6.624,0.864,0,0.864,0,2.304,0.144,2.304,0.144,2.448,0.288,2.448,0.288,2.592,0.432,2.592,0.432,2.736,0.576,2.736,0.576,2.88,0.72,2.88,0.72,3.168,0.864,3.168,0.864,3.6,1.008,3.6,1.008,6.192,1.152,6.192,1.152,10.656,7.344,10.656,7.344,10.8,8.064,10.8,8.064,10.944,8.496,10.944,8.496,11.088,8.928,11.088,8.928,11.232,9.216,11.232,9.216,11.376,9.504,11.376,9.504,11.52,10.944,11.52,10.944,0"  stroke="none" stroke-width="0"/>
     <g  id="connector0pad">
      <circle fill="black" cx="4.4415"  cy="4.5855" stroke="none" r="2.7" stroke-width="0"/>
     </g>
    </g>
   </g>
  </g>
  <g partID="1910670">
   <g transform="translate(85.392,156.384)">
    <g  id="groundplane">
     <polygon fill="black" points="7.92,0,7.92,0.144,7.488,0.144,7.488,0.288,6.912,0.288,6.912,0.432,0.288,0.432,0.288,2.88,0.144,2.88,0.144,6.336,0,6.336,0,10.8,9.504,10.8,9.504,0"  stroke="none" stroke-width="0"/>
     <g  id="connector0pad">
      <circle fill="black" cx="4.0815"  cy="4.4055" stroke="none" r="2.7" stroke-width="0"/>
     </g>
    </g>
   </g>
  </g>
  <g partID="60110">
   <g transform="translate(3.94248,8.0096)">
    <g transform="matrix(1, 0, 0, 1, 0, -795.118)">
     <g id="copper0">
      <g>
       <g transform="matrix(1, 0, 0, 1, 0, 795.118)">
        <g id="0.3.1.0">
         <path stroke-opacity="1" fill="none" stroke="black" style="opacity:0.98000004;stroke-miterlimit:4;stroke-dasharray:none" id="connector2pin" stroke-width="2.83465" d="m10.4882,23.3858a3.25984,3.25984,0,1,1,-6.51969,0,3.25984,3.25984,0,1,1,6.51969,0z"/>
        </g>
       </g>
       <g transform="matrix(1, 0, 0, 1, 5.81102, 812.126)">
        <g id="0.3.1.1">
         <path stroke-opacity="1" fill="none" stroke="black" style="opacity:0.98000004;stroke-miterlimit:4;stroke-dasharray:none" id="path3782-7" stroke-width="2.83465" d="m10.4882,23.3858a3.25984,3.25984,0,1,1,-6.51969,0,3.25984,3.25984,0,1,1,6.51969,0z"/>
        </g>
       </g>
       <g transform="matrix(1, 0, 0, 1, 40.252, 812.126)">
        <g id="0.3.1.2">
         <path stroke-opacity="1" fill="none" stroke="black" style="opacity:0.98000004;stroke-miterlimit:4;stroke-dasharray:none" id="path3782-7-5" stroke-width="2.83465" d="m10.4882,23.3858a3.25984,3.25984,0,1,1,-6.51969,0,3.25984,3.25984,0,1,1,6.51969,0z"/>
        </g>
       </g>
       <g transform="matrix(1, 0, 0, 1, 5.81102, 812.126)">
        <g id="0.3.1.3">
         <path stroke-opacity="1" fill="none" stroke="black" style="opacity:0.98000004;stroke-miterlimit:4;stroke-dasharray:none" id="connector1pin" stroke-width="2.83465" d="m10.4882,23.3858a3.25984,3.25984,0,1,1,-6.51969,0,3.25984,3.25984,0,1,1,6.51969,0z"/>
        </g>
       </g>
       <g transform="matrix(1, 0, 0, 1, 40.252, 812.126)">
        <g id="0.3.1.4">
         <path stroke-opacity="1" fill="none" stroke="black" style="opacity:0.98000004;stroke-miterlimit:4;stroke-dasharray:none" id="connector0pin" stroke-width="2.83465" d="m10.4882,23.3858a3.25984,3.25984,0,1,1,-6.51969,0,3.25984,3.25984,0,1,1,6.51969,0z"/>
        </g>
       </g>
       <g transform="matrix(1, 0, 0, -1, 5.81102, 824.882)">
        <g id="0.3.1.5">
         <path stroke-opacity="1" fill="none" stroke="black" style="opacity:0.98000004;stroke-miterlimit:4;stroke-dasharray:none" id="connector4pin" stroke-width="2.83465" d="m10.4882,23.3858a3.25984,3.25984,0,1,1,-6.51969,0,3.25984,3.25984,0,1,1,6.51969,0z"/>
        </g>
       </g>
       <g transform="matrix(1, 0, 0, -1, 40.252, 824.882)">
        <g id="0.3.1.6">
         <path stroke-opacity="1" fill="none" stroke="black" style="opacity:0.98000004;stroke-miterlimit:4;stroke-dasharray:none" id="connector5pin" stroke-width="2.83465" d="m10.4882,23.3858a3.25984,3.25984,0,1,1,-6.51969,0,3.25984,3.25984,0,1,1,6.51969,0z"/>
        </g>
       </g>
      </g>
     </g>
    </g>
   </g>
  </g>
  <g partID="60090">
   <g transform="translate(3.9425,61.868)">
    <g transform="matrix(1,-6.66134e-16,6.66134e-16,1,0,0)">
     <g transform="matrix(1, 0, 0, 1, 0, -795.118)">
      <g id="copper0">
       <g>
        <g transform="matrix(1, 0, 0, 1, 0, 795.118)">
         <g id="0.3.1.0">
          <path stroke-opacity="1" fill="none" stroke="black" style="opacity:0.98000004;stroke-miterlimit:4;stroke-dasharray:none" id="connector2pin" stroke-width="2.83465" d="m10.4882,23.3858a3.25984,3.25984,0,1,1,-6.51969,0,3.25984,3.25984,0,1,1,6.51969,0z"/>
         </g>
        </g>
        <g transform="matrix(1, 0, 0, 1, 5.81102, 812.126)">
         <g id="0.3.1.1">
          <path stroke-opacity="1" fill="none" stroke="black" style="opacity:0.98000004;stroke-miterlimit:4;stroke-dasharray:none" id="path3782-7" stroke-width="2.83465" d="m10.4882,23.3858a3.25984,3.25984,0,1,1,-6.51969,0,3.25984,3.25984,0,1,1,6.51969,0z"/>
         </g>
        </g>
        <g transform="matrix(1, 0, 0, 1, 40.252, 812.126)">
         <g id="0.3.1.2">
          <path stroke-opacity="1" fill="none" stroke="black" style="opacity:0.98000004;stroke-miterlimit:4;stroke-dasharray:none" id="path3782-7-5" stroke-width="2.83465" d="m10.4882,23.3858a3.25984,3.25984,0,1,1,-6.51969,0,3.25984,3.25984,0,1,1,6.51969,0z"/>
         </g>
        </g>
        <g transform="matrix(1, 0, 0, 1, 5.81102, 812.126)">
         <g id="0.3.1.3">
          <path stroke-opacity="1" fill="none" stroke="black" style="opacity:0.98000004;stroke-miterlimit:4;stroke-dasharray:none" id="connector1pin" stroke-width="2.83465" d="m10.4882,23.3858a3.25984,3.25984,0,1,1,-6.51969,0,3.25984,3.25984,0,1,1,6.51969,0z"/>
         </g>
        </g>
        <g transform="matrix(1, 0, 0, 1, 40.252, 812.126)">
         <g id="0.3.1.4">
          <path stroke-opacity="1" fill="none" stroke="black" style="opacity:0.98000004;stroke-miterlimit:4;stroke-dasharray:none" id="connector0pin" stroke-width="2.83465" d="m10.4882,23.3858a3.25984,3.25984,0,1,1,-6.51969,0,3.25984,3.25984,0,1,1,6.51969,0z"/>
         </g>
        </g>
        <g transform="matrix(1, 0, 0, -1, 5.81102, 824.882)">
         <g id="0.3.1.5">
          <path stroke-opacity="1" fill="none" stroke="black" style="opacity:0.98000004;stroke-miterlimit:4;stroke-dasharray:none" id="connector4pin" stroke-width="2.83465" d="m10.4882,23.3858a3.25984,3.25984,0,1,1,-6.51969,0,3.25984,3.25984,0,1,1,6.51969,0z"/>
         </g>
        </g>
        <g transform="matrix(1, 0, 0, -1, 40.252, 824.882)">
         <g id="0.3.1.6">
          <path stroke-opacity="1" fill="none" stroke="black" style="opacity:0.98000004;stroke-miterlimit:4;stroke-dasharray:none" id="connector5pin" stroke-width="2.83465" d="m10.4882,23.3858a3.25984,3.25984,0,1,1,-6.51969,0,3.25984,3.25984,0,1,1,6.51969,0z"/>
         </g>
        </g>
       </g>
      </g>
     </g>
    </g>
   </g>
  </g>
  <g partID="60060">
   <g transform="translate(3.94248,117.853)">
    <g transform="matrix(1, 0, 0, 1, 0, -795.118)">
     <g id="copper0">
      <g>
       <g transform="matrix(1, 0, 0, 1, 0, 795.118)">
        <g id="0.3.1.0">
         <path stroke-opacity="1" fill="none" stroke="black" style="opacity:0.98000004;stroke-miterlimit:4;stroke-dasharray:none" id="connector2pin" stroke-width="2.83465" d="m10.4882,23.3858a3.25984,3.25984,0,1,1,-6.51969,0,3.25984,3.25984,0,1,1,6.51969,0z"/>
        </g>
       </g>
       <g transform="matrix(1, 0, 0, 1, 5.81102, 812.126)">
        <g id="0.3.1.1">
         <path stroke-opacity="1" fill="none" stroke="black" style="opacity:0.98000004;stroke-miterlimit:4;stroke-dasharray:none" id="path3782-7" stroke-width="2.83465" d="m10.4882,23.3858a3.25984,3.25984,0,1,1,-6.51969,0,3.25984,3.25984,0,1,1,6.51969,0z"/>
        </g>
       </g>
       <g transform="matrix(1, 0, 0, 1, 40.252, 812.126)">
        <g id="0.3.1.2">
         <path stroke-opacity="1" fill="none" stroke="black" style="opacity:0.98000004;stroke-miterlimit:4;stroke-dasharray:none" id="path3782-7-5" stroke-width="2.83465" d="m10.4882,23.3858a3.25984,3.25984,0,1,1,-6.51969,0,3.25984,3.25984,0,1,1,6.51969,0z"/>
        </g>
       </g>
       <g transform="matrix(1, 0, 0, 1, 5.81102, 812.126)">
        <g id="0.3.1.3">
         <path stroke-opacity="1" fill="none" stroke="black" style="opacity:0.98000004;stroke-miterlimit:4;stroke-dasharray:none" id="connector1pin" stroke-width="2.83465" d="m10.4882,23.3858a3.25984,3.25984,0,1,1,-6.51969,0,3.25984,3.25984,0,1,1,6.51969,0z"/>
        </g>
       </g>
       <g transform="matrix(1, 0, 0, 1, 40.252, 812.126)">
        <g id="0.3.1.4">
         <path stroke-opacity="1" fill="none" stroke="black" style="opacity:0.98000004;stroke-miterlimit:4;stroke-dasharray:none" id="connector0pin" stroke-width="2.83465" d="m10.4882,23.3858a3.25984,3.25984,0,1,1,-6.51969,0,3.25984,3.25984,0,1,1,6.51969,0z"/>
        </g>
       </g>
       <g transform="matrix(1, 0, 0, -1, 5.81102, 824.882)">
        <g id="0.3.1.5">
         <path stroke-opacity="1" fill="none" stroke="black" style="opacity:0.98000004;stroke-miterlimit:4;stroke-dasharray:none" id="connector4pin" stroke-width="2.83465" d="m10.4882,23.3858a3.25984,3.25984,0,1,1,-6.51969,0,3.25984,3.25984,0,1,1,6.51969,0z"/>
        </g>
       </g>
       <g transform="matrix(1, 0, 0, -1, 40.252, 824.882)">
        <g id="0.3.1.6">
         <path stroke-opacity="1" fill="none" stroke="black" style="opacity:0.98000004;stroke-miterlimit:4;stroke-dasharray:none" id="connector5pin" stroke-width="2.83465" d="m10.4882,23.3858a3.25984,3.25984,0,1,1,-6.51969,0,3.25984,3.25984,0,1,1,6.51969,0z"/>
        </g>
       </g>
      </g>
     </g>
    </g>
   </g>
  </g>
  <g partID="283830">
   <g transform="translate(68.7124,117.118)">
    <g transform="matrix(1, 0, 0, 1, -167.25, -382.666)">
     <g id="copper0">
      <g>
       <g transform="matrix(1, 0, 0, 1, 0, -2141.18)">
        <g id="0.3.0.0">
         <path fill="black" stroke="none" style="opacity:0.98000004;fill-rule:nonzero;" fill-opacity="1" id="connector0pin" d="m174.05,2523.85c-3.769,0,-6.8,3.056,-6.8,6.82504l0,0.6c0,3.76896,3.031,6.8,6.8,6.8l14.725,0c3.769,0,6.825,-3.03104,6.825,-6.8l0,-0.6c0,-3.76904,-3.056,-6.82504,-6.825,-6.82504l-14.725,0zm0.575,3.95c1.56553,0,2.825,1.28728,2.825,2.87504,0,1.58768,-1.25947,2.87496,-2.825,2.87496,-1.56553,0,-2.85,-1.28728,-2.85,-2.87496,0,-1.58776,1.28447,-2.87504,2.85,-2.87504zm14.15,0c1.56553,0,2.85,1.28728,2.85,2.87504,0,1.58768,-1.28447,2.87496,-2.85,2.87496,-1.56553,0,-2.825,-1.28728,-2.825,-2.87496,0,-1.58776,1.25947,-2.87504,2.825,-2.87504z"/>
        </g>
       </g>
      </g>
     </g>
    </g>
   </g>
  </g>
  <g partID="283860">
   <g transform="translate(68.7124,40.5824)">
    <g transform="matrix(1, 0, 0, 1, -167.25, -382.666)">
     <g id="copper0">
      <g>
       <g transform="matrix(1, 0, 0, 1, 0, -2141.18)">
        <g id="0.3.0.0">
         <path fill="black" stroke="none" style="opacity:0.98000004;fill-rule:nonzero;" fill-opacity="1" id="connector0pin" d="m174.05,2523.85c-3.769,0,-6.8,3.056,-6.8,6.82504l0,0.6c0,3.76896,3.031,6.8,6.8,6.8l14.725,0c3.769,0,6.825,-3.03104,6.825,-6.8l0,-0.6c0,-3.76904,-3.056,-6.82504,-6.825,-6.82504l-14.725,0zm0.575,3.95c1.56553,0,2.825,1.28728,2.825,2.87504,0,1.58768,-1.25947,2.87496,-2.825,2.87496,-1.56553,0,-2.85,-1.28728,-2.85,-2.87496,0,-1.58776,1.28447,-2.87504,2.85,-2.87504zm14.15,0c1.56553,0,2.85,1.28728,2.85,2.87504,0,1.58768,-1.28447,2.87496,-2.85,2.87496,-1.56553,0,-2.825,-1.28728,-2.825,-2.87496,0,-1.58776,1.25947,-2.87504,2.825,-2.87504z"/>
        </g>
       </g>
      </g>
     </g>
    </g>
   </g>
  </g>
  <g partID="283890">
   <g transform="translate(69.421,141.921)">
    <g transform="matrix(1, 0, 0, 1, -167.25, -382.666)">
     <g id="copper0">
      <g>
       <g transform="matrix(1, 0, 0, 1, 0, -2141.18)">
        <g id="0.3.0.0">
         <path fill="black" stroke="none" style="opacity:0.98000004;fill-rule:nonzero;" fill-opacity="1" id="connector0pin" d="m174.05,2523.85c-3.769,0,-6.8,3.056,-6.8,6.82504l0,0.6c0,3.76896,3.031,6.8,6.8,6.8l14.725,0c3.769,0,6.825,-3.03104,6.825,-6.8l0,-0.6c0,-3.76904,-3.056,-6.82504,-6.825,-6.82504l-14.725,0zm0.575,3.95c1.56553,0,2.825,1.28728,2.825,2.87504,0,1.58768,-1.25947,2.87496,-2.825,2.87496,-1.56553,0,-2.85,-1.28728,-2.85,-2.87496,0,-1.58776,1.28447,-2.87504,2.85,-2.87504zm14.15,0c1.56553,0,2.85,1.28728,2.85,2.87504,0,1.58768,-1.28447,2.87496,-2.85,2.87496,-1.56553,0,-2.825,-1.28728,-2.825,-2.87496,0,-1.58776,1.25947,-2.87504,2.825,-2.87504z"/>
        </g>
       </g>
      </g>
     </g>
    </g>
   </g>
  </g>
  <g partID="283920">
   <g transform="translate(68.7124,91.6064)">
    <g transform="matrix(1, 0, 0, 1, -167.25, -382.666)">
     <g id="copper0">
      <g>
       <g transform="matrix(1, 0, 0, 1, 0, -2141.18)">
        <g id="0.3.0.0">
         <path fill="black" stroke="none" style="opacity:0.98000004;fill-rule:nonzero;" fill-opacity="1" id="connector0pin" d="m174.05,2523.85c-3.769,0,-6.8,3.056,-6.8,6.82504l0,0.6c0,3.76896,3.031,6.8,6.8,6.8l14.725,0c3.769,0,6.825,-3.03104,6.825,-6.8l0,-0.6c0,-3.76904,-3.056,-6.82504,-6.825,-6.82504l-14.725,0zm0.575,3.95c1.56553,0,2.825,1.28728,2.825,2.87504,0,1.58768,-1.25947,2.87496,-2.825,2.87496,-1.56553,0,-2.85,-1.28728,-2.85,-2.87496,0,-1.58776,1.28447,-2.87504,2.85,-2.87504zm14.15,0c1.56553,0,2.85,1.28728,2.85,2.87504,0,1.58768,-1.28447,2.87496,-2.85,2.87496,-1.56553,0,-2.825,-1.28728,-2.825,-2.87496,0,-1.58776,1.25947,-2.87504,2.825,-2.87504z"/>
        </g>
       </g>
      </g>
     </g>
    </g>
   </g>
  </g>
  <g partID="283950">
   <g transform="translate(68.7124,15.0704)">
    <g transform="matrix(1, 0, 0, 1, -167.25, -382.666)">
     <g id="copper0">
      <g>
       <g transform="matrix(1, 0, 0, 1, 0, -2141.18)">
        <g id="0.3.0.0">
         <path fill="black" stroke="none" style="opacity:0.98000004;fill-rule:nonzero;" fill-opacity="1" id="connector0pin" d="m174.05,2523.85c-3.769,0,-6.8,3.056,-6.8,6.82504l0,0.6c0,3.76896,3.031,6.8,6.8,6.8l14.725,0c3.769,0,6.825,-3.03104,6.825,-6.8l0,-0.6c0,-3.76904,-3.056,-6.82504,-6.825,-6.82504l-14.725,0zm0.575,3.95c1.56553,0,2.825,1.28728,2.825,2.87504,0,1.58768,-1.25947,2.87496,-2.825,2.87496,-1.56553,0,-2.85,-1.28728,-2.85,-2.87496,0,-1.58776,1.28447,-2.87504,2.85,-2.87504zm14.15,0c1.56553,0,2.85,1.28728,2.85,2.87504,0,1.58768,-1.28447,2.87496,-2.85,2.87496,-1.56553,0,-2.825,-1.28728,-2.825,-2.87496,0,-1.58776,1.25947,-2.87504,2.825,-2.87504z"/>
        </g>
       </g>
      </g>
     </g>
    </g>
   </g>
  </g>
  <g partID="283980">
   <g transform="translate(68.7124,66.0944)">
    <g transform="matrix(1, 0, 0, 1, -167.25, -382.666)">
     <g id="copper0">
      <g>
       <g transform="matrix(1, 0, 0, 1, 0, -2141.18)">
        <g id="0.3.0.0">
         <path fill="black" stroke="none" style="opacity:0.98000004;fill-rule:nonzero;" fill-opacity="1" id="connector0pin" d="m174.05,2523.85c-3.769,0,-6.8,3.056,-6.8,6.82504l0,0.6c0,3.76896,3.031,6.8,6.8,6.8l14.725,0c3.769,0,6.825,-3.03104,6.825,-6.8l0,-0.6c0,-3.76904,-3.056,-6.82504,-6.825,-6.82504l-14.725,0zm0.575,3.95c1.56553,0,2.825,1.28728,2.825,2.87504,0,1.58768,-1.25947,2.87496,-2.825,2.87496,-1.56553,0,-2.85,-1.28728,-2.85,-2.87496,0,-1.58776,1.28447,-2.87504,2.85,-2.87504zm14.15,0c1.56553,0,2.85,1.28728,2.85,2.87504,0,1.58768,-1.28447,2.87496,-2.85,2.87496,-1.56553,0,-2.825,-1.28728,-2.825,-2.87496,0,-1.58776,1.25947,-2.87504,2.825,-2.87504z"/>
        </g>
       </g>
      </g>
     </g>
    </g>
   </g>
  </g>
  <g partID="293850">
   <line stroke="black" stroke-linecap="round" y1="14.3948" x1="54.8653" y2="14.4544" stroke-width="3.456" x2="82.8397"/>
  </g>
  <g partID="298960">
   <line stroke="black" stroke-linecap="round" y1="14.4544" x1="82.8397" y2="15.4704" stroke-width="3.456" x2="82.8459"/>
  </g>
  <g partID="299040">
   <line stroke="black" stroke-linecap="round" y1="92.0064" x1="82.8608" y2="86.6832" stroke-width="3.456" x2="82.8397"/>
  </g>
  <g partID="299030">
   <line stroke="black" stroke-linecap="round" y1="86.6832" x1="82.8397" y2="87.2927" stroke-width="3.456" x2="51.1445"/>
  </g>
  <g partID="299090">
   <line stroke="black" stroke-linecap="round" y1="87.2927" x1="51.1445" y2="71.6881" stroke-width="3.456" x2="51.3725"/>
  </g>
  <g partID="298690">
   <line stroke="black" stroke-linecap="round" y1="36.4584" x1="28.2568" y2="36.3974" stroke-width="3.456" x2="82.2302"/>
  </g>
  <g partID="298780">
   <line stroke="black" stroke-linecap="round" y1="36.3974" x1="82.2302" y2="40.9824" stroke-width="3.456" x2="82.4969"/>
  </g>
  <g partID="297860">
   <line stroke="black" stroke-linecap="round" y1="36.4584" x1="28.2568" y2="40.6184" stroke-width="3.456" x2="27.6168"/>
  </g>
  <g partID="298870">
   <line stroke="black" stroke-linecap="round" y1="40.6184" x1="27.6168" y2="41.2736" stroke-width="3.456" x2="8.47776"/>
  </g>
  <g partID="297590">
   <line stroke="black" stroke-linecap="round" y1="14.4544" x1="28.2873" y2="36.4582" stroke-width="3.456" x2="28.2568"/>
  </g>
  <g partID="297730">
   <line stroke="black" stroke-linecap="round" y1="41.2736" x1="8.47776" y2="68.3974" stroke-width="3.456" x2="8.47776"/>
  </g>
  <g partID="297600">
   <line stroke="black" stroke-linecap="round" y1="14.4079" x1="20.4243" y2="14.4544" stroke-width="3.456" x2="28.2873"/>
  </g>
  <g partID="297990">
   <line stroke="black" stroke-linecap="round" y1="68.3974" x1="8.47776" y2="68.3072" stroke-width="3.456" x2="13.5399"/>
  </g>
  <g partID="298150">
   <line stroke="black" stroke-linecap="round" y1="124.204" x1="13.5394" y2="124.169" stroke-width="3.456" x2="9.08728"/>
  </g>
  <g partID="298480">
   <line stroke="black" stroke-linecap="round" y1="124.169" x1="9.08728" y2="94.6069" stroke-width="3.456" x2="9.08728"/>
  </g>
  <g partID="298370">
   <line stroke="black" stroke-linecap="round" y1="94.6072" x1="9.08728" y2="94.6072" stroke-width="3.456" x2="27.6778"/>
  </g>
  <g partID="298260">
   <line stroke="black" stroke-linecap="round" y1="94.6072" x1="27.6778" y2="68.3977" stroke-width="3.456" x2="27.6778"/>
  </g>
  <g partID="298140">
   <line stroke="black" stroke-linecap="round" y1="68.3977" x1="27.6778" y2="68.2948" stroke-width="3.456" x2="20.424"/>
  </g>
  <g partID="297390">
   <line stroke="black" stroke-linecap="round" y1="83.94" x1="3.90632" y2="31.521" stroke-width="3.456" x2="3.60156"/>
  </g>
  <g partID="297480">
   <line stroke="black" stroke-linecap="round" y1="31.521" x1="3.60156" y2="31.4525" stroke-width="3.456" x2="7.72878"/>
  </g>
  <g partID="296850">
   <line stroke="black" stroke-linecap="round" y1="140.626" x1="3.90632" y2="83.9407" stroke-width="3.456" x2="3.90632"/>
  </g>
  <g partID="296960">
   <line stroke="black" stroke-linecap="round" y1="83.9407" x1="3.90632" y2="84.6415" stroke-width="3.456" x2="7.78322"/>
  </g>
  <g partID="296720">
   <line stroke="black" stroke-linecap="round" y1="140.626" x1="3.90636" y2="140.949" stroke-width="3.456" x2="7.7405"/>
  </g>
  <g partID="294050">
   <line stroke="black" stroke-linecap="round" y1="166.835" x1="4.21112" y2="140.626" stroke-width="3.456" x2="3.90636"/>
  </g>
  <g partID="294310">
   <line stroke="black" stroke-linecap="round" y1="166.835" x1="82.8397" y2="166.835" stroke-width="3.456" x2="4.21112"/>
  </g>
  <g partID="293930">
   <line stroke="black" stroke-linecap="round" y1="155.746" x1="83.3108" y2="166.835" stroke-width="3.456" x2="82.8397"/>
  </g>
  <g partID="295810">
   <line stroke="black" stroke-linecap="round" y1="58.9496" x1="38.3444" y2="58.9496" stroke-width="3.456" x2="82.5349"/>
  </g>
  <g partID="295900">
   <line stroke="black" stroke-linecap="round" y1="58.9496" x1="82.5349" y2="66.4944" stroke-width="3.456" x2="82.7214"/>
  </g>
  <g partID="295590">
   <line stroke="black" stroke-linecap="round" y1="102.226" x1="38.6492" y2="58.9502" stroke-width="3.456" x2="38.3444"/>
  </g>
  <g partID="295700">
   <line stroke="black" stroke-linecap="round" y1="58.9496" x1="38.3444" y2="48.283" stroke-width="3.456" x2="38.3444"/>
  </g>
  <g partID="295460">
   <line stroke="black" stroke-linecap="round" y1="102.226" x1="38.6492" y2="102.256" stroke-width="3.456" x2="20.4244"/>
  </g>
  <g partID="295990">
   <line stroke="black" stroke-linecap="round" y1="48.283" x1="38.3444" y2="48.3839" stroke-width="3.456" x2="20.4243"/>
  </g>
  <g partID="294580">
   <line stroke="black" stroke-linecap="round" y1="158.912" x1="38.9539" y2="102.226" stroke-width="3.456" x2="38.6492"/>
  </g>
  <g partID="294590">
   <line stroke="black" stroke-linecap="round" y1="158.351" x1="20.4228" y2="158.912" stroke-width="3.456" x2="38.9539"/>
  </g>
  <g partID="293890">
   <line stroke="black" stroke-linecap="round" y1="124.23" x1="69.1124" y2="124.231" stroke-width="3.456" x2="54.8653"/>
  </g>
 </g>
</svg>
