<?xml version="1.0" encoding="UTF-8" standalone="no"?>
<!-- Created with Fritzing (http://www.fritzing.org/) -->

<svg
   xmlns:dc="http://purl.org/dc/elements/1.1/"
   xmlns:cc="http://creativecommons.org/ns#"
   xmlns:rdf="http://www.w3.org/1999/02/22-rdf-syntax-ns#"
   xmlns:svg="http://www.w3.org/2000/svg"
   xmlns="http://www.w3.org/2000/svg"
   xmlns:sodipodi="http://sodipodi.sourceforge.net/DTD/sodipodi-0.dtd"
   xmlns:inkscape="http://www.inkscape.org/namespaces/inkscape"
   width="1.6248in"
   x="0in"
   version="1.2"
   y="0in"
   height="1.63591in"
   viewBox="0 0 116.986 117.786"
   id="svg7968"
   inkscape:version="0.48.4 r9939"
   sodipodi:docname="denne_Svietenie_rele_D_etch_copper_bottom.svg">
  <metadata
     id="metadata8125">
    <rdf:RDF>
      <cc:Work
         rdf:about="">
        <dc:format>image/svg+xml</dc:format>
        <dc:type
           rdf:resource="http://purl.org/dc/dcmitype/StillImage" />
      </cc:Work>
    </rdf:RDF>
  </metadata>
  <defs
     id="defs8123" />
  <sodipodi:namedview
     pagecolor="#ffffff"
     bordercolor="#666666"
     borderopacity="1"
     objecttolerance="10"
     gridtolerance="10"
     guidetolerance="10"
     inkscape:pageopacity="0"
     inkscape:pageshadow="2"
     inkscape:window-width="640"
     inkscape:window-height="480"
     id="namedview8121"
     showgrid="false"
     inkscape:zoom="2.266862"
     inkscape:cx="26.210534"
     inkscape:cy="73.611345"
     inkscape:current-layer="svg7968" />
  <g
     partID="77300"
     id="g7970">
    <g
       id="board">
      <rect
         width="116.41"
         x="0.576"
         y="0.576"
         fill="none"
         height="117.21"
         stroke="black"
         fill-opacity="0.5"
         id="boardoutline"
         stroke-width="0.5" />
    </g>
  </g>
  <g
     partID="77730"
     id="g7974">
    <g
       transform="translate(83.3795,14.9402)"
       id="g7976">
      <g
         id="copper0">
        <rect
           width="5.69197"
           x="11.554"
           y="6.04063"
           fill="none"
           height="5.69197"
           stroke="black"
           id="square"
           stroke-width="1.44" />
        <circle
           fill="none"
           cx="14.4"
           cy="8.8866"
           stroke="black"
           id="connector0pin"
           r="2.84598"
           stroke-width="1.44" />
        <circle
           fill="none"
           cx="14.4"
           cy="23.0599"
           stroke="black"
           id="connector1pin"
           r="2.84598"
           stroke-width="1.44" />
        <circle
           fill="none"
           cx="14.4"
           cy="37.2331"
           stroke="black"
           id="connector2pin"
           r="2.84598"
           stroke-width="1.44" />
        <circle
           fill="none"
           cx="14.4"
           cy="51.4063"
           stroke="black"
           id="connector3pin"
           r="2.84598"
           stroke-width="1.44" />
        <circle
           fill="none"
           cx="14.4"
           cy="65.5795"
           stroke="black"
           id="connector4pin"
           r="2.84598"
           stroke-width="1.44" />
        <circle
           fill="none"
           cx="14.4"
           cy="79.753"
           stroke="black"
           id="connector5pin"
           r="2.84598"
           stroke-width="1.44" />
      </g>
    </g>
  </g>
  <g
     partID="78690"
     id="g7986">
    <g
       transform="translate(29.0078,76.5911)"
       id="g7988">
      <g
         transform="matrix(2.22045e-16,1,-1,2.22045e-16,0,0)"
         id="g7990">
        <g
           id="g7992"
           transform="matrix(1, 0, 0, 1, 1.83711, -0.0533789)">
          <rect
             width="4.464"
             x="-1.11711"
             y="8.41972"
             fill="none"
             height="4.464"
             stroke="black"
             id="rect3280"
             stroke-width="1.44" />
          <g
             id="0.3.1"
             transform="matrix(1, 0, 0, 1, -1.90911, 7.05172)">
            <circle
               fill="none"
               cx="3.024"
               cy="3.6"
               stroke="black"
               r="2.232"
               id="circle7996"
               stroke-width="1.44" />
          </g>
          <g
             id="0.3.2"
             transform="matrix(1, 0, 0, 1, 8.08387, 7.05172)">
            <circle
               fill="none"
               cx="24.48"
               cy="3.6"
               stroke="black"
               r="2.232"
               id="circle7999"
               stroke-width="1.44" />
          </g>
        </g>
      </g>
    </g>
  </g>
  <g
     partID="78740"
     id="g8001">
    <g
       transform="translate(55.9369,76.859)"
       id="g8003">
      <g
         transform="matrix(2.22045e-16,1,-1,2.22045e-16,0,0)"
         id="g8005">
        <g
           id="g8007"
           transform="matrix(1, 0, 0, 1, 1.83711, -0.0533789)">
          <rect
             width="4.464"
             x="-1.11711"
             y="8.41972"
             fill="none"
             height="4.464"
             stroke="black"
             id="rect8009"
             stroke-width="1.44" />
          <g
             id="g8011"
             transform="matrix(1, 0, 0, 1, -1.90911, 7.05172)">
            <circle
               fill="none"
               cx="3.024"
               cy="3.6"
               stroke="black"
               r="2.232"
               id="circle8013"
               stroke-width="1.44" />
          </g>
          <g
             id="g8015"
             transform="matrix(1, 0, 0, 1, 8.08387, 7.05172)">
            <circle
               fill="none"
               cx="24.48"
               cy="3.6"
               stroke="black"
               r="2.232"
               id="circle8017"
               stroke-width="1.44" />
          </g>
        </g>
      </g>
    </g>
  </g>
  <g
     partID="78720"
     id="g8019">
    <g
       transform="translate(82.1574,76.5911)"
       id="g8021">
      <g
         transform="matrix(2.22045e-16,1,-1,2.22045e-16,0,0)"
         id="g8023">
        <g
           id="g8025"
           transform="matrix(1, 0, 0, 1, 1.83711, -0.0533789)">
          <rect
             width="4.464"
             x="-1.11711"
             y="8.41972"
             fill="none"
             height="4.464"
             stroke="black"
             id="rect8027"
             stroke-width="1.44" />
          <g
             id="g8029"
             transform="matrix(1, 0, 0, 1, -1.90911, 7.05172)">
            <circle
               fill="none"
               cx="3.024"
               cy="3.6"
               stroke="black"
               r="2.232"
               id="circle8031"
               stroke-width="1.44" />
          </g>
          <g
             id="g8033"
             transform="matrix(1, 0, 0, 1, 8.08387, 7.05172)">
            <circle
               fill="none"
               cx="24.48"
               cy="3.6"
               stroke="black"
               r="2.232"
               id="circle8035"
               stroke-width="1.44" />
          </g>
        </g>
      </g>
    </g>
  </g>
  <g
     partID="80920"
     id="g8037">
    <g
       transform="translate(4.61142,2.45082)"
       id="g8039">
      <g
         id="g8041">
        <path
           fill="black"
           stroke="none"
           style="opacity:0.98000004;fill-rule:nonzero;"
           fill-opacity="0.98039216"
           id="path8043"
           d="m32.9221,50.4333c-1.56553,0.0004,-2.825,1.28456,-2.825,2.84992l0,5.66536c0,1.56576,1.25947,2.8256,2.825,2.82504l24.1043,-0.008c1.56553,-0.00048,2.83465,-1.26896,2.83465,-2.83464l0,-5.66928c0,-1.56536,-1.26911,-2.83472,-2.83465,-2.83464zm2.83484,4.24064,18.4348,-0.0104c0.782766,-0.00048,1.425,0.64224,1.425,1.42504,0,0.78272,-0.642234,1.4,-1.425,1.4l0,0.0248,-18.4348,0.0104c-0.782766,0.0004,-1.4,-0.64232,-1.4,-1.42496,0,-0.7828,0.617234,-1.42504,1.4,-1.42504z" />
        <path
           fill="black"
           stroke="none"
           style="opacity:0.98000004;fill-rule:nonzero;"
           fill-opacity="0.98039216"
           id="path8045"
           d="m5.99301,26.2971c-1.56553,0.0004,-2.825,1.28456,-2.825,2.84992l0,5.66536c0,1.56576,1.25947,2.8256,2.825,2.82504l24.1043,-0.008c1.56553,-0.00048,2.83465,-1.26896,2.83465,-2.83464l0,-5.66928c0,-1.56536,-1.26911,-2.83472,-2.83465,-2.83464zm2.83484,4.24064,18.4348,-0.0104c0.782766,-0.00048,1.425,0.64224,1.425,1.42504,0,0.78272,-0.642234,1.4,-1.425,1.4l0,0.0248,-18.4348,0.0104c-0.782766,0.0004,-1.4,-0.64232,-1.4,-1.42496,0,-0.7828,0.617234,-1.42504,1.4,-1.42504z" />
        <path
           fill="black"
           stroke="none"
           style="opacity:0.98000004;fill-rule:nonzero;"
           fill-opacity="0.98039216"
           id="path8047"
           d="m51.78,20.1968c-0.0004,-1.56552,-1.28456,-2.82504,-2.84992,-2.82504l-5.66536,0c-1.56576,0,-2.8256,1.25952,-2.82504,2.82504l0.008,24.1043c0.00048,1.56552,1.26896,2.83464,2.83464,2.83464l5.66928,0c1.56536,0,2.83472,-1.26912,2.83464,-2.83464zm-4.24064,2.8348,0.0104,18.4349c0.00048,0.78272,-0.64224,1.42496,-1.42504,1.42496,-0.78272,0,-1.4,-0.64224,-1.4,-1.42496l-0.0248,0,-0.0104,-18.4349c-0.0004,-0.78272,0.64232,-1.4,1.42496,-1.4,0.7828,0,1.42504,0.61728,1.42504,1.4z" />
        <path
           fill="black"
           stroke="none"
           style="opacity:0.98000004;fill-rule:nonzero;"
           fill-opacity="0.98039216"
           id="path8049"
           d="m74.4572,20.1968c-0.0004,-1.56552,-1.28456,-2.82504,-2.84992,-2.82504l-5.66536,0c-1.56576,0,-2.8256,1.25952,-2.82504,2.82504l0.008,24.1043c0.00048,1.56552,1.26896,2.83464,2.83464,2.83464l5.66928,0c1.56536,0,2.83472,-1.26912,2.83464,-2.83464zm-4.24064,2.8348,0.0104,18.4349c0.00048,0.78272,-0.64224,1.42496,-1.42504,1.42496,-0.78272,0,-1.4,-0.64224,-1.4,-1.42496l-0.0248,0,-0.0104,-18.4349c-0.0004,-0.78272,0.64232,-1.4,1.42496,-1.4,0.7828,0,1.42504,0.61728,1.42504,1.4z" />
        <path
           fill="black"
           stroke="none"
           style="opacity:0.98000004;fill-rule:nonzero;"
           fill-opacity="0.98039216"
           id="path8051"
           d="m34.056,2.81127c-1.56553,0.0004,-2.825,1.28456,-2.825,2.84992l0,5.66536c0,1.56576,1.25947,2.8256,2.825,2.82504l24.1043,-0.008c1.56553,-0.00048,2.83465,-1.26896,2.83465,-2.83464l0,-5.66928c0,-1.56536,-1.26911,-2.83472,-2.83465,-2.83464zm2.83484,4.24064,18.4348,-0.0104c0.782766,-0.00048,1.425,0.64224,1.425,1.42504,0,0.78272,-0.642234,1.4,-1.425,1.4l0,0.0248,-18.4348,0.0104c-0.782766,0.0004,-1.4,-0.64232,-1.4,-1.42496,0,-0.7828,0.617234,-1.42504,1.4,-1.42504z" />
      </g>
    </g>
  </g>
  <g
     partID="90700"
     id="g8053">
    <line
       stroke="black"
       stroke-linecap="round"
       y1="58.7213"
       x1="84.926"
       y2="58.6209"
       stroke-width="3.456"
       x2="64.0725"
       id="line8055" />
  </g>
  <g
     partID="87620"
     id="g8057">
    <line
       stroke="black"
       stroke-linecap="round"
       y1="53.8646"
       x1="94.4595"
       y2="58.7213"
       stroke-width="3.456"
       x2="84.926"
       id="line8059" />
  </g>
  <g
     partID="90650"
     id="g8061">
    <line
       stroke="black"
       stroke-linecap="round"
       y1="11.1213"
       x1="97.726"
       y2="20.1008"
       stroke-width="3.456"
       x2="97.7638"
       id="line8063" />
  </g>
  <g
     partID="87700"
     id="g8065">
    <line
       stroke="black"
       stroke-linecap="round"
       y1="10.9883"
       x1="65.2064"
       y2="11.1213"
       stroke-width="3.456"
       x2="97.726"
       id="line8067" />
  </g>
  <g
     partID="87860"
     id="g8069">
    <line
       stroke="black"
       stroke-linecap="round"
       y1="35.4174"
       x1="78.6749"
       y2="37.5009"
       stroke-width="3.456"
       x2="94.0871"
       id="line8071" />
  </g>
  <g
     partID="90060"
     id="g8073">
    <line
       stroke="black"
       stroke-linecap="round"
       y1="111.121"
       x1="6.52598"
       y2="34.4"
       stroke-width="3.456"
       x2="5.6"
       id="line8075" />
  </g>
  <g
     partID="90200"
     id="g8077">
    <line
       stroke="black"
       stroke-linecap="round"
       y1="34.4"
       x1="5.6"
       y2="34.4023"
       stroke-width="3.456"
       x2="8.17943"
       id="line8079" />
  </g>
  <g
     partID="90070"
     id="g8081">
    <line
       stroke="black"
       stroke-linecap="round"
       y1="111.026"
       x1="15.2976"
       y2="111.121"
       stroke-width="3.456"
       x2="6.52598"
       id="line8083" />
  </g>
  <g
     partID="90430"
     id="g8085">
    <line
       stroke="black"
       stroke-linecap="round"
       y1="111.023"
       x1="21.5213"
       y2="111.229"
       stroke-width="3.456"
       x2="42.2267"
       id="line8087" />
  </g>
  <g
     partID="90570"
     id="g8089">
    <line
       stroke="black"
       stroke-linecap="round"
       y1="111.228"
       x1="48.4504"
       y2="111.024"
       stroke-width="3.456"
       x2="68.4472"
       id="line8091" />
  </g>
  <g
     partID="90750"
     id="g8093">
    <line
       stroke="black"
       stroke-linecap="round"
       y1="68.0215"
       x1="94.4513"
       y2="78.1441"
       stroke-width="3.456"
       x2="74.3388"
       id="line8095" />
  </g>
  <g
     partID="91040"
     id="g8097">
    <line
       stroke="black"
       stroke-linecap="round"
       y1="101.121"
       x1="89.326"
       y2="96.9484"
       stroke-width="3.456"
       x2="94.8136"
       id="line8099" />
  </g>
  <g
     partID="90810"
     id="g8101">
    <line
       stroke="black"
       stroke-linecap="round"
       y1="101.121"
       x1="18.526"
       y2="101.121"
       stroke-width="3.456"
       x2="89.326"
       id="line8103" />
  </g>
  <g
     partID="90820"
     id="g8105">
    <line
       stroke="black"
       stroke-linecap="round"
       y1="82.6551"
       x1="18.4263"
       y2="101.121"
       stroke-width="3.456"
       x2="18.526"
       id="line8107" />
  </g>
  <g
     partID="90950"
     id="g8109">
    <line
       stroke="black"
       stroke-linecap="round"
       y1="91.1213"
       x1="83.726"
       y2="82.7636"
       stroke-width="3.456"
       x2="94.805"
       id="line8111" />
  </g>
  <g
     partID="90890"
     id="g8113">
    <line
       stroke="black"
       stroke-linecap="round"
       y1="91.1213"
       x1="46.126"
       y2="91.1213"
       stroke-width="3.456"
       x2="83.726"
       id="line8115" />
  </g>
  <g
     partID="90900"
     id="g8117">
    <line
       stroke="black"
       stroke-linecap="round"
       y1="82.9155"
       x1="45.5547"
       y2="91.1213"
       stroke-width="3.456"
       x2="46.126"
       id="line8119" />
  </g>
</svg>
