<?xml version="1.0" encoding="UTF-8" standalone="no"?>
<!-- Created with Fritzing (http://www.fritzing.org/) -->

<svg
   xmlns:dc="http://purl.org/dc/elements/1.1/"
   xmlns:cc="http://creativecommons.org/ns#"
   xmlns:rdf="http://www.w3.org/1999/02/22-rdf-syntax-ns#"
   xmlns:svg="http://www.w3.org/2000/svg"
   xmlns="http://www.w3.org/2000/svg"
   xmlns:sodipodi="http://sodipodi.sourceforge.net/DTD/sodipodi-0.dtd"
   xmlns:inkscape="http://www.inkscape.org/namespaces/inkscape"
   width="1.35827in"
   x="0in"
   version="1.2"
   y="0in"
   height="2.3622in"
   viewBox="0 0 97.7953 170.079"
   id="svg11210"
   inkscape:version="0.48.4 r9939"
   sodipodi:docname="denne_Svietenie_rele_D_faston_etch_copper_bottom.svg">
  <metadata
     id="metadata11426">
    <rdf:RDF>
      <cc:Work
         rdf:about="">
        <dc:format>image/svg+xml</dc:format>
        <dc:type
           rdf:resource="http://purl.org/dc/dcmitype/StillImage" />
        <dc:title></dc:title>
      </cc:Work>
    </rdf:RDF>
  </metadata>
  <defs
     id="defs11424" />
  <sodipodi:namedview
     pagecolor="#ffffff"
     bordercolor="#666666"
     borderopacity="1"
     objecttolerance="10"
     gridtolerance="10"
     guidetolerance="10"
     inkscape:pageopacity="0"
     inkscape:pageshadow="2"
     inkscape:window-width="640"
     inkscape:window-height="480"
     id="namedview11422"
     showgrid="false"
     inkscape:zoom="4.440305"
     inkscape:cx="49.867599"
     inkscape:cy="183.99468"
     inkscape:current-layer="svg11210" />
  <g
     partID="77300"
     id="g11212"
     style="fill:#000000;fill-opacity:1">
    <g
       id="board"
       style="fill:#000000;fill-opacity:1">
      <rect
         width="97.2193"
         x="0.576"
         y="0.576"
         fill="none"
         height="169.503"
         stroke="black"
         fill-opacity="0.5"
         id="boardoutline"
         stroke-width="0.5"
         style="fill:#000000;fill-opacity:1" />
    </g>
  </g>
  <g
     partID="282970"
     id="g11216">
    <g
       transform="translate(68.7882,121.641)"
       id="g11218">
      <g
         transform="matrix(-1,2.77556e-16,-2.77556e-16,-1,0,0)"
         id="g11220">
        <g
           id="copper0"
           transform="matrix(1, 0, 0, 1, 1.83711, -0.0533789)">
          <rect
             width="4.464"
             x="-1.11711"
             y="8.41972"
             fill="none"
             height="4.464"
             stroke="black"
             id="rect3280"
             stroke-width="1.44" />
          <g
             id="0.3.1"
             transform="matrix(1, 0, 0, 1, -1.90911, 7.05172)">
            <circle
               fill="none"
               cx="3.024"
               cy="3.6"
               stroke="black"
               r="2.232"
               id="connector0pin"
               stroke-width="1.44"
               d="M 5.256,3.5999999 C 5.256,4.8326995 4.2566996,5.832 3.0239999,5.832 1.7913003,5.832 0.79199982,4.8326995 0.79199982,3.5999999 c 0,-1.2326996 0.99930048,-2.2320001 2.23200008,-2.2320001 1.2326997,0 2.2320001,0.9993005 2.2320001,2.2320001 z" />
          </g>
          <g
             id="0.3.2"
             transform="matrix(1, 0, 0, 1, 8.08387, 7.05172)">
            <circle
               fill="none"
               cx="24.48"
               cy="3.6"
               stroke="black"
               r="2.232"
               id="connector1pin"
               stroke-width="1.44"
               d="M 26.712,3.5999999 C 26.712,4.8326995 25.712699,5.832 24.48,5.832 c -1.2327,0 -2.232001,-0.9993005 -2.232001,-2.2320001 0,-1.2326996 0.999301,-2.2320001 2.232001,-2.2320001 1.232699,0 2.232,0.9993005 2.232,2.2320001 z" />
          </g>
        </g>
      </g>
    </g>
  </g>
  <g
     partID="283070"
     id="g11228">
    <g
       transform="translate(41.8591,140.775)"
       id="g11230">
      <g
         transform="matrix(-1,2.77556e-16,-2.77556e-16,-1,0,0)"
         id="g11232">
        <g
           id="g11234"
           transform="matrix(1, 0, 0, 1, 1.83711, -0.0533789)">
          <rect
             width="4.464"
             x="-1.11711"
             y="8.41972"
             fill="none"
             height="4.464"
             stroke="black"
             id="rect11236"
             stroke-width="1.44" />
          <g
             id="g11238"
             transform="matrix(1, 0, 0, 1, -1.90911, 7.05172)">
            <circle
               fill="none"
               cx="3.024"
               cy="3.6"
               stroke="black"
               r="2.232"
               id="circle11240"
               stroke-width="1.44"
               d="M 5.256,3.5999999 C 5.256,4.8326995 4.2566996,5.832 3.0239999,5.832 1.7913003,5.832 0.79199982,4.8326995 0.79199982,3.5999999 c 0,-1.2326996 0.99930048,-2.2320001 2.23200008,-2.2320001 1.2326997,0 2.2320001,0.9993005 2.2320001,2.2320001 z" />
          </g>
          <g
             id="g11242"
             transform="matrix(1, 0, 0, 1, 8.08387, 7.05172)">
            <circle
               fill="none"
               cx="24.48"
               cy="3.6"
               stroke="black"
               r="2.232"
               id="circle11244"
               stroke-width="1.44"
               d="M 26.712,3.5999999 C 26.712,4.8326995 25.712699,5.832 24.48,5.832 c -1.2327,0 -2.232001,-0.9993005 -2.232001,-2.2320001 0,-1.2326996 0.999301,-2.2320001 2.232001,-2.2320001 1.232699,0 2.232,0.9993005 2.232,2.2320001 z" />
          </g>
        </g>
      </g>
    </g>
  </g>
  <g
     partID="283170"
     id="g11246">
    <g
       transform="translate(69.4969,159.2)"
       id="g11248">
      <g
         transform="matrix(-1,2.77556e-16,-2.77556e-16,-1,0,0)"
         id="g11250">
        <g
           id="g11252"
           transform="matrix(1, 0, 0, 1, 1.83711, -0.0533789)">
          <rect
             width="4.464"
             x="-1.11711"
             y="8.41972"
             fill="none"
             height="4.464"
             stroke="black"
             id="rect11254"
             stroke-width="1.44" />
          <g
             id="g11256"
             transform="matrix(1, 0, 0, 1, -1.90911, 7.05172)">
            <circle
               fill="none"
               cx="3.024"
               cy="3.6"
               stroke="black"
               r="2.232"
               id="circle11258"
               stroke-width="1.44"
               d="M 5.256,3.5999999 C 5.256,4.8326995 4.2566996,5.832 3.0239999,5.832 1.7913003,5.832 0.79199982,4.8326995 0.79199982,3.5999999 c 0,-1.2326996 0.99930048,-2.2320001 2.23200008,-2.2320001 1.2326997,0 2.2320001,0.9993005 2.2320001,2.2320001 z" />
          </g>
          <g
             id="g11260"
             transform="matrix(1, 0, 0, 1, 8.08387, 7.05172)">
            <circle
               fill="none"
               cx="24.48"
               cy="3.6"
               stroke="black"
               r="2.232"
               id="circle11262"
               stroke-width="1.44"
               d="M 26.712,3.5999999 C 26.712,4.8326995 25.712699,5.832 24.48,5.832 c -1.2327,0 -2.232001,-0.9993005 -2.232001,-2.2320001 0,-1.2326996 0.999301,-2.2320001 2.232001,-2.2320001 1.232699,0 2.232,0.9993005 2.232,2.2320001 z" />
          </g>
        </g>
      </g>
    </g>
  </g>
  <g
     partID="317060"
     id="g11264"
     style="fill:#000000;fill-opacity:1;stroke:none;stroke-opacity:1">
    <g
       transform="translate(2.64925,95.7856)"
       id="g11266"
       style="fill:#000000;fill-opacity:1;stroke:none;stroke-opacity:1">
      <g
         transform="matrix(-4.44089e-16,-1,1,-4.44089e-16,0,0)"
         id="g11268"
         style="fill:#000000;fill-opacity:1;stroke:none;stroke-opacity:1">
        <g
           id="g11270"
           style="fill:#000000;fill-opacity:1;stroke:none;stroke-opacity:1">
          <path
             fill="black"
             stroke="none"
             style="opacity:0.98000003999999996;fill-rule:nonzero;fill:#000000;fill-opacity:1;stroke:none;stroke-opacity:1"
             fill-opacity="0.98039216"
             id="connector4pin"
             d="m32.9221,50.4333c-1.56553,0.0004,-2.825,1.28456,-2.825,2.84992l0,5.66536c0,1.56576,1.25947,2.8256,2.825,2.82504l24.1043,-0.008c1.56553,-0.00048,2.83465,-1.26896,2.83465,-2.83464l0,-5.66928c0,-1.56536,-1.26911,-2.83472,-2.83465,-2.83464zm2.83484,4.24064,18.4348,-0.0104c0.782766,-0.00048,1.425,0.64224,1.425,1.42504,0,0.78272,-0.642234,1.4,-1.425,1.4l0,0.0248,-18.4348,0.0104c-0.782766,0.0004,-1.4,-0.64232,-1.4,-1.42496,0,-0.7828,0.617234,-1.42504,1.4,-1.42504z" />
          <path
             fill="black"
             stroke="none"
             style="opacity:0.98000003999999996;fill-rule:nonzero;fill:#000000;fill-opacity:1;stroke:none;stroke-opacity:1"
             fill-opacity="0.98039216"
             id="connector2pin"
             d="m5.99301,26.2971c-1.56553,0.0004,-2.825,1.28456,-2.825,2.84992l0,5.66536c0,1.56576,1.25947,2.8256,2.825,2.82504l24.1043,-0.008c1.56553,-0.00048,2.83465,-1.26896,2.83465,-2.83464l0,-5.66928c0,-1.56536,-1.26911,-2.83472,-2.83465,-2.83464zm2.83484,4.24064,18.4348,-0.0104c0.782766,-0.00048,1.425,0.64224,1.425,1.42504,0,0.78272,-0.642234,1.4,-1.425,1.4l0,0.0248,-18.4348,0.0104c-0.782766,0.0004,-1.4,-0.64232,-1.4,-1.42496,0,-0.7828,0.617234,-1.42504,1.4,-1.42504z" />
          <path
             fill="black"
             stroke="none"
             style="opacity:0.98000003999999996;fill-rule:nonzero;fill:#000000;fill-opacity:1;stroke:none;stroke-opacity:1"
             fill-opacity="0.98039216"
             id="path11274"
             d="m51.78,20.1968c-0.0004,-1.56552,-1.28456,-2.82504,-2.84992,-2.82504l-5.66536,0c-1.56576,0,-2.8256,1.25952,-2.82504,2.82504l0.008,24.1043c0.00048,1.56552,1.26896,2.83464,2.83464,2.83464l5.66928,0c1.56536,0,2.83472,-1.26912,2.83464,-2.83464zm-4.24064,2.8348,0.0104,18.4349c0.00048,0.78272,-0.64224,1.42496,-1.42504,1.42496,-0.78272,0,-1.4,-0.64224,-1.4,-1.42496l-0.0248,0,-0.0104,-18.4349c-0.0004,-0.78272,0.64232,-1.4,1.42496,-1.4,0.7828,0,1.42504,0.61728,1.42504,1.4z" />
          <path
             fill="black"
             stroke="none"
             style="opacity:0.98000003999999996;fill-rule:nonzero;fill:#000000;fill-opacity:1;stroke:none;stroke-opacity:1"
             fill-opacity="0.98039216"
             id="connector5pin"
             d="m74.4572,20.1968c-0.0004,-1.56552,-1.28456,-2.82504,-2.84992,-2.82504l-5.66536,0c-1.56576,0,-2.8256,1.25952,-2.82504,2.82504l0.008,24.1043c0.00048,1.56552,1.26896,2.83464,2.83464,2.83464l5.66928,0c1.56536,0,2.83472,-1.26912,2.83464,-2.83464zm-4.24064,2.8348,0.0104,18.4349c0.00048,0.78272,-0.64224,1.42496,-1.42504,1.42496,-0.78272,0,-1.4,-0.64224,-1.4,-1.42496l-0.0248,0,-0.0104,-18.4349c-0.0004,-0.78272,0.64232,-1.4,1.42496,-1.4,0.7828,0,1.42504,0.61728,1.42504,1.4z" />
          <path
             fill="black"
             stroke="none"
             style="opacity:0.98000003999999996;fill-rule:nonzero;fill:#000000;fill-opacity:1;stroke:none;stroke-opacity:1"
             fill-opacity="0.98039216"
             id="path11277"
             d="m34.056,2.81127c-1.56553,0.0004,-2.825,1.28456,-2.825,2.84992l0,5.66536c0,1.56576,1.25947,2.8256,2.825,2.82504l24.1043,-0.008c1.56553,-0.00048,2.83465,-1.26896,2.83465,-2.83464l0,-5.66928c0,-1.56536,-1.26911,-2.83472,-2.83465,-2.83464zm2.83484,4.24064,18.4348,-0.0104c0.782766,-0.00048,1.425,0.64224,1.425,1.42504,0,0.78272,-0.642234,1.4,-1.425,1.4l0,0.0248,-18.4348,0.0104c-0.782766,0.0004,-1.4,-0.64232,-1.4,-1.42496,0,-0.7828,0.617234,-1.42504,1.4,-1.42504z" />
        </g>
      </g>
    </g>
  </g>
  <g
     partID="316410"
     id="g11279">
    <g
       transform="translate(68.6691,16.0562)"
       id="g11281">
      <g
         id="g11283"
         transform="matrix(1, 0, 0, 1, -167.25, -382.666)">
        <g
           id="g11285">
          <g
             id="0.3.0.0"
             transform="matrix(1, 0, 0, 1, 0, -2141.18)">
            <path
               fill="black"
               stroke="none"
               style="opacity:0.98000004;fill-rule:nonzero;"
               fill-opacity="1"
               id="path11288"
               d="m174.05,2523.85c-3.769,0,-6.8,3.056,-6.8,6.82504l0,0.6c0,3.76896,3.031,6.8,6.8,6.8l14.725,0c3.769,0,6.825,-3.03104,6.825,-6.8l0,-0.6c0,-3.76904,-3.056,-6.82504,-6.825,-6.82504l-14.725,0zm0.575,3.95c1.56553,0,2.825,1.28728,2.825,2.87504,0,1.58768,-1.25947,2.87496,-2.825,2.87496,-1.56553,0,-2.85,-1.28728,-2.85,-2.87496,0,-1.58776,1.28447,-2.87504,2.85,-2.87504zm14.15,0c1.56553,0,2.85,1.28728,2.85,2.87504,0,1.58768,-1.28447,2.87496,-2.85,2.87496,-1.56553,0,-2.825,-1.28728,-2.825,-2.87496,0,-1.58776,1.25947,-2.87504,2.825,-2.87504z" />
          </g>
        </g>
      </g>
    </g>
  </g>
  <g
     partID="316440"
     id="g11290">
    <g
       transform="translate(68.6691,42.2767)"
       id="g11292">
      <g
         id="g11294"
         transform="matrix(1, 0, 0, 1, -167.25, -382.666)">
        <g
           id="g11296">
          <g
             id="g11298"
             transform="matrix(1, 0, 0, 1, 0, -2141.18)">
            <path
               fill="black"
               stroke="none"
               style="opacity:0.98000004;fill-rule:nonzero;"
               fill-opacity="1"
               id="path11300"
               d="m174.05,2523.85c-3.769,0,-6.8,3.056,-6.8,6.82504l0,0.6c0,3.76896,3.031,6.8,6.8,6.8l14.725,0c3.769,0,6.825,-3.03104,6.825,-6.8l0,-0.6c0,-3.76904,-3.056,-6.82504,-6.825,-6.82504l-14.725,0zm0.575,3.95c1.56553,0,2.825,1.28728,2.825,2.87504,0,1.58768,-1.25947,2.87496,-2.825,2.87496,-1.56553,0,-2.85,-1.28728,-2.85,-2.87496,0,-1.58776,1.28447,-2.87504,2.85,-2.87504zm14.15,0c1.56553,0,2.85,1.28728,2.85,2.87504,0,1.58768,-1.28447,2.87496,-2.85,2.87496,-1.56553,0,-2.825,-1.28728,-2.825,-2.87496,0,-1.58776,1.25947,-2.87504,2.825,-2.87504z" />
          </g>
        </g>
      </g>
    </g>
  </g>
  <g
     partID="316470"
     id="g11302">
    <g
       transform="translate(68.6691,145.033)"
       id="g11304">
      <g
         id="g11306"
         transform="matrix(1, 0, 0, 1, -167.25, -382.666)">
        <g
           id="g11308">
          <g
             id="g11310"
             transform="matrix(1, 0, 0, 1, 0, -2141.18)">
            <path
               fill="black"
               stroke="none"
               style="opacity:0.98000004;fill-rule:nonzero;"
               fill-opacity="1"
               id="path11312"
               d="m174.05,2523.85c-3.769,0,-6.8,3.056,-6.8,6.82504l0,0.6c0,3.76896,3.031,6.8,6.8,6.8l14.725,0c3.769,0,6.825,-3.03104,6.825,-6.8l0,-0.6c0,-3.76904,-3.056,-6.82504,-6.825,-6.82504l-14.725,0zm0.575,3.95c1.56553,0,2.825,1.28728,2.825,2.87504,0,1.58768,-1.25947,2.87496,-2.825,2.87496,-1.56553,0,-2.85,-1.28728,-2.85,-2.87496,0,-1.58776,1.28447,-2.87504,2.85,-2.87504zm14.15,0c1.56553,0,2.85,1.28728,2.85,2.87504,0,1.58768,-1.28447,2.87496,-2.85,2.87496,-1.56553,0,-2.825,-1.28728,-2.825,-2.87496,0,-1.58776,1.25947,-2.87504,2.825,-2.87504z" />
          </g>
        </g>
      </g>
    </g>
  </g>
  <g
     partID="316500"
     id="g11314">
    <g
       transform="translate(68.6691,118.812)"
       id="g11316">
      <g
         id="g11318"
         transform="matrix(1, 0, 0, 1, -167.25, -382.666)">
        <g
           id="g11320">
          <g
             id="g11322"
             transform="matrix(1, 0, 0, 1, 0, -2141.18)">
            <path
               fill="black"
               stroke="none"
               style="opacity:0.98000004;fill-rule:nonzero;"
               fill-opacity="1"
               id="path11324"
               d="m174.05,2523.85c-3.769,0,-6.8,3.056,-6.8,6.82504l0,0.6c0,3.76896,3.031,6.8,6.8,6.8l14.725,0c3.769,0,6.825,-3.03104,6.825,-6.8l0,-0.6c0,-3.76904,-3.056,-6.82504,-6.825,-6.82504l-14.725,0zm0.575,3.95c1.56553,0,2.825,1.28728,2.825,2.87504,0,1.58768,-1.25947,2.87496,-2.825,2.87496,-1.56553,0,-2.85,-1.28728,-2.85,-2.87496,0,-1.58776,1.28447,-2.87504,2.85,-2.87504zm14.15,0c1.56553,0,2.85,1.28728,2.85,2.87504,0,1.58768,-1.28447,2.87496,-2.85,2.87496,-1.56553,0,-2.825,-1.28728,-2.825,-2.87496,0,-1.58776,1.25947,-2.87504,2.825,-2.87504z" />
          </g>
        </g>
      </g>
    </g>
  </g>
  <g
     partID="316530"
     id="g11326">
    <g
       transform="translate(68.6691,94.0089)"
       id="g11328">
      <g
         id="g11330"
         transform="matrix(1, 0, 0, 1, -167.25, -382.666)">
        <g
           id="g11332">
          <g
             id="g11334"
             transform="matrix(1, 0, 0, 1, 0, -2141.18)">
            <path
               fill="black"
               stroke="none"
               style="opacity:0.98000004;fill-rule:nonzero;"
               fill-opacity="1"
               id="path11336"
               d="m174.05,2523.85c-3.769,0,-6.8,3.056,-6.8,6.82504l0,0.6c0,3.76896,3.031,6.8,6.8,6.8l14.725,0c3.769,0,6.825,-3.03104,6.825,-6.8l0,-0.6c0,-3.76904,-3.056,-6.82504,-6.825,-6.82504l-14.725,0zm0.575,3.95c1.56553,0,2.825,1.28728,2.825,2.87504,0,1.58768,-1.25947,2.87496,-2.825,2.87496,-1.56553,0,-2.85,-1.28728,-2.85,-2.87496,0,-1.58776,1.28447,-2.87504,2.85,-2.87504zm14.15,0c1.56553,0,2.85,1.28728,2.85,2.87504,0,1.58768,-1.28447,2.87496,-2.85,2.87496,-1.56553,0,-2.825,-1.28728,-2.825,-2.87496,0,-1.58776,1.25947,-2.87504,2.825,-2.87504z" />
          </g>
        </g>
      </g>
    </g>
  </g>
  <g
     partID="316560"
     id="g11338">
    <g
       transform="translate(68.6691,67.7885)"
       id="g11340">
      <g
         id="g11342"
         transform="matrix(1, 0, 0, 1, -167.25, -382.666)">
        <g
           id="g11344">
          <g
             id="g11346"
             transform="matrix(1, 0, 0, 1, 0, -2141.18)">
            <path
               fill="black"
               stroke="none"
               style="opacity:0.98000004;fill-rule:nonzero;"
               fill-opacity="1"
               id="path11348"
               d="m174.05,2523.85c-3.769,0,-6.8,3.056,-6.8,6.82504l0,0.6c0,3.76896,3.031,6.8,6.8,6.8l14.725,0c3.769,0,6.825,-3.03104,6.825,-6.8l0,-0.6c0,-3.76904,-3.056,-6.82504,-6.825,-6.82504l-14.725,0zm0.575,3.95c1.56553,0,2.825,1.28728,2.825,2.87504,0,1.58768,-1.25947,2.87496,-2.825,2.87496,-1.56553,0,-2.85,-1.28728,-2.85,-2.87496,0,-1.58776,1.28447,-2.87504,2.85,-2.87504zm14.15,0c1.56553,0,2.85,1.28728,2.85,2.87504,0,1.58768,-1.28447,2.87496,-2.85,2.87496,-1.56553,0,-2.825,-1.28728,-2.825,-2.87496,0,-1.58776,1.25947,-2.87504,2.825,-2.87504z" />
          </g>
        </g>
      </g>
    </g>
  </g>
  <g
     partID="318480"
     id="g11350">
    <line
       stroke="black"
       stroke-linecap="round"
       y1="14.5752"
       x1="11.3591"
       y2="14.5752"
       stroke-width="3.456"
       x2="82.7831"
       id="line11352" />
  </g>
  <g
     partID="87700"
     id="g11354">
    <line
       stroke="black"
       stroke-linecap="round"
       y1="35.1907"
       x1="11.2231"
       y2="14.5752"
       stroke-width="3.456"
       x2="11.3591"
       id="line11356" />
  </g>
  <g
     partID="318530"
     id="g11358">
    <line
       stroke="black"
       stroke-linecap="round"
       y1="14.5752"
       x1="82.7831"
       y2="16.4562"
       stroke-width="3.456"
       x2="82.7965"
       id="line11360" />
  </g>
  <g
     partID="87860"
     id="g11362">
    <line
       stroke="black"
       stroke-linecap="round"
       y1="27.2081"
       x1="49.385"
       y2="27.3752"
       stroke-width="3.456"
       x2="60.7671"
       id="line11364" />
  </g>
  <g
     partID="318580"
     id="g11366">
    <line
       stroke="black"
       stroke-linecap="round"
       y1="27.3752"
       x1="60.7671"
       y2="42.6767"
       stroke-width="3.456"
       x2="76.1124"
       id="line11368" />
  </g>
  <g
     partID="90060"
     id="g11370">
    <line
       stroke="black"
       stroke-linecap="round"
       y1="107.931"
       x1="34.4084"
       y2="92.2176"
       stroke-width="3.456"
       x2="34.515"
       id="line11372" />
  </g>
  <g
     partID="318150"
     id="g11374">
    <line
       stroke="black"
       stroke-linecap="round"
       y1="111.087"
       x1="7.77512"
       y2="127.065"
       stroke-width="3.456"
       x2="7.50978"
       id="line11376" />
  </g>
  <g
     partID="90430"
     id="g11378">
    <line
       stroke="black"
       stroke-linecap="round"
       y1="111.048"
       x1="31.2752"
       y2="111.087"
       stroke-width="3.456"
       x2="7.77512"
       id="line11380" />
  </g>
  <g
     partID="90570"
     id="g11382">
    <line
       stroke="black"
       stroke-linecap="round"
       y1="133.288"
       x1="7.5136"
       y2="147.951"
       stroke-width="3.456"
       x2="7.77512"
       id="line11384" />
  </g>
  <g
     partID="318060"
     id="g11386">
    <line
       stroke="black"
       stroke-linecap="round"
       y1="147.951"
       x1="7.77512"
       y2="148.528"
       stroke-width="3.456"
       x2="31.9848"
       id="line11388" />
  </g>
  <g
     partID="318730"
     id="g11390"
     transform="matrix(1,0,0,0.72784165,0,39.795811)">
    <line
       y1="147.951"
       x1="81.503098"
       y2="148.467"
       x2="69.6539"
       id="line11392"
       style="stroke:#000000;stroke-width:3.45600009;stroke-linecap:round" />
  </g>
  <g
     partID="90750"
     id="g11394">
    <line
       stroke="black"
       stroke-linecap="round"
       y1="152.145"
       x1="82.8441"
       y2="147.951"
       stroke-width="3.456"
       x2="81.5031"
       id="line11396" />
  </g>
  <g
     partID="318630"
     id="g11398">
    <line
       stroke="black"
       stroke-linecap="round"
       y1="101.103"
       x1="65.8871"
       y2="101.107"
       stroke-width="3.456"
       x2="69.0691"
       id="line11400" />
  </g>
  <g
     partID="90810"
     id="g11402">
    <line
       stroke="black"
       stroke-linecap="round"
       y1="107.931"
       x1="65.8522"
       y2="101.103"
       stroke-width="3.456"
       x2="65.8871"
       id="line11404" />
  </g>
  <g
     partID="318680"
     id="g11406">
    <line
       stroke="black"
       stroke-linecap="round"
       y1="130.799"
       x1="82.7831"
       y2="125.925"
       stroke-width="3.456"
       x2="82.8441"
       id="line11408" />
  </g>
  <g
     partID="90890"
     id="g11410">
    <line
       stroke="black"
       stroke-linecap="round"
       y1="130.221"
       x1="42.0188"
       y2="130.799"
       stroke-width="3.456"
       x2="82.7831"
       id="line11412" />
  </g>
  <g
     partID="318430"
     id="g11414">
    <line
       stroke="black"
       stroke-linecap="round"
       y1="74.9912"
       x1="59.4871"
       y2="74.9542"
       stroke-width="3.456"
       x2="69.0691"
       id="line11416" />
  </g>
  <g
     partID="318390"
     id="g11418">
    <line
       stroke="black"
       stroke-linecap="round"
       y1="65.2885"
       x1="59.1912"
       y2="74.9912"
       stroke-width="3.456"
       x2="59.4871"
       id="line11420" />
  </g>
  <path
     style="fill:none;stroke:#ffffff;stroke-width:1px;stroke-linecap:butt;stroke-linejoin:miter;stroke-opacity:1"
     d="m 0.63698936,83.607659 23.25011264,0 0,-59.558507 50.003666,0 21.498391,21.498391 26.594311,0"
     id="path11549"
     inkscape:connector-curvature="0"
     transform="matrix(0.8000028,0,0,0.8000028,-2.4118104e-4,0)"
     sodipodi:nodetypes="cccccc" />
  <path
     style="fill:none;stroke:#ffffff;stroke-width:1px;stroke-linecap:butt;stroke-linejoin:miter;stroke-opacity:1"
     d="m 23.887101,47.617759 39.493342,0 0,27.072048 -39.652589,0"
     id="path11551"
     inkscape:connector-curvature="0"
     transform="matrix(0.8000028,0,0,0.8000028,-2.4118104e-4,0)"
     sodipodi:nodetypes="cccc" />
  <path
     style="fill:none;stroke:#ffffff;stroke-width:1px;stroke-linecap:butt;stroke-linejoin:miter;stroke-opacity:1"
     d="m 63.460066,47.299264 0,-6.688388 12.34167,0 8.121614,8.121614 0,28.505275 38.06012,0"
     id="path11553"
     inkscape:connector-curvature="0"
     transform="matrix(0.8000028,0,0,0.8000028,-2.4118104e-4,0)"
     sodipodi:nodetypes="cccccc" />
  <path
     style="fill:none;stroke:#ffffff;stroke-width:1px;stroke-linecap:butt;stroke-linejoin:miter;stroke-opacity:1"
     d="m 63.380443,74.689807 0,35.671403 60.195497,0"
     id="path11555"
     inkscape:connector-curvature="0"
     transform="matrix(0.8000028,0,0,0.8000028,-2.4118104e-4,0)" />
  <path
     style="fill:none;stroke:#ffffff;stroke-width:1px;stroke-linecap:butt;stroke-linejoin:miter;stroke-opacity:1"
     d="m 63.380443,110.67971 0,35.35291 58.603027,0"
     id="path11557"
     inkscape:connector-curvature="0"
     transform="matrix(0.8000028,0,0,0.8000028,-2.4118104e-4,0)" />
  <path
     style="fill:none;stroke:#ffffff;stroke-width:1px;stroke-linecap:butt;stroke-linejoin:miter;stroke-opacity:1"
     d="m 63.300819,145.71412 0,4.77742 -36.86576,0 0,23.8871 95.229911,0"
     id="path11559"
     inkscape:connector-curvature="0"
     transform="matrix(0.8000028,0,0,0.8000028,-2.4118104e-4,0)"
     sodipodi:nodetypes="ccccc" />
  <path
     style="fill:none;stroke:#ffffff;stroke-width:1px;stroke-linecap:butt;stroke-linejoin:miter;stroke-opacity:1"
     d="m 61.469475,175.01563 0,37.58238"
     id="path11561"
     inkscape:connector-curvature="0"
     transform="matrix(0.8000028,0,0,0.8000028,-2.4118104e-4,0)" />
  <path
     style="fill:#ffffff;fill-opacity:1;fill-rule:nonzero;stroke:none"
     d="m 12.583706,74.458899 c -0.210417,-0.393168 -0.3297,-4.926851 -0.3297,-12.531177 0,-11.138695 0.03795,-11.949475 0.582444,-12.442231 0.73148,-0.661981 1.457452,-0.671172 2.102011,-0.02661 0.437536,0.437536 0.500492,2.032023 0.500492,12.676088 0,9.045249 -0.09826,12.273859 -0.382194,12.557791 -0.605608,0.605608 -2.099382,0.464353 -2.473053,-0.233858 z"
     id="path12071"
     inkscape:connector-curvature="0"
     transform="matrix(0.8000028,0,0,0.8000028,-2.4118104e-4,0)" />
  <path
     style="fill:#ffffff;fill-opacity:1;fill-rule:nonzero;stroke:none"
     d="m 30.856657,34.466878 c -0.48346,-0.737854 -0.483281,-0.854894 0.0024,-1.596205 l 0.524159,-0.799968 12.319757,0.08336 12.319757,0.08335 0.479304,0.854095 c 0.438015,0.780521 0.427948,0.910842 -0.116862,1.51285 -0.582973,0.644178 -0.866228,0.658754 -12.801505,0.658754 l -12.20534,0 -0.521715,-0.796236 z"
     id="path12073"
     inkscape:connector-curvature="0"
     transform="matrix(0.8000028,0,0,0.8000028,-2.4118104e-4,0)" />
  <path
     style="fill:#ffffff;fill-opacity:1;fill-rule:nonzero;stroke:none"
     d="m 30.856657,62.812905 c -0.48346,-0.737853 -0.483281,-0.854894 0.0024,-1.596205 l 0.524159,-0.799967 12.319757,0.08335 12.319757,0.08335 0.479304,0.854095 c 0.438015,0.780521 0.427948,0.910842 -0.116862,1.51285 -0.582973,0.644179 -0.866228,0.658755 -12.801505,0.658755 l -12.20534,0 -0.521715,-0.796237 z"
     id="path12075"
     inkscape:connector-curvature="0"
     transform="matrix(0.8000028,0,0,0.8000028,-2.4118104e-4,0)" />
  <path
     style="fill:#ffffff;fill-opacity:1;fill-rule:nonzero;stroke:none"
     d="m 72.335785,76.080745 c -0.479347,-0.529672 -0.522828,-1.774412 -0.447481,-12.81009 l 0.08346,-12.223412 0.793257,-0.395396 c 0.640148,-0.31908 0.916781,-0.313399 1.433226,0.02943 0.620053,0.411606 0.642562,0.80687 0.723308,12.70128 0.07363,10.846713 0.02462,12.335173 -0.420868,12.780659 -0.669706,0.669707 -1.513269,0.637571 -2.164898,-0.08247 l 0,0 z"
     id="path12077"
     inkscape:connector-curvature="0"
     transform="matrix(0.8000028,0,0,0.8000028,-2.4118104e-4,0)" />
  <path
     style="fill:#ffffff;fill-opacity:1;fill-rule:nonzero;stroke:none"
     d="m 93.593685,64.379612 c -1.162442,-0.573488 -1.822172,-1.659635 -1.822172,-2.999933 0,-3.027973 3.522284,-4.459386 5.675298,-2.306372 0.626974,0.626974 0.80076,1.123911 0.80076,2.289747 0,1.624402 -0.694217,2.678418 -2.121533,3.221083 -1.046443,0.397857 -1.363198,0.372274 -2.532353,-0.204525 l 0,0 z"
     id="path12079"
     inkscape:connector-curvature="0"
     transform="matrix(0.8000028,0,0,0.8000028,-2.4118104e-4,0)" />
  <path
     style="fill:#ffffff;fill-opacity:1;fill-rule:nonzero;stroke:none"
     d="m 111.40609,64.416953 c -1.06108,-0.461492 -2.0112,-1.896355 -2.0112,-3.037274 0,-2.144864 2.3083,-3.842161 4.32163,-3.177702 2.98438,0.984936 3.14108,5.035402 0.24167,6.246854 -1.25271,0.523413 -1.27603,0.523122 -2.5521,-0.03188 l 0,0 z"
     id="path12081"
     inkscape:connector-curvature="0"
     transform="matrix(0.8000028,0,0,0.8000028,-2.4118104e-4,0)" />
  <path
     style="fill:#ffffff;fill-opacity:1;fill-rule:nonzero;stroke:none"
     d="m 93.593685,31.574659 c -2.325709,-1.147382 -2.465016,-4.698489 -0.231216,-5.893982 3.008714,-1.610215 6.07156,1.590677 4.50781,4.710983 -0.350752,0.69989 -2.039716,1.693031 -2.855788,1.679255 -0.236285,-0.004 -0.875647,-0.227304 -1.420806,-0.496256 l 0,0 z"
     id="path12083"
     inkscape:connector-curvature="0"
     transform="matrix(0.8000028,0,0,0.8000028,-2.4118104e-4,0)" />
  <path
     style="fill:#ffffff;fill-opacity:1;fill-rule:nonzero;stroke:none"
     d="m 111.40609,31.612001 c -1.06108,-0.461493 -2.0112,-1.896355 -2.0112,-3.037275 0,-1.19221 0.96066,-2.582624 2.11868,-3.066476 1.50422,-0.628505 3.11447,-0.112418 3.95617,1.267966 1.14546,1.87852 0.61846,3.833461 -1.30095,4.826028 -1.11528,0.576733 -1.45632,0.577938 -2.7627,0.0098 l 0,1e-6 z"
     id="path12085"
     inkscape:connector-curvature="0"
     transform="matrix(0.8000028,0,0,0.8000028,-2.4118104e-4,0)" />
  <path
     style="fill:#ffffff;fill-opacity:1;fill-rule:nonzero;stroke:none"
     d="m 42.829496,110.18894 c -1.234494,-0.39496 -1.273979,-0.79801 -1.273979,-13.004199 0,-11.009009 0.04127,-11.898364 0.583254,-12.56768 0.445883,-0.550643 0.778442,-0.671298 1.411998,-0.512286 0.45581,0.114401 0.90081,0.458483 0.98889,0.764627 0.275923,0.959045 0.373561,24.104368 0.103443,24.521638 -0.376447,0.58153 -1.266274,0.97301 -1.813606,0.7979 z"
     id="path12087"
     inkscape:connector-curvature="0"
     transform="matrix(0.8000028,0,0,0.8000028,-2.4118104e-4,0)" />
  <path
     style="fill:#ffffff;fill-opacity:1;fill-rule:nonzero;stroke:none"
     d="m 93.593685,96.229081 c -2.325709,-1.147383 -2.465016,-4.698489 -0.231216,-5.893982 3.008714,-1.610215 6.07156,1.590677 4.50781,4.710982 -0.350752,0.69989 -2.039716,1.693032 -2.855788,1.679256 -0.236285,-0.004 -0.875647,-0.227304 -1.420806,-0.496256 l 0,0 z"
     id="path12089"
     inkscape:connector-curvature="0"
     transform="matrix(0.8000028,0,0,0.8000028,-2.4118104e-4,0)" />
  <path
     style="fill:#ffffff;fill-opacity:1;fill-rule:nonzero;stroke:none"
     d="m 111.23023,96.234021 c -0.9564,-0.51894 -1.83534,-1.957964 -1.83534,-3.004873 0,-0.963715 0.85237,-2.470361 1.63434,-2.888861 0.86251,-0.461603 2.55719,-0.461603 3.4197,0 0.36975,0.197883 0.88873,0.778388 1.15331,1.290012 0.96784,1.871599 0.4096,3.67329 -1.43345,4.626367 -1.14043,0.589737 -1.81958,0.584503 -2.93856,-0.02264 l 0,0 z"
     id="path12091"
     inkscape:connector-curvature="0"
     transform="matrix(0.8000028,0,0,0.8000028,-2.4118104e-4,0)" />
  <path
     style="fill:#ffffff;fill-opacity:1;fill-rule:nonzero;stroke:none"
     d="m 93.593685,129.03403 c -1.686747,-0.83215 -2.336379,-2.99736 -1.415538,-4.71797 1.164868,-2.17657 4.842492,-2.0676 5.769739,0.17097 0.818678,1.97647 0.250063,3.74372 -1.466652,4.55836 -1.27993,0.60737 -1.636257,0.60596 -2.887549,-0.0114 l 0,0 z"
     id="path12093"
     inkscape:connector-curvature="0"
     transform="matrix(0.8000028,0,0,0.8000028,-2.4118104e-4,0)" />
  <path
     style="fill:#ffffff;fill-opacity:1;fill-rule:nonzero;stroke:none"
     d="m 111.40609,129.07138 c -1.06108,-0.4615 -2.0112,-1.89636 -2.0112,-3.03728 0,-1.19221 0.96066,-2.58262 2.11868,-3.06648 2.15866,-0.90194 4.5697,0.74653 4.5697,3.1244 0,1.36681 -0.74877,2.43617 -2.10161,3.00142 -1.27828,0.53411 -1.29718,0.53394 -2.57557,-0.0221 z"
     id="path12095"
     inkscape:connector-curvature="0"
     transform="matrix(0.8000028,0,0,0.8000028,-2.4118104e-4,0)" />
  <path
     style="fill:#ffffff;fill-opacity:1;fill-rule:nonzero;stroke:none"
     d="m 81.112557,139.98417 c -0.492685,-0.49269 -0.492685,-1.92788 0,-2.42056 0.492685,-0.49269 1.927875,-0.49269 2.42056,0 0.492685,0.49268 0.492685,1.92787 0,2.42056 -0.210207,0.2102 -0.754833,0.38219 -1.21028,0.38219 -0.455447,0 -1.000073,-0.17199 -1.21028,-0.38219 z"
     id="path12097"
     inkscape:connector-curvature="0"
     transform="matrix(0.8000028,0,0,0.8000028,-2.4118104e-4,0)" />
  <path
     style="fill:#ffffff;fill-opacity:1;fill-rule:nonzero;stroke:none"
     d="m 41.737514,139.86587 c -0.27527,-0.27527 -0.500492,-0.75469 -0.500492,-1.06537 0,-0.73338 0.988538,-1.61909 1.807061,-1.61909 0.746939,0 1.696381,0.93716 1.696381,1.67443 0,1.31583 -2.018301,1.99468 -3.00295,1.01003 z"
     id="path12099"
     inkscape:connector-curvature="0"
     transform="matrix(0.8000028,0,0,0.8000028,-2.4118104e-4,0)" />
  <path
     style="fill:#ffffff;fill-opacity:1;fill-rule:nonzero;stroke:none"
     d="m 8.0087945,163.59758 c -0.9000872,-1.28505 0.2357862,-2.80505 1.802355,-2.41187 0.9461345,0.23747 1.4682005,1.56389 0.9447865,2.40044 -0.512332,0.81883 -2.1767634,0.82576 -2.7471415,0.0114 z"
     id="path12101"
     inkscape:connector-curvature="0"
     transform="matrix(0.8000028,0,0,0.8000028,-2.4118104e-4,0)" />
  <path
     style="fill:#ffffff;fill-opacity:1;fill-rule:nonzero;stroke:none"
     d="m 93.264115,159.818 c -2.842109,-1.73302 -1.488511,-6.07486 1.893876,-6.07486 3.282103,0 4.375652,4.72209 1.444562,6.23782 -1.182571,0.61153 -2.145361,0.56453 -3.338438,-0.16296 z"
     id="path12103"
     inkscape:connector-curvature="0"
     transform="matrix(0.8000028,0,0,0.8000028,-2.4118104e-4,0)" />
  <path
     style="fill:#ffffff;fill-opacity:1;fill-rule:nonzero;stroke:none"
     d="m 110.70413,159.61609 c -2.41781,-2.03445 -1.10656,-5.88266 1.99876,-5.86587 3.12023,0.0169 4.50492,3.391 2.2975,5.59842 -1.37492,1.37493 -2.86952,1.46797 -4.29626,0.26745 z"
     id="path12105"
     inkscape:connector-curvature="0"
     transform="matrix(0.8000028,0,0,0.8000028,-2.4118104e-4,0)" />
  <path
     style="fill:#ffffff;fill-opacity:1;fill-rule:nonzero;stroke:none"
     d="m 47.922432,164.15442 c -1.545829,-0.76673 -0.957399,-3.0859 0.782967,-3.0859 0.964113,0 1.520327,0.70919 1.392865,1.77595 -0.145708,1.21946 -1.145147,1.82117 -2.175832,1.30995 z"
     id="path12107"
     inkscape:connector-curvature="0"
     transform="matrix(0.8000028,0,0,0.8000028,-2.4118104e-4,0)" />
  <path
     style="fill:#ffffff;fill-opacity:1;fill-rule:nonzero;stroke:none"
     d="m 94.368274,193.25282 c -0.775566,-0.1627 -1.176932,-0.37476 -1.73291,-0.91556 -0.581767,-0.56589 -1.004499,-1.50593 -1.059159,-2.35528 -0.07885,-1.22523 0.597665,-2.47851 1.720506,-3.18733 0.377587,-0.23836 0.623739,-0.29236 1.532227,-0.33611 1.342298,-0.0646 1.722456,0.0522 2.509277,0.77134 0.815532,0.74535 1.132249,1.4656 1.135901,2.58319 0.0022,0.67888 -0.05496,0.96793 -0.291506,1.4736 -0.369813,0.79057 -0.983197,1.40989 -1.721407,1.73808 -0.734722,0.32664 -1.319354,0.39034 -2.092929,0.22807 z"
     id="path12117"
     inkscape:connector-curvature="0"
     transform="matrix(0.8000028,0,0,0.8000028,-2.4118104e-4,0)" />
  <path
     style="fill:#ffffff;fill-opacity:1;fill-rule:nonzero;stroke:none"
     d="m 112.04724,193.25282 c -0.80296,-0.16845 -1.18986,-0.38407 -1.76128,-0.98156 -0.57868,-0.60508 -0.77449,-0.98839 -0.92737,-1.81541 -0.29409,-1.59088 0.48218,-3.10212 1.95672,-3.80931 2.18025,-1.04567 4.73697,0.50543 4.87917,2.96006 0.0852,1.47132 -0.63762,2.72998 -1.91845,3.34046 -0.8479,0.40414 -1.39925,0.47977 -2.22879,0.30576 z"
     id="path12119"
     inkscape:connector-curvature="0"
     transform="matrix(0.8000028,0,0,0.8000028,-2.4118104e-4,0)" />
  <path
     style="fill:#ffffff;fill-opacity:1;fill-rule:nonzero;stroke:none"
     d="m 43.02045,187.3594 c -0.615819,-0.33661 -0.900839,-0.84287 -0.900839,-1.6001 0,-1.0985 0.703354,-1.80162 1.801678,-1.80109 1.678581,8.2e-4 2.396043,2.20467 1.051571,3.23014 -0.524166,0.3998 -1.394434,0.47605 -1.95241,0.17105 z"
     id="path12121"
     inkscape:connector-curvature="0"
     transform="matrix(0.8000028,0,0,0.8000028,-2.4118104e-4,0)" />
  <path
     style="fill:#ffffff;fill-opacity:1;fill-rule:nonzero;stroke:none"
     d="m 82.657134,187.54753 c -1.212451,-0.38345 -1.715482,-1.79243 -1.014631,-2.84196 0.196097,-0.29366 0.431212,-0.49019 0.78408,-0.65542 0.228436,-0.10696 0.328043,-0.12913 0.642312,-0.14292 0.458604,-0.0201 0.787217,0.0596 1.112522,0.26981 1.323124,0.85518 1.073532,2.84023 -0.420397,3.3435 -0.284346,0.0958 -0.843139,0.10945 -1.103886,0.027 z"
     id="path12127"
     inkscape:connector-curvature="0"
     transform="matrix(0.8000028,0,0,0.8000028,-2.4118104e-4,0)" />
</svg>
