<?xml version='1.0' encoding='UTF-8' standalone='no'?>
<!-- Created with Fritzing (http://www.fritzing.org/) -->
<svg xmlns="http://www.w3.org/2000/svg" width="1.6248in" x="0in" version="1.2" y="0in"  height="1.63591in" viewBox="0 0 116.986 117.786" baseProfile="tiny" xmlns:svg="http://www.w3.org/2000/svg">
 <g transform="matrix(-1, 0, 0, 1, 116.986, 0)">
  <g partID="77301">
   <g id="silkscreen">
    <rect width="116.41" x="0.576" y="0.576" fill="none" height="117.21" stroke="black" stroke-width="0.576"/>
   </g>
  </g>
  <g partID="77300">
   <g id="board">
    <rect width="116.41" x="0.576" y="0.576" fill="none" height="117.21" stroke="black" fill-opacity="0.5" id="boardoutline" stroke-width="0.5"/>
   </g>
  </g>
  <g partID="77301">
   <g id="silkscreen">
    <rect width="116.41" x="0.576" y="0.576" fill="none" height="117.21" stroke="black" stroke-width="0.576"/>
   </g>
  </g>
  <g partID="77732">
   <g transform="translate(83.3795,14.9402)">
    <g id="silkscreen">
     <line stroke="black" id="vertical-left" y1="1.44" stroke-width="0.72" x1="1.44" y2="87.1992" x2="1.44"/>
     <line stroke="black" id="bottom" y1="87.1992" stroke-width="0.72" x1="1.44" y2="87.1992" x2="33.12"/>
     <line stroke="black" id="vertical-right" y1="87.1992" stroke-width="0.72" x1="33.12" y2="1.44" x2="33.12"/>
     <line stroke="black" id="top" y1="1.44" stroke-width="0.72" x1="33.12" y2="1.44" x2="1.44"/>
     <line stroke="black" id="mid-vertical" y1="87.1992" stroke-width="0.36" x1="27.36" y2="1.44" x2="27.36"/>
    </g>
   </g>
  </g>
  <g partID="78721">
   <g transform="translate(82.1574,76.5911)">
    <g transform="matrix(2.22045e-16,1,-1,2.22045e-16,0,0)">
     <g id="silkscreen" transform="matrix(1, 0, 0, 1, 1.39866, -0.0533789)">
      <line stroke-opacity="1" stroke="black" style="stroke-linecap:square;" id="line3298" y1="10.6517" y2="10.6517" x1="6.26076" stroke-width="1.40807" x2="7.43527"/>
      <line stroke-opacity="1" stroke="black" id="line3302" stroke-linecap="flat" y1="0.798293" y2="0.798293" x1="7.39438" stroke-width="1.48984" x2="27.1613"/>
      <line stroke-opacity="1" stroke="black" style="stroke-linecap:square;" id="line3304" y1="0.798293" y2="20.5052" x1="27.1613" stroke-width="1.48984" x2="27.1613"/>
      <line stroke-opacity="1" stroke="black" style="stroke-linecap:square;" id="line3306" y1="20.5052" y2="20.5052" x1="27.1613" stroke-width="1.48984" x2="7.39438"/>
      <line stroke-opacity="1" stroke="black" style="stroke-linecap:square;" id="line3308" y1="20.5052" y2="0.798293" x1="7.39438" stroke-width="1.48984" x2="7.39438"/>
      <line stroke-opacity="1" stroke="black" style="stroke-linecap:square;" id="line3310" y1="19.7106" y2="1.53648" x1="11.6342" stroke-width="1.92228" x2="11.6342"/>
      <line stroke-opacity="1" stroke="black" style="stroke-linecap:square;stroke-miterlimit:4;stroke-dasharray:none" id="line3298-4" y1="10.509" y2="10.509" x1="27.1204" stroke-width="1.408" x2="28.2949"/>
     </g>
    </g>
   </g>
  </g>
  <g partID="78741">
   <g transform="translate(55.9369,76.859)">
    <g transform="matrix(2.22045e-16,1,-1,2.22045e-16,0,0)">
     <g id="silkscreen" transform="matrix(1, 0, 0, 1, 1.39866, -0.0533789)">
      <line stroke-opacity="1" stroke="black" style="stroke-linecap:square;" id="line3298" y1="10.6517" y2="10.6517" x1="6.26076" stroke-width="1.40807" x2="7.43527"/>
      <line stroke-opacity="1" stroke="black" id="line3302" stroke-linecap="flat" y1="0.798293" y2="0.798293" x1="7.39438" stroke-width="1.48984" x2="27.1613"/>
      <line stroke-opacity="1" stroke="black" style="stroke-linecap:square;" id="line3304" y1="0.798293" y2="20.5052" x1="27.1613" stroke-width="1.48984" x2="27.1613"/>
      <line stroke-opacity="1" stroke="black" style="stroke-linecap:square;" id="line3306" y1="20.5052" y2="20.5052" x1="27.1613" stroke-width="1.48984" x2="7.39438"/>
      <line stroke-opacity="1" stroke="black" style="stroke-linecap:square;" id="line3308" y1="20.5052" y2="0.798293" x1="7.39438" stroke-width="1.48984" x2="7.39438"/>
      <line stroke-opacity="1" stroke="black" style="stroke-linecap:square;" id="line3310" y1="19.7106" y2="1.53648" x1="11.6342" stroke-width="1.92228" x2="11.6342"/>
      <line stroke-opacity="1" stroke="black" style="stroke-linecap:square;stroke-miterlimit:4;stroke-dasharray:none" id="line3298-4" y1="10.509" y2="10.509" x1="27.1204" stroke-width="1.408" x2="28.2949"/>
     </g>
    </g>
   </g>
  </g>
  <g partID="80921">
   <g transform="translate(4.61142,2.45082)">
    <g stroke-opacity="1" fill="none" stroke="black" id="silkscreen" stroke-width="0.8">
     <g stroke-opacity="1" fill="none" stroke="black" id="g5490" stroke-width="0.8">
      <path stroke-opacity="1" fill="none" stroke="black" style="stroke-linecap:butt;stroke-linejoin:miter;stroke-miterlimit:4;stroke-dasharray:none" id="slikscreen" stroke-width="0.8" d="m77.2252,64.1791,0,-63.7795,-76.8189,0,0,63.7795c25.6063,0,51.2126,0,76.8189,0z"/>
     </g>
    </g>
   </g>
  </g>
  <g partID="78691">
   <g transform="translate(29.0078,76.5911)">
    <g transform="matrix(2.22045e-16,1,-1,2.22045e-16,0,0)">
     <g id="silkscreen" transform="matrix(1, 0, 0, 1, 1.39866, -0.0533789)">
      <line stroke-opacity="1" stroke="black" style="stroke-linecap:square;" id="line3298" y1="10.6517" y2="10.6517" x1="6.26076" stroke-width="1.40807" x2="7.43527"/>
      <line stroke-opacity="1" stroke="black" id="line3302" stroke-linecap="flat" y1="0.798293" y2="0.798293" x1="7.39438" stroke-width="1.48984" x2="27.1613"/>
      <line stroke-opacity="1" stroke="black" style="stroke-linecap:square;" id="line3304" y1="0.798293" y2="20.5052" x1="27.1613" stroke-width="1.48984" x2="27.1613"/>
      <line stroke-opacity="1" stroke="black" style="stroke-linecap:square;" id="line3306" y1="20.5052" y2="20.5052" x1="27.1613" stroke-width="1.48984" x2="7.39438"/>
      <line stroke-opacity="1" stroke="black" style="stroke-linecap:square;" id="line3308" y1="20.5052" y2="0.798293" x1="7.39438" stroke-width="1.48984" x2="7.39438"/>
      <line stroke-opacity="1" stroke="black" style="stroke-linecap:square;" id="line3310" y1="19.7106" y2="1.53648" x1="11.6342" stroke-width="1.92228" x2="11.6342"/>
      <line stroke-opacity="1" stroke="black" style="stroke-linecap:square;stroke-miterlimit:4;stroke-dasharray:none" id="line3298-4" y1="10.509" y2="10.509" x1="27.1204" stroke-width="1.408" x2="28.2949"/>
     </g>
    </g>
   </g>
  </g>
  <g id="partLabel" partID="77730">
   <g transform="translate(107.54,9.34018)">
    <g fill="#000000" font-family="'OCRA'" stroke="none" font-style="normal" fill-opacity="1" font-weight="normal" id="silkscreenLabel" font-size="5">
     <text x="0" y="3.75">J1</text>
    </g>
   </g>
  </g>
  <g id="partLabel" partID="80920">
   <g transform="translate(9.03642,8.45082)">
    <g fill="#000000" font-family="'OCRA'" stroke="none" font-style="normal" fill-opacity="1" font-weight="normal" id="silkscreenLabel" font-size="5">
     <text x="0" y="3.75">RELAY1</text>
    </g>
   </g>
  </g>
  <g id="partLabel" partID="78690">
   <g transform="translate(21.0859,70.2693)">
    <g fill="#000000" font-family="'OCRA'" stroke="none" font-style="normal" fill-opacity="1" font-weight="normal" id="silkscreenLabel" font-size="5">
     <text x="0" y="3.75">D1</text>
    </g>
   </g>
  </g>
  <g id="partLabel" partID="78720">
   <g transform="translate(67.4355,69.4693)">
    <g fill="#000000" font-family="'OCRA'" stroke="none" font-style="normal" fill-opacity="1" font-weight="normal" id="silkscreenLabel" font-size="5">
     <text x="0" y="3.75">D2</text>
    </g>
   </g>
  </g>
  <g id="partLabel" partID="78740">
   <g transform="translate(42.0151,70.1372)">
    <g fill="#000000" font-family="'OCRA'" stroke="none" font-style="normal" fill-opacity="1" font-weight="normal" id="silkscreenLabel" font-size="5">
     <text x="0" y="3.75">D3</text>
    </g>
   </g>
  </g>
  <g partID="77731">
   <g transform="translate(83.3795,14.9402)">
    <g id="copper1">
     <g id="copper0">
      <rect width="5.69197" x="11.554" y="6.04063" fill="white" height="5.69197" stroke="white" id="square" stroke-width="2.16"/>
      <circle fill="white" cx="14.4" cy="8.8866" stroke="white" id="connector0pin" r="2.84598" stroke-width="2.16"/>
      <circle fill="white" cx="14.4" cy="23.0599" stroke="white" id="connector1pin" r="2.84598" stroke-width="2.16"/>
      <circle fill="white" cx="14.4" cy="37.2331" stroke="white" id="connector2pin" r="2.84598" stroke-width="2.16"/>
      <circle fill="white" cx="14.4" cy="51.4063" stroke="white" id="connector3pin" r="2.84598" stroke-width="2.16"/>
      <circle fill="white" cx="14.4" cy="65.5795" stroke="white" id="connector4pin" r="2.84598" stroke-width="2.16"/>
      <circle fill="white" cx="14.4" cy="79.753" stroke="white" id="connector5pin" r="2.84598" stroke-width="2.16"/>
     </g>
    </g>
   </g>
  </g>
 </g>
</svg>
