<?xml version='1.0' encoding='UTF-8' standalone='no'?>
<!-- Created with Fritzing (http://www.fritzing.org/) -->
<svg xmlns="http://www.w3.org/2000/svg" width="1.35827in" x="0in" version="1.2" y="0in"  height="2.3622in" viewBox="0 0 97.7953 170.079" baseProfile="tiny" xmlns:svg="http://www.w3.org/2000/svg">
 <g partID="77300">
  <g id="board">
   <rect width="97.2193" x="0.288" y="0.288" fill="none" height="169.503" stroke="black" fill-opacity="0.5" id="boardoutline" stroke-width="0.5"/>
  </g>
 </g>
 <g partID="1909390">
  <g transform="translate(2.88,2.88)">
   <g  id="groundplane">
    <polygon fill="black" points="0,0,0,9.216,80.352,9.216,80.352,9.36,80.784,9.36,80.784,9.504,81.072,9.504,81.072,9.648,81.36,9.648,81.36,9.792,81.504,9.792,81.504,9.936,81.648,9.936,81.648,10.08,81.792,10.08,81.792,10.224,81.936,10.224,81.936,10.512,82.08,10.512,82.08,10.8,82.224,10.8,82.224,11.232,82.368,11.232,82.368,12.528,88.704,12.528,88.704,12.672,89.28,12.672,89.28,12.816,89.712,12.816,89.712,12.96,90.144,12.96,90.144,13.104,90.432,13.104,90.432,13.248,92.016,13.248,92.016,0"  stroke="none" stroke-width="0"/>
    <polygon fill="black" points="0,9.216,0,62.352,4.608,62.352,4.608,62.208,4.176,62.208,4.176,62.064,3.888,62.064,3.888,61.92,3.6,61.92,3.6,61.776,3.456,61.776,3.456,61.632,3.168,61.632,3.168,61.488,3.024,61.488,3.024,61.344,2.88,61.344,2.88,61.2,2.736,61.2,2.736,61.056,2.592,61.056,2.592,60.768,2.448,60.768,2.448,60.624,2.304,60.624,2.304,60.336,2.16,60.336,2.16,60.048,2.016,60.048,2.016,59.616,1.872,59.616,1.872,33.984,2.016,33.984,2.016,33.552,2.16,33.552,2.16,33.264,2.304,33.264,2.304,32.976,2.448,32.976,2.448,32.688,2.592,32.688,2.592,32.544,2.736,32.544,2.736,32.4,2.88,32.4,2.88,32.256,3.024,32.256,3.024,32.112,3.168,32.112,3.168,31.968,3.312,31.968,3.312,31.824,3.6,31.824,3.6,31.68,3.888,31.68,3.888,31.536,4.176,31.536,4.176,31.392,4.464,31.392,4.464,31.248,5.904,31.248,5.904,19.872,6.048,19.872,6.048,11.088,6.192,11.088,6.192,10.656,6.336,10.656,6.336,10.368,6.48,10.368,6.48,10.224,6.624,10.224,6.624,10.08,6.768,10.08,6.768,9.936,6.912,9.936,6.912,9.792,7.056,9.792,7.056,9.648,7.2,9.648,7.2,9.504,7.488,9.504,7.488,9.36,8.064,9.36,8.064,9.216"  stroke="none" stroke-width="0"/>
    <polygon fill="black" points="10.944,14.112,10.944,17.712,44.64,17.712,44.64,17.856,45.216,17.856,45.216,18,45.504,18,45.504,18.144,45.792,18.144,45.792,18.288,46.08,18.288,46.08,18.432,46.224,18.432,46.224,18.576,46.368,18.576,46.368,18.72,46.512,18.72,46.512,18.864,46.656,18.864,46.656,19.008,46.8,19.008,46.8,19.152,46.944,19.152,46.944,19.44,47.088,19.44,47.088,19.584,47.232,19.584,47.232,19.872,47.376,19.872,47.376,20.304,47.52,20.304,47.52,20.88,47.664,20.88,47.664,21.888,52.128,21.888,52.128,22.032,58.464,22.032,58.464,22.176,58.896,22.176,58.896,22.32,59.184,22.32,59.184,22.464,59.328,22.464,59.328,22.608,59.472,22.608,59.472,22.752,59.616,22.752,59.616,22.896,59.76,22.896,59.76,23.04,59.904,23.04,59.904,23.184,60.048,23.184,60.048,23.328,60.192,23.328,60.192,23.472,60.336,23.472,60.336,23.616,60.48,23.616,60.48,23.76,60.624,23.76,60.624,23.904,60.768,23.904,60.768,24.048,60.912,24.048,60.912,24.192,61.056,24.192,61.056,24.336,61.2,24.336,61.2,24.48,61.344,24.48,61.344,24.624,61.488,24.624,61.488,24.768,61.632,24.768,61.632,24.912,61.776,24.912,61.776,25.056,61.92,25.056,61.92,25.2,62.064,25.2,62.064,25.344,62.208,25.344,62.208,25.488,62.352,25.488,62.352,25.632,62.496,25.632,62.496,25.776,62.64,25.776,62.64,25.92,62.784,25.92,62.784,26.064,62.928,26.064,62.928,26.208,63.072,26.208,63.072,26.352,63.36,26.352,63.36,26.496,63.504,26.496,63.504,26.64,63.648,26.64,63.648,26.784,63.792,26.784,63.792,26.928,63.936,26.928,63.936,27.072,64.08,27.072,64.08,27.216,64.224,27.216,64.224,27.36,64.368,27.36,64.368,27.504,64.512,27.504,64.512,27.648,64.656,27.648,64.656,27.792,64.8,27.792,64.8,27.936,64.944,27.936,64.944,28.08,71.28,28.08,71.28,27.936,70.704,27.936,70.704,27.792,70.272,27.792,70.272,27.648,69.84,27.648,69.84,27.504,69.552,27.504,69.552,27.36,69.264,27.36,69.264,27.216,68.976,27.216,68.976,27.072,68.688,27.072,68.688,26.928,68.544,26.928,68.544,26.784,68.256,26.784,68.256,26.64,68.112,26.64,68.112,26.496,67.968,26.496,67.968,26.352,67.68,26.352,67.68,26.208,67.536,26.208,67.536,26.064,67.392,26.064,67.392,25.92,67.248,25.92,67.248,25.776,67.104,25.776,67.104,25.632,66.96,25.632,66.96,25.488,66.816,25.488,66.816,25.2,66.672,25.2,66.672,25.056,66.528,25.056,66.528,24.912,66.384,24.912,66.384,24.624,66.24,24.624,66.24,24.48,66.096,24.48,66.096,24.192,65.952,24.192,65.952,23.904,65.808,23.904,65.808,23.616,65.664,23.616,65.664,23.328,65.52,23.328,65.52,22.896,65.376,22.896,65.376,22.464,65.232,22.464,65.232,21.744,65.088,21.744,65.088,18.864,65.232,18.864,65.232,18.144,65.376,18.144,65.376,17.712,65.52,17.712,65.52,17.28,65.664,17.28,65.664,16.992,65.808,16.992,65.808,16.704,65.952,16.704,65.952,16.416,66.096,16.416,66.096,16.128,66.24,16.128,66.24,15.984,66.384,15.984,66.384,15.696,66.528,15.696,66.528,15.552,66.672,15.552,66.672,14.112"  stroke="none" stroke-width="0"/>
    <polygon fill="black" points="10.944,17.712,10.944,19.872,10.8,19.872,10.8,30.528,19.44,30.528,19.44,30.384,18.864,30.384,18.864,30.24,18.576,30.24,18.576,30.096,18.288,30.096,18.288,29.952,18,29.952,18,29.808,17.856,29.808,17.856,29.664,17.712,29.664,17.712,29.52,17.568,29.52,17.568,29.376,17.424,29.376,17.424,29.232,17.28,29.232,17.28,29.088,17.136,29.088,17.136,28.944,16.992,28.944,16.992,28.656,16.848,28.656,16.848,28.368,16.704,28.368,16.704,28.08,16.56,28.08,16.56,27.648,16.416,27.648,16.416,20.736,16.56,20.736,16.56,20.16,16.704,20.16,16.704,19.872,16.848,19.872,16.848,19.584,16.992,19.584,16.992,19.296,17.136,19.296,17.136,19.152,17.28,19.152,17.28,19.008,17.424,19.008,17.424,18.864,17.568,18.864,17.568,18.72,17.712,18.72,17.712,18.576,17.856,18.576,17.856,18.432,18,18.432,18,18.288,18.288,18.288,18.288,18.144,18.576,18.144,18.576,18,18.864,18,18.864,17.856,19.44,17.856,19.44,17.712"  stroke="none" stroke-width="0"/>
    <polygon fill="black" points="47.664,26.784,47.664,27.36,47.52,27.36,47.52,27.936,47.376,27.936,47.376,28.368,47.232,28.368,47.232,28.656,47.088,28.656,47.088,28.8,46.944,28.8,46.944,29.088,46.8,29.088,46.8,29.232,46.656,29.232,46.656,29.376,46.512,29.376,46.512,29.52,46.368,29.52,46.368,29.664,46.224,29.664,46.224,29.808,45.936,29.808,45.936,29.952,45.792,29.952,45.792,30.096,45.504,30.096,45.504,30.24,45.072,30.24,45.072,30.384,44.496,30.384,44.496,30.528,60.336,30.528,60.336,30.384,60.192,30.384,60.192,30.24,60.048,30.24,60.048,30.096,59.904,30.096,59.904,29.952,59.76,29.952,59.76,29.808,59.616,29.808,59.616,29.664,59.472,29.664,59.472,29.52,59.328,29.52,59.328,29.376,59.184,29.376,59.184,29.232,59.04,29.232,59.04,29.088,58.896,29.088,58.896,28.944,58.752,28.944,58.752,28.8,58.608,28.8,58.608,28.656,58.464,28.656,58.464,28.512,58.32,28.512,58.32,28.368,58.176,28.368,58.176,28.224,58.032,28.224,58.032,28.08,57.888,28.08,57.888,27.936,57.744,27.936,57.744,27.792,57.6,27.792,57.6,27.648,57.456,27.648,57.456,27.504,57.312,27.504,57.312,27.36,57.168,27.36,57.168,27.216,57.024,27.216,57.024,27.072,56.88,27.072,56.88,26.928,51.984,26.928,51.984,26.784"  stroke="none" stroke-width="0"/>
    <polygon fill="black" points="90.432,27.36,90.432,27.504,90,27.504,90,27.648,89.712,27.648,89.712,27.792,89.136,27.792,89.136,27.936,88.56,27.936,88.56,28.08,92.016,28.08,92.016,27.36"  stroke="none" stroke-width="0"/>
    <polygon fill="black" points="65.088,28.08,65.088,28.224,92.016,28.224,92.016,28.08"  stroke="none" stroke-width="0"/>
    <polygon fill="black" points="65.088,28.08,65.088,28.224,92.016,28.224,92.016,28.08"  stroke="none" stroke-width="0"/>
    <polygon fill="black" points="65.232,28.224,65.232,28.368,65.376,28.368,65.376,28.512,65.52,28.512,65.52,28.656,65.664,28.656,65.664,28.8,65.808,28.8,65.808,28.944,65.952,28.944,65.952,29.088,66.096,29.088,66.096,29.232,66.24,29.232,66.24,29.376,66.384,29.376,66.384,29.52,66.528,29.52,66.528,29.664,66.672,29.664,66.672,29.808,66.816,29.808,66.816,29.952,66.96,29.952,66.96,30.096,67.104,30.096,67.104,30.24,67.248,30.24,67.248,30.384,67.392,30.384,67.392,30.528,67.536,30.528,67.536,30.672,67.68,30.672,67.68,30.816,67.824,30.816,67.824,30.96,67.968,30.96,67.968,31.104,68.112,31.104,68.112,31.248,68.256,31.248,68.256,31.392,68.4,31.392,68.4,31.536,68.544,31.536,68.544,31.68,68.688,31.68,68.688,31.824,68.832,31.824,68.832,31.968,68.976,31.968,68.976,32.112,69.12,32.112,69.12,32.256,69.264,32.256,69.264,32.4,69.408,32.4,69.408,32.544,69.552,32.544,69.552,32.688,69.696,32.688,69.696,32.832,69.84,32.832,69.84,32.976,69.984,32.976,69.984,33.12,70.128,33.12,70.128,33.264,70.272,33.264,70.272,33.408,70.416,33.408,70.416,33.552,70.56,33.552,70.56,33.696,70.704,33.696,70.704,33.84,70.848,33.84,70.848,33.984,70.992,33.984,70.992,34.128,71.136,34.128,71.136,34.272,71.28,34.272,71.28,34.416,71.424,34.416,71.424,34.56,71.568,34.56,71.568,34.704,71.712,34.704,71.712,34.848,71.856,34.848,71.856,34.992,72,34.992,72,35.136,72.144,35.136,72.144,35.28,72.288,35.28,72.288,35.424,72.432,35.424,72.432,35.568,72.576,35.568,72.576,35.712,72.72,35.712,72.72,35.856,72.864,35.856,72.864,36,73.008,36,73.008,36.144,73.152,36.144,73.152,36.288,73.296,36.288,73.296,36.432,73.44,36.432,73.44,36.576,73.584,36.576,73.584,36.72,73.728,36.72,73.728,36.864,73.872,36.864,73.872,37.008,74.016,37.008,74.016,37.152,74.16,37.152,74.16,37.296,74.304,37.296,74.304,37.44,74.448,37.44,74.448,37.584,74.592,37.584,74.592,37.728,74.736,37.728,74.736,37.872,74.88,37.872,74.88,38.016,75.024,38.016,75.024,38.16,75.168,38.16,75.168,38.448,75.312,38.448,75.312,38.592,75.456,38.592,75.456,38.736,88.704,38.736,88.704,38.88,89.28,38.88,89.28,39.024,89.712,39.024,89.712,39.168,90.144,39.168,90.144,39.312,90.432,39.312,90.432,39.456,92.016,39.456,92.016,28.224"  stroke="none" stroke-width="0"/>
    <polygon fill="black" points="10.8,30.528,10.8,30.672,60.48,30.672,60.48,30.528"  stroke="none" stroke-width="0"/>
    <polygon fill="black" points="10.8,30.528,10.8,30.672,60.48,30.672,60.48,30.528"  stroke="none" stroke-width="0"/>
    <polygon fill="black" points="10.8,30.672,10.8,31.248,11.952,31.248,11.952,31.392,12.384,31.392,12.384,31.536,12.672,31.536,12.672,31.68,12.96,31.68,12.96,31.824,13.104,31.824,13.104,31.968,13.248,31.968,13.248,32.112,13.392,32.112,13.392,32.256,58.896,32.256,58.896,32.4,59.616,32.4,59.616,32.544,60.048,32.544,60.048,32.688,60.336,32.688,60.336,32.832,60.624,32.832,60.624,32.976,60.768,32.976,60.768,33.12,60.912,33.12,60.912,33.264,61.056,33.264,61.056,33.408,61.2,33.408,61.2,33.552,61.344,33.552,61.344,33.696,61.488,33.696,61.488,33.84,61.632,33.84,61.632,34.128,61.776,34.128,61.776,34.272,61.92,34.272,61.92,34.56,62.064,34.56,62.064,34.992,62.208,34.992,62.208,54.288,71.28,54.288,71.28,54.144,70.704,54.144,70.704,54,70.128,54,70.128,53.856,69.84,53.856,69.84,53.712,69.552,53.712,69.552,53.568,69.264,53.568,69.264,53.424,68.976,53.424,68.976,53.28,68.688,53.28,68.688,53.136,68.4,53.136,68.4,52.992,68.256,52.992,68.256,52.848,68.112,52.848,68.112,52.704,67.824,52.704,67.824,52.56,67.68,52.56,67.68,52.416,67.536,52.416,67.536,52.272,67.392,52.272,67.392,52.128,67.248,52.128,67.248,51.984,67.104,51.984,67.104,51.84,66.96,51.84,66.96,51.696,66.816,51.696,66.816,51.552,66.672,51.552,66.672,51.264,66.528,51.264,66.528,51.12,66.384,51.12,66.384,50.832,66.24,50.832,66.24,50.688,66.096,50.688,66.096,50.4,65.952,50.4,65.952,50.112,65.808,50.112,65.808,49.824,65.664,49.824,65.664,49.536,65.52,49.536,65.52,49.104,65.376,49.104,65.376,48.672,65.232,48.672,65.232,47.952,65.088,47.952,65.088,45.072,65.232,45.072,65.232,44.352,65.376,44.352,65.376,43.92,65.52,43.92,65.52,43.488,65.664,43.488,65.664,43.2,65.808,43.2,65.808,42.912,65.952,42.912,65.952,42.624,66.096,42.624,66.096,42.336,66.24,42.336,66.24,42.192,66.384,42.192,66.384,41.904,66.528,41.904,66.528,41.76,66.672,41.76,66.672,41.616,66.816,41.616,66.816,41.328,66.96,41.328,66.96,41.184,67.104,41.184,67.104,41.04,67.248,41.04,67.248,40.896,67.392,40.896,67.392,40.752,67.536,40.752,67.536,40.608,67.68,40.608,67.68,40.464,67.824,40.464,67.824,40.32,68.112,40.32,68.112,40.176,68.256,40.176,68.256,40.032,68.4,40.032,68.4,39.888,68.544,39.888,68.544,38.448,68.4,38.448,68.4,38.304,68.256,38.304,68.256,38.16,68.112,38.16,68.112,38.016,67.968,38.016,67.968,37.872,67.824,37.872,67.824,37.728,67.68,37.728,67.68,37.584,67.536,37.584,67.536,37.44,67.392,37.44,67.392,37.296,67.248,37.296,67.248,37.152,67.104,37.152,67.104,37.008,66.96,37.008,66.96,36.864,66.816,36.864,66.816,36.72,66.672,36.72,66.672,36.576,66.528,36.576,66.528,36.432,66.384,36.432,66.384,36.288,66.24,36.288,66.24,36.144,66.096,36.144,66.096,36,65.952,36,65.952,35.856,65.808,35.856,65.808,35.712,65.664,35.712,65.664,35.568,65.52,35.568,65.52,35.424,65.376,35.424,65.376,35.28,65.232,35.28,65.232,35.136,65.088,35.136,65.088,34.992,64.944,34.992,64.944,34.848,64.8,34.848,64.8,34.704,64.656,34.704,64.656,34.56,64.512,34.56,64.512,34.416,64.368,34.416,64.368,34.272,64.224,34.272,64.224,34.128,63.936,34.128,63.936,33.984,63.792,33.984,63.792,33.84,63.648,33.84,63.648,33.696,63.504,33.696,63.504,33.552,63.36,33.552,63.36,33.408,63.216,33.408,63.216,33.264,63.072,33.264,63.072,33.12,62.928,33.12,62.928,32.976,62.784,32.976,62.784,32.832,62.64,32.832,62.64,32.688,62.496,32.688,62.496,32.544,62.352,32.544,62.352,32.4,62.208,32.4,62.208,32.256,62.064,32.256,62.064,32.112,61.92,32.112,61.92,31.968,61.776,31.968,61.776,31.824,61.632,31.824,61.632,31.68,61.488,31.68,61.488,31.536,61.344,31.536,61.344,31.392,61.2,31.392,61.2,31.248,61.056,31.248,61.056,31.104,60.912,31.104,60.912,30.96,60.768,30.96,60.768,30.816,60.624,30.816,60.624,30.672"  stroke="none" stroke-width="0"/>
    <polygon fill="black" points="13.536,32.256,13.536,32.4,13.68,32.4,13.68,32.544,13.824,32.544,13.824,32.688,13.968,32.688,13.968,32.832,14.112,32.832,14.112,33.12,14.256,33.12,14.256,33.408,14.4,33.408,14.4,33.696,14.544,33.696,14.544,34.56,14.688,34.56,14.688,40.464,44.928,40.464,44.928,40.608,45.36,40.608,45.36,40.752,45.648,40.752,45.648,40.896,45.936,40.896,45.936,41.04,46.08,41.04,46.08,41.184,46.368,41.184,46.368,41.328,46.512,41.328,46.512,41.472,46.656,41.472,46.656,41.616,46.8,41.616,46.8,41.904,46.944,41.904,46.944,42.048,47.088,42.048,47.088,42.336,47.232,42.336,47.232,42.624,47.376,42.624,47.376,42.912,47.52,42.912,47.52,43.488,47.664,43.488,47.664,50.112,47.52,50.112,47.52,50.688,47.376,50.688,47.376,50.976,47.232,50.976,47.232,51.264,47.088,51.264,47.088,51.552,46.944,51.552,46.944,51.696,46.8,51.696,46.8,51.84,46.656,51.84,46.656,51.984,46.512,51.984,46.512,52.128,46.368,52.128,46.368,52.272,46.224,52.272,46.224,52.416,46.08,52.416,46.08,52.56,45.936,52.56,45.936,52.704,45.648,52.704,45.648,52.848,45.36,52.848,45.36,52.992,44.928,52.992,44.928,53.136,49.536,53.136,49.536,34.992,49.68,34.992,49.68,34.56,49.824,34.56,49.824,34.272,49.968,34.272,49.968,33.984,50.112,33.984,50.112,33.84,50.256,33.84,50.256,33.696,50.4,33.696,50.4,33.552,50.544,33.552,50.544,33.408,50.688,33.408,50.688,33.264,50.832,33.264,50.832,33.12,50.976,33.12,50.976,32.976,51.12,32.976,51.12,32.832,51.408,32.832,51.408,32.688,51.696,32.688,51.696,32.544,52.128,32.544,52.128,32.4,52.848,32.4,52.848,32.256"  stroke="none" stroke-width="0"/>
    <polygon fill="black" points="14.688,40.464,14.688,53.136,19.152,53.136,19.152,52.992,18.72,52.992,18.72,52.848,18.432,52.848,18.432,52.704,18.144,52.704,18.144,52.56,18,52.56,18,52.416,17.712,52.416,17.712,52.272,17.568,52.272,17.568,52.128,17.424,52.128,17.424,51.984,17.28,51.984,17.28,51.84,17.136,51.84,17.136,51.552,16.992,51.552,16.992,51.408,16.848,51.408,16.848,51.12,16.704,51.12,16.704,50.832,16.56,50.832,16.56,50.256,16.416,50.256,16.416,43.344,16.56,43.344,16.56,42.768,16.704,42.768,16.704,42.48,16.848,42.48,16.848,42.192,16.992,42.192,16.992,42.048,17.136,42.048,17.136,41.76,17.28,41.76,17.28,41.616,17.424,41.616,17.424,41.472,17.568,41.472,17.568,41.328,17.712,41.328,17.712,41.184,18,41.184,18,41.04,18.144,41.04,18.144,40.896,18.432,40.896,18.432,40.752,18.72,40.752,18.72,40.608,19.008,40.608,19.008,40.464"  stroke="none" stroke-width="0"/>
    <polygon fill="black" points="14.688,53.136,14.688,53.28,49.536,53.28,49.536,53.136"  stroke="none" stroke-width="0"/>
    <polygon fill="black" points="14.688,53.136,14.688,53.28,49.536,53.28,49.536,53.136"  stroke="none" stroke-width="0"/>
    <polygon fill="black" points="14.688,53.28,14.688,59.184,34.56,59.184,34.56,59.328,35.568,59.328,35.568,59.472,35.856,59.472,35.856,59.616,36.144,59.616,36.144,59.76,36.432,59.76,36.432,59.904,36.576,59.904,36.576,60.048,36.864,60.048,36.864,60.192,37.008,60.192,37.008,60.336,37.152,60.336,37.152,60.48,37.296,60.48,37.296,60.768,37.44,60.768,37.44,60.912,37.584,60.912,37.584,61.2,37.728,61.2,37.728,61.488,37.872,61.488,37.872,61.776,38.016,61.776,38.016,62.352,38.16,62.352,38.16,79.92,72.432,79.92,72.432,79.776,71.136,79.776,71.136,79.632,70.56,79.632,70.56,79.488,70.128,79.488,70.128,79.344,69.696,79.344,69.696,79.2,69.408,79.2,69.408,79.056,69.12,79.056,69.12,78.912,68.832,78.912,68.832,78.768,68.688,78.768,68.688,78.624,68.4,78.624,68.4,78.48,68.256,78.48,68.256,78.336,67.968,78.336,67.968,78.192,67.824,78.192,67.824,78.048,67.68,78.048,67.68,77.904,67.536,77.904,67.536,77.76,67.392,77.76,67.392,77.616,67.248,77.616,67.248,77.472,67.104,77.472,67.104,77.328,66.96,77.328,66.96,77.184,66.816,77.184,66.816,77.04,66.672,77.04,66.672,76.752,66.528,76.752,66.528,76.608,66.384,76.608,66.384,76.464,66.24,76.464,66.24,76.176,66.096,76.176,66.096,75.888,65.952,75.888,65.952,75.6,65.808,75.6,65.808,75.312,65.664,75.312,65.664,75.024,65.52,75.024,65.52,74.592,56.16,74.592,56.16,74.448,55.728,74.448,55.728,74.304,55.44,74.304,55.44,74.16,55.152,74.16,55.152,74.016,55.008,74.016,55.008,73.872,54.864,73.872,54.864,73.728,54.72,73.728,54.72,73.584,54.576,73.584,54.576,73.296,54.432,73.296,54.432,73.152,54.288,73.152,54.288,72.576,54.144,72.576,54.144,69.408,54,69.408,54,64.656,53.856,64.656,53.856,63.504,52.272,63.504,52.272,63.36,51.84,63.36,51.84,63.216,51.552,63.216,51.552,63.072,51.264,63.072,51.264,62.928,50.976,62.928,50.976,62.784,50.832,62.784,50.832,62.64,50.688,62.64,50.688,62.496,50.544,62.496,50.544,62.352,50.4,62.352,50.4,62.208,50.256,62.208,50.256,62.064,50.112,62.064,50.112,61.776,49.968,61.776,49.968,61.488,49.824,61.488,49.824,61.2,49.68,61.2,49.68,60.912,49.536,60.912,49.536,53.28"  stroke="none" stroke-width="0"/>
    <polygon fill="black" points="90.432,53.568,90.432,53.712,90.144,53.712,90.144,53.856,89.712,53.856,89.712,54,89.28,54,89.28,54.144,88.56,54.144,88.56,54.288,92.016,54.288,92.016,53.568"  stroke="none" stroke-width="0"/>
    <polygon fill="black" points="62.208,54.288,62.208,54.432,92.016,54.432,92.016,54.288"  stroke="none" stroke-width="0"/>
    <polygon fill="black" points="62.208,54.288,62.208,54.432,92.016,54.432,92.016,54.288"  stroke="none" stroke-width="0"/>
    <polygon fill="black" points="62.208,54.432,62.208,60.912,62.064,60.912,62.064,61.2,61.92,61.2,61.92,61.632,61.776,61.632,61.776,61.776,61.632,61.776,61.632,62.064,61.488,62.064,61.488,62.208,61.344,62.208,61.344,62.352,61.2,62.352,61.2,62.496,61.056,62.496,61.056,62.64,60.912,62.64,60.912,62.784,60.768,62.784,60.768,62.928,60.48,62.928,60.48,63.072,60.192,63.072,60.192,63.216,59.904,63.216,59.904,63.36,59.472,63.36,59.472,63.504,58.896,63.504,58.896,64.224,88.56,64.224,88.56,64.368,89.136,64.368,89.136,64.512,89.712,64.512,89.712,64.656,90,64.656,90,64.8,90.432,64.8,90.432,64.944,92.016,64.944,92.016,54.432"  stroke="none" stroke-width="0"/>
    <polygon fill="black" points="14.544,59.184,14.544,59.904,14.4,59.904,14.4,60.192,14.256,60.192,14.256,60.48,14.112,60.48,14.112,60.768,13.968,60.768,13.968,60.912,13.824,60.912,13.824,61.056,13.68,61.056,13.68,61.344,13.392,61.344,13.392,61.488,13.248,61.488,13.248,61.632,13.104,61.632,13.104,61.776,12.96,61.776,12.96,61.92,12.672,61.92,12.672,62.064,12.384,62.064,12.384,62.208,11.952,62.208,11.952,62.352,25.344,62.352,25.344,62.064,25.488,62.064,25.488,61.632,25.632,61.632,25.632,61.344,25.776,61.344,25.776,61.056,25.92,61.056,25.92,60.768,26.064,60.768,26.064,60.624,26.208,60.624,26.208,60.48,26.352,60.48,26.352,60.336,26.496,60.336,26.496,60.192,26.64,60.192,26.64,60.048,26.784,60.048,26.784,59.904,27.072,59.904,27.072,59.76,27.216,59.76,27.216,59.616,27.504,59.616,27.504,59.472,27.936,59.472,27.936,59.328,28.8,59.328,28.8,59.184"  stroke="none" stroke-width="0"/>
    <polygon fill="black" points="0,62.352,0,62.496,25.344,62.496,25.344,62.352"  stroke="none" stroke-width="0"/>
    <polygon fill="black" points="0,62.352,0,62.496,25.344,62.496,25.344,62.352"  stroke="none" stroke-width="0"/>
    <polygon fill="black" points="0,62.496,0,125.712,1.44,125.712,1.44,125.424,1.584,125.424,1.584,125.28,1.728,125.28,1.728,124.992,1.872,124.992,1.872,124.848,2.016,124.848,2.016,124.704,2.16,124.704,2.16,120.96,2.304,120.96,2.304,112.32,2.448,112.32,2.448,107.568,2.592,107.568,2.592,107.136,2.736,107.136,2.736,106.992,2.88,106.992,2.88,106.704,3.024,106.704,3.024,106.56,3.168,106.56,3.168,106.416,3.312,106.416,3.312,106.272,3.456,106.272,3.456,106.128,3.744,106.128,3.744,105.984,4.032,105.984,4.032,105.84,4.608,105.84,4.608,105.696,28.944,105.696,28.944,105.552,29.088,105.552,29.088,93.168,29.232,93.168,29.232,90.432,28.224,90.432,28.224,90.288,27.648,90.288,27.648,90.144,27.36,90.144,27.36,90,27.072,90,27.072,89.856,26.928,89.856,26.928,89.712,26.784,89.712,26.784,89.568,26.496,89.568,26.496,89.424,26.352,89.424,26.352,89.28,26.208,89.28,26.208,88.992,26.064,88.992,26.064,88.848,25.92,88.848,25.92,88.704,25.776,88.704,25.776,88.416,25.632,88.416,25.632,87.984,25.488,87.984,25.488,87.552,25.344,87.552,25.344,62.496"  stroke="none" stroke-width="0"/>
    <polygon fill="black" points="58.896,64.224,58.896,69.264,59.04,69.264,59.04,69.696,65.376,69.696,65.376,69.408,65.52,69.408,65.52,68.976,65.664,68.976,65.664,68.688,65.808,68.688,65.808,68.4,65.952,68.4,65.952,68.112,66.096,68.112,66.096,67.824,66.24,67.824,66.24,67.68,66.384,67.68,66.384,67.392,66.528,67.392,66.528,67.248,66.672,67.248,66.672,67.104,66.816,67.104,66.816,66.816,66.96,66.816,66.96,66.672,67.104,66.672,67.104,66.528,67.248,66.528,67.248,66.384,67.392,66.384,67.392,66.24,67.536,66.24,67.536,66.096,67.68,66.096,67.68,65.952,67.968,65.952,67.968,65.808,68.112,65.808,68.112,65.664,68.256,65.664,68.256,65.52,68.544,65.52,68.544,65.376,68.688,65.376,68.688,65.232,68.976,65.232,68.976,65.088,69.264,65.088,69.264,64.944,69.552,64.944,69.552,64.8,69.84,64.8,69.84,64.656,70.272,64.656,70.272,64.512,70.704,64.512,70.704,64.368,71.424,64.368,71.424,64.224"  stroke="none" stroke-width="0"/>
    <polygon fill="black" points="90.432,79.056,90.432,79.2,90.144,79.2,90.144,79.344,89.712,79.344,89.712,79.488,89.28,79.488,89.28,79.632,88.704,79.632,88.704,79.776,87.408,79.776,87.408,79.92,92.016,79.92,92.016,79.056"  stroke="none" stroke-width="0"/>
    <polygon fill="black" points="38.16,79.92,38.16,80.064,92.016,80.064,92.016,79.92"  stroke="none" stroke-width="0"/>
    <polygon fill="black" points="38.16,79.92,38.16,80.064,92.016,80.064,92.016,79.92"  stroke="none" stroke-width="0"/>
    <polygon fill="black" points="38.16,80.064,38.16,87.408,38.016,87.408,38.016,87.984,37.872,87.984,37.872,88.272,37.728,88.272,37.728,88.56,37.584,88.56,37.584,88.848,37.44,88.848,37.44,88.992,37.296,88.992,37.296,89.136,37.152,89.136,37.152,89.28,37.008,89.28,37.008,89.424,36.864,89.424,36.864,89.568,36.72,89.568,36.72,89.712,36.576,89.712,36.576,89.856,36.288,89.856,36.288,90,36.144,90,36.144,90.144,35.856,90.144,35.856,90.288,35.28,90.288,35.28,90.432,88.416,90.432,88.416,90.576,89.136,90.576,89.136,90.72,89.568,90.72,89.568,90.864,90,90.864,90,91.008,90.288,91.008,90.288,91.152,90.576,91.152,90.576,91.296,92.016,91.296,92.016,80.064"  stroke="none" stroke-width="0"/>
    <polygon fill="black" points="34.128,90.432,34.128,93.024,33.984,93.024,33.984,105.696,34.128,105.696,34.128,105.84,34.272,105.84,34.272,105.984,34.416,105.984,34.416,106.128,34.56,106.128,34.56,106.416,34.704,106.416,34.704,106.704,34.848,106.704,34.848,106.992,34.992,106.992,34.992,107.424,35.136,107.424,35.136,109.008,34.992,109.008,34.992,109.44,34.848,109.44,34.848,109.728,34.704,109.728,34.704,109.872,34.56,109.872,34.56,110.16,34.416,110.16,34.416,110.304,34.272,110.304,34.272,110.448,34.128,110.448,34.128,110.592,33.984,110.592,33.984,110.736,33.84,110.736,33.84,110.88,33.696,110.88,33.696,111.024,33.552,111.024,33.552,111.168,33.408,111.168,33.408,111.312,33.12,111.312,33.12,111.456,32.832,111.456,32.832,111.6,32.4,111.6,32.4,111.744,31.824,111.744,31.824,111.888,59.328,111.888,59.328,104.544,60.48,104.544,60.48,99.36,60.624,99.36,60.624,97.344,60.768,97.344,60.768,97.056,60.912,97.056,60.912,96.768,61.056,96.768,61.056,96.624,61.2,96.624,61.2,96.48,61.344,96.48,61.344,96.336,61.488,96.336,61.488,96.192,61.776,96.192,61.776,96.048,62.064,96.048,62.064,95.904,62.496,95.904,62.496,95.76,65.376,95.76,65.376,95.616,65.52,95.616,65.52,95.184,65.664,95.184,65.664,94.896,65.808,94.896,65.808,94.608,65.952,94.608,65.952,94.32,66.096,94.32,66.096,94.032,66.24,94.032,66.24,93.888,66.384,93.888,66.384,93.6,66.528,93.6,66.528,93.456,66.672,93.456,66.672,93.312,66.816,93.312,66.816,93.168,66.96,93.168,66.96,92.88,67.104,92.88,67.104,92.736,67.248,92.736,67.248,92.592,67.392,92.592,67.392,92.448,67.536,92.448,67.536,92.304,67.824,92.304,67.824,92.16,67.968,92.16,67.968,92.016,68.112,92.016,68.112,91.872,68.256,91.872,68.256,91.728,68.544,91.728,68.544,91.584,68.688,91.584,68.688,91.44,68.976,91.44,68.976,91.296,69.264,91.296,69.264,91.152,69.552,91.152,69.552,91.008,69.84,91.008,69.84,90.864,70.272,90.864,70.272,90.72,70.704,90.72,70.704,90.576,71.424,90.576,71.424,90.432"  stroke="none" stroke-width="0"/>
    <polygon fill="black" points="65.376,103.248,65.376,104.544,66.672,104.544,66.672,106.128,72.144,106.128,72.144,105.984,71.136,105.984,71.136,105.84,70.56,105.84,70.56,105.696,70.128,105.696,70.128,105.552,69.696,105.552,69.696,105.408,69.408,105.408,69.408,105.264,69.12,105.264,69.12,105.12,68.832,105.12,68.832,104.976,68.688,104.976,68.688,104.832,68.4,104.832,68.4,104.688,68.256,104.688,68.256,104.544,67.968,104.544,67.968,104.4,67.824,104.4,67.824,104.256,67.68,104.256,67.68,104.112,67.536,104.112,67.536,103.968,67.392,103.968,67.392,103.824,67.248,103.824,67.248,103.68,67.104,103.68,67.104,103.536,66.96,103.536,66.96,103.392,66.816,103.392,66.816,103.248"  stroke="none" stroke-width="0"/>
    <polygon fill="black" points="90.432,105.264,90.432,105.408,90.144,105.408,90.144,105.552,89.856,105.552,89.856,105.696,89.424,105.696,89.424,105.84,88.848,105.84,88.848,105.984,87.84,105.984,87.84,106.128,92.016,106.128,92.016,105.264"  stroke="none" stroke-width="0"/>
    <polygon fill="black" points="66.672,106.128,66.672,106.272,92.016,106.272,92.016,106.128"  stroke="none" stroke-width="0"/>
    <polygon fill="black" points="66.672,106.128,66.672,106.272,92.016,106.272,92.016,106.128"  stroke="none" stroke-width="0"/>
    <polygon fill="black" points="66.672,106.272,66.672,111.744,66.528,111.744,66.528,111.888,92.016,111.888,92.016,106.272"  stroke="none" stroke-width="0"/>
    <polygon fill="black" points="7.344,110.592,7.344,111.888,31.248,111.888,31.248,111.744,30.528,111.744,30.528,111.6,30.24,111.6,30.24,111.456,29.952,111.456,29.952,111.312,29.664,111.312,29.664,111.168,29.52,111.168,29.52,111.024,29.232,111.024,29.232,110.88,29.088,110.88,29.088,110.736,28.944,110.736,28.944,110.592"  stroke="none" stroke-width="0"/>
    <polygon fill="black" points="7.344,111.888,7.344,112.032,92.016,112.032,92.016,111.888"  stroke="none" stroke-width="0"/>
    <polygon fill="black" points="7.344,111.888,7.344,112.032,92.016,112.032,92.016,111.888"  stroke="none" stroke-width="0"/>
    <polygon fill="black" points="7.344,111.888,7.344,112.032,92.016,112.032,92.016,111.888"  stroke="none" stroke-width="0"/>
    <polygon fill="black" points="7.344,112.032,7.344,112.464,7.2,112.464,7.2,115.2,88.272,115.2,88.272,115.344,88.992,115.344,88.992,115.488,89.568,115.488,89.568,115.632,89.856,115.632,89.856,115.776,90.288,115.776,90.288,115.92,90.576,115.92,90.576,116.064,92.016,116.064,92.016,112.032"  stroke="none" stroke-width="0"/>
    <polygon fill="black" points="7.2,115.2,7.2,121.104,7.056,121.104,7.056,123.552,39.6,123.552,39.6,123.696,39.744,123.696,39.744,124.848,41.184,124.848,41.184,124.992,51.264,124.992,51.264,125.136,61.488,125.136,61.488,125.28,65.088,125.28,65.088,121.68,65.232,121.68,65.232,120.96,65.376,120.96,65.376,120.384,65.52,120.384,65.52,120.096,65.664,120.096,65.664,119.664,65.808,119.664,65.808,119.376,65.952,119.376,65.952,119.088,66.096,119.088,66.096,118.944,66.24,118.944,66.24,118.656,66.384,118.656,66.384,118.512,66.528,118.512,66.528,118.224,66.672,118.224,66.672,118.08,66.816,118.08,66.816,117.936,66.96,117.936,66.96,117.792,67.104,117.792,67.104,117.648,67.248,117.648,67.248,117.504,67.392,117.504,67.392,117.36,67.536,117.36,67.536,117.216,67.68,117.216,67.68,117.072,67.824,117.072,67.824,116.928,67.968,116.928,67.968,116.784,68.112,116.784,68.112,116.64,68.4,116.64,68.4,116.496,68.544,116.496,68.544,116.352,68.832,116.352,68.832,116.208,69.12,116.208,69.12,116.064,69.264,116.064,69.264,115.92,69.696,115.92,69.696,115.776,69.984,115.776,69.984,115.632,70.416,115.632,70.416,115.488,70.848,115.488,70.848,115.344,71.712,115.344,71.712,115.2"  stroke="none" stroke-width="0"/>
    <polygon fill="black" points="7.056,123.552,7.056,124.848,7.2,124.848,7.2,124.992,7.344,124.992,7.344,125.136,7.488,125.136,7.488,125.28,7.632,125.28,7.632,125.568,7.776,125.568,7.776,125.712,7.92,125.712,7.92,126.144,8.064,126.144,8.064,126.432,8.208,126.432,8.208,128.016,8.064,128.016,8.064,128.448,7.92,128.448,7.92,128.736,7.776,128.736,7.776,129.024,7.632,129.024,7.632,129.312,7.488,129.312,7.488,129.456,7.344,129.456,7.344,129.6,7.2,129.6,7.2,129.744,7.056,129.744,7.056,131.04,32.4,131.04,32.4,123.552"  stroke="none" stroke-width="0"/>
    <polygon fill="black" points="0,128.88,0,149.328,31.392,149.328,31.392,149.184,30.96,149.184,30.96,149.04,30.672,149.04,30.672,148.896,30.384,148.896,30.384,148.752,30.24,148.752,30.24,148.608,29.952,148.608,29.952,148.464,29.808,148.464,29.808,148.32,29.664,148.32,29.664,148.176,29.52,148.176,29.52,148.032,23.472,148.032,23.472,147.888,17.424,147.888,17.424,147.744,11.376,147.744,11.376,147.6,5.328,147.6,5.328,147.456,4.032,147.456,4.032,147.312,3.744,147.312,3.744,147.168,3.456,147.168,3.456,147.024,3.312,147.024,3.312,146.88,3.168,146.88,3.168,146.736,3.024,146.736,3.024,146.592,2.88,146.592,2.88,146.304,2.736,146.304,2.736,146.016,2.592,146.016,2.592,145.728,2.448,145.728,2.448,141.264,2.304,141.264,2.304,133.2,2.16,133.2,2.16,129.888,2.016,129.888,2.016,129.744,1.872,129.744,1.872,129.6,1.728,129.6,1.728,129.312,1.584,129.312,1.584,129.168,1.44,129.168,1.44,128.88"  stroke="none" stroke-width="0"/>
    <polygon fill="black" points="39.744,129.744,39.744,130.896,71.712,130.896,71.712,130.752,70.992,130.752,70.992,130.608,70.416,130.608,70.416,130.464,69.984,130.464,69.984,130.32,69.696,130.32,69.696,130.176,61.344,130.176,61.344,130.032,51.264,130.032,51.264,129.888,41.184,129.888,41.184,129.744"  stroke="none" stroke-width="0"/>
    <polygon fill="black" points="90.576,130.032,90.576,130.176,90.288,130.176,90.288,130.32,89.856,130.32,89.856,130.464,89.424,130.464,89.424,130.608,88.992,130.608,88.992,130.752,88.128,130.752,88.128,130.896,92.016,130.896,92.016,130.032"  stroke="none" stroke-width="0"/>
    <polygon fill="black" points="39.6,130.896,39.6,131.04,92.016,131.04,92.016,130.896"  stroke="none" stroke-width="0"/>
    <polygon fill="black" points="39.6,130.896,39.6,131.04,92.016,131.04,92.016,130.896"  stroke="none" stroke-width="0"/>
    <polygon fill="black" points="7.056,131.04,7.056,131.184,92.016,131.184,92.016,131.04"  stroke="none" stroke-width="0"/>
    <polygon fill="black" points="7.056,131.04,7.056,131.184,92.016,131.184,92.016,131.04"  stroke="none" stroke-width="0"/>
    <polygon fill="black" points="7.056,131.184,7.056,133.056,7.2,133.056,7.2,141.12,7.344,141.12,7.344,141.408,88.128,141.408,88.128,141.552,88.992,141.552,88.992,141.696,89.424,141.696,89.424,141.84,89.856,141.84,89.856,141.984,90.288,141.984,90.288,142.128,90.576,142.128,90.576,142.272,92.016,142.272,92.016,131.184"  stroke="none" stroke-width="0"/>
    <polygon fill="black" points="7.344,141.408,7.344,141.984,67.248,141.984,67.248,142.128,67.392,142.128,67.392,142.56,68.832,142.56,68.832,142.416,69.12,142.416,69.12,142.272,69.408,142.272,69.408,142.128,69.696,142.128,69.696,141.984,69.984,141.984,69.984,141.84,70.416,141.84,70.416,141.696,70.992,141.696,70.992,141.552,71.712,141.552,71.712,141.408"  stroke="none" stroke-width="0"/>
    <polygon fill="black" points="7.344,141.984,7.344,142.704,11.376,142.704,11.376,142.848,17.424,142.848,17.424,142.992,23.472,142.992,23.472,143.136,29.808,143.136,29.808,142.992,29.952,142.992,29.952,142.848,30.24,142.848,30.24,142.704,30.384,142.704,30.384,142.56,30.672,142.56,30.672,142.416,30.96,142.416,30.96,142.272,31.248,142.272,31.248,142.128,31.968,142.128,31.968,141.984"  stroke="none" stroke-width="0"/>
    <polygon fill="black" points="32.4,141.984,32.4,142.128,33.12,142.128,33.12,142.272,33.552,142.272,33.552,142.416,33.84,142.416,33.84,142.56,33.984,142.56,33.984,142.704,34.272,142.704,34.272,142.848,34.416,142.848,34.416,142.992,34.56,142.992,34.56,143.136,34.704,143.136,34.704,143.28,34.848,143.28,34.848,143.424,34.992,143.424,34.992,143.568,35.136,143.568,35.136,143.712,35.28,143.712,35.28,144,35.424,144,35.424,144.288,35.568,144.288,35.568,144.576,35.712,144.576,35.712,145.008,35.856,145.008,35.856,146.448,35.712,146.448,35.712,146.88,35.568,146.88,35.568,147.168,35.424,147.168,35.424,147.456,35.28,147.456,35.28,147.744,35.136,147.744,35.136,147.888,34.992,147.888,34.992,148.032,34.848,148.032,34.848,148.176,34.704,148.176,34.704,148.32,34.56,148.32,34.56,148.464,34.416,148.464,34.416,148.608,34.272,148.608,34.272,148.752,33.984,148.752,33.984,148.896,33.84,148.896,33.84,149.04,33.552,149.04,33.552,149.184,33.12,149.184,33.12,149.328,60.048,149.328,60.048,141.984"  stroke="none" stroke-width="0"/>
    <polygon fill="black" points="0,149.328,0,149.472,65.088,149.472,65.088,149.328"  stroke="none" stroke-width="0"/>
    <polygon fill="black" points="0,149.328,0,149.472,65.088,149.472,65.088,149.328"  stroke="none" stroke-width="0"/>
    <polygon fill="black" points="0,149.472,0,157.104,71.712,157.104,71.712,156.96,70.848,156.96,70.848,156.816,70.416,156.816,70.416,156.672,69.984,156.672,69.984,156.528,69.552,156.528,69.552,156.384,69.264,156.384,69.264,156.24,68.976,156.24,68.976,156.096,68.832,156.096,68.832,155.952,68.544,155.952,68.544,155.808,68.4,155.808,68.4,155.664,68.112,155.664,68.112,155.52,67.968,155.52,67.968,155.376,67.824,155.376,67.824,155.232,67.68,155.232,67.68,155.088,67.536,155.088,67.536,154.944,67.248,154.944,67.248,154.8,67.104,154.8,67.104,154.512,66.96,154.512,66.96,154.368,66.816,154.368,66.816,154.224,66.672,154.224,66.672,154.08,66.528,154.08,66.528,153.792,66.384,153.792,66.384,153.648,66.24,153.648,66.24,153.36,66.096,153.36,66.096,153.216,65.952,153.216,65.952,152.928,65.808,152.928,65.808,152.64,65.664,152.64,65.664,152.208,65.52,152.208,65.52,151.92,65.376,151.92,65.376,151.344,65.232,151.344,65.232,150.768,65.088,150.768,65.088,149.472"  stroke="none" stroke-width="0"/>
    <polygon fill="black" points="90.576,156.24,90.576,156.384,90.288,156.384,90.288,156.528,90,156.528,90,156.672,89.568,156.672,89.568,156.816,88.992,156.816,88.992,156.96,88.272,156.96,88.272,157.104,92.016,157.104,92.016,156.24"  stroke="none" stroke-width="0"/>
    <polygon fill="black" points="0,157.104,0,157.248,92.016,157.248,92.016,157.104"  stroke="none" stroke-width="0"/>
    <polygon fill="black" points="0,157.104,0,157.248,92.016,157.248,92.016,157.104"  stroke="none" stroke-width="0"/>
    <polygon fill="black" points="0,157.248,0,164.304,92.016,164.304,92.016,157.248"  stroke="none" stroke-width="0"/>
    <g  id="connector0pad">
     <circle fill="black" cx="5.88494"  cy="4.689" stroke="none" r="2.7" stroke-width="0"/>
    </g>
   </g>
  </g>
 </g>
 <g partID="282970">
  <g transform="translate(68.7882,121.641)">
   <g transform="matrix(-1,2.77556e-16,-2.77556e-16,-1,0,0)">
    <g transform="matrix(1, 0, 0, 1, 1.83711, -0.0533789)">
     <g id="copper0">
      <rect width="4.464" x="-1.11711" y="8.41972" fill="none" height="4.464" stroke="black" id="rect3280" stroke-width="1.44"/>
      <g transform="matrix(1, 0, 0, 1, -1.90911, 7.05172)">
       <g id="0.3.1">
        <circle fill="none" cx="3.024" cy="3.6" stroke="black" r="2.232" id="connector0pin" stroke-width="1.44"/>
       </g>
      </g>
      <g transform="matrix(1, 0, 0, 1, 8.08387, 7.05172)">
       <g id="0.3.2">
        <circle fill="none" cx="24.48" cy="3.6" stroke="black" r="2.232" id="connector1pin" stroke-width="1.44"/>
       </g>
      </g>
     </g>
    </g>
   </g>
  </g>
 </g>
 <g partID="283070">
  <g transform="translate(41.859,140.775)">
   <g transform="matrix(-1,2.77556e-16,-2.77556e-16,-1,0,0)">
    <g transform="matrix(1, 0, 0, 1, 1.83711, -0.0533789)">
     <g id="copper0">
      <rect width="4.464" x="-1.11711" y="8.41972" fill="none" height="4.464" stroke="black" id="rect3280" stroke-width="1.44"/>
      <g transform="matrix(1, 0, 0, 1, -1.90911, 7.05172)">
       <g id="0.3.1">
        <circle fill="none" cx="3.024" cy="3.6" stroke="black" r="2.232" id="connector0pin" stroke-width="1.44"/>
       </g>
      </g>
      <g transform="matrix(1, 0, 0, 1, 8.08387, 7.05172)">
       <g id="0.3.2">
        <circle fill="none" cx="24.48" cy="3.6" stroke="black" r="2.232" id="connector1pin" stroke-width="1.44"/>
       </g>
      </g>
     </g>
    </g>
   </g>
  </g>
 </g>
 <g partID="283170">
  <g transform="translate(69.4968,159.2)">
   <g transform="matrix(-1,2.77556e-16,-2.77556e-16,-1,0,0)">
    <g transform="matrix(1, 0, 0, 1, 1.83711, -0.0533789)">
     <g id="copper0">
      <rect width="4.464" x="-1.11711" y="8.41972" fill="none" height="4.464" stroke="black" id="rect3280" stroke-width="1.44"/>
      <g transform="matrix(1, 0, 0, 1, -1.90911, 7.05172)">
       <g id="0.3.1">
        <circle fill="none" cx="3.024" cy="3.6" stroke="black" r="2.232" id="connector0pin" stroke-width="1.44"/>
       </g>
      </g>
      <g transform="matrix(1, 0, 0, 1, 8.08387, 7.05172)">
       <g id="0.3.2">
        <circle fill="none" cx="24.48" cy="3.6" stroke="black" r="2.232" id="connector1pin" stroke-width="1.44"/>
       </g>
      </g>
     </g>
    </g>
   </g>
  </g>
 </g>
 <g partID="317060">
  <g transform="translate(2.64924,95.7856)">
   <g transform="matrix(-4.44089e-16,-1,1,-4.44089e-16,0,0)">
    <g  id="copper0">
     <path fill="black"  stroke="none" style="opacity:0.98000004;fill-rule:nonzero;" fill-opacity="0.98039216" id="connector4pin" d="m32.9221,50.4333c-1.56553,0.0004,-2.825,1.28456,-2.825,2.84992l0,5.66536c0,1.56576,1.25947,2.8256,2.825,2.82504l24.1043,-0.008c1.56553,-0.00048,2.83465,-1.26896,2.83465,-2.83464l0,-5.66928c0,-1.56536,-1.26911,-2.83472,-2.83465,-2.83464zm2.83484,4.24064,18.4348,-0.0104c0.782766,-0.00048,1.425,0.64224,1.425,1.42504,0,0.78272,-0.642234,1.4,-1.425,1.4l0,0.0248,-18.4348,0.0104c-0.782766,0.0004,-1.4,-0.64232,-1.4,-1.42496,0,-0.7828,0.617234,-1.42504,1.4,-1.42504z"/>
     <path fill="black"  stroke="none" style="opacity:0.98000004;fill-rule:nonzero;" fill-opacity="0.98039216" id="connector2pin" d="m5.99301,26.2971c-1.56553,0.0004,-2.825,1.28456,-2.825,2.84992l0,5.66536c0,1.56576,1.25947,2.8256,2.825,2.82504l24.1043,-0.008c1.56553,-0.00048,2.83465,-1.26896,2.83465,-2.83464l0,-5.66928c0,-1.56536,-1.26911,-2.83472,-2.83465,-2.83464zm2.83484,4.24064,18.4348,-0.0104c0.782766,-0.00048,1.425,0.64224,1.425,1.42504,0,0.78272,-0.642234,1.4,-1.425,1.4l0,0.0248,-18.4348,0.0104c-0.782766,0.0004,-1.4,-0.64232,-1.4,-1.42496,0,-0.7828,0.617234,-1.42504,1.4,-1.42504z"/>
     <path fill="black"  stroke="none" style="opacity:0.98000004;fill-rule:nonzero;" fill-opacity="0.98039216" id="connector0pin" d="m51.78,20.1968c-0.0004,-1.56552,-1.28456,-2.82504,-2.84992,-2.82504l-5.66536,0c-1.56576,0,-2.8256,1.25952,-2.82504,2.82504l0.008,24.1043c0.00048,1.56552,1.26896,2.83464,2.83464,2.83464l5.66928,0c1.56536,0,2.83472,-1.26912,2.83464,-2.83464zm-4.24064,2.8348,0.0104,18.4349c0.00048,0.78272,-0.64224,1.42496,-1.42504,1.42496,-0.78272,0,-1.4,-0.64224,-1.4,-1.42496l-0.0248,0,-0.0104,-18.4349c-0.0004,-0.78272,0.64232,-1.4,1.42496,-1.4,0.7828,0,1.42504,0.61728,1.42504,1.4z"/>
     <path fill="black"  stroke="none" style="opacity:0.98000004;fill-rule:nonzero;" fill-opacity="0.98039216" id="connector5pin" d="m74.4572,20.1968c-0.0004,-1.56552,-1.28456,-2.82504,-2.84992,-2.82504l-5.66536,0c-1.56576,0,-2.8256,1.25952,-2.82504,2.82504l0.008,24.1043c0.00048,1.56552,1.26896,2.83464,2.83464,2.83464l5.66928,0c1.56536,0,2.83472,-1.26912,2.83464,-2.83464zm-4.24064,2.8348,0.0104,18.4349c0.00048,0.78272,-0.64224,1.42496,-1.42504,1.42496,-0.78272,0,-1.4,-0.64224,-1.4,-1.42496l-0.0248,0,-0.0104,-18.4349c-0.0004,-0.78272,0.64232,-1.4,1.42496,-1.4,0.7828,0,1.42504,0.61728,1.42504,1.4z"/>
     <path fill="black"  stroke="none" style="opacity:0.98000004;fill-rule:nonzero;" fill-opacity="0.98039216" id="connector1pin" d="m34.056,2.81127c-1.56553,0.0004,-2.825,1.28456,-2.825,2.84992l0,5.66536c0,1.56576,1.25947,2.8256,2.825,2.82504l24.1043,-0.008c1.56553,-0.00048,2.83465,-1.26896,2.83465,-2.83464l0,-5.66928c0,-1.56536,-1.26911,-2.83472,-2.83465,-2.83464zm2.83484,4.24064,18.4348,-0.0104c0.782766,-0.00048,1.425,0.64224,1.425,1.42504,0,0.78272,-0.642234,1.4,-1.425,1.4l0,0.0248,-18.4348,0.0104c-0.782766,0.0004,-1.4,-0.64232,-1.4,-1.42496,0,-0.7828,0.617234,-1.42504,1.4,-1.42504z"/>
    </g>
   </g>
  </g>
 </g>
 <g partID="316410">
  <g transform="translate(68.6691,16.056)">
   <g transform="matrix(1, 0, 0, 1, -167.25, -382.666)">
    <g id="copper0">
     <g>
      <g transform="matrix(1, 0, 0, 1, 0, -2141.18)">
       <g id="0.3.0.0">
        <path fill="black" stroke="none" style="opacity:0.98000004;fill-rule:nonzero;" fill-opacity="1" id="connector0pin" d="m174.05,2523.85c-3.769,0,-6.8,3.056,-6.8,6.82504l0,0.6c0,3.76896,3.031,6.8,6.8,6.8l14.725,0c3.769,0,6.825,-3.03104,6.825,-6.8l0,-0.6c0,-3.76904,-3.056,-6.82504,-6.825,-6.82504l-14.725,0zm0.575,3.95c1.56553,0,2.825,1.28728,2.825,2.87504,0,1.58768,-1.25947,2.87496,-2.825,2.87496,-1.56553,0,-2.85,-1.28728,-2.85,-2.87496,0,-1.58776,1.28447,-2.87504,2.85,-2.87504zm14.15,0c1.56553,0,2.85,1.28728,2.85,2.87504,0,1.58768,-1.28447,2.87496,-2.85,2.87496,-1.56553,0,-2.825,-1.28728,-2.825,-2.87496,0,-1.58776,1.25947,-2.87504,2.825,-2.87504z"/>
       </g>
      </g>
     </g>
    </g>
   </g>
  </g>
 </g>
 <g partID="316440">
  <g transform="translate(68.6691,42.2768)">
   <g transform="matrix(1, 0, 0, 1, -167.25, -382.666)">
    <g id="copper0">
     <g>
      <g transform="matrix(1, 0, 0, 1, 0, -2141.18)">
       <g id="0.3.0.0">
        <path fill="black" stroke="none" style="opacity:0.98000004;fill-rule:nonzero;" fill-opacity="1" id="connector0pin" d="m174.05,2523.85c-3.769,0,-6.8,3.056,-6.8,6.82504l0,0.6c0,3.76896,3.031,6.8,6.8,6.8l14.725,0c3.769,0,6.825,-3.03104,6.825,-6.8l0,-0.6c0,-3.76904,-3.056,-6.82504,-6.825,-6.82504l-14.725,0zm0.575,3.95c1.56553,0,2.825,1.28728,2.825,2.87504,0,1.58768,-1.25947,2.87496,-2.825,2.87496,-1.56553,0,-2.85,-1.28728,-2.85,-2.87496,0,-1.58776,1.28447,-2.87504,2.85,-2.87504zm14.15,0c1.56553,0,2.85,1.28728,2.85,2.87504,0,1.58768,-1.28447,2.87496,-2.85,2.87496,-1.56553,0,-2.825,-1.28728,-2.825,-2.87496,0,-1.58776,1.25947,-2.87504,2.825,-2.87504z"/>
       </g>
      </g>
     </g>
    </g>
   </g>
  </g>
 </g>
 <g partID="316470">
  <g transform="translate(68.6691,145.033)">
   <g transform="matrix(1, 0, 0, 1, -167.25, -382.666)">
    <g id="copper0">
     <g>
      <g transform="matrix(1, 0, 0, 1, 0, -2141.18)">
       <g id="0.3.0.0">
        <path fill="black" stroke="none" style="opacity:0.98000004;fill-rule:nonzero;" fill-opacity="1" id="connector0pin" d="m174.05,2523.85c-3.769,0,-6.8,3.056,-6.8,6.82504l0,0.6c0,3.76896,3.031,6.8,6.8,6.8l14.725,0c3.769,0,6.825,-3.03104,6.825,-6.8l0,-0.6c0,-3.76904,-3.056,-6.82504,-6.825,-6.82504l-14.725,0zm0.575,3.95c1.56553,0,2.825,1.28728,2.825,2.87504,0,1.58768,-1.25947,2.87496,-2.825,2.87496,-1.56553,0,-2.85,-1.28728,-2.85,-2.87496,0,-1.58776,1.28447,-2.87504,2.85,-2.87504zm14.15,0c1.56553,0,2.85,1.28728,2.85,2.87504,0,1.58768,-1.28447,2.87496,-2.85,2.87496,-1.56553,0,-2.825,-1.28728,-2.825,-2.87496,0,-1.58776,1.25947,-2.87504,2.825,-2.87504z"/>
       </g>
      </g>
     </g>
    </g>
   </g>
  </g>
 </g>
 <g partID="316500">
  <g transform="translate(68.6691,118.812)">
   <g transform="matrix(1, 0, 0, 1, -167.25, -382.666)">
    <g id="copper0">
     <g>
      <g transform="matrix(1, 0, 0, 1, 0, -2141.18)">
       <g id="0.3.0.0">
        <path fill="black" stroke="none" style="opacity:0.98000004;fill-rule:nonzero;" fill-opacity="1" id="connector0pin" d="m174.05,2523.85c-3.769,0,-6.8,3.056,-6.8,6.82504l0,0.6c0,3.76896,3.031,6.8,6.8,6.8l14.725,0c3.769,0,6.825,-3.03104,6.825,-6.8l0,-0.6c0,-3.76904,-3.056,-6.82504,-6.825,-6.82504l-14.725,0zm0.575,3.95c1.56553,0,2.825,1.28728,2.825,2.87504,0,1.58768,-1.25947,2.87496,-2.825,2.87496,-1.56553,0,-2.85,-1.28728,-2.85,-2.87496,0,-1.58776,1.28447,-2.87504,2.85,-2.87504zm14.15,0c1.56553,0,2.85,1.28728,2.85,2.87504,0,1.58768,-1.28447,2.87496,-2.85,2.87496,-1.56553,0,-2.825,-1.28728,-2.825,-2.87496,0,-1.58776,1.25947,-2.87504,2.825,-2.87504z"/>
       </g>
      </g>
     </g>
    </g>
   </g>
  </g>
 </g>
 <g partID="316530">
  <g transform="translate(68.6691,94.0088)">
   <g transform="matrix(1, 0, 0, 1, -167.25, -382.666)">
    <g id="copper0">
     <g>
      <g transform="matrix(1, 0, 0, 1, 0, -2141.18)">
       <g id="0.3.0.0">
        <path fill="black" stroke="none" style="opacity:0.98000004;fill-rule:nonzero;" fill-opacity="1" id="connector0pin" d="m174.05,2523.85c-3.769,0,-6.8,3.056,-6.8,6.82504l0,0.6c0,3.76896,3.031,6.8,6.8,6.8l14.725,0c3.769,0,6.825,-3.03104,6.825,-6.8l0,-0.6c0,-3.76904,-3.056,-6.82504,-6.825,-6.82504l-14.725,0zm0.575,3.95c1.56553,0,2.825,1.28728,2.825,2.87504,0,1.58768,-1.25947,2.87496,-2.825,2.87496,-1.56553,0,-2.85,-1.28728,-2.85,-2.87496,0,-1.58776,1.28447,-2.87504,2.85,-2.87504zm14.15,0c1.56553,0,2.85,1.28728,2.85,2.87504,0,1.58768,-1.28447,2.87496,-2.85,2.87496,-1.56553,0,-2.825,-1.28728,-2.825,-2.87496,0,-1.58776,1.25947,-2.87504,2.825,-2.87504z"/>
       </g>
      </g>
     </g>
    </g>
   </g>
  </g>
 </g>
 <g partID="316560">
  <g transform="translate(68.6691,67.7888)">
   <g transform="matrix(1, 0, 0, 1, -167.25, -382.666)">
    <g id="copper0">
     <g>
      <g transform="matrix(1, 0, 0, 1, 0, -2141.18)">
       <g id="0.3.0.0">
        <path fill="black" stroke="none" style="opacity:0.98000004;fill-rule:nonzero;" fill-opacity="1" id="connector0pin" d="m174.05,2523.85c-3.769,0,-6.8,3.056,-6.8,6.82504l0,0.6c0,3.76896,3.031,6.8,6.8,6.8l14.725,0c3.769,0,6.825,-3.03104,6.825,-6.8l0,-0.6c0,-3.76904,-3.056,-6.82504,-6.825,-6.82504l-14.725,0zm0.575,3.95c1.56553,0,2.825,1.28728,2.825,2.87504,0,1.58768,-1.25947,2.87496,-2.825,2.87496,-1.56553,0,-2.85,-1.28728,-2.85,-2.87496,0,-1.58776,1.28447,-2.87504,2.85,-2.87504zm14.15,0c1.56553,0,2.85,1.28728,2.85,2.87504,0,1.58768,-1.28447,2.87496,-2.85,2.87496,-1.56553,0,-2.825,-1.28728,-2.825,-2.87496,0,-1.58776,1.25947,-2.87504,2.825,-2.87504z"/>
       </g>
      </g>
     </g>
    </g>
   </g>
  </g>
 </g>
 <g partID="90810">
  <line stroke="black" stroke-linecap="round" y1="107.931" x1="65.8521" y2="101.103" stroke-width="3.456" x2="65.8871"/>
 </g>
 <g partID="318630">
  <line stroke="black" stroke-linecap="round" y1="101.103" x1="65.8871" y2="101.107" stroke-width="3.456" x2="69.0691"/>
 </g>
 <g partID="90430">
  <line stroke="black" stroke-linecap="round" y1="111.048" x1="31.2752" y2="111.087" stroke-width="3.456" x2="7.77512"/>
 </g>
 <g partID="318150">
  <line stroke="black" stroke-linecap="round" y1="111.087" x1="7.77512" y2="127.065" stroke-width="3.456" x2="7.50974"/>
 </g>
 <g partID="90060">
  <line stroke="black" stroke-linecap="round" y1="107.931" x1="34.4083" y2="92.2176" stroke-width="3.456" x2="34.515"/>
 </g>
 <g partID="90570">
  <line stroke="black" stroke-linecap="round" y1="133.288" x1="7.51356" y2="147.951" stroke-width="3.456" x2="7.77512"/>
 </g>
 <g partID="318060">
  <line stroke="black" stroke-linecap="round" y1="147.951" x1="7.77512" y2="148.527" stroke-width="3.456" x2="31.9847"/>
 </g>
 <g partID="87700">
  <line stroke="black" stroke-linecap="round" y1="35.1906" x1="11.2231" y2="14.5752" stroke-width="3.456" x2="11.3591"/>
 </g>
 <g partID="318480">
  <line stroke="black" stroke-linecap="round" y1="14.5752" x1="11.3591" y2="14.5752" stroke-width="3.456" x2="82.7831"/>
 </g>
 <g partID="318530">
  <line stroke="black" stroke-linecap="round" y1="14.5752" x1="82.7831" y2="16.456" stroke-width="3.456" x2="82.7965"/>
 </g>
 <g partID="318390">
  <line stroke="black" stroke-linecap="round" y1="65.2885" x1="59.1912" y2="74.9912" stroke-width="3.456" x2="59.4871"/>
 </g>
 <g partID="318430">
  <line stroke="black" stroke-linecap="round" y1="74.9912" x1="59.4871" y2="74.9543" stroke-width="3.456" x2="69.0691"/>
 </g>
 <g partID="87860">
  <line stroke="black" stroke-linecap="round" y1="27.2081" x1="49.385" y2="27.3752" stroke-width="3.456" x2="60.7671"/>
 </g>
 <g partID="318580">
  <line stroke="black" stroke-linecap="round" y1="27.3752" x1="60.7671" y2="42.6768" stroke-width="3.456" x2="76.1124"/>
 </g>
 <g partID="90750">
  <line stroke="black" stroke-linecap="round" y1="152.145" x1="82.8441" y2="147.951" stroke-width="3.456" x2="81.5031"/>
 </g>
 <g partID="318730">
  <line stroke="black" stroke-linecap="round" y1="147.951" x1="81.5031" y2="148.466" stroke-width="3.456" x2="69.6539"/>
 </g>
 <g partID="90890">
  <line stroke="black" stroke-linecap="round" y1="130.221" x1="42.0187" y2="130.799" stroke-width="3.456" x2="82.7831"/>
 </g>
 <g partID="318680">
  <line stroke="black" stroke-linecap="round" y1="130.799" x1="82.7831" y2="125.925" stroke-width="3.456" x2="82.8441"/>
 </g>
</svg>
