<?xml version="1.0" encoding="UTF-8" standalone="no"?>
<!-- Created with Fritzing (http://www.fritzing.org/) -->

<svg
   xmlns:dc="http://purl.org/dc/elements/1.1/"
   xmlns:cc="http://creativecommons.org/ns#"
   xmlns:rdf="http://www.w3.org/1999/02/22-rdf-syntax-ns#"
   xmlns:svg="http://www.w3.org/2000/svg"
   xmlns="http://www.w3.org/2000/svg"
   xmlns:sodipodi="http://sodipodi.sourceforge.net/DTD/sodipodi-0.dtd"
   xmlns:inkscape="http://www.inkscape.org/namespaces/inkscape"
   width="195.00916"
   x="0in"
   version="1.2"
   y="0in"
   height="125.36258"
   viewBox="0 0 156.00756 100.2905"
   id="svg2"
   inkscape:version="0.48.3.1 r9886"
   sodipodi:docname="denne_Svietenie_rele_etch_copper_bottom_2.svg">
  <metadata
     id="metadata437">
    <rdf:RDF>
      <cc:Work
         rdf:about="">
        <dc:format>image/svg+xml</dc:format>
        <dc:type
           rdf:resource="http://purl.org/dc/dcmitype/StillImage" />
        <dc:title></dc:title>
      </cc:Work>
    </rdf:RDF>
  </metadata>
  <defs
     id="defs435" />
  <sodipodi:namedview
     pagecolor="#ffffff"
     bordercolor="#666666"
     borderopacity="1"
     objecttolerance="10"
     gridtolerance="10"
     guidetolerance="10"
     inkscape:pageopacity="0"
     inkscape:pageshadow="2"
     inkscape:window-width="1215"
     inkscape:window-height="776"
     id="namedview433"
     showgrid="false"
     inkscape:zoom="1.1742546"
     inkscape:cx="172.67781"
     inkscape:cy="-61.268768"
     inkscape:window-x="65"
     inkscape:window-y="24"
     inkscape:window-maximized="1"
     inkscape:current-layer="svg2"
     showguides="true"
     inkscape:guide-bbox="true"
     fit-margin-top="0"
     fit-margin-left="0"
     fit-margin-right="0"
     fit-margin-bottom="0" />
  <g
     id="g6436">
    <path
       sodipodi:nodetypes="ccccccccssssssssss"
       inkscape:connector-curvature="0"
       id="rect4441"
       d="m 43.965997,2.1130482 0.170321,10.3811958 c 26.365749,0.03493 54.55354,-0.03215 80.225352,-0.025 l -0.17033,10.768897 29.97513,0 0,-9.550042 0,-11.5750498 z m 8.300036,4.0000173 c 1.058242,0 1.900008,0.8417658 1.900008,1.9000083 0,1.0582421 -0.841766,1.9250083 -1.900008,1.9250083 -1.058243,0 -1.925009,-0.8667662 -1.925009,-1.9250083 0,-1.0582425 0.866766,-1.9000083 1.925009,-1.9000083 z M 136.0914,12.913095 c 0.7878,0 1.425,0.637204 1.425,1.425006 0,0.787803 -0.6372,1.425006 -1.425,1.425006 -0.78781,0 -1.42501,-0.637203 -1.42501,-1.425006 0,-0.787802 0.6372,-1.425006 1.42501,-1.425006 z"
       style="opacity:0.98000004;fill:#000000;fill-opacity:1;fill-rule:nonzero;stroke:#000000;stroke-width:0;stroke-linecap:round;stroke-linejoin:round;stroke-miterlimit:4;stroke-opacity:1" />
    <path
       sodipodi:nodetypes="cccccccccccccccccccccccssssssssssssssssssss"
       inkscape:connector-curvature="0"
       id="rect4553"
       d="m 1.8408139,1.9880476 0,16.1250704 0,0.475002 0,31.625137 0,11.50005 0,0.850003 22.5750981,0 0,-12.350053 -18.0000782,0 0,-31.625137 23.9501042,0 0,2.175009 73.350322,0 0,21.550094 18.42508,0 0,-8.175036 32.02513,0 0,-9.550041 -32.02513,0 0.17032,-10.534537 c -26.658455,0 -53.3169,0 -79.97535,0 L 42.165989,1.9880476 z M 17.740883,6.1630657 c 1.034726,0 1.875008,0.815282 1.875008,1.8500081 0,1.034726 -0.840282,1.8750081 -1.875008,1.8750081 -1.034726,0 -1.875008,-0.8402821 -1.875008,-1.8750081 0,-1.0347261 0.840282,-1.8500081 1.875008,-1.8500081 z M 136.0914,27.088156 c 0.7878,0 1.425,0.637204 1.425,1.425007 0,0.787802 -0.6372,1.425006 -1.425,1.425006 -0.78781,0 -1.42501,-0.637204 -1.42501,-1.425006 0,-0.787803 0.6372,-1.425007 1.42501,-1.425007 z m -24.12511,7.350032 c 1.03473,0 1.87501,0.840282 1.87501,1.875009 0,1.034726 -0.84028,1.875008 -1.87501,1.875008 -1.03472,0 -1.87501,-0.840282 -1.87501,-1.875008 0,-1.034727 0.84029,-1.875009 1.87501,-1.875009 z M 17.765883,55.713281 c 1.034726,0 1.875008,0.840282 1.875008,1.875008 0,1.034726 -0.840282,1.875008 -1.875008,1.875008 -1.034726,0 -1.875008,-0.840282 -1.875008,-1.875008 0,-1.034726 0.840282,-1.875008 1.875008,-1.875008 z"
       style="opacity:0.98000004;fill:#000000;fill-opacity:1;fill-rule:nonzero;stroke:#000000;stroke-width:0;stroke-linecap:round;stroke-linejoin:round;stroke-miterlimit:4;stroke-opacity:1;stroke-dasharray:none" />
    <path
       sodipodi:nodetypes="cccccccccccccccccccccccccccssssssssssssssssssss"
       inkscape:connector-curvature="0"
       id="rect4629"
       d="m 7.1158368,19.513124 0.1750008,13.600059 18.6000804,0 2.650012,0 0.850003,0 2.15001,0 1.350006,0 0,36.775159 -25.0407506,-0.170321 0.1703215,13.981341 c 10.3302951,0.07136 20.6602461,0.170321 30.9907761,0.170321 l -0.170322,-55.506521 47.300206,0 0,20.82509 16.00007,0 52.02522,0 0,-5.425023 0,-0.225001 0,-8.075035 -30.60013,0 0,8.075035 -21.42509,0 0,-17.725077 0,-3.475015 -72.900317,0 -0.025,-2.825012 z m 4.7750212,3.575015 c 1.034726,0 1.875008,0.840282 1.875008,1.875008 0,1.034726 -0.840282,1.875008 -1.875008,1.875008 -1.034727,0 -1.875009,-0.840282 -1.875009,-1.875008 0,-1.034726 0.840282,-1.875008 1.875009,-1.875008 z m 83.225361,5.550024 c 1.034724,0 1.875008,0.840282 1.875008,1.875008 0,1.034726 -0.840284,1.875008 -1.875008,1.875008 -1.034725,0 -1.875009,-0.840282 -1.875009,-1.875008 0,-1.034726 0.840284,-1.875008 1.875009,-1.875008 z M 136.0914,41.288218 c 0.7878,0 1.425,0.637204 1.425,1.425006 0,0.787803 -0.6372,1.425006 -1.425,1.425006 -0.78781,0 -1.42501,-0.637203 -1.42501,-1.425006 0,-0.787802 0.6372,-1.425006 1.42501,-1.425006 z M 11.890858,72.713354 c 1.034726,0 1.875008,0.840282 1.875008,1.875009 0,1.034726 -0.840282,1.875008 -1.875008,1.875008 -1.034727,0 -1.875009,-0.840282 -1.875009,-1.875008 0,-1.034727 0.840282,-1.875009 1.875009,-1.875009 z"
       style="opacity:0.98000004;fill:#000000;fill-opacity:1;fill-rule:nonzero;stroke:#000000;stroke-width:0;stroke-linecap:round;stroke-linejoin:round;stroke-miterlimit:4;stroke-opacity:1;stroke-dasharray:none" />
    <path
       sodipodi:nodetypes="ccccccccccccccccccccccccccssssssssssssssssssssssssssssss"
       inkscape:connector-curvature="0"
       id="rect4640"
       d="m 40.21598,29.713168 0,55.175239 -33.4001445,0 0,-16.525071 24.8751075,0 0,-4.950022 0,-18.55008 0,-10.725047 -24.3751053,0 0,15.050065 18.4250803,0 0,14.225062 -24.0251046,0 0,4.950022 0,29.850129 5.1000221,0 147.3506345,0 0,-6.525028 0,-6.80003 0,-7.150031 -109.175469,0 0,-28.575124 39.675172,0 0,-19.450084 -39.675172,0 z m 37.850165,4.75002 c 1.034726,0 1.875008,0.840283 1.875008,1.875009 0,1.034726 -0.840282,1.875008 -1.875008,1.875008 -1.034727,0 -1.875009,-0.840282 -1.875009,-1.875008 0,-1.034726 0.840282,-1.875009 1.875009,-1.875009 z m -25.863014,1.789045 c 3.026419,0 5.687926,2.834022 5.687926,5.710988 0,2.876966 -2.491185,5.412925 -5.517604,5.412925 -3.026418,0 -5.687925,-2.535959 -5.687925,-5.412925 0,-2.876966 2.491185,-5.710988 5.517603,-5.710988 z m -34.387248,3.91098 c 1.034726,0 1.875008,0.840282 1.875008,1.875008 0,1.034726 -0.840282,1.875008 -1.875008,1.875008 -1.034726,0 -1.875008,-0.840282 -1.875008,-1.875008 0,-1.034726 0.840282,-1.875008 1.875008,-1.875008 z M 136.1164,83.763402 c 0.7878,0 1.425,0.662203 1.425,1.450007 0,0.787803 -0.6372,1.425006 -1.425,1.425006 -0.78781,0 -1.42501,-0.637203 -1.42501,-1.425006 0,-0.787804 0.6372,-1.450007 1.42501,-1.450007 z m -83.875367,2.575011 c 3.026418,0 5.475023,2.323059 5.475023,5.200023 0,2.876965 -2.448605,5.225023 -5.475023,5.225023 -3.026419,0 -5.500024,-2.348058 -5.500024,-5.225023 0,-2.876964 2.473605,-5.200023 5.500024,-5.200023 z m -34.37515,3.325015 c 1.034727,0 1.875009,0.815283 1.875009,1.850008 0,1.034724 -0.840282,1.875008 -1.875009,1.875008 -1.034726,0 -1.875008,-0.840284 -1.875008,-1.875008 0,-1.034725 0.840282,-1.850008 1.875008,-1.850008 z"
       style="opacity:0.98000004;fill:#000000;fill-opacity:1;fill-rule:nonzero;stroke:#000000;stroke-width:0;stroke-linecap:round;stroke-linejoin:round;stroke-miterlimit:4;stroke-opacity:1;stroke-dasharray:none" />
    <path
       inkscape:connector-curvature="0"
       id="rect4661"
       d="m 45.841005,50.488258 0,8.675038 0,4.425019 0,12.775055 52.375227,0 0,-12.775055 55.950238,0 0,-13.100057 -108.325465,0 z m 90.250395,4.950021 c 0.7878,0 1.425,0.637204 1.425,1.425007 0,0.787802 -0.6372,1.425006 -1.425,1.425006 -0.78781,0 -1.42501,-0.637204 -1.42501,-1.425006 0,-0.787803 0.6372,-1.425007 1.42501,-1.425007 z M 52.216032,55.63828 c 1.034727,0 1.875009,0.840282 1.875009,1.875008 0,1.034727 -0.840282,1.875009 -1.875009,1.875009 -1.034726,0 -1.875008,-0.840282 -1.875008,-1.875009 0,-1.034726 0.840282,-1.875008 1.875008,-1.875008 z m 25.725112,9.800043 c 3.043045,0 5.525024,2.408977 5.525024,5.350023 0,2.941046 -2.481979,5.325023 -5.525024,5.325023 -3.043048,0 -5.500024,-2.383977 -5.500024,-5.325023 0,-2.941046 2.456976,-5.350023 5.500024,-5.350023 z"
       style="opacity:0.98000004;fill:#000000;fill-opacity:1;fill-rule:nonzero;stroke:#000000;stroke-width:0;stroke-linecap:round;stroke-linejoin:round;stroke-miterlimit:4;stroke-opacity:1;stroke-dasharray:none" />
    <path
       inkscape:connector-curvature="0"
       id="rect4663"
       d="m 99.841239,64.78832 0,11.750051 54.325231,0 0,-11.750051 -54.325231,0 z m 12.250051,4.075018 c 1.03473,0 1.87501,0.840282 1.87501,1.875008 0,1.034726 -0.84028,1.875008 -1.87501,1.875008 -1.03472,0 -1.87501,-0.840282 -1.87501,-1.875008 0,-1.034726 0.84029,-1.875008 1.87501,-1.875008 z m 24.00011,0.750003 c 0.7878,0 1.425,0.637204 1.425,1.425006 0,0.787803 -0.6372,1.425006 -1.425,1.425006 -0.78781,0 -1.42501,-0.637203 -1.42501,-1.425006 0,-0.787802 0.6372,-1.425006 1.42501,-1.425006 z"
       style="opacity:0.98000004;fill:#000000;fill-opacity:1;fill-rule:nonzero;stroke:#000000;stroke-width:0;stroke-linecap:round;stroke-linejoin:round;stroke-miterlimit:4;stroke-opacity:1;stroke-dasharray:none" />
    <path
       inkscape:connector-curvature="0"
       id="path4834"
       d="m 52.241033,37.1382 c -2.627331,0 -4.775021,2.14769 -4.775021,4.775021 0,2.62733 2.14769,4.75002 4.775021,4.75002 2.62733,0 4.75002,-2.12269 4.75002,-4.75002 0,-2.627331 -2.12269,-4.775021 -4.75002,-4.775021 z m 0,2.900013 c 1.034726,0 1.875008,0.840282 1.875008,1.875008 0,1.034726 -0.840282,1.850008 -1.875008,1.850008 -1.034727,0 -1.875009,-0.815282 -1.875009,-1.850008 0,-1.034726 0.840282,-1.875008 1.875009,-1.875008 z"
       style="opacity:0.98000004;fill:#000000;fill-opacity:1;fill-rule:nonzero;stroke:#000000;stroke-width:0;stroke-linecap:round;stroke-linejoin:round;stroke-miterlimit:4;stroke-opacity:1;stroke-dasharray:none" />
    <path
       id="path4834-1"
       d="m 52.304279,86.81877 c -2.627331,0 -4.775021,2.14769 -4.775021,4.77502 0,2.627331 2.14769,4.750021 4.775021,4.750021 2.627331,0 4.750021,-2.12269 4.750021,-4.750021 0,-2.62733 -2.12269,-4.77502 -4.750021,-4.77502 z m 0,2.900012 c 1.034726,0 1.875008,0.840282 1.875008,1.875008 0,1.034726 -0.840282,1.850008 -1.875008,1.850008 -1.034726,0 -1.875008,-0.815282 -1.875008,-1.850008 0,-1.034726 0.840282,-1.875008 1.875008,-1.875008 z"
       style="opacity:0.98000004;fill:#000000;fill-opacity:1;fill-rule:nonzero;stroke:#000000;stroke-width:0;stroke-linecap:round;stroke-linejoin:round;stroke-miterlimit:4;stroke-opacity:1;stroke-dasharray:none"
       inkscape:connector-curvature="0" />
    <path
       id="path4834-1-0"
       d="m 77.957046,65.983423 c -2.627331,0 -4.775021,2.14769 -4.775021,4.77502 0,2.627331 2.14769,4.750022 4.775021,4.750022 2.627331,0 4.750021,-2.122691 4.750021,-4.750022 0,-2.62733 -2.12269,-4.77502 -4.750021,-4.77502 z m 0,2.900012 c 1.034726,0 1.875008,0.840282 1.875008,1.875008 0,1.034726 -0.840282,1.850008 -1.875008,1.850008 -1.034726,0 -1.875008,-0.815282 -1.875008,-1.850008 0,-1.034726 0.840282,-1.875008 1.875008,-1.875008 z"
       style="opacity:0.98000004;fill:#000000;fill-opacity:1;fill-rule:nonzero;stroke:#000000;stroke-width:0;stroke-linecap:round;stroke-linejoin:round;stroke-miterlimit:4;stroke-opacity:1;stroke-dasharray:none"
       inkscape:connector-curvature="0" />
    <g
       transform="translate(-0.32622059,-0.32599998)"
       id="g4"
       partID="127820">
      <g
         id="board">
        <rect
           style="fill:none;stroke:#000000;stroke-width:0.5"
           id="boardoutline"
           height="99.790497"
           y="0.57599998"
           x="0.57599998"
           width="155.508" />
      </g>
    </g>
  </g>
</svg>
