<?xml version='1.0' encoding='UTF-8' standalone='no'?>
<!-- Created with Fritzing (http://www.fritzing.org/) -->
<svg xmlns="http://www.w3.org/2000/svg" width="1.6248in" x="0in" version="1.2" y="0in"  height="1.63591in" viewBox="0 0 116.986 117.786" baseProfile="tiny" xmlns:svg="http://www.w3.org/2000/svg">
 <g transform="matrix(-1, 0, 0, 1, 116.986, 0)">
  <g partID="77300">
   <g id="board">
    <rect width="116.41" x="0.576" y="0.576" fill="none" height="117.21" stroke="black" fill-opacity="0.5" id="boardoutline" stroke-width="0.5"/>
   </g>
  </g>
  <g partID="77730">
   <g transform="translate(83.3795,14.9402)">
    <g  id="copper0">
     <rect width="5.69197" x="11.554" y="6.04063" fill="none"  height="5.69197" stroke="black" id="square" stroke-width="1.44"/>
     <circle fill="none" cx="14.4"  cy="8.8866" stroke="black" id="connector0pin" r="2.84598" stroke-width="1.44"/>
     <circle fill="none" cx="14.4"  cy="23.0599" stroke="black" id="connector1pin" r="2.84598" stroke-width="1.44"/>
     <circle fill="none" cx="14.4"  cy="37.2331" stroke="black" id="connector2pin" r="2.84598" stroke-width="1.44"/>
     <circle fill="none" cx="14.4"  cy="51.4063" stroke="black" id="connector3pin" r="2.84598" stroke-width="1.44"/>
     <circle fill="none" cx="14.4"  cy="65.5795" stroke="black" id="connector4pin" r="2.84598" stroke-width="1.44"/>
     <circle fill="none" cx="14.4"  cy="79.753" stroke="black" id="connector5pin" r="2.84598" stroke-width="1.44"/>
    </g>
   </g>
  </g>
  <g partID="78690">
   <g transform="translate(29.0078,76.5911)">
    <g transform="matrix(2.22045e-16,1,-1,2.22045e-16,0,0)">
     <g  id="copper0" transform="matrix(1, 0, 0, 1, 1.83711, -0.0533789)">
      <rect width="4.464" x="-1.11711" y="8.41972" fill="none"  height="4.464" stroke="black" id="rect3280" stroke-width="1.44"/>
      <g  id="0.3.1" transform="matrix(1, 0, 0, 1, -1.90911, 7.05172)">
       <circle fill="none" cx="3.024"  cy="3.6" stroke="black" r="2.232" id="connector0pin" stroke-width="1.44"/>
      </g>
      <g  id="0.3.2" transform="matrix(1, 0, 0, 1, 8.08387, 7.05172)">
       <circle fill="none" cx="24.48"  cy="3.6" stroke="black" r="2.232" id="connector1pin" stroke-width="1.44"/>
      </g>
     </g>
    </g>
   </g>
  </g>
  <g partID="78740">
   <g transform="translate(55.9369,76.859)">
    <g transform="matrix(2.22045e-16,1,-1,2.22045e-16,0,0)">
     <g  id="copper0" transform="matrix(1, 0, 0, 1, 1.83711, -0.0533789)">
      <rect width="4.464" x="-1.11711" y="8.41972" fill="none"  height="4.464" stroke="black" id="rect3280" stroke-width="1.44"/>
      <g  id="0.3.1" transform="matrix(1, 0, 0, 1, -1.90911, 7.05172)">
       <circle fill="none" cx="3.024"  cy="3.6" stroke="black" r="2.232" id="connector0pin" stroke-width="1.44"/>
      </g>
      <g  id="0.3.2" transform="matrix(1, 0, 0, 1, 8.08387, 7.05172)">
       <circle fill="none" cx="24.48"  cy="3.6" stroke="black" r="2.232" id="connector1pin" stroke-width="1.44"/>
      </g>
     </g>
    </g>
   </g>
  </g>
  <g partID="78720">
   <g transform="translate(82.1574,76.5911)">
    <g transform="matrix(2.22045e-16,1,-1,2.22045e-16,0,0)">
     <g  id="copper0" transform="matrix(1, 0, 0, 1, 1.83711, -0.0533789)">
      <rect width="4.464" x="-1.11711" y="8.41972" fill="none"  height="4.464" stroke="black" id="rect3280" stroke-width="1.44"/>
      <g  id="0.3.1" transform="matrix(1, 0, 0, 1, -1.90911, 7.05172)">
       <circle fill="none" cx="3.024"  cy="3.6" stroke="black" r="2.232" id="connector0pin" stroke-width="1.44"/>
      </g>
      <g  id="0.3.2" transform="matrix(1, 0, 0, 1, 8.08387, 7.05172)">
       <circle fill="none" cx="24.48"  cy="3.6" stroke="black" r="2.232" id="connector1pin" stroke-width="1.44"/>
      </g>
     </g>
    </g>
   </g>
  </g>
  <g partID="80920">
   <g transform="translate(4.61142,2.45082)">
    <g  id="copper0">
     <path fill="black"  stroke="none" style="opacity:0.98000004;fill-rule:nonzero;" fill-opacity="0.98039216" id="connector4pin" d="m32.9221,50.4333c-1.56553,0.0004,-2.825,1.28456,-2.825,2.84992l0,5.66536c0,1.56576,1.25947,2.8256,2.825,2.82504l24.1043,-0.008c1.56553,-0.00048,2.83465,-1.26896,2.83465,-2.83464l0,-5.66928c0,-1.56536,-1.26911,-2.83472,-2.83465,-2.83464zm2.83484,4.24064,18.4348,-0.0104c0.782766,-0.00048,1.425,0.64224,1.425,1.42504,0,0.78272,-0.642234,1.4,-1.425,1.4l0,0.0248,-18.4348,0.0104c-0.782766,0.0004,-1.4,-0.64232,-1.4,-1.42496,0,-0.7828,0.617234,-1.42504,1.4,-1.42504z"/>
     <path fill="black"  stroke="none" style="opacity:0.98000004;fill-rule:nonzero;" fill-opacity="0.98039216" id="connector2pin" d="m5.99301,26.2971c-1.56553,0.0004,-2.825,1.28456,-2.825,2.84992l0,5.66536c0,1.56576,1.25947,2.8256,2.825,2.82504l24.1043,-0.008c1.56553,-0.00048,2.83465,-1.26896,2.83465,-2.83464l0,-5.66928c0,-1.56536,-1.26911,-2.83472,-2.83465,-2.83464zm2.83484,4.24064,18.4348,-0.0104c0.782766,-0.00048,1.425,0.64224,1.425,1.42504,0,0.78272,-0.642234,1.4,-1.425,1.4l0,0.0248,-18.4348,0.0104c-0.782766,0.0004,-1.4,-0.64232,-1.4,-1.42496,0,-0.7828,0.617234,-1.42504,1.4,-1.42504z"/>
     <path fill="black"  stroke="none" style="opacity:0.98000004;fill-rule:nonzero;" fill-opacity="0.98039216" id="connector0pin" d="m51.78,20.1968c-0.0004,-1.56552,-1.28456,-2.82504,-2.84992,-2.82504l-5.66536,0c-1.56576,0,-2.8256,1.25952,-2.82504,2.82504l0.008,24.1043c0.00048,1.56552,1.26896,2.83464,2.83464,2.83464l5.66928,0c1.56536,0,2.83472,-1.26912,2.83464,-2.83464zm-4.24064,2.8348,0.0104,18.4349c0.00048,0.78272,-0.64224,1.42496,-1.42504,1.42496,-0.78272,0,-1.4,-0.64224,-1.4,-1.42496l-0.0248,0,-0.0104,-18.4349c-0.0004,-0.78272,0.64232,-1.4,1.42496,-1.4,0.7828,0,1.42504,0.61728,1.42504,1.4z"/>
     <path fill="black"  stroke="none" style="opacity:0.98000004;fill-rule:nonzero;" fill-opacity="0.98039216" id="connector5pin" d="m74.4572,20.1968c-0.0004,-1.56552,-1.28456,-2.82504,-2.84992,-2.82504l-5.66536,0c-1.56576,0,-2.8256,1.25952,-2.82504,2.82504l0.008,24.1043c0.00048,1.56552,1.26896,2.83464,2.83464,2.83464l5.66928,0c1.56536,0,2.83472,-1.26912,2.83464,-2.83464zm-4.24064,2.8348,0.0104,18.4349c0.00048,0.78272,-0.64224,1.42496,-1.42504,1.42496,-0.78272,0,-1.4,-0.64224,-1.4,-1.42496l-0.0248,0,-0.0104,-18.4349c-0.0004,-0.78272,0.64232,-1.4,1.42496,-1.4,0.7828,0,1.42504,0.61728,1.42504,1.4z"/>
     <path fill="black"  stroke="none" style="opacity:0.98000004;fill-rule:nonzero;" fill-opacity="0.98039216" id="connector1pin" d="m34.056,2.81127c-1.56553,0.0004,-2.825,1.28456,-2.825,2.84992l0,5.66536c0,1.56576,1.25947,2.8256,2.825,2.82504l24.1043,-0.008c1.56553,-0.00048,2.83465,-1.26896,2.83465,-2.83464l0,-5.66928c0,-1.56536,-1.26911,-2.83472,-2.83465,-2.83464zm2.83484,4.24064,18.4348,-0.0104c0.782766,-0.00048,1.425,0.64224,1.425,1.42504,0,0.78272,-0.642234,1.4,-1.425,1.4l0,0.0248,-18.4348,0.0104c-0.782766,0.0004,-1.4,-0.64232,-1.4,-1.42496,0,-0.7828,0.617234,-1.42504,1.4,-1.42504z"/>
    </g>
   </g>
  </g>
  <g partID="90700">
   <line stroke="black" stroke-linecap="round" y1="58.7213" x1="84.926" y2="58.6209" stroke-width="3.456" x2="64.0725"/>
  </g>
  <g partID="87620">
   <line stroke="black" stroke-linecap="round" y1="53.8646" x1="94.4595" y2="58.7213" stroke-width="3.456" x2="84.926"/>
  </g>
  <g partID="90650">
   <line stroke="black" stroke-linecap="round" y1="11.1213" x1="97.726" y2="20.1008" stroke-width="3.456" x2="97.7638"/>
  </g>
  <g partID="87700">
   <line stroke="black" stroke-linecap="round" y1="10.9883" x1="65.2064" y2="11.1213" stroke-width="3.456" x2="97.726"/>
  </g>
  <g partID="87860">
   <line stroke="black" stroke-linecap="round" y1="35.4174" x1="78.6749" y2="37.5009" stroke-width="3.456" x2="94.0871"/>
  </g>
  <g partID="90060">
   <line stroke="black" stroke-linecap="round" y1="111.121" x1="6.52598" y2="34.4" stroke-width="3.456" x2="5.6"/>
  </g>
  <g partID="90200">
   <line stroke="black" stroke-linecap="round" y1="34.4" x1="5.6" y2="34.4023" stroke-width="3.456" x2="8.17943"/>
  </g>
  <g partID="90070">
   <line stroke="black" stroke-linecap="round" y1="111.026" x1="15.2976" y2="111.121" stroke-width="3.456" x2="6.52598"/>
  </g>
  <g partID="90430">
   <line stroke="black" stroke-linecap="round" y1="111.023" x1="21.5213" y2="111.229" stroke-width="3.456" x2="42.2267"/>
  </g>
  <g partID="90570">
   <line stroke="black" stroke-linecap="round" y1="111.228" x1="48.4504" y2="111.024" stroke-width="3.456" x2="68.4472"/>
  </g>
  <g partID="90750">
   <line stroke="black" stroke-linecap="round" y1="68.0215" x1="94.4513" y2="78.1441" stroke-width="3.456" x2="74.3388"/>
  </g>
  <g partID="91040">
   <line stroke="black" stroke-linecap="round" y1="101.121" x1="89.326" y2="96.9484" stroke-width="3.456" x2="94.8136"/>
  </g>
  <g partID="90810">
   <line stroke="black" stroke-linecap="round" y1="101.121" x1="18.526" y2="101.121" stroke-width="3.456" x2="89.326"/>
  </g>
  <g partID="90820">
   <line stroke="black" stroke-linecap="round" y1="82.6551" x1="18.4263" y2="101.121" stroke-width="3.456" x2="18.526"/>
  </g>
  <g partID="90950">
   <line stroke="black" stroke-linecap="round" y1="91.1213" x1="83.726" y2="82.7636" stroke-width="3.456" x2="94.805"/>
  </g>
  <g partID="90890">
   <line stroke="black" stroke-linecap="round" y1="91.1213" x1="46.126" y2="91.1213" stroke-width="3.456" x2="83.726"/>
  </g>
  <g partID="90900">
   <line stroke="black" stroke-linecap="round" y1="82.9155" x1="45.5547" y2="91.1213" stroke-width="3.456" x2="46.126"/>
  </g>
 </g>
</svg>
