<?xml version='1.0' encoding='UTF-8' standalone='no'?>
<!-- Created with Fritzing (http://www.fritzing.org/) -->
<svg xmlns="http://www.w3.org/2000/svg" width="1.28888in" x="0in" version="1.2" y="0in"  height="0.748146in" viewBox="0 0 92.7992 53.8665" baseProfile="tiny" xmlns:svg="http://www.w3.org/2000/svg">
 <g partID="12040">
  <g id="board">
   <rect width="92.2231" x="0.576" y="0.576" fill="none" height="53.2905" stroke="black" fill-opacity="0.5" id="boardoutline" stroke-width="0.5"/>
  </g>
 </g>
 <g partID="13240">
  <g transform="translate(1.244,-3.2904)">
   <g  id="copper0">
    <rect width="4.464" x="6.408" y="12.168" fill="black"  height="4.464" stroke="black" stroke-width="2.16"/>
    <circle fill="black" cx="8.64"  cy="14.4" stroke="black" id="connector0pad" r="2.232" stroke-width="2.16"/>
    <circle fill="black" cx="15.84"  cy="14.4" stroke="black" id="connector1pad" r="2.232" stroke-width="2.16"/>
    <circle fill="black" cx="23.04"  cy="14.4" stroke="black" id="connector2pad" r="2.232" stroke-width="2.16"/>
   </g>
  </g>
 </g>
 <g partID="13220">
  <g transform="translate(31.7168,-3.2904)">
   <g  id="copper0">
    <rect width="4.464" x="6.408" y="12.168" fill="black"  height="4.464" stroke="black" stroke-width="2.16"/>
    <circle fill="black" cx="8.64"  cy="14.4" stroke="black" id="connector0pad" r="2.232" stroke-width="2.16"/>
    <circle fill="black" cx="15.84"  cy="14.4" stroke="black" id="connector1pad" r="2.232" stroke-width="2.16"/>
    <circle fill="black" cx="23.04"  cy="14.4" stroke="black" id="connector2pad" r="2.232" stroke-width="2.16"/>
   </g>
  </g>
 </g>
 <g partID="13160">
  <g transform="translate(61.4808,-3.2904)">
   <g  id="copper0">
    <rect width="4.464" x="6.408" y="12.168" fill="black"  height="4.464" stroke="black" stroke-width="2.16"/>
    <circle fill="black" cx="8.64"  cy="14.4" stroke="black" id="connector0pad" r="2.232" stroke-width="2.16"/>
    <circle fill="black" cx="15.84"  cy="14.4" stroke="black" id="connector1pad" r="2.232" stroke-width="2.16"/>
    <circle fill="black" cx="23.04"  cy="14.4" stroke="black" id="connector2pad" r="2.232" stroke-width="2.16"/>
   </g>
  </g>
 </g>
 <g partID="23470">
  <g transform="translate(91.1392,16.552)">
   <g transform="matrix(2.22045e-16,1,-1,2.22045e-16,0,0)">
    <g  id="copper0">
     <rect width="5.69197" x="11.554" y="6.15402" fill="black"  height="5.69197" stroke="black" id="square" stroke-width="2.16"/>
     <circle fill="black" cx="14.4"  cy="9" stroke="black" id="connector0pin" r="2.84598" stroke-width="2.16"/>
     <circle fill="black" cx="14.4"  cy="23.4" stroke="black" id="connector1pin" r="2.84598" stroke-width="2.16"/>
     <circle fill="black" cx="14.4"  cy="37.8" stroke="black" id="connector2pin" r="2.84598" stroke-width="2.16"/>
     <circle fill="black" cx="14.4"  cy="52.2" stroke="black" id="connector3pin" r="2.84598" stroke-width="2.16"/>
     <circle fill="black" cx="14.4"  cy="66.6" stroke="black" id="connector4pin" r="2.84598" stroke-width="2.16"/>
     <circle fill="black" cx="14.4"  cy="81" stroke="black" id="connector5pin" r="2.84598" stroke-width="2.16"/>
    </g>
   </g>
  </g>
 </g>
 <g partID="40610">
  <g transform="translate(81.4591,22.8733)">
   <g transform="matrix(-1,0,0,-1,0,0)">
    <g  flipped="1" id="copper0" transform="matrix(1, 0, 0, -1, 0, 6.51969)">
     <g >
      <rect width="4.53543" x="0.566929" y="0.566929" fill="black"  height="5.38583" stroke="black" fill-opacity="1" id="connector0pad" stroke-width="0.72"/>
      <rect width="4.53543" x="9.35433" y="0.566929" fill="black"  height="5.38583" stroke="black" fill-opacity="1" id="connector1pad" stroke-width="0.72"/>
     </g>
    </g>
   </g>
  </g>
 </g>
 <g partID="40620">
  <g transform="translate(57.6485,29.5354)">
   <g transform="matrix(-4.44089e-16,-1,1,-4.44089e-16,0,0)">
    <g  flipped="1" id="copper0" transform="matrix(1, 0, 0, -1, 0, 6.51969)">
     <g >
      <rect width="4.53543" x="0.566929" y="0.566929" fill="black"  height="5.38583" stroke="black" fill-opacity="1" id="connector0pad" stroke-width="0.72"/>
      <rect width="4.53543" x="9.35433" y="0.566929" fill="black"  height="5.38583" stroke="black" fill-opacity="1" id="connector1pad" stroke-width="0.72"/>
     </g>
    </g>
   </g>
  </g>
 </g>
 <g partID="40630">
  <g transform="translate(54.3886,17.6295)">
   <g transform="matrix(2.22045e-16,1,-1,2.22045e-16,0,0)">
    <g  flipped="1" id="copper0" transform="matrix(1, 0, 0, -1, 0, 8.22047)">
     <g >
      <!-- unten links -->
      <rect width="2.26772" x="0.425197" y="5.66929" fill="black"  height="2.55118" stroke="black" fill-opacity="1" id="connector0pin" stroke-width="0.72"/>
      <g width="0" x="1.55906" y="6.94488" fill="black"  height="0" stroke="black" id="connector0terminal" stroke-width="0.72"/>
      <!-- unten rechts -->
      <rect width="2.26772" x="5.81102" y="5.66929" fill="black"  height="2.55118" stroke="black" fill-opacity="1" id="connector1pin" stroke-width="0.72"/>
      <g width="0" x="6.94488" y="6.94488" fill="black"  height="0" stroke="black" id="connector1terminal" stroke-width="0.72"/>
      <!-- oben mitte -->
      <rect width="2.26772" x="3.11811" y="0" fill="black"  height="2.55118" stroke="black" fill-opacity="1" id="connector2pin" stroke-width="0.72"/>
      <g width="0" x="4.25197" y="1.27559" fill="black"  height="0" stroke="black" id="connector2terminal" stroke-width="0.72"/>
     </g>
    </g>
   </g>
  </g>
 </g>
</svg>
