<?xml version='1.0' encoding='UTF-8' standalone='no'?>
<!-- Created with Fritzing (http://www.fritzing.org/) -->
<svg xmlns="http://www.w3.org/2000/svg" width="2.3622in" x="0in" version="1.2" y="0in"  height="1.35827in" viewBox="0 0 170.079 97.7953" baseProfile="tiny" xmlns:svg="http://www.w3.org/2000/svg">
 <g partID="12040">
  <g id="board">
   <rect width="169.503" x="0.576" y="0.576" fill="none" height="97.2193" stroke="black" fill-opacity="0.5" id="boardoutline" stroke-width="0.5"/>
  </g>
 </g>
 <g partID="313450">
  <g transform="translate(3.168,3.168)">
   <g  id="groundplane">
    <polygon fill="black" points="0,0,0,36.288,153.216,36.288,153.216,36.432,155.808,36.432,155.808,91.728,164.016,91.728,164.016,0"  stroke="none" stroke-width="0"/>
    <polygon fill="black" points="0,36.288,0,91.728,9.792,91.728,9.792,36.432,12.384,36.432,12.384,36.288"  stroke="none" stroke-width="0"/>
    <polygon fill="black" points="13.68,36.288,13.68,36.432,151.92,36.432,151.92,36.288"  stroke="none" stroke-width="0"/>
    <g  id="connector0pad">
     <circle fill="black" cx="5.95431"  cy="5.87647" stroke="none" r="2.7" stroke-width="0"/>
    </g>
   </g>
  </g>
 </g>
 <g partID="13240">
  <g transform="translate(15.039,40.9642)">
   <g  id="copper0">
    <rect width="4.464" x="6.408" y="12.168" fill="none"  height="4.464" stroke="black" stroke-width="1.44"/>
    <circle fill="none" cx="8.64"  cy="14.4" stroke="black" id="connector0pad" r="2.232" stroke-width="1.44"/>
    <circle fill="none" cx="15.84"  cy="14.4" stroke="black" id="connector1pad" r="2.232" stroke-width="1.44"/>
    <circle fill="none" cx="23.04"  cy="14.4" stroke="black" id="connector2pad" r="2.232" stroke-width="1.44"/>
   </g>
  </g>
 </g>
 <g partID="13220">
  <g transform="translate(67.4804,40.9635)">
   <g  id="copper0">
    <rect width="4.464" x="6.408" y="12.168" fill="none"  height="4.464" stroke="black" stroke-width="1.44"/>
    <circle fill="none" cx="8.64"  cy="14.4" stroke="black" id="connector0pad" r="2.232" stroke-width="1.44"/>
    <circle fill="none" cx="15.84"  cy="14.4" stroke="black" id="connector1pad" r="2.232" stroke-width="1.44"/>
    <circle fill="none" cx="23.04"  cy="14.4" stroke="black" id="connector2pad" r="2.232" stroke-width="1.44"/>
   </g>
  </g>
 </g>
 <g partID="13160">
  <g transform="translate(119.212,39.5469)">
   <g  id="copper0">
    <rect width="4.464" x="6.408" y="12.168" fill="none"  height="4.464" stroke="black" stroke-width="1.44"/>
    <circle fill="none" cx="8.64"  cy="14.4" stroke="black" id="connector0pad" r="2.232" stroke-width="1.44"/>
    <circle fill="none" cx="15.84"  cy="14.4" stroke="black" id="connector1pad" r="2.232" stroke-width="1.44"/>
    <circle fill="none" cx="23.04"  cy="14.4" stroke="black" id="connector2pad" r="2.232" stroke-width="1.44"/>
   </g>
  </g>
 </g>
 <g partID="40610">
  <g transform="translate(42.1042,70.6713)">
   <g transform="matrix(-1,1.27676e-15,-1.27676e-15,-1,0,0)">
    <g  flipped="1" id="copper0" transform="matrix(1, 0, 0, -1, 0, 6.51969)">
     <g >
      <rect width="4.53543" x="0.566929" y="0.566929" fill="black"  height="5.38583" stroke="none" fill-opacity="1" id="connector0pad"/>
      <rect width="4.53543" x="9.35433" y="0.566929" fill="black"  height="5.38583" stroke="none" fill-opacity="1" id="connector1pad"/>
     </g>
    </g>
   </g>
  </g>
 </g>
 <g partID="40620">
  <g transform="translate(32.4664,96.4666)">
   <g transform="matrix(-1.38778e-15,-1,1,-1.38778e-15,0,0)">
    <g  flipped="1" id="copper0" transform="matrix(1, 0, 0, -1, 0, 6.51969)">
     <g >
      <rect width="4.53543" x="0.566929" y="0.566929" fill="black"  height="5.38583" stroke="none" fill-opacity="1" id="connector0pad"/>
      <rect width="4.53543" x="9.35433" y="0.566929" fill="black"  height="5.38583" stroke="none" fill-opacity="1" id="connector1pad"/>
     </g>
    </g>
   </g>
  </g>
 </g>
 <g partID="40630">
  <g transform="translate(39.1278,79.317)">
   <g transform="matrix(-1,7.21645e-16,-7.21645e-16,-1,0,0)">
    <g  flipped="1" id="copper0" transform="matrix(1, 0, 0, -1, 0, 8.22047)">
     <g >
      <!-- unten links -->
      <rect width="2.26772" x="0.425197" y="5.66929" fill="black"  height="2.55118" stroke="none" fill-opacity="1" id="connector0pin"/>
      <g width="0" x="1.55906" y="6.94488" fill="none"  height="0" id="connector0terminal" stroke-width="0"/>
      <!-- unten rechts -->
      <rect width="2.26772" x="5.81102" y="5.66929" fill="black"  height="2.55118" stroke="none" fill-opacity="1" id="connector1pin"/>
      <g width="0" x="6.94488" y="6.94488" fill="none"  height="0" id="connector1terminal" stroke-width="0"/>
      <!-- oben mitte -->
      <rect width="2.26772" x="3.11811" y="0" fill="black"  height="2.55118" stroke="none" fill-opacity="1" id="connector2pin"/>
      <g width="0" x="4.25197" y="1.27559" fill="none"  height="0" id="connector2terminal" stroke-width="0"/>
     </g>
    </g>
   </g>
  </g>
 </g>
 <g partID="46960">
  <g transform="translate(105.91,69.5357)">
   <g transform="matrix(2.22045e-16,1,-1,2.22045e-16,0,0)">
    <g  id="copper0" transform="matrix(1, 0, 0, 1, -167.25, -382.666)">
     <g >
      <g  id="0.3.0.0" transform="matrix(1, 0, 0, 1, 0, -2141.18)">
       <path fill="black"  stroke="none" style="opacity:0.98000004;fill-rule:nonzero;" fill-opacity="1" id="connector0pin" d="m174.05,2523.85c-3.769,0,-6.8,3.056,-6.8,6.82504l0,0.6c0,3.76896,3.031,6.8,6.8,6.8l14.725,0c3.769,0,6.825,-3.03104,6.825,-6.8l0,-0.6c0,-3.76904,-3.056,-6.82504,-6.825,-6.82504l-14.725,0zm0.575,3.95c1.56553,0,2.825,1.28728,2.825,2.87504,0,1.58768,-1.25947,2.87496,-2.825,2.87496,-1.56553,0,-2.85,-1.28728,-2.85,-2.87496,0,-1.58776,1.28447,-2.87504,2.85,-2.87504zm14.15,0c1.56553,0,2.85,1.28728,2.85,2.87504,0,1.58768,-1.28447,2.87496,-2.85,2.87496,-1.56553,0,-2.825,-1.28728,-2.825,-2.87496,0,-1.58776,1.25947,-2.87504,2.825,-2.87504z"/>
      </g>
     </g>
    </g>
   </g>
  </g>
 </g>
 <g partID="46940">
  <g transform="translate(131.421,69.5357)">
   <g transform="matrix(2.22045e-16,1,-1,2.22045e-16,0,0)">
    <g  id="copper0" transform="matrix(1, 0, 0, 1, -167.25, -382.666)">
     <g >
      <g  id="0.3.0.0" transform="matrix(1, 0, 0, 1, 0, -2141.18)">
       <path fill="black"  stroke="none" style="opacity:0.98000004;fill-rule:nonzero;" fill-opacity="1" id="connector0pin" d="m174.05,2523.85c-3.769,0,-6.8,3.056,-6.8,6.82504l0,0.6c0,3.76896,3.031,6.8,6.8,6.8l14.725,0c3.769,0,6.825,-3.03104,6.825,-6.8l0,-0.6c0,-3.76904,-3.056,-6.82504,-6.825,-6.82504l-14.725,0zm0.575,3.95c1.56553,0,2.825,1.28728,2.825,2.87504,0,1.58768,-1.25947,2.87496,-2.825,2.87496,-1.56553,0,-2.85,-1.28728,-2.85,-2.87496,0,-1.58776,1.28447,-2.87504,2.85,-2.87504zm14.15,0c1.56553,0,2.85,1.28728,2.85,2.87504,0,1.58768,-1.28447,2.87496,-2.85,2.87496,-1.56553,0,-2.825,-1.28728,-2.825,-2.87496,0,-1.58776,1.25947,-2.87504,2.825,-2.87504z"/>
      </g>
     </g>
    </g>
   </g>
  </g>
 </g>
 <g partID="46920">
  <g transform="translate(156.933,69.5357)">
   <g transform="matrix(2.22045e-16,1,-1,2.22045e-16,0,0)">
    <g  id="copper0" transform="matrix(1, 0, 0, 1, -167.25, -382.666)">
     <g >
      <g  id="0.3.0.0" transform="matrix(1, 0, 0, 1, 0, -2141.18)">
       <path fill="black"  stroke="none" style="opacity:0.98000004;fill-rule:nonzero;" fill-opacity="1" id="connector0pin" d="m174.05,2523.85c-3.769,0,-6.8,3.056,-6.8,6.82504l0,0.6c0,3.76896,3.031,6.8,6.8,6.8l14.725,0c3.769,0,6.825,-3.03104,6.825,-6.8l0,-0.6c0,-3.76904,-3.056,-6.82504,-6.825,-6.82504l-14.725,0zm0.575,3.95c1.56553,0,2.825,1.28728,2.825,2.87504,0,1.58768,-1.25947,2.87496,-2.825,2.87496,-1.56553,0,-2.85,-1.28728,-2.85,-2.87496,0,-1.58776,1.28447,-2.87504,2.85,-2.87504zm14.15,0c1.56553,0,2.85,1.28728,2.85,2.87504,0,1.58768,-1.28447,2.87496,-2.85,2.87496,-1.56553,0,-2.825,-1.28728,-2.825,-2.87496,0,-1.58776,1.25947,-2.87504,2.825,-2.87504z"/>
      </g>
     </g>
    </g>
   </g>
  </g>
 </g>
 <g partID="46470">
  <g transform="translate(29.3742,69.5357)">
   <g transform="matrix(2.22045e-16,1,-1,2.22045e-16,0,0)">
    <g  id="copper0" transform="matrix(1, 0, 0, 1, -167.25, -382.666)">
     <g >
      <g  id="0.3.0.0" transform="matrix(1, 0, 0, 1, 0, -2141.18)">
       <path fill="black"  stroke="none" style="opacity:0.98000004;fill-rule:nonzero;" fill-opacity="1" id="connector0pin" d="m174.05,2523.85c-3.769,0,-6.8,3.056,-6.8,6.82504l0,0.6c0,3.76896,3.031,6.8,6.8,6.8l14.725,0c3.769,0,6.825,-3.03104,6.825,-6.8l0,-0.6c0,-3.76904,-3.056,-6.82504,-6.825,-6.82504l-14.725,0zm0.575,3.95c1.56553,0,2.825,1.28728,2.825,2.87504,0,1.58768,-1.25947,2.87496,-2.825,2.87496,-1.56553,0,-2.85,-1.28728,-2.85,-2.87496,0,-1.58776,1.28447,-2.87504,2.85,-2.87504zm14.15,0c1.56553,0,2.85,1.28728,2.85,2.87504,0,1.58768,-1.28447,2.87496,-2.85,2.87496,-1.56553,0,-2.825,-1.28728,-2.825,-2.87496,0,-1.58776,1.25947,-2.87504,2.825,-2.87504z"/>
      </g>
     </g>
    </g>
   </g>
  </g>
 </g>
 <g partID="46450">
  <g transform="translate(54.886,69.5357)">
   <g transform="matrix(2.22045e-16,1,-1,2.22045e-16,0,0)">
    <g  id="copper0" transform="matrix(1, 0, 0, 1, -167.25, -382.666)">
     <g >
      <g  id="0.3.0.0" transform="matrix(1, 0, 0, 1, 0, -2141.18)">
       <path fill="black"  stroke="none" style="opacity:0.98000004;fill-rule:nonzero;" fill-opacity="1" id="connector0pin" d="m174.05,2523.85c-3.769,0,-6.8,3.056,-6.8,6.82504l0,0.6c0,3.76896,3.031,6.8,6.8,6.8l14.725,0c3.769,0,6.825,-3.03104,6.825,-6.8l0,-0.6c0,-3.76904,-3.056,-6.82504,-6.825,-6.82504l-14.725,0zm0.575,3.95c1.56553,0,2.825,1.28728,2.825,2.87504,0,1.58768,-1.25947,2.87496,-2.825,2.87496,-1.56553,0,-2.85,-1.28728,-2.85,-2.87496,0,-1.58776,1.28447,-2.87504,2.85,-2.87504zm14.15,0c1.56553,0,2.85,1.28728,2.85,2.87504,0,1.58768,-1.28447,2.87496,-2.85,2.87496,-1.56553,0,-2.825,-1.28728,-2.825,-2.87496,0,-1.58776,1.25947,-2.87504,2.825,-2.87504z"/>
      </g>
     </g>
    </g>
   </g>
  </g>
 </g>
 <g partID="46420">
  <g transform="translate(80.3978,69.5357)">
   <g transform="matrix(2.22045e-16,1,-1,2.22045e-16,0,0)">
    <g  id="copper0" transform="matrix(1, 0, 0, 1, -167.25, -382.666)">
     <g >
      <g  id="0.3.0.0" transform="matrix(1, 0, 0, 1, 0, -2141.18)">
       <path fill="black"  stroke="none" style="opacity:0.98000004;fill-rule:nonzero;" fill-opacity="1" id="connector0pin" d="m174.05,2523.85c-3.769,0,-6.8,3.056,-6.8,6.82504l0,0.6c0,3.76896,3.031,6.8,6.8,6.8l14.725,0c3.769,0,6.825,-3.03104,6.825,-6.8l0,-0.6c0,-3.76904,-3.056,-6.82504,-6.825,-6.82504l-14.725,0zm0.575,3.95c1.56553,0,2.825,1.28728,2.825,2.87504,0,1.58768,-1.25947,2.87496,-2.825,2.87496,-1.56553,0,-2.85,-1.28728,-2.85,-2.87496,0,-1.58776,1.28447,-2.87504,2.85,-2.87504zm14.15,0c1.56553,0,2.85,1.28728,2.85,2.87504,0,1.58768,-1.28447,2.87496,-2.85,2.87496,-1.56553,0,-2.825,-1.28728,-2.825,-2.87496,0,-1.58776,1.25947,-2.87504,2.825,-2.87504z"/>
      </g>
     </g>
    </g>
   </g>
  </g>
 </g>
 <g partID="302520">
  <line stroke="black" stroke-linecap="round" y1="66.7503" x1="64.0112" y2="67.2998" stroke-width="3.456" x2="97.3957"/>
 </g>
 <g partID="302230">
  <line stroke="black" stroke-linecap="round" y1="67.2998" x1="97.3957" y2="69.9357" stroke-width="3.456" x2="97.6208"/>
 </g>
 <g partID="302180">
  <line stroke="black" stroke-linecap="round" y1="55.4049" x1="64.0112" y2="66.7503" stroke-width="3.456" x2="64.0112"/>
 </g>
 <g partID="68940">
  <line stroke="black" stroke-linecap="round" y1="55.3691" x1="41.191" y2="55.4049" stroke-width="3.456" x2="64.0112"/>
 </g>
 <g partID="302130">
  <line stroke="black" stroke-linecap="round" y1="66.5887" x1="123.707" y2="69.9357" stroke-width="3.456" x2="123.824"/>
 </g>
 <g partID="312130">
  <line stroke="black" stroke-linecap="round" y1="66.5887" x1="108.773" y2="66.5887" stroke-width="3.456" x2="123.707"/>
 </g>
 <g partID="70060">
  <line stroke="black" stroke-linecap="round" y1="55.448" x1="108.773" y2="66.5887" stroke-width="3.456" x2="108.773"/>
 </g>
 <g partID="69550">
  <line stroke="black" stroke-linecap="round" y1="55.3779" x1="93.6324" y2="55.448" stroke-width="3.456" x2="108.773"/>
 </g>
 <g partID="70910">
  <line stroke="black" stroke-linecap="round" y1="53.9503" x1="149.829" y2="69.9357" stroke-width="3.456" x2="149.825"/>
 </g>
 <g partID="70870">
  <line stroke="black" stroke-linecap="round" y1="53.9483" x1="145.364" y2="53.9503" stroke-width="3.456" x2="149.829"/>
 </g>
 <g partID="71750">
  <line stroke="black" stroke-linecap="round" y1="79.8749" x1="28.9742" y2="78.4607" stroke-width="1.728" x2="31.4491"/>
 </g>
 <g partID="72670">
  <line stroke="black" stroke-linecap="round" y1="82.9768" x1="36.2321" y2="78.917" stroke-width="1.728" x2="37.3316"/>
 </g>
 <g partID="75110">
  <line stroke="black" stroke-linecap="round" y1="93.64" x1="38.0192" y2="93.6594" stroke-width="1.728" x2="43.5021"/>
 </g>
 <g partID="313320">
  <line stroke="black" stroke-linecap="round" y1="93.6594" x1="43.5021" y2="84.3503" stroke-width="1.728" x2="43.5021"/>
 </g>
 <g partID="313370">
  <line stroke="black" stroke-linecap="round" y1="84.3503" x1="43.5021" y2="83.7107" stroke-width="1.728" x2="47.7735"/>
 </g>
 <g partID="304690">
  <line stroke="black" stroke-linecap="round" y1="61.0776" x1="116.52" y2="61.0776" stroke-width="3.456" x2="134.993"/>
 </g>
 <g partID="304560">
  <line stroke="black" stroke-linecap="round" y1="48.2776" x1="116.52" y2="61.0776" stroke-width="3.456" x2="116.52"/>
 </g>
 <g partID="304420">
  <line stroke="black" stroke-linecap="round" y1="48.3369" x1="83.1734" y2="48.2776" stroke-width="3.456" x2="116.52"/>
 </g>
 <g partID="304820">
  <line stroke="black" stroke-linecap="round" y1="61.0776" x1="134.993" y2="57.0588" stroke-width="3.456" x2="135.026"/>
 </g>
 <g partID="304430">
  <line stroke="black" stroke-linecap="round" y1="52.2522" x1="83.2554" y2="48.3369" stroke-width="3.456" x2="83.1734"/>
 </g>
 <g partID="312470">
  <line stroke="black" stroke-linecap="round" y1="61.8049" x1="38.5566" y2="65.1185" stroke-width="3.456" x2="38.978"/>
 </g>
 <g partID="309110">
  <line stroke="black" stroke-linecap="round" y1="83.6554" x1="58.9957" y2="61.8049" stroke-width="3.456" x2="59.0657"/>
 </g>
 <g partID="308980">
  <line stroke="black" stroke-linecap="round" y1="61.8049" x1="59.0657" y2="61.8049" stroke-width="3.456" x2="38.5566"/>
 </g>
 <g partID="308860">
  <line stroke="black" stroke-linecap="round" y1="83.6847" x1="66.5728" y2="83.6554" stroke-width="3.456" x2="58.9957"/>
 </g>
 <g partID="309280">
  <line stroke="black" stroke-linecap="round" y1="53.0515" x1="76.1092" y2="43.3591" stroke-width="1.728" x2="76.0623"/>
 </g>
 <g partID="309620">
  <line stroke="black" stroke-linecap="round" y1="43.3321" x1="127.866" y2="51.6349" stroke-width="1.728" x2="127.855"/>
 </g>
 <g partID="309450">
  <line stroke="black" stroke-linecap="round" y1="43.3591" x1="76.0623" y2="43.3321" stroke-width="1.728" x2="127.866"/>
 </g>
 <g partID="310690">
  <line stroke="black" stroke-linecap="round" y1="43.3591" x1="76.0623" y2="43.122" stroke-width="1.728" x2="23.2031"/>
 </g>
 <g partID="310840">
  <line stroke="black" stroke-linecap="round" y1="43.122" x1="23.2031" y2="53.054" stroke-width="1.728" x2="23.5892"/>
 </g>
 <g partID="312690">
  <line stroke="black" stroke-linecap="round" y1="66.5887" x1="23.6771" y2="67.1856" stroke-width="1.728" x2="28.6144"/>
 </g>
 <g partID="311150">
  <line stroke="black" stroke-linecap="round" y1="57.6762" x1="23.6786" y2="66.5887" stroke-width="1.728" x2="23.6771"/>
 </g>
 <g partID="311270">
  <line stroke="black" stroke-linecap="round" y1="69.5202" x1="32.3499" y2="71.5435" stroke-width="1.728" x2="34.142"/>
 </g>
 <g partID="311830">
  <line stroke="black" stroke-linecap="round" y1="49.048" x1="30.7883" y2="49.7591" stroke-width="3.456" x2="68.9512"/>
 </g>
 <g partID="311720">
  <line stroke="black" stroke-linecap="round" y1="49.7591" x1="68.9512" y2="61.8049" stroke-width="3.456" x2="69.1021"/>
 </g>
 <g partID="311500">
  <line stroke="black" stroke-linecap="round" y1="61.8049" x1="83.2112" y2="58.4751" stroke-width="3.456" x2="83.2676"/>
 </g>
 <g partID="311610">
  <line stroke="black" stroke-linecap="round" y1="61.8049" x1="69.1021" y2="61.8049" stroke-width="3.456" x2="83.2112"/>
 </g>
 <g partID="311390">
  <line stroke="black" stroke-linecap="round" y1="52.2525" x1="30.8343" y2="49.048" stroke-width="3.456" x2="30.7883"/>
 </g>
 <g partID="313010">
  <line stroke="black" stroke-linecap="round" y1="61.8049" x1="38.5566" y2="61.8049" stroke-width="3.456" x2="31.1384"/>
 </g>
 <g partID="313120">
  <line stroke="black" stroke-linecap="round" y1="61.8049" x1="31.1384" y2="58.4737" stroke-width="3.456" x2="31.0043"/>
 </g>
</svg>
