<?xml version='1.0' encoding='UTF-8' standalone='no'?>
<!-- Created with Fritzing (http://www.fritzing.org/) -->
<svg xmlns="http://www.w3.org/2000/svg" width="1.967in" x="0in" version="1.2" y="0in"  height="2.9257in" viewBox="0 0 141.624 210.65" baseProfile="tiny" xmlns:svg="http://www.w3.org/2000/svg">
 <g partID="77300">
  <g id="board">
   <rect width="141.048" x="0.288" y="0.288" fill="none" height="210.074" stroke="black" fill-opacity="0.5" id="boardoutline" stroke-width="0.5"/>
  </g>
 </g>
 <g partID="1922670">
  <g transform="translate(28.1888,22.3216)">
   <g transform="matrix(4.44089e-16,1,-1,4.44089e-16,0,0)">
    <g  id="copper0">
     <g  id="copper1">
      <rect width="4.464" x="0.72" y="3.24" fill="black"  height="4.608" stroke="black" stroke-width="2.16"/>
      <circle fill="black" cx="2.952"  cy="5.472" stroke="black" r="2.232" id="connector0pin" stroke-width="2.16"/>
      <circle fill="black" cx="60.552"  cy="5.472" stroke="black" r="2.232" id="connector1pin" stroke-width="2.16"/>
     </g>
    </g>
   </g>
  </g>
 </g>
 <g partID="1922640">
  <g transform="translate(27.4801,132.873)">
   <g transform="matrix(2.22045e-16,1,-1,2.22045e-16,0,0)">
    <g  id="copper0">
     <g  id="copper1">
      <rect width="4.464" x="0.72" y="3.24" fill="black"  height="4.608" stroke="black" stroke-width="2.16"/>
      <circle fill="black" cx="2.952"  cy="5.472" stroke="black" r="2.232" id="connector0pin" stroke-width="2.16"/>
      <circle fill="black" cx="60.552"  cy="5.472" stroke="black" r="2.232" id="connector1pin" stroke-width="2.16"/>
     </g>
    </g>
   </g>
  </g>
 </g>
 <g partID="282970">
  <g transform="translate(114.102,171.339)">
   <g transform="matrix(7.21645e-16,1,-1,7.21645e-16,0,0)">
    <g transform="matrix(1, 0, 0, 1, 1.83711, -0.0533789)">
     <g id="copper0">
      <rect width="4.464" x="-1.11711" y="8.41972" fill="black" height="4.464" stroke="black" id="rect3280" stroke-width="2.16"/>
      <g transform="matrix(1, 0, 0, 1, -1.90911, 7.05172)">
       <g id="0.3.1">
        <circle fill="black" cx="3.024" cy="3.6" stroke="black" r="2.232" id="connector0pin" stroke-width="2.16"/>
       </g>
      </g>
      <g transform="matrix(1, 0, 0, 1, 8.08387, 7.05172)">
       <g id="0.3.2">
        <circle fill="black" cx="24.48" cy="3.6" stroke="black" r="2.232" id="connector1pin" stroke-width="2.16"/>
       </g>
      </g>
     </g>
    </g>
   </g>
  </g>
 </g>
 <g partID="283070">
  <g transform="translate(90.7167,171.339)">
   <g transform="matrix(7.21645e-16,1,-1,7.21645e-16,0,0)">
    <g transform="matrix(1, 0, 0, 1, 1.83711, -0.0533789)">
     <g id="copper0">
      <rect width="4.464" x="-1.11711" y="8.41972" fill="black" height="4.464" stroke="black" id="rect3280" stroke-width="2.16"/>
      <g transform="matrix(1, 0, 0, 1, -1.90911, 7.05172)">
       <g id="0.3.1">
        <circle fill="black" cx="3.024" cy="3.6" stroke="black" r="2.232" id="connector0pin" stroke-width="2.16"/>
       </g>
      </g>
      <g transform="matrix(1, 0, 0, 1, 8.08387, 7.05172)">
       <g id="0.3.2">
        <circle fill="black" cx="24.48" cy="3.6" stroke="black" r="2.232" id="connector1pin" stroke-width="2.16"/>
       </g>
      </g>
     </g>
    </g>
   </g>
  </g>
 </g>
 <g partID="283170">
  <g transform="translate(67.3309,171.339)">
   <g transform="matrix(7.21645e-16,1,-1,7.21645e-16,0,0)">
    <g transform="matrix(1, 0, 0, 1, 1.83711, -0.0533789)">
     <g id="copper0">
      <rect width="4.464" x="-1.11711" y="8.41972" fill="black" height="4.464" stroke="black" id="rect3280" stroke-width="2.16"/>
      <g transform="matrix(1, 0, 0, 1, -1.90911, 7.05172)">
       <g id="0.3.1">
        <circle fill="black" cx="3.024" cy="3.6" stroke="black" r="2.232" id="connector0pin" stroke-width="2.16"/>
       </g>
      </g>
      <g transform="matrix(1, 0, 0, 1, 8.08387, 7.05172)">
       <g id="0.3.2">
        <circle fill="black" cx="24.48" cy="3.6" stroke="black" r="2.232" id="connector1pin" stroke-width="2.16"/>
       </g>
      </g>
     </g>
    </g>
   </g>
  </g>
 </g>
 <g partID="1911650">
  <g transform="translate(45.9865,88.168)">
   <g transform="matrix(-4.44089e-16,-1,1,-4.44089e-16,0,0)">
    <g  id="copper0">
     <path fill="black"  stroke="black" style="opacity:0.98000004;fill-rule:nonzero;" fill-opacity="0.98039216" id="connector4pin" stroke-width="0.72" d="m32.9221,50.4333c-1.56553,0.0004,-2.825,1.28456,-2.825,2.84992l0,5.66536c0,1.56576,1.25947,2.8256,2.825,2.82504l24.1043,-0.008c1.56553,-0.00048,2.83465,-1.26896,2.83465,-2.83464l0,-5.66928c0,-1.56536,-1.26911,-2.83472,-2.83465,-2.83464zm2.83484,4.24064,18.4348,-0.0104c0.782766,-0.00048,1.425,0.64224,1.425,1.42504,0,0.78272,-0.642234,1.4,-1.425,1.4l0,0.0248,-18.4348,0.0104c-0.782766,0.0004,-1.4,-0.64232,-1.4,-1.42496,0,-0.7828,0.617234,-1.42504,1.4,-1.42504z"/>
     <path fill="black"  stroke="black" style="opacity:0.98000004;fill-rule:nonzero;" fill-opacity="0.98039216" id="connector2pin" stroke-width="0.72" d="m5.99301,26.2971c-1.56553,0.0004,-2.825,1.28456,-2.825,2.84992l0,5.66536c0,1.56576,1.25947,2.8256,2.825,2.82504l24.1043,-0.008c1.56553,-0.00048,2.83465,-1.26896,2.83465,-2.83464l0,-5.66928c0,-1.56536,-1.26911,-2.83472,-2.83465,-2.83464zm2.83484,4.24064,18.4348,-0.0104c0.782766,-0.00048,1.425,0.64224,1.425,1.42504,0,0.78272,-0.642234,1.4,-1.425,1.4l0,0.0248,-18.4348,0.0104c-0.782766,0.0004,-1.4,-0.64232,-1.4,-1.42496,0,-0.7828,0.617234,-1.42504,1.4,-1.42504z"/>
     <path fill="black"  stroke="black" style="opacity:0.98000004;fill-rule:nonzero;" fill-opacity="0.98039216" id="connector0pin" stroke-width="0.72" d="m51.78,20.1968c-0.0004,-1.56552,-1.28456,-2.82504,-2.84992,-2.82504l-5.66536,0c-1.56576,0,-2.8256,1.25952,-2.82504,2.82504l0.008,24.1043c0.00048,1.56552,1.26896,2.83464,2.83464,2.83464l5.66928,0c1.56536,0,2.83472,-1.26912,2.83464,-2.83464zm-4.24064,2.8348,0.0104,18.4349c0.00048,0.78272,-0.64224,1.42496,-1.42504,1.42496,-0.78272,0,-1.4,-0.64224,-1.4,-1.42496l-0.0248,0,-0.0104,-18.4349c-0.0004,-0.78272,0.64232,-1.4,1.42496,-1.4,0.7828,0,1.42504,0.61728,1.42504,1.4z"/>
     <path fill="black"  stroke="black" style="opacity:0.98000004;fill-rule:nonzero;" fill-opacity="0.98039216" id="connector5pin" stroke-width="0.72" d="m74.4572,20.1968c-0.0004,-1.56552,-1.28456,-2.82504,-2.84992,-2.82504l-5.66536,0c-1.56576,0,-2.8256,1.25952,-2.82504,2.82504l0.008,24.1043c0.00048,1.56552,1.26896,2.83464,2.83464,2.83464l5.66928,0c1.56536,0,2.83472,-1.26912,2.83464,-2.83464zm-4.24064,2.8348,0.0104,18.4349c0.00048,0.78272,-0.64224,1.42496,-1.42504,1.42496,-0.78272,0,-1.4,-0.64224,-1.4,-1.42496l-0.0248,0,-0.0104,-18.4349c-0.0004,-0.78272,0.64232,-1.4,1.42496,-1.4,0.7828,0,1.42504,0.61728,1.42504,1.4z"/>
     <path fill="black"  stroke="black" style="opacity:0.98000004;fill-rule:nonzero;" fill-opacity="0.98039216" id="connector1pin" stroke-width="0.72" d="m34.056,2.81127c-1.56553,0.0004,-2.825,1.28456,-2.825,2.84992l0,5.66536c0,1.56576,1.25947,2.8256,2.825,2.82504l24.1043,-0.008c1.56553,-0.00048,2.83465,-1.26896,2.83465,-2.83464l0,-5.66928c0,-1.56536,-1.26911,-2.83472,-2.83465,-2.83464zm2.83484,4.24064,18.4348,-0.0104c0.782766,-0.00048,1.425,0.64224,1.425,1.42504,0,0.78272,-0.642234,1.4,-1.425,1.4l0,0.0248,-18.4348,0.0104c-0.782766,0.0004,-1.4,-0.64232,-1.4,-1.42496,0,-0.7828,0.617234,-1.42504,1.4,-1.42504z"/>
    </g>
   </g>
  </g>
 </g>
 <g partID="317060">
  <g transform="translate(45.9865,171.082)">
   <g transform="matrix(-4.44089e-16,-1,1,-4.44089e-16,0,0)">
    <g  id="copper0">
     <path fill="black"  stroke="black" style="opacity:0.98000004;fill-rule:nonzero;" fill-opacity="0.98039216" id="connector4pin" stroke-width="0.72" d="m32.9221,50.4333c-1.56553,0.0004,-2.825,1.28456,-2.825,2.84992l0,5.66536c0,1.56576,1.25947,2.8256,2.825,2.82504l24.1043,-0.008c1.56553,-0.00048,2.83465,-1.26896,2.83465,-2.83464l0,-5.66928c0,-1.56536,-1.26911,-2.83472,-2.83465,-2.83464zm2.83484,4.24064,18.4348,-0.0104c0.782766,-0.00048,1.425,0.64224,1.425,1.42504,0,0.78272,-0.642234,1.4,-1.425,1.4l0,0.0248,-18.4348,0.0104c-0.782766,0.0004,-1.4,-0.64232,-1.4,-1.42496,0,-0.7828,0.617234,-1.42504,1.4,-1.42504z"/>
     <path fill="black"  stroke="black" style="opacity:0.98000004;fill-rule:nonzero;" fill-opacity="0.98039216" id="connector2pin" stroke-width="0.72" d="m5.99301,26.2971c-1.56553,0.0004,-2.825,1.28456,-2.825,2.84992l0,5.66536c0,1.56576,1.25947,2.8256,2.825,2.82504l24.1043,-0.008c1.56553,-0.00048,2.83465,-1.26896,2.83465,-2.83464l0,-5.66928c0,-1.56536,-1.26911,-2.83472,-2.83465,-2.83464zm2.83484,4.24064,18.4348,-0.0104c0.782766,-0.00048,1.425,0.64224,1.425,1.42504,0,0.78272,-0.642234,1.4,-1.425,1.4l0,0.0248,-18.4348,0.0104c-0.782766,0.0004,-1.4,-0.64232,-1.4,-1.42496,0,-0.7828,0.617234,-1.42504,1.4,-1.42504z"/>
     <path fill="black"  stroke="black" style="opacity:0.98000004;fill-rule:nonzero;" fill-opacity="0.98039216" id="connector0pin" stroke-width="0.72" d="m51.78,20.1968c-0.0004,-1.56552,-1.28456,-2.82504,-2.84992,-2.82504l-5.66536,0c-1.56576,0,-2.8256,1.25952,-2.82504,2.82504l0.008,24.1043c0.00048,1.56552,1.26896,2.83464,2.83464,2.83464l5.66928,0c1.56536,0,2.83472,-1.26912,2.83464,-2.83464zm-4.24064,2.8348,0.0104,18.4349c0.00048,0.78272,-0.64224,1.42496,-1.42504,1.42496,-0.78272,0,-1.4,-0.64224,-1.4,-1.42496l-0.0248,0,-0.0104,-18.4349c-0.0004,-0.78272,0.64232,-1.4,1.42496,-1.4,0.7828,0,1.42504,0.61728,1.42504,1.4z"/>
     <path fill="black"  stroke="black" style="opacity:0.98000004;fill-rule:nonzero;" fill-opacity="0.98039216" id="connector5pin" stroke-width="0.72" d="m74.4572,20.1968c-0.0004,-1.56552,-1.28456,-2.82504,-2.84992,-2.82504l-5.66536,0c-1.56576,0,-2.8256,1.25952,-2.82504,2.82504l0.008,24.1043c0.00048,1.56552,1.26896,2.83464,2.83464,2.83464l5.66928,0c1.56536,0,2.83472,-1.26912,2.83464,-2.83464zm-4.24064,2.8348,0.0104,18.4349c0.00048,0.78272,-0.64224,1.42496,-1.42504,1.42496,-0.78272,0,-1.4,-0.64224,-1.4,-1.42496l-0.0248,0,-0.0104,-18.4349c-0.0004,-0.78272,0.64232,-1.4,1.42496,-1.4,0.7828,0,1.42504,0.61728,1.42504,1.4z"/>
     <path fill="black"  stroke="black" style="opacity:0.98000004;fill-rule:nonzero;" fill-opacity="0.98039216" id="connector1pin" stroke-width="0.72" d="m34.056,2.81127c-1.56553,0.0004,-2.825,1.28456,-2.825,2.84992l0,5.66536c0,1.56576,1.25947,2.8256,2.825,2.82504l24.1043,-0.008c1.56553,-0.00048,2.83465,-1.26896,2.83465,-2.83464l0,-5.66928c0,-1.56536,-1.26911,-2.83472,-2.83465,-2.83464zm2.83484,4.24064,18.4348,-0.0104c0.782766,-0.00048,1.425,0.64224,1.425,1.42504,0,0.78272,-0.642234,1.4,-1.425,1.4l0,0.0248,-18.4348,0.0104c-0.782766,0.0004,-1.4,-0.64232,-1.4,-1.42496,0,-0.7828,0.617234,-1.42504,1.4,-1.42504z"/>
    </g>
   </g>
  </g>
 </g>
 <g partID="1912310">
  <g transform="translate(112.715,54.5016)">
   <g transform="matrix(1, 0, 0, 1, -167.25, -382.666)">
    <g id="copper0">
     <g>
      <g transform="matrix(1, 0, 0, 1, 0, -2141.18)">
       <g id="0.3.0.0">
        <path fill="black" stroke="black" style="opacity:0.98000004;fill-rule:nonzero;" fill-opacity="1" id="connector0pin" stroke-width="0.72" d="m174.05,2523.85c-3.769,0,-6.8,3.056,-6.8,6.82504l0,0.6c0,3.76896,3.031,6.8,6.8,6.8l14.725,0c3.769,0,6.825,-3.03104,6.825,-6.8l0,-0.6c0,-3.76904,-3.056,-6.82504,-6.825,-6.82504l-14.725,0zm0.575,3.95c1.56553,0,2.825,1.28728,2.825,2.87504,0,1.58768,-1.25947,2.87496,-2.825,2.87496,-1.56553,0,-2.85,-1.28728,-2.85,-2.87496,0,-1.58776,1.28447,-2.87504,2.85,-2.87504zm14.15,0c1.56553,0,2.85,1.28728,2.85,2.87504,0,1.58768,-1.28447,2.87496,-2.85,2.87496,-1.56553,0,-2.825,-1.28728,-2.825,-2.87496,0,-1.58776,1.25947,-2.87504,2.825,-2.87504z"/>
       </g>
      </g>
     </g>
    </g>
   </g>
  </g>
 </g>
 <g partID="1912010">
  <g transform="translate(112.715,11.2728)">
   <g transform="matrix(1, 0, 0, 1, -167.25, -382.666)">
    <g id="copper0">
     <g>
      <g transform="matrix(1, 0, 0, 1, 0, -2141.18)">
       <g id="0.3.0.0">
        <path fill="black" stroke="black" style="opacity:0.98000004;fill-rule:nonzero;" fill-opacity="1" id="connector0pin" stroke-width="0.72" d="m174.05,2523.85c-3.769,0,-6.8,3.056,-6.8,6.82504l0,0.6c0,3.76896,3.031,6.8,6.8,6.8l14.725,0c3.769,0,6.825,-3.03104,6.825,-6.8l0,-0.6c0,-3.76904,-3.056,-6.82504,-6.825,-6.82504l-14.725,0zm0.575,3.95c1.56553,0,2.825,1.28728,2.825,2.87504,0,1.58768,-1.25947,2.87496,-2.825,2.87496,-1.56553,0,-2.85,-1.28728,-2.85,-2.87496,0,-1.58776,1.28447,-2.87504,2.85,-2.87504zm14.15,0c1.56553,0,2.85,1.28728,2.85,2.87504,0,1.58768,-1.28447,2.87496,-2.85,2.87496,-1.56553,0,-2.825,-1.28728,-2.825,-2.87496,0,-1.58776,1.25947,-2.87504,2.825,-2.87504z"/>
       </g>
      </g>
     </g>
    </g>
   </g>
  </g>
 </g>
 <g partID="1911760">
  <g transform="translate(112.006,31.1152)">
   <g transform="matrix(1, 0, 0, 1, -167.25, -382.666)">
    <g id="copper0">
     <g>
      <g transform="matrix(1, 0, 0, 1, 0, -2141.18)">
       <g id="0.3.0.0">
        <path fill="black" stroke="black" style="opacity:0.98000004;fill-rule:nonzero;" fill-opacity="1" id="connector0pin" stroke-width="0.72" d="m174.05,2523.85c-3.769,0,-6.8,3.056,-6.8,6.82504l0,0.6c0,3.76896,3.031,6.8,6.8,6.8l14.725,0c3.769,0,6.825,-3.03104,6.825,-6.8l0,-0.6c0,-3.76904,-3.056,-6.82504,-6.825,-6.82504l-14.725,0zm0.575,3.95c1.56553,0,2.825,1.28728,2.825,2.87504,0,1.58768,-1.25947,2.87496,-2.825,2.87496,-1.56553,0,-2.85,-1.28728,-2.85,-2.87496,0,-1.58776,1.28447,-2.87504,2.85,-2.87504zm14.15,0c1.56553,0,2.85,1.28728,2.85,2.87504,0,1.58768,-1.28447,2.87496,-2.85,2.87496,-1.56553,0,-2.825,-1.28728,-2.825,-2.87496,0,-1.58776,1.25947,-2.87504,2.825,-2.87504z"/>
       </g>
      </g>
     </g>
    </g>
   </g>
  </g>
 </g>
 <g partID="316410">
  <g transform="translate(112.006,121.824)">
   <g transform="matrix(1, 0, 0, 1, -167.25, -382.666)">
    <g id="copper0">
     <g>
      <g transform="matrix(1, 0, 0, 1, 0, -2141.18)">
       <g id="0.3.0.0">
        <path fill="black" stroke="black" style="opacity:0.98000004;fill-rule:nonzero;" fill-opacity="1" id="connector0pin" stroke-width="0.72" d="m174.05,2523.85c-3.769,0,-6.8,3.056,-6.8,6.82504l0,0.6c0,3.76896,3.031,6.8,6.8,6.8l14.725,0c3.769,0,6.825,-3.03104,6.825,-6.8l0,-0.6c0,-3.76904,-3.056,-6.82504,-6.825,-6.82504l-14.725,0zm0.575,3.95c1.56553,0,2.825,1.28728,2.825,2.87504,0,1.58768,-1.25947,2.87496,-2.825,2.87496,-1.56553,0,-2.85,-1.28728,-2.85,-2.87496,0,-1.58776,1.28447,-2.87504,2.85,-2.87504zm14.15,0c1.56553,0,2.85,1.28728,2.85,2.87504,0,1.58768,-1.28447,2.87496,-2.85,2.87496,-1.56553,0,-2.825,-1.28728,-2.825,-2.87496,0,-1.58776,1.25947,-2.87504,2.825,-2.87504z"/>
       </g>
      </g>
     </g>
    </g>
   </g>
  </g>
 </g>
 <g partID="316440">
  <g transform="translate(112.006,99.1472)">
   <g transform="matrix(1, 0, 0, 1, -167.25, -382.666)">
    <g id="copper0">
     <g>
      <g transform="matrix(1, 0, 0, 1, 0, -2141.18)">
       <g id="0.3.0.0">
        <path fill="black" stroke="black" style="opacity:0.98000004;fill-rule:nonzero;" fill-opacity="1" id="connector0pin" stroke-width="0.72" d="m174.05,2523.85c-3.769,0,-6.8,3.056,-6.8,6.82504l0,0.6c0,3.76896,3.031,6.8,6.8,6.8l14.725,0c3.769,0,6.825,-3.03104,6.825,-6.8l0,-0.6c0,-3.76904,-3.056,-6.82504,-6.825,-6.82504l-14.725,0zm0.575,3.95c1.56553,0,2.825,1.28728,2.825,2.87504,0,1.58768,-1.25947,2.87496,-2.825,2.87496,-1.56553,0,-2.85,-1.28728,-2.85,-2.87496,0,-1.58776,1.28447,-2.87504,2.85,-2.87504zm14.15,0c1.56553,0,2.85,1.28728,2.85,2.87504,0,1.58768,-1.28447,2.87496,-2.85,2.87496,-1.56553,0,-2.825,-1.28728,-2.825,-2.87496,0,-1.58776,1.25947,-2.87504,2.825,-2.87504z"/>
       </g>
      </g>
     </g>
    </g>
   </g>
  </g>
 </g>
 <g partID="316470">
  <g transform="translate(112.006,190.565)">
   <g transform="matrix(1, 0, 0, 1, -167.25, -382.666)">
    <g id="copper0">
     <g>
      <g transform="matrix(1, 0, 0, 1, 0, -2141.18)">
       <g id="0.3.0.0">
        <path fill="black" stroke="black" style="opacity:0.98000004;fill-rule:nonzero;" fill-opacity="1" id="connector0pin" stroke-width="0.72" d="m174.05,2523.85c-3.769,0,-6.8,3.056,-6.8,6.82504l0,0.6c0,3.76896,3.031,6.8,6.8,6.8l14.725,0c3.769,0,6.825,-3.03104,6.825,-6.8l0,-0.6c0,-3.76904,-3.056,-6.82504,-6.825,-6.82504l-14.725,0zm0.575,3.95c1.56553,0,2.825,1.28728,2.825,2.87504,0,1.58768,-1.25947,2.87496,-2.825,2.87496,-1.56553,0,-2.85,-1.28728,-2.85,-2.87496,0,-1.58776,1.28447,-2.87504,2.85,-2.87504zm14.15,0c1.56553,0,2.85,1.28728,2.85,2.87504,0,1.58768,-1.28447,2.87496,-2.85,2.87496,-1.56553,0,-2.825,-1.28728,-2.825,-2.87496,0,-1.58776,1.25947,-2.87504,2.825,-2.87504z"/>
       </g>
      </g>
     </g>
    </g>
   </g>
  </g>
 </g>
 <g partID="316500">
  <g transform="translate(112.006,167.887)">
   <g transform="matrix(1, 0, 0, 1, -167.25, -382.666)">
    <g id="copper0">
     <g>
      <g transform="matrix(1, 0, 0, 1, 0, -2141.18)">
       <g id="0.3.0.0">
        <path fill="black" stroke="black" style="opacity:0.98000004;fill-rule:nonzero;" fill-opacity="1" id="connector0pin" stroke-width="0.72" d="m174.05,2523.85c-3.769,0,-6.8,3.056,-6.8,6.82504l0,0.6c0,3.76896,3.031,6.8,6.8,6.8l14.725,0c3.769,0,6.825,-3.03104,6.825,-6.8l0,-0.6c0,-3.76904,-3.056,-6.82504,-6.825,-6.82504l-14.725,0zm0.575,3.95c1.56553,0,2.825,1.28728,2.825,2.87504,0,1.58768,-1.25947,2.87496,-2.825,2.87496,-1.56553,0,-2.85,-1.28728,-2.85,-2.87496,0,-1.58776,1.28447,-2.87504,2.85,-2.87504zm14.15,0c1.56553,0,2.85,1.28728,2.85,2.87504,0,1.58768,-1.28447,2.87496,-2.85,2.87496,-1.56553,0,-2.825,-1.28728,-2.825,-2.87496,0,-1.58776,1.25947,-2.87504,2.825,-2.87504z"/>
       </g>
      </g>
     </g>
    </g>
   </g>
  </g>
 </g>
 <g partID="316530">
  <g transform="translate(112.006,144.502)">
   <g transform="matrix(1, 0, 0, 1, -167.25, -382.666)">
    <g id="copper0">
     <g>
      <g transform="matrix(1, 0, 0, 1, 0, -2141.18)">
       <g id="0.3.0.0">
        <path fill="black" stroke="black" style="opacity:0.98000004;fill-rule:nonzero;" fill-opacity="1" id="connector0pin" stroke-width="0.72" d="m174.05,2523.85c-3.769,0,-6.8,3.056,-6.8,6.82504l0,0.6c0,3.76896,3.031,6.8,6.8,6.8l14.725,0c3.769,0,6.825,-3.03104,6.825,-6.8l0,-0.6c0,-3.76904,-3.056,-6.82504,-6.825,-6.82504l-14.725,0zm0.575,3.95c1.56553,0,2.825,1.28728,2.825,2.87504,0,1.58768,-1.25947,2.87496,-2.825,2.87496,-1.56553,0,-2.85,-1.28728,-2.85,-2.87496,0,-1.58776,1.28447,-2.87504,2.85,-2.87504zm14.15,0c1.56553,0,2.85,1.28728,2.85,2.87504,0,1.58768,-1.28447,2.87496,-2.85,2.87496,-1.56553,0,-2.825,-1.28728,-2.825,-2.87496,0,-1.58776,1.25947,-2.87504,2.825,-2.87504z"/>
       </g>
      </g>
     </g>
    </g>
   </g>
  </g>
 </g>
 <g partID="316560">
  <g transform="translate(112.006,77.1784)">
   <g transform="matrix(1, 0, 0, 1, -167.25, -382.666)">
    <g id="copper0">
     <g>
      <g transform="matrix(1, 0, 0, 1, 0, -2141.18)">
       <g id="0.3.0.0">
        <path fill="black" stroke="black" style="opacity:0.98000004;fill-rule:nonzero;" fill-opacity="1" id="connector0pin" stroke-width="0.72" d="m174.05,2523.85c-3.769,0,-6.8,3.056,-6.8,6.82504l0,0.6c0,3.76896,3.031,6.8,6.8,6.8l14.725,0c3.769,0,6.825,-3.03104,6.825,-6.8l0,-0.6c0,-3.76904,-3.056,-6.82504,-6.825,-6.82504l-14.725,0zm0.575,3.95c1.56553,0,2.825,1.28728,2.825,2.87504,0,1.58768,-1.25947,2.87496,-2.825,2.87496,-1.56553,0,-2.85,-1.28728,-2.85,-2.87496,0,-1.58776,1.28447,-2.87504,2.85,-2.87504zm14.15,0c1.56553,0,2.85,1.28728,2.85,2.87504,0,1.58768,-1.28447,2.87496,-2.85,2.87496,-1.56553,0,-2.825,-1.28728,-2.825,-2.87496,0,-1.58776,1.25947,-2.87504,2.825,-2.87504z"/>
       </g>
      </g>
     </g>
    </g>
   </g>
  </g>
 </g>
</svg>
