<?xml version="1.0" encoding="UTF-8" standalone="no"?>
<!-- Created with Fritzing (http://www.fritzing.org/) -->

<svg
   xmlns:dc="http://purl.org/dc/elements/1.1/"
   xmlns:cc="http://creativecommons.org/ns#"
   xmlns:rdf="http://www.w3.org/1999/02/22-rdf-syntax-ns#"
   xmlns:svg="http://www.w3.org/2000/svg"
   xmlns="http://www.w3.org/2000/svg"
   xmlns:sodipodi="http://sodipodi.sourceforge.net/DTD/sodipodi-0.dtd"
   xmlns:inkscape="http://www.inkscape.org/namespaces/inkscape"
   width="1.61957in"
   x="0in"
   version="1.2"
   y="0in"
   height="1.49474in"
   viewBox="0 0 116.609 107.621"
   id="svg3805"
   inkscape:version="0.48.3.1 r9886"
   sodipodi:docname="denne_Svietenie_rele_D_stad_up_etch_copper_bottom_2.pdf">
  <metadata
     id="metadata3962">
    <rdf:RDF>
      <cc:Work
         rdf:about="">
        <dc:format>image/svg+xml</dc:format>
        <dc:type
           rdf:resource="http://purl.org/dc/dcmitype/StillImage" />
        <dc:title></dc:title>
      </cc:Work>
    </rdf:RDF>
  </metadata>
  <defs
     id="defs3960" />
  <sodipodi:namedview
     pagecolor="#ffffff"
     bordercolor="#666666"
     borderopacity="1"
     objecttolerance="10"
     gridtolerance="10"
     guidetolerance="10"
     inkscape:pageopacity="0"
     inkscape:pageshadow="2"
     inkscape:window-width="1215"
     inkscape:window-height="776"
     id="namedview3958"
     showgrid="false"
     inkscape:zoom="2.2188921"
     inkscape:cx="108.61403"
     inkscape:cy="67.28602"
     inkscape:window-x="65"
     inkscape:window-y="24"
     inkscape:window-maximized="1"
     inkscape:current-layer="svg3805" />
  <path
     style="fill:#000000;stroke:none;stroke-width:1px;stroke-linecap:butt;stroke-linejoin:miter;stroke-opacity:1;fill-opacity:1"
     d="M 111.375 55.1875 L 111.375 64.09375 L 12.28125 64.09375 L 12.28125 64.25 L 12.28125 82.84375 L 103.59375 82.84375 L 120.3125 73.1875 L 143.875 73.1875 L 143.875 55.1875 L 111.375 55.1875 z M 122.21875 61.65625 C 124.18349 61.65625 125.78125 63.25401 125.78125 65.21875 C 125.78125 67.18349 124.18349 68.78125 122.21875 68.78125 C 120.25401 68.78125 118.65625 67.18349 118.65625 65.21875 C 118.65625 63.25401 120.25401 61.65625 122.21875 61.65625 z M 50.46875 71.40625 L 73.5 71.40625 C 74.478458 71.40565 75.28125 72.209 75.28125 73.1875 C 75.28125 74.1659 74.478458 74.9375 73.5 74.9375 L 73.5 74.96875 L 50.46875 74.96875 C 49.490292 74.96925 48.71875 74.1658 48.71875 73.1875 C 48.71875 72.209 49.490292 71.40625 50.46875 71.40625 z "
     transform="matrix(0.79999969,0,0,0.79999969,0,-1.1747267e-4)"
     id="path4988" />
  <path
     style="fill:#000000;fill-opacity:1;stroke:none"
     d="m 12.330997,84.318666 0,35.462584 82.637753,0 0,13.07834 48.42824,0 0,-24.23459 -101.837995,0 -0.09025,-24.306334 z M 22.0625,98.8125 c 1.540875,0 2.78125,1.24037 2.78125,2.78125 0,1.54088 -1.240375,2.78125 -2.78125,2.78125 -1.540875,0 -2.78125,-1.24037 -2.78125,-2.78125 0,-1.54088 1.240375,-2.78125 2.78125,-2.78125 z m 100.15625,16 c 1.96474,0 3.5625,1.59776 3.5625,3.5625 0,1.96474 -1.59776,3.5625 -3.5625,3.5625 -1.96474,0 -3.5625,-1.59776 -3.5625,-3.5625 0,-1.96474 1.59776,-3.5625 3.5625,-3.5625 z"
     transform="matrix(0.79999969,0,0,0.79999969,0,-1.1747267e-4)"
     id="path5003"
     inkscape:connector-curvature="0"
     sodipodi:nodetypes="cccccccccssssssssss" />
  <path
     style="fill:#000000;fill-opacity:1;stroke:none"
     d="m 121.46875,89.90625 -8.0625,4.65625 -40.84375,-0.03125 0,12.82417 70.875,0 0,-17.44917 z m 0.75,7.1875 c 1.96474,0 3.5625,1.59776 3.5625,3.5625 0,1.96474 -1.59776,3.5625 -3.5625,3.5625 -1.96474,0 -3.5625,-1.59776 -3.5625,-3.5625 0,-1.96474 1.59776,-3.5625 3.5625,-3.5625 z M 88.5,98.8125 c 1.540875,0 2.78125,1.24037 2.78125,2.78125 0,1.54088 -1.240375,2.78125 -2.78125,2.78125 -1.540875,0 -2.78125,-1.24037 -2.78125,-2.78125 0,-1.54088 1.240375,-2.78125 2.78125,-2.78125 z"
     transform="matrix(0.79999969,0,0,0.79999969,0,-1.1747267e-4)"
     id="path5000"
     inkscape:connector-curvature="0"
     sodipodi:nodetypes="cccccccssssssssss" />
  <path
     style="fill:#000000;stroke:none;stroke-width:1px;stroke-linecap:butt;stroke-linejoin:miter;stroke-opacity:1;fill-opacity:1"
     d="M 120.625 74.125 L 103.03125 84.3125 L 42.6875 84.3125 L 42.6875 107.4375 L 71.53125 107.4375 L 71.53125 93.75 L 113.59375 93.75 L 121.3125 89.28125 C 128.83556 89.28125 143.59375 89.3125 143.59375 89.3125 L 143.5625 74.125 L 120.625 74.125 z M 122.21875 79.375 C 124.18349 79.375 125.78125 80.97276 125.78125 82.9375 C 125.78125 84.90224 124.18349 86.5 122.21875 86.5 C 120.25401 86.5 118.65625 84.90224 118.65625 82.9375 C 118.65625 80.97276 120.25401 79.375 122.21875 79.375 z M 55.71875 98.8125 C 57.259625 98.8125 58.5 100.05287 58.5 101.59375 C 58.5 103.13463 57.259625 104.375 55.71875 104.375 C 54.177875 104.375 52.9375 103.13463 52.9375 101.59375 C 52.9375 100.05287 54.177875 98.8125 55.71875 98.8125 z "
     transform="matrix(0.79999969,0,0,0.79999969,0,-1.1747267e-4)"
     id="path4995" />
  <path
     style="fill:#000000;fill-opacity:1;stroke:none"
     d="m 78.0625,22.800149 -0.0546,40.512351 32.08585,0 0,-9.34375 33.46875,0 0,-15.65625 -34.25,0 0,-15.512351 z M 91.75,30.09375 c 0.9785,0 1.78125,0.7716 1.78125,1.75 l 0.03125,23.0625 c 6e-4,0.9784 -0.80275,1.78125 -1.78125,1.78125 -0.9784,0 -1.75,-0.80285 -1.75,-1.78125 l -0.03125,0 -0.03125,-23.0625 c -5e-4,-0.9784 0.80295,-1.75 1.78125,-1.75 z m 30.46875,13.84375 c 1.96474,0 3.5625,1.59776 3.5625,3.5625 0,1.96474 -1.59776,3.5625 -3.5625,3.5625 -1.96474,0 -3.5625,-1.59776 -3.5625,-3.5625 0,-1.96474 1.59776,-3.5625 3.5625,-3.5625 z"
     transform="matrix(0.79999969,0,0,0.79999969,0,-1.1747267e-4)"
     id="path4961"
     inkscape:connector-curvature="0"
     sodipodi:nodetypes="cccccccccsccscccssssss" />
  <path
     style="fill:#000000;fill-opacity:1;stroke:#000000;stroke-width:1px;stroke-linecap:butt;stroke-linejoin:miter;stroke-opacity:1"
     d="m 76.637351,23.3125 -27.074851,0.15625 0,39.448493 27.074851,0 z M 63.40625,30.09375 c 0.9785,0 1.78125,0.7716 1.78125,1.75 l 0,23.0625 c 6e-4,0.9784 -0.80275,1.78125 -1.78125,1.78125 -0.9784,0 -1.75,-0.80285 -1.75,-1.78125 l -0.03125,0 0,-23.0625 c -5e-4,-0.9784 0.80295,-1.75 1.78125,-1.75 z"
     transform="matrix(0.79999969,0,0,0.79999969,0,-1.1747267e-4)"
     id="path4955"
     inkscape:connector-curvature="0"
     sodipodi:nodetypes="cccccsscscccs" />
  <path
     style="fill:#000000;fill-opacity:1;stroke:none"
     d="m 2.03125,2.46875 0,130.46875 91.9375,0 0,-0.4375 0,-11.71875 -82.46875,0 0,-57.346354 36.71875,0 0,-40.517653 -14.1875,0 0,-20.448493 z m 37.8125,38.75 C 40.822208,41.21815 41.625,42.0215 41.625,43 c 0,0.9784 -0.802792,1.75 -1.78125,1.75 l 0,0.03125 -23.03125,0.03125 c -0.978458,5e-4 -1.75,-0.80295 -1.75,-1.78125 0,-0.9785 0.771542,-1.78125 1.75,-1.78125 z M 22.0625,123.625 c 1.540875,0 2.78125,1.24037 2.78125,2.78125 0,1.54088 -1.240375,2.78125 -2.78125,2.78125 -1.540875,0 -2.78125,-1.24037 -2.78125,-2.78125 0,-1.54088 1.240375,-2.78125 2.78125,-2.78125 z m 33.65625,0 c 1.540875,0 2.78125,1.24037 2.78125,2.78125 0,1.54088 -1.240375,2.78125 -2.78125,2.78125 -1.540875,0 -2.78125,-1.24037 -2.78125,-2.78125 0,-1.54088 1.240375,-2.78125 2.78125,-2.78125 z m 32.78125,0 c 1.540875,0 2.78125,1.24037 2.78125,2.78125 0,1.54088 -1.240375,2.78125 -2.78125,2.78125 -1.540875,0 -2.78125,-1.24037 -2.78125,-2.78125 0,-1.54088 1.240375,-2.78125 2.78125,-2.78125 z"
     transform="matrix(0.79999969,0,0,0.79999969,0,-1.1747267e-4)"
     id="path4845"
     inkscape:connector-curvature="0"
     sodipodi:nodetypes="cccccccccccccscccsccsssssssssssssss" />
  <path
     style="fill:#000000;fill-opacity:1;stroke:none"
     d="M 35.1875 2.46875 L 35.1875 2.53125 L 35.1875 21.84375 L 35.6875 21.84375 L 110.59375 21.84375 L 110.59375 36.96875 L 143.71875 36.96875 L 143.71875 2.5625 L 35.1875 2.46875 z M 51.875 11.875 L 74.90625 11.875 C 75.884708 11.8744 76.6875 12.67775 76.6875 13.65625 C 76.6875 14.63465 75.884708 15.40625 74.90625 15.40625 L 74.90625 15.4375 L 51.875 15.4375 C 50.896542 15.438 50.125 14.63455 50.125 13.65625 C 50.125 12.67775 50.896542 11.875 51.875 11.875 z M 122.21875 26.21875 C 124.18349 26.21875 125.78125 27.81651 125.78125 29.78125 C 125.78125 31.74599 124.18349 33.34375 122.21875 33.34375 C 120.25401 33.34375 118.65625 31.74599 118.65625 29.78125 C 118.65625 27.81651 120.25401 26.21875 122.21875 26.21875 z "
     transform="matrix(0.79999969,0,0,0.79999969,0,-1.1747267e-4)"
     id="path4847" />
  <g
     partID="77300"
     id="g3807"
     style="stroke:#000000;stroke-opacity:1">
    <g
       id="board"
       style="stroke:#000000;stroke-opacity:1">
      <rect
         width="116.033"
         x="0.576"
         y="0.576"
         height="107.045"
         id="boardoutline"
         style="stroke:#000000;stroke-opacity:1"
         stroke-width="0.5"
         stroke="black"
         fill-opacity="0.5"
         fill="none" />
    </g>
  </g>
</svg>
