<?xml version='1.0' encoding='UTF-8' standalone='no'?>
<!-- Created with Fritzing (http://www.fritzing.org/) -->
<svg xmlns="http://www.w3.org/2000/svg" width="1.35827in" x="0in" version="1.2" y="0in"  height="2.3622in" viewBox="0 0 97.7953 170.079" baseProfile="tiny" xmlns:svg="http://www.w3.org/2000/svg">
 <g transform="matrix(-1, 0, 0, 1, 97.7953, 0)">
  <g partID="12040">
   <g id="board">
    <rect width="97.2193" x="0.288" y="0.288" fill="none" height="169.503" stroke="black" fill-opacity="0.5" id="boardoutline" stroke-width="0.5"/>
   </g>
  </g>
  <g partID="60110">
   <g transform="translate(3.94248,8.0096)">
    <g transform="matrix(1, 0, 0, 1, 0, -795.118)">
     <g id="copper0">
      <g>
       <g transform="matrix(1, 0, 0, 1, 0, 795.118)">
        <g id="0.3.1.0">
         <path stroke-opacity="1" fill="black" stroke="black" style="opacity:0.98000004;stroke-miterlimit:4;stroke-dasharray:none" id="connector2pin" stroke-width="3.55465" d="m10.4882,23.3858a3.25984,3.25984,0,1,1,-6.51969,0,3.25984,3.25984,0,1,1,6.51969,0z"/>
        </g>
       </g>
       <g transform="matrix(1, 0, 0, 1, 5.81102, 812.126)">
        <g id="0.3.1.1">
         <path stroke-opacity="1" fill="black" stroke="black" style="opacity:0.98000004;stroke-miterlimit:4;stroke-dasharray:none" id="path3782-7" stroke-width="3.55465" d="m10.4882,23.3858a3.25984,3.25984,0,1,1,-6.51969,0,3.25984,3.25984,0,1,1,6.51969,0z"/>
        </g>
       </g>
       <g transform="matrix(1, 0, 0, 1, 40.252, 812.126)">
        <g id="0.3.1.2">
         <path stroke-opacity="1" fill="black" stroke="black" style="opacity:0.98000004;stroke-miterlimit:4;stroke-dasharray:none" id="path3782-7-5" stroke-width="3.55465" d="m10.4882,23.3858a3.25984,3.25984,0,1,1,-6.51969,0,3.25984,3.25984,0,1,1,6.51969,0z"/>
        </g>
       </g>
       <g transform="matrix(1, 0, 0, 1, 5.81102, 812.126)">
        <g id="0.3.1.3">
         <path stroke-opacity="1" fill="black" stroke="black" style="opacity:0.98000004;stroke-miterlimit:4;stroke-dasharray:none" id="connector1pin" stroke-width="3.55465" d="m10.4882,23.3858a3.25984,3.25984,0,1,1,-6.51969,0,3.25984,3.25984,0,1,1,6.51969,0z"/>
        </g>
       </g>
       <g transform="matrix(1, 0, 0, 1, 40.252, 812.126)">
        <g id="0.3.1.4">
         <path stroke-opacity="1" fill="black" stroke="black" style="opacity:0.98000004;stroke-miterlimit:4;stroke-dasharray:none" id="connector0pin" stroke-width="3.55465" d="m10.4882,23.3858a3.25984,3.25984,0,1,1,-6.51969,0,3.25984,3.25984,0,1,1,6.51969,0z"/>
        </g>
       </g>
       <g transform="matrix(1, 0, 0, -1, 5.81102, 824.882)">
        <g id="0.3.1.5">
         <path stroke-opacity="1" fill="black" stroke="black" style="opacity:0.98000004;stroke-miterlimit:4;stroke-dasharray:none" id="connector4pin" stroke-width="3.55465" d="m10.4882,23.3858a3.25984,3.25984,0,1,1,-6.51969,0,3.25984,3.25984,0,1,1,6.51969,0z"/>
        </g>
       </g>
       <g transform="matrix(1, 0, 0, -1, 40.252, 824.882)">
        <g id="0.3.1.6">
         <path stroke-opacity="1" fill="black" stroke="black" style="opacity:0.98000004;stroke-miterlimit:4;stroke-dasharray:none" id="connector5pin" stroke-width="3.55465" d="m10.4882,23.3858a3.25984,3.25984,0,1,1,-6.51969,0,3.25984,3.25984,0,1,1,6.51969,0z"/>
        </g>
       </g>
      </g>
     </g>
    </g>
   </g>
  </g>
  <g partID="60090">
   <g transform="translate(3.9425,61.868)">
    <g transform="matrix(1,-6.66134e-16,6.66134e-16,1,0,0)">
     <g transform="matrix(1, 0, 0, 1, 0, -795.118)">
      <g id="copper0">
       <g>
        <g transform="matrix(1, 0, 0, 1, 0, 795.118)">
         <g id="0.3.1.0">
          <path stroke-opacity="1" fill="black" stroke="black" style="opacity:0.98000004;stroke-miterlimit:4;stroke-dasharray:none" id="connector2pin" stroke-width="3.55465" d="m10.4882,23.3858a3.25984,3.25984,0,1,1,-6.51969,0,3.25984,3.25984,0,1,1,6.51969,0z"/>
         </g>
        </g>
        <g transform="matrix(1, 0, 0, 1, 5.81102, 812.126)">
         <g id="0.3.1.1">
          <path stroke-opacity="1" fill="black" stroke="black" style="opacity:0.98000004;stroke-miterlimit:4;stroke-dasharray:none" id="path3782-7" stroke-width="3.55465" d="m10.4882,23.3858a3.25984,3.25984,0,1,1,-6.51969,0,3.25984,3.25984,0,1,1,6.51969,0z"/>
         </g>
        </g>
        <g transform="matrix(1, 0, 0, 1, 40.252, 812.126)">
         <g id="0.3.1.2">
          <path stroke-opacity="1" fill="black" stroke="black" style="opacity:0.98000004;stroke-miterlimit:4;stroke-dasharray:none" id="path3782-7-5" stroke-width="3.55465" d="m10.4882,23.3858a3.25984,3.25984,0,1,1,-6.51969,0,3.25984,3.25984,0,1,1,6.51969,0z"/>
         </g>
        </g>
        <g transform="matrix(1, 0, 0, 1, 5.81102, 812.126)">
         <g id="0.3.1.3">
          <path stroke-opacity="1" fill="black" stroke="black" style="opacity:0.98000004;stroke-miterlimit:4;stroke-dasharray:none" id="connector1pin" stroke-width="3.55465" d="m10.4882,23.3858a3.25984,3.25984,0,1,1,-6.51969,0,3.25984,3.25984,0,1,1,6.51969,0z"/>
         </g>
        </g>
        <g transform="matrix(1, 0, 0, 1, 40.252, 812.126)">
         <g id="0.3.1.4">
          <path stroke-opacity="1" fill="black" stroke="black" style="opacity:0.98000004;stroke-miterlimit:4;stroke-dasharray:none" id="connector0pin" stroke-width="3.55465" d="m10.4882,23.3858a3.25984,3.25984,0,1,1,-6.51969,0,3.25984,3.25984,0,1,1,6.51969,0z"/>
         </g>
        </g>
        <g transform="matrix(1, 0, 0, -1, 5.81102, 824.882)">
         <g id="0.3.1.5">
          <path stroke-opacity="1" fill="black" stroke="black" style="opacity:0.98000004;stroke-miterlimit:4;stroke-dasharray:none" id="connector4pin" stroke-width="3.55465" d="m10.4882,23.3858a3.25984,3.25984,0,1,1,-6.51969,0,3.25984,3.25984,0,1,1,6.51969,0z"/>
         </g>
        </g>
        <g transform="matrix(1, 0, 0, -1, 40.252, 824.882)">
         <g id="0.3.1.6">
          <path stroke-opacity="1" fill="black" stroke="black" style="opacity:0.98000004;stroke-miterlimit:4;stroke-dasharray:none" id="connector5pin" stroke-width="3.55465" d="m10.4882,23.3858a3.25984,3.25984,0,1,1,-6.51969,0,3.25984,3.25984,0,1,1,6.51969,0z"/>
         </g>
        </g>
       </g>
      </g>
     </g>
    </g>
   </g>
  </g>
  <g partID="60060">
   <g transform="translate(3.94248,117.853)">
    <g transform="matrix(1, 0, 0, 1, 0, -795.118)">
     <g id="copper0">
      <g>
       <g transform="matrix(1, 0, 0, 1, 0, 795.118)">
        <g id="0.3.1.0">
         <path stroke-opacity="1" fill="black" stroke="black" style="opacity:0.98000004;stroke-miterlimit:4;stroke-dasharray:none" id="connector2pin" stroke-width="3.55465" d="m10.4882,23.3858a3.25984,3.25984,0,1,1,-6.51969,0,3.25984,3.25984,0,1,1,6.51969,0z"/>
        </g>
       </g>
       <g transform="matrix(1, 0, 0, 1, 5.81102, 812.126)">
        <g id="0.3.1.1">
         <path stroke-opacity="1" fill="black" stroke="black" style="opacity:0.98000004;stroke-miterlimit:4;stroke-dasharray:none" id="path3782-7" stroke-width="3.55465" d="m10.4882,23.3858a3.25984,3.25984,0,1,1,-6.51969,0,3.25984,3.25984,0,1,1,6.51969,0z"/>
        </g>
       </g>
       <g transform="matrix(1, 0, 0, 1, 40.252, 812.126)">
        <g id="0.3.1.2">
         <path stroke-opacity="1" fill="black" stroke="black" style="opacity:0.98000004;stroke-miterlimit:4;stroke-dasharray:none" id="path3782-7-5" stroke-width="3.55465" d="m10.4882,23.3858a3.25984,3.25984,0,1,1,-6.51969,0,3.25984,3.25984,0,1,1,6.51969,0z"/>
        </g>
       </g>
       <g transform="matrix(1, 0, 0, 1, 5.81102, 812.126)">
        <g id="0.3.1.3">
         <path stroke-opacity="1" fill="black" stroke="black" style="opacity:0.98000004;stroke-miterlimit:4;stroke-dasharray:none" id="connector1pin" stroke-width="3.55465" d="m10.4882,23.3858a3.25984,3.25984,0,1,1,-6.51969,0,3.25984,3.25984,0,1,1,6.51969,0z"/>
        </g>
       </g>
       <g transform="matrix(1, 0, 0, 1, 40.252, 812.126)">
        <g id="0.3.1.4">
         <path stroke-opacity="1" fill="black" stroke="black" style="opacity:0.98000004;stroke-miterlimit:4;stroke-dasharray:none" id="connector0pin" stroke-width="3.55465" d="m10.4882,23.3858a3.25984,3.25984,0,1,1,-6.51969,0,3.25984,3.25984,0,1,1,6.51969,0z"/>
        </g>
       </g>
       <g transform="matrix(1, 0, 0, -1, 5.81102, 824.882)">
        <g id="0.3.1.5">
         <path stroke-opacity="1" fill="black" stroke="black" style="opacity:0.98000004;stroke-miterlimit:4;stroke-dasharray:none" id="connector4pin" stroke-width="3.55465" d="m10.4882,23.3858a3.25984,3.25984,0,1,1,-6.51969,0,3.25984,3.25984,0,1,1,6.51969,0z"/>
        </g>
       </g>
       <g transform="matrix(1, 0, 0, -1, 40.252, 824.882)">
        <g id="0.3.1.6">
         <path stroke-opacity="1" fill="black" stroke="black" style="opacity:0.98000004;stroke-miterlimit:4;stroke-dasharray:none" id="connector5pin" stroke-width="3.55465" d="m10.4882,23.3858a3.25984,3.25984,0,1,1,-6.51969,0,3.25984,3.25984,0,1,1,6.51969,0z"/>
        </g>
       </g>
      </g>
     </g>
    </g>
   </g>
  </g>
  <g partID="283830">
   <g transform="translate(68.7124,117.118)">
    <g transform="matrix(1, 0, 0, 1, -167.25, -382.666)">
     <g id="copper0">
      <g>
       <g transform="matrix(1, 0, 0, 1, 0, -2141.18)">
        <g id="0.3.0.0">
         <path fill="black" stroke="black" style="opacity:0.98000004;fill-rule:nonzero;" fill-opacity="1" id="connector0pin" stroke-width="0.72" d="m174.05,2523.85c-3.769,0,-6.8,3.056,-6.8,6.82504l0,0.6c0,3.76896,3.031,6.8,6.8,6.8l14.725,0c3.769,0,6.825,-3.03104,6.825,-6.8l0,-0.6c0,-3.76904,-3.056,-6.82504,-6.825,-6.82504l-14.725,0zm0.575,3.95c1.56553,0,2.825,1.28728,2.825,2.87504,0,1.58768,-1.25947,2.87496,-2.825,2.87496,-1.56553,0,-2.85,-1.28728,-2.85,-2.87496,0,-1.58776,1.28447,-2.87504,2.85,-2.87504zm14.15,0c1.56553,0,2.85,1.28728,2.85,2.87504,0,1.58768,-1.28447,2.87496,-2.85,2.87496,-1.56553,0,-2.825,-1.28728,-2.825,-2.87496,0,-1.58776,1.25947,-2.87504,2.825,-2.87504z"/>
        </g>
       </g>
      </g>
     </g>
    </g>
   </g>
  </g>
  <g partID="283860">
   <g transform="translate(68.7124,40.5824)">
    <g transform="matrix(1, 0, 0, 1, -167.25, -382.666)">
     <g id="copper0">
      <g>
       <g transform="matrix(1, 0, 0, 1, 0, -2141.18)">
        <g id="0.3.0.0">
         <path fill="black" stroke="black" style="opacity:0.98000004;fill-rule:nonzero;" fill-opacity="1" id="connector0pin" stroke-width="0.72" d="m174.05,2523.85c-3.769,0,-6.8,3.056,-6.8,6.82504l0,0.6c0,3.76896,3.031,6.8,6.8,6.8l14.725,0c3.769,0,6.825,-3.03104,6.825,-6.8l0,-0.6c0,-3.76904,-3.056,-6.82504,-6.825,-6.82504l-14.725,0zm0.575,3.95c1.56553,0,2.825,1.28728,2.825,2.87504,0,1.58768,-1.25947,2.87496,-2.825,2.87496,-1.56553,0,-2.85,-1.28728,-2.85,-2.87496,0,-1.58776,1.28447,-2.87504,2.85,-2.87504zm14.15,0c1.56553,0,2.85,1.28728,2.85,2.87504,0,1.58768,-1.28447,2.87496,-2.85,2.87496,-1.56553,0,-2.825,-1.28728,-2.825,-2.87496,0,-1.58776,1.25947,-2.87504,2.825,-2.87504z"/>
        </g>
       </g>
      </g>
     </g>
    </g>
   </g>
  </g>
  <g partID="283890">
   <g transform="translate(69.421,141.921)">
    <g transform="matrix(1, 0, 0, 1, -167.25, -382.666)">
     <g id="copper0">
      <g>
       <g transform="matrix(1, 0, 0, 1, 0, -2141.18)">
        <g id="0.3.0.0">
         <path fill="black" stroke="black" style="opacity:0.98000004;fill-rule:nonzero;" fill-opacity="1" id="connector0pin" stroke-width="0.72" d="m174.05,2523.85c-3.769,0,-6.8,3.056,-6.8,6.82504l0,0.6c0,3.76896,3.031,6.8,6.8,6.8l14.725,0c3.769,0,6.825,-3.03104,6.825,-6.8l0,-0.6c0,-3.76904,-3.056,-6.82504,-6.825,-6.82504l-14.725,0zm0.575,3.95c1.56553,0,2.825,1.28728,2.825,2.87504,0,1.58768,-1.25947,2.87496,-2.825,2.87496,-1.56553,0,-2.85,-1.28728,-2.85,-2.87496,0,-1.58776,1.28447,-2.87504,2.85,-2.87504zm14.15,0c1.56553,0,2.85,1.28728,2.85,2.87504,0,1.58768,-1.28447,2.87496,-2.85,2.87496,-1.56553,0,-2.825,-1.28728,-2.825,-2.87496,0,-1.58776,1.25947,-2.87504,2.825,-2.87504z"/>
        </g>
       </g>
      </g>
     </g>
    </g>
   </g>
  </g>
  <g partID="283920">
   <g transform="translate(68.7124,91.6064)">
    <g transform="matrix(1, 0, 0, 1, -167.25, -382.666)">
     <g id="copper0">
      <g>
       <g transform="matrix(1, 0, 0, 1, 0, -2141.18)">
        <g id="0.3.0.0">
         <path fill="black" stroke="black" style="opacity:0.98000004;fill-rule:nonzero;" fill-opacity="1" id="connector0pin" stroke-width="0.72" d="m174.05,2523.85c-3.769,0,-6.8,3.056,-6.8,6.82504l0,0.6c0,3.76896,3.031,6.8,6.8,6.8l14.725,0c3.769,0,6.825,-3.03104,6.825,-6.8l0,-0.6c0,-3.76904,-3.056,-6.82504,-6.825,-6.82504l-14.725,0zm0.575,3.95c1.56553,0,2.825,1.28728,2.825,2.87504,0,1.58768,-1.25947,2.87496,-2.825,2.87496,-1.56553,0,-2.85,-1.28728,-2.85,-2.87496,0,-1.58776,1.28447,-2.87504,2.85,-2.87504zm14.15,0c1.56553,0,2.85,1.28728,2.85,2.87504,0,1.58768,-1.28447,2.87496,-2.85,2.87496,-1.56553,0,-2.825,-1.28728,-2.825,-2.87496,0,-1.58776,1.25947,-2.87504,2.825,-2.87504z"/>
        </g>
       </g>
      </g>
     </g>
    </g>
   </g>
  </g>
  <g partID="283950">
   <g transform="translate(68.7124,15.0704)">
    <g transform="matrix(1, 0, 0, 1, -167.25, -382.666)">
     <g id="copper0">
      <g>
       <g transform="matrix(1, 0, 0, 1, 0, -2141.18)">
        <g id="0.3.0.0">
         <path fill="black" stroke="black" style="opacity:0.98000004;fill-rule:nonzero;" fill-opacity="1" id="connector0pin" stroke-width="0.72" d="m174.05,2523.85c-3.769,0,-6.8,3.056,-6.8,6.82504l0,0.6c0,3.76896,3.031,6.8,6.8,6.8l14.725,0c3.769,0,6.825,-3.03104,6.825,-6.8l0,-0.6c0,-3.76904,-3.056,-6.82504,-6.825,-6.82504l-14.725,0zm0.575,3.95c1.56553,0,2.825,1.28728,2.825,2.87504,0,1.58768,-1.25947,2.87496,-2.825,2.87496,-1.56553,0,-2.85,-1.28728,-2.85,-2.87496,0,-1.58776,1.28447,-2.87504,2.85,-2.87504zm14.15,0c1.56553,0,2.85,1.28728,2.85,2.87504,0,1.58768,-1.28447,2.87496,-2.85,2.87496,-1.56553,0,-2.825,-1.28728,-2.825,-2.87496,0,-1.58776,1.25947,-2.87504,2.825,-2.87504z"/>
        </g>
       </g>
      </g>
     </g>
    </g>
   </g>
  </g>
  <g partID="283980">
   <g transform="translate(68.7124,66.0944)">
    <g transform="matrix(1, 0, 0, 1, -167.25, -382.666)">
     <g id="copper0">
      <g>
       <g transform="matrix(1, 0, 0, 1, 0, -2141.18)">
        <g id="0.3.0.0">
         <path fill="black" stroke="black" style="opacity:0.98000004;fill-rule:nonzero;" fill-opacity="1" id="connector0pin" stroke-width="0.72" d="m174.05,2523.85c-3.769,0,-6.8,3.056,-6.8,6.82504l0,0.6c0,3.76896,3.031,6.8,6.8,6.8l14.725,0c3.769,0,6.825,-3.03104,6.825,-6.8l0,-0.6c0,-3.76904,-3.056,-6.82504,-6.825,-6.82504l-14.725,0zm0.575,3.95c1.56553,0,2.825,1.28728,2.825,2.87504,0,1.58768,-1.25947,2.87496,-2.825,2.87496,-1.56553,0,-2.85,-1.28728,-2.85,-2.87496,0,-1.58776,1.28447,-2.87504,2.85,-2.87504zm14.15,0c1.56553,0,2.85,1.28728,2.85,2.87504,0,1.58768,-1.28447,2.87496,-2.85,2.87496,-1.56553,0,-2.825,-1.28728,-2.825,-2.87496,0,-1.58776,1.25947,-2.87504,2.825,-2.87504z"/>
        </g>
       </g>
      </g>
     </g>
    </g>
   </g>
  </g>
 </g>
</svg>
