<?xml version='1.0' encoding='UTF-8' standalone='no'?>
<!-- Created with Fritzing (http://www.fritzing.org/) -->
<svg xmlns="http://www.w3.org/2000/svg" width="2.16783in" x="0in" version="1.2" y="0in"  height="1.39398in" viewBox="0 0 156.084 100.367" baseProfile="tiny" xmlns:svg="http://www.w3.org/2000/svg">
 <g partID="127820">
  <g id="board">
   <rect width="155.508" x="0.576" y="0.576" fill="none" height="99.7905" stroke="black" fill-opacity="0.5" id="boardoutline" stroke-width="0.5"/>
  </g>
 </g>
 <g partID="60240">
  <g transform="translate(120.835,6.30441)">
   <g id="copper0">
    <rect width="4.32" x="12.24" y="6.72661" fill="black" height="4.32" stroke="black" id="square" stroke-width="2.16"/>
    <circle fill="black" cx="14.4" cy="8.8866" stroke="black" id="connector0pin" r="2.16" stroke-width="2.16"/>
    <circle fill="black" cx="14.4" cy="23.0599" stroke="black" id="connector1pin" r="2.16" stroke-width="2.16"/>
    <circle fill="black" cx="14.4" cy="37.2331" stroke="black" id="connector2pin" r="2.16" stroke-width="2.16"/>
    <circle fill="black" cx="14.4" cy="51.4063" stroke="black" id="connector3pin" r="2.16" stroke-width="2.16"/>
    <circle fill="black" cx="14.4" cy="65.5795" stroke="black" id="connector4pin" r="2.16" stroke-width="2.16"/>
    <circle fill="black" cx="14.4" cy="79.753" stroke="black" id="connector5pin" r="2.16" stroke-width="2.16"/>
   </g>
  </g>
 </g>
 <g partID="60530">
  <g transform="translate(3.84945,2.43513)">
   <g  id="copper0" transform="matrix(1, 0, 0, 1, 0, -795.118)">
    <g >
     <g  id="0.3.1.0" transform="matrix(1, 0, 0, 1, 0, 795.118)">
      <path stroke-opacity="1" fill="black"  stroke="black" style="opacity:0.98000004;stroke-miterlimit:4;stroke-dasharray:none" id="connector2pin" stroke-width="3.55465" d="m10.4882,23.3858a3.25984,3.25984,0,1,1,-6.51969,0,3.25984,3.25984,0,1,1,6.51969,0z"/>
     </g>
     <g  id="0.3.1.1" transform="matrix(1, 0, 0, 1, 5.81102, 812.126)">
      <path stroke-opacity="1" fill="black"  stroke="black" style="opacity:0.98000004;stroke-miterlimit:4;stroke-dasharray:none" id="path3782-7" stroke-width="3.55465" d="m10.4882,23.3858a3.25984,3.25984,0,1,1,-6.51969,0,3.25984,3.25984,0,1,1,6.51969,0z"/>
     </g>
     <g  id="0.3.1.2" transform="matrix(1, 0, 0, 1, 40.252, 812.126)">
      <path stroke-opacity="1" fill="black"  stroke="black" style="opacity:0.98000004;stroke-miterlimit:4;stroke-dasharray:none" id="path3782-7-5" stroke-width="3.55465" d="m10.4882,23.3858a3.25984,3.25984,0,1,1,-6.51969,0,3.25984,3.25984,0,1,1,6.51969,0z"/>
     </g>
     <g  id="0.3.1.3" transform="matrix(1, 0, 0, 1, 5.81102, 812.126)">
      <path stroke-opacity="1" fill="black"  stroke="black" style="opacity:0.98000004;stroke-miterlimit:4;stroke-dasharray:none" id="connector1pin" stroke-width="3.55465" d="m10.4882,23.3858a3.25984,3.25984,0,1,1,-6.51969,0,3.25984,3.25984,0,1,1,6.51969,0z"/>
     </g>
     <g  id="0.3.1.4" transform="matrix(1, 0, 0, 1, 40.252, 812.126)">
      <path stroke-opacity="1" fill="black"  stroke="black" style="opacity:0.98000004;stroke-miterlimit:4;stroke-dasharray:none" id="connector0pin" stroke-width="3.55465" d="m10.4882,23.3858a3.25984,3.25984,0,1,1,-6.51969,0,3.25984,3.25984,0,1,1,6.51969,0z"/>
     </g>
     <g  id="0.3.1.5" transform="matrix(1, 0, 0, -1, 5.81102, 824.882)">
      <path stroke-opacity="1" fill="black"  stroke="black" style="opacity:0.98000004;stroke-miterlimit:4;stroke-dasharray:none" id="connector4pin" stroke-width="3.55465" d="m10.4882,23.3858a3.25984,3.25984,0,1,1,-6.51969,0,3.25984,3.25984,0,1,1,6.51969,0z"/>
     </g>
     <g  id="0.3.1.6" transform="matrix(1, 0, 0, -1, 40.252, 824.882)">
      <path stroke-opacity="1" fill="black"  stroke="black" style="opacity:0.98000004;stroke-miterlimit:4;stroke-dasharray:none" id="connector5pin" stroke-width="3.55465" d="m10.4882,23.3858a3.25984,3.25984,0,1,1,-6.51969,0,3.25984,3.25984,0,1,1,6.51969,0z"/>
     </g>
    </g>
   </g>
  </g>
 </g>
 <g partID="60560">
  <g transform="translate(117.519,24.1201)">
   <g transform="matrix(2.22045e-16,1,-1,2.22045e-16,0,0)">
    <g  id="copper0" transform="matrix(1, 0, 0, 1, 0, -795.118)">
     <g >
      <g  id="0.3.1.0" transform="matrix(1, 0, 0, 1, 0, 795.118)">
       <path stroke-opacity="1" fill="black"  stroke="black" style="opacity:0.98000004;stroke-miterlimit:4;stroke-dasharray:none" id="connector2pin" stroke-width="3.55465" d="m10.4882,23.3858a3.25984,3.25984,0,1,1,-6.51969,0,3.25984,3.25984,0,1,1,6.51969,0z"/>
      </g>
      <g  id="0.3.1.1" transform="matrix(1, 0, 0, 1, 5.81102, 812.126)">
       <path stroke-opacity="1" fill="black"  stroke="black" style="opacity:0.98000004;stroke-miterlimit:4;stroke-dasharray:none" id="path3782-7" stroke-width="3.55465" d="m10.4882,23.3858a3.25984,3.25984,0,1,1,-6.51969,0,3.25984,3.25984,0,1,1,6.51969,0z"/>
      </g>
      <g  id="0.3.1.2" transform="matrix(1, 0, 0, 1, 40.252, 812.126)">
       <path stroke-opacity="1" fill="black"  stroke="black" style="opacity:0.98000004;stroke-miterlimit:4;stroke-dasharray:none" id="path3782-7-5" stroke-width="3.55465" d="m10.4882,23.3858a3.25984,3.25984,0,1,1,-6.51969,0,3.25984,3.25984,0,1,1,6.51969,0z"/>
      </g>
      <g  id="0.3.1.3" transform="matrix(1, 0, 0, 1, 5.81102, 812.126)">
       <path stroke-opacity="1" fill="black"  stroke="black" style="opacity:0.98000004;stroke-miterlimit:4;stroke-dasharray:none" id="connector1pin" stroke-width="3.55465" d="m10.4882,23.3858a3.25984,3.25984,0,1,1,-6.51969,0,3.25984,3.25984,0,1,1,6.51969,0z"/>
      </g>
      <g  id="0.3.1.4" transform="matrix(1, 0, 0, 1, 40.252, 812.126)">
       <path stroke-opacity="1" fill="black"  stroke="black" style="opacity:0.98000004;stroke-miterlimit:4;stroke-dasharray:none" id="connector0pin" stroke-width="3.55465" d="m10.4882,23.3858a3.25984,3.25984,0,1,1,-6.51969,0,3.25984,3.25984,0,1,1,6.51969,0z"/>
      </g>
      <g  id="0.3.1.5" transform="matrix(1, 0, 0, -1, 5.81102, 824.882)">
       <path stroke-opacity="1" fill="black"  stroke="black" style="opacity:0.98000004;stroke-miterlimit:4;stroke-dasharray:none" id="connector4pin" stroke-width="3.55465" d="m10.4882,23.3858a3.25984,3.25984,0,1,1,-6.51969,0,3.25984,3.25984,0,1,1,6.51969,0z"/>
      </g>
      <g  id="0.3.1.6" transform="matrix(1, 0, 0, -1, 40.252, 824.882)">
       <path stroke-opacity="1" fill="black"  stroke="black" style="opacity:0.98000004;stroke-miterlimit:4;stroke-dasharray:none" id="connector5pin" stroke-width="3.55465" d="m10.4882,23.3858a3.25984,3.25984,0,1,1,-6.51969,0,3.25984,3.25984,0,1,1,6.51969,0z"/>
      </g>
     </g>
    </g>
   </g>
  </g>
 </g>
 <g partID="60590">
  <g transform="translate(3.84945,52.0414)">
   <g  id="copper0" transform="matrix(1, 0, 0, 1, 0, -795.118)">
    <g >
     <g  id="0.3.1.0" transform="matrix(1, 0, 0, 1, 0, 795.118)">
      <path stroke-opacity="1" fill="black"  stroke="black" style="opacity:0.98000004;stroke-miterlimit:4;stroke-dasharray:none" id="connector2pin" stroke-width="3.55465" d="m10.4882,23.3858a3.25984,3.25984,0,1,1,-6.51969,0,3.25984,3.25984,0,1,1,6.51969,0z"/>
     </g>
     <g  id="0.3.1.1" transform="matrix(1, 0, 0, 1, 5.81102, 812.126)">
      <path stroke-opacity="1" fill="black"  stroke="black" style="opacity:0.98000004;stroke-miterlimit:4;stroke-dasharray:none" id="path3782-7" stroke-width="3.55465" d="m10.4882,23.3858a3.25984,3.25984,0,1,1,-6.51969,0,3.25984,3.25984,0,1,1,6.51969,0z"/>
     </g>
     <g  id="0.3.1.2" transform="matrix(1, 0, 0, 1, 40.252, 812.126)">
      <path stroke-opacity="1" fill="black"  stroke="black" style="opacity:0.98000004;stroke-miterlimit:4;stroke-dasharray:none" id="path3782-7-5" stroke-width="3.55465" d="m10.4882,23.3858a3.25984,3.25984,0,1,1,-6.51969,0,3.25984,3.25984,0,1,1,6.51969,0z"/>
     </g>
     <g  id="0.3.1.3" transform="matrix(1, 0, 0, 1, 5.81102, 812.126)">
      <path stroke-opacity="1" fill="black"  stroke="black" style="opacity:0.98000004;stroke-miterlimit:4;stroke-dasharray:none" id="connector1pin" stroke-width="3.55465" d="m10.4882,23.3858a3.25984,3.25984,0,1,1,-6.51969,0,3.25984,3.25984,0,1,1,6.51969,0z"/>
     </g>
     <g  id="0.3.1.4" transform="matrix(1, 0, 0, 1, 40.252, 812.126)">
      <path stroke-opacity="1" fill="black"  stroke="black" style="opacity:0.98000004;stroke-miterlimit:4;stroke-dasharray:none" id="connector0pin" stroke-width="3.55465" d="m10.4882,23.3858a3.25984,3.25984,0,1,1,-6.51969,0,3.25984,3.25984,0,1,1,6.51969,0z"/>
     </g>
     <g  id="0.3.1.5" transform="matrix(1, 0, 0, -1, 5.81102, 824.882)">
      <path stroke-opacity="1" fill="black"  stroke="black" style="opacity:0.98000004;stroke-miterlimit:4;stroke-dasharray:none" id="connector4pin" stroke-width="3.55465" d="m10.4882,23.3858a3.25984,3.25984,0,1,1,-6.51969,0,3.25984,3.25984,0,1,1,6.51969,0z"/>
     </g>
     <g  id="0.3.1.6" transform="matrix(1, 0, 0, -1, 40.252, 824.882)">
      <path stroke-opacity="1" fill="black"  stroke="black" style="opacity:0.98000004;stroke-miterlimit:4;stroke-dasharray:none" id="connector5pin" stroke-width="3.55465" d="m10.4882,23.3858a3.25984,3.25984,0,1,1,-6.51969,0,3.25984,3.25984,0,1,1,6.51969,0z"/>
     </g>
    </g>
   </g>
  </g>
 </g>
</svg>
