<?xml version='1.0' encoding='UTF-8' standalone='no'?>
<!-- Created with Fritzing (http://www.fritzing.org/) -->
<svg xmlns="http://www.w3.org/2000/svg" width="2.3622in" x="0in" version="1.2" y="0in"  height="1.35827in" viewBox="0 0 170.079 97.7953" baseProfile="tiny" xmlns:svg="http://www.w3.org/2000/svg">
 <g transform="matrix(-1, 0, 0, 1, 170.079, 0)">
  <g partID="12040">
   <g id="board">
    <rect width="169.503" x="0.576" y="0.576" fill="none" height="97.2193" stroke="black" fill-opacity="0.5" id="boardoutline" stroke-width="0.5"/>
   </g>
  </g>
  <g partID="13240">
   <g transform="translate(15.039,40.9642)">
    <g  id="copper0">
     <rect width="4.464" x="6.408" y="12.168" fill="black"  height="4.464" stroke="black" stroke-width="2.16"/>
     <circle fill="black" cx="8.64"  cy="14.4" stroke="black" id="connector0pad" r="2.232" stroke-width="2.16"/>
     <circle fill="black" cx="15.84"  cy="14.4" stroke="black" id="connector1pad" r="2.232" stroke-width="2.16"/>
     <circle fill="black" cx="23.04"  cy="14.4" stroke="black" id="connector2pad" r="2.232" stroke-width="2.16"/>
    </g>
   </g>
  </g>
  <g partID="13220">
   <g transform="translate(67.4804,40.9635)">
    <g  id="copper0">
     <rect width="4.464" x="6.408" y="12.168" fill="black"  height="4.464" stroke="black" stroke-width="2.16"/>
     <circle fill="black" cx="8.64"  cy="14.4" stroke="black" id="connector0pad" r="2.232" stroke-width="2.16"/>
     <circle fill="black" cx="15.84"  cy="14.4" stroke="black" id="connector1pad" r="2.232" stroke-width="2.16"/>
     <circle fill="black" cx="23.04"  cy="14.4" stroke="black" id="connector2pad" r="2.232" stroke-width="2.16"/>
    </g>
   </g>
  </g>
  <g partID="13160">
   <g transform="translate(119.212,39.5469)">
    <g  id="copper0">
     <rect width="4.464" x="6.408" y="12.168" fill="black"  height="4.464" stroke="black" stroke-width="2.16"/>
     <circle fill="black" cx="8.64"  cy="14.4" stroke="black" id="connector0pad" r="2.232" stroke-width="2.16"/>
     <circle fill="black" cx="15.84"  cy="14.4" stroke="black" id="connector1pad" r="2.232" stroke-width="2.16"/>
     <circle fill="black" cx="23.04"  cy="14.4" stroke="black" id="connector2pad" r="2.232" stroke-width="2.16"/>
    </g>
   </g>
  </g>
  <g partID="40610">
   <g transform="translate(42.1042,70.6713)">
    <g transform="matrix(-1,1.27676e-15,-1.27676e-15,-1,0,0)">
     <g  flipped="1" id="copper0" transform="matrix(1, 0, 0, -1, 0, 6.51969)">
      <g >
       <rect width="4.53543" x="0.566929" y="0.566929" fill="black"  height="5.38583" stroke="black" fill-opacity="1" id="connector0pad" stroke-width="0.72"/>
       <rect width="4.53543" x="9.35433" y="0.566929" fill="black"  height="5.38583" stroke="black" fill-opacity="1" id="connector1pad" stroke-width="0.72"/>
      </g>
     </g>
    </g>
   </g>
  </g>
  <g partID="40620">
   <g transform="translate(32.4664,96.4666)">
    <g transform="matrix(-1.38778e-15,-1,1,-1.38778e-15,0,0)">
     <g  flipped="1" id="copper0" transform="matrix(1, 0, 0, -1, 0, 6.51969)">
      <g >
       <rect width="4.53543" x="0.566929" y="0.566929" fill="black"  height="5.38583" stroke="black" fill-opacity="1" id="connector0pad" stroke-width="0.72"/>
       <rect width="4.53543" x="9.35433" y="0.566929" fill="black"  height="5.38583" stroke="black" fill-opacity="1" id="connector1pad" stroke-width="0.72"/>
      </g>
     </g>
    </g>
   </g>
  </g>
  <g partID="40630">
   <g transform="translate(39.1278,79.317)">
    <g transform="matrix(-1,7.21645e-16,-7.21645e-16,-1,0,0)">
     <g  flipped="1" id="copper0" transform="matrix(1, 0, 0, -1, 0, 8.22047)">
      <g >
       <!-- unten links -->
       <rect width="2.26772" x="0.425197" y="5.66929" fill="black"  height="2.55118" stroke="black" fill-opacity="1" id="connector0pin" stroke-width="0.72"/>
       <g width="0" x="1.55906" y="6.94488" fill="black"  height="0" stroke="black" id="connector0terminal" stroke-width="0.72"/>
       <!-- unten rechts -->
       <rect width="2.26772" x="5.81102" y="5.66929" fill="black"  height="2.55118" stroke="black" fill-opacity="1" id="connector1pin" stroke-width="0.72"/>
       <g width="0" x="6.94488" y="6.94488" fill="black"  height="0" stroke="black" id="connector1terminal" stroke-width="0.72"/>
       <!-- oben mitte -->
       <rect width="2.26772" x="3.11811" y="0" fill="black"  height="2.55118" stroke="black" fill-opacity="1" id="connector2pin" stroke-width="0.72"/>
       <g width="0" x="4.25197" y="1.27559" fill="black"  height="0" stroke="black" id="connector2terminal" stroke-width="0.72"/>
      </g>
     </g>
    </g>
   </g>
  </g>
  <g partID="46960">
   <g transform="translate(105.91,69.5357)">
    <g transform="matrix(2.22045e-16,1,-1,2.22045e-16,0,0)">
     <g  id="copper0" transform="matrix(1, 0, 0, 1, -167.25, -382.666)">
      <g >
       <g  id="0.3.0.0" transform="matrix(1, 0, 0, 1, 0, -2141.18)">
        <path fill="black"  stroke="black" style="opacity:0.98000004;fill-rule:nonzero;" fill-opacity="1" id="connector0pin" stroke-width="0.72" d="m174.05,2523.85c-3.769,0,-6.8,3.056,-6.8,6.82504l0,0.6c0,3.76896,3.031,6.8,6.8,6.8l14.725,0c3.769,0,6.825,-3.03104,6.825,-6.8l0,-0.6c0,-3.76904,-3.056,-6.82504,-6.825,-6.82504l-14.725,0zm0.575,3.95c1.56553,0,2.825,1.28728,2.825,2.87504,0,1.58768,-1.25947,2.87496,-2.825,2.87496,-1.56553,0,-2.85,-1.28728,-2.85,-2.87496,0,-1.58776,1.28447,-2.87504,2.85,-2.87504zm14.15,0c1.56553,0,2.85,1.28728,2.85,2.87504,0,1.58768,-1.28447,2.87496,-2.85,2.87496,-1.56553,0,-2.825,-1.28728,-2.825,-2.87496,0,-1.58776,1.25947,-2.87504,2.825,-2.87504z"/>
       </g>
      </g>
     </g>
    </g>
   </g>
  </g>
  <g partID="46940">
   <g transform="translate(131.421,69.5357)">
    <g transform="matrix(2.22045e-16,1,-1,2.22045e-16,0,0)">
     <g  id="copper0" transform="matrix(1, 0, 0, 1, -167.25, -382.666)">
      <g >
       <g  id="0.3.0.0" transform="matrix(1, 0, 0, 1, 0, -2141.18)">
        <path fill="black"  stroke="black" style="opacity:0.98000004;fill-rule:nonzero;" fill-opacity="1" id="connector0pin" stroke-width="0.72" d="m174.05,2523.85c-3.769,0,-6.8,3.056,-6.8,6.82504l0,0.6c0,3.76896,3.031,6.8,6.8,6.8l14.725,0c3.769,0,6.825,-3.03104,6.825,-6.8l0,-0.6c0,-3.76904,-3.056,-6.82504,-6.825,-6.82504l-14.725,0zm0.575,3.95c1.56553,0,2.825,1.28728,2.825,2.87504,0,1.58768,-1.25947,2.87496,-2.825,2.87496,-1.56553,0,-2.85,-1.28728,-2.85,-2.87496,0,-1.58776,1.28447,-2.87504,2.85,-2.87504zm14.15,0c1.56553,0,2.85,1.28728,2.85,2.87504,0,1.58768,-1.28447,2.87496,-2.85,2.87496,-1.56553,0,-2.825,-1.28728,-2.825,-2.87496,0,-1.58776,1.25947,-2.87504,2.825,-2.87504z"/>
       </g>
      </g>
     </g>
    </g>
   </g>
  </g>
  <g partID="46920">
   <g transform="translate(156.933,69.5357)">
    <g transform="matrix(2.22045e-16,1,-1,2.22045e-16,0,0)">
     <g  id="copper0" transform="matrix(1, 0, 0, 1, -167.25, -382.666)">
      <g >
       <g  id="0.3.0.0" transform="matrix(1, 0, 0, 1, 0, -2141.18)">
        <path fill="black"  stroke="black" style="opacity:0.98000004;fill-rule:nonzero;" fill-opacity="1" id="connector0pin" stroke-width="0.72" d="m174.05,2523.85c-3.769,0,-6.8,3.056,-6.8,6.82504l0,0.6c0,3.76896,3.031,6.8,6.8,6.8l14.725,0c3.769,0,6.825,-3.03104,6.825,-6.8l0,-0.6c0,-3.76904,-3.056,-6.82504,-6.825,-6.82504l-14.725,0zm0.575,3.95c1.56553,0,2.825,1.28728,2.825,2.87504,0,1.58768,-1.25947,2.87496,-2.825,2.87496,-1.56553,0,-2.85,-1.28728,-2.85,-2.87496,0,-1.58776,1.28447,-2.87504,2.85,-2.87504zm14.15,0c1.56553,0,2.85,1.28728,2.85,2.87504,0,1.58768,-1.28447,2.87496,-2.85,2.87496,-1.56553,0,-2.825,-1.28728,-2.825,-2.87496,0,-1.58776,1.25947,-2.87504,2.825,-2.87504z"/>
       </g>
      </g>
     </g>
    </g>
   </g>
  </g>
  <g partID="46470">
   <g transform="translate(29.3742,69.5357)">
    <g transform="matrix(2.22045e-16,1,-1,2.22045e-16,0,0)">
     <g  id="copper0" transform="matrix(1, 0, 0, 1, -167.25, -382.666)">
      <g >
       <g  id="0.3.0.0" transform="matrix(1, 0, 0, 1, 0, -2141.18)">
        <path fill="black"  stroke="black" style="opacity:0.98000004;fill-rule:nonzero;" fill-opacity="1" id="connector0pin" stroke-width="0.72" d="m174.05,2523.85c-3.769,0,-6.8,3.056,-6.8,6.82504l0,0.6c0,3.76896,3.031,6.8,6.8,6.8l14.725,0c3.769,0,6.825,-3.03104,6.825,-6.8l0,-0.6c0,-3.76904,-3.056,-6.82504,-6.825,-6.82504l-14.725,0zm0.575,3.95c1.56553,0,2.825,1.28728,2.825,2.87504,0,1.58768,-1.25947,2.87496,-2.825,2.87496,-1.56553,0,-2.85,-1.28728,-2.85,-2.87496,0,-1.58776,1.28447,-2.87504,2.85,-2.87504zm14.15,0c1.56553,0,2.85,1.28728,2.85,2.87504,0,1.58768,-1.28447,2.87496,-2.85,2.87496,-1.56553,0,-2.825,-1.28728,-2.825,-2.87496,0,-1.58776,1.25947,-2.87504,2.825,-2.87504z"/>
       </g>
      </g>
     </g>
    </g>
   </g>
  </g>
  <g partID="46450">
   <g transform="translate(54.886,69.5357)">
    <g transform="matrix(2.22045e-16,1,-1,2.22045e-16,0,0)">
     <g  id="copper0" transform="matrix(1, 0, 0, 1, -167.25, -382.666)">
      <g >
       <g  id="0.3.0.0" transform="matrix(1, 0, 0, 1, 0, -2141.18)">
        <path fill="black"  stroke="black" style="opacity:0.98000004;fill-rule:nonzero;" fill-opacity="1" id="connector0pin" stroke-width="0.72" d="m174.05,2523.85c-3.769,0,-6.8,3.056,-6.8,6.82504l0,0.6c0,3.76896,3.031,6.8,6.8,6.8l14.725,0c3.769,0,6.825,-3.03104,6.825,-6.8l0,-0.6c0,-3.76904,-3.056,-6.82504,-6.825,-6.82504l-14.725,0zm0.575,3.95c1.56553,0,2.825,1.28728,2.825,2.87504,0,1.58768,-1.25947,2.87496,-2.825,2.87496,-1.56553,0,-2.85,-1.28728,-2.85,-2.87496,0,-1.58776,1.28447,-2.87504,2.85,-2.87504zm14.15,0c1.56553,0,2.85,1.28728,2.85,2.87504,0,1.58768,-1.28447,2.87496,-2.85,2.87496,-1.56553,0,-2.825,-1.28728,-2.825,-2.87496,0,-1.58776,1.25947,-2.87504,2.825,-2.87504z"/>
       </g>
      </g>
     </g>
    </g>
   </g>
  </g>
  <g partID="46420">
   <g transform="translate(80.3978,69.5357)">
    <g transform="matrix(2.22045e-16,1,-1,2.22045e-16,0,0)">
     <g  id="copper0" transform="matrix(1, 0, 0, 1, -167.25, -382.666)">
      <g >
       <g  id="0.3.0.0" transform="matrix(1, 0, 0, 1, 0, -2141.18)">
        <path fill="black"  stroke="black" style="opacity:0.98000004;fill-rule:nonzero;" fill-opacity="1" id="connector0pin" stroke-width="0.72" d="m174.05,2523.85c-3.769,0,-6.8,3.056,-6.8,6.82504l0,0.6c0,3.76896,3.031,6.8,6.8,6.8l14.725,0c3.769,0,6.825,-3.03104,6.825,-6.8l0,-0.6c0,-3.76904,-3.056,-6.82504,-6.825,-6.82504l-14.725,0zm0.575,3.95c1.56553,0,2.825,1.28728,2.825,2.87504,0,1.58768,-1.25947,2.87496,-2.825,2.87496,-1.56553,0,-2.85,-1.28728,-2.85,-2.87496,0,-1.58776,1.28447,-2.87504,2.85,-2.87504zm14.15,0c1.56553,0,2.85,1.28728,2.85,2.87504,0,1.58768,-1.28447,2.87496,-2.85,2.87496,-1.56553,0,-2.825,-1.28728,-2.825,-2.87496,0,-1.58776,1.25947,-2.87504,2.825,-2.87504z"/>
       </g>
      </g>
     </g>
    </g>
   </g>
  </g>
 </g>
</svg>
