<?xml version='1.0' encoding='UTF-8' standalone='no'?>
<!-- Created with Fritzing (http://www.fritzing.org/) -->
<svg xmlns="http://www.w3.org/2000/svg" width="1.28888in" x="0in" version="1.2" y="0in"  height="0.748146in" viewBox="0 0 92.7992 53.8665" baseProfile="tiny" xmlns:svg="http://www.w3.org/2000/svg">
 <g partID="12040">
  <g id="board">
   <rect width="92.2231" x="0.576" y="0.576" fill="none" height="53.2905" stroke="black" fill-opacity="0.5" id="boardoutline" stroke-width="0.5"/>
  </g>
 </g>
 <g partID="13240">
  <g transform="translate(1.244,-3.2904)">
   <g  id="copper0">
    <rect width="4.464" x="6.408" y="12.168" fill="none"  height="4.464" stroke="black" stroke-width="1.44"/>
    <circle fill="none" cx="8.64"  cy="14.4" stroke="black" id="connector0pad" r="2.232" stroke-width="1.44"/>
    <circle fill="none" cx="15.84"  cy="14.4" stroke="black" id="connector1pad" r="2.232" stroke-width="1.44"/>
    <circle fill="none" cx="23.04"  cy="14.4" stroke="black" id="connector2pad" r="2.232" stroke-width="1.44"/>
   </g>
  </g>
 </g>
 <g partID="13220">
  <g transform="translate(31.7168,-3.2904)">
   <g  id="copper0">
    <rect width="4.464" x="6.408" y="12.168" fill="none"  height="4.464" stroke="black" stroke-width="1.44"/>
    <circle fill="none" cx="8.64"  cy="14.4" stroke="black" id="connector0pad" r="2.232" stroke-width="1.44"/>
    <circle fill="none" cx="15.84"  cy="14.4" stroke="black" id="connector1pad" r="2.232" stroke-width="1.44"/>
    <circle fill="none" cx="23.04"  cy="14.4" stroke="black" id="connector2pad" r="2.232" stroke-width="1.44"/>
   </g>
  </g>
 </g>
 <g partID="13160">
  <g transform="translate(61.4808,-3.2904)">
   <g  id="copper0">
    <rect width="4.464" x="6.408" y="12.168" fill="none"  height="4.464" stroke="black" stroke-width="1.44"/>
    <circle fill="none" cx="8.64"  cy="14.4" stroke="black" id="connector0pad" r="2.232" stroke-width="1.44"/>
    <circle fill="none" cx="15.84"  cy="14.4" stroke="black" id="connector1pad" r="2.232" stroke-width="1.44"/>
    <circle fill="none" cx="23.04"  cy="14.4" stroke="black" id="connector2pad" r="2.232" stroke-width="1.44"/>
   </g>
  </g>
 </g>
 <g partID="23470">
  <g transform="translate(91.1392,16.552)">
   <g transform="matrix(2.22045e-16,1,-1,2.22045e-16,0,0)">
    <g  id="copper0">
     <rect width="5.69197" x="11.554" y="6.15402" fill="none"  height="5.69197" stroke="black" id="square" stroke-width="1.44"/>
     <circle fill="none" cx="14.4"  cy="9" stroke="black" id="connector0pin" r="2.84598" stroke-width="1.44"/>
     <circle fill="none" cx="14.4"  cy="23.4" stroke="black" id="connector1pin" r="2.84598" stroke-width="1.44"/>
     <circle fill="none" cx="14.4"  cy="37.8" stroke="black" id="connector2pin" r="2.84598" stroke-width="1.44"/>
     <circle fill="none" cx="14.4"  cy="52.2" stroke="black" id="connector3pin" r="2.84598" stroke-width="1.44"/>
     <circle fill="none" cx="14.4"  cy="66.6" stroke="black" id="connector4pin" r="2.84598" stroke-width="1.44"/>
     <circle fill="none" cx="14.4"  cy="81" stroke="black" id="connector5pin" r="2.84598" stroke-width="1.44"/>
    </g>
   </g>
  </g>
 </g>
 <g partID="40610">
  <g transform="translate(81.4591,22.8733)">
   <g transform="matrix(-1,0,0,-1,0,0)">
    <g  flipped="1" id="copper0" transform="matrix(1, 0, 0, -1, 0, 6.51969)">
     <g >
      <rect width="4.53543" x="0.566929" y="0.566929" fill="black"  height="5.38583" stroke="none" fill-opacity="1" id="connector0pad"/>
      <rect width="4.53543" x="9.35433" y="0.566929" fill="black"  height="5.38583" stroke="none" fill-opacity="1" id="connector1pad"/>
     </g>
    </g>
   </g>
  </g>
 </g>
 <g partID="40620">
  <g transform="translate(57.6485,29.5354)">
   <g transform="matrix(-4.44089e-16,-1,1,-4.44089e-16,0,0)">
    <g  flipped="1" id="copper0" transform="matrix(1, 0, 0, -1, 0, 6.51969)">
     <g >
      <rect width="4.53543" x="0.566929" y="0.566929" fill="black"  height="5.38583" stroke="none" fill-opacity="1" id="connector0pad"/>
      <rect width="4.53543" x="9.35433" y="0.566929" fill="black"  height="5.38583" stroke="none" fill-opacity="1" id="connector1pad"/>
     </g>
    </g>
   </g>
  </g>
 </g>
 <g partID="40630">
  <g transform="translate(54.3886,17.6295)">
   <g transform="matrix(2.22045e-16,1,-1,2.22045e-16,0,0)">
    <g  flipped="1" id="copper0" transform="matrix(1, 0, 0, -1, 0, 8.22047)">
     <g >
      <!-- unten links -->
      <rect width="2.26772" x="0.425197" y="5.66929" fill="black"  height="2.55118" stroke="none" fill-opacity="1" id="connector0pin"/>
      <g width="0" x="1.55906" y="6.94488" fill="none"  height="0" id="connector0terminal" stroke-width="0"/>
      <!-- unten rechts -->
      <rect width="2.26772" x="5.81102" y="5.66929" fill="black"  height="2.55118" stroke="none" fill-opacity="1" id="connector1pin"/>
      <g width="0" x="6.94488" y="6.94488" fill="none"  height="0" id="connector1terminal" stroke-width="0"/>
      <!-- oben mitte -->
      <rect width="2.26772" x="3.11811" y="0" fill="black"  height="2.55118" stroke="none" fill-opacity="1" id="connector2pin"/>
      <g width="0" x="4.25197" y="1.27559" fill="none"  height="0" id="connector2terminal" stroke-width="0"/>
     </g>
    </g>
   </g>
  </g>
 </g>
 <g partID="39820">
  <line stroke="black" stroke-linecap="round" y1="28.0279" x1="53.2352" y2="25.3082" stroke-width="1.728" x2="53.1385"/>
 </g>
 <g partID="41750">
  <line stroke="black" stroke-linecap="round" y1="36.87" x1="17.5071" y2="26.8573" stroke-width="1.728" x2="17.3711"/>
 </g>
 <g partID="41610">
  <line stroke="black" stroke-linecap="round" y1="26.8573" x1="17.3711" y2="12.4163" stroke-width="1.728" x2="38.4495"/>
 </g>
 <g partID="38570">
  <line stroke="black" stroke-linecap="round" y1="36.7615" x1="3.94773" y2="36.87" stroke-width="1.728" x2="17.5071"/>
 </g>
 <g partID="38750">
  <line stroke="black" stroke-linecap="round" y1="11.1616" x1="4.1448" y2="36.7615" stroke-width="1.728" x2="3.94773"/>
 </g>
 <g partID="38580">
  <line stroke="black" stroke-linecap="round" y1="11.1305" x1="7.57209" y2="11.1616" stroke-width="1.728" x2="4.1448"/>
 </g>
 <g partID="36900">
  <line stroke="black" stroke-linecap="round" y1="8.79816" x1="17.0331" y2="4.76179" stroke-width="3.456" x2="16.9442"/>
 </g>
 <g partID="36890">
  <line stroke="black" stroke-linecap="round" y1="4.7616" x1="16.9448" y2="4.7616" stroke-width="3.456" x2="47.4819"/>
 </g>
 <g partID="37050">
  <line stroke="black" stroke-linecap="round" y1="4.7616" x1="47.4816" y2="8.79757" stroke-width="3.456" x2="47.5293"/>
 </g>
 <g partID="36530">
  <line stroke="black" stroke-linecap="round" y1="8.79776" x1="47.5295" y2="4.76179" stroke-width="3.456" x2="47.4817"/>
 </g>
 <g partID="36700">
  <line stroke="black" stroke-linecap="round" y1="4.76179" x1="47.4817" y2="4.7616" stroke-width="3.456" x2="77.2873"/>
 </g>
 <g partID="36520">
  <line stroke="black" stroke-linecap="round" y1="4.7616" x1="77.2873" y2="7.99764" stroke-width="3.456" x2="77.3044"/>
 </g>
 <g partID="38500">
  <line stroke="black" stroke-linecap="round" y1="18.1104" x1="48.9448" y2="12.8885" stroke-width="3.456" x2="53.2802"/>
 </g>
 <g partID="38450">
  <line stroke="black" stroke-linecap="round" y1="18.1104" x1="39.6192" y2="18.1104" stroke-width="3.456" x2="48.9448"/>
 </g>
 <g partID="35900">
  <line stroke="black" stroke-linecap="round" y1="28.0433" x1="26.8678" y2="27.5412" stroke-width="3.456" x2="27.2698"/>
 </g>
 <g partID="45140">
  <line stroke="black" stroke-linecap="round" y1="27.5412" x1="27.2698" y2="18.1104" stroke-width="3.456" x2="39.6192"/>
 </g>
 <g partID="35850">
  <line stroke="black" stroke-linecap="round" y1="13.4206" x1="24.2152" y2="18.1104" stroke-width="3.456" x2="24.0757"/>
 </g>
 <g partID="35840">
  <line stroke="black" stroke-linecap="round" y1="18.1104" x1="24.076" y2="18.1104" stroke-width="3.456" x2="9.81312"/>
 </g>
 <g partID="38400">
  <line stroke="black" stroke-linecap="round" y1="18.1104" x1="9.8128" y2="28.0271" stroke-width="3.456" x2="10.0648"/>
 </g>
 <g partID="35430">
  <line stroke="black" stroke-linecap="round" y1="11.27" x1="88.9918" y2="37.5208" stroke-width="3.456" x2="88.9918"/>
 </g>
 <g partID="35320">
  <line stroke="black" stroke-linecap="round" y1="37.5208" x1="88.9918" y2="37.5208" stroke-width="3.456" x2="38.6596"/>
 </g>
 <g partID="35330">
  <line stroke="black" stroke-linecap="round" y1="11.2212" x1="87.6308" y2="11.27" stroke-width="3.456" x2="88.9918"/>
 </g>
 <g partID="35380">
  <line stroke="black" stroke-linecap="round" y1="37.5208" x1="38.6596" y2="34.6746" stroke-width="3.456" x2="38.7807"/>
 </g>
 <g partID="42780">
  <line stroke="black" stroke-linecap="round" y1="21.7066" x1="70.1156" y2="21.8747" stroke-width="1.728" x2="48.3193"/>
 </g>
 <g partID="42790">
  <line stroke="black" stroke-linecap="round" y1="13.4216" x1="70.1197" y2="21.7066" stroke-width="1.728" x2="70.1156"/>
 </g>
 <g partID="42940">
  <line stroke="black" stroke-linecap="round" y1="17.3205" x1="69.9132" y2="13.4204" stroke-width="1.728" x2="70.0432"/>
 </g>
 <g partID="43080">
  <line stroke="black" stroke-linecap="round" y1="18.1512" x1="53.76" y2="17.9894" stroke-width="1.728" x2="58.6154"/>
 </g>
 <g partID="43090">
  <line stroke="black" stroke-linecap="round" y1="18.4547" x1="53.5708" y2="18.1515" stroke-width="1.728" x2="53.7599"/>
 </g>
 <g partID="43320">
  <line stroke="black" stroke-linecap="round" y1="30.9512" x1="78.6488" y2="30.9514" stroke-width="3.456" x2="79.2136"/>
 </g>
 <g partID="43330">
  <line stroke="black" stroke-linecap="round" y1="21.9064" x1="78.6294" y2="30.9512" stroke-width="3.456" x2="78.6488"/>
 </g>
 <g partID="43480">
  <line stroke="black" stroke-linecap="round" y1="26.6848" x1="67.9824" y2="28.0313" stroke-width="1.728" x2="67.9059"/>
 </g>
 <g partID="43490">
  <line stroke="black" stroke-linecap="round" y1="26.6949" x1="63.2013" y2="26.6842" stroke-width="1.728" x2="67.9821"/>
 </g>
 <g partID="43580">
  <line stroke="black" stroke-linecap="round" y1="14.1857" x1="77.7924" y2="17.3205" stroke-width="3.456" x2="78.273"/>
 </g>
 <g partID="45010">
  <line stroke="black" stroke-linecap="round" y1="21.9005" x1="40.7206" y2="21.8839" stroke-width="1.728" x2="46.5682"/>
 </g>
 <g partID="44900">
  <line stroke="black" stroke-linecap="round" y1="29.7107" x1="30.8494" y2="21.9005" stroke-width="1.728" x2="40.7206"/>
 </g>
 <g partID="44680">
  <line stroke="black" stroke-linecap="round" y1="36.87" x1="17.5071" y2="36.7615" stroke-width="1.728" x2="30.8494"/>
 </g>
 <g partID="44790">
  <line stroke="black" stroke-linecap="round" y1="36.7615" x1="30.8494" y2="29.7107" stroke-width="1.728" x2="30.8494"/>
 </g>
</svg>
