<?xml version='1.0' encoding='UTF-8' standalone='no'?>
<!-- Created with Fritzing (http://www.fritzing.org/) -->
<svg xmlns="http://www.w3.org/2000/svg" width="1.28888in" x="0in" version="1.2" y="0in"  height="0.748146in" viewBox="0 0 92.7992 53.8665" baseProfile="tiny" xmlns:svg="http://www.w3.org/2000/svg">
 <g transform="matrix(-1, 0, 0, 1, 92.7992, 0)">
  <g partID="12040">
   <g id="board">
    <rect width="92.2231" x="0.576" y="0.576" fill="none" height="53.2905" stroke="black" fill-opacity="0.5" id="boardoutline" stroke-width="0.5"/>
   </g>
  </g>
  <g partID="13240">
   <g transform="translate(1.244,-3.2904)">
    <g  id="copper0">
     <g width="4.464" x="6.408" y="12.168" fill="none"  height="4.464" stroke="black" id="0" stroke-width="1.44"/>
     <g fill="none" cx="8.64"  cy="14.4" stroke="black" id="1" r="2.232" stroke-width="1.44"/>
     <g fill="none" cx="15.84"  cy="14.4" stroke="black" id="2" r="2.232" stroke-width="1.44"/>
     <g fill="none" cx="23.04"  cy="14.4" stroke="black" id="3" r="2.232" stroke-width="1.44"/>
    </g>
   </g>
  </g>
  <g partID="13220">
   <g transform="translate(31.7168,-3.2904)">
    <g  id="copper0">
     <g width="4.464" x="6.408" y="12.168" fill="none"  height="4.464" stroke="black" id="4" stroke-width="1.44"/>
     <g fill="none" cx="8.64"  cy="14.4" stroke="black" id="5" r="2.232" stroke-width="1.44"/>
     <g fill="none" cx="15.84"  cy="14.4" stroke="black" id="6" r="2.232" stroke-width="1.44"/>
     <g fill="none" cx="23.04"  cy="14.4" stroke="black" id="7" r="2.232" stroke-width="1.44"/>
    </g>
   </g>
  </g>
  <g partID="13160">
   <g transform="translate(61.4808,-3.2904)">
    <g  id="copper0">
     <g width="4.464" x="6.408" y="12.168" fill="none"  height="4.464" stroke="black" id="8" stroke-width="1.44"/>
     <g fill="none" cx="8.64"  cy="14.4" stroke="black" id="9" r="2.232" stroke-width="1.44"/>
     <g fill="none" cx="15.84"  cy="14.4" stroke="black" id="10" r="2.232" stroke-width="1.44"/>
     <g fill="none" cx="23.04"  cy="14.4" stroke="black" id="11" r="2.232" stroke-width="1.44"/>
    </g>
   </g>
  </g>
  <g partID="23470">
   <g transform="translate(91.1392,16.552)">
    <g transform="matrix(2.22045e-16,1,-1,2.22045e-16,0,0)">
     <g  id="copper0">
      <g width="5.69197" x="11.554" y="6.15402" fill="none"  height="5.69197" stroke="black" id="12" stroke-width="1.44"/>
      <g fill="none" cx="14.4"  cy="9" stroke="black" id="13" r="2.84598" stroke-width="1.44"/>
      <g fill="none" cx="14.4"  cy="23.4" stroke="black" id="14" r="2.84598" stroke-width="1.44"/>
      <g fill="none" cx="14.4"  cy="37.8" stroke="black" id="15" r="2.84598" stroke-width="1.44"/>
      <g fill="none" cx="14.4"  cy="52.2" stroke="black" id="16" r="2.84598" stroke-width="1.44"/>
      <g fill="none" cx="14.4"  cy="66.6" stroke="black" id="17" r="2.84598" stroke-width="1.44"/>
      <g fill="none" cx="14.4"  cy="81" stroke="black" id="18" r="2.84598" stroke-width="1.44"/>
     </g>
    </g>
   </g>
  </g>
  <g partID="40610">
   <g transform="translate(81.4591,22.8733)">
    <g transform="matrix(-1,0,0,-1,0,0)">
     <g  flipped="1" id="copper0" transform="matrix(1, 0, 0, -1, 0, 6.51969)">
      <g >
       <rect width="4.53543" x="0.566929" y="0.566929" fill="black"  height="5.38583" stroke="none" fill-opacity="1" id="19"/>
       <rect width="4.53543" x="9.35433" y="0.566929" fill="black"  height="5.38583" stroke="none" fill-opacity="1" id="20"/>
      </g>
     </g>
    </g>
   </g>
  </g>
  <g partID="40620">
   <g transform="translate(57.6485,29.5354)">
    <g transform="matrix(-4.44089e-16,-1,1,-4.44089e-16,0,0)">
     <g  flipped="1" id="copper0" transform="matrix(1, 0, 0, -1, 0, 6.51969)">
      <g >
       <rect width="4.53543" x="0.566929" y="0.566929" fill="black"  height="5.38583" stroke="none" fill-opacity="1" id="21"/>
       <rect width="4.53543" x="9.35433" y="0.566929" fill="black"  height="5.38583" stroke="none" fill-opacity="1" id="22"/>
      </g>
     </g>
    </g>
   </g>
  </g>
  <g partID="40630">
   <g transform="translate(54.3886,17.6295)">
    <g transform="matrix(2.22045e-16,1,-1,2.22045e-16,0,0)">
     <g  flipped="1" id="copper0" transform="matrix(1, 0, 0, -1, 0, 8.22047)">
      <g >
       <!-- unten links -->
       <rect width="2.26772" x="0.425197" y="5.66929" fill="black"  height="2.55118" stroke="none" fill-opacity="1" id="23"/>
       <g width="0" x="1.55906" y="6.94488" fill="none"  height="0" id="24" stroke-width="0"/>
       <!-- unten rechts -->
       <rect width="2.26772" x="5.81102" y="5.66929" fill="black"  height="2.55118" stroke="none" fill-opacity="1" id="25"/>
       <g width="0" x="6.94488" y="6.94488" fill="none"  height="0" id="26" stroke-width="0"/>
       <!-- oben mitte -->
       <rect width="2.26772" x="3.11811" y="0" fill="black"  height="2.55118" stroke="none" fill-opacity="1" id="27"/>
       <g width="0" x="4.25197" y="1.27559" fill="none"  height="0" id="28" stroke-width="0"/>
      </g>
     </g>
    </g>
   </g>
  </g>
 </g>
</svg>
