G04 (created by PCBNEW-RS274X (2012-apr-16-27)-stable) date Wed 19 Feb 2014 05:44:25 PM CET*
G01*
G70*
G90*
%MOIN*%
G04 Gerber Fmt 3.4, Leading zero omitted, Abs format*
%FSLAX34Y34*%
G04 APERTURE LIST*
%ADD10C,0.006000*%
%ADD11R,0.055100X0.023600*%
%ADD12R,0.060000X0.060000*%
%ADD13R,0.035000X0.055000*%
%ADD14C,0.015700*%
%ADD15C,0.010000*%
G04 APERTURE END LIST*
G54D10*
G54D11*
X35050Y-22250D03*
X32950Y-22250D03*
X35050Y-22750D03*
X35050Y-23250D03*
X35050Y-23750D03*
X32950Y-22750D03*
X32950Y-23250D03*
X32950Y-23750D03*
G54D12*
X35200Y-24800D03*
X34400Y-21200D03*
X35600Y-21200D03*
X32800Y-24800D03*
X34000Y-24800D03*
G54D13*
X32625Y-21400D03*
X33375Y-21400D03*
G54D14*
X34400Y-24000D02*
X35200Y-24800D01*
X34400Y-22300D02*
X34400Y-24000D01*
X34450Y-22250D02*
X34400Y-22300D01*
X35050Y-22250D02*
X34450Y-22250D01*
X34400Y-21200D02*
X34400Y-21400D01*
X35450Y-22750D02*
X35050Y-22750D01*
X35600Y-22600D02*
X35450Y-22750D01*
X35600Y-22000D02*
X35600Y-22600D01*
X35400Y-21800D02*
X35600Y-22000D01*
X34800Y-21800D02*
X35400Y-21800D01*
X34400Y-21400D02*
X34800Y-21800D01*
X35550Y-23750D02*
X35900Y-23400D01*
X35050Y-23750D02*
X35550Y-23750D01*
X35900Y-23400D02*
X35900Y-21500D01*
X35900Y-21500D02*
X35600Y-21200D01*
X32800Y-24800D02*
X32800Y-24600D01*
X32400Y-21625D02*
X32625Y-21400D01*
X32400Y-24200D02*
X32400Y-21625D01*
X32800Y-24600D02*
X32400Y-24200D01*
X33375Y-21400D02*
X33375Y-21575D01*
X33450Y-22750D02*
X32950Y-22750D01*
X33600Y-22600D02*
X33450Y-22750D01*
X33600Y-21800D02*
X33600Y-22600D01*
X33375Y-21575D02*
X33600Y-21800D01*
G54D10*
G36*
X36150Y-25350D02*
X34112Y-25350D01*
X34349Y-25349D01*
X34441Y-25311D01*
X34511Y-25241D01*
X34549Y-25150D01*
X34549Y-25051D01*
X34550Y-24912D01*
X34488Y-24850D01*
X34100Y-24850D01*
X34050Y-24850D01*
X33950Y-24850D01*
X33950Y-24750D01*
X33950Y-24312D01*
X33888Y-24250D01*
X33651Y-24251D01*
X33559Y-24289D01*
X33489Y-24359D01*
X33475Y-24392D01*
X33475Y-23862D01*
X33413Y-23800D01*
X33000Y-23800D01*
X33000Y-24056D01*
X33062Y-24118D01*
X33176Y-24117D01*
X33275Y-24117D01*
X33366Y-24079D01*
X33436Y-24009D01*
X33474Y-23917D01*
X33475Y-23862D01*
X33475Y-24392D01*
X33451Y-24450D01*
X33451Y-24549D01*
X33450Y-24688D01*
X33512Y-24750D01*
X33950Y-24750D01*
X33950Y-24850D01*
X33900Y-24850D01*
X33512Y-24850D01*
X33450Y-24912D01*
X33451Y-25051D01*
X33451Y-25150D01*
X33489Y-25241D01*
X33559Y-25311D01*
X33651Y-25349D01*
X33888Y-25350D01*
X32250Y-25350D01*
X32250Y-24513D01*
X32251Y-24514D01*
X32251Y-24549D01*
X32251Y-25149D01*
X32289Y-25241D01*
X32359Y-25311D01*
X32450Y-25349D01*
X32549Y-25349D01*
X33149Y-25349D01*
X33241Y-25311D01*
X33311Y-25241D01*
X33349Y-25150D01*
X33349Y-25051D01*
X33349Y-24451D01*
X33311Y-24359D01*
X33241Y-24289D01*
X33150Y-24251D01*
X33051Y-24251D01*
X32914Y-24251D01*
X32781Y-24117D01*
X32838Y-24118D01*
X32900Y-24056D01*
X32900Y-23850D01*
X32900Y-23800D01*
X32900Y-23700D01*
X33000Y-23700D01*
X33050Y-23700D01*
X33413Y-23700D01*
X33475Y-23638D01*
X33474Y-23583D01*
X33439Y-23500D01*
X33474Y-23418D01*
X33474Y-23319D01*
X33474Y-23083D01*
X33470Y-23073D01*
X33575Y-23053D01*
X33576Y-23053D01*
X33682Y-22982D01*
X33832Y-22832D01*
X33903Y-22726D01*
X33903Y-22725D01*
X33928Y-22600D01*
X33928Y-21800D01*
X33903Y-21675D01*
X33903Y-21674D01*
X33832Y-21568D01*
X33799Y-21535D01*
X33799Y-21076D01*
X33761Y-20984D01*
X33691Y-20914D01*
X33600Y-20876D01*
X33501Y-20876D01*
X33151Y-20876D01*
X33059Y-20914D01*
X33000Y-20973D01*
X32941Y-20914D01*
X32850Y-20876D01*
X32751Y-20876D01*
X32401Y-20876D01*
X32309Y-20914D01*
X32250Y-20973D01*
X32250Y-20650D01*
X36150Y-20650D01*
X36150Y-21294D01*
X36149Y-21293D01*
X36149Y-20851D01*
X36111Y-20759D01*
X36041Y-20689D01*
X35950Y-20651D01*
X35851Y-20651D01*
X35251Y-20651D01*
X35159Y-20689D01*
X35089Y-20759D01*
X35051Y-20850D01*
X35051Y-20949D01*
X35051Y-21472D01*
X34949Y-21472D01*
X34949Y-21451D01*
X34949Y-20851D01*
X34911Y-20759D01*
X34841Y-20689D01*
X34750Y-20651D01*
X34651Y-20651D01*
X34051Y-20651D01*
X33959Y-20689D01*
X33889Y-20759D01*
X33851Y-20850D01*
X33851Y-20949D01*
X33851Y-21549D01*
X33889Y-21641D01*
X33959Y-21711D01*
X34050Y-21749D01*
X34149Y-21749D01*
X34285Y-21749D01*
X34458Y-21922D01*
X34450Y-21922D01*
X34449Y-21922D01*
X34324Y-21947D01*
X34218Y-22018D01*
X34216Y-22020D01*
X34168Y-22068D01*
X34097Y-22174D01*
X34072Y-22300D01*
X34072Y-24000D01*
X34097Y-24126D01*
X34168Y-24232D01*
X34186Y-24250D01*
X34112Y-24250D01*
X34050Y-24312D01*
X34050Y-24750D01*
X34488Y-24750D01*
X34550Y-24688D01*
X34549Y-24613D01*
X34651Y-24715D01*
X34651Y-25149D01*
X34689Y-25241D01*
X34759Y-25311D01*
X34850Y-25349D01*
X34949Y-25349D01*
X35549Y-25349D01*
X35641Y-25311D01*
X35711Y-25241D01*
X35749Y-25150D01*
X35749Y-25051D01*
X35749Y-24451D01*
X35711Y-24359D01*
X35641Y-24289D01*
X35550Y-24251D01*
X35451Y-24251D01*
X35115Y-24251D01*
X34981Y-24117D01*
X35374Y-24117D01*
X35466Y-24079D01*
X35467Y-24078D01*
X35550Y-24078D01*
X35675Y-24053D01*
X35676Y-24053D01*
X35782Y-23982D01*
X36131Y-23633D01*
X36131Y-23632D01*
X36132Y-23632D01*
X36150Y-23605D01*
X36150Y-25350D01*
X36150Y-25350D01*
G37*
G54D15*
X36150Y-25350D02*
X34112Y-25350D01*
X34349Y-25349D01*
X34441Y-25311D01*
X34511Y-25241D01*
X34549Y-25150D01*
X34549Y-25051D01*
X34550Y-24912D01*
X34488Y-24850D01*
X34100Y-24850D01*
X34050Y-24850D01*
X33950Y-24850D01*
X33950Y-24750D01*
X33950Y-24312D01*
X33888Y-24250D01*
X33651Y-24251D01*
X33559Y-24289D01*
X33489Y-24359D01*
X33475Y-24392D01*
X33475Y-23862D01*
X33413Y-23800D01*
X33000Y-23800D01*
X33000Y-24056D01*
X33062Y-24118D01*
X33176Y-24117D01*
X33275Y-24117D01*
X33366Y-24079D01*
X33436Y-24009D01*
X33474Y-23917D01*
X33475Y-23862D01*
X33475Y-24392D01*
X33451Y-24450D01*
X33451Y-24549D01*
X33450Y-24688D01*
X33512Y-24750D01*
X33950Y-24750D01*
X33950Y-24850D01*
X33900Y-24850D01*
X33512Y-24850D01*
X33450Y-24912D01*
X33451Y-25051D01*
X33451Y-25150D01*
X33489Y-25241D01*
X33559Y-25311D01*
X33651Y-25349D01*
X33888Y-25350D01*
X32250Y-25350D01*
X32250Y-24513D01*
X32251Y-24514D01*
X32251Y-24549D01*
X32251Y-25149D01*
X32289Y-25241D01*
X32359Y-25311D01*
X32450Y-25349D01*
X32549Y-25349D01*
X33149Y-25349D01*
X33241Y-25311D01*
X33311Y-25241D01*
X33349Y-25150D01*
X33349Y-25051D01*
X33349Y-24451D01*
X33311Y-24359D01*
X33241Y-24289D01*
X33150Y-24251D01*
X33051Y-24251D01*
X32914Y-24251D01*
X32781Y-24117D01*
X32838Y-24118D01*
X32900Y-24056D01*
X32900Y-23850D01*
X32900Y-23800D01*
X32900Y-23700D01*
X33000Y-23700D01*
X33050Y-23700D01*
X33413Y-23700D01*
X33475Y-23638D01*
X33474Y-23583D01*
X33439Y-23500D01*
X33474Y-23418D01*
X33474Y-23319D01*
X33474Y-23083D01*
X33470Y-23073D01*
X33575Y-23053D01*
X33576Y-23053D01*
X33682Y-22982D01*
X33832Y-22832D01*
X33903Y-22726D01*
X33903Y-22725D01*
X33928Y-22600D01*
X33928Y-21800D01*
X33903Y-21675D01*
X33903Y-21674D01*
X33832Y-21568D01*
X33799Y-21535D01*
X33799Y-21076D01*
X33761Y-20984D01*
X33691Y-20914D01*
X33600Y-20876D01*
X33501Y-20876D01*
X33151Y-20876D01*
X33059Y-20914D01*
X33000Y-20973D01*
X32941Y-20914D01*
X32850Y-20876D01*
X32751Y-20876D01*
X32401Y-20876D01*
X32309Y-20914D01*
X32250Y-20973D01*
X32250Y-20650D01*
X36150Y-20650D01*
X36150Y-21294D01*
X36149Y-21293D01*
X36149Y-20851D01*
X36111Y-20759D01*
X36041Y-20689D01*
X35950Y-20651D01*
X35851Y-20651D01*
X35251Y-20651D01*
X35159Y-20689D01*
X35089Y-20759D01*
X35051Y-20850D01*
X35051Y-20949D01*
X35051Y-21472D01*
X34949Y-21472D01*
X34949Y-21451D01*
X34949Y-20851D01*
X34911Y-20759D01*
X34841Y-20689D01*
X34750Y-20651D01*
X34651Y-20651D01*
X34051Y-20651D01*
X33959Y-20689D01*
X33889Y-20759D01*
X33851Y-20850D01*
X33851Y-20949D01*
X33851Y-21549D01*
X33889Y-21641D01*
X33959Y-21711D01*
X34050Y-21749D01*
X34149Y-21749D01*
X34285Y-21749D01*
X34458Y-21922D01*
X34450Y-21922D01*
X34449Y-21922D01*
X34324Y-21947D01*
X34218Y-22018D01*
X34216Y-22020D01*
X34168Y-22068D01*
X34097Y-22174D01*
X34072Y-22300D01*
X34072Y-24000D01*
X34097Y-24126D01*
X34168Y-24232D01*
X34186Y-24250D01*
X34112Y-24250D01*
X34050Y-24312D01*
X34050Y-24750D01*
X34488Y-24750D01*
X34550Y-24688D01*
X34549Y-24613D01*
X34651Y-24715D01*
X34651Y-25149D01*
X34689Y-25241D01*
X34759Y-25311D01*
X34850Y-25349D01*
X34949Y-25349D01*
X35549Y-25349D01*
X35641Y-25311D01*
X35711Y-25241D01*
X35749Y-25150D01*
X35749Y-25051D01*
X35749Y-24451D01*
X35711Y-24359D01*
X35641Y-24289D01*
X35550Y-24251D01*
X35451Y-24251D01*
X35115Y-24251D01*
X34981Y-24117D01*
X35374Y-24117D01*
X35466Y-24079D01*
X35467Y-24078D01*
X35550Y-24078D01*
X35675Y-24053D01*
X35676Y-24053D01*
X35782Y-23982D01*
X36131Y-23633D01*
X36131Y-23632D01*
X36132Y-23632D01*
X36150Y-23605D01*
X36150Y-25350D01*
M02*
