<?xml version="1.0" standalone="no"?>
 <!DOCTYPE svg PUBLIC "-//W3C//DTD SVG 1.1//EN" 
 "http://www.w3.org/Graphics/SVG/1.1/DTD/svg11.dtd"> 
<svg xmlns="http://www.w3.org/2000/svg" version="1.1" 
    width="41.9989cm" height="29.7002cm" viewBox="0 0 165350 116930 ">
<title>SVG Picture created as bluetooth_breadboard_adapter-B_Cu.svg date 2014/09/25 15:22:47 </title>
  <desc>Picture generated by PCBNEW </desc>
<g style="fill:#000000; fill-opacity:1;stroke:#000000; stroke-opacity:1;
stroke-linecap:round; stroke-linejoin:round; "
 transform="translate(0 0) scale(1 1)">
</g>
<g style="fill:#000000; fill-opacity:0.0; 
stroke:#000000; stroke-width:39.3701; stroke-opacity:1; 
stroke-linecap:round; stroke-linejoin:round;">
<path d="M72950 50800
L73150 50800
" />
<path d="M72950 66400
L72950 50800
" />
<path d="M73150 66400
L72950 66400
" />
<path d="M83550 50800
L83550 51100
" />
<path d="M73150 50800
L83550 50800
" />
<path d="M83550 66400
L83550 51700
" />
<path d="M83450 66400
L83550 66400
" />
<path d="M83550 51100
L83550 51800
" />
<path d="M83450 66400
L73150 66400
" />
</g>
<g style="fill:#000000; fill-opacity:0.0; 
stroke:#000000; stroke-width:59.0551; stroke-opacity:1; 
stroke-linecap:round; stroke-linejoin:round;">
</g>
<g style="fill:#000000; fill-opacity:1.0; 
stroke:#000000; stroke-width:59.0551; stroke-opacity:1; 
stroke-linecap:round; stroke-linejoin:round;">
<circle cx="78286" cy="52092" r="600.472" /> 
<circle cx="80058" cy="53785" r="600.472" /> 
<circle cx="80058" cy="56423" r="600.472" /> 
<circle cx="77105" cy="54730" r="600.472" /> 
<circle cx="76081" cy="55124" r="600.472" /> 
<polyline style="fill-rule:evenodd;"
points="73379,65910
74120,65910
74120,65289
73379,65289
73379,65910
" /> 
</g>
<g style="fill:#000000; fill-opacity:1.0; 
stroke:#000000; stroke-width:680; stroke-opacity:1; 
stroke-linecap:round; stroke-linejoin:round;">
</g>
<g style="fill:#000000; fill-opacity:0.0; 
stroke:#000000; stroke-width:680; stroke-opacity:1; 
stroke-linecap:round; stroke-linejoin:round;">
<path d="M73810 64600
L73690 64600
" />
<path d="M73810 63600
L73690 63600
" />
<path d="M73810 62600
L73690 62600
" />
<path d="M73810 61600
L73690 61600
" />
<path d="M73810 60600
L73690 60600
" />
<path d="M73810 59600
L73690 59600
" />
<path d="M73810 58600
L73690 58600
" />
<path d="M73810 57600
L73690 57600
" />
<path d="M73810 56600
L73690 56600
" />
</g>
<g style="fill:#000000; fill-opacity:0.0; 
stroke:#000000; stroke-width:59.0551; stroke-opacity:1; 
stroke-linecap:round; stroke-linejoin:round;">
</g>
<g style="fill:#000000; fill-opacity:1.0; 
stroke:#000000; stroke-width:59.0551; stroke-opacity:1; 
stroke-linecap:round; stroke-linejoin:round;">
<polyline style="fill-rule:evenodd;"
points="83120,56289
82379,56289
82379,56910
83120,56910
83120,56289
" /> 
</g>
<g style="fill:#000000; fill-opacity:1.0; 
stroke:#000000; stroke-width:680; stroke-opacity:1; 
stroke-linecap:round; stroke-linejoin:round;">
</g>
<g style="fill:#000000; fill-opacity:0.0; 
stroke:#000000; stroke-width:680; stroke-opacity:1; 
stroke-linecap:round; stroke-linejoin:round;">
<path d="M82690 57600
L82810 57600
" />
<path d="M82690 58600
L82810 58600
" />
<path d="M82690 59600
L82810 59600
" />
<path d="M82690 60600
L82810 60600
" />
<path d="M82690 61600
L82810 61600
" />
<path d="M82690 62600
L82810 62600
" />
<path d="M82690 63600
L82810 63600
" />
<path d="M82690 64600
L82810 64600
" />
<path d="M82690 65600
L82810 65600
" />
</g>
<g style="fill:#000000; fill-opacity:0.0; 
stroke:#000000; stroke-width:59.0551; stroke-opacity:1; 
stroke-linecap:round; stroke-linejoin:round;">
</g>
<g style="fill:#000000; fill-opacity:1.0; 
stroke:#000000; stroke-width:59.0551; stroke-opacity:1; 
stroke-linecap:round; stroke-linejoin:round;">
<polyline style="fill-rule:evenodd;"
points="80803,64152
80803,64447
81296,64447
81296,64152
80803,64152
" /> 
<polyline style="fill-rule:evenodd;"
points="80803,63640
80803,63935
81296,63935
81296,63640
80803,63640
" /> 
<polyline style="fill-rule:evenodd;"
points="80803,63128
80803,63424
81296,63424
81296,63128
80803,63128
" /> 
<polyline style="fill-rule:evenodd;"
points="80803,62616
80803,62912
81296,62912
81296,62616
80803,62616
" /> 
<polyline style="fill-rule:evenodd;"
points="80803,62105
80803,62400
81296,62400
81296,62105
80803,62105
" /> 
<polyline style="fill-rule:evenodd;"
points="80803,61593
80803,61888
81296,61888
81296,61593
80803,61593
" /> 
<polyline style="fill-rule:evenodd;"
points="80803,61081
80803,61376
81296,61376
81296,61081
80803,61081
" /> 
<polyline style="fill-rule:evenodd;"
points="80803,60569
80803,60864
81296,60864
81296,60569
80803,60569
" /> 
<polyline style="fill-rule:evenodd;"
points="80803,60057
80803,60353
81296,60353
81296,60057
80803,60057
" /> 
<polyline style="fill-rule:evenodd;"
points="80803,59546
80803,59841
81296,59841
81296,59546
80803,59546
" /> 
<polyline style="fill-rule:evenodd;"
points="80803,59034
80803,59329
81296,59329
81296,59034
80803,59034
" /> 
<polyline style="fill-rule:evenodd;"
points="80803,58522
80803,58817
81296,58817
81296,58522
80803,58522
" /> 
<polyline style="fill-rule:evenodd;"
points="80803,58010
80803,58305
81296,58305
81296,58010
80803,58010
" /> 
<polyline style="fill-rule:evenodd;"
points="75292,58010
75292,58305
75784,58305
75784,58010
75292,58010
" /> 
<polyline style="fill-rule:evenodd;"
points="75292,58522
75292,58817
75784,58817
75784,58522
75292,58522
" /> 
<polyline style="fill-rule:evenodd;"
points="75292,59034
75292,59329
75784,59329
75784,59034
75292,59034
" /> 
<polyline style="fill-rule:evenodd;"
points="75292,59546
75292,59841
75784,59841
75784,59546
75292,59546
" /> 
<polyline style="fill-rule:evenodd;"
points="75292,60057
75292,60353
75784,60353
75784,60057
75292,60057
" /> 
<polyline style="fill-rule:evenodd;"
points="75292,60569
75292,60864
75784,60864
75784,60569
75292,60569
" /> 
<polyline style="fill-rule:evenodd;"
points="75292,61081
75292,61376
75784,61376
75784,61081
75292,61081
" /> 
<polyline style="fill-rule:evenodd;"
points="75292,61593
75292,61888
75784,61888
75784,61593
75292,61593
" /> 
<polyline style="fill-rule:evenodd;"
points="75292,62105
75292,62400
75784,62400
75784,62105
75292,62105
" /> 
<polyline style="fill-rule:evenodd;"
points="75292,62616
75292,62912
75784,62912
75784,62616
75292,62616
" /> 
<polyline style="fill-rule:evenodd;"
points="75292,63128
75292,63424
75784,63424
75784,63128
75292,63128
" /> 
<polyline style="fill-rule:evenodd;"
points="75292,63640
75292,63935
75784,63935
75784,63640
75292,63640
" /> 
<polyline style="fill-rule:evenodd;"
points="75292,64152
75292,64447
75784,64447
75784,64152
75292,64152
" /> 
</g>
<g style="fill:#000000; fill-opacity:1.0; 
stroke:#000000; stroke-width:100; stroke-opacity:1; 
stroke-linecap:round; stroke-linejoin:round;">
</g>
<g style="fill:#000000; fill-opacity:0.0; 
stroke:#000000; stroke-width:100; stroke-opacity:1; 
stroke-linecap:round; stroke-linejoin:round;">
<path d="M81073 63300
L81050 63276
" />
<path d="M80550 63276
L81050 63276
" />
<path d="M75150 55600
L75650 56100
" />
<path d="M77550 56600
L77050 56100
" />
<path d="M77050 56100
L75650 56100
" />
<path d="M77750 56800
L77550 56600
" />
<path d="M77750 60500
L77750 56800
" />
<path d="M80526 63276
L77750 60500
" />
<path d="M80550 63276
L80526 63276
" />
<path d="M81426 63276
L81550 63400
" />
<path d="M81050 63276
L81426 63276
" />
<path d="M75150 54000
L75150 55600
" />
<path d="M75350 53800
L75150 54000
" />
<path d="M78286 52864
L77350 53800
" />
<path d="M77350 53800
L75350 53800
" />
<path d="M78286 52092
L78286 52864
" />
<path d="M81550 63400
L81550 65000
" />
<path d="M81550 65000
L82150 65600
" />
<path d="M82150 65600
L82750 65600
" />
<path d="M78450 60100
L78450 57100
" />
<path d="M80602 62252
L78450 60100
" />
<path d="M81050 62252
L80602 62252
" />
<path d="M81097 62300
L81050 62252
" />
<path d="M80150 56515
L80058 56423
" />
<path d="M80058 53785
L80058 56423
" />
<path d="M78450 57100
L79127 56423
" />
<path d="M79127 56423
L80058 56423
" />
<path d="M81302 62252
L81050 62252
" />
<path d="M82650 63600
L81302 62252
" />
<path d="M82750 63600
L82650 63600
" />
<path d="M80585 62764
L78150 60329
" />
<path d="M81050 62764
L80585 62764
" />
<path d="M77105 54730
L77520 54730
" />
<path d="M78150 60329
L78150 55775
" />
<path d="M78150 55775
L77105 54730
" />
<path d="M76475 54730
L76081 55124
" />
<path d="M77105 54730
L76475 54730
" />
<path d="M81314 62764
L81050 62764
" />
<path d="M81850 63300
L81314 62764
" />
<path d="M81850 64400
L81850 63300
" />
<path d="M82050 64600
L81850 64400
" />
<path d="M82750 64600
L82050 64600
" />
<path d="M75173 63276
L74950 63500
" />
<path d="M75538 63276
L75173 63276
" />
<path d="M74950 63500
L74950 65000
" />
<path d="M74950 65000
L74350 65600
" />
<path d="M74350 65600
L73950 65600
" />
<path d="M75185 62764
L74650 63300
" />
<path d="M75538 62764
L75185 62764
" />
<path d="M74650 63300
L74650 64100
" />
<path d="M74650 64100
L74150 64600
" />
<path d="M74150 64600
L73950 64600
" />
<path d="M74997 62252
L74850 62400
" />
<path d="M75538 62252
L74997 62252
" />
<path d="M74850 62400
L74850 62700
" />
<path d="M74850 62700
L73950 63600
" />
<path d="M74909 61740
L74550 62100
" />
<path d="M74550 62100
L74550 62500
" />
<path d="M74550 62500
L74450 62600
" />
<path d="M75538 61740
L74909 61740
" />
<path d="M74450 62600
L73950 62600
" />
<path d="M74820 61229
L74450 61600
" />
<path d="M75538 61229
L74820 61229
" />
<path d="M74450 61600
L73950 61600
" />
<path d="M74750 60600
L73950 60600
" />
<path d="M74867 60717
L74750 60600
" />
<path d="M75538 60717
L74867 60717
" />
<path d="M74450 59600
L73950 59600
" />
<path d="M75055 60205
L74450 59600
" />
<path d="M75538 60205
L75055 60205
" />
<path d="M74062 58600
L73950 58600
" />
<path d="M75156 59693
L74062 58600
" />
<path d="M75538 59693
L75156 59693
" />
<path d="M74750 58400
L73950 57600
" />
<path d="M74750 58700
L74750 58400
" />
<path d="M75231 59181
L74750 58700
" />
<path d="M75538 59181
L75231 59181
" />
<path d="M74750 57500
L74750 57000
" />
<path d="M74350 56600
L73950 56600
" />
<path d="M74750 57000
L74350 56600
" />
<path d="M73950 56600
L73950 56700
" />
<path d="M74750 58100
L75050 58400
" />
<path d="M74750 57500
L74750 58100
" />
<path d="M75120 58670
L75050 58600
" />
<path d="M75050 58600
L75050 58400
" />
<path d="M75538 58670
L75120 58670
" />
<path d="M82350 57600
L82750 57600
" />
<path d="M82050 57900
L82350 57600
" />
<path d="M81050 58670
L81279 58670
" />
<path d="M81679 58670
L82050 58300
" />
<path d="M82050 58300
L82050 57900
" />
<path d="M81050 58670
L81679 58670
" />
<path d="M82250 58600
L81668 59181
" />
<path d="M82750 58600
L82250 58600
" />
<path d="M81668 59181
L81050 59181
" />
<path d="M81056 59700
L81050 59693
" />
<path d="M82043 59693
L82137 59600
" />
<path d="M81050 59693
L82043 59693
" />
<path d="M82137 59600
L82750 59600
" />
<path d="M81055 60200
L81050 60205
" />
<path d="M81455 60205
L81850 60600
" />
<path d="M81050 60205
L81455 60205
" />
<path d="M81850 60600
L82750 60600
" />
<path d="M82650 61600
L82150 61100
" />
<path d="M82750 61600
L82650 61600
" />
<path d="M82150 61100
L81750 61100
" />
<path d="M81750 61100
L81367 60717
" />
<path d="M81367 60717
L81050 60717
" />
<path d="M82250 62600
L82750 62600
" />
<path d="M82050 62400
L82250 62600
" />
<path d="M81379 61229
L82050 61900
" />
<path d="M82050 61900
L82050 62400
" />
<path d="M81050 61229
L81379 61229
" />
</g>
<g style="fill:#000000; fill-opacity:1.0; 
stroke:#000000; stroke-width:100; stroke-opacity:1; 
stroke-linecap:round; stroke-linejoin:round;">
<polyline style="fill-rule:evenodd;"
points="73219,56243
73260,56182
73451,56054
73677,56010
73822,56010
74048,56054
74239,56182
74318,56300
74350,56300
74464,56322
74562,56387
74962,56787
75027,56885
75050,57000
75050,57500
75050,57841
75050,57839
75120,57769
75212,57731
75312,57731
75863,57731
75955,57769
76025,57839
76063,57931
76063,58030
76063,58385
76051,58414
76063,58443
76063,58542
76063,58896
76051,58925
76063,58954
76063,59054
76063,59408
76051,59437
76063,59466
76063,59566
76063,59920
76051,59949
76063,59978
76063,60078
76063,60432
76051,60461
76063,60490
76063,60589
76063,60944
76051,60973
76063,61002
76063,61101
76063,61456
76051,61485
76063,61514
76063,61613
76063,61967
76051,61996
76063,62025
76063,62125
76063,62479
76051,62508
76063,62537
76063,62637
76063,62991
76051,63020
76063,63049
76063,63148
76063,63503
76051,63532
76063,63561
76063,63660
76063,63675
76001,63738
75588,63738
75588,63730
75488,63730
75488,63738
75480,63738
75480,63838
75488,63838
75488,63935
75488,64152
75488,64250
75480,64250
75480,64350
75488,64350
75488,64357
75588,64357
75588,64350
75588,64250
75588,64152
75588,63935
75588,63838
76001,63838
76063,63900
76063,63915
76063,64015
76051,64044
76063,64073
76063,64172
76063,64187
76001,64250
75588,64250
75588,64350
76001,64350
76063,64412
76063,64427
76063,64526
76054,64550
80533,64550
80524,64526
80524,64427
80524,64412
80524,64187
80524,64172
80524,64073
80536,64044
80524,64015
80524,63915
80524,63900
80586,63838
81000,63838
81000,63935
81000,64152
81000,64250
80586,64250
80524,64187
80524,64412
80586,64350
81000,64350
81000,64357
81100,64357
81100,64350
81107,64350
81107,64250
81100,64250
81100,64152
81100,63935
81100,63838
81107,63838
81107,63738
81100,63738
81100,63730
81000,63730
81000,63738
80586,63738
80524,63675
80524,63660
80524,63575
80411,63553
80411,63553
80314,63488
77537,60712
77472,60614
77450,60500
77450,60500
77450,56924
77337,56812
77337,56812
77337,56812
76925,56400
75650,56400
75650,56399
75535,56377
75535,56377
75437,56312
74937,55812
74937,55812
74872,55714
74850,55600
74850,55600
74850,54000
74872,53885
74937,53787
74937,53787
75137,53587
75235,53522
75350,53500
77225,53500
77858,52867
77788,52838
77540,52591
77406,52267
77405,51917
77539,51594
77786,51346
78110,51212
78460,51211
78783,51345
79031,51592
79165,51916
79166,52266
79032,52589
78785,52837
78573,52925
78563,52978
78498,53076
77594,53979
77602,53983
77850,54230
77984,54554
77985,54904
77902,55103
78362,55562
78427,55660
78450,55775
78450,56675
78914,56210
79012,56145
79127,56123
79229,56123
79311,55925
79558,55677
79758,55594
79758,54613
79560,54531
79312,54284
79178,53960
79177,53610
79311,53287
79558,53039
79882,52905
80232,52904
80555,53038
80803,53285
80937,53609
80938,53959
80804,54282
80557,54530
80358,54613
80358,55594
80555,55676
80803,55923
80937,56247
80938,56597
80804,56920
80557,57168
80233,57302
79883,57303
79560,57169
79312,56922
79236,56738
78750,57224
78750,59975
80576,61801
80586,61790
81000,61790
81000,61798
81100,61798
81100,61790
81107,61790
81107,61690
81100,61690
81100,61683
81000,61683
81000,61690
80586,61690
80524,61628
80524,61613
80524,61514
80536,61485
80524,61456
80524,61356
80524,61002
80536,60973
80524,60944
80524,60844
80524,60490
80536,60461
80524,60432
80524,60332
80524,59978
80536,59949
80524,59920
80524,59821
80524,59466
80536,59437
80524,59408
80524,59309
80524,58954
80536,58925
80524,58896
80524,58797
80524,58443
80536,58414
80524,58385
80524,58285
80524,58270
80524,58045
80524,58030
80524,57931
80562,57839
80632,57769
80724,57731
80937,57731
81000,57793
81000,58108
80586,58108
80524,58045
80524,58270
80586,58208
81000,58208
81000,58216
81100,58216
81100,58208
81100,58108
81100,57793
81162,57731
81375,57731
81467,57769
81537,57839
81575,57931
81575,58030
81575,58045
81513,58108
81100,58108
81100,58208
81513,58208
81575,58270
81575,58285
81575,58350
81750,58175
81750,57900
81772,57785
81772,57785
81798,57746
81837,57687
82127,57398
82132,57374
82260,57182
82268,57176
82208,57151
82138,57081
82100,56989
82100,56712
82100,56487
82100,56210
82138,56118
82208,56048
82300,56010
82399,56010
82637,56010
82700,56072
82700,56550
82162,56550
82100,56487
82100,56712
82162,56650
82700,56650
82700,56657
82800,56657
82800,56650
82807,56650
82807,56550
82800,56550
82800,56072
82862,56010
83100,56010
83199,56010
83280,56043
83280,51800
83280,51700
83280,51100
83280,51069
73219,51069
73219,56243
" /> 
</g>
<g style="fill:#FFFFFF; fill-opacity:1.0; 
stroke:#FFFFFF; stroke-width:59.0551; stroke-opacity:1; 
stroke-linecap:round; stroke-linejoin:round;">
<circle cx="78286" cy="52092" r="226.472" /> 
<circle cx="80058" cy="53785" r="226.472" /> 
<circle cx="80058" cy="56423" r="226.472" /> 
<circle cx="77105" cy="54730" r="226.472" /> 
<circle cx="76081" cy="55124" r="226.472" /> 
<circle cx="73750" cy="65600" r="170.472" /> 
<circle cx="73750" cy="64600" r="170.472" /> 
<circle cx="73750" cy="63600" r="170.472" /> 
<circle cx="73750" cy="62600" r="170.472" /> 
<circle cx="73750" cy="61600" r="170.472" /> 
<circle cx="73750" cy="60600" r="170.472" /> 
<circle cx="73750" cy="59600" r="170.472" /> 
<circle cx="73750" cy="58600" r="170.472" /> 
<circle cx="73750" cy="57600" r="170.472" /> 
<circle cx="73750" cy="56600" r="170.472" /> 
<circle cx="82750" cy="56600" r="170.472" /> 
<circle cx="82750" cy="57600" r="170.472" /> 
<circle cx="82750" cy="58600" r="170.472" /> 
<circle cx="82750" cy="59600" r="170.472" /> 
<circle cx="82750" cy="60600" r="170.472" /> 
<circle cx="82750" cy="61600" r="170.472" /> 
<circle cx="82750" cy="62600" r="170.472" /> 
<circle cx="82750" cy="63600" r="170.472" /> 
<circle cx="82750" cy="64600" r="170.472" /> 
<circle cx="82750" cy="65600" r="170.472" /> 
</g> 
</svg>
