<?xml version="1.0" standalone="no"?>
 <!DOCTYPE svg PUBLIC "-//W3C//DTD SVG 1.1//EN" 
 "http://www.w3.org/Graphics/SVG/1.1/DTD/svg11.dtd"> 
<svg xmlns="http://www.w3.org/2000/svg" version="1.1" 
    width="41.9989cm" height="29.7002cm" viewBox="0 0 165350 116930 ">
<title>SVG Picture created as bluetooth_breadboard_adapter-F_SilkS.svg date 2014/09/25 15:22:47 </title>
  <desc>Picture generated by PCBNEW </desc>
<g style="fill:#000000; fill-opacity:1;stroke:#000000; stroke-opacity:1;
stroke-linecap:round; stroke-linejoin:round; "
 transform="translate(0 0) scale(1 1)">
</g>
<g style="fill:#000000; fill-opacity:0.0; 
stroke:#000000; stroke-width:39.3701; stroke-opacity:1; 
stroke-linecap:round; stroke-linejoin:round;">
<path d="M72950 50800
L73150 50800
" />
<path d="M72950 66400
L72950 50800
" />
<path d="M73150 66400
L72950 66400
" />
</g>
<g style="fill:#000000; fill-opacity:0.0; 
stroke:#000000; stroke-width:78.7402; stroke-opacity:1; 
stroke-linecap:round; stroke-linejoin:round;">
<path d="M75846 56778
L75846 56384
L75715 56665
L75584 56384
L75584 56778
" />
<path d="M75265 56571
L75396 56571
" />
<path d="M75396 56778
L75396 56384
L75209 56384
" />
<path d="M74928 56571
L74871 56590
L74853 56609
L74834 56646
L74834 56703
L74853 56740
L74871 56759
L74909 56778
L75059 56778
L75059 56384
L74928 56384
L74890 56403
L74871 56421
L74853 56459
L74853 56496
L74871 56534
L74890 56553
L74928 56571
L75059 56571
" />
<path d="M76090 57384
L75959 57778
L75828 57384
" />
<path d="M75621 57384
L75546 57384
L75509 57403
L75471 57440
L75453 57515
L75453 57646
L75471 57721
L75509 57759
L75546 57778
L75621 57778
L75659 57759
L75696 57721
L75715 57646
L75715 57515
L75696 57440
L75659 57403
L75621 57384
" />
<path d="M75096 57778
L75284 57778
L75284 57384
" />
<path d="M74965 57628
L74665 57628
" />
<path d="M74815 57778
L74815 57478
" />
<path d="M76090 58384
L75959 58778
L75828 58384
" />
<path d="M75621 58384
L75546 58384
L75509 58403
L75471 58440
L75453 58515
L75453 58646
L75471 58721
L75509 58759
L75546 58778
L75621 58778
L75659 58759
L75696 58721
L75715 58646
L75715 58515
L75696 58440
L75659 58403
L75621 58384
" />
<path d="M75096 58778
L75284 58778
L75284 58384
" />
<path d="M74965 58628
L74665 58628
" />
<path d="M75465 59778
L75596 59590
" />
<path d="M75690 59778
L75690 59384
L75540 59384
L75503 59403
L75484 59421
L75465 59459
L75465 59515
L75484 59553
L75503 59571
L75540 59590
L75690 59590
" />
<path d="M75315 59759
L75259 59778
L75165 59778
L75128 59759
L75109 59740
L75090 59703
L75090 59665
L75109 59628
L75128 59609
L75165 59590
L75240 59571
L75278 59553
L75296 59534
L75315 59496
L75315 59459
L75296 59421
L75278 59403
L75240 59384
L75146 59384
L75090 59403
" />
<path d="M74978 59384
L74753 59384
" />
<path d="M74865 59778
L74865 59384
" />
<path d="M75746 60384
L75521 60384
" />
<path d="M75634 60778
L75634 60384
" />
<path d="M75428 60384
L75165 60778
" />
<path d="M75165 60384
L75428 60778
" />
<path d="M75015 60778
L75015 60384
L74921 60384
L74865 60403
L74828 60440
L74809 60478
L74790 60553
L74790 60609
L74809 60684
L74828 60721
L74865 60759
L74921 60778
L75015 60778
" />
<path d="M75512 61778
L75643 61590
" />
<path d="M75737 61778
L75737 61384
L75587 61384
L75549 61403
L75531 61421
L75512 61459
L75512 61515
L75531 61553
L75549 61571
L75587 61590
L75737 61590
" />
<path d="M75381 61384
L75118 61778
" />
<path d="M75118 61384
L75381 61778
" />
<path d="M74968 61778
L74968 61384
L74875 61384
L74818 61403
L74781 61440
L74762 61478
L74743 61553
L74743 61609
L74762 61684
L74781 61721
L74818 61759
L74875 61778
L74968 61778
" />
<path d="M75615 62571
L75746 62571
" />
<path d="M75746 62778
L75746 62384
L75559 62384
" />
<path d="M75446 62384
L75353 62778
L75278 62496
L75203 62778
L75109 62384
" />
<path d="M74959 62778
L74959 62384
L74865 62384
L74809 62403
L74771 62440
L74753 62478
L74734 62553
L74734 62609
L74753 62684
L74771 62721
L74809 62759
L74865 62778
L74959 62778
" />
<path d="M75884 63471
L75828 63490
L75809 63509
L75790 63546
L75790 63603
L75809 63640
L75828 63659
L75865 63678
L76015 63678
L76015 63284
L75884 63284
L75846 63303
L75828 63321
L75809 63359
L75809 63396
L75828 63434
L75846 63453
L75884 63471
L76015 63471
" />
<path d="M75640 63565
L75453 63565
" />
<path d="M75678 63678
L75546 63284
L75415 63678
" />
<path d="M75059 63640
L75078 63659
L75134 63678
L75171 63678
L75228 63659
L75265 63621
L75284 63584
L75303 63509
L75303 63453
L75284 63378
L75265 63340
L75228 63303
L75171 63284
L75134 63284
L75078 63303
L75059 63321
" />
<path d="M74890 63678
L74890 63284
" />
<path d="M74665 63678
L74834 63453
" />
<path d="M74665 63284
L74890 63509
" />
<path d="M77715 64778
L77715 64384
L77565 64384
L77527 64403
L77509 64421
L77490 64459
L77490 64515
L77509 64553
L77527 64571
L77565 64590
L77715 64590
" />
<path d="M77134 64778
L77321 64778
L77321 64384
" />
<path d="M77021 64665
L76834 64665
" />
<path d="M77059 64778
L76928 64384
L76796 64778
" />
<path d="M76590 64590
L76590 64778
" />
<path d="M76721 64384
L76590 64590
L76459 64384
" />
<path d="M76046 64365
L76384 64871
" />
<path d="M75915 64778
L75915 64384
L75784 64665
L75653 64384
L75653 64778
" />
<path d="M75465 64384
L75465 64703
L75446 64740
L75428 64759
L75390 64778
L75315 64778
L75278 64759
L75259 64740
L75240 64703
L75240 64384
" />
<path d="M75109 64384
L74884 64384
" />
<path d="M74997 64778
L74997 64384
" />
<path d="M74753 64571
L74622 64571
" />
<path d="M74565 64778
L74753 64778
L74753 64384
L74565 64384
" />
<path d="M75593 65778
L75818 65778
" />
<path d="M75706 65778
L75706 65384
L75743 65440
L75781 65478
L75818 65496
" />
<path d="M75481 65384
L75350 65778
L75218 65384
" />
<path d="M75031 65553
L75068 65534
L75087 65515
L75106 65478
L75106 65459
L75087 65421
L75068 65403
L75031 65384
L74956 65384
L74918 65403
L74900 65421
L74881 65459
L74881 65478
L74900 65515
L74918 65534
L74956 65553
L75031 65553
L75068 65571
L75087 65590
L75106 65628
L75106 65703
L75087 65740
L75068 65759
L75031 65778
L74956 65778
L74918 65759
L74900 65740
L74881 65703
L74881 65628
L74900 65590
L74918 65571
L74956 65553
" />
<path d="M81962 65759
L81906 65778
L81812 65778
L81774 65759
L81756 65740
L81737 65703
L81737 65665
L81756 65628
L81774 65609
L81812 65590
L81887 65571
L81924 65553
L81943 65534
L81962 65496
L81962 65459
L81943 65421
L81924 65403
L81887 65384
L81793 65384
L81737 65403
" />
<path d="M81568 65778
L81568 65384
L81418 65384
L81381 65403
L81362 65421
L81343 65459
L81343 65515
L81362 65553
L81381 65571
L81418 65590
L81568 65590
" />
<path d="M81175 65778
L81175 65384
" />
<path d="M80950 65778
L81118 65553
" />
<path d="M80950 65384
L81175 65609
" />
<path d="M80781 65778
L80781 65384
L80556 65778
L80556 65384
" />
<path d="M82012 64759
L81956 64778
L81862 64778
L81824 64759
L81806 64740
L81787 64703
L81787 64665
L81806 64628
L81824 64609
L81862 64590
L81937 64571
L81974 64553
L81993 64534
L82012 64496
L82012 64459
L81993 64421
L81974 64403
L81937 64384
L81843 64384
L81787 64403
" />
<path d="M81618 64778
L81618 64384
L81468 64384
L81431 64403
L81412 64421
L81393 64459
L81393 64515
L81412 64553
L81431 64571
L81468 64590
L81618 64590
" />
<path d="M81224 64778
L81224 64384
" />
<path d="M81000 64778
L81168 64553
" />
<path d="M81000 64384
L81224 64609
" />
<path d="M80643 64778
L80831 64778
L80831 64384
" />
<path d="M80512 64778
L80512 64384
L80362 64384
L80325 64403
L80306 64421
L80287 64459
L80287 64515
L80306 64553
L80325 64571
L80362 64590
L80512 64590
" />
<path d="M82049 63759
L81993 63778
L81899 63778
L81862 63759
L81843 63740
L81824 63703
L81824 63665
L81843 63628
L81862 63609
L81899 63590
L81974 63571
L82012 63553
L82031 63534
L82049 63496
L82049 63459
L82031 63421
L82012 63403
L81974 63384
L81881 63384
L81824 63403
" />
<path d="M81656 63778
L81656 63384
L81506 63384
L81468 63403
L81449 63421
L81431 63459
L81431 63515
L81449 63553
L81468 63571
L81506 63590
L81656 63590
" />
<path d="M81262 63778
L81262 63384
" />
<path d="M81037 63778
L81206 63553
" />
<path d="M81037 63384
L81262 63609
" />
<path d="M80643 63778
L80775 63590
" />
<path d="M80868 63778
L80868 63384
L80718 63384
L80681 63403
L80662 63421
L80643 63459
L80643 63515
L80662 63553
L80681 63571
L80718 63590
L80868 63590
" />
<path d="M80475 63778
L80475 63384
L80325 63384
L80287 63403
L80268 63421
L80250 63459
L80250 63515
L80268 63553
L80287 63571
L80325 63590
L80475 63590
" />
<path d="M81871 62678
L81871 62284
L81740 62565
L81609 62284
L81609 62678
" />
<path d="M81421 62678
L81421 62284
" />
<path d="M81009 62640
L81028 62659
L81084 62678
L81121 62678
L81178 62659
L81215 62621
L81234 62584
L81253 62509
L81253 62453
L81234 62378
L81215 62340
L81178 62303
L81121 62284
L81084 62284
L81028 62303
L81009 62321
" />
<path d="M81996 61384
L81865 61778
L81734 61384
" />
<path d="M81603 61778
L81603 61384
L81471 61665
L81340 61384
L81340 61778
" />
<path d="M81153 61778
L81153 61384
" />
<path d="M80740 61740
L80759 61759
L80815 61778
L80853 61778
L80909 61759
L80946 61721
L80965 61684
L80984 61609
L80984 61553
L80965 61478
L80946 61440
L80909 61403
L80853 61384
L80815 61384
L80759 61403
L80740 61421
" />
<path d="M81856 60571
L81799 60590
L81781 60609
L81762 60646
L81762 60703
L81781 60740
L81799 60759
L81837 60778
L81987 60778
L81987 60384
L81856 60384
L81818 60403
L81799 60421
L81781 60459
L81781 60496
L81799 60534
L81818 60553
L81856 60571
L81987 60571
" />
<path d="M81406 60778
L81593 60778
L81593 60384
" />
<path d="M81275 60571
L81143 60571
" />
<path d="M81087 60778
L81275 60778
L81275 60384
L81087 60384
" />
<path d="M80918 60778
L80918 60384
L80825 60384
L80768 60403
L80731 60440
L80712 60478
L80693 60553
L80693 60609
L80712 60684
L80731 60721
L80768 60759
L80825 60778
L80918 60778
" />
<path d="M81731 59740
L81749 59759
L81806 59778
L81843 59778
L81899 59759
L81937 59721
L81956 59684
L81974 59609
L81974 59553
L81956 59478
L81937 59440
L81899 59403
L81843 59384
L81806 59384
L81749 59403
L81731 59421
" />
<path d="M81562 59778
L81562 59384
" />
<path d="M81562 59571
L81337 59571
" />
<path d="M81337 59778
L81337 59384
" />
<path d="M80943 59403
L80981 59384
L81037 59384
L81093 59403
L81131 59440
L81150 59478
L81168 59553
L81168 59609
L81150 59684
L81131 59721
L81093 59759
L81037 59778
L81000 59778
L80943 59759
L80925 59740
L80925 59609
L81000 59609
" />
<path d="M81762 58778
L81893 58590
" />
<path d="M81987 58778
L81987 58384
L81837 58384
L81799 58403
L81781 58421
L81762 58459
L81762 58515
L81781 58553
L81799 58571
L81837 58590
L81987 58590
" />
<path d="M81406 58778
L81593 58778
L81593 58384
" />
<path d="M81275 58571
L81143 58571
" />
<path d="M81087 58778
L81275 58778
L81275 58384
L81087 58384
" />
<path d="M80918 58778
L80918 58384
L80825 58384
L80768 58403
L80731 58440
L80712 58478
L80693 58553
L80693 58609
L80712 58684
L80731 58721
L80768 58759
L80825 58778
L80918 58778
" />
<path d="M81996 57384
L81865 57778
L81734 57384
" />
<path d="M81471 57571
L81415 57590
L81396 57609
L81378 57646
L81378 57703
L81396 57740
L81415 57759
L81453 57778
L81603 57778
L81603 57384
L81471 57384
L81434 57403
L81415 57421
L81396 57459
L81396 57496
L81415 57534
L81434 57553
L81471 57571
L81603 57571
" />
<path d="M81228 57665
L81040 57665
" />
<path d="M81265 57778
L81134 57384
L81003 57778
" />
<path d="M80928 57384
L80703 57384
" />
<path d="M80815 57778
L80815 57384
" />
<path d="M81749 56403
L81787 56384
L81843 56384
L81899 56403
L81937 56440
L81956 56478
L81974 56553
L81974 56609
L81956 56684
L81937 56721
L81899 56759
L81843 56778
L81806 56778
L81749 56759
L81731 56740
L81731 56609
L81806 56609
" />
<path d="M81562 56778
L81562 56384
L81337 56778
L81337 56384
" />
<path d="M81150 56778
L81150 56384
L81056 56384
L81000 56403
L80962 56440
L80943 56478
L80925 56553
L80925 56609
L80943 56684
L80962 56721
L81000 56759
L81056 56778
L81150 56778
" />
</g>
<g style="fill:#000000; fill-opacity:0.0; 
stroke:#000000; stroke-width:39.3701; stroke-opacity:1; 
stroke-linecap:round; stroke-linejoin:round;">
<path d="M83550 50800
L83550 51100
" />
<path d="M73150 50800
L83550 50800
" />
<path d="M83550 66400
L83550 51700
" />
<path d="M83450 66400
L83550 66400
" />
<path d="M83550 51100
L83550 51800
" />
<path d="M83450 66400
L73150 66400
" />
</g>
<g style="fill:#000000; fill-opacity:0.0; 
stroke:#000000; stroke-width:150; stroke-opacity:1; 
stroke-linecap:round; stroke-linejoin:round;">
<path d="M76869 51344
L76869 49769
" />
<path d="M76869 49769
L79231 49769
" />
<path d="M79231 49769
L79231 51344
" />
<path d="M79231 51344
L76869 50950
" />
<path d="M76869 50950
L76869 50557
" />
<path d="M76869 50557
L79231 50950
" />
<path d="M79231 50950
L79231 50557
" />
<path d="M79231 50557
L76869 50163
" />
<path d="M76869 50163
L76869 49769
" />
<path d="M76869 49769
L79231 50163
" />
<path d="M80412 51344
L75688 51344
" />
<path d="M75688 51344
L75688 57053
" />
<path d="M75688 57053
L80412 57053
" />
<path d="M80412 57053
L80412 51344
" />
<path d="M81393 53359
L81251 53938
" />
<path d="M81251 53938
L81141 53520
" />
<path d="M81141 53520
L81019 53942
" />
<path d="M81019 53942
L80885 53371
" />
<path d="M81952 53631
L81641 53627
" />
<path d="M81641 53627
L81637 53631
" />
<path d="M81637 53631
L81637 53627
" />
<path d="M81621 53347
L81621 53954
" />
<path d="M81971 53343
L81971 53961
" />
<path d="M81971 53961
L81967 53957
" />
<path d="M82188 53383
L82326 53351
" />
<path d="M82326 53351
L82452 53347
" />
<path d="M82452 53347
L82546 53426
" />
<path d="M82546 53426
L82558 53532
" />
<path d="M82558 53532
L82463 53627
" />
<path d="M82463 53627
L82310 53678
" />
<path d="M82310 53678
L82239 53741
" />
<path d="M82239 53741
L82223 53859
" />
<path d="M82223 53859
L82314 53946
" />
<path d="M82314 53946
L82440 53957
" />
<path d="M82440 53957
L82578 53914
" />
<path d="M82987 53343
L83085 53351
" />
<path d="M83085 53351
L83180 53446
" />
<path d="M83180 53446
L83215 53639
" />
<path d="M83215 53639
L83204 53776
" />
<path d="M83204 53776
L83125 53902
" />
<path d="M83125 53902
L83026 53950
" />
<path d="M83026 53950
L82904 53922
" />
<path d="M82904 53922
L82818 53851
" />
<path d="M82818 53851
L82790 53670
" />
<path d="M82790 53670
L82810 53509
" />
<path d="M82810 53509
L82853 53398
" />
<path d="M82853 53398
L82995 53347
" />
<path d="M82751 52666
L82853 52887
" />
<path d="M82853 52887
L82641 53091
" />
<path d="M82641 53091
L82436 52985
" />
<path d="M82436 52985
L82326 53048
" />
<path d="M81759 53040
L81629 52965
" />
<path d="M81629 52965
L81456 53095
" />
<path d="M81456 53095
L81270 52902
" />
<path d="M81270 52902
L81381 52713
" />
<path d="M81381 52713
L81306 52528
" />
<path d="M81306 52528
L81066 52454
" />
<path d="M81066 52454
L81066 52186
" />
<path d="M81066 52186
L81286 52131
" />
<path d="M81286 52131
L81365 51906
" />
<path d="M81365 51906
L81259 51721
" />
<path d="M81259 51721
L81444 51520
" />
<path d="M81444 51520
L81648 51623
" />
<path d="M81648 51623
L81833 51544
" />
<path d="M81833 51544
L81900 51331
" />
<path d="M81900 51331
L82172 51324
" />
<path d="M82172 51324
L82255 51540
" />
<path d="M82255 51540
L82420 51607
" />
<path d="M82420 51607
L82637 51501
" />
<path d="M82637 51501
L82841 51709
" />
<path d="M82841 51709
L82743 51922
" />
<path d="M82743 51922
L82810 52111
" />
<path d="M82810 52111
L83026 52150
" />
<path d="M83026 52150
L83030 52426
" />
<path d="M83030 52426
L82810 52505
" />
<path d="M82810 52505
L82755 52662
" />
<path d="M81912 52654
L81794 52595
" />
<path d="M81794 52595
L81715 52517
" />
<path d="M81715 52517
L81656 52359
" />
<path d="M81656 52359
L81656 52202
" />
<path d="M81656 52202
L81715 52064
" />
<path d="M81715 52064
L81893 51926
" />
<path d="M81893 51926
L82070 51906
" />
<path d="M82070 51906
L82227 51946
" />
<path d="M82227 51946
L82385 52083
" />
<path d="M82385 52083
L82444 52261
" />
<path d="M82444 52261
L82424 52457
" />
<path d="M82424 52457
L82326 52576
" />
<path d="M82326 52576
L82188 52654
" />
<path d="M82188 52654
L82326 53048
" />
<path d="M81912 52654
L81755 53048
" />
</g> 
</svg>
