%FSLAX46Y46*%
G04 Gerber Fmt 4.6, Leading zero omitted, Abs format (unit mm)*
G04 Created by KiCad (PCBNEW (2014-jul-16 BZR unknown)-product) date Thu 25 Sep 2014 17:48:40 CEST*
%MOMM*%
G01*
G04 APERTURE LIST*
%ADD10C,0.150000*%
%ADD11C,0.100000*%
%ADD12C,3.200400*%
%ADD13R,2.032000X1.727200*%
%ADD14O,2.032000X1.727200*%
%ADD15C,0.254000*%
G04 APERTURE END LIST*
D10*
D11*
X234696000Y-129032000D02*
X234188000Y-129032000D01*
X234696000Y-168656000D02*
X234696000Y-129032000D01*
X234188000Y-168656000D02*
X234696000Y-168656000D01*
X207772000Y-129032000D02*
X207772000Y-129794000D01*
X234188000Y-129032000D02*
X207772000Y-129032000D01*
X207772000Y-168656000D02*
X207772000Y-131318000D01*
X208026000Y-168656000D02*
X207772000Y-168656000D01*
X207772000Y-129794000D02*
X207772000Y-131572000D01*
X208026000Y-168656000D02*
X234188000Y-168656000D01*
D12*
X221142560Y-132313680D03*
X216641680Y-136613900D03*
X216641680Y-143314420D03*
X224142300Y-139014200D03*
X226743260Y-140014960D03*
D13*
X232664000Y-166624000D03*
D14*
X232664000Y-164084000D03*
X232664000Y-161544000D03*
X232664000Y-159004000D03*
X232664000Y-156464000D03*
X232664000Y-153924000D03*
X232664000Y-151384000D03*
X232664000Y-148844000D03*
X232664000Y-146304000D03*
X232664000Y-143764000D03*
D13*
X209804000Y-143764000D03*
D14*
X209804000Y-146304000D03*
X209804000Y-148844000D03*
X209804000Y-151384000D03*
X209804000Y-153924000D03*
X209804000Y-156464000D03*
X209804000Y-159004000D03*
X209804000Y-161544000D03*
X209804000Y-164084000D03*
X209804000Y-166624000D03*
D15*
X227510000Y-156210000D02*
X227360000Y-156360000D01*
M02*
