M48
;DRILL file {pcbnew (2014-jul-16 BZR unknown)-product} date Thu 25 Sep 2014 18:10:24 CEST
;FORMAT={-:-/ absolute / metric / decimal}
FMAT,2
METRIC,TZ
T1C0.635
T2C1.016
T3C1.300
%
G90
G05
M71
T1
X215.9Y-149.098
X216.916Y-150.368
X224.282Y-144.272
X225.552Y-144.272
X226.314Y-152.908
X226.314Y-154.432
T2
X211.074Y-139.954
X211.074Y-142.494
X211.074Y-145.034
X211.074Y-147.574
X211.074Y-150.114
X211.074Y-152.654
X211.074Y-155.194
X211.074Y-157.734
X211.074Y-160.274
X211.074Y-162.814
X231.14Y-139.954
X231.14Y-142.494
X231.14Y-145.034
X231.14Y-147.574
X231.14Y-150.114
X231.14Y-152.654
X231.14Y-155.194
X231.14Y-157.734
X231.14Y-160.274
X231.14Y-162.814
T3
X216.642Y-136.614
X216.642Y-143.314
X221.143Y-132.314
X224.142Y-139.014
X226.743Y-140.015
T0
M30
