%FSLAX46Y46*%
G04 Gerber Fmt 4.6, Leading zero omitted, Abs format (unit mm)*
G04 Created by KiCad (PCBNEW (2014-jul-16 BZR unknown)-product) date Thu 25 Sep 2014 17:48:53 CEST*
%MOMM*%
G01*
G04 APERTURE LIST*
%ADD10C,0.150000*%
%ADD11C,0.100000*%
%ADD12C,3.200400*%
%ADD13R,2.032000X1.727200*%
%ADD14O,2.032000X1.727200*%
%ADD15C,0.889000*%
%ADD16C,0.254000*%
G04 APERTURE END LIST*
D10*
D11*
X208534000Y-165354000D02*
X208534000Y-129286000D01*
X233426000Y-165354000D02*
X208534000Y-165354000D01*
X233426000Y-129286000D02*
X233426000Y-165354000D01*
X208534000Y-129286000D02*
X233426000Y-129286000D01*
D12*
X221142560Y-132313680D03*
X216641680Y-136613900D03*
X216641680Y-143314420D03*
X224142300Y-139014200D03*
X226743260Y-140014960D03*
D13*
X231140000Y-162814000D03*
D14*
X231140000Y-160274000D03*
X231140000Y-157734000D03*
X231140000Y-155194000D03*
X231140000Y-152654000D03*
X231140000Y-150114000D03*
X231140000Y-147574000D03*
X231140000Y-145034000D03*
X231140000Y-142494000D03*
X231140000Y-139954000D03*
D13*
X211074000Y-139954000D03*
D14*
X211074000Y-142494000D03*
X211074000Y-145034000D03*
X211074000Y-147574000D03*
X211074000Y-150114000D03*
X211074000Y-152654000D03*
X211074000Y-155194000D03*
X211074000Y-157734000D03*
X211074000Y-160274000D03*
X211074000Y-162814000D03*
D15*
X226314000Y-154432000D03*
X226314000Y-152908000D03*
X224282000Y-144272000D03*
X225552000Y-144272000D03*
X215900000Y-149098000D03*
X216916000Y-150368000D03*
D16*
X231140000Y-150114000D02*
X228346000Y-150114000D01*
X228092000Y-152654000D02*
X226314000Y-154432000D01*
X228092000Y-150368000D02*
X228092000Y-152654000D01*
X228346000Y-150114000D02*
X228092000Y-150368000D01*
X231140000Y-147574000D02*
X226822000Y-147574000D01*
X226822000Y-147574000D02*
X226314000Y-148082000D01*
X226314000Y-148082000D02*
X226314000Y-152908000D01*
X229870000Y-145034000D02*
X231140000Y-145034000D01*
X229108000Y-145796000D02*
X229870000Y-145034000D01*
X228092000Y-145796000D02*
X229108000Y-145796000D01*
X225044000Y-145796000D02*
X228092000Y-145796000D01*
X224536000Y-145288000D02*
X225044000Y-145796000D01*
X224536000Y-144526000D02*
X224536000Y-145288000D01*
X224282000Y-144272000D02*
X224536000Y-144526000D01*
X230124000Y-142494000D02*
X231140000Y-142494000D01*
X230378000Y-142494000D02*
X231140000Y-142494000D01*
X228346000Y-144272000D02*
X230124000Y-142494000D01*
X225552000Y-144272000D02*
X228346000Y-144272000D01*
X210820000Y-142494000D02*
X211074000Y-142494000D01*
X211074000Y-142494000D02*
X212852000Y-144272000D01*
X212852000Y-146050000D02*
X215900000Y-149098000D01*
X212852000Y-144272000D02*
X212852000Y-146050000D01*
X210820000Y-142494000D02*
X211328000Y-142494000D01*
X216916000Y-150368000D02*
X215392000Y-150368000D01*
X215392000Y-150368000D02*
X214376000Y-149352000D01*
X210820000Y-145034000D02*
X210820000Y-145288000D01*
X210820000Y-145288000D02*
X214376000Y-148844000D01*
X214376000Y-148844000D02*
X214376000Y-149352000D01*
X214376000Y-149352000D02*
X215392000Y-150368000D01*
G36*
X232741000Y-164669000D02*
X229489000Y-164669000D01*
X229489000Y-163957000D01*
X218877267Y-163957000D01*
X218877267Y-142871762D01*
X218877267Y-136171242D01*
X218537695Y-135349415D01*
X217909472Y-134720095D01*
X217088239Y-134379089D01*
X216199022Y-134378313D01*
X215377195Y-134717885D01*
X214747875Y-135346108D01*
X214406869Y-136167341D01*
X214406093Y-137056558D01*
X214745665Y-137878385D01*
X215373888Y-138507705D01*
X216195121Y-138848711D01*
X217084338Y-138849487D01*
X217906165Y-138509915D01*
X218535485Y-137881692D01*
X218876491Y-137060459D01*
X218877267Y-136171242D01*
X218877267Y-142871762D01*
X218537695Y-142049935D01*
X217909472Y-141420615D01*
X217088239Y-141079609D01*
X216199022Y-141078833D01*
X215377195Y-141418405D01*
X214747875Y-142046628D01*
X214406869Y-142867861D01*
X214406093Y-143757078D01*
X214745665Y-144578905D01*
X215373888Y-145208225D01*
X216195121Y-145549231D01*
X217084338Y-145550007D01*
X217906165Y-145210435D01*
X218535485Y-144582212D01*
X218876491Y-143760979D01*
X218877267Y-142871762D01*
X218877267Y-163957000D01*
X217995687Y-163957000D01*
X217995687Y-150154216D01*
X217831689Y-149757311D01*
X217528286Y-149453378D01*
X217131668Y-149288687D01*
X216979334Y-149288554D01*
X216979687Y-148884216D01*
X216815689Y-148487311D01*
X216512286Y-148183378D01*
X216115668Y-148018687D01*
X215898127Y-148018497D01*
X213614000Y-145734370D01*
X213614000Y-144272000D01*
X213555996Y-143980396D01*
X213555996Y-143980395D01*
X213489834Y-143881376D01*
X213390816Y-143733185D01*
X212656850Y-142999219D01*
X212757345Y-142494000D01*
X212643271Y-141920511D01*
X212318415Y-141434330D01*
X212296220Y-141419500D01*
X212449699Y-141355927D01*
X212628327Y-141177298D01*
X212725000Y-140943909D01*
X212725000Y-140239750D01*
X212725000Y-139668250D01*
X212725000Y-138964091D01*
X212628327Y-138730702D01*
X212449699Y-138552073D01*
X212216310Y-138455400D01*
X211963691Y-138455400D01*
X211359750Y-138455400D01*
X211201000Y-138614150D01*
X211201000Y-139827000D01*
X212566250Y-139827000D01*
X212725000Y-139668250D01*
X212725000Y-140239750D01*
X212566250Y-140081000D01*
X211201000Y-140081000D01*
X211201000Y-140101000D01*
X210947000Y-140101000D01*
X210947000Y-140081000D01*
X210947000Y-139827000D01*
X210947000Y-138614150D01*
X210788250Y-138455400D01*
X210184309Y-138455400D01*
X209931690Y-138455400D01*
X209698301Y-138552073D01*
X209519673Y-138730702D01*
X209423000Y-138964091D01*
X209423000Y-139668250D01*
X209581750Y-139827000D01*
X210947000Y-139827000D01*
X210947000Y-140081000D01*
X209581750Y-140081000D01*
X209423000Y-140239750D01*
X209423000Y-140943909D01*
X209519673Y-141177298D01*
X209698301Y-141355927D01*
X209851779Y-141419500D01*
X209829585Y-141434330D01*
X209504729Y-141920511D01*
X209390655Y-142494000D01*
X209504729Y-143067489D01*
X209829585Y-143553670D01*
X210144365Y-143764000D01*
X209829585Y-143974330D01*
X209504729Y-144460511D01*
X209390655Y-145034000D01*
X209504729Y-145607489D01*
X209829585Y-146093670D01*
X210144365Y-146304000D01*
X209829585Y-146514330D01*
X209504729Y-147000511D01*
X209390655Y-147574000D01*
X209504729Y-148147489D01*
X209829585Y-148633670D01*
X210144365Y-148844000D01*
X209829585Y-149054330D01*
X209504729Y-149540511D01*
X209390655Y-150114000D01*
X209504729Y-150687489D01*
X209829585Y-151173670D01*
X210144365Y-151384000D01*
X209829585Y-151594330D01*
X209504729Y-152080511D01*
X209390655Y-152654000D01*
X209504729Y-153227489D01*
X209829585Y-153713670D01*
X210144365Y-153924000D01*
X209829585Y-154134330D01*
X209504729Y-154620511D01*
X209390655Y-155194000D01*
X209504729Y-155767489D01*
X209829585Y-156253670D01*
X210144365Y-156464000D01*
X209829585Y-156674330D01*
X209504729Y-157160511D01*
X209390655Y-157734000D01*
X209504729Y-158307489D01*
X209829585Y-158793670D01*
X210144365Y-159004000D01*
X209829585Y-159214330D01*
X209504729Y-159700511D01*
X209390655Y-160274000D01*
X209504729Y-160847489D01*
X209829585Y-161333670D01*
X210144365Y-161544000D01*
X209829585Y-161754330D01*
X209504729Y-162240511D01*
X209390655Y-162814000D01*
X209504729Y-163387489D01*
X209829585Y-163873670D01*
X210315766Y-164198526D01*
X210889255Y-164312600D01*
X211258745Y-164312600D01*
X211832234Y-164198526D01*
X212318415Y-163873670D01*
X212643271Y-163387489D01*
X212757345Y-162814000D01*
X212643271Y-162240511D01*
X212318415Y-161754330D01*
X212003634Y-161544000D01*
X212318415Y-161333670D01*
X212643271Y-160847489D01*
X212757345Y-160274000D01*
X212643271Y-159700511D01*
X212318415Y-159214330D01*
X212003634Y-159004000D01*
X212318415Y-158793670D01*
X212643271Y-158307489D01*
X212757345Y-157734000D01*
X212643271Y-157160511D01*
X212318415Y-156674330D01*
X212003634Y-156464000D01*
X212318415Y-156253670D01*
X212643271Y-155767489D01*
X212757345Y-155194000D01*
X212643271Y-154620511D01*
X212318415Y-154134330D01*
X212003634Y-153924000D01*
X212318415Y-153713670D01*
X212643271Y-153227489D01*
X212757345Y-152654000D01*
X212643271Y-152080511D01*
X212318415Y-151594330D01*
X212003634Y-151384000D01*
X212318415Y-151173670D01*
X212643271Y-150687489D01*
X212757345Y-150114000D01*
X212643271Y-149540511D01*
X212318415Y-149054330D01*
X212003634Y-148844000D01*
X212318415Y-148633670D01*
X212626683Y-148172314D01*
X213614000Y-149159630D01*
X213614000Y-149352000D01*
X213672004Y-149643605D01*
X213837185Y-149890815D01*
X214853185Y-150906815D01*
X215100395Y-151071996D01*
X215100396Y-151071996D01*
X215392000Y-151130000D01*
X216151358Y-151130000D01*
X216303714Y-151282622D01*
X216700332Y-151447313D01*
X217129784Y-151447687D01*
X217526689Y-151283689D01*
X217830622Y-150980286D01*
X217995313Y-150583668D01*
X217995687Y-150154216D01*
X217995687Y-163957000D01*
X212725000Y-163957000D01*
X212725000Y-164669000D01*
X209219000Y-164669000D01*
X209219000Y-129971000D01*
X232741000Y-129971000D01*
X232741000Y-139540023D01*
X232709271Y-139380511D01*
X232384415Y-138894330D01*
X231898234Y-138569474D01*
X231324745Y-138455400D01*
X230955255Y-138455400D01*
X230381766Y-138569474D01*
X229895585Y-138894330D01*
X229570729Y-139380511D01*
X229456655Y-139954000D01*
X229570729Y-140527489D01*
X229895585Y-141013670D01*
X230210365Y-141224000D01*
X229895585Y-141434330D01*
X229570729Y-141920511D01*
X229558530Y-141981838D01*
X228978847Y-142561521D01*
X228978847Y-139572302D01*
X228639275Y-138750475D01*
X228011052Y-138121155D01*
X227189819Y-137780149D01*
X226300602Y-137779373D01*
X226087031Y-137867618D01*
X226038315Y-137749715D01*
X225410092Y-137120395D01*
X224588859Y-136779389D01*
X223699642Y-136778613D01*
X223378147Y-136911452D01*
X223378147Y-131871022D01*
X223038575Y-131049195D01*
X222410352Y-130419875D01*
X221589119Y-130078869D01*
X220699902Y-130078093D01*
X219878075Y-130417665D01*
X219248755Y-131045888D01*
X218907749Y-131867121D01*
X218906973Y-132756338D01*
X219246545Y-133578165D01*
X219874768Y-134207485D01*
X220696001Y-134548491D01*
X221585218Y-134549267D01*
X222407045Y-134209695D01*
X223036365Y-133581472D01*
X223377371Y-132760239D01*
X223378147Y-131871022D01*
X223378147Y-136911452D01*
X222877815Y-137118185D01*
X222248495Y-137746408D01*
X221907489Y-138567641D01*
X221906713Y-139456858D01*
X222246285Y-140278685D01*
X222874508Y-140908005D01*
X223695741Y-141249011D01*
X224584958Y-141249787D01*
X224798528Y-141161541D01*
X224847245Y-141279445D01*
X225475468Y-141908765D01*
X226296701Y-142249771D01*
X227185918Y-142250547D01*
X228007745Y-141910975D01*
X228637065Y-141282752D01*
X228978071Y-140461519D01*
X228978847Y-139572302D01*
X228978847Y-142561521D01*
X228030369Y-143510000D01*
X226316641Y-143510000D01*
X226164286Y-143357378D01*
X225767668Y-143192687D01*
X225338216Y-143192313D01*
X224941311Y-143356311D01*
X224917223Y-143380356D01*
X224894286Y-143357378D01*
X224497668Y-143192687D01*
X224068216Y-143192313D01*
X223671311Y-143356311D01*
X223367378Y-143659714D01*
X223202687Y-144056332D01*
X223202313Y-144485784D01*
X223366311Y-144882689D01*
X223669714Y-145186622D01*
X223774000Y-145229925D01*
X223774000Y-145288000D01*
X223832004Y-145579605D01*
X223997185Y-145826815D01*
X224505184Y-146334815D01*
X224505185Y-146334815D01*
X224752395Y-146499996D01*
X225044000Y-146558000D01*
X228092000Y-146558000D01*
X229108000Y-146558000D01*
X229108000Y-146557999D01*
X229399604Y-146499996D01*
X229399605Y-146499996D01*
X229646815Y-146334815D01*
X229892530Y-146089099D01*
X229895585Y-146093670D01*
X230210365Y-146304000D01*
X229895585Y-146514330D01*
X229696688Y-146812000D01*
X226822000Y-146812000D01*
X226530395Y-146870004D01*
X226283184Y-147035185D01*
X225775185Y-147543185D01*
X225610004Y-147790395D01*
X225552000Y-148082000D01*
X225552000Y-152143358D01*
X225399378Y-152295714D01*
X225234687Y-152692332D01*
X225234313Y-153121784D01*
X225398311Y-153518689D01*
X225549355Y-153669997D01*
X225399378Y-153819714D01*
X225234687Y-154216332D01*
X225234313Y-154645784D01*
X225398311Y-155042689D01*
X225701714Y-155346622D01*
X226098332Y-155511313D01*
X226527784Y-155511687D01*
X226924689Y-155347689D01*
X227228622Y-155044286D01*
X227393313Y-154647668D01*
X227393502Y-154430127D01*
X228630815Y-153192815D01*
X228630816Y-153192815D01*
X228729834Y-153044623D01*
X228795996Y-152945605D01*
X228795996Y-152945604D01*
X228854000Y-152654000D01*
X228854000Y-150876000D01*
X229696688Y-150876000D01*
X229895585Y-151173670D01*
X230210365Y-151384000D01*
X229895585Y-151594330D01*
X229570729Y-152080511D01*
X229456655Y-152654000D01*
X229570729Y-153227489D01*
X229895585Y-153713670D01*
X230210365Y-153924000D01*
X229895585Y-154134330D01*
X229570729Y-154620511D01*
X229456655Y-155194000D01*
X229570729Y-155767489D01*
X229895585Y-156253670D01*
X230210365Y-156464000D01*
X229895585Y-156674330D01*
X229570729Y-157160511D01*
X229456655Y-157734000D01*
X229570729Y-158307489D01*
X229895585Y-158793670D01*
X230210365Y-159004000D01*
X229895585Y-159214330D01*
X229570729Y-159700511D01*
X229456655Y-160274000D01*
X229570729Y-160847489D01*
X229895585Y-161333670D01*
X229917780Y-161348500D01*
X229764302Y-161412073D01*
X229585673Y-161590701D01*
X229489000Y-161824090D01*
X229489000Y-162076709D01*
X229489000Y-163803909D01*
X229585673Y-164037298D01*
X229764301Y-164215927D01*
X229997690Y-164312600D01*
X230250309Y-164312600D01*
X232282309Y-164312600D01*
X232515698Y-164215927D01*
X232694327Y-164037299D01*
X232741000Y-163924620D01*
X232741000Y-164669000D01*
X232741000Y-164669000D01*
G37*
X232741000Y-164669000D02*
X229489000Y-164669000D01*
X229489000Y-163957000D01*
X218877267Y-163957000D01*
X218877267Y-142871762D01*
X218877267Y-136171242D01*
X218537695Y-135349415D01*
X217909472Y-134720095D01*
X217088239Y-134379089D01*
X216199022Y-134378313D01*
X215377195Y-134717885D01*
X214747875Y-135346108D01*
X214406869Y-136167341D01*
X214406093Y-137056558D01*
X214745665Y-137878385D01*
X215373888Y-138507705D01*
X216195121Y-138848711D01*
X217084338Y-138849487D01*
X217906165Y-138509915D01*
X218535485Y-137881692D01*
X218876491Y-137060459D01*
X218877267Y-136171242D01*
X218877267Y-142871762D01*
X218537695Y-142049935D01*
X217909472Y-141420615D01*
X217088239Y-141079609D01*
X216199022Y-141078833D01*
X215377195Y-141418405D01*
X214747875Y-142046628D01*
X214406869Y-142867861D01*
X214406093Y-143757078D01*
X214745665Y-144578905D01*
X215373888Y-145208225D01*
X216195121Y-145549231D01*
X217084338Y-145550007D01*
X217906165Y-145210435D01*
X218535485Y-144582212D01*
X218876491Y-143760979D01*
X218877267Y-142871762D01*
X218877267Y-163957000D01*
X217995687Y-163957000D01*
X217995687Y-150154216D01*
X217831689Y-149757311D01*
X217528286Y-149453378D01*
X217131668Y-149288687D01*
X216979334Y-149288554D01*
X216979687Y-148884216D01*
X216815689Y-148487311D01*
X216512286Y-148183378D01*
X216115668Y-148018687D01*
X215898127Y-148018497D01*
X213614000Y-145734370D01*
X213614000Y-144272000D01*
X213555996Y-143980396D01*
X213555996Y-143980395D01*
X213489834Y-143881376D01*
X213390816Y-143733185D01*
X212656850Y-142999219D01*
X212757345Y-142494000D01*
X212643271Y-141920511D01*
X212318415Y-141434330D01*
X212296220Y-141419500D01*
X212449699Y-141355927D01*
X212628327Y-141177298D01*
X212725000Y-140943909D01*
X212725000Y-140239750D01*
X212725000Y-139668250D01*
X212725000Y-138964091D01*
X212628327Y-138730702D01*
X212449699Y-138552073D01*
X212216310Y-138455400D01*
X211963691Y-138455400D01*
X211359750Y-138455400D01*
X211201000Y-138614150D01*
X211201000Y-139827000D01*
X212566250Y-139827000D01*
X212725000Y-139668250D01*
X212725000Y-140239750D01*
X212566250Y-140081000D01*
X211201000Y-140081000D01*
X211201000Y-140101000D01*
X210947000Y-140101000D01*
X210947000Y-140081000D01*
X210947000Y-139827000D01*
X210947000Y-138614150D01*
X210788250Y-138455400D01*
X210184309Y-138455400D01*
X209931690Y-138455400D01*
X209698301Y-138552073D01*
X209519673Y-138730702D01*
X209423000Y-138964091D01*
X209423000Y-139668250D01*
X209581750Y-139827000D01*
X210947000Y-139827000D01*
X210947000Y-140081000D01*
X209581750Y-140081000D01*
X209423000Y-140239750D01*
X209423000Y-140943909D01*
X209519673Y-141177298D01*
X209698301Y-141355927D01*
X209851779Y-141419500D01*
X209829585Y-141434330D01*
X209504729Y-141920511D01*
X209390655Y-142494000D01*
X209504729Y-143067489D01*
X209829585Y-143553670D01*
X210144365Y-143764000D01*
X209829585Y-143974330D01*
X209504729Y-144460511D01*
X209390655Y-145034000D01*
X209504729Y-145607489D01*
X209829585Y-146093670D01*
X210144365Y-146304000D01*
X209829585Y-146514330D01*
X209504729Y-147000511D01*
X209390655Y-147574000D01*
X209504729Y-148147489D01*
X209829585Y-148633670D01*
X210144365Y-148844000D01*
X209829585Y-149054330D01*
X209504729Y-149540511D01*
X209390655Y-150114000D01*
X209504729Y-150687489D01*
X209829585Y-151173670D01*
X210144365Y-151384000D01*
X209829585Y-151594330D01*
X209504729Y-152080511D01*
X209390655Y-152654000D01*
X209504729Y-153227489D01*
X209829585Y-153713670D01*
X210144365Y-153924000D01*
X209829585Y-154134330D01*
X209504729Y-154620511D01*
X209390655Y-155194000D01*
X209504729Y-155767489D01*
X209829585Y-156253670D01*
X210144365Y-156464000D01*
X209829585Y-156674330D01*
X209504729Y-157160511D01*
X209390655Y-157734000D01*
X209504729Y-158307489D01*
X209829585Y-158793670D01*
X210144365Y-159004000D01*
X209829585Y-159214330D01*
X209504729Y-159700511D01*
X209390655Y-160274000D01*
X209504729Y-160847489D01*
X209829585Y-161333670D01*
X210144365Y-161544000D01*
X209829585Y-161754330D01*
X209504729Y-162240511D01*
X209390655Y-162814000D01*
X209504729Y-163387489D01*
X209829585Y-163873670D01*
X210315766Y-164198526D01*
X210889255Y-164312600D01*
X211258745Y-164312600D01*
X211832234Y-164198526D01*
X212318415Y-163873670D01*
X212643271Y-163387489D01*
X212757345Y-162814000D01*
X212643271Y-162240511D01*
X212318415Y-161754330D01*
X212003634Y-161544000D01*
X212318415Y-161333670D01*
X212643271Y-160847489D01*
X212757345Y-160274000D01*
X212643271Y-159700511D01*
X212318415Y-159214330D01*
X212003634Y-159004000D01*
X212318415Y-158793670D01*
X212643271Y-158307489D01*
X212757345Y-157734000D01*
X212643271Y-157160511D01*
X212318415Y-156674330D01*
X212003634Y-156464000D01*
X212318415Y-156253670D01*
X212643271Y-155767489D01*
X212757345Y-155194000D01*
X212643271Y-154620511D01*
X212318415Y-154134330D01*
X212003634Y-153924000D01*
X212318415Y-153713670D01*
X212643271Y-153227489D01*
X212757345Y-152654000D01*
X212643271Y-152080511D01*
X212318415Y-151594330D01*
X212003634Y-151384000D01*
X212318415Y-151173670D01*
X212643271Y-150687489D01*
X212757345Y-150114000D01*
X212643271Y-149540511D01*
X212318415Y-149054330D01*
X212003634Y-148844000D01*
X212318415Y-148633670D01*
X212626683Y-148172314D01*
X213614000Y-149159630D01*
X213614000Y-149352000D01*
X213672004Y-149643605D01*
X213837185Y-149890815D01*
X214853185Y-150906815D01*
X215100395Y-151071996D01*
X215100396Y-151071996D01*
X215392000Y-151130000D01*
X216151358Y-151130000D01*
X216303714Y-151282622D01*
X216700332Y-151447313D01*
X217129784Y-151447687D01*
X217526689Y-151283689D01*
X217830622Y-150980286D01*
X217995313Y-150583668D01*
X217995687Y-150154216D01*
X217995687Y-163957000D01*
X212725000Y-163957000D01*
X212725000Y-164669000D01*
X209219000Y-164669000D01*
X209219000Y-129971000D01*
X232741000Y-129971000D01*
X232741000Y-139540023D01*
X232709271Y-139380511D01*
X232384415Y-138894330D01*
X231898234Y-138569474D01*
X231324745Y-138455400D01*
X230955255Y-138455400D01*
X230381766Y-138569474D01*
X229895585Y-138894330D01*
X229570729Y-139380511D01*
X229456655Y-139954000D01*
X229570729Y-140527489D01*
X229895585Y-141013670D01*
X230210365Y-141224000D01*
X229895585Y-141434330D01*
X229570729Y-141920511D01*
X229558530Y-141981838D01*
X228978847Y-142561521D01*
X228978847Y-139572302D01*
X228639275Y-138750475D01*
X228011052Y-138121155D01*
X227189819Y-137780149D01*
X226300602Y-137779373D01*
X226087031Y-137867618D01*
X226038315Y-137749715D01*
X225410092Y-137120395D01*
X224588859Y-136779389D01*
X223699642Y-136778613D01*
X223378147Y-136911452D01*
X223378147Y-131871022D01*
X223038575Y-131049195D01*
X222410352Y-130419875D01*
X221589119Y-130078869D01*
X220699902Y-130078093D01*
X219878075Y-130417665D01*
X219248755Y-131045888D01*
X218907749Y-131867121D01*
X218906973Y-132756338D01*
X219246545Y-133578165D01*
X219874768Y-134207485D01*
X220696001Y-134548491D01*
X221585218Y-134549267D01*
X222407045Y-134209695D01*
X223036365Y-133581472D01*
X223377371Y-132760239D01*
X223378147Y-131871022D01*
X223378147Y-136911452D01*
X222877815Y-137118185D01*
X222248495Y-137746408D01*
X221907489Y-138567641D01*
X221906713Y-139456858D01*
X222246285Y-140278685D01*
X222874508Y-140908005D01*
X223695741Y-141249011D01*
X224584958Y-141249787D01*
X224798528Y-141161541D01*
X224847245Y-141279445D01*
X225475468Y-141908765D01*
X226296701Y-142249771D01*
X227185918Y-142250547D01*
X228007745Y-141910975D01*
X228637065Y-141282752D01*
X228978071Y-140461519D01*
X228978847Y-139572302D01*
X228978847Y-142561521D01*
X228030369Y-143510000D01*
X226316641Y-143510000D01*
X226164286Y-143357378D01*
X225767668Y-143192687D01*
X225338216Y-143192313D01*
X224941311Y-143356311D01*
X224917223Y-143380356D01*
X224894286Y-143357378D01*
X224497668Y-143192687D01*
X224068216Y-143192313D01*
X223671311Y-143356311D01*
X223367378Y-143659714D01*
X223202687Y-144056332D01*
X223202313Y-144485784D01*
X223366311Y-144882689D01*
X223669714Y-145186622D01*
X223774000Y-145229925D01*
X223774000Y-145288000D01*
X223832004Y-145579605D01*
X223997185Y-145826815D01*
X224505184Y-146334815D01*
X224505185Y-146334815D01*
X224752395Y-146499996D01*
X225044000Y-146558000D01*
X228092000Y-146558000D01*
X229108000Y-146558000D01*
X229108000Y-146557999D01*
X229399604Y-146499996D01*
X229399605Y-146499996D01*
X229646815Y-146334815D01*
X229892530Y-146089099D01*
X229895585Y-146093670D01*
X230210365Y-146304000D01*
X229895585Y-146514330D01*
X229696688Y-146812000D01*
X226822000Y-146812000D01*
X226530395Y-146870004D01*
X226283184Y-147035185D01*
X225775185Y-147543185D01*
X225610004Y-147790395D01*
X225552000Y-148082000D01*
X225552000Y-152143358D01*
X225399378Y-152295714D01*
X225234687Y-152692332D01*
X225234313Y-153121784D01*
X225398311Y-153518689D01*
X225549355Y-153669997D01*
X225399378Y-153819714D01*
X225234687Y-154216332D01*
X225234313Y-154645784D01*
X225398311Y-155042689D01*
X225701714Y-155346622D01*
X226098332Y-155511313D01*
X226527784Y-155511687D01*
X226924689Y-155347689D01*
X227228622Y-155044286D01*
X227393313Y-154647668D01*
X227393502Y-154430127D01*
X228630815Y-153192815D01*
X228630816Y-153192815D01*
X228729834Y-153044623D01*
X228795996Y-152945605D01*
X228795996Y-152945604D01*
X228854000Y-152654000D01*
X228854000Y-150876000D01*
X229696688Y-150876000D01*
X229895585Y-151173670D01*
X230210365Y-151384000D01*
X229895585Y-151594330D01*
X229570729Y-152080511D01*
X229456655Y-152654000D01*
X229570729Y-153227489D01*
X229895585Y-153713670D01*
X230210365Y-153924000D01*
X229895585Y-154134330D01*
X229570729Y-154620511D01*
X229456655Y-155194000D01*
X229570729Y-155767489D01*
X229895585Y-156253670D01*
X230210365Y-156464000D01*
X229895585Y-156674330D01*
X229570729Y-157160511D01*
X229456655Y-157734000D01*
X229570729Y-158307489D01*
X229895585Y-158793670D01*
X230210365Y-159004000D01*
X229895585Y-159214330D01*
X229570729Y-159700511D01*
X229456655Y-160274000D01*
X229570729Y-160847489D01*
X229895585Y-161333670D01*
X229917780Y-161348500D01*
X229764302Y-161412073D01*
X229585673Y-161590701D01*
X229489000Y-161824090D01*
X229489000Y-162076709D01*
X229489000Y-163803909D01*
X229585673Y-164037298D01*
X229764301Y-164215927D01*
X229997690Y-164312600D01*
X230250309Y-164312600D01*
X232282309Y-164312600D01*
X232515698Y-164215927D01*
X232694327Y-164037299D01*
X232741000Y-163924620D01*
X232741000Y-164669000D01*
M02*
