M48
;DRILL file {kicad (2014-jul-16 BZR unknown)-product} date Thu 25 Sep 2014 18:09:18 CEST
;FORMAT={-:-/ absolute / metric / decimal}
FMAT,2
METRIC,TZ
T1C1.016
T2C1.300
%
G90
G05
M71
T1
X209.804Y-143.764
X209.804Y-146.304
X209.804Y-148.844
X209.804Y-151.384
X209.804Y-153.924
X209.804Y-156.464
X209.804Y-159.004
X209.804Y-161.544
X209.804Y-164.084
X209.804Y-166.624
X232.664Y-143.764
X232.664Y-146.304
X232.664Y-148.844
X232.664Y-151.384
X232.664Y-153.924
X232.664Y-156.464
X232.664Y-159.004
X232.664Y-161.544
X232.664Y-164.084
X232.664Y-166.624
T2
X216.642Y-136.614
X216.642Y-143.314
X221.143Y-132.314
X224.142Y-139.014
X226.743Y-140.015
T0
M30
