%FSLAX46Y46*%
G04 Gerber Fmt 4.6, Leading zero omitted, Abs format (unit mm)*
G04 Created by KiCad (PCBNEW (2014-jul-16 BZR unknown)-product) date Thu 25 Sep 2014 17:48:40 CEST*
%MOMM*%
G01*
G04 APERTURE LIST*
%ADD10C,0.150000*%
%ADD11C,0.100000*%
%ADD12C,0.381000*%
G04 APERTURE END LIST*
D10*
D11*
X234696000Y-129032000D02*
X234188000Y-129032000D01*
X234696000Y-168656000D02*
X234696000Y-129032000D01*
X234188000Y-168656000D02*
X234696000Y-168656000D01*
X207772000Y-129032000D02*
X207772000Y-129794000D01*
X234188000Y-129032000D02*
X207772000Y-129032000D01*
X207772000Y-168656000D02*
X207772000Y-131318000D01*
X208026000Y-168656000D02*
X207772000Y-168656000D01*
X207772000Y-129794000D02*
X207772000Y-131572000D01*
X208026000Y-168656000D02*
X234188000Y-168656000D01*
D10*
X233934000Y-165354000D02*
X233934000Y-142494000D01*
X233934000Y-142494000D02*
X231394000Y-142494000D01*
X231394000Y-142494000D02*
X231394000Y-165354000D01*
X233934000Y-167894000D02*
X233934000Y-165354000D01*
X233934000Y-165354000D02*
X231394000Y-165354000D01*
X233934000Y-167894000D02*
X231394000Y-167894000D01*
X231394000Y-167894000D02*
X231394000Y-165354000D01*
X208534000Y-145034000D02*
X208534000Y-167894000D01*
X208534000Y-167894000D02*
X211074000Y-167894000D01*
X211074000Y-167894000D02*
X211074000Y-145034000D01*
X208534000Y-142494000D02*
X208534000Y-145034000D01*
X208534000Y-145034000D02*
X211074000Y-145034000D01*
X208534000Y-142494000D02*
X211074000Y-142494000D01*
X211074000Y-142494000D02*
X211074000Y-145034000D01*
D12*
X214122000Y-165862000D02*
X214122000Y-168402000D01*
X214122000Y-168402000D02*
X215392000Y-168402000D01*
X215392000Y-168402000D02*
X215392000Y-167132000D01*
X215392000Y-167132000D02*
X216662000Y-167132000D01*
X216662000Y-167132000D02*
X216662000Y-168402000D01*
X216662000Y-168402000D02*
X217932000Y-168402000D01*
X217932000Y-168402000D02*
X217932000Y-167132000D01*
X217932000Y-167132000D02*
X219202000Y-167132000D01*
X219202000Y-167132000D02*
X219202000Y-168402000D01*
X219202000Y-168402000D02*
X220472000Y-168402000D01*
X220472000Y-168402000D02*
X220472000Y-167132000D01*
X220472000Y-167132000D02*
X221742000Y-167132000D01*
X221742000Y-167132000D02*
X221742000Y-168402000D01*
X221742000Y-168402000D02*
X223012000Y-168402000D01*
X223012000Y-168402000D02*
X223012000Y-167132000D01*
X223012000Y-167132000D02*
X224282000Y-167132000D01*
X224282000Y-167132000D02*
X224282000Y-168402000D01*
X224282000Y-168402000D02*
X225552000Y-168402000D01*
X225552000Y-168402000D02*
X225552000Y-167132000D01*
X225552000Y-167132000D02*
X226822000Y-167132000D01*
X226822000Y-167132000D02*
X226822000Y-168402000D01*
X226822000Y-168402000D02*
X228092000Y-168402000D01*
X228092000Y-168402000D02*
X228092000Y-167132000D01*
X228822000Y-164592000D02*
X213422000Y-164592000D01*
X213422000Y-145672000D02*
X228822000Y-145672000D01*
X228822000Y-164592000D02*
X228822000Y-169672000D01*
X228822000Y-169672000D02*
X213422000Y-169672000D01*
X213422000Y-169672000D02*
X213422000Y-164592000D01*
M02*
