<?xml version="1.0" encoding="UTF-8" standalone="no"?>
<!-- Created with Inkscape (http://www.inkscape.org/) -->

<svg
   xmlns:dc="http://purl.org/dc/elements/1.1/"
   xmlns:cc="http://creativecommons.org/ns#"
   xmlns:rdf="http://www.w3.org/1999/02/22-rdf-syntax-ns#"
   xmlns:svg="http://www.w3.org/2000/svg"
   xmlns="http://www.w3.org/2000/svg"
   xmlns:sodipodi="http://sodipodi.sourceforge.net/DTD/sodipodi-0.dtd"
   xmlns:inkscape="http://www.inkscape.org/namespaces/inkscape"
   version="1.2"
   width="51.783043"
   height="42.753361"
   viewBox="0 0 41.426414 34.202723"
   id="0"
   inkscape:version="0.48.3.1 r9886"
   sodipodi:docname="svg.breadboard.relay_reloaded.svg_20df39cc2830ee51ae10bc8e75c84ad7_breadboard.svg">
  <sodipodi:namedview
     pagecolor="#ffffff"
     bordercolor="#666666"
     borderopacity="1"
     objecttolerance="10"
     gridtolerance="10"
     guidetolerance="10"
     inkscape:pageopacity="0"
     inkscape:pageshadow="2"
     inkscape:window-width="1215"
     inkscape:window-height="776"
     id="namedview65"
     showgrid="false"
     fit-margin-top="0"
     fit-margin-left="0"
     fit-margin-right="0"
     fit-margin-bottom="0"
     inkscape:zoom="1.7052623"
     inkscape:cx="198.56292"
     inkscape:cy="-4.6411449"
     inkscape:window-x="65"
     inkscape:window-y="24"
     inkscape:window-maximized="1"
     inkscape:current-layer="0" />
  <desc
     id="desc3">
    <referenceFile
       id="referenceFile5">relay_reloaded.svg</referenceFile>
  </desc>
  <metadata
     id="metadata76">
    <rdf:RDF>
      <cc:Work
         rdf:about="">
        <dc:format>image/svg+xml</dc:format>
        <dc:type
           rdf:resource="http://purl.org/dc/dcmitype/StillImage" />
        <dc:title />
      </cc:Work>
    </rdf:RDF>
  </metadata>
  <defs
     id="defs74" />
  <rect
     width="1.6114242"
     height="2.2373254"
     x="-41.365051"
     y="0.0014839172"
     transform="scale(-1,1)"
     id="connector5pin"
     style="fill:none" />
  <rect
     width="1.6114242"
     height="0.40381724"
     x="-41.365051"
     y="0.0014839172"
     transform="scale(-1,1)"
     id="connector5terminal"
     style="fill:none" />
  <rect
     width="1.6125339"
     height="2.235841"
     x="-41.365051"
     y="31.966883"
     transform="scale(-1,1)"
     id="connector0pin"
     style="fill:none" />
  <rect
     width="1.6125339"
     height="0.4023326"
     x="-41.365051"
     y="33.798908"
     transform="scale(-1,1)"
     id="connector0terminal"
     style="fill:none" />
  <rect
     width="1.6125339"
     height="2.235841"
     x="39.77507"
     y="31.966883"
     id="connector2pin"
     style="fill:none" />
  <rect
     width="1.6125339"
     height="0.4023326"
     x="39.77507"
     y="33.798908"
     id="connector2terminal"
     style="fill:none" />
  <rect
     width="41.426476"
     height="32.107925"
     x="-2.8483102e-05"
     y="1.0466576"
     id="0.0.0.12"
     style="fill:#2d2d2d" />
  <path
     d="m 40.558231,4.302435 v 5.644533 c 0,0.950157 -0.580424,1.728101 -1.291803,1.728101 h -3.612387"
     id="0.0.0.14"
     style="fill:none;stroke:#606060;stroke-width:0.96269971"
     inkscape:connector-curvature="0" />
  <polygon
     points="2.01,8.17 2.365,8.945 4.616,8.945 4.969,8.17 "
     transform="matrix(-1.1097962,0,0,1.4846221,41.396126,1.0496826e-6)"
     id="0.0.0.15"
     style="fill:#b23820" />
  <polygon
     points="2.248,13.163 2.749,13.852 4.956,13.408 5.15,12.579 "
     transform="matrix(-1.1097962,0,0,1.4846221,41.396126,1.0496826e-6)"
     id="0.0.0.16"
     style="fill:#b23820" />
  <polygon
     points="5.025,11.966 4.524,11.278 2.318,11.721 2.123,12.55 "
     transform="matrix(-1.1097962,0,0,1.4846221,41.396126,1.0496826e-6)"
     id="0.0.0.17"
     style="fill:#b23820" />
  <path
     d="m 40.558231,33.083319 v -9.259588 c 0,-0.951643 -0.580424,-1.726616 -1.291803,-1.726616 h -3.612387"
     id="0.0.0.18"
     style="fill:none;stroke:#606060;stroke-width:0.96269971"
     inkscape:connector-curvature="0" />
  <polygon
     points="2.01,14.577 2.365,13.802 4.616,13.802 4.969,14.577 "
     transform="matrix(-1.1097962,0,0,1.4846221,41.396126,1.0496826e-6)"
     id="0.0.0.19"
     style="fill:#b23820" />
  <rect
     width="1.6757922"
     height="2.2417793"
     x="-41.396126"
     y="31.960943"
     transform="scale(-1,1)"
     id="0.0.0.20"
     style="fill:#8c8c8c" />
  <rect
     width="1.6318725"
     height="2.2417793"
     x="-2.3342535"
     y="15.636949"
     transform="scale(-1,1)"
     id="0.0.0.21"
     style="fill:#8c8c8c" />
  <line
     id="0.0.0.22"
     y1="16.739113"
     x1="27.130806"
     y2="16.739113"
     x2="1.5385019"
     style="fill:none;stroke:#606060;stroke-width:0.95000058" />
  <line
     id="0.0.0.23"
     y1="16.745052"
     x1="26.577019"
     y2="16.745052"
     x2="14.927486"
     style="fill:none;stroke:#494949;stroke-width:0.96269971" />
  <line
     id="0.0.0.54"
     y1="1.7355251"
     x1="40.557125"
     y2="4.3024349"
     x2="40.558231"
     style="fill:none;stroke:#606060;stroke-width:0.96269971;stroke-linecap:round" />
  <line
     id="0.0.0.56"
     y1="19.132324"
     x1="39.087753"
     y2="16.739113"
     x2="29.425861"
     style="fill:none;stroke:#7c7c7c;stroke-width:0.96269971" />
  <path
     d="m 28.442585,18.486514 c 0.720258,0 1.30734,-0.785365 1.30734,-1.748884 0,-0.963521 -0.585972,-1.747401 -1.30734,-1.747401 -0.721367,0 -1.307339,0.78388 -1.307339,1.747401 -10e-4,0.963519 0.585972,1.748884 1.307339,1.748884 l 0,0 z"
     id="0.0.0.57"
     style="fill:#333333"
     inkscape:connector-curvature="0" />
  <path
     d="m 28.442585,15.423739 c -0.54269,0 -0.984389,0.58791 -0.984389,1.315374 0,0.724497 0.441699,1.315376 0.984389,1.315376 0.542691,0 0.98439,-0.58791 0.98439,-1.315376 0,-0.727464 -0.442809,-1.315374 -0.98439,-1.315374 m 0,-0.86405 c 0.900045,0 1.630291,0.975397 1.630291,2.179424 0,1.204029 -0.729136,2.179426 -1.630291,2.179426 -0.901154,0 -1.63029,-0.975397 -1.63029,-2.179426 -10e-4,-1.204027 0.729136,-2.179424 1.63029,-2.179424 l 0,0 z"
     id="0.0.0.58"
     style="fill:#606060"
     inkscape:connector-curvature="0" />
  <rect
     width="1.6757922"
     height="2.2417793"
     x="-41.396126"
     y="-3.5527137e-15"
     transform="scale(-1,1)"
     id="0.0.0.60"
     style="fill:#8c8c8c" />
  <g
     id="g3042"
     transform="matrix(1.1097962,0,0,1.4846221,-0.31520878,-1.247082)">
    <rect
       style="fill:none"
       id="connector4pin"
       y="0.84100002"
       x="7.3140001"
       height="1.507"
       width="1.454" />
    <rect
       style="fill:none"
       id="connector4terminal"
       y="0.84100002"
       x="7.3140001"
       height="0.27200001"
       width="1.4529999" />
    <rect
       style="fill:none"
       id="connector1pin"
       y="22.372"
       x="7.3140001"
       height="1.506"
       width="1.452" />
    <rect
       style="fill:none"
       id="connector1terminal"
       y="23.606001"
       x="7.3140001"
       height="0.271"
       width="1.452" />
    <path
       style="fill:none;stroke:#752119;stroke-width:0.75;stroke-linecap:round"
       id="0.0.0.24"
       d="m 22.797,15.132 c 0.921,0.607 -6.856,0.787 -7.891,0.683"
       inkscape:connector-curvature="0" />
    <path
       style="fill:none;stroke:#752119;stroke-width:0.75;stroke-linecap:round"
       id="0.0.0.25"
       d="m 22.797,15.975 c 0.933,0.611 -6.871,0.78 -7.891,0.682"
       inkscape:connector-curvature="0" />
    <path
       style="fill:none;stroke:#752119;stroke-width:0.75;stroke-linecap:round"
       id="0.0.0.26"
       d="m 22.797,16.819 c 0.922,0.602 -6.86,0.782 -7.891,0.678"
       inkscape:connector-curvature="0" />
    <path
       style="fill:none;stroke:#752119;stroke-width:0.75;stroke-linecap:round"
       id="0.0.0.27"
       d="m 22.797,17.661 c 0.521,0.34 -2.353,0.962 -7.891,0.962"
       inkscape:connector-curvature="0" />
    <path
       style="fill:none;stroke:#752119;stroke-width:0.75;stroke-linecap:round"
       id="0.0.0.28"
       d="m 22.797,11.763 c 0.921,0.606 -6.854,0.785 -7.891,0.682"
       inkscape:connector-curvature="0" />
    <path
       style="fill:none;stroke:#752119;stroke-width:0.75;stroke-linecap:round"
       id="0.0.0.29"
       d="m 22.797,12.606 c 0.93,0.608 -6.868,0.778 -7.891,0.68"
       inkscape:connector-curvature="0" />
    <path
       style="fill:none;stroke:#752119;stroke-width:0.75;stroke-linecap:round"
       id="0.0.0.30"
       d="m 22.797,13.448 c 0.925,0.603 -6.86,0.785 -7.891,0.681"
       inkscape:connector-curvature="0" />
    <path
       style="fill:none;stroke:#752119;stroke-width:0.75;stroke-linecap:round"
       id="0.0.0.31"
       d="m 22.797,14.29 c 0.916,0.601 -6.845,0.789 -7.891,0.681"
       inkscape:connector-curvature="0" />
    <path
       style="fill:none;stroke:#752119;stroke-width:0.75;stroke-linecap:round"
       id="0.0.0.32"
       d="m 22.797,8.393 c 0.911,0.603 -6.845,0.789 -7.891,0.682"
       inkscape:connector-curvature="0" />
    <path
       style="fill:none;stroke:#752119;stroke-width:0.75;stroke-linecap:round"
       id="0.0.0.33"
       d="m 22.797,9.236 c 0.921,0.604 -6.854,0.786 -7.891,0.683"
       inkscape:connector-curvature="0" />
    <path
       style="fill:none;stroke:#752119;stroke-width:0.75;stroke-linecap:round"
       id="0.0.0.34"
       d="m 22.797,10.079 c 0.929,0.606 -6.867,0.782 -7.891,0.679"
       inkscape:connector-curvature="0" />
    <path
       style="fill:none;stroke:#752119;stroke-width:0.75;stroke-linecap:round"
       id="0.0.0.35"
       d="m 22.797,10.921 c 0.931,0.611 -6.877,0.782 -7.891,0.682"
       inkscape:connector-curvature="0" />
    <path
       style="fill:none;stroke:#752119;stroke-width:0.75;stroke-linecap:round"
       id="0.0.0.36"
       d="m 22.655,6.71 c 0.924,0.604 -6.72,0.781 -7.75,0.679"
       inkscape:connector-curvature="0" />
    <path
       style="fill:none;stroke:#752119;stroke-width:0.75;stroke-linecap:round"
       id="0.0.0.37"
       d="M 22.797,7.551 C 23.73,8.161 15.926,8.329 14.906,8.23"
       inkscape:connector-curvature="0" />
    <path
       style="fill:none;stroke:#b23820;stroke-width:0.75;stroke-linecap:round"
       id="0.0.0.38"
       d="M 14.906,7.412 C 17.42,6.885 20.13,6.818 22.873,7.662"
       inkscape:connector-curvature="0" />
    <path
       style="fill:none;stroke:#b23820;stroke-width:0.75;stroke-linecap:round"
       id="0.0.0.39"
       d="M 14.906,8.251 C 17.42,7.724 20.13,7.657 22.873,8.501"
       inkscape:connector-curvature="0" />
    <path
       style="fill:none;stroke:#b23820;stroke-width:0.75;stroke-linecap:round"
       id="0.0.0.40"
       d="M 14.906,9.09 C 17.42,8.562 20.13,8.496 22.873,9.34"
       inkscape:connector-curvature="0" />
    <path
       style="fill:none;stroke:#b23820;stroke-width:0.75;stroke-linecap:round"
       id="0.0.0.41"
       d="M 14.906,9.928 C 17.42,9.4 20.13,9.333 22.873,10.178"
       inkscape:connector-curvature="0" />
    <path
       style="fill:none;stroke:#b23820;stroke-width:0.75;stroke-linecap:round"
       id="0.0.0.42"
       d="m 14.906,10.768 c 2.514,-0.528 5.224,-0.595 7.967,0.249"
       inkscape:connector-curvature="0" />
    <path
       style="fill:none;stroke:#b23820;stroke-width:0.75;stroke-linecap:round"
       id="0.0.0.43"
       d="m 14.906,11.608 c 2.514,-0.528 5.224,-0.595 7.967,0.249"
       inkscape:connector-curvature="0" />
    <path
       style="fill:none;stroke:#b23820;stroke-width:0.75;stroke-linecap:round"
       id="0.0.0.44"
       d="m 14.906,12.447 c 2.514,-0.528 5.224,-0.595 7.967,0.249"
       inkscape:connector-curvature="0" />
    <path
       style="fill:none;stroke:#b23820;stroke-width:0.75;stroke-linecap:round"
       id="0.0.0.45"
       d="m 14.906,13.287 c 2.514,-0.528 5.224,-0.595 7.967,0.249"
       inkscape:connector-curvature="0" />
    <path
       style="fill:none;stroke:#b23820;stroke-width:0.75;stroke-linecap:round"
       id="0.0.0.46"
       d="m 14.906,14.125 c 2.514,-0.528 5.224,-0.595 7.967,0.249"
       inkscape:connector-curvature="0" />
    <path
       style="fill:none;stroke:#b23820;stroke-width:0.75;stroke-linecap:round"
       id="0.0.0.47"
       d="m 14.906,14.964 c 2.514,-0.527 5.224,-0.594 7.967,0.25"
       inkscape:connector-curvature="0" />
    <path
       style="fill:none;stroke:#b23820;stroke-width:0.75;stroke-linecap:round"
       id="0.0.0.48"
       d="m 14.906,15.803 c 2.514,-0.527 5.224,-0.595 7.967,0.249"
       inkscape:connector-curvature="0" />
    <path
       style="fill:none;stroke:#b23820;stroke-width:0.75;stroke-linecap:round"
       id="0.0.0.49"
       d="m 14.906,16.643 c 2.514,-0.527 5.224,-0.595 7.967,0.249"
       inkscape:connector-curvature="0" />
    <path
       style="fill:none;stroke:#b23820;stroke-width:0.75;stroke-linecap:round"
       id="0.0.0.50"
       d="M 14.906,17.495 C 17.42,16.968 20.13,16.9 22.873,17.744"
       inkscape:connector-curvature="0" />
    <path
       style="fill:none;stroke:#b23820;stroke-width:0.75;stroke-linecap:round"
       id="0.0.0.51"
       d="m 14.906,6.155 c 3.955,0 5.637,-0.087 7.923,0.622"
       inkscape:connector-curvature="0" />
    <path
       style="fill:none;stroke:#752119;stroke-width:0.73110002;stroke-linecap:round"
       id="0.0.0.52"
       d="m 8.088,23.124 v -3.312 c 0,-0.641 0.523,-1.164 1.164,-1.164 h 5.653"
       inkscape:connector-curvature="0" />
    <path
       style="fill:none;stroke:#b23820;stroke-width:0.75;stroke-linecap:round"
       id="0.0.0.55"
       d="m 8.088,2.009 v 2.982 c 0,0.64 0.523,1.164 1.164,1.164 h 5.653"
       inkscape:connector-curvature="0" />
    <rect
       style="fill:#8c8c8c"
       id="0.0.0.59"
       y="22.368"
       x="7.2750001"
       height="1.51"
       width="1.51" />
    <rect
       style="fill:#8c8c8c"
       id="0.0.0.62"
       y="0.83999997"
       x="7.2750001"
       height="1.51"
       width="1.51" />
  </g>
</svg>
