<?xml version="1.0" encoding="UTF-8" standalone="no"?>
<!-- Created with Inkscape (http://www.inkscape.org/) -->

<svg
   xmlns:dc="http://purl.org/dc/elements/1.1/"
   xmlns:cc="http://creativecommons.org/ns#"
   xmlns:rdf="http://www.w3.org/1999/02/22-rdf-syntax-ns#"
   xmlns:svg="http://www.w3.org/2000/svg"
   xmlns="http://www.w3.org/2000/svg"
   version="1.1"
   width="79.724411"
   height="58.464565"
   id="svg2">
  <defs
     id="defs4" />
  <metadata
     id="metadata7">
    <rdf:RDF>
      <cc:Work
         rdf:about="">
        <dc:format>image/svg+xml</dc:format>
        <dc:type
           rdf:resource="http://purl.org/dc/dcmitype/StillImage" />
        <dc:title></dc:title>
      </cc:Work>
    </rdf:RDF>
  </metadata>
  <g
     transform="translate(0,-993.89762)"
     id="layer1">
    <g
       id="silkscreen">
      <path
         d="m 0,58.464565 79.724409,0 0,-58.4645666520343 -79.724409,0 z"
         transform="translate(0,993.89762)"
         id="path3761"
         style="fill:none;stroke:#ffffff;stroke-width:0.99921262;stroke-linecap:butt;stroke-linejoin:miter;stroke-miterlimit:4;stroke-opacity:1;stroke-dasharray:none" />
    </g>
    <g
       id="copper0">
      <path
         d="m 13.110236,29.232283 a 4.0748034,4.0748034 0 1 1 -8.1496065,0 4.0748034,4.0748034 0 1 1 8.1496065,0 z"
         transform="translate(0,993.89762)"
         id="connector2pad"
         style="opacity:0.98000004;fill:none;stroke:#f7bd13;stroke-width:3.54330707;stroke-miterlimit:4;stroke-opacity:1;stroke-dasharray:none" />
      <path
         d="m 13.110236,29.232283 a 4.0748034,4.0748034 0 1 1 -8.1496065,0 4.0748034,4.0748034 0 1 1 8.1496065,0 z"
         transform="translate(7.2637798,1015.1575)"
         id="path3782-7"
         style="opacity:0.98000004;fill:none;stroke:#ffffff;stroke-width:3.54330707;stroke-miterlimit:4;stroke-opacity:1;stroke-dasharray:none" />
      <path
         d="m 13.110236,29.232283 a 4.0748034,4.0748034 0 1 1 -8.1496065,0 4.0748034,4.0748034 0 1 1 8.1496065,0 z"
         transform="translate(50.314961,1015.1575)"
         id="path3782-7-5"
         style="opacity:0.98000004;fill:none;stroke:#ffffff;stroke-width:3.54330707;stroke-miterlimit:4;stroke-opacity:1;stroke-dasharray:none" />
      <path
         d="m 13.110236,29.232283 a 4.0748034,4.0748034 0 1 1 -8.1496065,0 4.0748034,4.0748034 0 1 1 8.1496065,0 z"
         transform="translate(7.2637798,1015.1575)"
         id="connector1pad"
         style="opacity:0.98000004;fill:none;stroke:#f7bd13;stroke-width:3.54330707;stroke-miterlimit:4;stroke-opacity:1;stroke-dasharray:none" />
      <path
         d="m 13.110236,29.232283 a 4.0748034,4.0748034 0 1 1 -8.1496065,0 4.0748034,4.0748034 0 1 1 8.1496065,0 z"
         transform="translate(50.314961,1015.1575)"
         id="connector0pad"
         style="opacity:0.98000004;fill:none;stroke:#f7bd13;stroke-width:3.54330707;stroke-miterlimit:4;stroke-opacity:1;stroke-dasharray:none" />
      <path
         d="m 13.110236,29.232283 a 4.0748034,4.0748034 0 1 1 -8.1496065,0 4.0748034,4.0748034 0 1 1 8.1496065,0 z"
         transform="matrix(1,0,0,-1,7.2637798,1031.1023)"
         id="connector4pad"
         style="opacity:0.98000004;fill:none;stroke:#f7bd13;stroke-width:3.54330707;stroke-miterlimit:4;stroke-opacity:1;stroke-dasharray:none" />
      <path
         d="m 13.110236,29.232283 a 4.0748034,4.0748034 0 1 1 -8.1496065,0 4.0748034,4.0748034 0 1 1 8.1496065,0 z"
         transform="matrix(1,0,0,-1,50.314961,1031.1023)"
         id="connector5pad"
         style="opacity:0.98000004;fill:none;stroke:#f7bd13;stroke-width:3.54330707;stroke-miterlimit:4;stroke-opacity:1;stroke-dasharray:none" />
    </g>
  </g>
</svg>
