<?xml version="1.0" encoding="UTF-8" standalone="no"?>
<!-- Created with Inkscape (http://www.inkscape.org/) -->

<svg
   xmlns:dc="http://purl.org/dc/elements/1.1/"
   xmlns:cc="http://creativecommons.org/ns#"
   xmlns:rdf="http://www.w3.org/1999/02/22-rdf-syntax-ns#"
   xmlns:svg="http://www.w3.org/2000/svg"
   xmlns="http://www.w3.org/2000/svg"
   version="1.1"
   width="77.258995"
   height="57.409996"
   id="svg7539">
  <defs
     id="defs7541">
    <radialGradient
       cx="-226.43359"
       cy="685.83612"
       r="1"
       id="XMLID_260_"
       gradientUnits="userSpaceOnUse"
       gradientTransform="matrix(0,76.54,-54.57,0,37480.641,17712.519)">
      <stop
         id="stop4953"
         style="stop-color:#000000;stop-opacity:1"
         offset="0" />
      <stop
         id="stop4955"
         style="stop-color:#000000;stop-opacity:1"
         offset="1" />
    </radialGradient>
  </defs>
  <metadata
     id="metadata7544">
    <rdf:RDF>
      <cc:Work
         rdf:about="">
        <dc:format>image/svg+xml</dc:format>
        <dc:type
           rdf:resource="http://purl.org/dc/dcmitype/StillImage" />
        <dc:title></dc:title>
      </cc:Work>
    </rdf:RDF>
  </metadata>
  <g
     transform="translate(-324.22765,-583.65718)"
     id="layer1">
    <g
       transform="matrix(0,-0.99999996,-0.99999996,0,782.40763,640.14318)"
       id="shape51-94">
      <title
         id="title4950">シート.51</title>
      <radialGradient
         cx="-226.43359"
         cy="685.83612"
         r="1"
         id="radialGradient7463"
         gradientUnits="userSpaceOnUse"
         gradientTransform="matrix(0,76.54,-54.57,0,37480.641,17712.519)">
        <stop
           id="stop7465"
           style="stop-color:#000000;stop-opacity:1"
           offset="0" />
        <stop
           id="stop7467"
           style="stop-color:#000000;stop-opacity:1"
           offset="1" />
      </radialGradient>
      <path
         d="M 54.271,381.69 53.65,381.281 H 8.22 l -1.13,0.569 v 1.13 22.4 l -7.09,8.5 0.06,7.74 0.29,0.479 0.57,0.28 h 1.99 v 5.11 L 0,431.46 v 25.89 l 0.13,0.4 0.51,0.07 h 53.381 l 0.34,-0.271 0.06,-0.26 v -47.83 -4.2 l 0.149,-22.83 -0.299,-0.739 z"
         id="path4957"
         style="fill:url(#XMLID_260_);stroke:#000000;stroke-width:0.72000003;stroke-linecap:round;stroke-linejoin:round;stroke-miterlimit:3" />
    </g>
    <g
       transform="matrix(0,0.99999996,-0.99999996,0,787.22663,584.01718)"
       id="shape32-110">
      <title
         id="title5070">シート.32</title>
      <path
         d="m 0,457.82 c 13.78,-4.11 41.33,-4.2 56.69,0"
         id="path5072"
         style="fill:none;stroke:#ffffff;stroke-width:0.72000003;stroke-linecap:round;stroke-linejoin:round;stroke-miterlimit:3;stroke-opacity:0.25" />
    </g>
    <g
       transform="translate(369.37664,168.1667)"
       id="shape34-113">
      <title
         id="title5075">シート.34</title>
      <path
         d="m 3.15,453.99 c -0.68,-0.67 -0.7,-1.16 -0.67,-1.511 0.02,-0.299 0.09,-0.489 0.3,-0.67 0.59,-0.479 2.28,-0.85 4.42,-0.959 h 4.38 l -0.56,1.35 H 5.51 c -0.45,0.109 -0.631,0.16 -0.58,0.3 0.069,0.181 0.46,0.479 0.689,0.479 l 1.351,0.451 c 1.01,0.34 1.56,0.43 2.109,0.85 0.47,0.359 0.96,0.96 0.92,1.54 -0.05,1.01 -1.64,1.97 -2.8,2 H 0 l 0.79,-2.36 4.05,0.33 c 0.181,0.13 1.341,0.01 1.521,-0.189 0.22,-0.26 -1.15,-0.631 -1.521,-0.82 L 3.15,453.99 z"
         id="path5077"
         style="fill:#ffffff" />
    </g>
    <g
       transform="translate(379.72164,168.2978)"
       id="shape55-115">
      <title
         id="title5080">シート.55</title>
      <path
         d="m 0,457.799 c 2.72,0.16 6.42,-0.379 8.05,-0.939 0.5,-0.17 0.81,-0.34 1.62,-0.9 0.569,-0.39 1.399,-0.97 1.72,-1.59 0.28,-0.56 0.14,-1.14 -0.17,-1.52 -0.32,-0.391 -0.82,-0.561 -1.891,-1.01 l -3.819,1.18 c 0,1.29 -2.021,1.859 -4.391,1.859 L 0,457.799 z"
         id="path5082"
         style="fill:#ffffff" />
    </g>
    <g
       transform="translate(381.85764,162.7694)"
       id="shape56-117">
      <title
         id="title5085">シート.56</title>
      <path
         d="m 4.16,456.47 -2.141,1.35 c -0.899,-0.23 -1.01,-0.23 -2.02,-0.34 l 0.56,-1.35 c 1.581,10e-4 2.141,0.11 3.601,0.34 z"
         id="path5087"
         style="fill:#ffffff" />
    </g>
    <g
       transform="translate(384.38764,163.1629)"
       id="shape57-119">
      <title
         id="title5090">シート.57</title>
      <path
         d="M 3.99,456.69 C 3.45,456.42 2.881,456.34 2.251,456.24 L 0,457.591 l 0.51,0.229 3.48,-1.13 z"
         id="path5092"
         style="fill:#ffffff" />
    </g>
    <g
       transform="translate(384.48164,160.5738)"
       id="shape61-121">
      <title
         id="title5095">シート.61</title>
      <path
         d="m 6.72,454.2 c 0.04,-1.999 -1.433,-3.653 -3.288,-3.696 -1.856,-0.042 -3.393,1.544 -3.432,3.542 -0.001,0.052 -0.001,0.103 0,0.154 -0.04,1.998 1.433,3.653 3.288,3.695 1.855,0.042 3.393,-1.543 3.432,-3.542 0.001,-0.05 0.001,-0.101 0,-0.153 z m -1.89,0 c 0,-0.81 -0.656,-1.466 -1.465,-1.466 -0.81,0 -1.466,0.656 -1.466,1.466 l 0,0 c 0,0.81 0.656,1.465 1.466,1.465 0.809,0 1.465,-0.655 1.465,-1.465 z"
         id="path5097"
         style="fill:#ffffff" />
    </g>
    <g
       transform="translate(369.66064,155.7481)"
       id="shape58-123">
      <title
         id="title5100">シート.58</title>
      <ellipse
         cx="1.206"
         cy="456.612"
         rx="1.206"
         ry="1.206"
         id="ellipse5102"
         style="fill:#ffffff" />
    </g>
    <g
       transform="translate(359.45564,165.2421)"
       id="shape60-125">
      <title
         id="title5105">シート.60</title>
      <path
         d="m 4.88,457.82 h 0.81 v -9.109 c 0.26,-0.611 1.45,-0.611 1.75,0.08 v 8.949 h 2.2 v -9.93 c 0,-2.27 -4.08,-2.391 -4.87,-1.17 C 4.05,445.381 0,445.49 0,447.78 v 9.92 h 2.14 v -8.94 c 0.3,-0.689 1.46,-0.689 1.71,-0.08 v 9.101 h 0.79 l 0.24,0.039 z"
         id="path5107"
         style="fill:#ffffff" />
    </g>
    <g
       transform="translate(369.66064,160.9185)"
       id="shape49-127">
      <title
         id="title5110">シート.49</title>
      <path
         d="m 2.41,454.11 0,0 0,0 z m 0,0 c 0.032,-0.666 -0.48,-1.232 -1.146,-1.264 -0.665,-0.033 -1.231,0.48 -1.264,1.146 -0.002,0.039 -0.002,0.078 0,0.117 v 3.709 h 2.41 v -3.708 l 0,0 z"
         id="path5112"
         style="fill:#ffffff" />
      <path
         d="m 2.41,454.11 0,0 m 0,0 c 0.032,-0.666 -0.48,-1.232 -1.146,-1.264 -0.665,-0.033 -1.231,0.48 -1.264,1.146 -0.002,0.039 -0.002,0.078 0,0.117 v 3.709 h 2.41 v -3.708"
         id="path5114"
         style="fill:none" />
    </g>
    <g
       transform="translate(372.24564,160.5738)"
       id="shape67-130">
      <title
         id="title5117">シート.67</title>
      <path
         d="M 4.83,450.65 H 3.27 v 0.029 c -2.03,0.255 -3.461,2.053 -3.198,4.015 0.229,1.707 1.681,3.015 3.458,3.116 l 1.3,0.01 c 0.509,-0.003 0.961,-0.283 1.13,-0.7 0.221,-0.547 -0.11,-1.146 -0.738,-1.337 -0.088,-0.027 -0.179,-0.045 -0.271,-0.053 l -0.12,-0.01 H 3.54 c -0.861,-0.273 -1.326,-1.152 -1.037,-1.963 0.177,-0.497 0.608,-0.876 1.147,-1.008 h 1.18 c 0.667,0 1.208,-0.471 1.208,-1.05 0,-0.579 -0.541,-1.049 -1.208,-1.049 z"
         id="path5119"
         style="fill:#ffffff" />
    </g>
    <g
       transform="translate(378.44964,160.5738)"
       id="shape62-132">
      <title
         id="title5122">シート.62</title>
      <path
         d="m 3.77,453.32 0,0 0,0 z m 2.02,0.571 c 0.325,-1.408 -0.504,-2.824 -1.853,-3.164 -0.33,-0.084 -0.673,-0.096 -1.008,-0.037 -1.367,-0.238 -2.662,0.726 -2.891,2.154 -0.014,0.084 -0.023,0.17 -0.029,0.256 L 0,453.27 v 4.551 h 2.01 v -0.35 -1.631 -2.52 c -0.026,-0.434 0.345,-0.805 0.829,-0.829 0.484,-0.024 0.899,0.308 0.927,0.741 10e-4,0.029 10e-4,0.059 0,0.088 l 0.005,0.57 H 5.79 z"
         id="path5124"
         style="fill:#ffffff" />
      <path
         d="m 3.77,453.32 0,0 m 2.02,0.571 c 0.325,-1.408 -0.504,-2.824 -1.853,-3.164 -0.33,-0.084 -0.673,-0.096 -1.008,-0.037 -1.367,-0.238 -2.662,0.726 -2.891,2.154 -0.014,0.084 -0.023,0.17 -0.029,0.256 L 0,453.27 v 4.551 h 2.01 v -0.35 -1.631 -2.52 c -0.026,-0.434 0.345,-0.805 0.829,-0.829 0.484,-0.024 0.899,0.308 0.927,0.741 10e-4,0.029 10e-4,0.059 0,0.088 l 0.005,0.57 H 5.79"
         id="path5126"
         style="fill:none" />
    </g>
    <g
       transform="matrix(0,0.99999996,-0.99999996,0,843.19462,584.30018)"
       id="shape108-260">
      <title
         id="title5698">シート.108</title>
      <desc
         id="desc5700">▲</desc>
      <textBlock
         id="textBlock5702"
         margins="rect(4,4,4,4)"
         tabSpace="42.5197" />
      <textRect
         id="textRect5704"
         height="15.748"
         width="14.18"
         cy="449.944"
         cx="7.08661" />
      <rect
         width="15.748"
         height="14.173"
         x="-0.787"
         y="442.858"
         transform="matrix(2.578893e-6,1,-1,2.578893e-6,457.0309,442.8566)"
         id="rect5706"
         style="fill:none" />
      <g
         id="g5708">
        <path
           d="m 5.188,452.339 2.773,-5.543 2.773,5.543 H 5.188 z"
           id="path5710"
           style="fill:#ffffff" />
        <paragraph
           id="paragraph5712"
           horizAlign="1" />
        <tabList
           id="tabList5714" />
      </g>
    </g>
    <g
       transform="translate(386.38464,158.5142)"
       id="shape130-350">
      <title
         id="title5917">シート.130</title>
      <ellipse
         cx="1.559"
         cy="456.259"
         rx="1.559"
         ry="1.559"
         id="ellipse5919" />
    </g>
  </g>
</svg>
