<?xml version="1.0" encoding="UTF-8" standalone="no"?>
<!-- Created with Inkscape (http://www.inkscape.org/) -->

<svg
   xmlns:dc="http://purl.org/dc/elements/1.1/"
   xmlns:cc="http://creativecommons.org/ns#"
   xmlns:rdf="http://www.w3.org/1999/02/22-rdf-syntax-ns#"
   xmlns:svg="http://www.w3.org/2000/svg"
   xmlns="http://www.w3.org/2000/svg"
   version="1.1"
   width="110.55169"
   height="112.33098"
   id="svg6960">
  <defs
     id="defs6962">
    <radialGradient
       cx="-198.9585"
       cy="774.66528"
       r="0"
       id="XMLID_258_"
       gradientUnits="userSpaceOnUse"
       gradientTransform="matrix(100.9,0,0,-107.72,20175.801,83797.062)">
      <stop
         id="stop4933"
         style="stop-color:#4d4d4d;stop-opacity:1"
         offset="0" />
      <stop
         id="stop4935"
         style="stop-color:#000000;stop-opacity:1"
         offset="1" />
    </radialGradient>
  </defs>
  <metadata
     id="metadata6965">
    <rdf:RDF>
      <cc:Work
         rdf:about="">
        <dc:format>image/svg+xml</dc:format>
        <dc:type
           rdf:resource="http://purl.org/dc/dcmitype/StillImage" />
        <dc:title></dc:title>
      </cc:Work>
    </rdf:RDF>
  </metadata>
  <g
     transform="translate(-421.49734,-633.23713)"
     id="layer1">
    <g
       transform="translate(425.74934,287.38811)"
       id="shape47-87">
      <title
         id="title4930">シート.47</title>
      <radialGradient
         cx="-198.9585"
         cy="774.66528"
         r="0"
         id="radialGradient6854"
         gradientUnits="userSpaceOnUse"
         gradientTransform="matrix(100.9,0,0,-107.72,20175.801,83797.062)">
        <stop
           id="stop6856"
           style="stop-color:#4d4d4d;stop-opacity:1"
           offset="0" />
        <stop
           id="stop6858"
           style="stop-color:#000000;stop-opacity:1"
           offset="1" />
      </radialGradient>
      <path
         d="M 100.35,350.67 99.209,350.1 H 10.77 l -1.7,0.57 -0.57,1.7 v 23.241 L 0,384.12 v 14.689 58.35 l 0.24,0.561 0.94,0.1 h 98.7 l 0.63,-0.379 0.12,-0.371 v -67.32 -5.9 l 0.27,-32.13 -0.55,-1.05 z"
         id="path4937"
         style="fill:url(#XMLID_258_);stroke:#000000;stroke-width:0.72000003;stroke-linecap:round;stroke-linejoin:round;stroke-miterlimit:3" />
    </g>
    <g
       transform="translate(468.41274,247.63911)"
       id="shape91-204">
      <title
         id="title5415">シート.91</title>
      <path
         d="m 5.84,450.72 c -1.25,-1.25 -1.3,-2.16 -1.24,-2.8 0.04,-0.561 0.16,-0.92 0.561,-1.25 1.09,-0.9 4.229,-1.58 8.189,-1.79 h 8.141 l -1.04,2.51 H 10.22 c -0.83,0.21 -1.16,0.3 -1.07,0.57 0.12,0.319 0.851,0.88 1.28,0.89 l 2.51,0.83 c 1.87,0.63 2.88,0.79 3.91,1.58 0.88,0.67 1.771,1.78 1.71,2.859 -0.1,1.871 -3.06,3.641 -5.21,3.701 H 0 l 1.46,-4.381 7.51,0.62 c 0.34,0.24 2.51,0.011 2.83,-0.37 0.4,-0.47 -2.13,-1.16 -2.83,-1.51 L 5.84,450.72 z"
         id="path5417"
         style="fill:#ffffff" />
    </g>
    <g
       transform="translate(487.60703,247.88211)"
       id="shape92-206">
      <title
         id="title5420">シート.92</title>
      <path
         d="m 0,457.781 c 5.05,0.31 11.92,-0.701 14.93,-1.73 0.94,-0.32 1.5,-0.65 3.01,-1.68 1.061,-0.721 2.601,-1.811 3.181,-2.94 0.54,-1.04 0.27,-2.13 -0.311,-2.83 -0.59,-0.72 -1.51,-1.04 -3.49,-1.87 l -7.1,2.19 c 0,2.399 -3.75,3.439 -8.13,3.439 L 0,457.781 z"
         id="path5422"
         style="fill:#ffffff" />
    </g>
    <g
       transform="translate(491.57103,237.62411)"
       id="shape93-208">
      <title
         id="title5425">シート.93</title>
      <path
         d="m 7.72,455.31 -3.96,2.51 C 2.09,457.4 1.88,457.4 0,457.19 l 1.04,-2.5 c 2.92,0 3.97,0.21 6.68,0.62 z"
         id="path5427"
         style="fill:#ffffff" />
    </g>
    <g
       transform="translate(496.26503,238.35511)"
       id="shape94-210">
      <title
         id="title5430">シート.94</title>
      <path
         d="m 7.41,455.729 c -1,-0.5 -2.069,-0.649 -3.239,-0.83 l -4.17,2.5 0.939,0.42 6.47,-2.09 z"
         id="path5432"
         style="fill:#ffffff" />
    </g>
    <g
       transform="translate(472.88704,219.07412)"
       id="shape96-212">
      <title
         id="title5435">シート.96</title>
      <ellipse
         cx="3.2360001"
         cy="454.582"
         rx="3.2360001"
         ry="3.2360001"
         id="ellipse5437"
         style="fill:#ffffff" />
    </g>
    <g
       transform="translate(444.52884,243.66411)"
       id="shape97-214">
      <title
         id="title5440">シート.97</title>
      <path
         d="m 12.67,457.82 h 2.09 v -23.64 c 0.689,-1.59 3.76,-1.59 4.56,0.21 v 23.22 h 5.69 v -25.76 c 0,-5.9 -10.57,-6.221 -12.63,-3.04 C 10.5,425.54 0,425.81 0,431.77 v 25.75 H 5.55 V 434.299 C 6.33,432.51 9.33,432.51 10,434.09 v 23.64 h 2.029 l 0.641,0.09 z"
         id="path5442"
         style="fill:#ffffff" />
    </g>
    <g
       transform="translate(472.88704,232.94411)"
       id="shape98-216">
      <title
         id="title5445">シート.98</title>
      <path
         d="m 6.459,447.88 0,0 0,0 z m 0,0 c 0.149,-1.78 -1.174,-3.346 -2.955,-3.495 -1.781,-0.148 -3.346,1.175 -3.494,2.956 -0.016,0.179 -0.016,0.36 0,0.539 L 0,457.82 h 6.47 v -9.94 H 6.459 z"
         id="path5447"
         style="fill:#ffffff" />
      <path
         d="m 6.459,447.88 0,0 m 0,0 c 0.149,-1.78 -1.174,-3.346 -2.955,-3.495 -1.781,-0.148 -3.346,1.175 -3.494,2.956 -0.016,0.179 -0.016,0.36 0,0.539 L 0,457.82 h 6.47 v -9.94"
         id="path5449"
         style="fill:none" />
    </g>
    <g
       transform="translate(501.58503,219.18612)"
       id="shape95-219">
      <title
         id="title5452">シート.95</title>
      <ellipse
         cx="3.2360001"
         cy="454.582"
         rx="3.2360001"
         ry="3.2360001"
         id="ellipse5454"
         style="fill:#ffffff" />
    </g>
    <g
       transform="translate(501.58503,233.05611)"
       id="shape99-221">
      <title
         id="title5457">シート.99</title>
      <path
         d="m 6.46,447.88 0,0 0,0 z m 0,0 c 0.149,-1.781 -1.174,-3.346 -2.955,-3.494 -1.781,-0.149 -3.346,1.174 -3.495,2.955 -0.015,0.18 -0.015,0.359 0,0.539 L 0,457.82 h 6.47 v -9.939 H 6.46 z"
         id="path5459"
         style="fill:#ffffff" />
      <path
         d="m 6.46,447.88 0,0 m 0,0 c 0.149,-1.781 -1.174,-3.346 -2.955,-3.494 -1.781,-0.149 -3.346,1.174 -3.495,2.955 -0.015,0.18 -0.015,0.359 0,0.539 L 0,457.82 h 6.47 v -9.939"
         id="path5461"
         style="fill:none" />
    </g>
    <g
       transform="translate(482.34504,232.83611)"
       id="shape101-224">
      <title
         id="title5464">シート.101</title>
      <path
         d="m 10.28,457.82 h 5.641 v -12.34 c 0.129,-4.396 -3.331,-8.064 -7.727,-8.194 -4.396,-0.129 -8.064,3.331 -8.194,7.727 -0.004,0.156 -0.004,0.313 0,0.468 v 12.34 h 5.31 v -12.28 c 0.066,-1.372 1.232,-2.431 2.604,-2.364 1.28,0.062 2.304,1.085 2.365,2.364 v 12.279 z m 5.64,-12.34 0,0 0,0 z"
         id="path5466"
         style="fill:#ffffff" />
      <path
         d="m 10.28,457.82 h 5.641 v -12.34 c 0.129,-4.396 -3.331,-8.064 -7.727,-8.194 -4.396,-0.129 -8.064,3.331 -8.194,7.727 -0.004,0.156 -0.004,0.313 0,0.468 v 12.34 h 5.31 v -12.28 c 0.066,-1.372 1.232,-2.431 2.604,-2.364 1.28,0.062 2.304,1.085 2.365,2.364 v 12.279 m 5.641,-12.34 0,0"
         id="path5468"
         style="fill:none" />
    </g>
    <g
       transform="translate(446.65484,285.97011)"
       id="shape7-227">
      <title
         id="title5471">シート.7</title>
      <path
         d="m 1.179,455.459 h 57.878 c 0.651,0 1.18,0.528 1.18,1.179 l 0,0 c 0,0.652 -0.528,1.18 -1.18,1.18 H 1.179 C 0.528,457.818 0,457.291 0,456.638 l 0,0 c 0,-0.65 0.528,-1.179 1.179,-1.179 z"
         id="path5473"
         style="fill:#ffffff;stroke:#000000;stroke-width:0.72000003;stroke-linecap:round;stroke-linejoin:round;stroke-miterlimit:3" />
    </g>
    <g
       transform="translate(421.49734,223.60812)"
       id="shape28-229">
      <title
         id="title5476">シート.28</title>
      <ellipse
         cx="4.2519999"
         cy="455.33801"
         rx="4.2519999"
         ry="2.48"
         id="ellipse5478"
         style="fill:#ffffff;fill-opacity:0.3" />
    </g>
    <g
       transform="translate(428.58394,203.76612)"
       id="shape29-231">
      <title
         id="title5481">シート.29</title>
      <rect
         width="7.0869999"
         height="28.347"
         x="0"
         y="429.47101"
         id="rect5483"
         style="fill:#ffffff;fill-opacity:0.3" />
    </g>
    <g
       transform="translate(524.96203,203.76612)"
       id="shape30-233">
      <title
         id="title5486">シート.30</title>
      <rect
         width="7.0869999"
         height="28.347"
         x="0"
         y="429.47101"
         id="rect5488"
         style="fill:#ffffff;fill-opacity:0.3" />
    </g>
    <g
       transform="translate(522.12703,223.60812)"
       id="shape48-235">
      <title
         id="title5491">シート.48</title>
      <ellipse
         cx="4.2519999"
         cy="454.983"
         rx="4.2519999"
         ry="2.8340001"
         id="ellipse5493"
         style="fill:#ffffff;fill-opacity:0.3" />
    </g>
  </g>
</svg>
