<?xml version="1.0" encoding="UTF-8" standalone="no"?>
<!-- Created with Inkscape (http://www.inkscape.org/) -->

<svg
   xmlns:dc="http://purl.org/dc/elements/1.1/"
   xmlns:cc="http://creativecommons.org/ns#"
   xmlns:rdf="http://www.w3.org/1999/02/22-rdf-syntax-ns#"
   xmlns:svg="http://www.w3.org/2000/svg"
   xmlns="http://www.w3.org/2000/svg"
   version="1.1"
   width="121.19"
   height="163.71001"
   id="svg6519">
  <defs
     id="defs6521">
    <radialGradient
       cx="-180.7701"
       cy="922.67102"
       r="1"
       id="XMLID_253_"
       gradientUnits="userSpaceOnUse"
       gradientTransform="matrix(120.47,0,0,-162.99,21897.834,150680.92)">
      <stop
         id="stop4616"
         style="stop-color:#000080;stop-opacity:1"
         offset="0" />
      <stop
         id="stop4618"
         style="stop-color:#5105cd;stop-opacity:1"
         offset="1" />
    </radialGradient>
  </defs>
  <metadata
     id="metadata6524">
    <rdf:RDF>
      <cc:Work
         rdf:about="">
        <dc:format>image/svg+xml</dc:format>
        <dc:type
           rdf:resource="http://purl.org/dc/dcmitype/StillImage" />
        <dc:title></dc:title>
      </cc:Work>
    </rdf:RDF>
  </metadata>
  <g
     transform="translate(-314.405,-450.50718)"
     id="layer1">
    <g
       transform="translate(314.765,156.03718)"
       id="shape1-1">
      <title
         id="title4613">シート.1</title>
      <radialGradient
         cx="-180.7701"
         cy="922.67102"
         r="1"
         id="radialGradient6427"
         gradientUnits="userSpaceOnUse"
         gradientTransform="matrix(120.47,0,0,-162.99,21897.834,150680.92)">
        <stop
           id="stop6429"
           style="stop-color:#000080;stop-opacity:1"
           offset="0" />
        <stop
           id="stop6431"
           style="stop-color:#5105cd;stop-opacity:1"
           offset="1" />
      </radialGradient>
      <path
         d="M 0.43,295.11 0,295.96 v 38.55 h 4.25 v 34.02 H 0 v 88.3 l 0.28,0.85 1.14,0.14 h 118.15 l 0.76,-0.57 0.14,-0.57 V 354.83 l -2.83,0.09 v -9.07 l 2.83,0.04 v -29.8 L 99.21,294.83 H 1.28 l -0.85,0.28 z"
         id="path4620"
         style="fill:url(#XMLID_253_);stroke:#000000;stroke-width:0.72000003;stroke-linecap:round;stroke-linejoin:round;stroke-miterlimit:3" />
    </g>
    <g
       transform="translate(314.765,49.738183)"
       id="shape2-5">
      <title
         id="title4623">シート.2</title>
      <rect
         width="4.2519999"
         height="16.157"
         x="0"
         y="441.66"
         id="rect4625"
         style="fill:#ffffff;stroke:#000000;stroke-width:0.72000003;stroke-linecap:round;stroke-linejoin:round;stroke-miterlimit:3" />
    </g>
    <g
       transform="translate(323.2689,143.28118)"
       id="shape3-7">
      <title
         id="title4628">シート.3</title>
      <path
         d="m 14.173,324.59 h 75.119 c 7.827,0 14.173,6.346 14.173,14.173 v 104.881 c 0,7.828 -6.346,14.173 -14.173,14.173 H 14.173 C 6.346,457.818 0,451.473 0,443.645 V 338.763 C 0,330.936 6.346,324.59 14.173,324.59 z"
         id="path4630"
         style="fill:#000080;stroke:#000000;stroke-width:0.72000003;stroke-linecap:round;stroke-linejoin:round;stroke-miterlimit:3" />
    </g>
    <g
       transform="translate(336.7335,149.89218)"
       id="shape4-9">
      <title
         id="title4633">シート.4</title>
      <path
         d="m 1.18,455.459 h 73.468 c 0.651,0 1.179,0.528 1.179,1.18 l 0,0 c 0,0.651 -0.527,1.179 -1.179,1.179 H 1.18 C 0.529,457.818 0,457.29 0,456.639 l 0,0 c 0,-0.652 0.529,-1.18 1.18,-1.18 z"
         id="path4635"
         style="fill:#ffffff;stroke:#000000;stroke-width:0.72000003;stroke-linecap:round;stroke-linejoin:round;stroke-miterlimit:3" />
    </g>
    <g
       transform="translate(323.2689,69.605183)"
       id="shape8-11">
      <title
         id="title4638">シート.8</title>
      <path
         d="m 103.46,426.61 v 22.68 c -4.52,3.96 -16.22,8.57 -25.71,8.53 -8.6,-0.04 -15.38,-3.88 -19.88,-8 -9.021,-8.27 -8.83,-17.67 -37.4,-17.48 -0.67,0.01 -1.359,0.02 -2.12,0.11 C 11.79,433.22 0,439.94 0,436.53 v -9.92 h 103.46 z"
         id="path4640"
         style="fill:#00ccff;stroke:#000000;stroke-width:0.72000003;stroke-linecap:round;stroke-linejoin:round;stroke-miterlimit:3" />
    </g>
    <g
       transform="translate(323.2316,38.399183)"
       id="shape9-13">
      <title
         id="title4643">シート.9</title>
      <path
         d="m 103.49,443.09 c -0.62,-3.63 -0.7,-5.6 -1.561,-7.53 -1.32,-3 -4.49,-5.92 -10.05,-5.86 l -78.38,-0.21 c -4.82,1.11 -8.021,2.16 -10.311,4.2 -2.1,1.87 -3.439,4.57 -3.149,9.8 v 14.33 H 103.5 l -0.01,-14.73 z"
         id="path4645"
         style="fill:#ff0000;stroke:#000000;stroke-width:0.72000003;stroke-linecap:round;stroke-linejoin:round;stroke-miterlimit:3" />
    </g>
    <g
       transform="translate(380.7129,34.960183)"
       id="shape15-58">
      <title
         id="title4811">シート.15</title>
      <path
         d="m 5.44,451.22 c -1.17,-1.17 -1.21,-2.02 -1.16,-2.62 0.04,-0.51 0.15,-0.85 0.53,-1.16 1.01,-0.84 3.93,-1.47 7.62,-1.66 H 20 l -0.971,2.33 H 9.52 c -0.78,0.19 -1.09,0.28 -1,0.53 0.11,0.3 0.79,0.82 1.19,0.83 l 2.33,0.77 c 1.75,0.59 2.68,0.74 3.649,1.48 0.811,0.62 1.641,1.65 1.59,2.66 -0.1,1.73 -2.85,3.39 -4.85,3.44 H 0 l 1.359,-4.08 6.99,0.58 c 0.32,0.23 2.33,0.01 2.63,-0.34 0.38,-0.44 -1.979,-1.09 -2.63,-1.41 L 5.44,451.22 z"
         id="path4813"
         style="fill:#ffffff" />
    </g>
    <g
       transform="translate(398.57989,35.186183)"
       id="shape16-60">
      <title
         id="title4816">シート.16</title>
      <path
         d="m 0,457.791 c 4.7,0.28 11.091,-0.66 13.9,-1.62 0.87,-0.3 1.4,-0.6 2.8,-1.56 0.99,-0.68 2.42,-1.68 2.96,-2.74 0.5,-0.97 0.25,-1.98 -0.29,-2.63 -0.55,-0.67 -1.409,-0.97 -3.25,-1.75 l -6.6,2.04 c 0,2.24 -3.5,3.21 -7.58,3.21 L 0,457.791 z"
         id="path4818"
         style="fill:#ffffff" />
    </g>
    <g
       transform="translate(402.26989,25.638183)"
       id="shape17-62">
      <title
         id="title4821">シート.17</title>
      <path
         d="M 7.19,455.49 3.5,457.82 C 1.94,457.43 1.75,457.43 0,457.24 l 0.97,-2.34 c 2.72,0 3.69,0.2 6.22,0.59 z"
         id="path4823"
         style="fill:#ffffff" />
    </g>
    <g
       transform="translate(406.63989,26.318183)"
       id="shape18-64">
      <title
         id="title4826">シート.18</title>
      <path
         d="M 6.89,455.88 C 5.96,455.41 4.97,455.27 3.88,455.1 l -3.88,2.33 0.87,0.39 6.02,-1.94 z"
         id="path4828"
         style="fill:#ffffff" />
    </g>
    <g
       transform="translate(412.36289,41.034183)"
       id="shape19-66">
      <title
         id="title4831">シート.19</title>
      <desc
         id="desc4833">TM</desc>
      <textBlock
         id="textBlock4835"
         margins="rect(4,4,4,4)"
         tabSpace="42.5197" />
      <textRect
         id="textRect4837"
         height="13.7021"
         width="14.38"
         cy="450.967"
         cx="7.18553" />
      <rect
         width="14.371"
         height="13.702"
         x="0"
         y="444.116"
         id="rect4839"
         style="fill:none" />
      <g
         id="g4841">
        <path
           d="m 5.209,452.17 v -2.523 H 4.264 v -0.34 h 2.27 v 0.34 H 5.588 v 2.523 H 5.209 z"
           id="path4843"
           style="fill:#ffffff" />
        <path
           d="m 6.906,452.17 v -2.863 h 0.57 l 0.681,2.027 c 0.063,0.188 0.108,0.33 0.137,0.424 0.033,-0.104 0.084,-0.257 0.153,-0.459 l 0.69,-1.992 h 0.51 v 2.863 H 9.281 v -2.395 L 8.445,452.17 H 8.104 l -0.83,-2.438 v 2.438 H 6.906 z"
           id="path4845"
           style="fill:#ffffff" />
        <paragraph
           id="paragraph4847"
           horizAlign="1" />
        <tabList
           id="tabList4849" />
      </g>
    </g>
    <g
       transform="translate(315.7413,72.494183)"
       id="shape5-101">
      <title
         id="title4979">シート.5</title>
      <desc
         id="desc4981">▼LOCK</desc>
      <textBlock
         id="textBlock4983"
         margins="rect(4,4,4,4)"
         tabSpace="42.5197" />
      <textRect
         id="textRect4985"
         height="20"
         width="51.91"
         cy="447.818"
         cx="25.9528" />
      <rect
         width="51.904999"
         height="20"
         x="0"
         y="437.81799"
         id="rect4987"
         style="fill:none" />
      <g
         id="g4989">
        <path
           d="m 18.654,444.798 -2.773,5.543 -2.773,-5.543 h 5.546 z"
           id="path4991"
           style="fill:#ffffff" />
        <path
           d="m 20.424,450.22 v -5.727 h 0.758 v 5.051 h 2.82 v 0.676 h -3.578 z"
           id="path4993"
           style="fill:#ffffff" />
        <path
           d="m 24.674,447.431 c 0,-0.95 0.255,-1.694 0.766,-2.232 0.511,-0.538 1.169,-0.807 1.977,-0.807 0.529,0 1.005,0.126 1.43,0.379 0.425,0.253 0.748,0.604 0.971,1.057 0.223,0.453 0.334,0.964 0.334,1.537 0,0.581 -0.117,1.101 -0.352,1.559 -0.235,0.458 -0.566,0.806 -0.996,1.041 -0.43,0.235 -0.893,0.354 -1.391,0.354 -0.539,0 -1.021,-0.13 -1.445,-0.391 -0.424,-0.261 -0.746,-0.616 -0.965,-1.066 -0.219,-0.45 -0.329,-0.929 -0.329,-1.431 z m 0.781,0.011 c 0,0.69 0.186,1.233 0.557,1.631 0.371,0.398 0.836,0.596 1.396,0.596 0.57,0 1.04,-0.2 1.408,-0.602 0.368,-0.402 0.553,-0.97 0.553,-1.707 0,-0.466 -0.079,-0.873 -0.236,-1.221 -0.157,-0.348 -0.388,-0.617 -0.691,-0.809 -0.303,-0.192 -0.644,-0.287 -1.021,-0.287 -0.537,0 -0.998,0.185 -1.385,0.553 -0.387,0.368 -0.581,0.984 -0.581,1.846 z"
           id="path4995"
           style="fill:#ffffff" />
        <path
           d="m 35.213,448.212 0.758,0.191 c -0.159,0.622 -0.445,1.097 -0.857,1.424 -0.412,0.327 -0.917,0.49 -1.514,0.49 -0.617,0 -1.119,-0.126 -1.506,-0.377 -0.387,-0.251 -0.681,-0.615 -0.883,-1.092 -0.202,-0.477 -0.303,-0.988 -0.303,-1.535 0,-0.597 0.114,-1.116 0.342,-1.561 0.228,-0.445 0.552,-0.781 0.973,-1.012 0.421,-0.231 0.883,-0.346 1.389,-0.346 0.573,0 1.055,0.146 1.445,0.438 0.39,0.292 0.663,0.702 0.816,1.23 l -0.746,0.176 c -0.133,-0.417 -0.326,-0.72 -0.578,-0.91 -0.252,-0.19 -0.57,-0.285 -0.953,-0.285 -0.44,0 -0.808,0.105 -1.104,0.316 -0.296,0.211 -0.503,0.494 -0.623,0.85 -0.12,0.356 -0.18,0.722 -0.18,1.1 0,0.487 0.071,0.912 0.213,1.275 0.142,0.363 0.363,0.635 0.662,0.814 0.299,0.179 0.624,0.27 0.973,0.27 0.424,0 0.784,-0.122 1.078,-0.367 0.294,-0.245 0.494,-0.608 0.598,-1.089 z"
           id="path4997"
           style="fill:#ffffff" />
        <path
           d="m 36.873,450.22 v -5.727 h 0.758 v 2.84 l 2.844,-2.84 h 1.027 l -2.402,2.32 2.508,3.406 h -1 l -2.039,-2.898 -0.938,0.914 v 1.984 h -0.758 z"
           id="path4999"
           style="fill:#ffffff" />
        <paragraph
           id="paragraph5001"
           horizAlign="1" />
        <tabList
           id="tabList5003" />
      </g>
    </g>
    <g
       transform="translate(317.3791,42.809183)"
       id="shape53-104">
      <title
         id="title5006">シート.53</title>
      <desc
         id="desc5008">Secure Digital</desc>
      <textBlock
         id="textBlock5010"
         margins="rect(4,4,4,4)"
         tabSpace="42.5197" />
      <textRect
         id="textRect5012"
         height="20"
         width="65.64"
         cy="447.818"
         cx="32.8189" />
      <rect
         width="65.638"
         height="20"
         x="0"
         y="437.81799"
         id="rect5014"
         style="fill:none" />
      <g
         id="g5016">
        <path
           d="m 9.89,448.38 0.715,-0.063 c 0.034,0.286 0.113,0.521 0.236,0.705 0.123,0.184 0.316,0.332 0.576,0.445 0.26,0.113 0.553,0.17 0.879,0.17 0.289,0 0.544,-0.043 0.766,-0.129 0.222,-0.086 0.386,-0.204 0.494,-0.354 0.108,-0.15 0.162,-0.313 0.162,-0.49 0,-0.18 -0.052,-0.337 -0.156,-0.471 -0.104,-0.134 -0.276,-0.247 -0.516,-0.338 -0.154,-0.06 -0.494,-0.153 -1.02,-0.279 -0.526,-0.126 -0.895,-0.245 -1.105,-0.357 -0.273,-0.144 -0.477,-0.321 -0.611,-0.533 -0.134,-0.212 -0.201,-0.45 -0.201,-0.713 0,-0.289 0.082,-0.56 0.246,-0.811 0.164,-0.251 0.404,-0.442 0.719,-0.572 0.315,-0.13 0.666,-0.195 1.051,-0.195 0.424,0 0.799,0.068 1.123,0.205 0.324,0.137 0.574,0.338 0.748,0.604 0.174,0.266 0.268,0.566 0.281,0.902 l -0.727,0.055 c -0.039,-0.362 -0.171,-0.636 -0.396,-0.82 -0.225,-0.184 -0.558,-0.277 -0.998,-0.277 -0.458,0 -0.792,0.084 -1.002,0.252 -0.21,0.168 -0.314,0.37 -0.314,0.607 0,0.206 0.074,0.375 0.223,0.508 0.146,0.133 0.527,0.269 1.143,0.408 0.616,0.139 1.039,0.261 1.268,0.365 0.333,0.153 0.58,0.349 0.738,0.584 0.158,0.235 0.238,0.507 0.238,0.814 0,0.305 -0.087,0.592 -0.262,0.861 -0.175,0.269 -0.425,0.479 -0.752,0.629 -0.327,0.15 -0.695,0.225 -1.104,0.225 -0.518,0 -0.953,-0.075 -1.303,-0.227 -0.35,-0.152 -0.625,-0.378 -0.824,-0.682 C 10.006,449.104 9.9,448.763 9.89,448.38 z"
           id="path5018"
           style="fill:#ffffff" />
        <path
           d="m 18.233,448.884 0.727,0.09 c -0.115,0.425 -0.327,0.754 -0.637,0.988 -0.31,0.234 -0.706,0.352 -1.188,0.352 -0.607,0 -1.088,-0.187 -1.443,-0.561 -0.355,-0.374 -0.533,-0.897 -0.533,-1.572 0,-0.698 0.18,-1.239 0.539,-1.625 0.359,-0.386 0.826,-0.578 1.398,-0.578 0.555,0 1.008,0.188 1.359,0.566 0.351,0.378 0.527,0.909 0.527,1.594 0,0.042 -10e-4,0.104 -0.004,0.188 h -3.094 c 0.026,0.456 0.155,0.805 0.387,1.047 0.232,0.242 0.521,0.363 0.867,0.363 0.258,0 0.478,-0.067 0.66,-0.203 0.182,-0.136 0.329,-0.352 0.435,-0.649 z m -2.308,-1.137 h 2.316 c -0.031,-0.349 -0.12,-0.61 -0.266,-0.785 -0.224,-0.271 -0.514,-0.406 -0.871,-0.406 -0.323,0 -0.594,0.108 -0.814,0.324 -0.22,0.216 -0.342,0.505 -0.365,0.867 z"
           id="path5020"
           style="fill:#ffffff" />
        <path
           d="m 22.55,448.701 0.691,0.09 c -0.076,0.477 -0.269,0.85 -0.58,1.119 -0.311,0.269 -0.693,0.404 -1.146,0.404 -0.568,0 -1.024,-0.186 -1.369,-0.557 -0.345,-0.371 -0.518,-0.903 -0.518,-1.596 0,-0.448 0.074,-0.84 0.223,-1.176 0.149,-0.336 0.375,-0.588 0.678,-0.756 0.303,-0.168 0.633,-0.252 0.99,-0.252 0.451,0 0.819,0.114 1.105,0.342 0.286,0.228 0.47,0.552 0.551,0.971 l -0.684,0.105 c -0.065,-0.278 -0.18,-0.488 -0.346,-0.629 -0.166,-0.141 -0.365,-0.211 -0.6,-0.211 -0.354,0 -0.642,0.127 -0.863,0.381 -0.221,0.254 -0.332,0.655 -0.332,1.205 0,0.558 0.107,0.962 0.32,1.215 0.213,0.253 0.492,0.379 0.836,0.379 0.276,0 0.506,-0.085 0.691,-0.254 0.185,-0.169 0.304,-0.429 0.353,-0.78 z"
           id="path5022"
           style="fill:#ffffff" />
        <path
           d="m 26.562,450.22 v -0.609 c -0.323,0.469 -0.762,0.703 -1.316,0.703 -0.245,0 -0.473,-0.047 -0.686,-0.141 -0.213,-0.094 -0.37,-0.212 -0.473,-0.354 -0.103,-0.142 -0.175,-0.315 -0.217,-0.521 -0.029,-0.138 -0.043,-0.356 -0.043,-0.656 v -2.57 h 0.703 v 2.301 c 0,0.367 0.014,0.614 0.043,0.742 0.044,0.185 0.138,0.33 0.281,0.436 0.143,0.106 0.32,0.158 0.531,0.158 0.211,0 0.409,-0.054 0.594,-0.162 0.185,-0.108 0.316,-0.255 0.393,-0.441 0.077,-0.186 0.115,-0.456 0.115,-0.811 v -2.223 h 0.703 v 4.148 h -0.628 z"
           id="path5024"
           style="fill:#ffffff" />
        <path
           d="m 28.284,450.22 v -4.148 h 0.633 v 0.629 c 0.162,-0.294 0.311,-0.488 0.447,-0.582 0.136,-0.094 0.287,-0.141 0.451,-0.141 0.237,0 0.478,0.075 0.723,0.227 l -0.242,0.652 c -0.172,-0.102 -0.344,-0.152 -0.516,-0.152 -0.154,0 -0.292,0.046 -0.414,0.139 -0.122,0.093 -0.209,0.221 -0.262,0.385 -0.078,0.25 -0.117,0.523 -0.117,0.82 v 2.172 h -0.703 z"
           id="path5026"
           style="fill:#ffffff" />
        <path
           d="m 33.796,448.884 0.727,0.09 c -0.115,0.425 -0.327,0.754 -0.637,0.988 -0.31,0.234 -0.706,0.352 -1.188,0.352 -0.607,0 -1.088,-0.187 -1.443,-0.561 -0.355,-0.374 -0.533,-0.897 -0.533,-1.572 0,-0.698 0.18,-1.239 0.539,-1.625 0.359,-0.386 0.826,-0.578 1.398,-0.578 0.555,0 1.008,0.188 1.359,0.566 0.351,0.378 0.527,0.909 0.527,1.594 0,0.042 -0.001,0.104 -0.004,0.188 h -3.094 c 0.026,0.456 0.155,0.805 0.387,1.047 0.232,0.242 0.521,0.363 0.867,0.363 0.258,0 0.478,-0.067 0.66,-0.203 0.182,-0.136 0.328,-0.352 0.435,-0.649 z m -2.309,-1.137 h 2.316 c -0.031,-0.349 -0.12,-0.61 -0.266,-0.785 -0.224,-0.271 -0.514,-0.406 -0.871,-0.406 -0.323,0 -0.594,0.108 -0.814,0.324 -0.22,0.216 -0.341,0.505 -0.365,0.867 z"
           id="path5028"
           style="fill:#ffffff" />
        <path
           d="m 37.718,450.22 v -5.727 h 1.973 c 0.445,0 0.785,0.027 1.02,0.082 0.328,0.075 0.608,0.212 0.84,0.41 0.302,0.255 0.528,0.581 0.678,0.979 0.15,0.398 0.225,0.851 0.225,1.361 0,0.435 -0.051,0.82 -0.152,1.156 -0.101,0.336 -0.232,0.614 -0.391,0.834 -0.159,0.22 -0.333,0.394 -0.521,0.52 -0.188,0.126 -0.417,0.222 -0.684,0.287 -0.267,0.065 -0.574,0.098 -0.92,0.098 h -2.068 z m 0.758,-0.676 h 1.223 c 0.377,0 0.674,-0.035 0.889,-0.105 0.215,-0.07 0.386,-0.169 0.514,-0.297 0.18,-0.18 0.32,-0.421 0.42,-0.725 0.1,-0.304 0.15,-0.671 0.15,-1.104 0,-0.599 -0.098,-1.06 -0.295,-1.381 -0.197,-0.321 -0.436,-0.537 -0.717,-0.646 -0.203,-0.078 -0.53,-0.117 -0.98,-0.117 h -1.203 v 4.375 z"
           id="path5030"
           style="fill:#ffffff" />
        <path
           d="m 43.409,445.302 v -0.809 h 0.703 v 0.809 h -0.703 z m 0,4.918 v -4.148 h 0.703 v 4.148 h -0.703 z"
           id="path5032"
           style="fill:#ffffff" />
        <path
           d="m 45.054,450.564 0.684,0.102 c 0.029,0.211 0.108,0.364 0.238,0.461 0.174,0.13 0.413,0.195 0.715,0.195 0.326,0 0.577,-0.065 0.754,-0.195 0.177,-0.13 0.297,-0.313 0.359,-0.547 0.037,-0.144 0.053,-0.444 0.051,-0.902 -0.307,0.362 -0.69,0.543 -1.148,0.543 -0.57,0 -1.012,-0.206 -1.324,-0.617 -0.312,-0.411 -0.469,-0.905 -0.469,-1.48 0,-0.396 0.072,-0.761 0.215,-1.096 0.143,-0.335 0.351,-0.593 0.623,-0.775 0.272,-0.182 0.592,-0.273 0.959,-0.273 0.49,0 0.893,0.198 1.211,0.594 v -0.5 h 0.648 v 3.586 c 0,0.646 -0.066,1.104 -0.197,1.373 -0.131,0.269 -0.34,0.482 -0.625,0.639 -0.285,0.157 -0.636,0.234 -1.053,0.234 -0.495,0 -0.895,-0.111 -1.199,-0.334 -0.304,-0.223 -0.452,-0.56 -0.442,-1.008 z m 0.582,-2.492 c 0,0.544 0.108,0.941 0.324,1.191 0.216,0.25 0.487,0.375 0.813,0.375 0.323,0 0.594,-0.124 0.813,-0.373 0.219,-0.249 0.328,-0.639 0.328,-1.17 0,-0.508 -0.113,-0.891 -0.338,-1.148 -0.225,-0.257 -0.497,-0.387 -0.814,-0.387 -0.313,0 -0.578,0.127 -0.797,0.381 -0.219,0.254 -0.329,0.631 -0.329,1.131 z"
           id="path5034"
           style="fill:#ffffff" />
        <path
           d="m 49.636,445.302 v -0.809 h 0.703 v 0.809 h -0.703 z m 0,4.918 v -4.148 h 0.703 v 4.148 h -0.703 z"
           id="path5036"
           style="fill:#ffffff" />
        <path
           d="m 52.944,449.591 0.102,0.621 c -0.198,0.042 -0.375,0.063 -0.531,0.063 -0.255,0 -0.453,-0.04 -0.594,-0.121 -0.141,-0.081 -0.24,-0.187 -0.297,-0.318 -0.057,-0.131 -0.086,-0.408 -0.086,-0.83 v -2.387 h -0.516 v -0.547 h 0.516 v -1.027 l 0.699,-0.422 v 1.449 h 0.707 v 0.547 h -0.707 v 2.426 c 0,0.2 0.012,0.329 0.037,0.387 0.025,0.058 0.065,0.103 0.121,0.137 0.056,0.034 0.136,0.051 0.24,0.051 0.078,-10e-4 0.181,-0.01 0.309,-0.029 z"
           id="path5038"
           style="fill:#ffffff" />
        <path
           d="m 56.338,449.708 c -0.26,0.222 -0.511,0.378 -0.752,0.469 -0.241,0.091 -0.5,0.137 -0.775,0.137 -0.456,0 -0.806,-0.111 -1.051,-0.334 -0.245,-0.223 -0.367,-0.507 -0.367,-0.854 0,-0.203 0.046,-0.389 0.139,-0.557 0.093,-0.168 0.213,-0.303 0.363,-0.404 0.15,-0.101 0.318,-0.179 0.506,-0.23 0.138,-0.036 0.346,-0.071 0.625,-0.105 0.568,-0.067 0.986,-0.148 1.254,-0.242 0.002,-0.097 0.004,-0.157 0.004,-0.184 0,-0.286 -0.066,-0.488 -0.199,-0.605 -0.18,-0.159 -0.447,-0.238 -0.801,-0.238 -0.331,0 -0.575,0.058 -0.732,0.174 -0.157,0.116 -0.274,0.321 -0.35,0.615 l -0.688,-0.094 c 0.063,-0.294 0.166,-0.532 0.309,-0.713 0.143,-0.181 0.35,-0.32 0.621,-0.418 0.271,-0.098 0.584,-0.146 0.941,-0.146 0.354,0 0.642,0.042 0.863,0.125 0.221,0.083 0.384,0.188 0.488,0.314 0.104,0.126 0.177,0.286 0.219,0.479 0.023,0.12 0.035,0.336 0.035,0.648 v 0.938 c 0,0.653 0.015,1.067 0.045,1.24 0.03,0.173 0.089,0.339 0.178,0.498 h -0.734 c -0.073,-0.146 -0.12,-0.317 -0.141,-0.513 z m -0.058,-1.57 c -0.255,0.104 -0.638,0.192 -1.148,0.266 -0.289,0.042 -0.494,0.089 -0.613,0.141 -0.119,0.052 -0.212,0.128 -0.277,0.229 -0.065,0.101 -0.098,0.212 -0.098,0.334 0,0.188 0.071,0.344 0.213,0.469 0.142,0.125 0.35,0.188 0.623,0.188 0.271,0 0.512,-0.06 0.723,-0.178 0.211,-0.118 0.366,-0.28 0.465,-0.486 0.076,-0.159 0.113,-0.394 0.113,-0.703 v -0.26 z"
           id="path5040"
           style="fill:#ffffff" />
        <path
           d="m 58.065,450.22 v -5.727 h 0.703 v 5.727 h -0.703 z"
           id="path5042"
           style="fill:#ffffff" />
        <paragraph
           id="paragraph5044"
           horizAlign="1" />
        <tabList
           id="tabList5046" />
      </g>
    </g>
  </g>
</svg>
