<?xml version="1.0" encoding="UTF-8" standalone="no"?>
<!-- Created with Inkscape (http://www.inkscape.org/) -->

<svg
   xmlns:dc="http://purl.org/dc/elements/1.1/"
   xmlns:cc="http://creativecommons.org/ns#"
   xmlns:rdf="http://www.w3.org/1999/02/22-rdf-syntax-ns#"
   xmlns:svg="http://www.w3.org/2000/svg"
   xmlns="http://www.w3.org/2000/svg"
   version="1.1"
   width="85.3937"
   height="113.74017"
   id="0">
  <desc
     id="0.0">
    <referenceFile
       id="0.0.0">SD_pcb.svg</referenceFile>
  </desc>
  <defs
     id="0.1">
    <linearGradient
       x1="-318.92841"
       y1="1039.1975"
       x2="-318.92841"
       y2="1038.1975"
       id="0.1.0"
       gradientUnits="userSpaceOnUse"
       gradientTransform="matrix(11.34,0,0,-23.25,3622.324,24595.898)">
      <stop
         id="0.1.0.0"
         style="stop-color:#cccc00;stop-opacity:1"
         offset="0" />
      <stop
         id="0.1.0.1"
         style="stop-color:#e6e600;stop-opacity:1"
         offset="1" />
    </linearGradient>
    <linearGradient
       x1="-363.40601"
       y1="1050.0356"
       x2="-363.40601"
       y2="1049.0356"
       id="0.1.1"
       gradientUnits="userSpaceOnUse"
       gradientTransform="matrix(24.9449,0,0,-27.2126,9077.6045,29004.791)">
      <stop
         id="0.1.1.0"
         style="stop-color:#cccc00;stop-opacity:1"
         offset="0" />
      <stop
         id="0.1.1.1"
         style="stop-color:#e6e600;stop-opacity:1"
         offset="1" />
    </linearGradient>
    <linearGradient
       x1="-343.91089"
       y1="1049.566"
       x2="-343.91089"
       y2="1048.566"
       id="0.1.2"
       gradientUnits="userSpaceOnUse"
       gradientTransform="matrix(93.5433,0,0,-25.5118,32217.33,27208.619)">
      <stop
         id="0.1.2.0"
         style="stop-color:#cccc00;stop-opacity:1"
         offset="0" />
      <stop
         id="0.1.2.1"
         style="stop-color:#e6e600;stop-opacity:1"
         offset="1" />
    </linearGradient>
    <radialGradient
       cx="445.41199"
       cy="922.67108"
       r="0"
       id="0.1.3"
       gradientUnits="userSpaceOnUse"
       gradientTransform="matrix(-120.47,0,0,-162.99,53779.211,150680.94)">
      <stop
         id="0.1.3.0"
         style="stop-color:#000080;stop-opacity:1"
         offset="0" />
      <stop
         id="0.1.3.1"
         style="stop-color:#5105cd;stop-opacity:1"
         offset="1" />
    </radialGradient>
    <radialGradient
       cx="-180.7701"
       cy="922.67102"
       r="1"
       id="0.1.4"
       gradientUnits="userSpaceOnUse"
       gradientTransform="matrix(120.47,0,0,-162.99,21897.834,150680.92)">
      <stop
         id="0.1.4.0"
         style="stop-color:#000080;stop-opacity:1"
         offset="0" />
      <stop
         id="0.1.4.1"
         style="stop-color:#5105cd;stop-opacity:1"
         offset="1" />
    </radialGradient>
    <radialGradient
       cx="445.41199"
       cy="922.67108"
       r="0"
       id="0.1.5"
       gradientUnits="userSpaceOnUse"
       gradientTransform="matrix(-120.47,0,0,-162.99,53779.211,150680.94)">
      <stop
         id="0.1.5.0"
         style="stop-color:#000080;stop-opacity:1"
         offset="0" />
      <stop
         id="0.1.5.1"
         style="stop-color:#5105cd;stop-opacity:1"
         offset="1" />
    </radialGradient>
  </defs>
  <metadata
     oldid="metadata6001"
     id="0.2">
    <rdf:RDF>
      <cc:Work
         rdf:about="">
        <dc:format>image/svg+xml</dc:format>
        <dc:type
           rdf:resource="http://purl.org/dc/dcmitype/StillImage" />
        <dc:title></dc:title>
      </cc:Work>
    </rdf:RDF>
  </metadata>
  <path
     d="m 85.216535,0.17716536 -70.866141,0 -14.17322864,14.17322064 0,21.25985 3.54330724,0 0,7.08661 -3.54330724,0 0,70.866154 m 0,0 85.03936964,0 0,-63.779534 -3.543307,0 0,-24.80315 3.543307,0 0,-24.80315064"
     id="silkscreen"
     style="fill:none;stroke:#ffffff;stroke-width:0.70866144;stroke-linecap:square;stroke-linejoin:miter;stroke-miterlimit:4;stroke-opacity:1;stroke-dasharray:none" />
  <g
     transform="translate(0.17716536,-938.7992)"
     id="g8828"
     style="fill:#f7bd13;fill-opacity:1">
    <path
       d="m 5.621332,965.38612 h 7.957311 V 949.07153 H 7.2141974 l -1.5928654,1.36131 v 14.95328 z"
       id="path123"
       style="fill:#f7bd13;fill-opacity:1" />
    <path
       d="m 30.989568,940.54321 -6.868542,0 0,17.89342 6.868542,0 0,-17.89342 z"
       id="connector2pad"
       style="fill:#f7bd13;fill-opacity:1" />
    <path
       d="m 48.400479,939.34707 -6.868541,0 0,19.08956 6.868541,0 0,-19.08956 z"
       id="connector4pad"
       style="fill:#f7bd13;fill-opacity:1" />
    <path
       d="m 39.451529,939.34707 -6.868541,0 0,19.08956 6.868541,0 0,-19.08956 z"
       id="connector3pad"
       style="fill:#f7bd13;fill-opacity:1" />
    <path
       d="m 57.703775,940.54321 -6.868541,0 0,17.89342 6.868541,0 0,-17.89342 z"
       id="connector5pad"
       style="fill:#f7bd13;fill-opacity:1" />
    <path
       d="m 66.608462,940.54321 -6.868542,0 0,17.89342 6.868542,0 0,-17.89342 z"
       id="connector6pad"
       style="fill:#f7bd13;fill-opacity:1" />
    <path
       d="m 74.409449,940.54321 -6.075002,0 0,17.89342 6.075002,0 0,-17.89342 z"
       id="connector7pad"
       style="fill:#f7bd13;fill-opacity:1" />
    <path
       d="m 79.278745,940.54321 -3.147201,0 0,17.89342 3.147201,0 0,-17.89342 z"
       id="connector8pad"
       style="fill:#f7bd13;fill-opacity:1" />
    <path
       d="m 22.125559,940.54321 -6.868541,0 0,17.89342 6.868541,0 0,-17.89342 z"
       id="connector1pad"
       style="fill:#f7bd13;fill-opacity:1" />
  </g>
  <g
     transform="translate(0.17716536,-938.7992)"
     id="copper0"
     style="fill:#f7bd13;fill-opacity:1">
    <path
       d="m 5.621332,965.38612 h 7.957311 V 949.07153 H 7.2141974 l -1.5928654,1.36131 v 14.95328 z"
       id="connector12"
       style="fill:#f7bd13;fill-opacity:1" />
    <path
       d="m 30.989568,940.54321 -6.868542,0 0,17.89342 6.868542,0 0,-17.89342 z"
       id="connector5"
       style="fill:#f7bd13;fill-opacity:1" />
    <path
       d="m 48.400479,939.34707 -6.868541,0 0,19.08956 6.868541,0 0,-19.08956 z"
       id="connector7"
       style="fill:#f7bd13;fill-opacity:1" />
    <path
       d="m 39.451529,939.34707 -6.868541,0 0,19.08956 6.868541,0 0,-19.08956 z"
       id="connector6"
       style="fill:#f7bd13;fill-opacity:1" />
    <path
       d="m 57.703775,940.54321 -6.868541,0 0,17.89342 6.868541,0 0,-17.89342 z"
       id="connector8"
       style="fill:#f7bd13;fill-opacity:1" />
    <path
       d="m 66.608462,940.54321 -6.868542,0 0,17.89342 6.868542,0 0,-17.89342 z"
       id="connector9"
       style="fill:#f7bd13;fill-opacity:1" />
    <path
       d="m 74.409449,940.54321 -6.075002,0 0,17.89342 6.075002,0 0,-17.89342 z"
       id="connector10"
       style="fill:#f7bd13;fill-opacity:1" />
    <path
       d="m 79.278745,940.54321 -3.147201,0 0,17.89342 3.147201,0 0,-17.89342 z"
       id="connector11"
       style="fill:#f7bd13;fill-opacity:1" />
    <path
       d="m 22.125559,940.54321 -6.868541,0 0,17.89342 6.868541,0 0,-17.89342 z"
       id="connector4"
       style="fill:#f7bd13;fill-opacity:1" />
  </g>
</svg>
